<?xml version="1.0" encoding="UTF-8"?>
<svg width="64px" height="64px" viewBox="0 0 64 64" version="1.1" xmlns="http://www.w3.org/2000/svg" xmlns:xlink="http://www.w3.org/1999/xlink">
    <!-- Generator: Sketch 46.2 (44496) - http://www.bohemiancoding.com/sketch -->
    <title>extra_small_2x</title>
    <desc>Created with Sketch.</desc>
    <defs></defs>
    <g id="Page-1" stroke="none" stroke-width="1" fill="none" fill-rule="evenodd">
        <g id="extra_small_2x" fill-rule="nonzero">
            <rect id="Rectangle-1" fill="#EEEEEE" x="0" y="0" width="64" height="64"></rect>
            <path d="M32,31.3158622 L32,14.2124137 C32,13.0512037 31.108397,12.16 29.9466666,12.16 L9.41333334,12.16 C8.25160298,12.16 7.36,13.0512037 7.36,14.2124137 L7.36,49.7875862 C7.36,50.9487966 8.25160298,51.84 9.41333334,51.84 L54.5866666,51.84 C55.748397,51.84 56.64,50.9487966 56.64,49.7875862 L56.64,33.3682758 C56.64,32.2070656 55.748397,31.3158622 54.5866666,31.3158622 L32,31.3158622 L32,31.3158622 Z M27.8933334,44.9986208 L11.4666667,44.9986208 L11.4666667,40.893793 L27.8933334,40.893793 L27.8933334,44.9986208 L27.8933334,44.9986208 Z M27.8933334,36.7889654 L11.4666667,36.7889654 L11.4666667,32.6841378 L27.8933334,32.6841378 L27.8933334,36.7889654 L27.8933334,36.7889654 Z M27.8933334,28.5793104 L11.4666667,28.5793104 L11.4666667,24.4744828 L27.8933334,24.4744828 L27.8933334,28.5793104 L27.8933334,28.5793104 Z M27.8933334,20.3696552 L11.4666667,20.3696552 L11.4666667,16.2648276 L27.8933334,16.2648276 L27.8933334,20.3696552 L27.8933334,20.3696552 Z M44.32,47.7351726 L40.2133334,47.7351726 L40.2133334,43.630345 L44.32,43.630345 L44.32,47.7351726 L44.32,47.7351726 Z M44.32,39.525517 L40.2133334,39.525517 L40.2133334,35.4206896 L44.32,35.4206896 L44.32,39.525517 L44.32,39.525517 Z M36.1066666,47.7351726 L32,47.7351726 L32,43.630345 L36.1066666,43.630345 L36.1066666,47.7351726 L36.1066666,47.7351726 Z M36.1066666,39.525517 L32,39.525517 L32,35.4206896 L36.1066666,35.4206896 L36.1066666,39.525517 L36.1066666,39.525517 Z M52.5333334,47.7351726 L48.4266666,47.7351726 L48.4266666,43.630345 L52.5333334,43.630345 L52.5333334,47.7351726 L52.5333334,47.7351726 Z M52.5333334,39.525517 L48.4266666,39.525517 L48.4266666,35.4206896 L52.5333334,35.4206896 L52.5333334,39.525517 L52.5333334,39.525517 Z" id="offering" fill="#FFFFFF"></path>
        </g>
    </g>
</svg>