<?xml version="1.0" encoding="UTF-8"?>
<svg width="32px" height="32px" viewBox="0 0 32 32" version="1.1" xmlns="http://www.w3.org/2000/svg" xmlns:xlink="http://www.w3.org/1999/xlink">
    <!-- Generator: Sketch 46.2 (44496) - http://www.bohemiancoding.com/sketch -->
    <title>extra_small</title>
    <desc>Created with Sketch.</desc>
    <defs></defs>
    <g id="Page-1" stroke="none" stroke-width="1" fill="none" fill-rule="evenodd">
        <g id="extra_small" fill-rule="nonzero">
            <rect id="Rectangle-1" fill="#EEEEEE" x="0" y="0" width="32" height="32"></rect>
            <path d="M16,15.6579311 L16,7.10620687 C16,6.52560184 15.5541985,6.08 14.9733333,6.08 L4.70666667,6.08 C4.12580149,6.08 3.68,6.52560184 3.68,7.10620687 L3.68,24.8937931 C3.68,25.4743983 4.12580149,25.92 4.70666667,25.92 L27.2933333,25.92 C27.8741985,25.92 28.32,25.4743983 28.32,24.8937931 L28.32,16.6841379 C28.32,16.1035328 27.8741985,15.6579311 27.2933333,15.6579311 L16,15.6579311 L16,15.6579311 Z M13.9466667,22.4993104 L5.73333333,22.4993104 L5.73333333,20.4468965 L13.9466667,20.4468965 L13.9466667,22.4993104 L13.9466667,22.4993104 Z M13.9466667,18.3944827 L5.73333333,18.3944827 L5.73333333,16.3420689 L13.9466667,16.3420689 L13.9466667,18.3944827 L13.9466667,18.3944827 Z M13.9466667,14.2896552 L5.73333333,14.2896552 L5.73333333,12.2372414 L13.9466667,12.2372414 L13.9466667,14.2896552 L13.9466667,14.2896552 Z M13.9466667,10.1848276 L5.73333333,10.1848276 L5.73333333,8.1324138 L13.9466667,8.1324138 L13.9466667,10.1848276 L13.9466667,10.1848276 Z M22.16,23.8675863 L20.1066667,23.8675863 L20.1066667,21.8151725 L22.16,21.8151725 L22.16,23.8675863 L22.16,23.8675863 Z M22.16,19.7627585 L20.1066667,19.7627585 L20.1066667,17.7103448 L22.16,17.7103448 L22.16,19.7627585 L22.16,19.7627585 Z M18.0533333,23.8675863 L16,23.8675863 L16,21.8151725 L18.0533333,21.8151725 L18.0533333,23.8675863 L18.0533333,23.8675863 Z M18.0533333,19.7627585 L16,19.7627585 L16,17.7103448 L18.0533333,17.7103448 L18.0533333,19.7627585 L18.0533333,19.7627585 Z M26.2666667,23.8675863 L24.2133333,23.8675863 L24.2133333,21.8151725 L26.2666667,21.8151725 L26.2666667,23.8675863 L26.2666667,23.8675863 Z M26.2666667,19.7627585 L24.2133333,19.7627585 L24.2133333,17.7103448 L26.2666667,17.7103448 L26.2666667,19.7627585 L26.2666667,19.7627585 Z" id="offering" fill="#FFFFFF"></path>
        </g>
    </g>
</svg>