<?xml version="1.0" encoding="UTF-8"?>
<svg width="256px" height="256px" viewBox="0 0 256 256" version="1.1" xmlns="http://www.w3.org/2000/svg" xmlns:xlink="http://www.w3.org/1999/xlink">
    <!-- Generator: Sketch 46.2 (44496) - http://www.bohemiancoding.com/sketch -->
    <title>large_2x</title>
    <desc>Created with Sketch.</desc>
    <defs></defs>
    <g id="Page-1" stroke="none" stroke-width="1" fill="none" fill-rule="evenodd">
        <g id="large_2x" fill-rule="nonzero">
            <rect id="Rectangle-1" fill="#EEEEEE" x="0" y="0" width="256" height="256"></rect>
            <path d="M128,125.263448 L128,56.8496552 C128,52.2048147 124.433588,48.64 119.786667,48.64 L37.6533334,48.64 C33.0064119,48.64 29.44,52.2048147 29.44,56.8496552 L29.44,199.150345 C29.44,203.795186 33.0064119,207.36 37.6533334,207.36 L218.346666,207.36 C222.993588,207.36 226.56,203.795186 226.56,199.150345 L226.56,133.473103 C226.56,128.828262 222.993588,125.263448 218.346666,125.263448 L128,125.263448 L128,125.263448 Z M111.573333,179.994483 L45.8666666,179.994483 L45.8666666,163.575172 L111.573333,163.575172 L111.573333,179.994483 L111.573333,179.994483 Z M111.573333,147.155862 L45.8666666,147.155862 L45.8666666,130.736552 L111.573333,130.736552 L111.573333,147.155862 L111.573333,147.155862 Z M111.573333,114.317241 L45.8666666,114.317241 L45.8666666,97.897931 L111.573333,97.897931 L111.573333,114.317241 L111.573333,114.317241 Z M111.573333,81.4786207 L45.8666666,81.4786207 L45.8666666,65.0593103 L111.573333,65.0593103 L111.573333,81.4786207 L111.573333,81.4786207 Z M177.28,190.94069 L160.853334,190.94069 L160.853334,174.52138 L177.28,174.52138 L177.28,190.94069 L177.28,190.94069 Z M177.28,158.102068 L160.853334,158.102068 L160.853334,141.682758 L177.28,141.682758 L177.28,158.102068 L177.28,158.102068 Z M144.426666,190.94069 L128,190.94069 L128,174.52138 L144.426666,174.52138 L144.426666,190.94069 L144.426666,190.94069 Z M144.426666,158.102068 L128,158.102068 L128,141.682758 L144.426666,141.682758 L144.426666,158.102068 L144.426666,158.102068 Z M210.133334,190.94069 L193.706666,190.94069 L193.706666,174.52138 L210.133334,174.52138 L210.133334,190.94069 L210.133334,190.94069 Z M210.133334,158.102068 L193.706666,158.102068 L193.706666,141.682758 L210.133334,141.682758 L210.133334,158.102068 L210.133334,158.102068 Z" id="offering" fill="#FFFFFF"></path>
        </g>
    </g>
</svg>