<?xml version="1.0" encoding="UTF-8"?>
<svg width="128px" height="128px" viewBox="0 0 128 128" version="1.1" xmlns="http://www.w3.org/2000/svg" xmlns:xlink="http://www.w3.org/1999/xlink">
    <!-- Generator: Sketch 46.2 (44496) - http://www.bohemiancoding.com/sketch -->
    <title>large</title>
    <desc>Created with Sketch.</desc>
    <defs></defs>
    <g id="Page-1" stroke="none" stroke-width="1" fill="none" fill-rule="evenodd">
        <g id="large" fill-rule="nonzero">
            <rect id="Rectangle-1" fill="#EEEEEE" x="0" y="0" width="128" height="128"></rect>
            <path d="M64,62.6317242 L64,28.4248276 C64,26.1024074 62.216794,24.32 59.8933333,24.32 L18.8266667,24.32 C16.503206,24.32 14.72,26.1024074 14.72,28.4248276 L14.72,99.5751725 C14.72,101.897593 16.503206,103.68 18.8266667,103.68 L109.173333,103.68 C111.496794,103.68 113.28,101.897593 113.28,99.5751725 L113.28,66.7365517 C113.28,64.4141312 111.496794,62.6317242 109.173333,62.6317242 L64,62.6317242 L64,62.6317242 Z M55.7866667,89.9972416 L22.9333333,89.9972416 L22.9333333,81.7875859 L55.7866667,81.7875859 L55.7866667,89.9972416 L55.7866667,89.9972416 Z M55.7866667,73.5779309 L22.9333333,73.5779309 L22.9333333,65.3682758 L55.7866667,65.3682758 L55.7866667,73.5779309 L55.7866667,73.5779309 Z M55.7866667,57.1586207 L22.9333333,57.1586207 L22.9333333,48.9489655 L55.7866667,48.9489655 L55.7866667,57.1586207 L55.7866667,57.1586207 Z M55.7866667,40.7393103 L22.9333333,40.7393103 L22.9333333,32.5296552 L55.7866667,32.5296552 L55.7866667,40.7393103 L55.7866667,40.7393103 Z M88.64,95.470345 L80.4266669,95.470345 L80.4266669,87.2606899 L88.64,87.2606899 L88.64,95.470345 L88.64,95.470345 Z M88.64,79.0510342 L80.4266669,79.0510342 L80.4266669,70.8413792 L88.64,70.8413792 L88.64,79.0510342 L88.64,79.0510342 Z M72.2133331,95.470345 L64,95.470345 L64,87.2606899 L72.2133331,87.2606899 L72.2133331,95.470345 L72.2133331,95.470345 Z M72.2133331,79.0510342 L64,79.0510342 L64,70.8413792 L72.2133331,70.8413792 L72.2133331,79.0510342 L72.2133331,79.0510342 Z M105.066667,95.470345 L96.8533331,95.470345 L96.8533331,87.2606899 L105.066667,87.2606899 L105.066667,95.470345 L105.066667,95.470345 Z M105.066667,79.0510342 L96.8533331,79.0510342 L96.8533331,70.8413792 L105.066667,70.8413792 L105.066667,79.0510342 L105.066667,79.0510342 Z" id="offering" fill="#FFFFFF"></path>
        </g>
    </g>
</svg>