<?xml version="1.0" encoding="UTF-8"?>
<svg width="96px" height="96px" viewBox="0 0 96 96" version="1.1" xmlns="http://www.w3.org/2000/svg" xmlns:xlink="http://www.w3.org/1999/xlink">
    <!-- Generator: Sketch 46.2 (44496) - http://www.bohemiancoding.com/sketch -->
    <title>medium</title>
    <desc>Created with Sketch.</desc>
    <defs></defs>
    <g id="Page-1" stroke="none" stroke-width="1" fill="none" fill-rule="evenodd">
        <g id="medium" fill-rule="nonzero">
            <rect id="Rectangle-1" fill="#EEEEEE" x="0" y="0" width="96" height="96"></rect>
            <path d="M48,46.9737931 L48,21.3186207 C48,19.5768055 46.6625956,18.24 44.92,18.24 L14.12,18.24 C12.3774044,18.24 11.04,19.5768055 11.04,21.3186207 L11.04,74.6813793 C11.04,76.4231947 12.3774044,77.76 14.12,77.76 L81.8799999,77.76 C83.6225957,77.76 84.96,76.4231947 84.96,74.6813793 L84.96,50.0524137 C84.96,48.3105984 83.6225957,46.9737931 81.8799999,46.9737931 L48,46.9737931 L48,46.9737931 Z M41.84,67.4979312 L17.2,67.4979312 L17.2,61.3406895 L41.84,61.3406895 L41.84,67.4979312 L41.84,67.4979312 Z M41.84,55.1834481 L17.2,55.1834481 L17.2,49.0262069 L41.84,49.0262069 L41.84,55.1834481 L41.84,55.1834481 Z M41.84,42.8689655 L17.2,42.8689655 L17.2,36.7117242 L41.84,36.7117242 L41.84,42.8689655 L41.84,42.8689655 Z M41.84,30.5544827 L17.2,30.5544827 L17.2,24.3972414 L41.84,24.3972414 L41.84,30.5544827 L41.84,30.5544827 Z M66.48,71.6027587 L60.3200001,71.6027587 L60.3200001,65.4455175 L66.48,65.4455175 L66.48,71.6027587 L66.48,71.6027587 Z M66.48,59.2882757 L60.3200001,59.2882757 L60.3200001,53.1310344 L66.48,53.1310344 L66.48,59.2882757 L66.48,59.2882757 Z M54.1599999,71.6027587 L48,71.6027587 L48,65.4455175 L54.1599999,65.4455175 L54.1599999,71.6027587 L54.1599999,71.6027587 Z M54.1599999,59.2882757 L48,59.2882757 L48,53.1310344 L54.1599999,53.1310344 L54.1599999,59.2882757 L54.1599999,59.2882757 Z M78.8000001,71.6027587 L72.6399999,71.6027587 L72.6399999,65.4455175 L78.8000001,65.4455175 L78.8000001,71.6027587 L78.8000001,71.6027587 Z M78.8000001,59.2882757 L72.6399999,59.2882757 L72.6399999,53.1310344 L78.8000001,53.1310344 L78.8000001,59.2882757 L78.8000001,59.2882757 Z" id="offering" fill="#FFFFFF"></path>
        </g>
    </g>
</svg>