<?xml version="1.0" encoding="UTF-8"?>
<svg width="192px" height="192px" viewBox="0 0 192 192" version="1.1" xmlns="http://www.w3.org/2000/svg" xmlns:xlink="http://www.w3.org/1999/xlink">
    <!-- Generator: Sketch 46.2 (44496) - http://www.bohemiancoding.com/sketch -->
    <title>medium_2x</title>
    <desc>Created with Sketch.</desc>
    <defs></defs>
    <g id="Page-1" stroke="none" stroke-width="1" fill="none" fill-rule="evenodd">
        <g id="medium_2x" fill-rule="nonzero">
            <rect id="Rectangle-1" fill="#EEEEEE" x="0" y="0" width="192" height="192"></rect>
            <path d="M96,93.9475863 L96,42.6372414 C96,39.1536111 93.3251911,36.48 89.8399999,36.48 L28.2400001,36.48 C24.7548089,36.48 22.08,39.1536111 22.08,42.6372414 L22.08,149.362759 C22.08,152.846389 24.7548089,155.52 28.2400001,155.52 L163.76,155.52 C167.245191,155.52 169.92,152.846389 169.92,149.362759 L169.92,100.104827 C169.92,96.6211968 167.245191,93.9475863 163.76,93.9475863 L96,93.9475863 L96,93.9475863 Z M83.6800001,134.995862 L34.3999999,134.995862 L34.3999999,122.681379 L83.6800001,122.681379 L83.6800001,134.995862 L83.6800001,134.995862 Z M83.6800001,110.366896 L34.3999999,110.366896 L34.3999999,98.0524137 L83.6800001,98.0524137 L83.6800001,110.366896 L83.6800001,110.366896 Z M83.6800001,85.737931 L34.3999999,85.737931 L34.3999999,73.4234483 L83.6800001,73.4234483 L83.6800001,85.737931 L83.6800001,85.737931 Z M83.6800001,61.1089654 L34.3999999,61.1089654 L34.3999999,48.7944827 L83.6800001,48.7944827 L83.6800001,61.1089654 L83.6800001,61.1089654 Z M132.96,143.205517 L120.64,143.205517 L120.64,130.891035 L132.96,130.891035 L132.96,143.205517 L132.96,143.205517 Z M132.96,118.576551 L120.64,118.576551 L120.64,106.262069 L132.96,106.262069 L132.96,118.576551 L132.96,118.576551 Z M108.32,143.205517 L96,143.205517 L96,130.891035 L108.32,130.891035 L108.32,143.205517 L108.32,143.205517 Z M108.32,118.576551 L96,118.576551 L96,106.262069 L108.32,106.262069 L108.32,118.576551 L108.32,118.576551 Z M157.6,143.205517 L145.28,143.205517 L145.28,130.891035 L157.6,130.891035 L157.6,143.205517 L157.6,143.205517 Z M157.6,118.576551 L145.28,118.576551 L145.28,106.262069 L157.6,106.262069 L157.6,118.576551 L157.6,118.576551 Z" id="offering" fill="#FFFFFF"></path>
        </g>
    </g>
</svg>