<?xml version="1.0" encoding="UTF-8"?>
<svg width="64px" height="64px" viewBox="0 0 64 64" version="1.1" xmlns="http://www.w3.org/2000/svg" xmlns:xlink="http://www.w3.org/1999/xlink">
    <!-- Generator: Sketch 46.2 (44496) - http://www.bohemiancoding.com/sketch -->
    <title>small</title>
    <desc>Created with Sketch.</desc>
    <defs></defs>
    <g id="Page-1" stroke="none" stroke-width="1" fill="none" fill-rule="evenodd">
        <g id="small" fill-rule="nonzero">
            <rect id="Rectangle-1" fill="#EEEEEE" x="0" y="0" width="64" height="64"></rect>
            <path d="M32,31.3158621 L32,14.2124137 C32,13.0512037 31.1083971,12.16 29.9466667,12.16 L9.41333335,12.16 C8.25160297,12.16 7.36,13.0512037 7.36,14.2124137 L7.36,49.7875863 C7.36,50.9487965 8.25160297,51.84 9.41333335,51.84 L54.5866665,51.84 C55.7483971,51.84 56.64,50.9487965 56.64,49.7875863 L56.64,33.3682759 C56.64,32.2070656 55.7483971,31.3158621 54.5866665,31.3158621 L32,31.3158621 L32,31.3158621 Z M27.8933333,44.9986208 L11.4666667,44.9986208 L11.4666667,40.8937929 L27.8933333,40.8937929 L27.8933333,44.9986208 L27.8933333,44.9986208 Z M27.8933333,36.7889655 L11.4666667,36.7889655 L11.4666667,32.6841379 L27.8933333,32.6841379 L27.8933333,36.7889655 L27.8933333,36.7889655 Z M27.8933333,28.5793104 L11.4666667,28.5793104 L11.4666667,24.4744828 L27.8933333,24.4744828 L27.8933333,28.5793104 L27.8933333,28.5793104 Z M27.8933333,20.3696552 L11.4666667,20.3696552 L11.4666667,16.2648276 L27.8933333,16.2648276 L27.8933333,20.3696552 L27.8933333,20.3696552 Z M44.32,47.7351725 L40.2133335,47.7351725 L40.2133335,43.6303449 L44.32,43.6303449 L44.32,47.7351725 L44.32,47.7351725 Z M44.32,39.5255171 L40.2133335,39.5255171 L40.2133335,35.4206896 L44.32,35.4206896 L44.32,39.5255171 L44.32,39.5255171 Z M36.1066665,47.7351725 L32,47.7351725 L32,43.6303449 L36.1066665,43.6303449 L36.1066665,47.7351725 L36.1066665,47.7351725 Z M36.1066665,39.5255171 L32,39.5255171 L32,35.4206896 L36.1066665,35.4206896 L36.1066665,39.5255171 L36.1066665,39.5255171 Z M52.5333335,47.7351725 L48.4266665,47.7351725 L48.4266665,43.6303449 L52.5333335,43.6303449 L52.5333335,47.7351725 L52.5333335,47.7351725 Z M52.5333335,39.5255171 L48.4266665,39.5255171 L48.4266665,35.4206896 L52.5333335,35.4206896 L52.5333335,39.5255171 L52.5333335,39.5255171 Z" id="offering" fill="#FFFFFF"></path>
        </g>
    </g>
</svg>