<svg width="212" height="212" viewBox="0 0 212 212" fill="none" xmlns="http://www.w3.org/2000/svg">
<path d="M75.8892 127.383L20.0798 164.109M31.3812 177.882L79.4211 130.562" stroke="#00AE99" stroke-width="3.23048"/>
<path d="M87.5438 137.978L58.5761 198.013M43.3897 188.831L83.6588 134.446" stroke="#00AE99" stroke-width="3.23048"/>
<path d="M132.226 134.922L130.621 135.104L132.226 134.922ZM132.902 102.519L131.348 102.079L132.902 102.519ZM145.628 74.1676L144.365 73.1603L144.307 73.2329L144.258 73.3117L145.628 74.1676ZM125.084 150.545L124.026 151.765L125.266 152.841L126.321 151.582L125.084 150.545ZM96.4642 135.905L97.5943 137.059L97.6423 137.012L97.6862 136.961L96.4642 135.905ZM91.7336 135.97L92.7899 134.748L92.7898 134.748L91.7336 135.97ZM90.3338 137.59L91.2975 138.886L91.4398 138.78L91.5558 138.646L90.3338 137.59ZM87.6663 137.405L88.7226 136.183L88.7226 136.183L87.6663 137.405ZM104.833 116.854L103.747 118.049L103.762 118.063L103.777 118.076L104.833 116.854ZM128.253 146.167L129.617 147.032L129.617 147.032L128.253 146.167ZM156.838 46.641L158.334 46.0316L158.187 45.6725L157.894 45.419L156.838 46.641ZM72.6116 83.3911L72.6643 85.0054L72.6643 85.0054L72.6116 83.3911ZM104.576 78.0331L105.236 79.5076L104.576 78.0331ZM130.788 61.3399L131.833 62.5714L131.904 62.5113L131.967 62.4435L130.788 61.3399ZM58.187 92.7183L56.9809 91.6439L55.8886 92.87L57.1326 93.9419L58.187 92.7183ZM76.8137 118.919L75.5917 117.862L75.5477 117.913L75.5082 117.967L76.8137 118.919ZM77.4332 123.609L78.4896 122.387L78.4895 122.387L77.4332 123.609ZM76.0334 125.228L74.8114 124.172L74.6955 124.306L74.6114 124.462L76.0334 125.228ZM76.6026 127.841L77.6589 126.619L77.6589 126.619L76.6026 127.841ZM94.4534 107.881L93.3971 109.103L93.412 109.116L93.4273 109.129L94.4534 107.881ZM62.0601 88.9488L61.0062 87.7247L61.0062 87.7247L62.0601 88.9488ZM156.403 46.2649L157.459 45.0429L157.166 44.7894L156.789 44.6966L156.403 46.2649ZM144.302 73.3844L105.294 118.512L107.738 120.624L146.746 75.497L144.302 73.3844ZM133.831 134.741C133.104 128.311 130.444 117.155 134.457 102.958L131.348 102.079C127.118 117.044 129.931 128.998 130.621 135.104L133.831 134.741ZM134.457 102.958C137.697 91.4925 144.175 79.5406 146.997 75.0235L144.258 73.3117C141.344 77.9744 134.702 90.2146 131.348 102.079L134.457 102.958ZM146.89 75.1748C148.339 73.3588 150.627 70.1686 152.708 67.055C154.756 63.9895 156.728 60.8141 157.439 59.09L154.452 57.8587C153.886 59.2322 152.109 62.1368 150.022 65.2603C147.967 68.3356 145.735 71.4433 144.365 73.1603L146.89 75.1748ZM126.142 149.324L102.551 128.867L100.434 131.308L124.026 151.765L126.142 149.324ZM100.27 129.031L95.2423 134.848L97.6862 136.961L102.714 131.144L100.27 129.031ZM95.3342 134.751C95.3395 134.745 95.3146 134.77 95.2531 134.814C95.195 134.856 95.1171 134.906 95.0227 134.958C94.8306 135.063 94.5996 135.157 94.3542 135.207C93.9144 135.296 93.3869 135.264 92.7899 134.748L90.6773 137.192C92.1302 138.448 93.7123 138.634 94.9977 138.373C96.1927 138.13 97.137 137.507 97.5943 137.059L95.3342 134.751ZM90.5116 134.914L89.1118 136.533L91.5558 138.646L92.9556 137.027L90.5116 134.914ZM89.3701 136.293C89.3877 136.28 89.3664 136.298 89.3095 136.32C89.2571 136.34 89.1982 136.354 89.1403 136.357C89.0857 136.361 89.0321 136.355 88.976 136.337C88.9219 136.319 88.8357 136.28 88.7226 136.183L86.61 138.626C88.4541 140.221 90.4813 139.493 91.2975 138.886L89.3701 136.293ZM103.777 118.076C105.107 119.225 106.03 122.368 103.76 124.995L106.204 127.107C109.716 123.044 108.48 117.871 105.889 115.632L103.777 118.076ZM103.76 124.995L100.27 129.031L102.714 131.144L106.204 127.107L103.76 124.995ZM126.321 151.582C127.235 150.494 128.441 148.885 129.617 147.032L126.889 145.301C125.789 147.036 124.666 148.529 123.846 149.507L126.321 151.582ZM129.617 147.032C130.763 145.227 131.906 143.149 132.719 141.061C133.52 139.002 134.061 136.778 133.831 134.741L130.621 135.104C130.765 136.382 130.432 138.03 129.708 139.889C128.996 141.719 127.966 143.605 126.889 145.301L129.617 147.032ZM129.309 144.945L106.038 124.829L103.926 127.273L127.197 147.389L129.309 144.945ZM102.549 128.866L92.4066 120.099L90.294 122.543L100.436 131.31L102.549 128.866ZM98.3241 113.251C100.592 115.214 102.647 117.05 103.747 118.049L105.919 115.658C104.8 114.642 102.726 112.789 100.439 110.809L98.3241 113.251ZM83.2099 130.738L90.6774 137.192L92.7898 134.748L85.3223 128.294L83.2099 130.738ZM80.8109 133.614L86.61 138.626L88.7226 136.183L82.9235 131.17L80.8109 133.614ZM157.439 59.09C158.129 57.416 158.76 55.2144 159.025 52.9338C159.288 50.6737 159.21 48.1839 158.334 46.0316L155.342 47.2503C155.933 48.7007 156.047 50.5788 155.817 52.5603C155.588 54.5213 155.039 56.435 154.452 57.8587L157.439 59.09ZM129.31 60.4252L90.3021 105.552L92.7461 107.665L131.754 62.5378L129.31 60.4252ZM72.6643 85.0054C78.8057 84.805 91.0407 85.858 105.236 79.5076L103.917 76.5587C90.4491 82.5836 79.026 81.5656 72.5589 81.7767L72.6643 85.0054ZM105.236 79.5076C116.491 74.4727 127.641 66.1289 131.833 62.5714L129.743 60.1083C125.682 63.5546 114.793 71.6933 103.917 76.5587L105.236 79.5076ZM131.967 62.4435C133.468 60.8398 136.22 58.1815 138.966 55.7034C141.754 53.1865 144.371 51.0074 145.648 50.2483L143.998 47.4713C142.395 48.4241 139.538 50.835 136.801 53.3052C134.021 55.8142 131.196 58.54 129.608 60.2362L131.967 62.4435ZM57.1326 93.9419L80.7875 114.325L82.8963 111.878L59.2414 91.4946L57.1326 93.9419ZM80.6199 112.045L75.5917 117.862L78.0356 119.975L83.0639 114.158L80.6199 112.045ZM75.5082 117.967C75.1313 118.485 74.6514 119.509 74.5839 120.727C74.5114 122.036 74.924 123.575 76.3769 124.831L78.4895 122.387C77.8925 121.871 77.7847 121.353 77.8095 120.905C77.8233 120.655 77.8827 120.413 77.9588 120.208C77.9963 120.107 78.035 120.023 78.068 119.959C78.103 119.892 78.1235 119.864 78.1191 119.87L75.5082 117.967ZM76.2112 122.553L74.8114 124.172L77.2554 126.285L78.6552 124.665L76.2112 122.553ZM74.6114 124.462C74.129 125.358 73.7021 127.469 75.5463 129.063L77.6589 126.619C77.5458 126.521 77.4948 126.441 77.4695 126.391C77.4434 126.338 77.4301 126.285 77.4256 126.231C77.4207 126.173 77.4259 126.113 77.4381 126.058C77.4512 125.999 77.4659 125.975 77.4554 125.994L74.6114 124.462ZM95.5097 106.659C92.919 104.42 87.6219 103.945 84.1094 108.008L86.5533 110.121C88.8235 107.495 92.0671 107.954 93.3971 109.103L95.5097 106.659ZM84.1094 108.008L80.6199 112.045L83.0639 114.158L86.5533 110.121L84.1094 108.008ZM59.3931 93.7927C60.2421 92.8396 61.557 91.5133 63.1139 90.173L61.0062 87.7247C59.343 89.1566 57.9262 90.5827 56.9809 91.6439L59.3931 93.7927ZM63.1139 90.173C64.6362 88.8624 66.3533 87.5702 68.0611 86.6009C69.7963 85.616 71.3784 85.0474 72.6643 85.0054L72.5589 81.7767C70.5098 81.8435 68.3876 82.701 66.4665 83.7914C64.518 84.8973 62.6269 86.3296 61.0062 87.7247L63.1139 90.173ZM61.0038 90.1708L84.275 110.287L86.3876 107.843L63.1164 87.7269L61.0038 90.1708ZM80.7856 114.324L90.9277 123.091L93.0403 120.647L82.8982 111.88L80.7856 114.324ZM101.07 111.355C98.7798 109.378 96.6465 107.594 95.4795 106.634L93.4273 109.129C94.5754 110.073 96.6892 111.841 98.9597 113.801L101.07 111.355ZM85.9562 128.842L78.4896 122.387L76.3768 124.831L83.8434 131.286L85.9562 128.842ZM83.4579 131.632L77.6589 126.619L75.5463 129.063L81.3453 134.076L83.4579 131.632ZM145.648 50.2483C146.972 49.4616 148.786 48.6415 150.694 48.1319C152.621 47.617 154.496 47.4585 156.016 47.8332L156.789 44.6966C154.533 44.1405 152.058 44.4235 149.86 45.0108C147.642 45.6035 145.554 46.5462 143.998 47.4713L145.648 50.2483ZM157.894 45.419L157.459 45.0429L155.346 47.4869L155.782 47.8629L157.894 45.419Z" fill="#00AE99"/>
<path d="M112.964 21.7777V26.7222M112.964 31.6666V26.7222M112.964 26.7222H108.019H117.908" stroke="#00AE99" stroke-width="3.23048"/>
<path d="M185.718 105.835V110.779M185.718 115.724V110.779M185.718 110.779H180.773H190.662" stroke="#00AE99" stroke-width="3.23048"/>
<path d="M64.2247 42.9686V47.913M64.2247 52.8574V47.913M64.2247 47.913H59.2803H69.1692" stroke="#00AE99" stroke-width="3.23048"/>
<path d="M105.9 209.668C163.246 209.668 209.734 163.18 209.734 105.834C209.734 48.4881 163.246 2 105.9 2C48.554 2 2.06592 48.4881 2.06592 105.834C2.06592 163.18 48.554 209.668 105.9 209.668Z" stroke="#00AE99" stroke-width="3.23048" stroke-miterlimit="10"/>
</svg>
