<svg width="212" height="212" viewBox="0 0 212 212" fill="none" xmlns="http://www.w3.org/2000/svg">
<path d="M105.935 209.668C163.281 209.668 209.769 163.18 209.769 105.834C209.769 48.4881 163.281 2 105.935 2C48.5896 2 2.10156 48.4881 2.10156 105.834C2.10156 163.18 48.5896 209.668 105.935 209.668Z" stroke="#00AE99" stroke-width="3" stroke-miterlimit="10"/>
<path d="M172.929 61.9576C156.087 45.1154 128.78 45.1154 111.938 61.9576L105.842 68.0589L99.7406 61.9576C82.8984 45.1154 55.5916 45.1154 38.7493 61.9576C21.9071 78.7999 21.9071 106.107 38.7493 122.949L44.8506 129.05L105.842 190.036L166.833 129.045L172.934 122.944C189.771 106.107 189.771 78.7999 172.929 61.9576Z" stroke="#00AE99" stroke-width="3" stroke-miterlimit="10"/>
<path d="M155.038 96.1096C142.687 83.7582 122.661 83.7582 110.315 96.1096L105.84 100.585L101.365 96.1096C89.014 83.7582 68.9883 83.7582 56.637 96.1096C44.2857 108.461 44.2857 128.487 56.637 140.838L61.112 145.313L105.835 190.041L150.563 145.313L155.038 140.838C167.39 128.487 167.39 108.461 155.038 96.1096Z" stroke="#00AE99" stroke-width="3" stroke-miterlimit="10"/>
<path d="M137.149 130.267C129.289 122.406 116.544 122.406 108.689 130.267L105.84 133.116L102.992 130.267C95.1312 122.406 82.3866 122.406 74.5315 130.267C66.6711 138.127 66.6711 150.872 74.5315 158.727L77.3802 161.576L105.84 190.036L134.3 161.576L137.149 158.727C145.01 150.867 145.01 138.127 137.149 130.267Z" stroke="#00AE99" stroke-width="3" stroke-miterlimit="10"/>
</svg>
