<svg width="212" height="212" viewBox="0 0 212 212" fill="none" xmlns="http://www.w3.org/2000/svg">
<path d="M106.166 209.668C163.512 209.668 210 163.18 210 105.834C210 48.488 163.512 2 106.166 2C48.8201 2 2.33203 48.488 2.33203 105.834C2.33203 163.18 48.8201 209.668 106.166 209.668Z" stroke="#00AE99" stroke-width="3" stroke-miterlimit="10"/>
<path d="M105.884 188.477C151.76 188.477 188.951 151.286 188.951 105.41C188.951 59.533 151.76 22.3425 105.884 22.3425C60.0068 22.3425 22.8164 59.533 22.8164 105.41C22.8164 151.286 60.0068 188.477 105.884 188.477Z" stroke="#00AE99" stroke-width="3" stroke-miterlimit="10"/>
<path d="M105.883 188.477C133.317 188.477 155.557 151.286 155.557 105.41C155.557 59.533 133.317 22.3425 105.883 22.3425C78.4491 22.3425 56.2095 59.533 56.2095 105.41C56.2095 151.286 78.4491 188.477 105.883 188.477Z" stroke="#00AE99" stroke-width="3" stroke-miterlimit="10"/>
<path d="M105.884 22.3425V188.477" stroke="#00AE99" stroke-width="3" stroke-miterlimit="10"/>
<path d="M188.951 105.41H22.8164" stroke="#00AE99" stroke-width="3" stroke-miterlimit="10"/>
<path d="M178.061 146.916H33.708" stroke="#00AE99" stroke-width="3" stroke-miterlimit="10"/>
<path d="M178.061 63.8479H33.708" stroke="#00AE99" stroke-width="3" stroke-miterlimit="10"/>
</svg>
