<svg width="152" height="152" viewBox="0 0 152 152" fill="none" xmlns="http://www.w3.org/2000/svg">
<path d="M76 150C116.869 150 150 116.869 150 76.0001C150 35.1309 116.869 2 76 2C35.1309 2 2 35.1309 2 76.0001C2 116.869 35.1309 150 76 150Z" stroke="#00AE99" stroke-width="3" stroke-miterlimit="10"/>
<path d="M76.5 136C109.361 136 136 109.361 136 76.5001C136 43.6391 109.361 17 76.5 17C43.6391 17 17 43.6391 17 76.5001C17 109.361 43.6391 136 76.5 136Z" stroke="#00AE99" stroke-width="3" stroke-miterlimit="10"/>
<path d="M60 99.0072V101H62.0225H93.9775H96V99.0072V89.8407V87.848H93.9775H85.4831V47.9928V46H83.4607H73.3483H72.7269L72.2128 46.3438L60.8869 53.9163L60 54.5093V55.5652V66.5918V70.3522L63.1582 68.2409L71.3258 62.7798V87.848H62.0225H60V89.8407V99.0072Z" stroke="#00AE99" stroke-width="3"/>
<path d="M17 75C29.4348 73.0198 39 62.7228 39 50.0495C39 44.3729 37.087 39.2244 33.8075 35C23.559 45.429 17.1366 59.5545 17 75Z" stroke="#00AE99" stroke-width="3" stroke-miterlimit="10"/>
<path d="M17 76C17.1366 91.967 23.559 106.31 33.8075 117C37.087 112.67 39 107.393 39 101.574C39 88.5842 29.4348 77.8944 17 76Z" stroke="#00AE99" stroke-width="3" stroke-miterlimit="10"/>
<path d="M136 75C123 73.0198 113 62.7228 113 50.0495C113 44.3729 115 39.2244 118.429 35C129.143 45.429 135.857 59.5545 136 75Z" stroke="#00AE99" stroke-width="3" stroke-miterlimit="10"/>
<path d="M136 76C135.857 91.967 129.143 106.31 118.429 117C115 112.67 113 107.393 113 101.574C113 88.5842 123 77.8944 136 76Z" stroke="#00AE99" stroke-width="3" stroke-miterlimit="10"/>
</svg>
