<svg width="152" height="152" viewBox="0 0 152 152" fill="none" xmlns="http://www.w3.org/2000/svg">
<path d="M76.0274 150.285C117.025 150.285 150.259 117.019 150.259 75.9816C150.259 34.9445 117.025 1.67819 76.0274 1.67819C35.0302 1.67819 1.79541 34.9445 1.79541 75.9816C1.79541 117.019 35.0302 150.285 76.0274 150.285Z" stroke="#00AE99" stroke-width="3" stroke-miterlimit="10"/>
<path d="M83.5116 72.1241V28.4055H89.6595V16.0885H62.395V28.4055H68.5428V72.1241C54.5096 75.5079 44.085 88.3663 44.085 103.526C44.085 121.392 58.3855 135.875 76.0272 135.875C93.669 135.875 107.969 121.392 107.969 103.526C107.969 88.231 97.5448 75.5079 83.5116 72.1241Z" stroke="#00AE99" stroke-width="3" stroke-miterlimit="10"/>
<path d="M89.9738 16.0885H62.0806V28.6976H89.9738V16.0885Z" stroke="#00AE99" stroke-width="3" stroke-miterlimit="10"/>
<path d="M49.4839 85.4384H102.571" stroke="#00AE99" stroke-width="3" stroke-miterlimit="10"/>
</svg>
