<svg width="315" height="286" viewBox="0 0 315 286" fill="none" xmlns="http://www.w3.org/2000/svg">
<circle cx="158" cy="143" r="141.5" stroke="#00AE99" stroke-width="3"/>
<path d="M111.217 138.149C111.217 129.704 105.393 125.045 97.531 124.026L95.347 123.734V107.136C97.9678 107.5 99.9334 108.592 101.462 110.194C103.064 111.868 103.937 114.125 104.083 116.746H110.562C110.417 112.523 108.742 109.102 105.757 106.19C102.991 103.496 99.351 101.967 95.347 101.53V94.76H91.1246V101.458C86.9022 101.822 83.1894 103.278 79.9862 106.335C77.3654 108.81 75.691 112.378 75.691 116.09C75.691 123.662 81.2966 128.321 88.431 129.194C89.3046 129.267 90.251 129.413 91.1246 129.558V147.249C88.431 146.885 86.1014 145.938 84.2086 144.191C82.0974 142.298 80.787 139.386 80.787 136.402H74.3806C74.3806 141.134 76.3462 145.283 79.5494 148.195C82.607 150.962 86.5382 152.563 91.1246 152.927V159.552H95.347V152.927C99.8606 152.49 104.01 150.889 106.995 147.977C109.397 145.574 111.217 142.298 111.217 138.149ZM91.1246 123.298L89.0134 123.006C85.0822 122.497 82.0974 120.313 82.0974 115.945C82.0974 113.688 82.8254 111.722 84.1358 110.266C86.0286 108.228 88.431 107.354 91.1246 107.063V123.298ZM104.811 138.294C104.811 140.988 103.719 142.881 102.19 144.337C100.37 146.084 98.1134 146.958 95.347 147.249V130.068L96.5118 130.214C101.389 130.796 104.811 133.562 104.811 138.294ZM139.31 153V102.404H133.341L120.965 111.358V118.274L132.977 109.466V153H139.31ZM190.117 127.666C190.117 117.91 189.243 110.776 184.147 105.607C181.672 103.132 178.251 101.385 173.227 101.385C168.204 101.385 164.783 103.132 162.307 105.607C157.211 110.776 156.338 117.91 156.338 127.666C156.338 137.421 157.211 144.482 162.307 149.651C164.783 152.126 168.204 153.946 173.227 153.946C178.251 153.946 181.672 152.126 184.147 149.651C189.243 144.482 190.117 137.421 190.117 127.666ZM183.638 127.666C183.638 134.509 183.783 141.862 179.488 145.938C178.032 147.322 175.921 148.268 173.227 148.268C170.534 148.268 168.423 147.322 166.967 145.938C162.671 141.862 162.817 134.509 162.817 127.666C162.817 120.822 162.671 113.47 166.967 109.393C168.423 108.01 170.534 107.063 173.227 107.063C175.921 107.063 178.032 108.01 179.488 109.393C183.783 113.47 183.638 120.822 183.638 127.666ZM242.262 153L223.698 121.041L240.515 101.385H232.434L208.774 128.903V101.385H202.295V153H208.774V138.44L219.258 126.21L234.691 153H242.262ZM101.969 200V177.204H99.2795L93.7035 181.238V184.354L99.1155 180.386V200H101.969ZM123.19 195.178C123.19 192.686 121.32 190.98 118.958 190.586C117.187 190.291 115.875 190.16 114.957 190.029C113.579 189.832 112.726 189.242 112.726 187.864C112.726 186.946 113.35 186.06 114.399 185.634C115.186 185.306 115.678 185.306 116.334 185.306C117.45 185.306 118.368 185.568 119.057 186.191C119.549 186.618 119.975 187.405 120.008 188.258H122.796C122.796 186.913 122.337 185.962 121.615 185.076C120.5 183.666 118.532 182.977 116.334 182.977C114.268 182.977 112.53 183.698 111.447 184.814C110.693 185.568 110.07 186.782 110.07 188.061C110.07 190.586 111.644 192.128 114.137 192.522C115.285 192.686 117.154 192.915 117.876 193.014C119.582 193.243 120.467 194.129 120.467 195.375C120.467 196.13 120.106 196.818 119.647 197.179C118.794 197.901 117.745 198.098 116.597 198.098C115.547 198.098 114.366 197.901 113.612 197.343C112.825 196.753 112.3 195.9 112.267 194.752H109.479C109.479 196.162 110.07 197.573 111.086 198.557C112.497 199.934 114.399 200.426 116.466 200.426C118.63 200.426 120.598 199.869 121.878 198.557C122.665 197.737 123.19 196.622 123.19 195.178ZM136.014 199.77V197.376C136.014 197.376 134.342 197.671 133.161 197.671C131.619 197.671 130.93 197.015 130.93 195.408V185.798H135.85V183.403H130.93V178.516L128.142 179.172V183.403H124.928V185.798H128.142V195.736C128.142 197.966 129.126 200.23 132.702 200.23C134.243 200.23 135.26 199.967 136.014 199.77ZM170.451 183.764C170.451 181.73 169.795 180.058 168.68 178.844C167.434 177.499 165.498 176.745 162.776 176.745H154.15V200H157.069V190.98H162.809C165.367 190.98 167.27 190.291 168.516 189.045C169.762 187.798 170.451 186.027 170.451 183.764ZM167.434 183.764C167.434 186.88 165.859 188.323 162.743 188.323H157.069V179.402H162.71C165.597 179.402 167.434 180.812 167.434 183.764ZM183.025 186.126V183.403C182.599 183.338 182.139 183.305 181.713 183.305C179.614 183.305 177.613 184.289 176.76 186.322L176.531 183.403H174.071V200H176.826V192.62C176.826 190.882 176.99 188.586 178.335 187.306C179.089 186.585 180.171 185.994 181.483 185.994C181.975 185.994 182.533 186.027 183.025 186.126ZM189.296 179.598V176.318H186.049V179.598H189.296ZM189.099 200V183.403H186.246V200H189.099ZM206.609 200V197.573H196.9L206.511 185.863V183.403H193.489V185.83H203.132L193.489 197.54V200H206.609ZM223.882 190.947C223.915 188.717 223.127 186.585 221.783 185.109C220.569 183.797 218.863 182.977 216.731 182.977C213.845 182.977 211.647 184.453 210.467 186.454C209.548 187.995 209.187 189.766 209.187 191.767C209.187 194.129 209.876 196.326 211.254 197.934C212.533 199.442 214.435 200.426 216.764 200.426C218.339 200.426 219.815 199.967 220.995 199.18C222.34 198.262 223.324 196.72 223.554 195.08H220.831C220.602 195.966 220.307 196.425 219.847 196.884C219.159 197.606 218.076 197.966 216.764 197.966C215.485 197.966 214.468 197.54 213.714 196.786C212.697 195.769 212.107 194.129 212.107 192.62H223.849L223.882 190.947ZM221.028 190.226H212.172C212.238 187.798 213.714 185.338 216.731 185.338C218.207 185.338 219.323 185.929 220.011 186.847C220.667 187.733 221.028 188.979 221.028 190.226Z" fill="#00AE99"/>
</svg>
