<svg width="315" height="286" viewBox="0 0 315 286" fill="none" xmlns="http://www.w3.org/2000/svg">
<circle cx="157" cy="143" r="141.5" stroke="#00AE99" stroke-width="3"/>
<path d="M131.024 138.149C131.024 129.704 125.2 125.045 117.337 124.026L115.153 123.734V107.136C117.774 107.5 119.74 108.592 121.268 110.194C122.87 111.868 123.744 114.125 123.889 116.746H130.368C130.223 112.523 128.548 109.102 125.564 106.19C122.797 103.496 119.157 101.967 115.153 101.53V94.76H110.931V101.458C106.708 101.822 102.996 103.278 99.7924 106.335C97.1716 108.81 95.4972 112.378 95.4972 116.09C95.4972 123.662 101.103 128.321 108.237 129.194C109.111 129.267 110.057 129.413 110.931 129.558V147.249C108.237 146.885 105.908 145.938 104.015 144.191C101.904 142.298 100.593 139.386 100.593 136.402H94.1868C94.1868 141.134 96.1524 145.283 99.3556 148.195C102.413 150.962 106.344 152.563 110.931 152.927V159.552H115.153V152.927C119.667 152.49 123.816 150.889 126.801 147.977C129.204 145.574 131.024 142.298 131.024 138.149ZM110.931 123.298L108.82 123.006C104.888 122.497 101.904 120.313 101.904 115.945C101.904 113.688 102.632 111.722 103.942 110.266C105.835 108.228 108.237 107.354 110.931 107.063V123.298ZM124.617 138.294C124.617 140.988 123.525 142.881 121.996 144.337C120.176 146.084 117.92 146.958 115.153 147.249V130.068L116.318 130.214C121.196 130.796 124.617 133.562 124.617 138.294ZM172.014 136.329C172.014 131.306 170.485 126.792 167.5 123.734C165.025 121.186 161.603 119.585 157.162 119.585C152.867 119.585 148.79 120.895 146.534 124.171L147.334 108.01H169.975V102.404H142.02L140.637 129.558H147.553C149.3 126.646 152.503 125.118 155.925 125.118C159.128 125.118 161.312 126.21 162.914 127.957C164.806 130.068 165.753 133.126 165.753 136.62C165.753 140.042 164.952 142.954 163.278 145.065C161.749 147.03 159.419 148.341 155.925 148.341C152.722 148.341 150.319 147.322 148.645 145.647C146.97 143.973 145.951 141.643 145.806 138.44H139.618C139.836 143.099 141.438 146.885 144.277 149.651C147.043 152.345 151.047 154.019 155.998 154.019C161.312 154.019 165.17 152.126 167.791 149.214C170.63 146.084 172.014 141.643 172.014 136.329ZM222.456 153L203.892 121.041L220.709 101.385H212.628L188.968 128.903V101.385H182.489V153H188.968V138.44L199.451 126.21L214.885 153H222.456ZM101.373 200V197.376H91.3366L99.0774 187.766C100.324 186.224 101.013 184.715 101.013 182.911C101.013 181.468 100.652 180.353 99.963 179.369C98.815 177.762 96.8798 176.745 94.387 176.745C90.3526 176.745 87.663 179.434 87.663 183.403H90.5494C90.5494 180.386 92.3862 179.27 94.4198 179.27C96.8142 179.27 98.159 180.615 98.159 182.944C98.159 184.125 97.7654 185.142 96.9126 186.224L87.6958 197.606V200H101.373ZM119.74 200V189.078C119.74 185.24 117.772 182.977 114 182.977C112.131 182.977 109.835 183.994 108.982 185.896L108.752 183.403H106.325V200H109.113V192.292C109.113 191.013 109.146 189.274 109.704 188.061C110.425 186.552 111.704 185.502 113.312 185.502C115.936 185.502 116.952 186.978 116.952 189.471V200H119.74ZM138.514 200V176.318H135.726V185.338C134.84 183.83 132.708 182.977 130.904 182.977C128.969 182.977 127.427 183.633 126.345 184.65C124.672 186.257 123.819 188.881 123.819 191.734C123.819 194.49 124.639 197.015 126.214 198.622C127.296 199.738 128.871 200.426 130.904 200.426C132.774 200.426 134.906 199.508 135.857 197.835L136.054 200H138.514ZM135.89 191.702C135.89 193.768 135.431 195.769 134.053 196.982C133.397 197.573 132.577 198.065 131.363 198.065C127.657 198.065 126.673 194.752 126.673 191.702C126.673 188.651 127.657 185.338 131.363 185.338C132.577 185.338 133.397 185.83 134.053 186.421C135.431 187.634 135.89 189.635 135.89 191.702ZM175.016 183.764C175.016 181.73 174.36 180.058 173.244 178.844C171.998 177.499 170.063 176.745 167.34 176.745H158.714V200H161.633V190.98H167.373C169.932 190.98 171.834 190.291 173.08 189.045C174.327 187.798 175.016 186.027 175.016 183.764ZM171.998 183.764C171.998 186.88 170.424 188.323 167.308 188.323H161.633V179.402H167.275C170.161 179.402 171.998 180.812 171.998 183.764ZM187.59 186.126V183.403C187.163 183.338 186.704 183.305 186.278 183.305C184.178 183.305 182.178 184.289 181.325 186.322L181.095 183.403H178.635V200H181.39V192.62C181.39 190.882 181.554 188.586 182.899 187.306C183.654 186.585 184.736 185.994 186.048 185.994C186.54 185.994 187.098 186.027 187.59 186.126ZM193.86 179.598V176.318H190.613V179.598H193.86ZM193.664 200V183.403H190.81V200H193.664ZM211.173 200V197.573H201.465L211.075 185.863V183.403H198.053V185.83H207.697L198.053 197.54V200H211.173ZM228.446 190.947C228.479 188.717 227.692 186.585 226.347 185.109C225.133 183.797 223.428 182.977 221.296 182.977C218.409 182.977 216.212 184.453 215.031 186.454C214.113 187.995 213.752 189.766 213.752 191.767C213.752 194.129 214.441 196.326 215.818 197.934C217.097 199.442 219 200.426 221.329 200.426C222.903 200.426 224.379 199.967 225.56 199.18C226.905 198.262 227.889 196.72 228.118 195.08H225.396C225.166 195.966 224.871 196.425 224.412 196.884C223.723 197.606 222.641 197.966 221.329 197.966C220.049 197.966 219.033 197.54 218.278 196.786C217.261 195.769 216.671 194.129 216.671 192.62H228.413L228.446 190.947ZM225.593 190.226H216.737C216.802 187.798 218.278 185.338 221.296 185.338C222.772 185.338 223.887 185.929 224.576 186.847C225.232 187.733 225.593 188.979 225.593 190.226Z" fill="#00AE99"/>
</svg>
