<svg width="315" height="286" viewBox="0 0 315 286" fill="none" xmlns="http://www.w3.org/2000/svg">
<circle cx="157" cy="143" r="141.5" stroke="#00AE99" stroke-width="3"/>
<path d="M100.724 138.149C100.724 129.704 94.9005 125.045 87.0381 124.026L84.8541 123.734V107.136C87.4748 107.5 89.4405 108.592 90.9693 110.194C92.5709 111.868 93.4445 114.125 93.5901 116.746H100.069C99.9237 112.523 98.2493 109.102 95.2645 106.19C92.4981 103.496 88.8581 101.967 84.8541 101.53V94.76H80.6317V101.458C76.4093 101.822 72.6965 103.278 69.4933 106.335C66.8725 108.81 65.1981 112.378 65.1981 116.09C65.1981 123.662 70.8037 128.321 77.9381 129.194C78.8117 129.267 79.7581 129.413 80.6317 129.558V147.249C77.9381 146.885 75.6085 145.938 73.7157 144.191C71.6045 142.298 70.2941 139.386 70.2941 136.402H63.8877C63.8877 141.134 65.8533 145.283 69.0565 148.195C72.1141 150.962 76.0453 152.563 80.6317 152.927V159.552H84.8541V152.927C89.3677 152.49 93.5172 150.889 96.5021 147.977C98.9045 145.574 100.724 142.298 100.724 138.149ZM80.6317 123.298L78.5205 123.006C74.5893 122.497 71.6045 120.313 71.6045 115.945C71.6045 113.688 72.3325 111.722 73.6429 110.266C75.5357 108.228 77.9381 107.354 80.6317 107.063V123.298ZM94.3181 138.294C94.3181 140.988 93.2261 142.881 91.6973 144.337C89.8773 146.084 87.6205 146.958 84.8541 147.249V130.068L86.0189 130.214C90.8965 130.796 94.3181 133.562 94.3181 138.294ZM139.475 153V147.176H117.198L134.379 125.846C137.145 122.424 138.674 119.075 138.674 115.071C138.674 111.868 137.873 109.393 136.344 107.209C133.796 103.642 129.501 101.385 123.968 101.385C115.014 101.385 109.044 107.354 109.044 116.163H115.451C115.451 109.466 119.527 106.99 124.041 106.99C129.355 106.99 132.34 109.975 132.34 115.144C132.34 117.765 131.467 120.022 129.574 122.424L109.117 147.686V153H139.475ZM159.196 153V144.337H150.605V153H159.196ZM202.313 136.329C202.313 131.306 200.784 126.792 197.799 123.734C195.324 121.186 191.902 119.585 187.462 119.585C183.166 119.585 179.09 120.895 176.833 124.171L177.634 108.01H200.274V102.404H172.319L170.936 129.558H177.852C179.599 126.646 182.802 125.118 186.224 125.118C189.427 125.118 191.611 126.21 193.213 127.957C195.106 130.068 196.052 133.126 196.052 136.62C196.052 140.042 195.251 142.954 193.577 145.065C192.048 147.03 189.718 148.341 186.224 148.341C183.021 148.341 180.618 147.322 178.944 145.647C177.27 143.973 176.25 141.643 176.105 138.44H169.917C170.135 143.099 171.737 146.885 174.576 149.651C177.342 152.345 181.346 154.019 186.297 154.019C191.611 154.019 195.47 152.126 198.09 149.214C200.93 146.084 202.313 141.643 202.313 136.329ZM252.755 153L234.191 121.041L251.008 101.385H242.927L219.267 128.903V101.385H212.788V153H219.267V138.44L229.751 126.21L245.184 153H252.755Z" fill="#00AE99"/>
<path d="M97.564 197.768C97.564 195.406 96.1864 193.012 93.7592 192.192C95.6288 191.405 97.1048 189.174 97.1048 187.042C97.1048 185.074 96.416 183.631 95.268 182.582C94.0544 181.434 92.316 180.745 90.4136 180.745C88.4456 180.745 86.8056 181.335 85.5264 182.385C84.1816 183.5 83.3616 185.14 83.3288 187.403H86.1824C86.2152 186.026 86.6744 184.91 87.56 184.189C88.2488 183.631 89.1016 183.27 90.348 183.27C91.5944 183.27 92.5128 183.762 93.136 184.386C93.8576 185.074 94.2184 185.993 94.2184 187.042C94.2184 189.437 92.644 190.88 90.02 190.88H88.6424V193.471H90.02C92.808 193.471 94.7104 194.914 94.7104 197.702C94.7104 198.949 94.2512 199.9 93.628 200.589C92.8408 201.474 91.6928 201.901 90.3152 201.901C88.872 201.901 87.888 201.376 87.1992 200.622C86.4448 199.834 86.084 198.752 86.0184 197.473H83.1648C83.1976 199.572 83.9192 201.179 85.1 202.36C86.3792 203.639 88.1176 204.426 90.3152 204.426C92.8736 204.426 94.612 203.639 95.8256 202.36C96.9408 201.179 97.564 199.539 97.564 197.768ZM124.783 183.434V180.745H109.727V204H112.647V193.766H123.471V191.011H112.647V183.434H124.783ZM131.386 183.598V180.318H128.138V183.598H131.386ZM131.189 204V187.403H128.335V204H131.189ZM150.306 204V193.078C150.306 189.24 148.338 186.977 144.566 186.977C142.696 186.977 140.4 187.994 139.548 189.896L139.318 187.403H136.891V204H139.679V196.292C139.679 195.013 139.712 193.274 140.269 192.061C140.991 190.552 142.27 189.502 143.877 189.502C146.501 189.502 147.518 190.978 147.518 193.471V204H150.306ZM169.571 203.836V201.77C169.571 201.77 169.145 201.868 168.85 201.868C168.292 201.868 167.931 201.638 167.931 200.753V192.717C167.931 191.766 167.767 190.913 167.439 190.158C166.652 188.354 164.815 186.977 161.601 186.977C159.567 186.977 157.599 187.567 156.484 188.748C155.631 189.634 155.074 190.716 155.041 192.225H157.763C157.763 191.405 158.059 190.749 158.583 190.224C159.141 189.666 160.092 189.24 161.601 189.24C162.946 189.24 163.766 189.568 164.323 190.093C165.078 190.782 165.176 191.798 165.176 192.618V193.832L160.125 194.127C155.599 194.39 154.221 197.178 154.221 199.31C154.221 201.868 156.123 204.426 159.928 204.426C162.257 204.426 164.323 203.377 165.275 201.704H165.34C165.34 203.114 166.259 204.23 167.735 204.23C168.423 204.23 168.981 204.131 169.571 203.836ZM165.176 196.981C165.176 198.358 164.75 199.736 163.766 200.753C162.88 201.671 161.634 202.098 160.355 202.098C157.993 202.098 157.075 200.72 157.075 199.244C157.075 197.145 159.043 196.358 160.715 196.259L165.176 195.997V196.981ZM178.919 204V201.638C178.919 201.638 178.689 201.671 177.771 201.671C176.623 201.671 176.262 201.081 176.262 199.966V180.318H173.474V200.13C173.474 202.754 174.524 204.197 176.951 204.197C178.296 204.197 178.919 204 178.919 204ZM185.755 183.598V180.318H182.508V183.598H185.755ZM185.558 204V187.403H182.705V204H185.558ZM203.56 199.178C203.56 196.686 201.69 194.98 199.329 194.586C197.558 194.291 196.246 194.16 195.327 194.029C193.95 193.832 193.097 193.242 193.097 191.864C193.097 190.946 193.72 190.06 194.77 189.634C195.557 189.306 196.049 189.306 196.705 189.306C197.82 189.306 198.738 189.568 199.427 190.191C199.919 190.618 200.346 191.405 200.378 192.258H203.166C203.166 190.913 202.707 189.962 201.986 189.076C200.87 187.666 198.902 186.977 196.705 186.977C194.638 186.977 192.9 187.698 191.818 188.814C191.063 189.568 190.44 190.782 190.44 192.061C190.44 194.586 192.014 196.128 194.507 196.522C195.655 196.686 197.525 196.915 198.246 197.014C199.952 197.243 200.838 198.129 200.838 199.375C200.838 200.13 200.477 200.818 200.018 201.179C199.165 201.901 198.115 202.098 196.967 202.098C195.918 202.098 194.737 201.901 193.982 201.343C193.195 200.753 192.67 199.9 192.638 198.752H189.85C189.85 200.162 190.44 201.573 191.457 202.557C192.867 203.934 194.77 204.426 196.836 204.426C199.001 204.426 200.969 203.869 202.248 202.557C203.035 201.737 203.56 200.622 203.56 199.178ZM216.385 203.77V201.376C216.385 201.376 214.712 201.671 213.531 201.671C211.99 201.671 211.301 201.015 211.301 199.408V189.798H216.221V187.403H211.301V182.516L208.513 183.172V187.403H205.298V189.798H208.513V199.736C208.513 201.966 209.497 204.23 213.072 204.23C214.614 204.23 215.63 203.967 216.385 203.77ZM232.298 199.178C232.298 196.686 230.429 194.98 228.067 194.586C226.296 194.291 224.984 194.16 224.065 194.029C222.688 193.832 221.835 193.242 221.835 191.864C221.835 190.946 222.458 190.06 223.508 189.634C224.295 189.306 224.787 189.306 225.443 189.306C226.558 189.306 227.477 189.568 228.165 190.191C228.657 190.618 229.084 191.405 229.117 192.258H231.905C231.905 190.913 231.445 189.962 230.724 189.076C229.609 187.666 227.641 186.977 225.443 186.977C223.377 186.977 221.638 187.698 220.556 188.814C219.801 189.568 219.178 190.782 219.178 192.061C219.178 194.586 220.753 196.128 223.245 196.522C224.393 196.686 226.263 196.915 226.985 197.014C228.69 197.243 229.576 198.129 229.576 199.375C229.576 200.13 229.215 200.818 228.756 201.179C227.903 201.901 226.853 202.098 225.705 202.098C224.656 202.098 223.475 201.901 222.721 201.343C221.933 200.753 221.409 199.9 221.376 198.752H218.588C218.588 200.162 219.178 201.573 220.195 202.557C221.605 203.934 223.508 204.426 225.574 204.426C227.739 204.426 229.707 203.869 230.986 202.557C231.773 201.737 232.298 200.622 232.298 199.178Z" fill="#00AE99"/>
</svg>
