<?xml version="1.0" encoding="UTF-8"?>
<svg width="286px" height="286px" viewBox="0 0 286 286" version="1.1" xmlns="http://www.w3.org/2000/svg" xmlns:xlink="http://www.w3.org/1999/xlink">
    <!-- Generator: Sketch 52.5 (67469) - http://www.bohemiancoding.com/sketch -->
    <title>Prizes_Community_Choice</title>
    <desc>Created with Sketch.</desc>
    <g id="Page-1" stroke="none" stroke-width="1" fill="none" fill-rule="evenodd">
        <g id="Prizes_Community_Choice" transform="translate(1.000000, 1.000000)">
            <circle id="Oval" stroke="#00AE99" stroke-width="3" cx="142" cy="142" r="141.5"></circle>
            <path d="M88.938,127.508 C88.938,131.669 87.113,134.954 84.704,137.363 C81.711,140.283 77.55,141.889 73.024,142.327 L73.024,148.97 L68.79,148.97 L68.79,142.327 C64.191,141.962 60.249,140.356 57.183,137.582 C53.971,134.662 52,130.501 52,125.756 L58.424,125.756 C58.424,128.749 59.738,131.669 61.855,133.567 C63.753,135.319 66.089,136.268 68.79,136.633 L68.79,118.894 C67.914,118.748 66.965,118.602 66.089,118.529 C58.935,117.653 53.314,112.981 53.314,105.389 C53.314,101.666 54.993,98.089 57.621,95.607 C60.833,92.541 64.556,91.081 68.79,90.716 L68.79,84 L73.024,84 L73.024,90.789 C77.039,91.227 80.689,92.76 83.463,95.461 C86.456,98.381 88.135,101.812 88.281,106.046 L81.784,106.046 C81.638,103.418 80.762,101.155 79.156,99.476 C77.623,97.87 75.652,96.775 73.024,96.41 L73.024,113.054 L75.214,113.346 C83.098,114.368 88.938,119.04 88.938,127.508 Z M68.052,112.279 L68.052,96 C65.351,96.292 62.942,97.168 61.044,99.212 C59.73,100.672 59,102.643 59,104.906 C59,109.286 61.993,111.476 65.935,111.987 L68.052,112.279 Z M82.49,127.249 C82.49,122.504 79.059,119.73 74.168,119.146 L73,119 L73,136.228 C75.774,135.936 78.037,135.06 79.862,133.308 C81.395,131.848 82.49,129.95 82.49,127.249 Z M126.558,97.621 L105.607,142.735 L98.891,142.735 L119.988,97.621 L94,97.621 L94,92 L126.558,92 L126.558,97.621 Z M138.12,142.4 L129.506,142.4 L129.506,133.713 L138.12,133.713 L138.12,142.4 Z M181.774,125.683 C181.774,131.012 180.387,135.465 177.54,138.604 C174.912,141.524 171.043,143.422 165.714,143.422 C160.75,143.422 156.735,141.743 153.961,139.042 C151.114,136.268 149.508,132.472 149.289,127.8 L155.494,127.8 C155.64,131.012 156.662,133.348 158.341,135.027 C160.02,136.706 162.429,137.728 165.641,137.728 C169.145,137.728 171.481,136.414 173.014,134.443 C174.693,132.326 175.496,129.406 175.496,125.975 C175.496,122.471 174.547,119.405 172.649,117.288 C171.043,115.536 168.853,114.441 165.641,114.441 C162.21,114.441 158.998,115.974 157.246,118.894 L150.311,118.894 L151.698,91.665 L179.73,91.665 L179.73,97.286 L157.027,97.286 L156.224,113.492 C158.487,110.207 162.575,108.893 166.882,108.893 C171.335,108.893 174.766,110.499 177.248,113.054 C180.241,116.12 181.774,120.646 181.774,125.683 Z M232.801,142.4 L225.209,142.4 L209.733,115.536 L199.221,127.8 L199.221,142.4 L192.724,142.4 L192.724,90.643 L199.221,90.643 L199.221,118.237 L222.946,90.643 L231.049,90.643 L214.186,110.353 L232.801,142.4 Z" id="$7.5K" fill="#00AE99"></path>
            <path d="M75.7448,189.269 L72.7272,189.269 C72.6944,190.548 72.2024,191.762 71.448,192.615 C70.5296,193.632 68.988,194.386 67.2168,194.386 C65.6424,194.386 64.1008,193.763 62.9856,192.615 C61.0832,190.647 61.0176,187.498 61.0176,185.071 C61.0176,182.644 61.0832,179.495 62.9856,177.527 C64.1008,176.379 65.6424,175.756 67.2168,175.756 C68.988,175.756 70.4968,176.444 71.4152,177.461 C72.1696,178.314 72.6616,179.429 72.6944,180.708 L75.712,180.708 C75.6136,178.544 74.7608,176.772 73.416,175.395 C72.0056,173.984 69.7424,173 67.2168,173 C64.888,173 62.592,173.853 60.9192,175.493 C58.3936,177.953 58,181.364 58,185.071 C58,188.777 58.3936,192.188 60.9192,194.648 C62.592,196.288 64.888,197.141 67.2168,197.141 C69.7424,197.141 72.0384,196.059 73.4488,194.648 C74.7936,193.271 75.6464,191.434 75.7448,189.269 Z M93.1679,188.384 C93.1679,185.76 92.6099,183.365 90.8059,181.594 C89.5929,180.413 87.8869,179.659 85.7877,179.659 C83.6885,179.659 81.9829,180.413 80.7693,181.594 C78.9653,183.365 78.4077,185.76 78.4077,188.384 C78.4077,191.008 78.9653,193.402 80.7693,195.173 C81.9829,196.354 83.6885,197.108 85.7877,197.108 C87.8869,197.108 89.5929,196.354 90.8059,195.173 C92.6099,193.402 93.1679,191.008 93.1679,188.384 Z M90.3139,188.384 C90.3139,190.319 89.9529,192.32 88.7729,193.533 C88.0839,194.222 87.0999,194.714 85.7877,194.714 C84.4757,194.714 83.4917,194.222 82.8029,193.533 C81.6221,192.32 81.2613,190.319 81.2613,188.384 C81.2613,186.448 81.6221,184.448 82.8029,183.234 C83.4917,182.545 84.4757,182.053 85.7877,182.053 C87.0999,182.053 88.0839,182.545 88.7729,183.234 C89.9529,184.448 90.3139,186.448 90.3139,188.384 Z M120.5239,196.682 L120.5239,185.76 C120.5239,182.086 118.7519,179.659 114.9799,179.659 C112.8809,179.659 110.7489,180.741 109.8639,182.808 C109.1419,180.774 107.3709,179.659 104.9109,179.659 C103.0409,179.659 101.1389,180.577 100.2529,182.447 L99.9909,180.085 L97.5639,180.085 L97.5639,196.682 L100.3519,196.682 L100.3519,187.859 C100.3519,186.481 100.6469,184.71 101.4669,183.66 C102.1559,182.775 103.1069,182.184 104.2879,182.184 C106.9439,182.184 107.6329,183.792 107.6329,186.12 L107.6329,196.682 L110.4209,196.682 L110.4209,187.859 C110.4209,186.12 110.7159,184.448 111.8319,183.3 C112.4879,182.611 113.3079,182.184 114.3569,182.184 C116.9809,182.184 117.7359,183.792 117.7359,186.12 L117.7359,196.682 L120.5239,196.682 Z M148.9059,196.682 L148.9059,185.76 C148.9059,182.086 147.1349,179.659 143.3629,179.659 C141.2639,179.659 139.1319,180.741 138.2459,182.808 C137.5249,180.774 135.7529,179.659 133.2929,179.659 C131.4239,179.659 129.5209,180.577 128.6359,182.447 L128.3729,180.085 L125.9459,180.085 L125.9459,196.682 L128.7339,196.682 L128.7339,187.859 C128.7339,186.481 129.0289,184.71 129.8489,183.66 C130.5379,182.775 131.4889,182.184 132.6699,182.184 C135.3269,182.184 136.0159,183.792 136.0159,186.12 L136.0159,196.682 L138.8039,196.682 L138.8039,187.859 C138.8039,186.12 139.0989,184.448 140.2139,183.3 C140.8699,182.611 141.6899,182.184 142.7399,182.184 C145.3639,182.184 146.1179,183.792 146.1179,186.12 L146.1179,196.682 L148.9059,196.682 Z M167.3179,196.682 L167.3179,180.085 L164.5299,180.085 L164.5299,188.712 C164.5299,190.417 164.2019,192.221 163.1519,193.304 C162.4309,194.058 161.5119,194.55 160.3969,194.55 C157.7729,194.55 156.8549,193.074 156.8549,190.581 L156.8549,180.085 L154.0669,180.085 L154.0669,190.975 C154.0669,194.812 155.9689,197.076 159.7409,197.076 C161.6759,197.076 163.8079,196.059 164.6609,194.156 L164.8909,196.682 L167.3179,196.682 Z M186.4219,196.682 L186.4219,185.76 C186.4219,181.922 184.4539,179.659 180.6819,179.659 C178.8119,179.659 176.5159,180.676 175.6629,182.578 L175.4339,180.085 L173.0059,180.085 L173.0059,196.682 L175.7939,196.682 L175.7939,188.974 C175.7939,187.695 175.8269,185.956 176.3849,184.743 C177.1059,183.234 178.3859,182.184 179.9929,182.184 C182.6169,182.184 183.6339,183.66 183.6339,186.153 L183.6339,196.682 L186.4219,196.682 Z M194.8299,176.28 L194.8299,173 L191.5829,173 L191.5829,176.28 L194.8299,176.28 Z M194.6329,196.682 L194.6329,180.085 L191.7799,180.085 L191.7799,196.682 L194.6329,196.682 Z M208.9289,196.452 L208.9289,194.058 C208.9289,194.058 207.2559,194.353 206.0749,194.353 C204.5339,194.353 203.8449,193.697 203.8449,192.09 L203.8449,182.48 L208.7649,182.48 L208.7649,180.085 L203.8449,180.085 L203.8449,175.198 L201.0569,175.854 L201.0569,180.085 L197.8419,180.085 L197.8419,182.48 L201.0569,182.48 L201.0569,192.418 C201.0569,194.648 202.0409,196.912 205.6159,196.912 C207.1579,196.912 208.1739,196.649 208.9289,196.452 Z M225.4979,180.085 L222.5789,180.085 L217.9209,193.172 L213.0339,180.085 L209.8849,180.085 L216.5109,196.682 L215.4609,199.47 C215.0019,200.716 214.1489,201.143 212.9679,201.143 C211.8859,201.143 210.9999,200.88 210.9999,200.88 L210.9999,203.308 C211.2299,203.373 212.1479,203.636 213.5259,203.636 C216.0189,203.636 217.2319,202.225 218.0199,200.093 L225.4979,180.085 Z M113.7239,222.269 L110.7059,222.269 C110.6739,223.548 110.1819,224.762 109.4269,225.615 C108.5089,226.632 106.9669,227.386 105.1959,227.386 C103.6219,227.386 102.0799,226.763 100.9649,225.615 C99.0619,223.647 98.9969,220.498 98.9969,218.071 C98.9969,215.644 99.0619,212.495 100.9649,210.527 C102.0799,209.379 103.6219,208.756 105.1959,208.756 C106.9669,208.756 108.4759,209.444 109.3939,210.461 C110.1489,211.314 110.6409,212.429 110.6739,213.708 L113.6909,213.708 C113.5929,211.544 112.7399,209.772 111.3949,208.395 C109.9849,206.984 107.7219,206 105.1959,206 C102.8669,206 100.5709,206.853 98.8979,208.493 C96.3729,210.953 95.9789,214.364 95.9789,218.071 C95.9789,221.777 96.3729,225.188 98.8979,227.648 C100.5709,229.288 102.8669,230.141 105.1959,230.141 C107.7219,230.141 110.0179,229.059 111.4279,227.648 C112.7729,226.271 113.6259,224.434 113.7239,222.269 Z M131.0809,229.682 L131.0809,218.76 C131.0809,214.922 129.0809,212.659 125.3089,212.659 C123.4389,212.659 121.4379,213.577 120.4539,215.283 L120.4539,206 L117.6659,206 L117.6659,229.682 L120.4539,229.682 L120.4539,221.974 C120.4539,220.695 120.4869,218.956 121.0449,217.743 C121.7659,216.234 123.0449,215.184 124.6529,215.184 C127.2769,215.184 128.2929,216.66 128.2929,219.153 L128.2929,229.682 L131.0809,229.682 Z M149.9839,221.384 C149.9839,218.76 149.4269,216.365 147.6229,214.594 C146.4089,213.413 144.7039,212.659 142.6039,212.659 C140.5049,212.659 138.7999,213.413 137.5859,214.594 C135.7819,216.365 135.2239,218.76 135.2239,221.384 C135.2239,224.008 135.7819,226.402 137.5859,228.173 C138.7999,229.354 140.5049,230.108 142.6039,230.108 C144.7039,230.108 146.4089,229.354 147.6229,228.173 C149.4269,226.402 149.9839,224.008 149.9839,221.384 Z M147.1309,221.384 C147.1309,223.319 146.7699,225.32 145.5889,226.533 C144.8999,227.222 143.9159,227.714 142.6039,227.714 C141.2919,227.714 140.3079,227.222 139.6199,226.533 C138.4389,225.32 138.0779,223.319 138.0779,221.384 C138.0779,219.448 138.4389,217.448 139.6199,216.234 C140.3079,215.545 141.2919,215.053 142.6039,215.053 C143.9159,215.053 144.8999,215.545 145.5889,216.234 C146.7699,217.448 147.1309,219.448 147.1309,221.384 Z M157.4309,209.28 L157.4309,206 L154.1829,206 L154.1829,209.28 L157.4309,209.28 Z M157.2339,229.682 L157.2339,213.085 L154.3799,213.085 L154.3799,229.682 L157.2339,229.682 Z M175.8259,224.106 L173.0049,224.106 C172.8739,225.188 172.4799,225.943 171.8899,226.566 C171.2339,227.255 170.2169,227.681 169.0689,227.681 C167.7899,227.681 166.9039,227.222 166.1829,226.599 C164.8709,225.484 164.5099,223.417 164.5099,221.384 C164.5099,219.35 164.8709,217.284 166.1829,216.168 C166.9039,215.545 167.7899,215.086 169.0689,215.086 C170.1519,215.086 171.1029,215.48 171.7589,216.103 C172.3819,216.726 172.8079,217.546 172.9399,218.694 L175.7599,218.694 C175.6289,216.89 174.9079,215.512 173.7919,214.43 C172.6439,213.315 171.0369,212.659 169.0689,212.659 C166.0839,212.659 164.2149,214.036 163.0339,215.775 C162.1479,217.087 161.6559,218.891 161.6559,221.384 C161.6559,223.876 162.1479,225.68 163.0339,226.992 C164.2149,228.731 166.1169,230.108 169.1019,230.108 C171.1359,230.108 172.7099,229.452 173.8909,228.304 C175.0059,227.222 175.6949,225.877 175.8259,224.106 Z M193.3619,220.629 C193.3939,218.399 192.6069,216.267 191.2619,214.791 C190.0489,213.479 188.3429,212.659 186.2109,212.659 C183.3249,212.659 181.1269,214.135 179.9459,216.136 C179.0279,217.677 178.6669,219.448 178.6669,221.449 C178.6669,223.811 179.3559,226.008 180.7339,227.616 C182.0129,229.124 183.9149,230.108 186.2439,230.108 C187.8179,230.108 189.2939,229.649 190.4749,228.862 C191.8199,227.944 192.8039,226.402 193.0339,224.762 L190.3109,224.762 C190.0819,225.648 189.7859,226.107 189.3269,226.566 C188.6379,227.288 187.5559,227.648 186.2439,227.648 C184.9649,227.648 183.9479,227.222 183.1939,226.468 C182.1769,225.451 181.5859,223.811 181.5859,222.302 L193.3289,222.302 L193.3619,220.629 Z M190.5079,219.908 L181.6519,219.908 C181.7179,217.48 183.1939,215.02 186.2109,215.02 C187.6869,215.02 188.8019,215.611 189.4909,216.529 C190.1469,217.415 190.5079,218.661 190.5079,219.908 Z" id="Shape" fill="#00AE99" fill-rule="nonzero"></path>
        </g>
    </g>
</svg>