<svg width="45" height="45" xmlns="http://www.w3.org/2000/svg"><path d="M22.027 0C9.884 0 0 9.882 0 22.027c0 4.856 1.584 9.349 4.256 12.993a.61.61 0 0 0 .15.209c4.024 5.353 10.425 8.824 17.62 8.824 12.146 0 22.027-9.881 22.027-22.026C44.053 9.88 34.172 0 22.026 0zm20.412 26.16a28.976 28.976 0 0 1-8.89 3.288c-.042-.105-.096-.201-.15-.3a30.506 30.506 0 0 0 8.679-12.738 20.766 20.766 0 0 1 .361 9.75zM25.793 12.535a2.894 2.894 0 0 0 2.689 1.837c.194 0 .384-.02.57-.058a25.363 25.363 0 0 1 1.8 9.347c0 1.35-.12 2.683-.331 3.996A2.889 2.889 0 0 0 28.022 30a28.895 28.895 0 0 1-16.6-5.226c.201-.394.325-.835.325-1.306 0-.818-.342-1.554-.888-2.079a25.461 25.461 0 0 1 14.935-8.854zm2.691-2.754c.935 0 1.695.762 1.695 1.694 0 .936-.762 1.695-1.695 1.695a1.694 1.694 0 1 1 0-3.389zm2.82 2.33c3.501.11 6.996.942 10.158 2.449-.029.042-.059.084-.073.133a29.309 29.309 0 0 1-8.765 13.538 2.82 2.82 0 0 0-.903-.464 26.28 26.28 0 0 0 .335-4.107c0-3.42-.677-6.74-1.905-9.822a2.917 2.917 0 0 0 1.153-1.728zM10.547 23.469c0 .935-.762 1.694-1.694 1.694a1.697 1.697 0 0 1-1.695-1.694c0-.936.762-1.695 1.695-1.695.935 0 1.694.762 1.694 1.695zM7.76 26.145c.338.138.706.218 1.095.218.687 0 1.312-.25 1.812-.654a30.077 30.077 0 0 0 17.362 5.492c.012 0 .022-.003.033-.003.021.085.05.167.078.249a29.344 29.344 0 0 1-14.794 3.972c-2.733 0-5.447-.386-8.077-1.136a25.287 25.287 0 0 1 2.492-8.138zm21.41 4.374c0-.936.763-1.695 1.695-1.695.936 0 1.695.762 1.695 1.695 0 .935-.762 1.694-1.695 1.694-.932 0-1.694-.76-1.694-1.694zm11.588-17.583a26.885 26.885 0 0 0-9.438-2.025 2.899 2.899 0 0 0-2.838-2.33c-.359 0-.696.073-1.013.192a26.61 26.61 0 0 0-7.549-7.467c.691-.07 1.395-.105 2.107-.105 8.224 0 15.35 4.795 18.731 11.735zM18.064 1.585a25.38 25.38 0 0 1 8.39 7.83 2.88 2.88 0 0 0-.855 1.939 26.662 26.662 0 0 0-15.776 9.398 2.84 2.84 0 0 0-.97-.18 2.87 2.87 0 0 0-1.695.557 28.942 28.942 0 0 1-4.643-6.38C5.023 8.047 10.892 2.973 18.063 1.586zM2.009 16.299a30.325 30.325 0 0 0 4.35 5.725 2.85 2.85 0 0 0-.4 1.442c0 .773.308 1.472.803 1.992a26.453 26.453 0 0 0-2.494 7.427A20.657 20.657 0 0 1 1.2 22.027c0-1.988.289-3.907.809-5.729zm4.441 19.53c2.26.523 4.568.792 6.89.792a30.531 30.531 0 0 0 15.409-4.139c.114.122.239.232.372.336a25.365 25.365 0 0 1-6.89 9.937l.08.091c-.097.002-.19.007-.286.007-6.19 0-11.757-2.721-15.575-7.024zm17.532 6.928a26.664 26.664 0 0 0 6.232-9.424c.21.05.429.082.654.082a2.894 2.894 0 0 0 2.885-2.793 30.035 30.035 0 0 0 8.297-2.879c-2.32 8.108-9.437 14.208-18.068 15.014z"/></svg>