<svg width="18" height="25" xmlns="http://www.w3.org/2000/svg"><path d="M14.67 11.572c1.332-.681 2.165-1.88 1.97-3.878-.262-2.73-2.611-3.646-5.577-3.907V0H8.765l-.001 3.687c-.605 0-1.22.012-1.834.025V0H4.632v3.785c-.498.01-.986.02-1.463.02v-.01L0 3.793v2.461s1.697-.032 1.67 0c.93 0 1.234.542 1.321 1.01V17.64c-.04.294-.213.764-.863.764.03.027-1.672 0-1.672 0L0 21.156h2.99c.557 0 1.105.01 1.642.013L4.634 25 6.929 25v-3.79c.63.013 1.24.019 1.836.018V25h2.297l.001-3.824c3.863-.222 6.567-1.198 6.903-4.838.271-2.93-1.103-4.238-3.296-4.766zm-7.686-5.15c1.296 0 5.372-.415 5.373 2.302 0 2.604-4.075 2.3-5.373 2.3V6.422zm0 12v-5.075c1.558 0 6.441-.45 6.442 2.537 0 2.863-4.884 2.537-6.443 2.538z" fill-rule="nonzero" fill="#FFF"/></svg>