<svg width="46" height="46" xmlns="http://www.w3.org/2000/svg"><path d="M10.613 42.696a.559.559 0 0 1-.42-.916 48.696 48.696 0 0 0 4.275-6.196.55.55 0 0 1 .755-.202.561.561 0 0 1 .2.762c-2.036 3.537-4.291 6.241-4.387 6.356a.555.555 0 0 1-.423.196zm28.367-3.824c-.01 0-.018 0-.027-.002-9.572-.463-10.106-5.099-10.99-12.777l-.019-.147c-.735-6.38-3.59-6.275-5.297-6.214-1.812.065-3.752 1.594-3.752 3.766l-.002.047-.335 3.936c-.098 1.533-.57 3.292-1.401 5.23a.55.55 0 0 1-.726.29.558.558 0 0 1-.287-.731c.783-1.825 1.225-3.462 1.314-4.868v-.011l.334-3.92c.014-2.583 2.168-4.757 4.816-4.853 2.758-.103 5.68.678 6.433 7.198l.016.148c.43 3.723.769 6.663 2.062 8.607 1.333 2.003 3.765 2.986 7.885 3.187a.554.554 0 0 1 .525.582.553.553 0 0 1-.549.532z"/><path d="M40.23 35.012c-2.3 0-4.212-.69-5.704-2.06-3.525-3.24-3.397-9.086-3.385-9.463-.004-3.682-2.326-6.95-5.781-8.128a.557.557 0 0 1-.346-.706.55.55 0 0 1 .7-.348c3.905 1.335 6.53 5.028 6.53 9.194v.02c-.002.056-.16 5.688 3.029 8.613 1.59 1.459 3.778 2.019 6.502 1.661a.556.556 0 1 1 .144 1.103c-.584.075-1.148.114-1.689.114zM6.86 39.578a.546.546 0 0 1-.414-.19.562.562 0 0 1 .05-.787c3.56-3.147 5.141-7.069 5.84-9.803.763-2.986.675-5.252.675-5.276v-.025c0-5.35 4.315-9.705 9.618-9.705.305 0 .552.25.552.557a.555.555 0 0 1-.552.556c-4.692 0-8.51 3.847-8.516 8.578.008.219.075 2.505-.697 5.551-.736 2.9-2.406 7.057-6.19 10.403a.546.546 0 0 1-.366.142v-.001z"/><path d="M41.685 29.823c-1.716 0-3.12-.462-4.193-1.38-2.15-1.846-2.11-4.83-2.107-4.956a.555.555 0 0 1 .552-.544h.012a.554.554 0 0 1 .539.57c0 .023-.028 2.59 1.725 4.088 1.233 1.054 3.073 1.359 5.465.91a.551.551 0 0 1 .643.447.555.555 0 0 1-.443.648c-.778.144-1.511.217-2.193.217zm-6.407-9.953a.555.555 0 0 1-.525-.384c-1.721-5.299-6.594-8.859-12.126-8.859a12.644 12.644 0 0 0-8.794 3.548.549.549 0 0 1-.78-.02.56.56 0 0 1 .019-.786 13.75 13.75 0 0 1 9.555-3.853c6.011 0 11.305 3.87 13.176 9.629a.558.558 0 0 1-.351.702.666.666 0 0 1-.173.023zM3.493 35.403a.559.559 0 0 1-.258-1.05C8.15 31.748 8.74 23.86 8.763 23.482c.004-2.41.623-4.784 1.794-6.87a.55.55 0 0 1 .753-.21.56.56 0 0 1 .209.759 12.973 12.973 0 0 0-1.652 6.337v.032c-.02.362-.552 8.858-6.117 11.81a.533.533 0 0 1-.257.065zm30.297 7.739c-.01 0-.017 0-.027-.002-2.483-.12-4.494-1.044-5.982-2.742-3.257-3.72-2.84-7.32-2.82-7.578a.552.552 0 1 1 1.1.084c-.006.077-.393 3.403 2.55 6.758 1.283 1.463 3.033 2.26 5.205 2.365a.554.554 0 0 1 .525.582.554.554 0 0 1-.55.533zM20.746 45.96a.556.556 0 0 1-.539-.68c.382-1.684 2.76-6.91 2.863-7.133a.55.55 0 0 1 1.05.28c-.089 1.084.723 4.59 3.17 6.42a.56.56 0 0 1 .114.778.549.549 0 0 1-.772.116c-1.868-1.396-2.914-3.59-3.36-5.331-.743 1.702-1.767 4.137-1.99 5.12a.552.552 0 0 1-.536.43zm-5.828-.98a.558.558 0 0 1-.391-.947c.021-.022 2.144-2.198 4.208-5.717 1.895-3.227 4.13-8.283 4.018-14.037a.555.555 0 0 1 .54-.568.555.555 0 0 1 .563.546c.116 6.028-2.213 11.295-4.189 14.653-2.135 3.63-4.27 5.815-4.36 5.905a.547.547 0 0 1-.389.165zM.552 24.055A.555.555 0 0 1 0 23.5c0-5.21 1.785-10.303 5.024-14.344 3.193-3.983 7.663-6.796 12.587-7.92a.558.558 0 0 1 .244 1.087C7.993 4.573 1.105 13.281 1.105 23.5a.555.555 0 0 1-.552.556zm41.666-10.273a.557.557 0 0 1-.492-.3C38.003 6.267 30.686 1.786 22.628 1.786a.555.555 0 0 1-.553-.557c0-.308.248-.558.553-.558 8.47 0 16.164 4.712 20.08 12.298a.559.559 0 0 1-.49.814z"/><path d="M1.783 30.225a.552.552 0 0 1-.497-.314.559.559 0 0 1 .257-.743c2.842-1.386 2.719-5.607 2.719-5.648v-.022c0-10.218 8.24-18.53 18.367-18.53 3.995 0 7.79 1.271 10.98 3.676a.561.561 0 0 1 .113.78.548.548 0 0 1-.773.112 17.025 17.025 0 0 0-10.322-3.454c-9.516 0-17.259 7.808-17.263 17.407.01.328.094 5.006-3.342 6.679a.53.53 0 0 1-.24.057zm42.88-4.621c-.02 0-.037 0-.057-.002a.558.558 0 0 1-.493-.611c.424-4.17-1.168-8.73-1.186-8.775a.551.551 0 1 1 1.04-.374c.07.197 1.692 4.847 1.244 9.264a.553.553 0 0 1-.548.498zm-4.14-.835a.554.554 0 0 1-.55-.539c-.105-3.353-.814-5.76-.856-5.897-.827-2.438-1.98-4.531-3.428-6.22a.561.561 0 0 1 .057-.786.55.55 0 0 1 .779.057c1.54 1.799 2.765 4.018 3.638 6.595l.004.014c.032.104.794 2.602.906 6.2a.555.555 0 0 1-.534.573c-.004.002-.01.002-.016.002z"/></svg>