<svg xmlns="http://www.w3.org/2000/svg" viewBox="0 0 50 50" width="45" height="45"><path d="M27.563.031c-.82.02-1.653.074-2.47.188a21.947 21.947 0 0 0-6.312 1.875.999.999 0 0 0-.55 1.164.997.997 0 0 0 1.05.742s8.106-.77 16.094 5.219L.281 44.28a.999.999 0 0 0 0 1.438l4 4a.999.999 0 0 0 1.438 0L40.78 14.625C46.805 22.547 46 30.688 46 30.688c-.063.492.246.957.723 1.09.48.132.98-.106 1.183-.56C51.148 24.192 50.504 15.864 46 9.407l1.813-1.812a.997.997 0 0 0 0-1.407l-4-4a1.008 1.008 0 0 0-1.406 0L40.593 4A21.727 21.727 0 0 0 27.562.031zm.03 2c5.22-.133 10.5 1.781 14.5 5.781 4.79 4.79 6.524 11.352 5.438 17.563-.695-4.133-2.492-9.832-7.812-15.094C34.352 4.973 28.617 3.164 24.5 2.47c.297-.055.574-.207.875-.25a20.073 20.073 0 0 1 2.219-.188zm15.532 2.281l2.563 2.563-.907.938A21.57 21.57 0 0 0 43.5 6.405a21.952 21.952 0 0 0-1.313-1.187zm-6.188 6.157c.454.394.899.808 1.344 1.25.446.441.852.894 1.25 1.344L5 47.563 2.437 45z"/></svg>