<svg xmlns="http://www.w3.org/2000/svg" viewBox="0 0 50 50" width="45" height="45"><path d="M49.031.969L47.97 1s-7.352.098-14.438 3.625a25.496 25.496 0 0 0-6.625 4.75C24.371 11.91 20.793 16.07 17.531 20H8.906a.999.999 0 0 0-.687.375l-5 6a.999.999 0 0 0 .531 1.594L9.844 29.5l-.344.438-.125.125-.063.187s-.085.352-.062.688c.008.125.031.289.063.437L7.155 35s-.097.195-.125.313a1.667 1.667 0 0 0-.031.406c.008.289.078.613.25 1 .344.773 1.078 1.797 2.656 3.375 1.578 1.574 2.598 2.312 3.375 2.656.387.172.711.242 1 .25.145.004.29-.004.406-.031.118-.028.313-.125.313-.125l3.656-2.157c.137.028.293.055.407.063.335.023.687-.063.687-.063l.188-.062.156-.125.406-.313 1.531 6.063a.999.999 0 0 0 1.594.531l6-5A.998.998 0 0 0 30 41v-8.563c3.957-3.289 8.145-6.863 10.625-9.343 2.047-2.051 3.582-4.344 4.719-6.625C48.855 9.395 49 2.03 49 2.03zm-2.156 2.156c-.082 1.504-.477 6.75-3.313 12.469-1.054 2.12-2.468 4.219-4.343 6.094-2.438 2.437-6.727 6.093-10.719 9.406a.913.913 0 0 0-.219.187 628.045 628.045 0 0 1-9.156 7.438c-.117-.012-.3-.024-.625-.157-.746-.304-2.055-1.085-4-3.03-1.945-1.946-2.758-3.286-3.063-4.032-.132-.324-.144-.508-.156-.625a597.77 597.77 0 0 1 7.375-9.094.972.972 0 0 0 .25-.312c3.278-3.953 6.91-8.192 9.407-10.688 1.882-1.883 3.976-3.285 6.093-4.344 5.727-2.847 10.969-3.234 12.469-3.312zM34 11c-2.75 0-5 2.25-5 5s2.25 5 5 5 5-2.25 5-5-2.25-5-5-5zm0 2c1.668 0 3 1.332 3 3s-1.332 3-3 3-3-1.332-3-3 1.332-3 3-3zM9.469 22h6.406c-1.918 2.34-3.496 4.328-4.656 5.781L5.78 26.406zm.844 11.594c.57.914 1.406 2 2.75 3.343 1.34 1.34 2.43 2.18 3.343 2.75L14.25 40.97c-.031-.008-.027-.004-.156-.063-.41-.18-1.305-.746-2.781-2.218-1.473-1.477-2.04-2.372-2.22-2.782-.058-.129-.054-.125-.062-.156zM28 34.125v6.406l-4.406 3.688-1.375-5.407A532.651 532.651 0 0 0 28 34.125zM6.406 38.219c-1.633 1.254-3.11 1.414-4.437 2.718-.664.653-1.192 1.579-1.5 2.844C.16 45.047.03 46.68.03 48.97v1h1c4.594 0 6.84-.727 8.188-2.094 1.347-1.367 1.57-2.89 2.594-4.281l-1.626-1.188c-1.296 1.766-1.585 3.23-2.406 4.063-.722.734-2.332 1.273-5.656 1.406.05-1.453.121-2.848.313-3.625.25-1.012.554-1.5.937-1.875.762-.75 2.254-1.086 4.219-2.594zm7.688 2.843l-.094.063v-.031s.055-.016.094-.032z"/></svg>