<svg width="13" height="22" xmlns="http://www.w3.org/2000/svg"><path d="M7.386 21.672H5.75v-1.635c-1.643-.122-2.966-.623-3.967-1.502-1-.879-1.505-1.998-1.513-3.357h2.087c.065.814.395 1.481.989 2.002.594.521 1.395.842 2.404.965v-6.348l-.976-.269c-1.302-.341-2.307-.903-3.015-1.684C1.05 9.062.697 8.106.697 6.975c0-1.335.453-2.43 1.36-3.284.908-.854 2.14-1.359 3.693-1.513V.468h1.636v1.698c1.53.13 2.759.63 3.687 1.501.927.87 1.412 1.965 1.452 3.284H10.45a2.707 2.707 0 0 0-.873-1.935c-.557-.533-1.287-.853-2.19-.958v5.969l1.037.256c1.49.399 2.596.979 3.32 1.74.724.76 1.087 1.76 1.087 2.997 0 1.448-.479 2.61-1.435 3.485-.956.874-2.293 1.381-4.01 1.52v1.647zm3.333-6.482c0-.805-.267-1.456-.8-1.953-.533-.496-1.377-.866-2.533-1.11v6.054c1.066-.057 1.888-.348 2.466-.873.578-.525.867-1.23.867-2.118zM2.796 6.853c0 .724.253 1.324.757 1.8.505.477 1.237.816 2.197 1.02V4.058c-.854.048-1.56.333-2.117.854-.558.52-.837 1.168-.837 1.941z" fill="#FFF" fill-rule="evenodd"/></svg>