<svg xmlns="http://www.w3.org/2000/svg" viewBox="0 0 50 50" width="45" height="45"><path d="M34.625 3.031c-.781.012-1.645.184-2.719.469-3.082.813-20.812 5.719-20.812 5.719A.88.88 0 0 0 11 9.25c-2.809 1.059-4.578 2.055-5.656 3.5-1.07 1.438-1.309 3.164-1.313 5.219v.656C4.02 18.75 4 18.875 4 19v21.375C4 43.465 6.535 46 9.625 46h30.75C43.465 46 46 43.465 46 40.375V18.844C46 15.656 43.148 13 40 13H10c-1.121 0-2.129.32-2.969.844.727-.895 2.098-1.739 4.594-2.688.027-.011.035-.02.063-.031.113-.031 17.738-4.902 20.718-5.688.992-.261 1.735-.398 2.25-.406.516-.008.758.07.875.157.117.085.215.253.313.656.097.402.156 1.015.156 1.812V11h2V7.656c0-.867-.055-1.601-.219-2.281-.164-.68-.484-1.348-1.062-1.781-.578-.434-1.313-.574-2.094-.563zM10 15h30c1.95 0 4 1.938 4 3.844v21.531A3.618 3.618 0 0 1 40.375 44H9.625A3.613 3.613 0 0 1 6 40.375V20.469l.031-1.657c.059-.68.407-1.648 1.063-2.406C7.809 15.578 8.785 15 10 15zm28.5 12a2.497 2.497 0 0 0-2.5 2.5 2.5 2.5 0 1 0 2.5-2.5z"/></svg>