<svg xmlns="http://www.w3.org/2000/svg" width="79" height="160" viewBox="0 0 79 160">
    <g fill="none" fill-rule="nonzero">
        <path fill="#6C94C1" d="M.715 129.866v5.43c0 .41.232.818.61 1.023l42.549 23.007a1.659 1.659 0 0 0 1.568 0l32.152-17.577c.407-.233.639-.642.639-1.08v-5.401L.715 129.866z"/>
        <path fill="#CBDBEE" d="M1.208 130.392l43.247 23.036c.261.146.58.146.842 0l32.442-17.576c.64-.35.668-1.256.03-1.606L36.031 111.21a.865.865 0 0 0-.842 0L1.237 128.786c-.697.321-.697 1.285-.029 1.606z"/>
        <g fill="#6A658C" opacity=".16">
            <path d="M74.476 143.294l3.121-7.485.27.113-3.12 7.485z"/>
            <path d="M74.457 137.662h.29v5.489h-.29z"/>
            <path d="M71.349 145.089l3.121-7.486.268.113-3.121 7.486z"/>
            <path d="M71.35 139.443h.29v5.489h-.29z"/>
        </g>
        <g fill="#6A658C" opacity=".16">
            <path d="M68.212 146.66l3.121-7.486.268.11-3.121 7.487z"/>
            <path d="M68.213 141.02h.29v5.488h-.29z"/>
            <path d="M65.085 148.454l3.121-7.485.268.112-3.122 7.486z"/>
            <path d="M65.105 142.8h.29v5.49h-.29z"/>
        </g>
        <g fill="#6A658C" opacity=".16">
            <path d="M61.83 150.238l3.123-7.485.267.113-3.121 7.485z"/>
            <path d="M61.852 144.581h.29v5.49h-.29z"/>
            <path d="M58.725 152.01l3.122-7.485.268.113-3.122 7.485z"/>
            <path d="M58.715 146.362h.29v5.49h-.29z"/>
        </g>
        <g fill="#6A658C" opacity=".16">
            <path d="M55.587 153.676l3.123-7.485.267.113-3.121 7.485z"/>
            <path d="M55.579 148.027h.29v5.489h-.29z"/>
            <path d="M52.47 155.441l3.123-7.485.267.113-3.121 7.485z"/>
            <path d="M52.47 149.808h.291v5.489h-.29z"/>
        </g>
        <g fill="#6A658C" opacity=".16">
            <path d="M49.354 157.021l3.122-7.485.268.11-3.123 7.484z"/>
            <path d="M49.334 151.384h.29v5.49h-.29z"/>
            <path d="M46.226 158.81l3.122-7.485.267.113-3.121 7.485z"/>
            <path d="M46.226 153.165h.29v5.49h-.29z"/>
        </g>
        <g fill="#6A658C" opacity=".16">
            <path d="M6.884 133.477l.268-.113 3.123 7.486-.268.114z"/>
            <path d="M10.009 135.21h.29v5.488h-.29z"/>
            <path d="M10.02 135.253l.268-.113 3.123 7.485-.268.112z"/>
            <path d="M13.145 136.99h.29v5.49h-.29z"/>
        </g>
        <g fill="#6A658C" opacity=".16">
            <path d="M13.123 136.779l.267-.113 3.124 7.484-.268.113z"/>
            <path d="M16.253 138.509h.29v5.488h-.29z"/>
            <path d="M16.259 138.555l.268-.113 3.123 7.484-.268.113z"/>
            <path d="M19.39 140.29h.29v5.488h-.29z"/>
        </g>
        <g fill="#6A658C" opacity=".16">
            <path d="M31.278 146.639l.268-.113 3.123 7.484-.268.113z"/>
            <path d="M34.406 148.377h.29v5.489h-.29z"/>
            <path d="M34.388 148.426l.267-.113 3.123 7.484-.267.113z"/>
            <path d="M37.513 150.158h.29v5.489h-.29z"/>
        </g>
        <g fill="#6A658C" opacity=".16">
            <path d="M37.92 150.177l.268-.113 3.123 7.483-.268.111z"/>
            <path d="M41.057 151.939h.29v5.489h-.29z"/>
            <path d="M41.057 151.953l.267-.113 3.123 7.486-.268.114z"/>
            <path d="M44.164 153.72h.29v5.489h-.29z"/>
        </g>
        <g fill="#6A658C" opacity=".16">
            <path d="M19.395 140.331l.268-.112 3.122 7.484-.27.114z"/>
            <path d="M22.498 142.07h.29v5.49h-.29z"/>
            <path d="M22.503 142.119l.268-.113 3.124 7.484-.268.113z"/>
            <path d="M25.634 143.852h.29v5.488h-.29z"/>
        </g>
        <g fill="#6A658C" opacity=".16">
            <path d="M.576 130.15l.268-.112 3.123 7.484-.268.114z"/>
            <path d="M3.706 131.88h.29v5.49h-.29z"/>
            <path d="M3.712 131.926l.268-.113 3.123 7.484-.268.11z"/>
            <path d="M6.843 133.662h.29v5.489h-.29z"/>
        </g>
        <path fill="#A5A5A4" d="M19.622 110.889l10.02 4.087 10.166-4v-.788L29.7 106.334l-10.078 3.737"/>
        <path fill="#BEBEBA" d="M19.622 109.837l10.05 3.942 10.136-3.825-10.108-4.408"/>
        <path fill="#A5A5A4" d="M29.788 114.918a.455.455 0 0 0 .406-.263l4.037-10.131 4.734 6.365c.146.204.407.233.61.087.204-.146.233-.409.088-.613l-5.228-7.007c-.088-.117-.262-.205-.407-.175-.145.029-.29.116-.349.262l-4.327 10.862a.432.432 0 0 0 .232.554c.087.059.145.059.204.059zm-1.075-.935c.058 0 .087 0 .145-.029a.423.423 0 0 0 .262-.555l-3.834-10.86c-.058-.176-.204-.293-.378-.293-.174 0-.348.088-.406.234l-3.863 8.058c-.116.205 0 .467.203.584.203.117.465 0 .58-.204l3.399-7.124 3.485 9.868a.428.428 0 0 0 .407.321z"/>
        <path fill="#A5A5A4" d="M19.593 101.254l10.05 4.116 10.165-4v-.788L29.7 96.728l-10.078 3.737"/>
        <path fill="#BEBEBA" d="M19.622 100.232l10.02 3.941 10.166-3.824-10.108-4.41"/>
        <path fill="#A5A5A4" d="M29.788 105.312a.437.437 0 0 0 .406-.292l4.037-10.978 4.705 6.89c.146.205.407.263.61.117.204-.146.262-.408.117-.613l-5.2-7.59a.39.39 0 0 0-.406-.176.404.404 0 0 0-.349.292l-4.327 11.795a.423.423 0 0 0 .261.555h.146zm-1.075-.934c.058 0 .087 0 .145-.03a.423.423 0 0 0 .262-.554l-3.834-10.861c-.058-.175-.204-.292-.378-.292-.174 0-.348.087-.406.233l-3.863 8.059c-.116.204 0 .467.203.583.203.117.465 0 .58-.204l3.399-7.124 3.485 9.869a.428.428 0 0 0 .407.32z"/>
        <path fill="#A5A5A4" d="M19.593 90.977l10.05 4.116 10.165-4v-.817L29.7 86.45l-10.078 3.708"/>
        <path fill="#BEBEBA" d="M19.622 89.955l10.02 3.912 10.166-3.796L29.7 85.634"/>
        <path fill="#A5A5A4" d="M28.713 94.1c.058 0 .087 0 .145-.029a.423.423 0 0 0 .262-.554l-3.834-10.89c-.058-.176-.204-.293-.378-.293-.174 0-.348.088-.406.234l-3.863 8.058c-.116.205 0 .467.203.584.203.117.465 0 .58-.204l3.399-7.124 3.485 9.868c.058.234.233.35.407.35zM29.788 95.035a.455.455 0 0 0 .406-.263l4.037-10.131 4.734 6.365c.146.204.407.233.61.087.204-.146.233-.408.088-.613l-5.228-7.007c-.088-.117-.262-.204-.407-.175-.145.029-.29.117-.349.263l-4.327 10.86a.432.432 0 0 0 .232.555c.087.03.145.059.204.059z"/>
        <path fill="#A5A5A4" d="M19.651 80.904l10.05 4.116 10.165-4v-.817l-10.107-3.825-10.079 3.708"/>
        <path fill="#BEBEBA" d="M19.68 79.882l10.02 3.912L39.866 80 29.759 75.56"/>
        <path fill="#A5A5A4" d="M29.846 84.933a.437.437 0 0 0 .406-.292l4.037-11.007 4.705 6.89c.146.205.407.263.61.117.204-.146.262-.409.117-.613l-5.2-7.591a.39.39 0 0 0-.406-.175.404.404 0 0 0-.348.291L29.439 84.35a.423.423 0 0 0 .261.555c.03.029.088.029.146.029zm-1.075-.905c.058 0 .087 0 .145-.03a.423.423 0 0 0 .262-.554l-3.834-10.861c-.058-.176-.203-.292-.378-.292-.174 0-.348.087-.406.233l-3.863 8.059c-.116.204 0 .467.203.583.203.117.465 0 .581-.204l3.398-7.124 3.485 9.869a.428.428 0 0 0 .407.32z"/>
        <path fill="#A5A5A4" d="M19.68 70.627l10.02 4.116 10.166-4v-.817L29.759 66.1 19.68 69.809"/>
        <path fill="#BEBEBA" d="M19.68 69.575l10.02 3.942 10.166-3.825-10.107-4.408"/>
        <path fill="#A5A5A4" d="M29.846 74.656a.455.455 0 0 0 .406-.263l4.037-10.131 4.735 6.365c.145.204.406.233.61.087.203-.146.232-.409.087-.613l-5.2-6.978c-.086-.117-.26-.204-.406-.175-.145.029-.29.117-.348.263l-4.328 10.86a.432.432 0 0 0 .232.555c.058.03.117.03.175.03zm-1.075-.935c.058 0 .087 0 .145-.029a.423.423 0 0 0 .262-.555l-3.834-10.86c-.058-.176-.203-.293-.378-.293-.174 0-.348.088-.406.234l-3.863 8.058c-.116.205 0 .467.203.584.203.117.465 0 .581-.204l3.398-7.124 3.485 9.868a.397.397 0 0 0 .407.321zm-8.975-21.897l10.05 4.117 10.136-4v-.818l-10.107-3.825-10.079 3.708v.818z"/>
        <path fill="#BEBEBA" d="M19.796 50.802l10.05 3.912 10.136-3.795-10.078-4.438"/>
        <path fill="#A5A5A4" d="M29.962 55.853a.437.437 0 0 0 .406-.292l4.038-11.007 4.705 6.89c.145.205.406.263.61.117.203-.146.261-.409.116-.613l-5.2-7.591a.39.39 0 0 0-.406-.175.404.404 0 0 0-.348.292l-4.328 11.795a.423.423 0 0 0 .262.555c.058.029.116.029.145.029zM28.887 54.919c.058 0 .087 0 .145-.03a.423.423 0 0 0 .262-.554L25.46 43.474c-.058-.175-.203-.292-.378-.292-.174 0-.348.087-.406.233l-3.863 8.059c-.116.204 0 .467.203.583.204.117.465 0 .581-.204l3.398-7.124 3.486 9.869a.397.397 0 0 0 .406.32z"/>
        <path fill="#A5A5A4" d="M19.796 41.518l10.05 4.116 10.136-4v-.788l-10.107-3.854-10.079 3.737"/>
        <path fill="#BEBEBA" d="M19.796 40.496l10.05 3.941 10.136-3.825-10.078-4.408"/>
        <path fill="#A5A5A4" d="M29.962 45.576a.455.455 0 0 0 .406-.263l4.038-10.131 4.734 6.365c.145.204.406.233.61.087.203-.146.232-.408.087-.613l-5.2-6.978c-.086-.117-.26-.204-.406-.175-.145.03-.29.117-.348.263l-4.328 10.832a.432.432 0 0 0 .233.554c.058.03.116.059.174.059zm-1.075-.934c.058 0 .087 0 .145-.03a.423.423 0 0 0 .262-.554L25.46 33.197c-.058-.176-.203-.292-.378-.292-.174 0-.348.087-.406.233l-3.863 8.058c-.116.205 0 .468.203.584.204.117.465 0 .581-.204l3.398-7.124 3.486 9.868a.428.428 0 0 0 .406.322z"/>
        <path fill="#A5A5A4" d="M19.855 31.445l10.049 4.116 10.136-4v-.788L29.933 26.92l-10.078 3.737"/>
        <path fill="#BEBEBA" d="M19.855 30.423l10.049 3.912L40.04 30.54l-10.078-4.41"/>
        <path fill="#A5A5A4" d="M30.02 35.503a.437.437 0 0 0 .407-.292l3.92-10.978 4.822 7.212c.145.204.406.262.61.116.203-.145.261-.408.116-.613l-5.315-7.912c-.087-.146-.262-.204-.407-.204a.45.45 0 0 0-.348.292l-4.212 11.795a.423.423 0 0 0 .262.555c.058 0 .116.029.145.029zm-1.075-.934c.058 0 .087 0 .146-.03a.423.423 0 0 0 .26-.554l-3.833-10.861c-.058-.175-.203-.292-.377-.292-.175 0-.349.087-.407.233l-3.863 8.059c-.116.204 0 .467.203.583.204.117.465 0 .581-.204l3.398-7.124 3.486 9.869a.428.428 0 0 0 .406.32z"/>
        <path fill="#A5A5A4" d="M19.855 20.846l10.049 4.117 10.136-4v-.817L29.933 16.32l-10.078 3.708"/>
        <path fill="#BEBEBA" d="M19.855 19.824l10.049 3.913 10.165-3.796-10.107-4.438"/>
        <path fill="#A5A5A4" d="M30.02 24.905a.455.455 0 0 0 .407-.263l4.037-10.131 4.734 6.365c.145.204.406.233.61.087.203-.146.232-.409.087-.613l-5.199-6.978c-.087-.117-.261-.204-.407-.175-.145.029-.29.117-.348.263l-4.328 10.86a.432.432 0 0 0 .233.555c.058 0 .116.03.174.03zm-1.075-.935c.058 0 .087 0 .146-.029a.423.423 0 0 0 .26-.555l-3.833-10.86c-.058-.176-.203-.293-.377-.293-.175 0-.349.088-.407.234l-3.863 8.058c-.116.205 0 .467.203.584.204.117.465 0 .581-.204l3.398-7.124 3.486 9.868a.428.428 0 0 0 .406.321zm-9.323 36.496l10.05 4.117 10.165-4v-.818l-10.108-3.824-10.078 3.708-.029.817z"/>
        <path fill="#BEBEBA" d="M19.651 59.444l10.02 3.913 10.166-3.796-10.108-4.438"/>
        <path fill="#A5A5A4" d="M28.742 63.59c.058 0 .087 0 .145-.03a.423.423 0 0 0 .262-.554l-3.311-9.401a.5.5 0 0 0-.349-.292c-.174-.03-.32.058-.407.204l-4.385 6.57c-.145.204-.087.467.116.613.203.146.465.087.61-.117l3.892-5.869 3.02 8.555a.428.428 0 0 0 .407.321z"/>
        <path fill="#A5A5A4" d="M19.39 9.46h2.033v117.166H19.39V9.46zm9.468 4.554h2.033V133.05h-2.033V14.014zm9.169 113l.361-117.458 2.033.006-.361 117.458-2.033-.006z"/>
        <path fill="#A5A5A4" d="M15.672 8.613l14.377 6.744 14.58-6.598V7.445L30.136 1.168 15.672 7.27"/>
        <path fill="#BEBEBA" d="M15.672 7.24l14.377 6.424 14.58-6.248L30.136.146"/>
        <path fill="#A5A5A4" d="M40.33 59.882l7.581 3.445-2.643 3.767-10.136-4.643v-.613"/>
        <path fill="#BEBEBA" d="M47.069 62.714l-1.685 3.387-10.427-4.73 3.166-1.401 1.075.292 1.162-.467"/>
        <g transform="translate(35.306 16.35)">
            <path fill="#A5A5A4" d="M19.75 57.517l-1.714-4h-3.804l-1.743 4c-.03.03-.03.03-.03.059 0 .233 1.656.438 3.66.438 2.033 0 3.66-.205 3.66-.438 0-.03 0-.059-.03-.059z"/>
            <path fill="#BEBEBA" d="M11.56 53.517v.876h.029c.232.234 2.178.409 4.53.409 2.353 0 4.299-.175 4.531-.409h.03v-.876h-9.12z"/>
            <path fill="#F2F2E7" d="M24.571 114.392v-45.43l-2.323-8.73H9.99l-2.323 8.73v45.43l-7.639 6.686v3.066h7.116l.958-1.168h4.27l-1.336 3.941h10.136l-1.336-3.941h4.27l.987 1.168h7.116v-3.066l-7.639-6.686zm-5.634-98.334V4.671L16.119.204l-2.817 4.467v11.387l-3.195 9.051v28.262h.03c.319.292 2.875.526 5.982.526 3.108 0 5.664-.234 5.983-.526h.03V25.11l-3.195-9.05z"/>
            <path fill="#322C55" d="M24.571 107.414v-3.795c0 .175-3.776.35-8.452.35s-8.451-.146-8.451-.35v3.795c0 .175 3.775.35 8.451.35 4.647 0 8.452-.175 8.452-.35z"/>
            <path fill="#322C55" d="M7.668 84.174h1.22v20.992h-1.22V84.174zm5.78 0h3.804v20.029h-3.805v-20.03zm7.377 0h3.717v20.029h-3.717v-20.03z"/>
            <path fill="#322C55" d="M14.9 77.254h.755v8.496H14.9v-8.496zm7.406-.03h.755v8.497h-.755v-8.496zm2.265 43.883v.438H7.668v-.438H.029v3.154h7.116l.958-1.227h16.003l.988 1.227h7.116v-3.154H24.57z"/>
            <path fill="#4990E2" d="M14.406 21.43h3.398v4.321h-3.398z"/>
            <path fill="#322C55" d="M13.273 16.058l-1.83 5.197c.494.204 2.411.38 4.676.38 2.266 0 4.183-.176 4.676-.38l-1.83-5.197c-.783.059-1.771.088-2.846.088-1.074.029-2.062-.03-2.846-.088z"/>
            <path fill="#4990E2" d="M20.273 25.518c-.814.087-1.569.204-2.353.146v10.89h4.24V25.051c-.61.35-1.22.408-1.887.467z"/>
            <path fill="#322C55" d="M22.132 43.444v-7.561c0 .38-2.702.671-6.013.671-3.31 0-6.012-.292-6.012-.671v7.561c0 .38 2.701.672 6.012.672 3.311 0 6.013-.292 6.013-.672zm-6.013-17.897c-3.427 0-5.605-.292-6.07-.526v.234c1.25.496 5.838.526 6.07.526.233 0 4.735 0 6.042-.497v-.233c-.552.233-2.702.496-6.042.496zM11.53 46.393h2.411v.322h-2.41v-.322zm0 .964h2.411v.321h-2.41v-.321zm0 .993h2.411v.32h-2.41v-.32zm0 .963h2.411v.321h-2.41v-.321zm0 .963h2.411v.322h-2.41v-.322zm0 .993h2.411v.321h-2.41v-.32z"/>
            <path fill="#4990E2" d="M16.12.058s2.265 3.562 2.817 4.467c.261 1.022-5.78 1.11-5.635 0A961.82 961.82 0 0 1 16.12.058z"/>
            <path fill="#322C55" d="M16.12.058V5.49h-3.66"/>
            <g fill="#322C55" transform="translate(11.908 45.255)">
                <ellipse cx=".378" cy=".292" rx="1" ry="1"/>
                <ellipse cx="1.278" cy=".292" rx="1" ry="1"/>
            </g>
            <path fill="#A5A5A4" d="M22.132 51.386h-3.776v-5.11h3.776v.234h-3.573v4.642h3.573"/>
            <path fill="#EAEAE4" d="M19.11 26.802h1.802v.292H19.11v-.292zm0 .73h1.802v.292H19.11v-.292zm0 .73h1.802v.292H19.11v-.292zm0 .73h1.802v.292H19.11v-.292zm0 .73h1.802v.292H19.11v-.292zm0 .73h1.802v.292H19.11v-.292z"/>
            <path fill="#4990E2" d="M7.668 114.392h8.016v7.153H7.668v-7.153zm16.903 0v6.715h7.639l-7.639-6.715z"/>
            <path fill="#BEBEBA" d="M15.655 114.392h8.858v4.818h-8.858z"/>
            <path fill="#F2F2E7" d="M23.898 116.945v2.394h-.32v-2.394h.32zm-.976-.012v2.394h-.32v-2.394h.32zm-.975-.012v2.394h-.32v-2.394h.32zm-.976.017v2.394h-.319v-2.394h.32zm-.975-.012v2.394h-.32v-2.394h.32zm-.976.017v2.394h-.32v-2.394h.32z"/>
            <path fill="#4990E2" d="M24.571 68.933l-.116-.496H7.784l-.116.496v4.117c2.033.467 5.14.788 8.655.788 3.282 0 6.244-.263 8.277-.7v-4.205h-.029z"/>
            <path fill="#F2F2E7" d="M14.135 68.296v6.16h-.32v-6.16h.32zm-.975.017v6.16h-.32l-.003-6.16h.323zm-.976-.012v6.16h-.32v-6.16h.32zm-.976-.012v6.16h-.32v-6.16h.32zm-.976.017v6.16h-.32v-6.16h.32zm-.976-.012v6.16h-.32v-6.16h.32z"/>
            <path fill="#322C55" d="M22.248 60.057H9.99l-2.294 8.555c0 .38 3.775.7 8.422.7s8.423-.32 8.423-.7l-2.294-8.555z"/>
            <ellipse cx="16.119" cy="60.203" fill="#A5A5A4" rx="6.128" ry="1"/>
            <path fill="#A5A5A4" d="M13.302 6.57v.32h1.917v6.95h-1.917v.35h2.207V6.57m3.399 7.62v-.35H17.02V6.89h1.888v-.32H16.7v7.62"/>
        </g>
        <g transform="translate(36.758 9.343)">
            <path fill="#A5A5A4" d="M16.7 8.058c.03-.058.03-.087.03-.146L16.7 6.16l-4.763-.029-.029 1.752c0 .058 0 .088.03.146l.028.058c.262.41 1.19.701 2.353.701 1.132 0 2.09-.292 2.352-.671l.03-.059z"/>
            <path fill="#BEBEBA" d="M1.481.818l1.54-.672 10.63 5.08-1.133.905"/>
            <path fill="#A5A5A4" d="M1.481.818l-1.249.525L12.17 7.066l.61-.789"/>
            <ellipse cx="14.339" cy="6.193" fill="#BEBEBA" rx="1.162" ry="2.423" transform="rotate(-89.675 14.339 6.193)"/>
        </g>
    </g>
</svg>
