<?xml version="1.0" encoding="UTF-8"?>
<svg width="430px" height="132px" viewBox="0 0 430 132" version="1.1" xmlns="http://www.w3.org/2000/svg" xmlns:xlink="http://www.w3.org/1999/xlink">
    <title>shared/marketing/brave_logo</title>
    <defs>
        <linearGradient x1="-0.00324219751%" y1="50.0013616%" x2="99.9986705%" y2="50.0013616%" id="linearGradient-1">
            <stop stop-color="#FF5500" offset="0%"></stop>
            <stop stop-color="#FF5500" offset="40.99%"></stop>
            <stop stop-color="#FF2000" offset="58.2%"></stop>
            <stop stop-color="#FF2000" offset="100%"></stop>
        </linearGradient>
        <linearGradient x1="2.19453236%" y1="50.0007042%" x2="100.074692%" y2="50.0007042%" id="linearGradient-2">
            <stop stop-color="#FF452A" offset="0%"></stop>
            <stop stop-color="#FF2000" offset="100%"></stop>
        </linearGradient>
    </defs>
    <g id="Page-1" stroke="none" stroke-width="1" fill="none" fill-rule="evenodd">
        <g id="shared/marketing/brave_logo" fill-rule="nonzero">
            <g id="Group-4" transform="translate(142.818190, 26.200000)" fill="#434351">
                <path d="M1.0658141e-14,45.3 L1.0658141e-14,-2.83106871e-15 L4.3,-2.83106871e-15 C7.9,-2.83106871e-15 10.8,2.9 10.8,6.4 L10.8,26.6 C17.8,20.4 23.7,17.9 31.6,17.8 C46.7,17.5 59.8,28.7 61.1,43.8 C62.6,61.8 49.5,75.3 32.4,75.3 C13.6,75.2 1.0658141e-14,63.6 1.0658141e-14,45.3 Z M10.6,48.9 C11.7,58.3 20.6,66 30.1,66.2 C42.4,66.4 50.8,58.4 50.8,46.5 C50.8,34.6 42.5,26.8 30.6,26.8 C17.8,26.8 9.1,36 10.6,48.9 Z" id="Shape"></path>
                <path d="M78.9,18.8 L78.9,26.9 C85.7,19.4 89.7,17.4 97.6,17.4 C99.9,17.4 102.2,17.6 104.5,18 L104.5,28.7 C102.1,28 99.6,27.7 97.1,27.7 C91.4,27.7 86.6,29.6 83,33.1 C79.9,36.2 79,38.6 79,43.5 L79,73.4 L67.8,73.4 L67.8,18.8 L78.9,18.8 Z" id="Shape_1_"></path>
                <path d="M107.1,36.9 C107.7,31.6 108.7,28.7 111,26 C115.6,20.4 123.8,17.5 135.5,17.5 C144.8,17.5 151.5,18.9 156.2,22 C160.1,24.5 161.7,28.3 161.7,34.9 L161.7,59.1 C161.7,64.4 163.1,66.3 166.9,66.2 C167.7,66.2 168.6,66.1 169.4,66 L169.4,73.3 C167.5,73.9 165.5,74.2 163.6,74.2 C156.6,74.2 153.4,72.1 151.2,66 C144.3,72.3 137.2,75 127,75 C113.4,75 105,68.8 105,58.7 C104.9,53 108.3,47.7 113.6,45.4 C117.7,43.6 120.2,43.1 132,41.9 C142.1,40.9 143.8,40.7 146.7,39.8 C149.8,38.8 151.2,37.1 151.2,34.4 C151.2,28.5 146.3,25.9 136,25.9 C126.3,25.9 121.2,27.8 119.2,32.8 C118.2,35.3 115.8,37 113.1,37 L107.1,36.9 Z M151.2,46.2 C144.1,48.3 136.9,49.6 129.5,50.2 C119.5,51.2 116.4,53.1 116.4,58 C116.4,63.5 121,66.4 130,66.4 C137.4,66.4 143.1,64.5 147.1,60.9 C150.3,57.9 151.1,55.8 151.1,50.6 L151.2,46.2 L151.2,46.2 Z" id="Shape_2_"></path>
                <path d="M196.3,73.3 L193.4,73.3 C190.9,73.3 188.6,71.9 187.5,69.6 L163.5,18.8 L170.2,18.8 C174.1,18.8 177.6,21 179.2,24.6 L195.2,61.1 L211.8,24.5 C213.4,21 216.9,18.8 220.8,18.8 L226.9,18.8 L202.3,69.7 C201.1,72 198.8,73.4 196.3,73.3 Z" id="Shape_3_"></path>
                <path d="M234.4,49.3 C235.5,59.8 243.8,66.3 256,66.3 C263,66.3 268.2,64.2 271.4,60.1 C273.3,57.7 276.2,56.4 279.2,56.4 L285.7,56.4 C280,68.7 270,74.8 255,74.8 C236.3,74.8 223.6,63.4 223.6,46.4 C223.6,29.4 236.5,17.4 255.2,17.4 C268.7,17.4 279.6,23.5 284,33.7 C285.9,38.4 286.7,42.5 286.7,49.3 L234.4,49.3 Z M275.4,40.8 C272.9,31.2 265.4,25.8 255.1,25.8 C244.8,25.8 237.3,31.2 234.7,40.8 L275.4,40.8 Z" id="Shape_4_"></path>
            </g>
            <g id="Logo" transform="translate(-0.000000, 0.000000)">
                <path d="M108.4,31.6 L111.5,24 C111.5,24 107.6,19.8 102.8,15 C98,10.2 87.9,13 87.9,13 L76.4,0 L56.2,0 L35.9,0 L24.4,13.1 C24.4,13.1 14.3,10.3 9.5,15.1 C4.7,19.9 0.8,24.1 0.8,24.1 L3.9,31.7 L0,42.9 C0,42.9 11.6,86.7 12.9,92.1 C15.6,102.6 17.4,106.7 25,112.1 C32.6,117.5 46.3,126.7 48.6,128.1 C50.8,129.5 53.7,131.9 56.2,131.9 C58.7,131.9 61.5,129.5 63.8,128.1 C66,126.7 79.8,117.4 87.4,112.1 C95,106.8 96.8,102.7 99.5,92.1 C100.9,86.7 112.4,42.9 112.4,42.9 L108.4,31.6 Z" id="Head" fill="url(#linearGradient-1)"></path>
                <path d="M84.7,21.4 C84.7,21.4 99.5,39.3 99.5,43.2 C99.5,47.1 97.6,48 95.7,50 C93.8,52 85.6,60.7 84.6,61.8 C83.5,62.9 81.4,64.6 82.6,67.7 C83.9,70.7 85.8,74.6 83.7,78.6 C81.6,82.5 78,85.2 75.7,84.7 C73.4,84.3 67.9,81.4 65.9,80.1 C63.9,78.8 57.6,73.6 57.6,71.6 C57.6,69.6 64.2,66 65.4,65.2 C66.6,64.4 72.1,61.2 72.2,60 C72.3,58.8 72.3,58.4 70.6,55.3 C69,52.2 66,48.1 66.5,45.4 C67,42.7 71.7,41.3 75.1,40 C78.5,38.7 85,36.3 85.8,35.9 C86.6,35.5 86.4,35.2 83.9,34.9 C81.4,34.7 74.5,33.7 71.3,34.6 C68.1,35.5 62.8,36.8 62.3,37.5 C61.9,38.2 61.5,38.2 61.9,40.7 C62.3,43.1 64.7,54.9 64.9,57 C65.1,59.1 65.6,60.5 63.3,61 C61.1,61.5 57.3,62.4 56,62.4 C54.7,62.4 50.9,61.5 48.7,61 C46.5,60.5 46.9,59.1 47.1,57 C47.3,54.9 49.6,43.2 50.1,40.7 C50.5,38.3 50.2,38.2 49.7,37.5 C49.3,36.8 43.9,35.5 40.7,34.6 C37.5,33.7 30.6,34.6 28.1,34.9 C25.6,35.1 25.4,35.5 26.2,35.9 C27,36.3 33.5,38.7 36.9,40 C40.3,41.3 45,42.7 45.5,45.4 C46,48.1 43.1,52.2 41.4,55.3 C39.8,58.4 39.7,58.7 39.8,60 C39.9,61.2 45.4,64.4 46.6,65.2 C47.8,66 54.4,69.6 54.4,71.6 C54.4,73.6 48.1,78.8 46.1,80.1 C44.1,81.4 38.7,84.2 36.3,84.7 C34,85.1 30.4,82.5 28.3,78.6 C26.2,74.7 28.1,70.8 29.4,67.7 C30.7,64.7 28.5,63 27.4,61.8 C26.6,60.6 18.5,51.9 16.6,50 C14.7,48 12.9,47 12.9,43.2 C12.9,39.4 27.7,21.4 27.7,21.4 C27.7,21.4 40.2,23.8 41.9,23.8 C43.6,23.8 47.2,22.4 50.6,21.3 C54,20.2 56.2,20.2 56.2,20.2 C56.2,20.2 58.4,20.2 61.8,21.3 C65.2,22.4 68.8,23.8 70.5,23.8 C72.2,23.8 84.7,21.4 84.7,21.4 Z M73.6,89.9 C74.5,90.5 74,91.6 73.1,92.1 C72.3,92.7 61,101.4 60,102.4 C58.9,103.4 57.3,104.9 56.2,104.9 C55.1,104.9 53.5,103.3 52.4,102.4 C51.3,101.4 40.1,92.7 39.3,92.1 C38.5,91.5 37.9,90.4 38.8,89.9 C39.7,89.3 42.6,87.9 46.5,85.8 C50.5,83.7 55.4,82 56.2,82 C57,82 61.9,83.7 65.9,85.8 C69.8,87.9 72.6,89.4 73.6,89.9 Z" id="Face" fill="#FFFFFF"></path>
                <g id="Top-Head" transform="translate(9.500000, 0.000000)" fill="url(#linearGradient-2)">
                    <path d="M78.4,13.1 L66.9,0 L46.7,0 L26.4,0 L14.9,13.1 C14.9,13.1 4.8,10.3 0,15.1 C0,15.1 13.5,13.9 18.1,21.4 C18.1,21.4 30.6,23.8 32.3,23.8 C34,23.8 37.6,22.4 41,21.3 C44.4,20.2 46.6,20.2 46.6,20.2 C46.6,20.2 48.8,20.2 52.2,21.3 C55.6,22.4 59.2,23.8 60.9,23.8 C62.6,23.8 75.1,21.4 75.1,21.4 C79.7,13.9 93.2,15.1 93.2,15.1 C88.5,10.3 78.4,13.1 78.4,13.1" id="path-3_1_"></path>
                </g>
            </g>
        </g>
    </g>
</svg>