<?xml version="1.0" encoding="UTF-8"?>
<svg width="465px" height="111px" viewBox="0 0 465 111" version="1.1" xmlns="http://www.w3.org/2000/svg" xmlns:xlink="http://www.w3.org/1999/xlink">
    <!-- Generator: Sketch 46.2 (44496) - http://www.bohemiancoding.com/sketch -->
    <title>Artboard</title>
    <desc>Created with Sketch.</desc>
    <defs></defs>
    <g id="Page-1" stroke="none" stroke-width="1" fill="none" fill-rule="evenodd">
        <g id="Artboard">
            <g id="Source" transform="translate(1.000000, 1.000000)">
                <path d="M106,38 C105.73497,36.6159029 105.40028,35.2771451 105,34 L106,38 Z" id="_Path_"></path>
                <path d="M80.8277284,27.2081579 C76.0539693,24.7585911 70.8303271,23.1652079 65.5167083,22.4296722 C60.5538317,21.7423957 55.3918401,22.0793775 50.3906401,22.1051712 L33.3858936,22.1883766 L25.4354602,22.2324754 L25.4354602,55.187635 L44.4305227,55.187635 L44.4305227,78.0100419 C44.4305227,78.0100419 51.9527341,75.8134196 52.3717918,65.5026074 C52.5384152,61.3498263 52.5734061,57.4857679 52.5525782,54.3530849 L52.5525782,46.6532579 L34.8355168,46.6532579 L34.8355168,30.8791798 L60.5929882,30.8791798 C73.6412631,30.8791798 86.2021648,37.2976437 91.9781634,49.4048602 C96.2670485,58.3910426 94.8607474,66.9961442 94.2917287,70.2012159 C93.0020639,77.4692069 89.6371052,83.5298876 84.9674857,88.4148762 C74.1211384,99.7632596 56.2207913,104.760575 40.8689485,103.757118 C37.8734408,103.547486 34.8909699,103.181437 31.9337711,102.660471 C29.2242489,102.070012 26.5700513,101.249967 24,100.20924 C24.0833117,100.273309 24.1666234,100.332384 24.249935,100.393124 C24.8570772,100.848584 25.4908098,101.267569 26.147775,101.647862 C27.1408502,102.213658 28.1764144,102.699578 29.1961493,103.212955 C30.1775609,103.70664 31.1734132,104.170372 32.1837061,104.604149 C36.2901445,106.367306 40.5997137,107.614928 45.0137045,108.318438 C47.2823854,108.67971 49.5716043,108.897863 51.8677562,108.9716 C52.4626016,108.991015 53.0577246,109.000445 53.6531254,108.99989 L53.7672624,108.99989 C55.5452705,109.003584 57.3222492,108.914154 59.0908786,108.731969 L59.3133208,108.709503 C59.4799442,108.69203 59.6465675,108.671229 59.8131909,108.652092 C62.9695766,108.281797 66.0843106,107.617135 69.1166059,106.666811 C74.1850417,105.098814 78.9722314,102.73748 83.2995859,99.6709016 C92.6638185,93.0460883 97.4025867,84.971005 98.6614262,82.7202991 C98.6614262,82.7202991 100.82753,78.7355929 102.101365,72.4768834 C103.655128,64.8219873 103.865907,53.7723113 97.1243257,42.4397369 C93.2511658,35.9156021 87.5709756,30.6695022 80.8277284,27.2081579 Z" id="_Path_2" fill="#FFFFFF" fill-rule="nonzero"></path>
                <path d="M38.8693126,93.998878 C42.3379622,94.0258433 45.7929998,93.566623 49.1315641,92.634889 C58.428263,90.0458049 64.0753584,84.555749 65.5182249,83.0844706 C68.7765855,79.7754291 71.3462808,75.8650071 73.0812992,71.5753973 C75.034253,66.7057901 75.5838364,61.1674955 75.6779547,55.9643764 C75.6829967,55.6840933 75.6998035,54.0015629 75.7224928,52.1069488 C75.7224928,49.6509369 75.7224928,47.3903746 75.7174507,46.1586259 L67.634205,46.1586259 L67.634205,54.7675592 C67.634205,64.1283498 64.5619162,74.4697155 56.7795128,80.3839387 C47.0802903,87.7553014 31.6188455,86.8936595 21.3456696,79.7102612 C8.36491319,70.6355755 5.9279226,52.1585143 10.3464386,37.9979793 C14.5599113,24.4845074 25.8179675,14.720342 39.2113317,10.4545494 C51.1853589,6.64037033 64.5820844,6.97305058 76.2989671,11.5357603 C88.8427459,16.4186747 98.9402904,25.952459 106,37.2145173 L104.188224,33.1816009 C104.913442,34.4692558 105.519824,35.8190303 106,37.2145173 C104.867743,33.9148511 103.433198,30.7244897 101.714258,27.683228 C100.680399,25.8453565 99.5488321,24.0630166 98.32432,22.34371 C98.2033108,22.1532505 97.4604488,21.0437619 96.0133806,19.3346171 C95.3276619,18.5104018 94.9108525,18.0754223 94.9108525,18.0754223 C94.6161727,17.7493957 94.3021651,17.4106163 93.9688296,17.0590842 C91.5007102,14.4579988 88.7875691,12.0958095 85.866256,10.0045994 C58.3551533,-9.60606984 18.460777,0.755256649 4.21530645,31.1181517 C4.13127229,31.2844918 4.04723813,31.4508319 3.96824602,31.617172 C3.10540473,33.4418667 2.37525359,35.3251861 1.78335791,37.2527755 C0.139649773,42.7602971 -0.197327202,48.2387092 0.0942713272,53.1199602 C0.346373802,57.2784634 0.64805643,63.5686153 3.96404432,70.7021116 C5.06825316,73.0774486 11.095183,85.4232128 24.9305668,91.1195304 C31.5322903,93.8342013 37.3508154,93.9839074 38.8693126,93.998878 Z" id="_Path_3" fill="#FFFFFF" fill-rule="nonzero"></path>
            </g>
            <path d="M128.6,30.45 L171.95,30.45 L171.95,38.55 L154.925,38.55 L154.925,84 L145.55,84 L145.55,38.55 L128.6,38.55 L128.6,30.45 Z M166.913607,45.225 L174.938607,45.225 L174.938607,52.725 L175.088607,52.725 C175.338609,51.6749947 175.826104,50.650005 176.551107,49.65 C177.276111,48.649995 178.151102,47.7375041 179.176107,46.9125 C180.201112,46.0874959 181.338601,45.4250025 182.588607,44.925 C183.838614,44.4249975 185.113601,44.175 186.413607,44.175 C187.413612,44.175 188.101105,44.1999998 188.476107,44.25 C188.851109,44.3000002 189.238605,44.3499998 189.638607,44.4 L189.638607,52.65 C189.038604,52.5499995 188.42611,52.4625004 187.801107,52.3875 C187.176104,52.3124996 186.56361,52.275 185.963607,52.275 C184.5136,52.275 183.151114,52.5624971 181.876107,53.1375 C180.601101,53.7125029 179.488612,54.5624944 178.538607,55.6875 C177.588603,56.8125056 176.83861,58.1999917 176.288607,59.85 C175.738605,61.5000083 175.463607,63.3999893 175.463607,65.55 L175.463607,84 L166.913607,84 L166.913607,45.225 Z M224.202215,84 L215.802215,84 L215.802215,78.6 L215.652215,78.6 C214.602209,80.5500098 213.039725,82.1124941 210.964715,83.2875 C208.889704,84.4625059 206.777225,85.05 204.627215,85.05 C199.527189,85.05 195.839726,83.7875126 193.564715,81.2625 C191.289703,78.7374874 190.152215,74.9250255 190.152215,69.825 L190.152215,45.225 L198.702215,45.225 L198.702215,69 C198.702215,72.400017 199.352208,74.799993 200.652215,76.2 C201.952221,77.600007 203.777203,78.3 206.127215,78.3 C207.927224,78.3 209.427209,78.0250027 210.627215,77.475 C211.827221,76.9249973 212.802211,76.1875046 213.552215,75.2625 C214.302218,74.3374954 214.839713,73.2250065 215.164715,71.925 C215.489716,70.6249935 215.652215,69.2250075 215.652215,67.725 L215.652215,45.225 L224.202215,45.225 L224.202215,84 Z M236.490822,71.55 C236.740823,74.0500125 237.690814,75.799995 239.340822,76.8 C240.99083,77.800005 242.96581,78.3 245.265822,78.3 C246.065826,78.3 246.978317,78.2375006 248.003322,78.1125 C249.028327,77.9874994 249.990817,77.7500017 250.890822,77.4 C251.790826,77.0499983 252.528319,76.5375034 253.103322,75.8625 C253.678325,75.1874966 253.940822,74.3000055 253.890822,73.2 C253.840822,72.0999945 253.440826,71.2000035 252.690822,70.5 C251.940818,69.7999965 250.978328,69.2375021 249.803322,68.8125 C248.628316,68.3874979 247.290829,68.0250015 245.790822,67.725 C244.290814,67.4249985 242.76583,67.1000018 241.215822,66.75 C239.615814,66.3999983 238.078329,65.9750025 236.603322,65.475 C235.128315,64.9749975 233.803328,64.3000043 232.628322,63.45 C231.453316,62.5999958 230.515825,61.5125066 229.815822,60.1875 C229.115818,58.8624934 228.765822,57.2250098 228.765822,55.275 C228.765822,53.1749895 229.278317,51.4125071 230.303322,49.9875 C231.328327,48.5624929 232.628314,47.4125044 234.203322,46.5375 C235.77833,45.6624956 237.528312,45.0500017 239.453322,44.7 C241.378332,44.3499982 243.215813,44.175 244.965822,44.175 C246.965832,44.175 248.878313,44.3874979 250.703322,44.8125 C252.528331,45.2375021 254.178315,45.9249952 255.653322,46.875 C257.128329,47.8250048 258.353317,49.0624924 259.328322,50.5875 C260.303327,52.1125076 260.915821,53.9499893 261.165822,56.1 L252.240822,56.1 C251.84082,54.0499898 250.903329,52.6750035 249.428322,51.975 C247.953315,51.2749965 246.265831,50.925 244.365822,50.925 C243.765819,50.925 243.053326,50.9749995 242.228322,51.075 C241.403318,51.1750005 240.628326,51.3624986 239.903322,51.6375 C239.178318,51.9125014 238.565824,52.3124974 238.065822,52.8375 C237.565819,53.3625026 237.315822,54.0499957 237.315822,54.9 C237.315822,55.9500053 237.678318,56.7999968 238.403322,57.45 C239.128326,58.1000033 240.078316,58.6374979 241.253322,59.0625 C242.428328,59.4875021 243.765814,59.8499985 245.265822,60.15 C246.765829,60.4500015 248.315814,60.7749982 249.915822,61.125 C251.46583,61.4750018 252.990814,61.8999975 254.490822,62.4 C255.990829,62.9000025 257.328316,63.5749957 258.503322,64.425 C259.678328,65.2750042 260.628318,66.3499935 261.353322,67.65 C262.078326,68.9500065 262.440822,70.5499905 262.440822,72.45 C262.440822,74.7500115 261.915827,76.699992 260.865822,78.3 C259.815817,79.900008 258.45333,81.199995 256.778322,82.2 C255.103314,83.200005 253.240832,83.9249978 251.190822,84.375 C249.140812,84.8250022 247.115832,85.05 245.115822,85.05 C242.66581,85.05 240.403332,84.7750027 238.328322,84.225 C236.253312,83.6749973 234.45333,82.8375056 232.928322,81.7125 C231.403314,80.5874944 230.203326,79.1875084 229.328322,77.5125 C228.453318,75.8374916 227.990822,73.8500115 227.940822,71.55 L236.490822,71.55 Z M261.904429,45.225 L268.354429,45.225 L268.354429,33.6 L276.904429,33.6 L276.904429,45.225 L284.629429,45.225 L284.629429,51.6 L276.904429,51.6 L276.904429,72.3 C276.904429,73.2000045 276.941929,73.9749968 277.016929,74.625 C277.09193,75.2750032 277.266928,75.8249977 277.541929,76.275 C277.816931,76.7250023 278.229426,77.0624989 278.779429,77.2875 C279.329432,77.5125011 280.079424,77.625 281.029429,77.625 C281.629432,77.625 282.229426,77.6125001 282.829429,77.5875 C283.429432,77.5624999 284.029426,77.4750007 284.629429,77.325 L284.629429,83.925 C283.679424,84.0250005 282.754434,84.1249995 281.854429,84.225 C280.954425,84.3250005 280.029434,84.375 279.079429,84.375 C276.829418,84.375 275.016936,84.1625021 273.641929,83.7375 C272.266922,83.3124979 271.191933,82.6875041 270.416929,81.8625 C269.641925,81.0374959 269.116931,80.0000062 268.841929,78.75 C268.566928,77.4999938 268.404429,76.075008 268.354429,74.475 L268.354429,51.6 L261.904429,51.6 L261.904429,45.225 Z M301.118037,36.45 L283.268037,36.45 L283.268037,30.45 L326.093037,30.45 L326.093037,36.45 L308.243037,36.45 L308.243037,84 L301.118037,84 L301.118037,36.45 Z M324.131644,64.65 C324.131644,67.0000117 324.444141,69.0874909 325.069144,70.9125 C325.694147,72.7375091 326.556638,74.2624939 327.656644,75.4875 C328.756649,76.7125061 330.044136,77.6499967 331.519144,78.3 C332.994151,78.9500032 334.556636,79.275 336.206644,79.275 C337.856652,79.275 339.419136,78.9500032 340.894144,78.3 C342.369151,77.6499967 343.656638,76.7125061 344.756644,75.4875 C345.856649,74.2624939 346.719141,72.7375091 347.344144,70.9125 C347.969147,69.0874909 348.281644,67.0000117 348.281644,64.65 C348.281644,62.2999882 347.969147,60.2125091 347.344144,58.3875 C346.719141,56.5624909 345.856649,55.0250062 344.756644,53.775 C343.656638,52.5249937 342.369151,51.5750032 340.894144,50.925 C339.419136,50.2749967 337.856652,49.95 336.206644,49.95 C334.556636,49.95 332.994151,50.2749967 331.519144,50.925 C330.044136,51.5750032 328.756649,52.5249937 327.656644,53.775 C326.556638,55.0250062 325.694147,56.5624909 325.069144,58.3875 C324.444141,60.2125091 324.131644,62.2999882 324.131644,64.65 Z M317.381644,64.65 C317.381644,61.7999858 317.78164,59.1375124 318.581644,56.6625 C319.381648,54.1874876 320.581636,52.0375091 322.181644,50.2125 C323.781652,48.3874909 325.756632,46.9500053 328.106644,45.9 C330.456656,44.8499948 333.156629,44.325 336.206644,44.325 C339.306659,44.325 342.019132,44.8499948 344.344144,45.9 C346.669155,46.9500053 348.631636,48.3874909 350.231644,50.2125 C351.831652,52.0375091 353.03164,54.1874876 353.831644,56.6625 C354.631648,59.1375124 355.031644,61.7999858 355.031644,64.65 C355.031644,67.5000142 354.631648,70.1499878 353.831644,72.6 C353.03164,75.0500123 351.831652,77.1874909 350.231644,79.0125 C348.631636,80.8375091 346.669155,82.2624949 344.344144,83.2875 C342.019132,84.3125051 339.306659,84.825 336.206644,84.825 C333.156629,84.825 330.456656,84.3125051 328.106644,83.2875 C325.756632,82.2624949 323.781652,80.8375091 322.181644,79.0125 C320.581636,77.1874909 319.381648,75.0500123 318.581644,72.6 C317.78164,70.1499878 317.381644,67.5000142 317.381644,64.65 Z M359.745251,30.45 L366.120251,30.45 L366.120251,62.175 L383.820251,45.225 L392.370251,45.225 L376.995251,59.325 L393.495251,84 L385.395251,84 L372.120251,63.75 L366.120251,69.3 L366.120251,84 L359.745251,84 L359.745251,30.45 Z M422.058858,60.9 C421.958858,59.3999925 421.621361,57.9750068 421.046358,56.625 C420.471356,55.2749932 419.696363,54.1125049 418.721358,53.1375 C417.746354,52.1624951 416.596365,51.3875029 415.271358,50.8125 C413.946352,50.2374971 412.483866,49.95 410.883858,49.95 C409.23385,49.95 407.746365,50.2374971 406.421358,50.8125 C405.096352,51.3875029 403.958863,52.174995 403.008858,53.175 C402.058854,54.175005 401.308861,55.3374934 400.758858,56.6625 C400.208856,57.9875066 399.883859,59.3999925 399.783858,60.9 L422.058858,60.9 Z M428.208858,71.7 C427.358854,76.0500217 425.483873,79.324989 422.583858,81.525 C419.683844,83.725011 416.03388,84.825 411.633858,84.825 C408.533843,84.825 405.84637,84.325005 403.571358,83.325 C401.296347,82.324995 399.383866,80.925009 397.833858,79.125 C396.283851,77.324991 395.121362,75.1750125 394.346358,72.675 C393.571355,70.1749875 393.133859,67.4500148 393.033858,64.5 C393.033858,61.5499852 393.483854,58.8500123 394.383858,56.4 C395.283863,53.9499878 396.54635,51.825009 398.171358,50.025 C399.796367,48.224991 401.721347,46.825005 403.946358,45.825 C406.17137,44.824995 408.608845,44.325 411.258858,44.325 C414.708876,44.325 417.571347,45.0374929 419.846358,46.4625 C422.12137,47.8875071 423.946352,49.699989 425.321358,51.9 C426.696365,54.100011 427.646356,56.499987 428.171358,59.1 C428.696361,61.700013 428.908859,64.1749882 428.808858,66.525 L399.783858,66.525 C399.733858,68.2250085 399.933856,69.8374924 400.383858,71.3625 C400.833861,72.8875076 401.558853,74.2374941 402.558858,75.4125 C403.558863,76.5875059 404.833851,77.5249965 406.383858,78.225 C407.933866,78.9250035 409.758848,79.275 411.858858,79.275 C414.558872,79.275 416.77135,78.6500062 418.496358,77.4 C420.221367,76.1499937 421.358856,74.2500127 421.908858,71.7 L428.208858,71.7 Z M432.247466,45.225 L432.247466,84 L438.622466,84 L438.622466,62.1 C438.622466,60.3499913 438.859963,58.7375074 439.334966,57.2625 C439.809968,55.7874926 440.522461,54.5000055 441.472466,53.4 C442.422471,52.2999945 443.609959,51.450003 445.034966,50.85 C446.459973,50.249997 448.147456,49.95 450.097466,49.95 C452.547478,49.95 454.472459,50.649993 455.872466,52.05 C457.272473,53.450007 457.972466,55.349988 457.972466,57.75 L457.972466,84 L464.347466,84 L464.347466,58.5 C464.347466,56.3999895 464.134968,54.4875086 463.709966,52.7625 C463.284964,51.0374914 462.547471,49.5500063 461.497466,48.3 C460.447461,47.0499937 459.072474,46.0750035 457.372466,45.375 C455.672457,44.6749965 453.547479,44.325 450.997466,44.325 C445.247437,44.325 441.047479,46.6749765 438.397466,51.375 L438.247466,51.375 L438.247466,45.225 L432.247466,45.225 Z" id="TrustToken" fill="#FFFFFF"></path>
        </g>
    </g>
</svg>