<svg xmlns="http://www.w3.org/2000/svg" width="304" height="301" viewBox="0 0 304 301">
  <g fill="none" fill-rule="evenodd" stroke="#FFF" stroke-width="3" transform="translate(2 2)">
    <path d="M31.6305974,13.8289118 L74.8591334,3.1802251 C80.9653455,1.67624444 87.4214306,2.7411131 92.720991,6.1270023 L143.882191,38.8136773 C151.287616,43.5449544 160.743023,43.636841 168.239009,39.050462 L226.542125,3.37680944 C233.583761,-0.931921761 242.396851,-1.13049404 249.626235,2.85707578 L288.123313,24.0926024 C295.449884,28.1340672 300,35.8397317 300,44.2071565 L300,174.804762 C300,181.574773 297.01371,188.000209 291.838505,192.364824 L174.551301,291.283635 C170.407603,294.777977 165.161937,296.695226 159.741335,296.695226 L117.496596,296.695226 C109.745274,296.695226 102.516552,292.785628 98.2732375,286.298344 L3.74810219,141.80576 C0.652697725,137.074042 -0.588865605,131.367132 0.261078478,125.777289 L14.4143703,32.6811293 C15.8112119,23.4929097 22.6065679,16.0516401 31.6305974,13.8289118 Z"/>
    <path d="M37.6898709,32.803999 L74.6533504,23.70127 C80.7552294,22.1986162 87.2060017,23.2626002 92.5025554,26.6456144 L137.043644,55.0946522 C144.444599,59.8219485 153.892541,59.9136142 161.383811,55.3312158 L212.107819,24.3042753 C219.145306,19.9990827 227.95155,19.8007315 235.174524,23.784763 L267.926332,41.8455441 C275.253091,45.8861211 279.804162,53.5931028 279.804162,61.9625068 L279.804162,178.161181 C279.804162,184.933394 276.816487,191.360591 271.6405,195.724759 L166.575475,284.311314 C162.433803,287.803444 157.19135,289.718482 151.77445,289.718482 L115.361913,289.718482 C107.614715,289.718482 100.389752,285.811096 96.1469448,279.328238 L11.4614852,149.910936 C8.36428424,145.177897 7.12195908,139.468122 7.97233132,133.875635 L20.4757401,51.6548716 C21.8730798,42.4666616 28.6676666,35.0258415 37.6898709,32.803999 Z"/>
    <path d="M46.3427931,51.4349126 L77.1144891,43.8592955 C83.2170317,42.3569291 89.6688589,43.4207467 94.9655303,46.8026713 L132.958274,71.0616847 C140.359484,75.7875066 149.808931,75.8791009 157.300663,71.298064 L200.524725,44.8661702 C207.563403,40.5623439 216.370582,40.3641472 223.594721,44.3470625 L250.671994,59.2736149 C257.997695,63.3117074 262.5459,71.0118044 262.5459,79.3735871 L262.5459,181.394575 C262.5459,188.16019 259.558656,194.581719 254.385626,198.94293 L161.379696,277.336574 C157.23818,280.825984 151.995381,282.741738 146.577939,282.741738 L115.935624,282.741738 C108.188221,282.741738 100.96342,278.837395 96.7214464,272.355171 L21.7405382,157.806076 C18.6455511,153.077605 17.403847,147.374042 18.2536548,141.787234 L29.1326956,70.271767 C30.5293918,61.0907124 37.3223343,53.6554663 46.3427931,51.4349126 Z"/>
    <path d="M54.9590409,68.1759043 L79.3635037,62.1704484 C85.4690367,60.6679811 91.9241956,61.7317782 97.2231374,65.1138191 L128.485834,85.0671318 C135.890261,89.7932067 145.344296,89.8847802 152.839277,85.3036782 L188.357118,63.5934784 C195.398667,59.2893035 204.210433,59.0911517 211.439275,63.0742677 L232.677447,74.7782429 C240.003469,78.8154204 244.553244,86.5135516 244.553244,94.8727774 L244.553244,182.322596 C244.553244,189.086236 241.567178,195.504986 236.392361,199.865208 L155.774324,267.788468 C151.631157,271.279294 146.385885,273.194614 140.966132,273.194614 L116.255111,273.194614 C108.504592,273.194614 101.276854,269.28895 97.033637,262.810401 L32.0224326,163.532597 C28.9268187,158.805419 27.6853486,153.103811 28.5352289,147.519151 L37.7436642,87.0089311 C39.1406218,77.8299572 45.9356886,70.396396 54.9590409,68.1759043 Z"/>
    <path d="M64.1924412,85.8965808 L81.8360109,81.5575569 C87.9378467,80.056817 94.3887562,81.1195746 99.6849182,84.497728 L123.801477,99.8809184 C131.202238,104.601468 140.650192,104.69321 148.141257,100.117111 L175.476978,83.4182097 C182.514755,79.1191027 191.320422,78.9210624 198.544328,82.8995117 L213.584748,91.1821404 C220.91066,95.2166056 225.458996,102.911288 225.458996,111.267135 L225.458996,183.197675 C225.458996,189.958833 222.473875,196.375516 217.296279,200.733286 L149.86543,257.514403 C145.724015,261.001059 140.481727,262.913097 135.065012,262.913097 L116.64977,262.913097 C108.903027,262.913097 101.678458,259.011835 97.4363621,252.53693 L43.0391456,169.518337 C39.9429652,164.793157 38.7010045,159.092991 39.5512784,153.50971 L46.9809633,104.718351 C48.3779207,95.5445409 55.171501,88.1151617 64.1924412,85.8965808 Z"/>
    <path d="M73.4575626,102.95066 L84.5242478,100.224611 C90.6184229,98.7234526 97.0608304,99.7865986 102.350476,103.165805 L119.509793,114.128257 C126.901183,118.850408 136.336977,118.942203 143.818788,114.364585 L163.188133,102.513531 C170.217177,98.2130631 179.011641,98.0149093 186.226819,101.994756 L195.237192,106.96471 C202.556024,111.001266 207.099143,118.7008 207.099143,127.061876 L207.099143,184.019403 C207.099143,190.784877 204.117446,197.206782 198.945788,201.567048 L144.365285,247.596988 C140.228842,251.085643 134.993007,252.998776 129.583167,252.998776 L117.295133,252.998776 C109.557936,252.998776 102.342317,249.095278 98.1048656,242.61887 L54.0518282,175.280996 C50.958317,170.552446 49.7175603,164.848352 50.5668589,159.261209 L56.2649446,121.782775 C57.6605202,112.603488 64.4467492,105.170071 73.4575626,102.95066 Z"/>
    <path d="M82.425061,119.67 L87.0327441,118.53585 C93.1312975,117.034465 99.5787874,118.097551 104.872205,121.47749 L115.207875,128.076482 C122.605064,132.799127 132.047537,132.890936 139.534994,128.312625 L151.09095,121.246643 C158.125077,116.945525 166.925957,116.747561 174.14658,120.72779 L177.23426,122.429788 C184.558174,126.466955 189.106487,134.167655 189.106487,142.530218 L189.106487,184.712476 C189.106487,191.479417 186.120332,197.901632 180.946097,202.262559 L138.921431,237.681849 C134.781866,241.171032 129.542301,243.084455 124.128599,243.084455 L117.855246,243.084455 C110.112211,243.084455 102.891146,239.180366 98.6504971,232.702977 L64.7032369,180.844802 C61.6076119,176.115536 60.3656981,170.410357 61.2158584,164.822368 L65.2194686,138.504968 C66.6160974,129.32429 73.4074475,121.889968 82.425061,119.67 Z"/>
    <path d="M72.2317052,170.890429 L74.6739872,154.82713 C75.9527635,146.416624 82.1678982,139.60605 90.4197741,137.573425 C95.9977248,136.19966 101.894157,137.172725 106.736404,140.266234 L110.730321,142.817828 C118.114912,147.535319 127.53933,147.627109 135.014066,143.053702 L139.970481,140.021313 C146.093488,136.275122 153.75248,136.102574 160.037703,139.569202 C166.417258,143.088124 170.379437,149.802494 170.379437,157.094305 L170.379437,185.754276 C170.379437,192.521824 167.395405,198.945157 162.22542,203.305196 L133.212054,227.773043 C129.078843,231.259308 123.816729,233.170135 118.412456,233.170135 C110.682052,233.170135 103.425515,229.269048 99.190037,222.795185 L75.7173734,186.916438 C72.6231404,182.186591 71.3818326,176.479927 72.2317052,170.890429 Z"/>
    <path d="M81.7789709,176.612749 L83.2087821,167.227827 C84.1415752,161.106083 88.6788544,156.148107 94.7043134,154.667089 C98.7817183,153.664816 103.092598,154.374548 106.631198,156.630601 L108.236778,157.654054 C114.431374,161.60358 122.341433,161.680135 128.611864,157.851729 L130.900623,156.454106 C135.376659,153.721295 140.978282,153.595321 145.573046,156.1245 C150.229494,158.687655 153.121175,163.574592 153.121175,168.881368 L153.121175,186.907947 C153.121175,193.669928 150.131992,200.08708 144.951994,204.446517 L125.985937,220.40832 C122.956294,222.958679 119.120544,224.357405 115.157224,224.357405 C109.489715,224.357405 104.204256,221.504798 101.101652,216.772515 L85.2693728,192.621766 C82.1711907,187.89588 80.9284245,182.195961 81.7789709,176.612749 Z"/>
    <path d="M91.9865697,184.599963 L92.7097963,179.806693 C93.2749477,176.061286 96.0267312,173.027602 99.6811717,172.120665 C102.156654,171.506217 104.773919,171.941184 106.921583,173.323636 L107.894692,173.949828 C111.652607,176.368843 116.453203,176.415818 120.257352,174.070812 L121.643041,173.216612 C124.360479,171.541449 127.762176,171.464338 130.551827,173.014529 C133.375383,174.583775 135.128519,177.573364 135.128519,180.819768 L135.128519,188.34116 C135.128519,194.721624 132.333804,200.77747 127.490058,204.892255 L118.663171,212.392818 C116.825494,213.952758 114.498179,214.810282 112.093148,214.810282 C108.654905,214.810282 105.448491,213.064212 103.567661,210.168131 L94.4893519,196.186283 C92.2677144,192.765716 91.3767257,188.640517 91.9865697,184.599963 Z"/>
    <path d="M99.5948278,193.920738 L99.9139667,191.869403 C100.170211,190.220681 101.41143,188.886657 103.057796,188.490168 C104.165004,188.223582 105.334883,188.412751 106.297189,189.013717 L106.738561,189.28927 C108.428708,190.345117 110.58134,190.365455 112.291933,189.342193 L112.924877,188.963637 C114.140316,188.236703 115.657337,188.203243 116.904557,188.875723 C118.179335,189.563073 118.971848,190.87982 118.971848,192.310068 L118.971848,195.558744 C118.971848,198.340512 117.720184,200.980129 115.553551,202.764659 L111.57876,206.042859 C110.751132,206.725179 109.70593,207.099143 108.626503,207.099143 C107.080146,207.099143 105.637576,206.33372 104.787058,205.063117 L100.720259,198.985654 C99.7210611,197.491985 99.3201373,195.687773 99.5948278,193.920738 Z"/>
  </g>
</svg>
