<?xml version="1.0" encoding="UTF-8"?>
<svg width="216px" height="302px" viewBox="0 0 216 302" version="1.1" xmlns="http://www.w3.org/2000/svg" xmlns:xlink="http://www.w3.org/1999/xlink">
    <!-- Generator: Sketch 57.1 (83088) - https://sketch.com -->
    <title>props-icon-combined</title>
    <desc>Created with Sketch.</desc>
    <defs>
        <linearGradient x1="104.093602%" y1="69.6539799%" x2="95.1663349%" y2="21.4020863%" id="linearGradient-1">
            <stop stop-color="#18D9FF" offset="0%"></stop>
            <stop stop-color="#00AFF0" offset="100%"></stop>
        </linearGradient>
        <linearGradient x1="80.3226285%" y1="106.574545%" x2="112.822563%" y2="26.2706053%" id="linearGradient-2">
            <stop stop-color="#18D9FF" offset="0%"></stop>
            <stop stop-color="#00AFF0" offset="100%"></stop>
        </linearGradient>
        <linearGradient x1="114.533853%" y1="69.7412134%" x2="75.9279096%" y2="-9.03547395%" id="linearGradient-3">
            <stop stop-color="#18D9FF" offset="0%"></stop>
            <stop stop-color="#00AFF0" offset="100%"></stop>
        </linearGradient>
    </defs>
    <g id="Page-1" stroke="none" stroke-width="1" fill="none" fill-rule="evenodd">
        <g id="props-icon-combined">
            <g id="props-icon-1" transform="translate(16.000000, 0.000000)">
                <path d="M1.55236,50.5342 C1.43712,49.6435 1.12328,48.9075 1.00804,48.0167 C-1.44524,29.0548 22.6022,10.2774 54.6681,6.1169 C86.734,1.95641 114.766,13.9765 117.219,32.9385 C117.335,33.8292 117.433,34.5931 117.334,35.5117 C117.449,36.4025 117.763,37.1385 117.878,38.0292 C120.331,56.9912 96.284,75.7685 64.2178,79.929 C32.1519,84.0895 4.11994,72.0695 1.66667,53.1075 C1.55143,52.2168 1.6676,51.4249 1.55236,50.5342 Z" id="Path" fill="#18D9FF"></path>
                <path d="M5.02702,45.9525 C5.12984,46.7472 5.24987,47.675 5.5633,48.4427 L5.5976,48.7078 C5.70042,49.5025 5.60988,50.4576 5.71274,51.2526 C8.1642,70.2009 34.8293,82.5045 64.9686,78.594 C95.1079,74.6834 117.761,55.9808 115.31,37.0325 C115.207,36.2375 115.087,35.3097 114.774,34.5423 L114.739,34.2772 C114.636,33.4822 114.727,32.5271 114.624,31.7324 C112.173,12.7841 86.0303,2.86534 55.6804,6.8032 C25.5411,10.7137 2.57551,27.0042 5.02702,45.9525 Z M1.50906,51.8949 C1.38154,50.9092 1.27216,50.0638 1.3552,49.0508 C1.22768,48.0651 0.90778,47.2474 0.78026,46.2617 C-2.0257,24.5738 22.5561,5.8682 55.0134,1.65694 C87.4707,-2.55437 116.001,9.2599 118.807,30.9479 C118.935,31.9336 119.044,32.7786 118.961,33.7916 C119.088,34.7773 119.408,35.5953 119.536,36.581 C122.342,58.269 98.293,79.432 65.6243,83.6707 C33.1669,87.882 4.31501,73.5828 1.50906,51.8949 Z" id="Shape" fill="url(#linearGradient-1)"></path>
                <path d="M55.5129,5.5164 C85.0966,1.678 110.784,11.7419 112.886,27.9946 C114.989,44.2474 92.7114,60.5347 63.1277,64.3731 C33.544,68.2116 7.8569,58.1477 5.75418,41.8949 C3.65141,25.6421 25.9292,9.3549 55.5129,5.5164 Z" id="Path" fill="#FFFFFF"></path>
                <path d="M40.717,38.8201 L38.8796,24.6184 L68.0999,20.8271 L66.7556,10.4369 C63.6394,10.5222 60.4231,10.7659 57.14,11.1919 C33.0881,14.3126 14.7395,25.7208 16.1565,36.6732 C17.1564,44.4017 27.7372,49.8322 42.3273,51.2661 L41.1971,42.5306 L40.717,38.8201 Z M75.1906,9.94 L76.3208,18.6758 L76.6023,20.8508 L78.6383,36.5877 L49.418,40.379 L50.7624,50.7696 C53.8786,50.684 57.0949,50.4403 60.378,50.0143 C84.4298,46.8936 102.778,35.4854 101.361,24.533 C100.362,16.8047 89.7808,11.3742 75.1906,9.94 Z M67.848,33.7841 L48.8829,36.2448 L47.7733,27.6682 L66.7383,25.2075 L67.848,33.7841 Z" id="Shape" fill="#24D2FD"></path>
            </g>
            <g id="props-icon-2" transform="translate(140.000000, 125.000000)">
                <path d="M3.4549,21.689 C3.7329,20.9513 3.8445,20.2706 4.1225,19.5329 C10.0409,3.8274 30.2064,-3.1224 49.1201,4.0253 C68.0339,11.1731 78.5869,29.7317 72.6685,45.4372 C72.3905,46.175 72.152,46.8077 71.7472,47.4975 C71.4692,48.2353 71.3576,48.916 71.0796,49.6537 C65.1612,65.3592 44.9957,72.309 26.082,65.1613 C7.1683,58.0135 -3.3848,39.4549 2.5336,23.7494 C2.8116,23.0116 3.1769,22.4268 3.4549,21.689 Z" id="Path" fill="#18D9FF"></path>
                <path d="M49.2542,5.303 C31.4768,-1.41533 12.2029,5.6369 6.4231,20.9747 C6.1807,21.6179 5.8977,22.3689 5.7794,23.0594 L5.7391,23.1666 L5.6986,23.274 C5.4562,23.9173 5.049,24.6213 4.8065,25.2649 C-0.9733,40.6026 8.8428,58.6484 26.6201,65.3667 C44.3974,72.0849 63.6713,65.0327 69.4511,49.6949 C69.6936,49.0514 69.9766,48.3004 70.0948,47.6102 L70.1353,47.5028 L70.1757,47.3956 C70.4182,46.7521 70.8254,46.048 71.0678,45.4048 C76.8476,30.067 67.1557,12.0682 49.2542,5.303 Z M25.8087,67.5084 C6.6641,60.2734 -3.9071,40.8395 2.3172,24.3222 C2.6001,23.5715 2.8427,22.9276 3.2498,22.2239 C3.5327,21.4732 3.651,20.7827 3.9339,20.032 C10.1582,3.5146 30.9148,-4.08043 50.0594,3.1546 C69.2039,10.3896 79.775,29.8237 73.5507,46.3411 C73.2678,47.0918 73.0253,47.7354 72.6182,48.4391 C72.3353,49.1898 72.2169,49.8806 71.934,50.6313 C65.7097,67.1487 45.0778,74.7905 25.8087,67.5084 Z" id="Shape" fill="url(#linearGradient-2)"></path>
                <path d="M49.2511,5.2998 C66.7007,11.8943 76.5035,28.765 71.1462,42.9816 C65.7889,57.1982 47.3002,63.3772 29.8506,56.7827 C12.401,50.1883 2.5982,33.3176 7.9555,19.101 C13.3128,4.8844 31.8015,-1.2946 49.2511,5.2998 Z" id="Path" fill="#FFFFFF"></path>
                <path d="M26.7554,31.4032 L31.9608,17.5897 L49.196,24.1032 L53.0044,13.9969 C51.3053,13.0061 49.4838,12.128 47.5473,11.3962 C33.3606,6.0349 18.6061,10.3245 14.5916,20.9776 C11.7589,28.4949 15.0367,37.1686 22.1935,43.5092 L25.3953,35.0124 L26.7554,31.4032 Z M57.7208,16.4331 L54.5189,24.9301 L53.7216,27.0457 L47.9535,42.3525 L30.7183,35.8391 L26.9098,45.9456 C28.609,46.9361 30.4305,47.8142 32.367,48.546 C46.5537,53.9073 61.3082,49.6177 65.3227,38.9646 C68.1553,31.4476 64.8775,22.7739 57.7208,16.4331 Z M43.4173,36.0428 L32.231,31.8153 L35.3746,23.4731 L46.5609,27.7005 L43.4173,36.0428 Z" id="Shape" fill="#24D2FD"></path>
            </g>
            <g id="props-icon-3" transform="translate(0.000000, 241.000000)">
                <path d="M3.1998,42.93 C2.9178,42.317 2.5706,41.8398 2.2885,41.2268 C-3.7148,28.1763 4.1726,11.6904 19.889,4.4401 C35.6053,-2.81032 53.2432,1.8999 59.2466,14.9504 C59.5286,15.5634 59.7705,16.0892 59.9471,16.7509 C60.2291,17.3639 60.5764,17.8411 60.8584,18.4541 C66.8617,31.5046 58.9743,47.9904 43.258,55.2408 C27.5417,62.4912 9.9037,57.7809 3.9003,44.7305 C3.6183,44.1174 3.4818,43.543 3.1998,42.93 Z" id="Path" fill="#18D9FF"></path>
                <path d="M20.7439,5.126 C5.9719,11.9407 -1.3174,27.944 4.5454,40.6889 C4.7912,41.2234 5.0783,41.8474 5.4275,42.3346 L5.4685,42.4236 L5.5095,42.5129 C5.7554,43.0474 5.9393,43.7191 6.1853,44.2538 C12.0481,56.9987 28.931,61.8506 43.703,55.0358 C58.4751,48.221 65.7644,32.2178 59.9016,19.4729 C59.6556,18.9381 59.3685,18.3141 59.0194,17.8272 L58.9784,17.7379 L58.9374,17.6489 C58.6914,17.1141 58.5076,16.4425 58.2617,15.908 C52.3989,3.1631 35.6191,-1.73644 20.7439,5.126 Z M44.5233,56.8181 C28.6151,64.157 10.4335,58.9319 4.1198,45.2068 C3.8328,44.583 3.5867,44.048 3.403,43.3766 C3.116,42.7529 2.7668,42.2657 2.4799,41.6419 C-3.8338,27.9168 4.0161,10.6823 19.9242,3.3434 C35.8324,-3.99548 54.0141,1.2299 60.3278,14.955 C60.6148,15.5788 60.8608,16.1135 61.0445,16.7849 C61.3315,17.4087 61.6808,17.8961 61.9677,18.5199 C68.2815,32.245 60.5349,49.4315 44.5233,56.8181 Z" id="Shape" fill="url(#linearGradient-3)"></path>
                <path d="M20.7441,5.126 C35.2438,-1.56318 51.4036,2.5908 56.8378,14.404 C62.272,26.2172 54.923,41.2164 40.4233,47.9056 C25.9236,54.5947 9.7638,50.4408 4.3296,38.6275 C-1.1047,26.8143 6.2444,11.8151 20.7441,5.126 Z" id="Path" fill="#FFFFFF"></path>
                <path d="M23.1132,34.5439 L17.833,23.0656 L32.1546,16.4586 L28.2915,8.0608 C26.6674,8.5027 25.0384,9.0869 23.4292,9.8293 C11.6408,15.2676 5.3857,26.852 9.4578,35.7042 C12.3312,41.9506 19.5805,45.1619 27.7406,44.6033 L24.4927,37.5429 L23.1132,34.5439 Z M32.607,6.6459 L35.8549,13.7065 L36.6636,15.4645 L42.5146,28.1836 L28.193,34.7906 L32.0562,43.1886 C33.6802,42.7465 35.3092,42.1623 36.9184,41.42 C48.7067,35.9816 54.9619,24.3972 50.8898,15.545 C48.0164,9.2988 40.7671,6.0875 32.607,6.6459 Z M35.9507,27.1609 L26.6555,31.449 L23.4667,24.5172 L32.762,20.229 L35.9507,27.1609 Z" id="Shape" fill="#24D2FD"></path>
            </g>
        </g>
    </g>
</svg>