<?xml version="1.0" encoding="UTF-8"?>
<svg width="579px" height="374px" viewBox="0 0 579 374" version="1.1" xmlns="http://www.w3.org/2000/svg" xmlns:xlink="http://www.w3.org/1999/xlink">
    <!-- Generator: Sketch 53 (72520) - https://sketchapp.com -->
    <title>coinmark</title>
    <desc>Created with Sketch.</desc>
    <g id="Page-1" stroke="none" stroke-width="1" fill="none" fill-rule="evenodd">
        <g id="coinmark" fill="#1E65F3" fill-rule="nonzero">
            <g id="Vector">
                <g id="path8_fill-link">
                    <path d="M442.752,0.195422 L394.487,23.0953 C394.242,23.2111 394.022,23.3741 393.839,23.5751 C393.657,23.7762 393.516,24.0112 393.424,24.2668 C393.333,24.5223 393.293,24.7935 393.306,25.0646 C393.32,25.3357 393.387,25.6014 393.503,25.8467 L466.908,180.584 C494.183,238.148 486.878,281.814 445.408,301.547 C411.848,317.474 382.878,306.362 360.275,267.559 L273.363,84.3358 C238.119,10.0622 190.115,-9.62392 133.17,17.3911 C96.1237,34.9663 74.6358,66.3811 75.0627,106.251 C75.071,106.722 74.9178,107.182 74.6285,107.554 C74.3393,107.926 73.9315,108.188 73.4729,108.296 C73.0143,108.404 72.5326,108.352 72.1077,108.148 C71.6829,107.945 71.3405,107.602 71.1375,107.176 L52.1637,67.1993 C52.0481,66.9538 51.885,66.7336 51.6837,66.5515 C51.4824,66.3694 51.247,66.2291 50.9911,66.1387 C50.7352,66.0482 50.4639,66.0095 50.193,66.0246 C49.922,66.0397 49.6567,66.1085 49.4125,66.2269 L1.15964,89.0557 C0.675792,89.2893 0.302886,89.7033 0.121057,90.2089 C-0.0607726,90.7145 -0.0370132,91.2713 0.187229,91.7596 L133.478,372.82 C133.715,373.314 134.136,373.694 134.651,373.879 C135.167,374.063 135.734,374.036 136.23,373.805 L184.494,350.905 C184.74,350.789 184.96,350.626 185.143,350.425 C185.325,350.224 185.466,349.989 185.557,349.733 C185.649,349.478 185.689,349.207 185.675,348.935 C185.662,348.664 185.595,348.399 185.479,348.153 L114.125,197.744 C85.0596,136.456 90.5739,92.139 135.139,70.9943 C169.339,54.771 195.926,65.6814 219.798,107.248 C219.83,107.296 219.858,107.348 219.881,107.402 L305.939,288.846 C339.143,358.815 390.716,382.841 445.183,357 C487.281,337.03 504.737,306.967 503.717,267.428 C503.706,266.956 503.857,266.495 504.146,266.12 C504.434,265.746 504.842,265.483 505.301,265.373 C505.761,265.263 506.244,265.314 506.67,265.518 C507.096,265.722 507.439,266.065 507.643,266.492 L526.806,306.896 C526.922,307.141 527.085,307.361 527.286,307.544 C527.487,307.726 527.722,307.867 527.978,307.959 C528.233,308.05 528.504,308.09 528.775,308.077 C529.046,308.063 529.312,307.996 529.557,307.88 L577.822,284.98 C578.068,284.864 578.288,284.701 578.47,284.5 C578.652,284.299 578.792,284.063 578.883,283.807 C578.973,283.551 579.012,283.28 578.997,283.009 C578.982,282.738 578.913,282.473 578.794,282.229 L445.503,1.17973 C445.267,0.68605 444.845,0.30563 444.33,0.121285 C443.815,-0.0630614 443.248,-0.0364129 442.752,0.195422 Z" id="path8_fill"></path>
                </g>
            </g>
        </g>
    </g>
</svg>