<svg xmlns="http://www.w3.org/2000/svg" xmlns:xlink="http://www.w3.org/1999/xlink" viewBox="0 0 641.94 507.27"><defs><style>.cls-1,.cls-10,.cls-8{fill:none;}.cls-2{clip-path:url(#clip-path);}.cls-3{fill:#feff85;}.cls-4{fill:#fff339;}.cls-5{fill:#ffd93b;}.cls-6{fill:#fff;}.cls-7{fill:#f4c356;}.cls-10,.cls-8,.cls-9{stroke:#000;stroke-width:0.75px;}.cls-8,.cls-9{stroke-miterlimit:10;}.cls-10{stroke-linejoin:round;}</style><clipPath id="clip-path" transform="translate(0 -5.99)"><path class="cls-1" d="M110.36,42.42l80,71.38,21.4,106.87,14.69,54a8.34,8.34,0,0,0-1.54.91l-1.06,6.33a16.46,16.46,0,0,0-3.53,4.28c-1.17,2.59-3.48,9.67-3,15.1a9.67,9.67,0,0,0,3.16,6.19s3.34,4.41,3.43,4.28c0-.93,0-7.21.47-8.11,0,0,3,6.3,4.15,7.83.27.38,5.29,2.43,7.51,3.56-2-2.53-3.15-8-2.81-11.71a14.78,14.78,0,0,0,5.75,8.37c2.66,1.36,8.44,2.39,9.36,2.55-2.43-3.54-7-11.91-5-24.94,0,0,3.6,1.34,3.34,13.07l8.21-13.1-5.49-9.93,4.14-32.57s19.26,17.76,53.45,17.42c42.31-.42,58.18-32.27,58.18-32.27a358.84,358.84,0,0,0,2,53.3s-3.46,5.09-5.86,8.71l1.26,13.48a42.37,42.37,0,0,1,10.18-12.58c1.11,17.68-7.82,24.56-7.17,24.54.92,0,3.14-.36,5.23-.72s3.78-.62,4.23-1a14.55,14.55,0,0,0,6.52-7.86s-.08,7.72-3.81,11.39l7.81-2.88,2.18-3.11-.18,3.72s1.82-1.86,3.61-3.78a26.84,26.84,0,0,0,2.91-3.54c.51-.87,2.86-5.77,2.26-13.41-.18-2.35-.2-3.9-.32-4.21a13.51,13.51,0,0,0-3.19-4.71l-.49-6.45a13,13,0,0,0-3.33-1.95c6.49-19.23,10.95-58.73,10.95-58.73-2.6-8.52,2.77-40.3-2.53-45.27C364,145.62,453.58,1.59,453.58,1.59S161.94-12.37,110.36,42.42Z"/></clipPath></defs><title>Asset 4</title><g id="Layer_2" data-name="Layer 2"><g id="Layer_1-2" data-name="Layer 1"><g class="cls-2"><path class="cls-3" d="M251,279.49S225.45,295,212.93,312s-17.12,24.78-24.81,47.39-6.27,45.4-5.5,50.68,3.51,31.05,24.58,48.47l-7.57,13.31s-5,8.91,3.9,14.92c0,0,9.51,4.32,13.91-3.89l6-11.27s4.41,2.93,5.81,3.69l.42.26-5,10.26s-4.44,14.11,8.86,19.72c0,0,13.23,5.61,19.77-9.7.28-.65,2.45-8.66,2.45-8.66s20,7.43,47.39,6.4l1.06,7.27s2.32,13.73,18.28,11.55c0,0,12.59-3.38,11.41-17.93,0,0-1.45-3.34-1.29-3.94s7-2.15,7-2.15l2.73,6.54s4.31,8.37,12.7,5,6.58-12.25,6.58-12.25l-2.19-6.32s8.29-4.26,12.53-7.47,15.52-10.35,20.87-29.21c0,0,6.13-20.28,4.24-39.34,0,0,1.71-39.66-28.66-86.28l-3.09-4.48s-29.08-45.3-72-45.82C293.3,268.75,276.18,266.27,251,279.49Z" transform="translate(0 -5.99)"/><path class="cls-4" d="M160.19,408.92s-10.8,15.79-1.24,28.65c0,0-.2-7.64,4.05-13l1,16.67L173.43,426s.09,8.58-3.65,14.62c0,0,9.12-.72,13.2-14.91l3.67,1.71s-5.42-11.57-4.35-35.66,11-50.21,19.27-62.91c0,0,8.83-15.57,17.65-24.07l4.58,6,.51-8.82a64.13,64.13,0,0,0,4.63,9.11s6.64,3.47,6.36,3-3.05-4.71-2-13.3a14.13,14.13,0,0,0,5.81,10.32s1.79,1.59,8.76,2.53c0,0-7.3-8.63-4.61-25,0,0,3.83,1,3.93,12.42l7.49-11.93-5-8.94s21.05-12.6,45.87-11.52,48,16.36,69,44.52l3.14,3.87-1.27,1.75,2.27-.13a217.3,217.3,0,0,1,15.6,29.62c7.34,17,15.4,45.54,12.55,75.7,0,0-2,29.92-17.24,43.8l-6.3,5.07,6.21-3.7s18-11.8,26.64-32c0,0,9.83,4.53,14.73,3.85.69-.1,4.8-1.47,4.8-1.47s.64,14.68,7.76,19.68c0,0-.22-10.85,1.72-18.55L440,459.56l6-18.48a53.4,53.4,0,0,1,2.3,17.63s4.67-3.31,6.92-12.94-4.68-20.62-5.41-20.92l2.38-2.63L450,415.65l12.26-19.18-8-27.68s-2-10.23-4.63-14.22c0,0,3.45-2.39,8.18-10.35s15.59-25.35,19.14-52.35-2.63-55.94-10.52-75.27A223.64,223.64,0,0,0,447.33,179a38.63,38.63,0,0,0-8.67-21.17,18.78,18.78,0,0,0-4.1-11.81s-1.95-11.21,5.61-20.35a52.69,52.69,0,0,1,30.67-17.65c11.3-1.89,17.63-2.88,17.63-2.88s7.61.59,10.12,6.54a8,8,0,0,0-1.81-6.4l1.09-1.35a13.06,13.06,0,0,1,4.37,4s-.51-10.77-12.13-10.07l-22.4,3.36s-.86,2.77-2,2.85-15.7.39-28.63,7.28-16.16,12.35-16.16,12.35l-1.92-3,.67-2.28-.46-1.89-3.83,5,.57,6.71a26.9,26.9,0,0,0-5.31,10.09l-2.72-2.57-.08,5.8,2.31,5.67S410.7,157.45,412,161l-2.64.27,1.53,3.79,3.12,3.61,2.37,11.4-3.09,1.12,1.21,4.08,2.86,3.57a76.57,76.57,0,0,1,0,11.35l-.91,5.74-3.33-5.71-2.39,8.05-.62,14.28a20.78,20.78,0,0,1-11.35,8.83l.93-9.3-6.51-8.35-15.05-42.86-13.51-11.43-1.24-9.95,3.34-1.83L364,145.62l-18.62-2.19-3.95-2.88-7-16.3,1.7-9.3,5.1.23-1.59-4.84-12.93-3.87L321.82,95l3.43-4.89s8.22-7.32,23.05-3.37c0,0,6.86-24.12,31.6-17.24,0,0-12.7-14.92,8.6-29.48,0,0-3.28-30.51,37.43-26.46L407.26,6.21l-37,1.49S357.94,16.17,353,19.81s-21.32,16.08-21.32,16.08.87-3.49-2.08-3.95l.62-13.87-5.28,13s-3.1-.71-3.58,3.38-2,19.32-2,19.32L325,80.48l-5.38,8.69L314.14,77l-11.33-9.86,3-17.87,7.82-6.8-4.4-1.32L296,45.88l-9.63,10.78-17.23-2.49L267.43,45l8.15-18.27-3.94-.17-16,17.73-1,14.12-10.36,14.8-5-13.71v6.27l1.11,12.55s-1.82,3.62-3.18,6.63l-4.69-4.29-.25-24.11-5.52-17.6s-.79-2.8-3.49-1.94l-6.73-10.11,3,11.61a2.43,2.43,0,0,0-1,3.8L180.64,23.92l-31.43,4.74s-14.89,10-14.67,10,13.2-6.29,25.28-.46c0,0,8.92,3.74,11.54,17,0,0,19.63,7.64,12.66,24.65,0,0,17.79-11.14,30,9.65,0,0,13.19-6.48,20.94.4L234.11,92l-1.54,27.25-13.71-2.15-18.15-24.2L211,130.57l20.28,5.93-.91,20.91-34-5.27L226.6,175l-14.33,45.47,4.13,16.06s-4,20.89-8.68,31.6c0,0-6.66,19.23-10.78,25.69,0,0-7.19,14.32-10.95,20.32s-7.64,11.71-12.29,16-12,14.15-12.61,21.47l-10.8,27.93s8.24,14.89,10.3,20.12l-2.54,6.4Z" transform="translate(0 -5.99)"/><path class="cls-5" d="M374,472.34s19.72-8.46,32.16-35.3,9.77-69.79,9.77-69.79-6.9-8.7-18.32,2.36c0,0,7.65-9.32,12.32-32.93L406,326.09s4.31-22.53.69-41.67c0,0-2.84-17.93-13.53-21,0,0-3.24,15.15-4.58,17.51l3.35,2.17.53,6.28s2.5,2.74,2.93,4.13,1.74,14-2.18,18.56-5,5.75-5,5.75l-.12-3.76-2.77,4-6.61,2.45s3.15-3.62,3-12.21c0,0-2.86,8.82-8.74,9.69s-6.7,1-6.7,1,7.78-8.73,6.77-24.51c0,0-4.4.3-10.25,11.81,0,0-1.72-11.49-1.18-12.31l5.86-8.66s-1.64-15.74-1.89-24.79l-12.89-13.85s9-8,14-18.8L364.3,227l-18.64,5.14L343.5,223l-11.11-2.34S321,228.49,319.52,241.4c0,0-3.94-15.76-14-26.43l-27.34-5.75s-6.47,10.54-7.6,27.45c0,0-12.65-26.92-24.49-27,0,0-7.33,1.62-5.35,15.8,0,0,1.36,9.06,5.83,14.48l6.69,6.18L249,278.67l.49,1.66a88.54,88.54,0,0,1,47.3-11.45c27.4,1.19,54.88,24.79,69.57,47.28l.73,1-1.38,2.07,2.64-.25s18.78,27.69,24.42,55.81S403.39,449.82,374,472.34Z" transform="translate(0 -5.99)"/><path class="cls-5" d="M224.15,265.7s-4.87-1.91-8.59.62-7.06,6.52-9,17.69a136.16,136.16,0,0,0-2,19s-9.19,11.34-13.83,22.06c-4,9.36-.14,24.6-.14,24.6s-3.2-5.07-7-3.9c0,0-6.55,24.43-1.54,48.19,0,0,.65-25.83,11.94-50.26,0,0,6.14-14.26,11.59-21.47,4.37-5.77,8.66-12.63,13.41-17.35a11.28,11.28,0,0,1-1.35-7c.45-4.22,2.63-11.87,4.41-13.71a12.21,12.21,0,0,0,2.2-2.75l.95-5.7,1.51-.83Z" transform="translate(0 -5.99)"/><path class="cls-5" d="M223.45,184.31s3-2.49,5.42-.39,2,10.1-2.33,19c0,0-5.71,12.12-12,9.82Z" transform="translate(0 -5.99)"/><path class="cls-5" d="M359,155.51s-4.27,2.44.55,10.45,16.52,13.22,17.06,4Z" transform="translate(0 -5.99)"/><path class="cls-5" d="M410.08,266.08l10,24.47s5.45-3.23,5.27-13S417.34,260.06,410.08,266.08Z" transform="translate(0 -5.99)"/><path class="cls-3" d="M444.08,240.21s-2.36,1.84-1.16,7.86,3.76,10.42,7.53,10.31,2.9-8.77.54-13.72C451,244.66,448.4,238.18,444.08,240.21Z" transform="translate(0 -5.99)"/><path class="cls-5" d="M449.08,183s-3.34,12.72,10.17,19.63l.17.83s-2.36,4.82-.89,9.14,2.35,8.67,11.29,14.82a158.46,158.46,0,0,0-9.2-23.62C455.11,192.9,449.4,183.48,449.08,183Z" transform="translate(0 -5.99)"/><path class="cls-5" d="M449.43,354.73c-1.47-3-5.55-7.07-5.55-7.07-.44-.4-12-8-15.94-17.42-3.52-8.36-6.63-17.69-2.28-31.55,0,0,2.63,3.27,6.6,7.84a100.46,100.46,0,0,1,4.57-28.45c4.67-14.06,12.44-9.45,15.55-5.8a49.61,49.61,0,0,1,11.74,22,245.58,245.58,0,0,1-4.32-29.06c-1.59-17.07-1.8-32,4.57-35.55,0,0,5.6-1.19,8.74,8.58s4.87,24.51,4.77,33.32S478,303.11,467,326.91c0,0-8.62,19.43-17.09,27.84Z" transform="translate(0 -5.99)"/><ellipse class="cls-5" cx="448.07" cy="202.72" rx="2.33" ry="2.98" transform="translate(-42.65 164.19) rotate(-20.55)"/><path class="cls-5" d="M323.94,91.84c-.42.46,6.63-9.46,6.63-9.46L326.76,56s1.69-10.8,2.62-14L370.29,13l36.62-3.78,17.52,4.3s-23.51-3-32,10.7c0,0-4.45,6-4.11,15.88,0,0-17.67,10.94-10.69,26l2.29,3.78s-10.43-3.75-18.33.6-10.17,8.83-13.47,16.37C348.12,86.86,332.93,81.85,323.94,91.84Z" transform="translate(0 -5.99)"/><path class="cls-5" d="M135.47,38l14.24-6.67,31.55-2.68,39.89,18.61L226,59.07l1.76,23.74,6,6.25s-7.49-5.81-20,.54c0,0-9.45-19.48-29.7-10.28,0,0,7.21-14.65-12.89-24.08C171.22,55.24,166.64,28,135.47,38Z" transform="translate(0 -5.99)"/><path class="cls-6" d="M200.67,93.58l18,23.65,18.75,3,25.64,20.56-.35,11.36s-10.21,6.64-10.77,6.29-20.82-21.73-20.82-21.73l-20.28-5.94Z" transform="translate(0 -5.99)"/><polygon class="cls-6" points="276.58 124.18 274.54 114.27 268.69 104.73 269.54 90.06 259.99 70.39 276.75 87.25 281.55 102.85 286.59 106.54 292.24 120.65 276.58 124.18"/><path class="cls-6" d="M292,197.59l2.79,9.43,4-6.34s2.06,7,2.4,6.62l3.85-4.45,1.73,4.69,3-3.35Z" transform="translate(0 -5.99)"/><path class="cls-6" d="M335.12,214.78l6.45-6-.08,8.58Z" transform="translate(0 -5.99)"/><polygon class="cls-6" points="344.16 212.43 350.06 201.31 350.91 215.15 344.16 212.43"/><polygon points="284.74 168.4 304.87 176.52 307.94 170.66 284.74 168.4"/><polygon points="322.35 159.3 316.44 166.85 319.11 169.7 322.35 159.3"/><path class="cls-7" d="M258.53,137.1l-10.77-8.64a23.89,23.89,0,0,1-4.5-4c-.95-1.28-3.56-13-4.38-18.74-1.69-11.79-1.14-19.84-.06-24.14l1.48-3-1.25-12.72.57-4.92,4.44,11.86,10.63-14.88.74-13.54,16-17.73,3.95.17-8.16,18.28,1.67,9.2,17.23,2.5L295.76,46l12.67-4.77,5,1.34-7.81,6.8-3,17.87-5.77-4.68s-4.31-4.67-5-4.67c-3.64,0-8.15-1.49-14,.24,0,0-6.21,2.73-9.13,8.2,0,0-2.8,3.62-4.63,13.8L260,76.38,263.66,84a90.68,90.68,0,0,0,2.5,27.64c2.26,9.25,6.89,18.52,8.58,22.52a5.52,5.52,0,0,1-.14,2l-5.6,4-1.12-2.58Z" transform="translate(0 -5.99)"/><path class="cls-6" d="M216.29,27l3.31,13.53S222,41.8,224.18,39Z" transform="translate(0 -5.99)"/><path class="cls-6" d="M323.85,33.32,330,18.23l-.69,15.93S326.76,36.37,323.85,33.32Z" transform="translate(0 -5.99)"/><polygon class="cls-7" points="326.56 100.63 334.28 118.42 335.98 109.12 341.07 109.34 339.49 104.5 326.56 100.63"/><polygon class="cls-7" points="344.63 137.52 364.48 153.65 363.23 143.69 366.58 141.87 363.8 139.79 344.63 137.52"/><path class="cls-7" d="M401.18,243.36s16.76-1.85,23-23.33a73.91,73.91,0,0,0,1.7-24.15c-.62-6.2-.94-9.06-3.86-20.42-2.67-10.41-3.72-15.84-4.68-20.85-1.19-6.26-1.3-12.94,1.67-19.88a33.34,33.34,0,0,1,4.51-8.74c2.58-3.53,2.65-4.4,5.82-7.72s5-5.59,12-8.89c0,0-15.8,6.91-20.65,14.48L419,121.12l.56-2.32-.63-2.29-1.51,2.15-2.21,3.09.57,6.71a28.5,28.5,0,0,0-5.42,9.9l-2.72-2.56,0,6.2,2.48,5.67a114.07,114.07,0,0,0,1.77,13.53l-2.65.27,1.54,3.78,3.11,3.62,2.37,11.4-3.08,1.12,1.2,4.07,2.94,3.93a135.85,135.85,0,0,1-1.06,16.54l-1.58-2.71-1.75-3L410,208.35l-.19,14.2s-3.88,6.84-11.35,8.83l-.65,4.39Z" transform="translate(0 -5.99)"/><circle class="cls-6" cx="27.53" cy="174.86" r="10.6"/><path class="cls-6" d="M6.66,232.93l195.79,8.55s-10-3.22-14.27-7.29-10.48-11.5-10.48-11.5,2-1.31,2.11-5.06-2.34-7.77-8-8a7.39,7.39,0,0,0-6.18,3.55s-7.09-4.62-14.07-2.89-11.28,6-12.43,11.46c0,0-3.14-13.2-15.16-17.29,0,0-6.3-2.85-10.83,4.7,0,0-3.26,7.68.27,13.24,0,0-11.48-23.18-23.11-36.85S69,164.36,59.53,170.3c0,0-6,4.1-3.42,19.47,0,0,2.78,23.36,15.71,34.81l-1.23-.2S46.17,212,27.92,208.78c0,0-24.55-5.17-27.26,6.58C.66,215.36-1.92,221.25,6.66,232.93Z" transform="translate(0 -5.99)"/><path class="cls-6" d="M474.08,354.57s7.72-1,11.44-3.21,19.93-14.19,29.1-11.14c0,0,5,1.08,5.5,8.62L521,348s7.9-14.33,15.55-18.46c0,0,8.13-5.83,14.57-.44a11.84,11.84,0,0,1,3.14,9.3l.5-1.79s2.39-14.39,10.13-22.16,17-8.89,27.33-4.43c0,0,9.72,4.51,9.15,17.55,0,0-.42,7.33-3.8,11.5a15.88,15.88,0,0,0,9.8,11.85c8.77,3.6,14.84,1.57,17.34,1.5s11.88-1.07,16.71,9.48Z" transform="translate(0 -5.99)"/><circle class="cls-6" cx="616.34" cy="331.23" r="7.28"/><circle class="cls-6" cx="521.88" cy="326.21" r="3.69"/><path class="cls-3" d="M278.93,100.29a21.72,21.72,0,0,0-1.18-10.45C275.7,84,271,78.69,272.46,71s5.11-14.45,23.68-8.65l-4.89-4.63-5.86-.8a17.45,17.45,0,0,0-15.56,7.71,36,36,0,0,0-5.74,15.15l12.66,13.46Z" transform="translate(0 -5.99)"/><path class="cls-3" d="M263.6,84.74s-2.09,25.84,11.17,48.77l.07-2.9,1.74-.44-2-9.92-5.85-9.54.85-14.66Z" transform="translate(0 -5.99)"/><path class="cls-3" d="M238.94,81.36,234,92,232.5,119.2l4.93,1,5.83,4.32S234.74,103.75,238.94,81.36Z" transform="translate(0 -5.99)"/><path class="cls-3" d="M408.14,259.77s17.68-5.2,19.54-13.3,1.14-16.24.87-19.89a34.62,34.62,0,0,1,2.56-15.26c2.47-6.14,6.54-8.31,4.38-12.94l-5.81-8.86s-3.43-3.77-3.87-12.32c0,0-.27-2.87,1.2-9.35s0-12.26-2.21-15.58-6.68-6.84-4.71-13.87c0,0,.48-4.59,5.62-8.09,0,0,4.16-2.9,4.76-6.86s.57-8.94,6.89-11.39c0,0-5.05.92-11.72,10.91s-10.51,17.85-8.62,29.47,3.34,17.61,3.34,17.61,5.38,17.93,5.56,25.83,1.45,17.74-2.8,26.55-6.27,15.82-21.34,20.65l-.6.28Z" transform="translate(0 -5.99)"/><path class="cls-3" d="M398.55,236.77l11.29-5.55v-8.67s-4.13,7-11.35,8.83L398,235Z" transform="translate(0 -5.99)"/><path class="cls-3" d="M416.21,205.58a59.76,59.76,0,0,0,.72-16.61l4.08,4.69-1.46,17.53Z" transform="translate(0 -5.99)"/><path class="cls-3" d="M413.82,168.87s2.1,8.85,2.37,11.4l2.68-1.13-1.63-6.94Z" transform="translate(0 -5.99)"/><path class="cls-3" d="M410,148.35s.81,9.91,1.8,12.85l1.64.07-.68-7.83Z" transform="translate(0 -5.99)"/><path class="cls-3" d="M410.56,138.37s1.63-6.19,5.19-9.91l.47,3.49-3.83,8Z" transform="translate(0 -5.99)"/><path d="M223.28,471.68a138.7,138.7,0,0,1-16-13.14l-.45.67-4.08,7.17c2.77-.17,8.28-.06,11.53,2.08,4.9,3.24,6.17,7.54,5.12,10.76Z" transform="translate(0 -5.99)"/><path d="M357.58,482.06c-6.91,3.28-15.48,5.09-18.31,6.29h0l3.81,7.8c.49-2.94,4.2-5.55,9.25-7.23,4.3-1.44,6.31-2.38,9.35-.5l-2.3-7.07Z" transform="translate(0 -5.99)"/><path d="M414.14,407.5a52.39,52.39,0,0,1,2.78,10.12,43.39,43.39,0,0,1-.25,17.51c-.53,2.31-1.23,4.36-2.12,5L406,437.37S411.75,426.18,414.14,407.5Z" transform="translate(0 -5.99)"/><path d="M439.26,436.15,449.67,425c3.88,3.7,5.84,16.51,5.84,16.51l-.37,2.87c-3.94-2.62-13.15-7.06-29-4.91l6.5-3,3.31-1.68Z" transform="translate(0 -5.99)"/><path d="M182.38,425.85,173,420.14l-3.74,1.16L160,409.07c-3.78,5.23-3.61,7.51-3.61,7.51l-.26,1.08c8.29.62,18.61,8.14,21,18.13l.3.4S182.54,429.43,182.38,425.85Z" transform="translate(0 -5.99)"/><polygon points="320.07 446.45 343.44 481.02 332.74 483.94 320.07 446.45"/><path d="M264.64,455.31l.07,8.28a40.3,40.3,0,0,0,11.64,28l.55.56-13.75-2.77-7.71-2.22Z" transform="translate(0 -5.99)"/><polygon points="443.32 390.67 453.98 403.26 450.05 410.49 443.32 390.67"/><path d="M365.58,260.5l0-30.54s-9,20.22-33.39,29.42C344.38,256.53,358.22,256.35,365.58,260.5Z" transform="translate(0 -5.99)"/><path d="M201.44,153.93l48.18,19.16-6.76,2.72,19.54,6.5-7-5.24s6.11-4.28,5.4-4.41C258.36,172.2,201.44,153.93,201.44,153.93Z" transform="translate(0 -5.99)"/><path d="M397.94,235.26l5,12.55a40.2,40.2,0,0,0-8.76,10.11l1.27-6.93a5.78,5.78,0,0,1,.17-.69C395.84,249.67,396.78,243,397.94,235.26Z" transform="translate(0 -5.99)"/><polygon points="409.1 3.81 372.37 9.26 335.55 47.37 337.98 76.13 332.49 80.55 326.1 82.76 330.57 76.39 326.89 50.87 329.92 32.77 330.84 30.77 334.35 27.86 333.69 32.94 370.29 7.06 406.91 3.28 409.1 3.81"/><path d="M153.74,31c.67-.05,28.32,1.24,28.32,1.24S216.33,49.7,216.93,50.4s4.5,10.32,4.5,10.32l2.93,22.06,3.72,4.12s4.52.94,5.12,1.55l-5.45-5.64L226,59.07l-4.84-11.81L181.26,28.65Z" transform="translate(0 -5.99)"/><path d="M287.1,55.73l6.63-.33,2.8,1.53a6.83,6.83,0,0,0,8-1.06h0l-1.9,11.4L291.8,57.9l-5.66-1.08Z" transform="translate(0 -5.99)"/><polygon points="326.56 100.63 335.13 112.44 334.28 118.42 326.56 100.63"/><polygon points="345.19 137.6 364.92 154.36 363.71 145.99 345.19 137.6"/><polygon points="302.87 128.62 300.46 104.64 307.26 128.81 308.83 134.39 305.38 129.55 302.87 128.62"/><path d="M240.26,232.48s12.07,19.45,11,28.43l1.91-14.81L247.72,241Z" transform="translate(0 -5.99)"/><path d="M445.43,323.41s7,15.38,16.17,14.35c0,0-6.29,11.21-11.68,17,0,0-.5.08-.26-1.25C450.68,347.88,450.34,333.64,445.43,323.41Z" transform="translate(0 -5.99)"/><path d="M432.46,340.76s13.41,3.27,17.66,5.44c0,0,.23,5.1-1.34,8.5C448.78,354.7,445.4,345.55,432.46,340.76Z" transform="translate(0 -5.99)"/><path d="M343.5,223c-2.59-.76-68.64-19.29-68.64-19.29l-4.95-6.29-9.11-.88,8.66,11.09Z" transform="translate(0 -5.99)"/><path d="M246.38,185.47c.36-.11,14.56-1.87,14.56-1.87l.13-.38-6.47-.88Z" transform="translate(0 -5.99)"/><path class="cls-8" d="M269.83,163.44c-8.64-1-73.59-11.15-73.59-11.15L231,178.7l30,4.52" transform="translate(0 -5.99)"/><polyline class="cls-8" points="279.83 183.84 282.91 179.29 288.44 180.5"/><path class="cls-8" d="M208.88,421.12s-1.6-9-5.27-8.76a9.32,9.32,0,0,0-3.89,1.07" transform="translate(0 -5.99)"/><path class="cls-8" d="M213.36,417.05s-5.37-5.83-6.53-8.3.12-6.38.12-6.38" transform="translate(0 -5.99)"/><path class="cls-8" d="M194.92,412.48s13.16.06,8.5-23.09" transform="translate(0 -5.99)"/><polyline class="cls-8" points="273.44 183.18 282.27 174.95 299 179.99"/><polyline class="cls-8" points="323.74 164.87 332.21 164.69 336.23 179.2 358.56 198.23 376.34 200.63 378.94 226.44 285.35 188.74 282.91 179.29"/><polygon class="cls-9" points="359.14 205.74 366.78 208.87 368.82 213.82 359.14 205.74"/><polyline class="cls-8" points="364.3 221.05 345.66 226.18 343.5 216.99 269.35 201.39 261 190.81"/><polyline class="cls-8" points="269.89 191.82 241.23 188.54 262.33 181.6"/><polyline class="cls-8" points="256.75 183.43 241.57 180.69 255.52 176.4"/><line class="cls-8" x1="329.94" y1="171.78" x2="336.23" y2="179.2"/><path class="cls-8" d="M276.17,173.13c.86.25,34.3,3.79,34.3,3.79l3.31-11.26-20.41-9.13" transform="translate(0 -5.99)"/><polyline class="cls-8" points="283.91 168.07 305.16 176.54 307.94 170.66"/><polyline class="cls-8" points="316.28 166.97 319.02 169.97 322.34 159.5"/><polyline class="cls-8" points="263.07 134.75 237.43 114.19 218.68 111.25 200.52 87.05 210.85 124.73 231.13 130.67 251.8 152.49"/><polyline class="cls-8" points="258.44 131.04 267.87 131.5 274.18 146 268.4 157.15"/><polyline class="cls-8" points="263.27 133.41 262.72 146.12 248.56 154.38"/><polyline class="cls-8" points="244.98 145.29 242.72 148.97 243.4 153.35"/><polyline class="cls-8" points="315.45 149.98 326.74 150.28 327.84 152.76 315.29 168.2 311.4 168.03"/><polyline class="cls-8" points="269 134.1 275.79 129.26 297.15 126.51 305.4 129.55 318.46 150.12"/><polyline class="cls-8" points="292.24 120.65 286.59 106.54 281.55 102.85 276.75 87.25 259.99 70.39 269.54 90.06 268.69 104.73 274.54 114.27 276.58 124.18"/><polyline class="cls-8" points="274.6 130.1 275 124.52 293.04 120.69 296.81 121.87 301.27 128.03"/><polyline class="cls-8" points="309.12 135.41 297.93 95.66 294.7 121.21"/><polyline class="cls-8" points="196.24 146.3 261.17 166.79 255.41 171.08 262.65 175.99"/><path class="cls-8" d="M285.07,111.41S286.56,91.49,298.62,86" transform="translate(0 -5.99)"/><polyline class="cls-8" points="255.04 109.2 257.49 123.44 242.12 92.88 239.04 59.89 239.3 54.09 248.52 79.87 255.35 60.41"/><polyline class="cls-8" points="254.02 64.2 255.43 38.41 271.45 20.69 275.4 20.86 267.24 39.13 269.57 51.98 276.54 49.53"/><polyline class="cls-8" points="286.14 50.83 295.76 40.05 309.04 35.3 313.43 36.61 305.62 43.42 302.63 61.29"/><path class="cls-8" d="M319.16,89.31l5.74-8.2-5.69-26.84s1.66-18.91,2.19-20.89c0,0,.72-2.72,3.36-2.14" transform="translate(0 -5.99)"/><path class="cls-8" d="M321.64,95.12l8.93-12.74L326.76,56s1.7-12,3.56-17.19" transform="translate(0 -5.99)"/><path class="cls-8" d="M323.84,33.46,330,18.72l-.62,15.52S327.27,36.13,323.84,33.46Z" transform="translate(0 -5.99)"/><path class="cls-8" d="M329.43,32.09a2.75,2.75,0,0,1,2.08,4s23.78-18.52,38.58-28.19l37-1.5,18.32,7.44s-37.15-6.75-37.07,26.34c0,0-20.84,12.89-8.4,29.75,0,0-22.24-9-31.8,17,0,0-16.69-5-24.59,5.57" transform="translate(0 -5.99)"/><polyline class="cls-8" points="425.39 7.82 406.91 3.28 370.29 7.06 329.38 35.98"/><path class="cls-8" d="M329.38,42s20.54,17.89,18.74,44.89" transform="translate(0 -5.99)"/><path class="cls-8" d="M332.51,39.76s27.59-.64,47.41,30.13" transform="translate(0 -5.99)"/><path class="cls-8" d="M337.69,36.19s26.06-9.95,50.63,4" transform="translate(0 -5.99)"/><path class="cls-8" d="M237,85.35l-4.68-4.57L232,56.36s-5-16.28-5.78-17.92c0,0-1.12-2.26-3.23-1.32" transform="translate(0 -5.99)"/><path class="cls-8" d="M234.63,89.53l-6.88-6.72L226,59.07s-3.68-10.18-6.22-14.45" transform="translate(0 -5.99)"/><path class="cls-8" d="M224.22,38.91,216.29,27l3.44,13.48S221.84,41.8,224.22,38.91Z" transform="translate(0 -5.99)"/><path class="cls-8" d="M219.26,38.63s-2.64,1-1,3.8c0,0-23.51-12.31-37.8-18.35L149,28.82l-14,9.5s30-12,36.17,17c0,0,20,7.87,12.67,24.66,0,0,17-11.5,30,9.64,0,0,12.13-6.55,20.75,0" transform="translate(0 -5.99)"/><polyline class="cls-8" points="135 32.34 149.72 25.34 181.26 22.66 221.15 41.27"/><path class="cls-8" d="M221.15,47.26s-13.94,19-7.34,42.34" transform="translate(0 -5.99)"/><path class="cls-8" d="M218.1,45.84S194.74,49.79,183.84,80" transform="translate(0 -5.99)"/><path class="cls-8" d="M213.07,43.56s-23.82-4.44-41.9,11.74" transform="translate(0 -5.99)"/><line class="cls-8" x1="231.13" y1="130.67" x2="230.26" y2="151.13"/><path class="cls-8" d="M240.28,79.09a80.71,80.71,0,0,0-6.35,13l-1.54,27.24" transform="translate(0 -5.99)"/><path class="cls-8" d="M254.71,57.67s-6.09,8.6-10.67,15.66" transform="translate(0 -5.99)"/><path class="cls-8" d="M268.91,54.32l23,3.6L314,77.13s27.87,65.36,31.42,72.92" transform="translate(0 -5.99)"/><path class="cls-8" d="M368.21,183.42c7.85,10.23,31.33,38.85,31.33,38.85s-3.8,36.35-11,58.62" transform="translate(0 -5.99)"/><path class="cls-8" d="M226.41,175.19l-14.33,45.48s7,28.13,14.62,53.78" transform="translate(0 -5.99)"/><path class="cls-8" d="M369.64,282.05,361.59,294l1.18,12.31s5.41-10.31,9.75-11.83" transform="translate(0 -5.99)"/><path class="cls-8" d="M372.65,291.46s3.09,15.37-6.4,27.5c0,0,6.71-.74,8.11-1.36s8.44-3.91,8.48-17.87" transform="translate(0 -5.99)"/><path class="cls-8" d="M382,307.1s.19,9.07-3.27,13.4l6.61-2.45a62.36,62.36,0,0,0,5.4-8.67s1.46-3.18,1.15-9.59" transform="translate(0 -5.99)"/><path class="cls-8" d="M388.07,314l-.18,4.07s2.26-2.26,5.08-5.56c4.53-5.31,2.68-18.42,2.68-18.42s-2.19-6.62-12.1-10.09" transform="translate(0 -5.99)"/><path class="cls-8" d="M392.45,289.43,392,283s-5.7-4.71-12.49-2.25" transform="translate(0 -5.99)"/><path class="cls-8" d="M247.49,276.72l7,12.56L247,301.21s.27-10.54-3.93-12.43" transform="translate(0 -5.99)"/><path class="cls-8" d="M243.67,285.83s-4.42,15,4,27.95c0,0-6.45-1.26-8-2.06-1.26-.66-8.07-4.63-6.89-18.54" transform="translate(0 -5.99)"/><path class="cls-8" d="M233,300.6s-1,9,2.09,13.63l-6.37-3a61,61,0,0,1-4.62-9.1s-1.18-3.29-.32-9.66" transform="translate(0 -5.99)"/><path class="cls-8" d="M224.13,302.11l-.52,8.81s-2.06-2.45-4.57-6c-4-5.69,1.48-18.48,1.48-18.48s2.76-6.4,12.93-9" transform="translate(0 -5.99)"/><path class="cls-8" d="M224.12,282.08l1-6.34s6.09-4.19,12.64-1.16" transform="translate(0 -5.99)"/><polyline class="cls-8" points="210.85 124.73 212 114.97 216.53 112.71"/><polyline class="cls-8" points="237.43 114.19 227.16 120.3 226.76 129.39"/><polyline class="cls-8" points="229.16 128.44 229.34 122.49 233.82 118.84"/><polyline class="cls-8" points="259.96 132.26 259.64 142.16 253.91 145.68"/><polyline class="cls-8" points="241.26 141.36 243.04 131.52 249.2 127.86"/><polyline class="cls-8" points="267.06 84.96 267.53 81.45 270.46 81.34"/><polyline class="cls-8" points="280.31 98.83 275.27 97.38 272.5 100.45"/><polyline class="cls-8" points="269.54 90.06 271.64 86.64 274.91 86.78"/><polyline class="cls-8" points="274.54 114.27 278.06 109.12 281.45 109.27"/><path class="cls-8" d="M290.58,122.5s-6.32,3.68-7.47,3.74-7-.31-7-.31" transform="translate(0 -5.99)"/><polyline class="cls-8" points="341.24 134.72 377.98 165.08 393.27 208.62"/><polyline class="cls-8" points="430.31 417.04 435.5 417.07 436.59 410.03 426.44 407.51 422.25 417.33 428.01 425.1 439.38 430.39 452.05 416.39 443.03 389.81"/><path class="cls-8" d="M436,434.79s-11.82,6.23-15.26,6.42S406,437.37,406,437.37" transform="translate(0 -5.99)"/><path class="cls-8" d="M450.05,416.47c-.17-1.45,12-19.84,12-19.84l-8.72-30.13" transform="translate(0 -5.99)"/><path class="cls-8" d="M422,337.21c13,4.33,34.79,8.55,31.76,45.33" transform="translate(0 -5.99)"/><path class="cls-8" d="M449.67,425s13.47,17.19-1.52,34.43c0,0,.25-12.47-2.3-18.2l-6,18.48L435,440.87s-2.41,12.25-1.72,18.55c0,0-6.41-3.73-7.76-19.67" transform="translate(0 -5.99)"/><polyline class="cls-8" points="183.18 408.63 181.05 411.04 169.26 415.31 157.86 400.26 169.16 374.57"/><polyline class="cls-8" points="179.46 402.8 174.29 402.39 173.82 395.28 181.76 394.02"/><path class="cls-8" d="M172.8,420s9.32,6,13.67,7.56" transform="translate(0 -5.99)"/><path class="cls-8" d="M160.37,400.54c.29-1.43-10.26-20.82-10.26-20.82l11.42-30.25" transform="translate(0 -5.99)"/><path class="cls-8" d="M159.6,366.41c-.91-26.57,13.32-33.49,22-45.43,0,0,25.8-37.65,34.6-84.26" transform="translate(0 -5.99)"/><path class="cls-8" d="M160,409.07s-10.41,15.07-1.24,28.65c0,0,.33-7.76,4.05-13l1,16.68,9.44-15.24a31.16,31.16,0,0,1-3.65,14.63s9-.76,13.19-14.92" transform="translate(0 -5.99)"/><path class="cls-8" d="M449.63,355.08c6.76-7.61,63.22-76.38-5.29-179.51" transform="translate(0 -5.99)"/><path class="cls-8" d="M397.94,235.26l22.14,55.37a136.19,136.19,0,0,0,19.76,24.19c7.68,7.44,12.27,26.95,9.59,39.91" transform="translate(0 -5.99)"/><polyline class="cls-8" points="421.12 187.97 414.31 179.47 413.11 175.4 418.82 173.33 416.62 163.44"/><polyline class="cls-8" points="421.39 118.92 418.84 114.93 419.53 112.82 419.01 110.72 417.39 112.67 415.18 115.77 416.06 126.15"/><polyline class="cls-8" points="412.85 148.21 407.56 135.89 407.73 130 412.13 134.15 417.14 123.95"/><path class="cls-8" d="M470.07,101l-2.54.42s-.73,2.82-3.16,2.92c0,0-27.25.56-43.65,19.56" transform="translate(0 -5.99)"/><path class="cls-8" d="M470.27,108.28c9.12-1.61,18-3,18-3s7.5.49,10.12,6.54a6.74,6.74,0,0,0-1.81-6.4s.51-1.49,1.09-1.35c1.05.27,2.93,2,4.37,4,0,0,.24-11.9-15.49-9.83L470.07,101" transform="translate(0 -5.99)"/><path class="cls-8" d="M470.27,108.28c-2.11.37-1.54.4-3.57.79,0,0-35.71,9.55-32.33,37.14" transform="translate(0 -5.99)"/><path class="cls-8" d="M447.11,179.83s-.52-17.37-13.5-25.93" transform="translate(0 -5.99)"/><path class="cls-8" d="M438.47,158a19.54,19.54,0,0,0-6.5-14.36" transform="translate(0 -5.99)"/><polyline class="cls-8" points="421.4 184.24 419.47 205.57 412.73 194.02 410.04 202.36 409.73 225.2 398.91 230.8"/><polyline class="cls-8" points="417.39 166.6 410.71 159.26 409.17 155.48 413.54 155.28 412.69 146.57"/><path class="cls-8" d="M448.91,106.92s-13.42,4.15-16.91,9.93c-1.93,3.2-.81,7.92-3.5,10.78-4,4.29-7.39,5.47-8.48,11.1-2.21,11.36,9.38,11.83,7.37,26.73-1,7.52-3,10-.05,19.39,2.47,7.83,12.29,13.33,7.35,20.15-12.18,16.78-1.06,33.15-8.85,44.84-2.59,3.9-10.88,7.4-18,10.06" transform="translate(0 -5.99)"/><path class="cls-8" d="M409.85,222.55a20.24,20.24,0,0,1-11.41,8.85" transform="translate(0 -5.99)"/><path class="cls-8" d="M417.13,189a67.67,67.67,0,0,1-.79,16.36c0,.27-.1.55-.16.82" transform="translate(0 -5.99)"/><path class="cls-8" d="M413.78,168.62c.93,3.36,1.67,7.38,2.37,11.42" transform="translate(0 -5.99)"/><path class="cls-8" d="M410,147.46a95.37,95.37,0,0,0,2,13.74" transform="translate(0 -5.99)"/><path class="cls-8" d="M415.75,128.46a25.9,25.9,0,0,0-5.3,10.09" transform="translate(0 -5.99)"/><path class="cls-8" d="M279.13,101c.24-14.73-6.36-19-6.76-25.21C271.25,58,285.07,58.2,297.51,62.82" transform="translate(0 -5.99)"/><path class="cls-8" d="M243.49,125.25C239,111,236,94.69,239.14,81.13" transform="translate(0 -5.99)"/><polyline class="cls-8" points="326.56 100.63 339.49 104.5 341.07 109.34 335.98 109.12 334.28 118.42"/><path class="cls-8" d="M344.63,143.51c.55.12,19.17,2.27,19.17,2.27l3.08,1.94-3.68,1.68,1.28,10.23" transform="translate(0 -5.99)"/><path class="cls-8" d="M365.28,250.51s.43,25.53,2.17,34.78" transform="translate(0 -5.99)"/><line class="cls-8" x1="352.71" y1="240.66" x2="365.58" y2="254.51"/><path class="cls-8" d="M366.63,227.85s-16.75,41.17-71,35.38c-48-5.12-62.6-43.15-62.6-43.15" transform="translate(0 -5.99)"/><line class="cls-8" x1="253.19" y1="240.51" x2="248.98" y2="273.42"/><path class="cls-8" d="M432.11,306.65s2-50.91,19.58-35c4.09,3.68,10.91,13.75,12.67,23.84,0,0-8.87-44-4.11-59.49,2.84-9.27,7.79-8.35,12.45.54" transform="translate(0 -5.99)"/><path class="cls-8" d="M470.24,227.65s-16.92-9.71-10.58-24.83c0,0-13.28-6.21-10.58-19.85" transform="translate(0 -5.99)"/><ellipse class="cls-8" cx="447.89" cy="249.07" rx="4.57" ry="9.79" transform="translate(-54.96 144.19) rotate(-17.95)"/><ellipse class="cls-8" cx="448" cy="202.74" rx="2.42" ry="3.08" transform="matrix(0.95, -0.31, 0.31, 0.95, -40.68, 141.96)"/><path class="cls-8" d="M410.08,266.08a7.94,7.94,0,0,1,5.3-2.12c5.51,0,10,6.37,9.94,14.19,0,5.35-2.13,10-5.23,12.4" transform="translate(0 -5.99)"/><path class="cls-8" d="M376.63,170a4.35,4.35,0,0,1-1.36,3.79c-2.74,2.5-8.65.5-13.2-4.47s-6-11-3.3-13.54c.25-.22,0-.07.25-.22" transform="translate(0 -5.99)"/><path class="cls-8" d="M223.45,184.31c1.69-1.15,3.28-1.56,4.55-1,3.38,1.51,3.17,9.35-.47,17.5s-9.33,13.53-12.72,12c-.3-.14-.05.1-.3-.14" transform="translate(0 -5.99)"/><path class="cls-8" d="M425.66,298.69s-10.25,26.11,14.25,45.88" transform="translate(0 -5.99)"/><path class="cls-8" d="M393.18,263s21.5,4.77,13,63.58" transform="translate(0 -5.99)"/><path class="cls-8" d="M409.89,336.68S406,359.27,397,370.39c0,0,9.92-11.87,18.93-3.14" transform="translate(0 -5.99)"/><path class="cls-8" d="M305.47,215c6.61,8.05,10.75,14.33,13.91,26.08l.14.35c3-16,13.43-20.64,13.43-20.64" transform="translate(0 -5.99)"/><path class="cls-8" d="M246.88,240.3s-9-11.52-5.77-24.49c4.18-16.69,21.07,4.48,25.81,14.24.61,1.27,2.9,5.78,3.49,7.34l.12-.72c1.39-9.92,1.54-16.11,7.6-27.45" transform="translate(0 -5.99)"/><polyline class="cls-8" points="350.91 215.15 350.06 201.31 344.16 212.43"/><polyline class="cls-8" points="341.49 211.36 341.57 202.78 335.12 208.79"/><path class="cls-8" d="M592.27,344.92c14.29-11.88,11.11-33.33-5.29-36.85-29.38-6.31-33,33.2-33,33.2s2.52-14-9-14.45c-13.25-.48-24.87,22.61-24.87,22.61-1.18-18.54-23-5.74-31.17-.11a30.74,30.74,0,0,1-16.82,5.32L641.42,362s-3.57-11.27-17.7-9.54c-24.35,3-26.2-13.44-26.2-13.44" transform="translate(0 -5.99)"/><circle class="cls-8" cx="616.34" cy="331.23" r="7.28"/><circle class="cls-8" cx="521.88" cy="326.21" r="3.69"/><polyline class="cls-8" points="291.92 191.46 294.76 201.03 298.74 194.69 301.14 201.31 305 196.86 306.72 201.56 309.75 198.21"/><path class="cls-8" d="M339.28,488.25l2.56,5.7a10.23,10.23,0,0,0,13.69,5.74h0a11.2,11.2,0,0,0,5.33-14.47l-1.56-4.07" transform="translate(0 -5.99)"/><path class="cls-8" d="M223.46,471.6l-5.74,10.77a10.24,10.24,0,0,1-14.19,4.39h0a11.21,11.21,0,0,1-3.9-14.92l7.57-13.31" transform="translate(0 -5.99)"/><path class="cls-8" d="M303.12,493.57a138.73,138.73,0,0,1-47.68-6.41" transform="translate(0 -5.99)"/><path class="cls-8" d="M368.22,318.84C383,341,393.37,367.89,396.14,393.75c6.3,58.8-18.22,75.44-18.22,75.44a89.64,89.64,0,0,1-18.54,12.16,117.54,117.54,0,0,1-19.82,7c-2.4.6-4.48,1.07-6.82,1.56" transform="translate(0 -5.99)"/><path class="cls-8" d="M249.5,280.33c14.46-8,30.14-12.24,45.86-11.52l.86,0c26.56,1.1,52.29,21.08,71.09,48.64" transform="translate(0 -5.99)"/><path class="cls-8" d="M230,475.75c-23.2-13.65-34.26-30.13-34.26-30.13S173.25,420,185.69,368.28A145.58,145.58,0,0,1,219,304.87" transform="translate(0 -5.99)"/><path class="cls-8" d="M251.76,284.42c13.51-7.69,28.78-11.83,43.42-11.16l.8,0c45.45,1.87,88.21,64.59,94.06,122.19s-17.3,73.93-17.3,73.93c-5.5,4.28-16,11.61-41,18.43" transform="translate(0 -5.99)"/><path class="cls-8" d="M223.86,307.82c.66-.73,1.32-1.45,2-2.16" transform="translate(0 -5.99)"/><path class="cls-8" d="M230.41,474.1C211.16,461.31,201,446.62,201,446.62s-21.21-25-9.4-75.75a145.34,145.34,0,0,1,30.67-61.22" transform="translate(0 -5.99)"/><path class="cls-8" d="M265.19,453.36,253.54,495c-2.38,8.51-10.81,13.42-18.83,11h0c-8-2.45-12.59-11.34-10.21-19.85l20.17-41" transform="translate(0 -5.99)"/><path class="cls-8" d="M298.14,456.37l5.74,42.85C305.05,508,312.72,514,321,512.7h0c8.28-1.31,14.05-9.48,12.87-18.24L319.61,451" transform="translate(0 -5.99)"/><ellipse cx="236.04" cy="500.34" rx="1.12" ry="2.61" transform="translate(-315.07 542.67) rotate(-69.75)"/><ellipse cx="319.66" cy="506.89" rx="2.61" ry="1.12" transform="translate(-100.25 73.36) rotate(-12.25)"/><path class="cls-8" d="M373.13,473s34.76-15.95,40.72-63.62c5.67-45.38.83-63.69-12-93.22" transform="translate(0 -5.99)"/><path class="cls-8" d="M182,395.2s-11.7-55.23,25.8-95.37" transform="translate(0 -5.99)"/><path class="cls-8" d="M204.54,303.47c.85-.58-.84-44.1,19.61-37.77" transform="translate(0 -5.99)"/><path class="cls-8" d="M183.63,345.47c5.39.07,7.45,5.29,7.45,5.29" transform="translate(0 -5.99)"/><path class="cls-8" d="M190.73,325.06c-4.34,8.92.35,25.7.35,25.7" transform="translate(0 -5.99)"/><circle class="cls-10" cx="27.53" cy="174.86" r="10.6"/><circle class="cls-10" cx="172.17" cy="211.31" r="7.65"/><path class="cls-10" d="M177.34,222.27c6.5,7.45,10.87,15.66,26.66,19.27L67.8,235.6l-3.74-.16-57.4-2.51s-20.54-26.58,12.65-25.21c21,.87,53.08,17.56,53.08,17.56a66.86,66.86,0,0,1-6.63-8.05c-6.11-7.91-16.63-41.43-5-47.8,18.37-10,45,38.13,52.8,53.37-3.39-6.62-1.65-14.52,3.38-17.68s10.69.64,15.16,4.56,6.74,9.85,7.62,15.73c-4.28-3,5.86-22.66,25.77-12.57" transform="translate(0 -5.99)"/><path class="cls-8" d="M366.63,438.92s5.25,16.35-13.82,12.32" transform="translate(0 -5.99)"/><path class="cls-8" d="M370.25,452s-12.31.37-8.54,14.38" transform="translate(0 -5.99)"/><path class="cls-8" d="M375.15,429.33s-10.62,17.93.71,22.91" transform="translate(0 -5.99)"/><line class="cls-8" x1="324.07" y1="157.37" x2="323.61" y2="167.81"/><path class="cls-8" d="M464.75,104.26a12.58,12.58,0,0,1,5.65,1" transform="translate(0 -5.99)"/><path class="cls-8" d="M435.44,112.25s-23.54,19.44-18.11,42.06c0,0,1.85,9.77,2.56,13.23s11.68,34.74,3.51,54.9c-7.4,18.25-18.47,19.54-22.22,20.92" transform="translate(0 -5.99)"/><path class="cls-8" d="M264.06,80.48c1.73-12.32,7.47-23,20.67-23.68" transform="translate(0 -5.99)"/><path class="cls-8" d="M274.74,134.1c-3.79-7.81-7.47-16.82-9.15-25A95.83,95.83,0,0,1,263.66,84" transform="translate(0 -5.99)"/></g></g></g></svg>