<svg xmlns="http://www.w3.org/2000/svg" width="304" height="80" viewBox="0 0 304 80">
  <defs>
    <linearGradient id="near_logo-a" x1="4.978%" x2="95.334%" y1="96.644%" y2="3.344%">
      <stop offset="21%" stop-color="#24272A"/>
      <stop offset="42%" stop-color="#24272A" stop-opacity="0"/>
      <stop offset="59%" stop-color="#24272A" stop-opacity="0"/>
      <stop offset="81%" stop-color="#24272A"/>
    </linearGradient>
  </defs>
  <g fill="none">
    <path fill="url(#near_logo-a)" d="M9.14666667,79.9999992 C11.8064151,79.9999992 14.3341326,78.8409079 16.0711111,76.8266667 L16.0711111,76.8266667 L78.6044444,4.28444444 C76.9305079,1.61725798 74.0022927,-0.00131969445 70.8533333,-8.06382963e-07 L70.8533333,-8.06382963e-07 C68.21141,0.000885326663 65.6991703,1.14516995 63.9644444,3.13777778 L1.12888889,75.2533333 C2.73204438,78.1830241 5.80702843,80.0034692 9.14666667,79.9999992 Z"/>
    <path fill="#24272A" d="M9.14666667 80.0000042C10.6041815 80.0014076 12.0404691 79.6507217 13.3333333 78.9777778L13.3333333 18.4177778 61.9111111 76.7111111C63.6526554 78.7938478 66.2273069 79.9981727 68.9422222 80.0000042L70.8533333 80.0000042C73.2791802 80.0000042 75.6056706 79.0363361 77.3210034 77.3210034 79.0363361 75.6056706 80 73.2791802 80 70.8533333L80 9.14666667C80 6.72081984 79.0363361 4.39432938 77.3210034 2.67899664 75.6056706.9636639 73.2791802-.00000922073509 70.8533333-.00000922073509L70.8533333-.00000922073509C69.3978549-.0020634725 67.9627757.342233676 66.6666667 1.00444444L66.6666667 61.5822222 18.0888889 3.28888889C16.3473446 1.20615219 13.7726931.00182725665 11.0577778-.00000922073509L9.14666667-.00000922073509C4.09510215-.00000922073509 0 4.09510215 0 9.14666667L0 70.8533333C0 75.9048978 4.09510215 80.0000042 9.14666667 80.0000042zM152.186667 16.6666667L152.186667 63.3333333C152.181879 63.6995218 151.886189 63.9952126 151.52 64L146.666667 64C144.403075 64.0017633 142.29366 62.8533038 141.066667 60.9511111L119.04 26.9066667 119.795556 43.9111111 119.795556 63.3333333C119.790768 63.6995218 119.495077 63.9952126 119.128889 64L112.711111 64C112.344923 63.9952126 112.049232 63.6995218 112.044444 63.3333333L112.044444 16.6666667C112.049232 16.3004782 112.344923 16.0047874 112.711111 16L117.537778 16C119.798404 16.0012023 121.905256 17.1449219 123.137778 19.04L145.164444 53.0311111 144.48 36.0888889 144.48 16.6666667C144.48 16.2984768 144.778477 16 145.146667 16L151.564444 16C151.913178 16.0276001 152.183154 16.3168599 152.186667 16.6666667L152.186667 16.6666667zM217.777778 64.000106L210.986667 64.000106C210.771361 63.9979631 210.570294 63.8920649 210.446819 63.7156714 210.323343 63.5392779 210.292663 63.3141093 210.364444 63.1111111L228.355556 16.64C228.513259 16.2412901 228.904831 15.9849887 229.333333 16L237.84 16C238.252352 16.0035551 238.621424 16.2566328 238.773333 16.64L256.711111 63.1111111C256.782893 63.3141093 256.752212 63.5392779 256.628737 63.7156714 256.505261 63.8920649 256.304195 63.9979631 256.088889 64.000106L249.297778 64.000106C249.019631 64.0012649 248.76914 63.8319186 248.666667 63.5733333L234.168889 25.3511111C234.073194 25.0874548 233.822708 24.9118941 233.542222 24.9118941 233.261737 24.9118941 233.01125 25.0874548 232.915556 25.3511111L218.417778 63.5733333C218.314139 63.834978 218.059157 64.0049665 217.777778 64.000106zM303.857778 62.9244444L290.364444 45.6888889C297.982222 44.2488889 302.435556 39.1111111 302.435556 31.2266667 302.435556 22.1688889 296.542222 16 286.115556 16L267.297778 16C266.747948 16 266.302222 16.4457254 266.302222 16.9955556L266.302222 16.9955556C266.302222 20.530178 269.1676 23.3955556 272.702222 23.3955556L285.333333 23.3955556C291.635556 23.3955556 294.657778 26.6222222 294.657778 31.28 294.657778 35.9377778 291.706667 39.28 285.333333 39.28L267.297778 39.28C266.746513 39.2848786 266.302222 39.733158 266.302222 40.2844444L266.302222 63.3955556C266.302222 63.7637454 266.600699 64.0622222 266.968889 64.0622222L273.386667 64.0622222C273.752855 64.0574348 274.048546 63.7617441 274.053333 63.3955556L274.053333 46.1066667 281.457778 46.1066667 293.164444 61.3866667C294.435467 63.0441943 296.409053 64.0112513 298.497778 64L303.368889 64C303.616633 63.9862787 303.836259 63.8361055 303.938933 63.6102221 304.041607 63.3843388 304.01034 63.120123 303.857778 62.9244444L303.857778 62.9244444zM197.484444 16L167.706667 16C167.215747 16 166.817778 16.3979691 166.817778 16.8888889L166.817778 16.8888889C166.817778 20.4873309 169.734891 23.4045054 173.333333 23.4045054L197.484444 23.4045054C197.661985 23.4068603 197.832962 23.3373985 197.958513 23.2118467 198.084065 23.0862949 198.153527 22.9153184 198.151172 22.7377778L198.151172 16.6666667C198.151172 16.2984768 197.852634 16 197.484444 16zM197.484444 56.5955556L175.262222 56.5955556C174.896034 56.5907682 174.600343 56.2950774 174.595556 55.9288889L174.595556 43.8933333C174.595556 43.5251435 174.894032 43.2266667 175.262222 43.2266667L195.804444 43.2266667C196.172634 43.2266667 196.471111 42.9281898 196.471111 42.56L196.471111 36.4444444C196.471111 36.0762546 196.172634 35.7777778 195.804444 35.7777778L167.813333 35.7777778C167.262068 35.7826564 166.817778 36.2309357 166.817778 36.7822222L166.817778 62.9688889C166.817778 63.2329266 166.922666 63.4861501 167.109369 63.672853 167.296072 63.8595559 167.549296 63.9644444 167.813333 63.9644444L197.484444 63.9644444C197.852634 63.9644444 198.151111 63.6659676 198.151111 63.2977778L198.151111 57.2266667C198.136691 56.8703686 197.840998 56.5904451 197.484444 56.5955556z"/>
  </g>
</svg>
