<svg width="181" height="33" viewBox="0 0 181 33" fill="none" xmlns="http://www.w3.org/2000/svg">
<g clip-path="url(#clip0)">
<path d="M0.285156 0H13.4814C15.995 0 17.8802 0.62395 19.2766 1.66387C20.8127 2.91177 21.6506 4.71429 21.6506 6.93277C21.6506 9.4979 20.6032 11.0924 18.5086 12.063V12.2017C21.3015 13.1029 22.9073 15.5987 22.9073 18.5798C22.9073 21.4223 21.7902 23.6408 19.9748 25.0273C18.4388 26.1366 16.4838 26.6219 13.8305 26.6219H0.285156V0ZM12.1548 10.3992C13.5513 10.3992 14.5986 9.63656 14.5986 8.04202C14.5986 6.51681 13.5513 5.7542 12.085 5.7542H7.5466V10.3298H12.1548V10.3992ZM12.7832 20.729C14.3891 20.729 15.5761 19.7584 15.5761 18.0252C15.5761 16.1534 14.3193 15.3214 12.7832 15.3214H7.61642V20.7983H12.7832V20.729Z" fill="#7F7B7B"/>
<path d="M24.0938 0H31.0061V26.6912H24.0938V0Z" fill="#7F7B7B"/>
<path d="M32.4023 17.1931C32.4023 11.1616 36.3124 7.14062 42.3868 7.14062C48.4613 7.14062 52.3015 11.231 52.3015 17.1931C52.3015 23.2247 48.4613 27.2457 42.3868 27.2457C36.3124 27.2457 32.4023 23.2247 32.4023 17.1931ZM45.3892 17.1931C45.3892 13.8654 44.3418 11.7856 42.2472 11.7856C40.1525 11.7856 39.175 13.8654 39.175 17.1931C39.175 20.5209 40.1525 22.67 42.2472 22.67C44.3418 22.6007 45.3892 20.5209 45.3892 17.1931Z" fill="#7F7B7B"/>
<path d="M53.0703 17.1931C53.0703 11.1616 56.9803 7.14062 63.0548 7.14062C69.1293 7.14062 72.8996 11.1616 72.8996 17.1931C72.8996 23.2247 69.0595 27.2457 62.985 27.2457C56.9803 27.2457 53.0703 23.2247 53.0703 17.1931ZM66.0571 17.1931C66.0571 13.8654 65.0098 11.7856 62.9151 11.7856C60.8205 11.7856 59.843 13.8654 59.843 17.1931C59.843 20.5209 60.8205 22.67 62.9151 22.67C65.0098 22.6007 66.0571 20.5209 66.0571 17.1931Z" fill="#7F7B7B"/>
<path d="M74.2969 7.62591H80.7205V10.4683H80.8601C82.1169 8.24986 83.8624 7.07129 86.6553 7.07129C89.099 7.07129 90.9144 8.24986 91.8221 10.3297H91.9617C93.4978 7.83389 95.5226 7.07129 97.8966 7.07129C102.365 7.07129 104.25 10.3297 104.25 14.6973V26.6217H97.5475V15.8759C97.5475 13.9347 96.9191 12.6868 95.2433 12.6868C93.5676 12.6868 92.7298 14.212 92.7298 16.2919V26.6217H86.0269V15.8759C86.0269 13.9347 85.3985 12.6868 83.7228 12.6868C82.0471 12.6868 81.2092 14.212 81.2092 16.2919V26.6217H74.2969C74.2969 26.6217 74.2969 7.62591 74.2969 7.62591Z" fill="#7F7B7B"/>
<path d="M112.698 24.1261H112.629V26.6219H106.205V0H112.908V9.56723H113.048C114.304 7.90336 116.05 7.0021 118.494 7.0021C123.311 7.0021 126.104 11.3004 126.104 17.0546C126.104 23.5021 123.102 27.2458 118.075 27.2458C115.98 27.2458 113.816 26.2752 112.698 24.1261ZM119.192 16.9853C119.192 13.9349 118.075 11.9244 116.05 11.9244C113.955 11.9244 112.698 13.9349 112.698 16.9853C112.698 20.0357 114.025 22.0462 116.05 22.0462C118.075 22.0462 119.192 20.105 119.192 16.9853Z" fill="#7F7B7B"/>
<path d="M126.871 17.1238C126.871 11.1616 130.851 7.07129 136.576 7.07129C139.439 7.07129 141.603 7.97255 143.279 9.56709C145.513 11.7162 146.491 15.044 146.421 18.9263H133.574C133.853 21.2835 134.97 22.5314 136.995 22.5314C138.182 22.5314 139.23 21.9768 139.648 20.7289H146.142C145.025 25.0965 141.603 27.2457 136.786 27.2457C130.851 27.1763 126.871 23.1553 126.871 17.1238ZM133.574 15.1133H139.718C139.579 12.8255 138.322 11.6469 136.716 11.6469C134.831 11.5776 133.783 12.8948 133.574 15.1133Z" fill="#7F7B7B"/>
<path d="M154.033 10.8843H154.173C155.569 8.24988 157.384 7.20996 159.688 7.20996C160.247 7.20996 160.596 7.27929 160.806 7.41794V13.2415H160.666C156.686 12.5482 154.382 14.42 154.382 18.7184V26.6911H147.609V7.62593H154.033V10.8843Z" fill="#7F7B7B"/>
<path d="M161.503 26.691H167.997C168.276 27.523 169.114 28.2856 170.72 28.2856C172.884 28.2856 173.652 26.9683 173.652 24.9578V23.5713H173.513C172.465 24.8192 170.999 25.7204 168.905 25.7204C164.785 25.7204 161.154 22.67 161.154 16.7078C161.154 11.2309 164.087 7.00195 168.555 7.00195C171.139 7.00195 172.675 8.04187 173.722 9.63641H173.862V7.55657H180.285V24.0566C180.285 27.107 179.238 29.4641 177.632 30.8507C175.956 32.3066 173.583 32.9305 170.859 32.9305C165.693 32.9999 162.132 30.92 161.503 26.691ZM173.932 16.4305C173.932 14.0734 172.815 12.1322 170.859 12.1322C168.974 12.1322 167.787 13.7961 167.787 16.4305C167.787 18.9957 168.974 20.7982 170.859 20.7982C172.745 20.7982 173.932 18.9263 173.932 16.4305Z" fill="#7F7B7B"/>
</g>
<defs>
<clipPath id="clip0">
<rect width="180" height="33" fill="white" transform="translate(0.285156)"/>
</clipPath>
</defs>
</svg>
