<svg width="326" height="27" viewBox="0 0 326 27" fill="none" xmlns="http://www.w3.org/2000/svg">
<g clip-path="url(#clip0)">
<path d="M323.552 23.2916C322.606 23.2916 321.818 24.0644 321.818 25.1076C321.818 26.1502 322.606 26.923 323.552 26.923C324.497 26.923 325.285 26.1502 325.285 25.1076C325.285 24.0644 324.497 23.2916 323.552 23.2916ZM260.829 26.8066H268.787V26.1117L267.921 25.9184C267.133 25.7251 266.778 25.3004 266.778 24.2183V13.7126H268.63C269.772 13.7126 270.363 13.9829 270.442 16.3394L270.639 21.2833C270.797 25.7251 272.097 26.9615 274.304 26.9615C276.549 26.9615 277.14 25.4548 277.14 23.3306V22.4418H276.312V23.0982C276.312 24.528 276.116 25.5322 275.564 25.5322C275.052 25.5322 275.012 25.146 274.894 23.369L274.658 19.9703C274.343 15.4121 273.752 13.8285 270.324 13.21C273.594 12.3607 275.603 10.0042 275.603 6.64346C275.603 2.2786 272.097 0.192832 268.748 0.192832H255.313V0.888249L256.062 1.04261C257.48 1.35185 257.52 2.08576 257.52 5.21465V20.5878C257.52 24.026 256.534 25.6866 254.288 25.6866C252.28 25.6866 251.176 24.7209 251.176 20.974V2.70373C251.176 1.62213 251.53 1.3134 252.397 1.12006L253.461 0.888249V0.192832H245.227V0.888249L246.093 1.12006C246.881 1.35187 247.157 1.6611 247.157 2.7422V20.7037C247.157 24.7594 249.561 27 253.225 27C256.889 27 258.701 24.7593 258.701 20.5878V3.82382C258.701 1.73805 259.135 1.00414 260.868 1.00414C262.247 1.00414 262.839 1.46776 262.839 2.7422V24.2183C262.839 25.3004 262.484 25.6866 261.696 25.8799L260.829 26.1117V26.8066V26.8066ZM313.702 2.7422C313.702 1.6611 314.057 1.3134 314.844 1.15853L315.908 0.926718V0.192832H307.713V0.888249L308.58 1.12006C309.368 1.35187 309.722 1.6611 309.722 2.7422V24.3737C309.722 25.4163 309.29 25.9958 308.067 25.9958C306.649 25.9958 306.452 25.5322 305.94 23.2536L300.898 0.115895H299.321L294.515 22.5192C293.963 25.0296 293.687 25.6096 292.623 25.9184L291.953 26.1117V26.8066H297.588V26.1117L296.761 25.9569C295.578 25.7251 295.263 25.1076 295.855 22.1715L298.691 7.84095L301.803 23.0213C302.276 25.223 302.237 25.6481 300.543 25.9569L299.716 26.1117V26.8066H320.597V18H319.848C319.454 22.0556 318.627 25.8799 315.278 25.8799H313.702V2.7422V2.7422ZM301.409 19.6221V18.5795H296.09L295.934 19.6221H301.409ZM279.425 3.20582V21.6694C279.425 24.4506 279.425 25.764 278.007 25.9958L277.298 26.1117V26.8066H283.089V26.1117C280.568 25.764 280.568 24.9142 280.568 21.9012V4.36484L279.622 3.51506L289.275 26.8066H290.929V5.33054C290.929 2.16318 290.929 1.46776 292.506 1.04261L293.057 0.888249V0.192832H287.107V0.888249L287.777 1.04261C289.787 1.39032 289.787 2.1632 289.787 5.09875V18.5405L290.181 18.4246L282.853 0.192832H277.219V0.888249L277.77 1.04261C278.401 1.23595 278.755 1.93139 279.425 3.20582V3.20582ZM266.778 1.12006H268.354C269.93 1.12006 271.388 2.12423 271.388 7.14605C271.388 12.2833 270.285 12.7853 268.078 12.7853H266.778V1.12006ZM240.539 13.2489C240.539 24.4116 239.593 25.9958 237.544 25.9958C235.496 25.9958 234.589 24.4116 234.589 13.3259C234.589 2.58783 235.575 1.04261 237.544 1.04261C239.593 1.04261 240.539 2.58783 240.539 13.2489ZM244.834 13.4808C244.834 6.10291 242.43 0 237.544 0C232.62 0 230.295 6.10291 230.295 13.4808C230.295 20.8971 232.698 27 237.544 27C242.548 27 244.834 20.8971 244.834 13.4808ZM227.971 2.7422C227.971 1.6611 228.247 1.3134 229.034 1.12006L229.901 0.888249V0.192832H221.746V0.888249L222.73 1.12006C223.518 1.3134 223.952 1.58366 223.952 2.70373V21.2833C223.952 23.8711 223.715 25.9569 221.746 25.9569C220.484 25.9569 219.539 24.9912 219.579 24.2962C219.696 23.0982 221.745 23.1762 221.903 21.2443C222.021 19.8539 221.115 19.2744 220.288 19.159C219.066 19.0042 217.57 20.0083 217.529 22.0171C217.49 24.605 219.224 26.9615 222.179 26.9615C225.449 26.9615 227.971 24.7983 227.971 20.6648V2.7422V2.7422ZM96.3785 2.7422C96.3785 1.6611 96.7331 1.3134 97.5209 1.15853L98.5849 0.926718V0.192832H90.39V0.888249L91.2568 1.12006C92.0446 1.35187 92.3993 1.6611 92.3993 2.7422V24.3737C92.3993 25.4163 91.9656 25.9958 90.7442 25.9958C89.3261 25.9958 89.0896 25.5322 88.5775 23.2536L83.5343 0.115895H81.9587L77.152 22.5192C76.6006 25.0296 76.3244 25.6096 75.261 25.9184L74.5909 26.1117V26.8066H80.2252V26.1117L79.3976 25.9569C78.216 25.7251 77.9005 25.1076 78.4916 22.1715L81.3284 7.76353L84.4408 23.0213C84.874 25.223 84.874 25.6481 83.1802 25.9569L82.3526 26.1117V26.8066H103.273V18H102.525C102.131 22.0556 101.303 25.8799 97.9546 25.8799H96.3785V2.7422V2.7422ZM206.064 1.12006H206.931C209.375 1.12006 210.202 4.94387 210.477 8.99999H211.225V0.192832H196.924V8.99999H197.672C197.949 4.94387 198.776 1.12006 201.219 1.12006H202.085V24.2183C202.085 25.3004 201.731 25.6866 200.943 25.8799L199.919 26.1117V26.8066H208.429V26.1117L207.207 25.8415C206.458 25.6481 206.064 25.4163 206.064 24.2183V1.12006V1.12006ZM188.059 13.4418L189.28 13.4808C191.054 13.5192 191.565 14.1762 191.921 18.3867H192.669V7.64812H191.921C191.487 11.0088 191.014 12.4376 189.32 12.4766L188.059 12.5151V1.12009H190.778C193.812 1.12009 194.482 4.86696 194.915 9.00002H195.663V0.192857H182.071V0.888273L182.938 1.12009C183.843 1.35189 184.08 1.89294 184.08 2.7812V24.2183C184.08 25.3004 183.726 25.6866 182.938 25.8799L182.071 26.1118V26.8067H196.057V18H195.309C194.836 22.0172 194.324 25.8799 190.778 25.8799H188.059V13.4418V13.4418ZM173.206 13.4418L174.428 13.4808C176.2 13.5192 176.712 14.1762 177.067 18.3867H177.816V7.64812H177.067C176.634 11.0088 176.161 12.4376 174.467 12.4766L173.206 12.5151V1.12009H175.925C178.959 1.12009 179.628 4.9439 180.061 9.00002H180.81V0.192857H166.824V0.888273L168.084 1.12009C168.99 1.35189 169.227 1.89294 169.227 2.7812V24.2183C169.227 25.3004 168.872 25.6866 168.084 25.8799L167.218 26.1118V26.8067H181.204V18H180.456C179.983 22.0172 179.47 25.8799 175.925 25.8799H173.206V13.4418V13.4418ZM157.013 1.12006H158.195C159.771 1.12006 161.229 2.12423 161.229 7.14605C161.229 12.2058 160.126 12.7853 157.92 12.7853H157.013V1.12006ZM151.064 26.8066H159.023V26.1117L158.155 25.9184C157.368 25.7251 157.013 25.3004 157.013 24.2183V13.7126H158.471C159.613 13.7126 160.204 14.1762 160.283 16.3394L160.48 21.2833C160.638 25.7251 161.938 26.9615 164.144 26.9615C166.39 26.9615 166.981 25.4548 166.981 23.3306V22.4418H166.154V23.0982C166.154 24.528 165.957 25.5322 165.405 25.5322C164.893 25.5322 164.853 25.146 164.736 23.369L164.499 19.9703C164.184 15.2962 163.553 13.8285 160.165 13.21C163.435 12.3607 165.444 10.0042 165.444 6.64346C165.444 2.2786 161.938 0.192832 158.589 0.192832H151.064V0.888249L151.931 1.12006C152.719 1.35187 153.073 1.6611 153.073 2.7422V24.2183C153.073 25.3004 152.719 25.6866 151.931 25.8799L151.064 26.1117V26.8066V26.8066ZM145.036 1.12006H145.903C148.345 1.12006 149.173 4.94387 149.449 8.99999H150.197V0.192832H135.896V8.99999H136.644C136.92 4.94387 137.747 1.12006 140.19 1.12006H141.057V24.2183C141.057 25.3004 140.702 25.6866 139.914 25.8799L138.89 26.1117V26.8066H147.203V26.1117L146.179 25.8799C145.154 25.6481 145.036 24.8758 145.036 24.2183V1.12006V1.12006ZM135.935 19.8924C135.935 11.974 127.07 9.88826 127.07 4.13305C127.07 2.89708 127.543 1.04261 129.513 1.04261C132.349 1.04261 133.413 4.63513 133.886 8.99999H134.635V0.192832H134.162C133.965 1.04262 133.61 1.4293 133.098 1.4293C132.192 1.4293 131.719 0.0384689 129.552 0.0384689C126.204 0.0384689 123.918 2.78117 123.918 6.37318C123.918 12.9012 132.783 15.6435 132.783 21.6694C132.783 24.4117 131.483 25.9569 129.71 25.9569C127.07 25.9569 125.337 22.9059 124.864 18H124.115V26.8066H124.588C124.982 25.5322 125.494 25.4163 125.927 25.4163C126.676 25.4163 127.464 26.9615 129.749 26.9615C133.256 26.9615 135.935 23.9875 135.935 19.8924V19.8924ZM110.129 2.7422C110.129 1.6611 110.483 1.3134 111.271 1.15853L112.335 0.926718V0.192832H104.14V0.888249L105.007 1.12006C105.795 1.35187 106.149 1.6611 106.149 2.7422V24.2183C106.149 25.3004 105.795 25.6866 105.007 25.8799L104.14 26.1117V26.8066H117.024V18H116.275C115.881 22.0556 115.054 25.8799 111.705 25.8799H110.129V2.7422V2.7422ZM84.0464 19.6221V18.5795H78.7281L78.5701 19.6221H84.0464ZM61.2743 26.8841H62.8897L66.5535 7.87993H66.0021L70.0206 26.8841H71.4392L76.246 4.48076C76.7581 2.12423 77.0338 1.31339 77.9795 1.08108L78.7281 0.888249V0.192832H73.1728V0.888249L74.0003 1.04261C75.182 1.27442 75.4577 1.96984 74.9063 4.82796L71.7939 19.8539H72.2667L69.1146 4.01714C68.7991 2.51039 68.6024 1.27442 69.9029 1.04261L70.7691 0.888249V0.192832H63.1654V0.888249L63.6775 1.00414C64.4658 1.19698 64.584 1.66111 64.8989 3.12889L66.1203 8.88408L65.8839 5.40748L63.1654 19.4678H63.52L60.3286 4.01714C59.9739 2.43346 59.8557 1.23595 61.1164 1.00414L61.708 0.888249V0.192832H53.9462V0.888249L54.6948 1.08108C55.4036 1.27442 55.798 1.62214 56.2709 3.74637L61.2743 26.8841V26.8841ZM40.2353 13.4418L41.4567 13.4808C43.2295 13.5192 43.7416 14.1762 44.0963 18.3867H44.8449V7.64812H44.0963C43.6632 11.0088 43.1903 12.4376 41.496 12.4766L40.2353 12.5151V1.12009H42.9538C45.9873 1.12009 46.6574 4.9439 47.0905 9.00002H47.8391V0.192857H34.2469V0.888273L35.1136 1.12009C36.0196 1.35189 36.2561 1.89294 36.2561 2.7812V24.2183C36.2561 25.3004 35.9014 25.6866 35.1136 25.8799L34.2469 26.1118V26.8067H48.2335V18H47.4844C47.012 22.0172 46.4999 25.8799 42.9538 25.8799H40.2353V13.4418V13.4418ZM15.4535 26.8066H23.5301V26.1117L22.6241 25.9184C21.9148 25.764 21.4419 25.3004 21.4419 24.2183V13.6741H27.3911V24.2183C27.3911 25.3004 26.9188 25.764 26.2094 25.9184L25.3034 26.1117V26.8066H33.3801V26.1117L32.5133 25.8799C31.7255 25.6866 31.3703 25.2614 31.3703 24.1803V2.7422C31.3703 1.6611 31.7255 1.3134 32.5133 1.12006L33.3801 0.888249V0.192832H25.3034V0.888249L26.2094 1.12006C26.879 1.3134 27.3911 1.58366 27.3911 2.70373V12.631H21.4419V2.70373C21.4419 1.62213 21.8756 1.3134 22.6241 1.12006L23.5301 0.888249V0.192832H15.4535V0.888249L16.3202 1.12006C17.1085 1.35187 17.4627 1.6611 17.4627 2.7422V24.2183C17.4627 25.3004 17.1085 25.6866 16.3202 25.8799L15.4535 26.1117V26.8066ZM9.42528 1.12006H10.2926C12.7349 1.12006 13.5625 4.94387 13.8381 8.99999H14.5867V0.192832H0.285156V8.99999H1.03371C1.30939 4.94387 2.13693 1.12006 4.57929 1.12006H5.44606V24.2183C5.44606 25.3004 5.09191 25.6866 4.30361 25.8799L3.27938 26.1117V26.8066H11.7897V26.1117L10.5682 25.8415C9.81969 25.6481 9.42528 25.4163 9.42528 24.2183V1.12006V1.12006Z" fill="#7F7B7B"/>
</g>
<defs>
<clipPath id="clip0">
<rect width="325" height="27" fill="white" transform="translate(0.285156)"/>
</clipPath>
</defs>
</svg>
