<svg id="Layer_1" data-name="Layer 1" xmlns="http://www.w3.org/2000/svg" viewBox="0 0 493.49 204.4"><defs><style>.cls-1{fill:#6ddfdf;}.cls-2{fill:#13b7b3;}.cls-3{fill:#b9f8f3;}.cls-4{fill:#80eaeb;}.cls-5{fill:#fff;}.cls-6{fill:#f7931a;}.cls-7{fill:#e27d0e;}.cls-8{fill:#ffba76;}.cls-9{fill:#f7a54b;}.cls-10{fill:#c3c9db;}.cls-11{fill:#dce1ef;}.cls-12{fill:#abafc4;opacity:0.33;}.cls-12,.cls-16{isolation:isolate;}.cls-13{fill:#a3a8bf;}.cls-14{fill:#20ce8b;}.cls-15{fill:#cef4e6;}.cls-16{fill:#38e0a3;opacity:0.6;}.cls-17{fill:#17bf7b;}.cls-18{fill:#0dcece;}.cls-19{fill:#ab5167;}.cls-20{fill:#e8dde0;}.cls-21{fill:#cc9fab;}.cls-22{fill:#91a5e2;}.cls-23{fill:#cadaf8;}.cls-24{fill:#abbeef;}.cls-25{fill:#6883d8;}</style></defs><title>exchange</title><g id="Layer_1-2" data-name="Layer 1"><path class="cls-1" d="M46,158.5c-.4.2-.8.3-1.2.5l-.6.3a2.51,2.51,0,0,0-.7.4c-.1.1-.2.1-.3.2a30.21,30.21,0,0,0-9.8,10c-.3.4-.5.9-.8,1.3-.1.1-.1.2-.2.3-.2.4-.5.9-.7,1.4,0,.1-.1.1-.1.2-.2.4-.4.8-.6,1.3,0,.1-.1.2-.1.3-.2.5-.4.9-.6,1.4v.1a.35.35,0,0,1-.1.2c-.1.3-.3.7-.4,1,0,.1-.1.3-.1.4-.1.4-.3.8-.4,1.2v.1c-.1.4-.3.9-.4,1.4,0,.1-.1.3-.1.4-.1.4-.2.7-.3,1.1,0,.1-.1.2-.1.4-.1.5-.2.9-.3,1.4v.2l-.3,1.2c0,.1-.1.3-.1.4-.1.4-.1.8-.2,1.1a.37.37,0,0,1-.1.3c-.1.5-.1,1-.2,1.4v.3c0,.4-.1.8-.1,1.1v.4c0,.4-.1.9-.1,1.3v.2c0,.5-.1,1-.1,1.5v5.3a4.87,4.87,0,0,0,.1,1.2v.3c0,.5.1,1,.1,1.5v.3c0,.4.1.8.1,1.2a.6.6,0,0,0,.1.4c.1.4.1.8.2,1.3v.2c.1.4.1.8.2,1.2v.2c0,.2.1.5.1.7s.1.6.2.9a1.85,1.85,0,0,0,.2.7c.1.3.1.6.2.9s.1.5.2.7.1.6.2.8.1.5.2.7a3.09,3.09,0,0,1,.2.8c.1.2.1.5.2.7s.2.5.3.8a1.85,1.85,0,0,1,.2.7c.1.3.2.5.3.8s.2.5.3.7.2.5.3.8a4.87,4.87,0,0,1,.3.7c.1.3.2.5.3.8a4.87,4.87,0,0,1,.3.7,3,3,0,0,0,.4.8l.3.6c.1.3.3.5.4.8l.3.6c.1.3.3.5.4.8l.3.6a3.51,3.51,0,0,0,.5.8l.3.6c.2.3.3.5.5.8.1.1.2.3.3.4v.1a5.55,5.55,0,0,0,.6.8c.1.1.2.3.3.4l.9,1.2c.2.3.5.6.7.9l.2.2.6.6.2.2c.2.3.5.5.7.8l.1.1a4.35,4.35,0,0,0,.7.6l.2.2.6.6.2.2c.3.2.5.5.8.7.1.1.1.1.2.1.2.2.4.3.6.5l.2.2c.2.2.5.3.7.5l.1.1c.3.2.5.4.8.6.1,0,.1.1.2.1s.4.3.6.4l.2.1a5.58,5.58,0,0,1,.8.5h0c.3.1.5.3.8.4l.2.1.6.3.2.1a6.89,6.89,0,0,1,.8.3l.2.1c.2.1.5.2.7.3l.3.1c.2.1.5.1.7.2h.1c.3.1.5.1.8.2h.2a1.27,1.27,0,0,0,.6.1l.3.1c.2,0,.4.1.6.1H54c.2,0,.5.1.7.1h.1c.3,0,.5.1.8.1h2.7l5.6-.4,4.6-.3h0a20.41,20.41,0,0,0,7.6-2c-5.1,5.3-11.2,8.2-17.5,8.6l10.3-.6c8.4-.5,16.5-5.6,22.4-15,.3-.5.7-1.1,1-1.6a.1.1,0,0,1,.1-.1c.3-.5.6-1.1.9-1.6,0-.1.1-.1.1-.2.3-.5.5-1.1.8-1.6a.35.35,0,0,1,.1-.2c.2-.5.5-1.1.7-1.6a.1.1,0,0,1,.1-.1c.1,0,0-.1.1-.1l.6-1.5a.35.35,0,0,1,.1-.2c.2-.5.3-.9.5-1.4,0-.1,0-.1.1-.2.2-.5.3-1,.5-1.5,0-.1.1-.2.1-.3.1-.5.3-1,.4-1.5,0-.1,0-.2.1-.2a8.33,8.33,0,0,1,.4-1.5V214c.1-.5.2-1.1.3-1.6a.37.37,0,0,1,.1-.3c.1-.5.2-1.1.3-1.6v-.2a7.72,7.72,0,0,0,.2-1.5v-.2c.1-.5.1-1.1.2-1.6v-.3a8.6,8.6,0,0,0,.1-1.6v-.2c0-.5.1-1,.1-1.6v-5.9c0-.5-.1-1.1-.1-1.6v-.3c0-.6-.1-1.1-.1-1.7v-.2c-.1-.5-.1-1-.2-1.6v-.3c-.1-.5-.1-1.1-.2-1.6a.37.37,0,0,0-.1-.3c-.1-.5-.2-1.1-.3-1.6V188c-.1-.5-.2-1-.3-1.6a.37.37,0,0,0-.1-.3,9.36,9.36,0,0,0-.4-1.6c0-.1-.1-.2-.1-.3-.1-.5-.3-1.1-.4-1.6v-.1c-.1-.5-.3-1-.4-1.5,0-.1-.1-.2-.1-.3-.2-.5-.3-1-.5-1.5,0-.1-.1-.2-.1-.3-.2-.5-.4-1-.6-1.6v-.1l-.6-1.5c0-.1-.1-.2-.1-.3l-.6-1.5c0-.1-.1-.2-.1-.3-.2-.5-.5-1-.7-1.5V172c-.2-.5-.5-.9-.7-1.4,0-.1-.1-.2-.1-.3a10,10,0,0,0-.8-1.4c-.1-.1-.1-.2-.2-.3-.3-.5-.5-.9-.8-1.4h0c-.3-.4-.6-.9-.9-1.3,0-.1-.1-.1-.1-.2a.1.1,0,0,0-.1-.1,14.63,14.63,0,0,1-.9-1.3l-.2-.2a11.32,11.32,0,0,0-1-1.3,40.21,40.21,0,0,0-4.9-5.2L81,156.4a30.34,30.34,0,0,0-6.2-3.8,17.55,17.55,0,0,0-3.2-1.2c-.5-.2-1.1-.3-1.6-.5a19.85,19.85,0,0,0-3.2-.6c-.3,0-.5-.1-.8-.1a17.09,17.09,0,0,0-3.2,0l-10.3.6c6.3-.4,12.7,1.7,18.5,6.3h0l-2.1-.6-1.4-.3c-.5-.1-.9-.1-1.4-.2H63.3l-4.6.3-5.7.4c-.3,0-.6.1-.9.1a.9.9,0,0,0-.5.1c-.4.1-.8.1-1.2.2h-.2c-.3.1-.5.1-.8.2s-.4.1-.6.1-.3.1-.4.1l-.9.3c-.1,0-.2.1-.3.1a13.36,13.36,0,0,1-1.2.6Z" transform="translate(-21.51 -41.9)"/><path class="cls-2" d="M58.9,246.2a.7.7,0,1,1,0-1.4,24.76,24.76,0,0,0,14.4-6,23.63,23.63,0,0,1-4.5.8l-10.3.6H55.7a2,2,0,0,1-.8-.1h-.1c-.2,0-.5-.1-.7-.1h-.3c-.2,0-.4-.1-.6-.1l-.3-.1c-.2,0-.4-.1-.7-.1H52c-.3-.1-.6-.1-.8-.2h-.1a2.35,2.35,0,0,0-.8-.2l-.3-.1c-.2-.1-.5-.2-.7-.3l-.2-.1a3.55,3.55,0,0,1-.9-.4l-.2-.1a4.88,4.88,0,0,1-.7-.3l-.3-.1a5.94,5.94,0,0,1-.8-.4c-.3-.2-.6-.3-.9-.5l-.2-.1a5.74,5.74,0,0,0-.7-.4l-.2-.1a5.55,5.55,0,0,1-.8-.6,8.11,8.11,0,0,1-.8-.6l-.2-.1a4.35,4.35,0,0,1-.7-.6l-.2-.2c-.3-.2-.5-.5-.8-.7l-.2-.2-.6-.6-.2-.2-.7-.7-.1-.1-.8-.8-.1-.2c-.3-.3-.4-.5-.6-.7l-.2-.2c-.2-.3-.5-.6-.7-.9l-.9-1.2-.3-.4a5.55,5.55,0,0,0-.6-.8l-.3-.5c-.2-.3-.3-.5-.5-.8l-.3-.6c-.2-.3-.3-.5-.5-.8l-.3-.5.5-.5-.6.4c-.1-.2-.3-.5-.4-.7l-.3-.5a6.31,6.31,0,0,1-.4-.9l-1-2.1c-.1-.3-.2-.5-.3-.8l-.8-2.2c-.1-.3-.2-.5-.3-.8L28,211.5c-.1-.3-.1-.6-.2-.9l-.8-3.9v-.2c-.1-.4-.1-.8-.2-1.3V205c-.1-.4-.1-.9-.2-1.3l-.1-.4c0-.4-.1-.8-.1-1.2v-.3c0-.5-.1-1-.1-1.5V200a4.87,4.87,0,0,0-.1-1.2v-5.3c0-.5.1-1,.1-1.5v-.2c0-.4.1-.9.1-1.3v-.3a6.15,6.15,0,0,0,.1-1.3v-.3c.1-.5.1-1,.2-1.4V187c.1-.5.1-.9.2-1.3l.1-.4.3-1.2v-.2c.1-.5.2-.9.3-1.4l.1-.3c.1-.4.2-.8.3-1.1l.1-.4c.1-.5.3-.9.4-1.4s.3-.9.5-1.4l.1-.3a7.6,7.6,0,0,0,.4-1.1l.1-.2a5.23,5.23,0,0,1,.7-1.5l.1-.2c.2-.5.5-1,.7-1.4l-.1-.5c.2-.5.5-.9.7-1.4l.2-.3c.3-.5.5-.9.8-1.4a30.16,30.16,0,0,1,10.1-10.3l.4-.2c.2-.1.3-.2.5-.3l.4-.2c.1-.1.3-.1.4-.2l1.2-.6.3.7-.3-.7a7.6,7.6,0,0,1,1.1-.4l.4-.1a1.88,1.88,0,0,1,.8-.2l.6-.2c.1,0,.3-.1.4-.1l.4-.1c.2,0,.4-.1.6-.1h.2c.4-.1.8-.1,1.2-.2h.7c.2,0,.5-.1.7-.1l10.3-.6a16.15,16.15,0,0,1,2.2,0H66a7.72,7.72,0,0,1,1.5.2h.1a25.17,25.17,0,0,0-15.1-4.1h0a.85.85,0,0,1-.8-.7c-.1-.4.3-.7.7-.8l10.3-.6a18.19,18.19,0,0,1,3.3,0,2,2,0,0,1,.8.1,19.09,19.09,0,0,1,3.3.6,10.93,10.93,0,0,1,1.7.5c1.1.4,2.2.8,3.3,1.3a33.33,33.33,0,0,1,6.3,3.9,17.38,17.38,0,0,1,1.5,1.3,41.81,41.81,0,0,1,5,5.3c.3.4.7.9,1,1.3l.2.2a14.63,14.63,0,0,1,.9,1.3l.1.2c.3.5.6,1,.9,1.4s.6,1,.9,1.4l.2.3c.3.5.5.9.8,1.4l.1.2a10.19,10.19,0,0,0,.8,1.5c.3.6.5,1.1.7,1.6l.1.3.6,1.5.1.1a16.59,16.59,0,0,1,.6,1.6c.2.6.4,1.1.6,1.7l.1.3c.2.5.3,1,.5,1.6l.1.2c.2.6.3,1.1.5,1.6.2.7.3,1.2.5,1.7l.1.3c.1.5.3,1.1.4,1.6v.2c.1.6.2,1.1.3,1.7v.2c.1.6.2,1.1.3,1.7l.1.3a8.75,8.75,0,0,1,.2,1.6v.3c.1.5.1,1.1.2,1.6v.2a9.7,9.7,0,0,1,.1,1.7v.3c0,.6.1,1.1.1,1.7v4a10.28,10.28,0,0,1-.1,1.8v.3c0,.5-.1,1-.1,1.6l-.7.2.7.1c0,.6-.1,1.1-.1,1.7v.3c-.1.5-.1,1.1-.2,1.6v.2c-.1.5-.1,1-.2,1.5v.2c-.1.5-.2,1.1-.3,1.6l-.1.3c-.1.5-.2,1.1-.3,1.6v.2a8.33,8.33,0,0,1-.4,1.5l-.1.2c-.1.5-.3,1-.4,1.6l-.1.3c-.2.5-.3,1-.5,1.5l-.1.2c-.2.5-.3,1-.5,1.4l-.1.2-.6,1.5-.7-.1.7.3-.1.1c-.2.6-.5,1.1-.7,1.7l-.1.2c-.3.6-.5,1.2-.8,1.7l-.1.1c-.3.6-.6,1.2-.9,1.7l-.1.1a15.05,15.05,0,0,1-1,1.7c-5.8,9.3-13.9,14.8-23,15.4l-10.1.2Zm17.4-10a.68.68,0,0,1,.7.7.76.76,0,0,1-.2.5,30.58,30.58,0,0,1-9.8,6.9l2-.1c8.5-.5,16.3-5.8,21.8-14.7.3-.5.6-1.1.9-1.6s.6-1.2.9-1.7l.7.1-.6-.3c.3-.5.5-1.1.8-1.6l.1-.2c.2-.5.5-1.1.7-1.6l.7.1-.7-.3.7.1-.7-.3c.2-.5.4-1,.6-1.4h.8l-.7-.2c.2-.5.3-.9.5-1.4l.1-.2c.2-.5.3-1,.5-1.5l.1-.3c.1-.5.3-1,.4-1.5l.1-.2a8.33,8.33,0,0,1,.4-1.5h.7l-.7-.2c.1-.5.2-1,.3-1.6l.1-.3c.1-.5.2-1.1.3-1.6v-.2a7.72,7.72,0,0,0,.2-1.5l.7-.1-.7-.1c.1-.5.1-1.1.2-1.6v-.3a9.15,9.15,0,0,0,.1-1.6l.7-.2h-.7c0-.5.1-1,.1-1.5v-3.7l.7-.2h-.7v-1.9c0-.5-.1-1.1-.1-1.6v-.3c0-.5-.1-1.1-.1-1.6l.7-.2-.7.1c-.1-.5-.1-1-.2-1.6v-.1a12.77,12.77,0,0,1-.2-1.7l-.1-.3c-.1-.5-.2-1.1-.3-1.6l.7-.3-.7.1-.3-1.5-.1-.3a9.36,9.36,0,0,0-.4-1.6l-.1-.3c-.1-.5-.3-1.1-.4-1.6s-.3-1.1-.5-1.6l-.1-.3c-.2-.5-.3-1-.5-1.5l-.1-.3a8.8,8.8,0,0,1-.5-1.5c-.2-.6-.4-1.1-.6-1.6l-.1-.1c-.3-.6-.5-1.1-.7-1.6l-.1-.3a10.09,10.09,0,0,0-.7-1.5,10.09,10.09,0,0,1-.7-1.5l-.1-.3a10,10,0,0,0-.8-1.4l-.2-.3c-.3-.5-.5-.9-.8-1.4a14.63,14.63,0,0,0-.9-1.3l.5-.6-.6.4c-.4-.5-.6-.9-.9-1.3l-.1-.2c-.4-.5-.7-.9-1-1.3a39,39,0,0,0-4.8-5.1l-1.5-1.2a31.31,31.31,0,0,0-6-3.7,16.59,16.59,0,0,0-3.1-1.2,7.49,7.49,0,0,0-1.6-.4c-1-.3-2.1-.4-3.1-.6-.3,0-.5-.1-.8-.1a16.05,16.05,0,0,0-3.1,0l-2,.1a28.5,28.5,0,0,1,10.6,5.6.67.67,0,0,1,.1,1,.78.78,0,0,1-.8.2,16,16,0,0,0-2.1-.5,6.75,6.75,0,0,0-1.4-.2c-.5,0-.9-.1-1.4-.1H62.9l-10.3.6a1.27,1.27,0,0,0-.6.1l-.7.1c-.4.1-.8.1-1.1.2l-.3-.7.1.7a4.33,4.33,0,0,0-.5.1l-.4.1c-.1,0-.2.1-.3.1l-.6.2c-.2.1-.5.1-.7.2l-.3.1a6.9,6.9,0,0,0-1,.4l-.4-.6.3.7c-.4.2-.8.3-1.2.5-.1.1-.2.1-.3.2l-.4.2c-.2.1-.3.2-.5.3l-.3.2a29,29,0,0,0-9.6,9.8c-.3.4-.5.9-.8,1.3l-.2.3c-.2.4-.5.9-.7,1.3l-.7-.1.6.3c-.2.4-.4.8-.6,1.3l-.1.3c-.2.5-.4.9-.6,1.4l-.7-.1.7.3a7.6,7.6,0,0,0-.4,1.1l-.1.4c-.1.4-.3.8-.4,1.2a10.26,10.26,0,0,0-.4,1.4l-.1.3c-.1.5-.2.8-.3,1.2l-.1.4c-.1.5-.2.9-.3,1.4l-.7.1.7.2a5,5,0,0,0-.2,1.2l-.1.4c-.1.4-.1.7-.2,1.1l-.1.3c-.1.5-.1.9-.2,1.4v.2a5.74,5.74,0,0,0-.1,1.2v.4c0,.4-.1.9-.1,1.3l-.7.1.7.1c0,.5-.1,1-.1,1.4v3.4l-.7.2h.7v1.7a3.75,3.75,0,0,0,.1,1.1v.3c0,.5.1,1,.1,1.4v.3c0,.4.1.8.1,1.2l.1.4c.1.4.1.8.2,1.2l-.7.3.7-.1c.1.4.1.8.2,1.2l-.7.3.7-.1.8,3.8c.1.3.1.6.2.8l1.1,3.7c.1.3.2.5.3.8l.8,2.1c.1.3.2.5.3.8l.9,2a4.35,4.35,0,0,0,.4.7l.3.6c.1.2.3.5.4.7l.3.6a4.35,4.35,0,0,1,.4.7l.4.6c.2.2.3.5.5.7l.3.5a3.51,3.51,0,0,1,.5.8l.4.5.9,1.2c.2.3.5.6.7.9l.2.2.6.6.2.2c.2.3.5.5.7.8l-.4.6.5-.5.6.6.2.1c.3.3.5.4.7.6l-.3.7.5-.5a5,5,0,0,1,.8.7l.1.1c.3.2.5.4.7.5l.2.2c.2.2.5.3.7.5.4.3.6.4.9.6l.2.1a5.74,5.74,0,0,0,.7.4h0c.3.2.5.3.8.5a5.9,5.9,0,0,0,.8.4l.2.1.6.3.2.1c.3.1.5.2.8.3l-.1.7.3-.7a1.85,1.85,0,0,0,.7.2l.2.1a6.37,6.37,0,0,0,.7.2h.1a3.09,3.09,0,0,0,.8.2v.7l.2-.7c.2,0,.4.1.6.1h.2c.3,0,.4.1.6.1H54c.2,0,.4.1.7.1s.7.1.9.1l.2.7v-.7h2.5l10.3-.6A20.74,20.74,0,0,0,76,236c.1.2.2.2.3.2Z" transform="translate(-21.51 -41.9)"/><path class="cls-3" d="M34.2,232.9c-14.1-17.8-16-47.8-4.1-67s32.9-20.2,47-2.4,16,47.8,4.1,67S48.3,250.7,34.2,232.9Z" transform="translate(-21.51 -41.9)"/><path class="cls-2" d="M57.3,246.3c-8.7,0-17.1-4.6-23.7-13-14.3-18-16.2-48.4-4.2-67.8,5.8-9.4,14-14.9,23.1-15.4s18.1,4.1,25.2,12.9c14.3,18,16.2,48.4,4.2,67.8-5.8,9.4-14,14.9-23.1,15.4A7.57,7.57,0,0,1,57.3,246.3Zm-3.4-94.8H52.6c-8.6.5-16.4,5.7-21.9,14.7-11.7,18.9-9.9,48.5,4.1,66.1,6.7,8.5,15.3,12.9,24,12.4S75.2,239,80.7,230c11.7-18.9,9.9-48.5-4.1-66.1-6.4-8-14.4-12.4-22.7-12.4Z" transform="translate(-21.51 -41.9)"/><path class="cls-4" d="M71.7,172.2c-10.6-13.4-26.4-12.6-35.3,1.8s-7.5,36.8,3.1,50.2,26.4,12.6,35.3-1.8,7.6-36.8-3.1-50.2" transform="translate(-21.51 -41.9)"/><path class="cls-5" d="M56.6,196.6l.3,4.3,7-.7v2.1l-6.8.7c0,1.9.2,3.7.1,5.5a39.15,39.15,0,0,1-.5,5.9,6.94,6.94,0,0,1-3.7,5.5,4.35,4.35,0,0,1-4,.2,1.75,1.75,0,0,1-1.1-2.2c0-.1.1-.2.2-.4s.9-.3,1.2-.1a6.89,6.89,0,0,1,1.3,1.1,1.5,1.5,0,0,0,2.2.2,1.27,1.27,0,0,0,.4-.6,7.86,7.86,0,0,0,1-4.5c-.1-3.3-.3-6.6-.5-9.8a4.33,4.33,0,0,0-.1-.5l-6.5.6-.3-2.1,6.7-.7-.2-4.3-7,.6-.3-2.1,7.1-.7v-2.3a24,24,0,0,1,.8-7.5c.8-2.4,2.2-4.2,4.6-4.7a3.66,3.66,0,0,1,3.2.6c.2.2.5.3.5.6a3,3,0,0,1,.1,1.6c-.3.6-1,.5-1.6.2a10.59,10.59,0,0,1-1.2-1,1.48,1.48,0,0,0-2.2-.2,2.09,2.09,0,0,0-.4.6,7.42,7.42,0,0,0-.8,2.8c-.1,3,0,5.9.1,9.1l6.7-.6v2.1Z" transform="translate(-21.51 -41.9)"/><path class="cls-6" d="M143.8,85.9c-.4.1-.7.3-1.1.4a2.19,2.19,0,0,0-.5.3,4.88,4.88,0,0,1-.7.3c-.1.1-.2.1-.3.2a26.45,26.45,0,0,0-9.3,8.6c-.3.4-.5.8-.8,1.2-.1.1-.1.2-.2.3-.2.4-.5.8-.7,1.2,0,.1-.1.1-.1.2-.2.4-.4.7-.6,1.1,0,.1-.1.2-.1.3-.2.4-.4.8-.6,1.3v.1c0,.1-.1.1-.1.2-.1.3-.3.6-.4.9,0,.1-.1.2-.1.3a4.87,4.87,0,0,0-.4,1.1v.1a5.64,5.64,0,0,0-.4,1.2c0,.1-.1.2-.1.3l-.3.9c0,.1-.1.2-.1.3a5.64,5.64,0,0,1-.4,1.2v.2c-.1.4-.2.7-.3,1.1,0,.1-.1.2-.1.4a3.55,3.55,0,0,0-.2,1,.37.37,0,0,1-.1.3,5.85,5.85,0,0,0-.2,1.3.37.37,0,0,1-.1.3c-.1.3-.1.7-.2,1a.6.6,0,0,1-.1.4c-.1.4-.1.8-.2,1.2v.1a5.7,5.7,0,0,0-.1,1.3v.4c0,.3-.1.7-.1,1v.4a5.7,5.7,0,0,1-.1,1.3v4.6a4.1,4.1,0,0,0,.1,1.1v.4c0,.4.1.8.1,1.1v.2c0,.4.1.8.1,1.1v.2c0,.2.1.4.1.6s.1.5.1.8.1.4.1.6.1.5.1.8.1.4.1.6.1.5.2.8.1.4.1.6.1.5.2.8.1.4.2.6.1.5.2.7.1.4.2.6.1.5.2.7.1.4.2.6a1.85,1.85,0,0,1,.2.7c.1.2.1.4.2.6s.2.5.3.7a1.42,1.42,0,0,1,.2.6c.1.2.2.5.3.7l.3.6c.1.2.2.5.3.7l.3.6c.1.2.2.5.3.7a2.19,2.19,0,0,0,.3.5c.1.2.3.5.4.7s.2.3.3.5.3.5.4.7a.76.76,0,0,1,.2.4v.1c.2.3.3.5.5.8a.76.76,0,0,1,.2.4,10.48,10.48,0,0,0,.8,1.1,5.55,5.55,0,0,0,.6.8l.2.2c.2.2.3.4.5.6l.2.2a4.35,4.35,0,0,0,.6.7l.1.1.6.6.2.2.5.5c.1.1.1.1.2.1.2.2.5.4.7.6.1,0,.1.1.2.1.2.2.4.3.5.5l.2.2c.2.2.4.3.6.5l.1.1a3,3,0,0,0,.7.5c.1,0,.1.1.2.1s.4.3.6.4l.2.1c.2.2.5.3.7.5h0c.2.1.5.3.7.4l.2.1.6.3.2.1a6.89,6.89,0,0,0,.8.3l.1.1.6.3.2.1a1.42,1.42,0,0,0,.6.2h.1a1.85,1.85,0,0,0,.7.2h.2c.2.1.4.1.6.2l.2.1c.2,0,.3.1.5.1l.2.1c.2,0,.4.1.6.1h.1c.2,0,.5.1.7.1h.2a.75.75,0,0,1,.5.1h1.6l5.1-.1,4.2-.1h0a16.94,16.94,0,0,0,7-1.5,24,24,0,0,1-16.1,7l9.3-.2c7.6-.1,15.2-4.3,20.8-12.6.3-.5.6-.9.9-1.4l.1-.1a10,10,0,0,0,.8-1.4l.1-.2c.3-.5.5-.9.8-1.4,0-.1.1-.1.1-.2.2-.5.5-1,.7-1.4a.1.1,0,0,1,.1-.1c.1,0,0-.1.1-.1.2-.4.4-.9.6-1.3,0-.1.1-.1.1-.2.2-.4.3-.8.5-1.3,0-.1,0-.1.1-.2.2-.4.3-.9.5-1.4,0-.1.1-.2.1-.3a7.37,7.37,0,0,0,.4-1.4c0-.1,0-.1.1-.2.1-.4.3-.9.4-1.3,0-.1,0-.1.1-.2a7.37,7.37,0,0,1,.4-1.4.37.37,0,0,1,.1-.3c.1-.5.2-.9.3-1.4v-.2c.1-.5.2-.9.3-1.4v-.2a7.84,7.84,0,0,0,.2-1.4v-.3c.1-.5.1-1,.2-1.5v-.2a6.6,6.6,0,0,0,.1-1.4v-.2c0-.5.1-1,.1-1.5v-.3c0-.5.1-1,.1-1.5v-3.6a7.57,7.57,0,0,0-.1-1.5v-.2c0-.5-.1-.9-.1-1.4V117c0-.5-.1-1-.1-1.5v-.3c-.1-.5-.1-1-.2-1.5v-.1c-.1-.5-.1-.9-.2-1.4V112c-.1-.5-.2-1-.3-1.4a.37.37,0,0,0-.1-.3l-.3-1.5v-.1c-.1-.5-.2-.9-.3-1.4,0-.1,0-.2-.1-.2a7.37,7.37,0,0,0-.4-1.4c0-.1-.1-.2-.1-.3-.1-.5-.3-.9-.4-1.4h0a7.84,7.84,0,0,0-.5-1.4.35.35,0,0,0-.1-.2c-.2-.5-.3-.9-.5-1.3,0-.1-.1-.2-.1-.3-.2-.5-.4-.9-.6-1.4v-.1c-.2-.4-.4-.9-.6-1.3a.35.35,0,0,0-.1-.2c-.2-.4-.4-.8-.6-1.3a.35.35,0,0,0-.1-.2c-.2-.4-.5-.9-.7-1.3h0c-.2-.4-.5-.8-.7-1.2l-.1-.1a.1.1,0,0,0-.1-.1c-.2-.4-.5-.8-.7-1.2l-.2-.2c-.3-.4-.5-.8-.8-1.2a40.06,40.06,0,0,0-4.2-4.9c-.4-.4-.9-.8-1.3-1.2a32.32,32.32,0,0,0-5.4-3.7c-.9-.5-1.9-.9-2.8-1.3-.5-.2-1-.3-1.4-.5-1-.3-1.9-.5-2.9-.7-.2,0-.5-.1-.7-.1a28.25,28.25,0,0,0-2.9-.2l-9.3.2c5.7-.1,11.4,2.1,16.4,6.5h0c-.6-.2-1.3-.4-1.9-.6-.4-.1-.8-.2-1.3-.3s-.8-.1-1.3-.2a1.27,1.27,0,0,1-.6-.1,12.1,12.1,0,0,0-1.9-.1l-4.1.1-5.1.1h-1.3c-.4,0-.7.1-1.1.1h-.2c-.2,0-.5.1-.7.1a4.33,4.33,0,0,0-.5.1c-.1,0-.3.1-.4.1-.3.1-.5.1-.8.2-.1,0-.2.1-.3.1l-.9.3A8.14,8.14,0,0,1,143.8,85.9Z" transform="translate(-21.51 -41.9)"/><path class="cls-7" d="M151.8,165.4V164a22.11,22.11,0,0,0,13-4.6,15,15,0,0,1-3.7.4l-4.3.1-5.1.1h-1.8a1.27,1.27,0,0,1-.6-.1h-.2c-.3,0-.5-.1-.8-.1a2.49,2.49,0,0,0-.8-.1h-.2a1.27,1.27,0,0,0-.6-.1l-.2-.1c-.2-.1-.4-.1-.6-.2h-.2a1.85,1.85,0,0,0-.7-.2l-.2-.1c-.2-.1-.4-.1-.6-.2l-.2-.1a4.87,4.87,0,0,0-.7-.3l-.1-.1a3,3,0,0,1-.8-.4l-.2-.1-.6-.3-.2-.1c-.2-.1-.5-.3-.7-.4s-.5-.3-.8-.5l-.2-.1c-.2-.1-.4-.3-.6-.4l-.2-.1a3,3,0,0,0-.7-.5,4.35,4.35,0,0,1-.7-.6l-.2-.2c-.2-.2-.4-.3-.6-.5l-.2-.2c-.2-.2-.5-.4-.7-.6l-.2-.2a2.65,2.65,0,0,1-.5-.6l-.2-.2-.6-.6-.1-.1c-.2-.2-.4-.5-.7-.8l-.2-.2c-.2-.2-.3-.4-.5-.6l-.2-.2a5.55,5.55,0,0,0-.6-.8,10.48,10.48,0,0,0-.8-1.1l-.3-.4a3.51,3.51,0,0,1-.5-.8l-.3-.5a5.74,5.74,0,0,1-.4-.7l-.3-.5a4.35,4.35,0,0,0-.4-.7l-.2-.4.6-.4-.7.3a4.87,4.87,0,0,1-.3-.7l-.8-1.8c-.1-.3-.2-.5-.3-.8l-1.6-4.7-1.3-5.7-.2-1.6c0-.4-.1-.8-.1-1.1v-.2c0-.4-.1-.8-.1-1.2v-.4c0-.4-.1-.7-.1-1.1v-.3a5.7,5.7,0,0,0-.1-1.3v-3.1a5.7,5.7,0,0,1,.1-1.3v-.4a3.08,3.08,0,0,1,.1-1v-.4c0-.4.1-.9.1-1.3v-.1a5,5,0,0,1,.2-1.2l.1-.4c.1-.3.1-.7.2-1l.1-.3a5.85,5.85,0,0,0,.2-1.3v-.2c.1-.4.2-.8.3-1.1l.1-.4c.1-.4.2-.7.3-1.1v-.2a9.29,9.29,0,0,1,.4-1.3l.1-.2c.1-.4.2-.8.3-1.1l.1-.4c.1-.4.3-.8.4-1.2s.3-.8.5-1.2l.1-.3a6.89,6.89,0,0,0,.4-1l.1-.2a5.39,5.39,0,0,1,.7-1.3l.1-.2c.3-.5.5-.9.7-1.3l.1-.2c.2-.4.5-.8.7-1.2l.2-.3c.3-.4.5-.8.8-1.2a27.34,27.34,0,0,1,9.6-8.9l.3-.2c.2-.1.3-.2.5-.2l.4-.2c.1-.1.3-.1.4-.2a11.73,11.73,0,0,0,1.1-.5l.2.7-.2-.7c.4-.1.7-.2,1-.3l.4-.1c.2-.1.5-.1.7-.2l.6-.1a.76.76,0,0,0,.4-.1l.4-.1a4.33,4.33,0,0,0,.5-.1h.2a4.1,4.1,0,0,1,1.1-.1h1.3l9.3-.2a13.4,13.4,0,0,1,2,.1,2,2,0,0,1,.7.1,4.25,4.25,0,0,1,1.1.2,22.61,22.61,0,0,0-13.1-4.1V78.9h0l9.3-.2a15.14,15.14,0,0,1,3,.2c.3,0,.5.1.8.1,1,.2,2,.4,3,.7a8.8,8.8,0,0,1,1.5.5,25.5,25.5,0,0,1,2.9,1.3,26.33,26.33,0,0,1,5.6,3.8c.4.4.9.8,1.3,1.2a34.34,34.34,0,0,1,4.3,5,8.34,8.34,0,0,1,.8,1.2l.2.2c.3.4.5.8.8,1.2l.1.2a14.8,14.8,0,0,0,.8,1.3c.3.5.5.9.7,1.3l-.3-.2c.2.4.4.9.6,1.3l.1.2c.2.4.4.9.6,1.3s.4,1,.6,1.4l.1.3c.2.5.3.9.5,1.4l.1.2c.2.5.3.9.5,1.4s.3,1,.5,1.5l.1.3c.1.5.3.9.4,1.4v.1c.1.6.3,1,.4,1.5s.2,1.1.3,1.6l.1.3.3,1.5v.2a8.87,8.87,0,0,1,.2,1.5v.1c.1.5.1,1,.2,1.5v.3a7.57,7.57,0,0,1,.1,1.5v.2c0,.5.1,1,.1,1.4v.2a7.57,7.57,0,0,0,.1,1.5v3.6a7.57,7.57,0,0,1-.1,1.5v.3c0,.5-.1,1-.1,1.5v.2c0,.5-.1.9-.1,1.4v.2c-.1.5-.1,1-.2,1.5v.2c-.1.6-.2,1.1-.3,1.6v.2c-.1.5-.2.9-.3,1.4v.2c-.1.5-.2,1-.3,1.4l-.1.2a8.33,8.33,0,0,1-.4,1.5l-.1.2c-.1.4-.3.9-.4,1.3l-.1.2c-.1.5-.3.9-.4,1.4l-.1.3c-.2.5-.3.9-.5,1.4l-.1.2c-.2.4-.3.9-.5,1.3l-.1.2c-.2.4-.4.9-.6,1.3l-.1.1c-.3.6-.5,1.1-.8,1.6l-.1.1c-.3.6-.5,1-.8,1.5l-.1.2c-.3.5-.6,1-.9,1.4-.4.6-.7,1.1-1,1.6-5.6,8.2-13.2,12.8-21.4,12.9l-9.1.5Zm19.4-9.9-2.8,2.6a27.23,27.23,0,0,1-8.8,5.7H161c7.7-.1,14.9-4.5,20.3-12.3.3-.5.6-.9.9-1.4s.6-1,.9-1.5l.7.2-.6-.4c.3-.5.5-.9.8-1.4l.1-.2c.2-.5.5-.9.7-1.4l.7.1-.7-.3c.2-.5.4-.9.6-1.3l.7.1-.7-.3c.2-.4.3-.8.5-1.2l.7.1-.7-.3c.2-.4.3-.9.5-1.3l.1-.3a6.47,6.47,0,0,0,.4-1.3h.7l-.7-.2c.1-.4.3-.9.4-1.3h.7l-.7-.2a7.37,7.37,0,0,1,.4-1.4l.1-.3c.1-.5.2-.9.3-1.4l.7-.1-.7-.1c.1-.4.2-.9.3-1.3l.7-.1-.7-.1a7.84,7.84,0,0,0,.2-1.4v-.3c.1-.5.1-1,.2-1.4l.7-.1-.7-.1a6.6,6.6,0,0,0,.1-1.4V128c0-.5.1-1,.1-1.4v-.2c0-.6.1-1.1.1-1.6l.7-.1h-.7v-3.4a7.57,7.57,0,0,0-.1-1.5l.7-.2H189c0-.5-.1-.9-.1-1.4l.7-.3-.7.1c0-.5-.1-1-.1-1.5v-.3c-.1-.5-.1-1-.2-1.5a10.4,10.4,0,0,1-.2-1.5V113c-.1-.5-.2-1-.3-1.4l-.1-.3-.3-1.5a6.58,6.58,0,0,0-.4-1.5l.6-.4-.7.2a7.37,7.37,0,0,0-.4-1.4l-.1-.3c-.1-.5-.3-.9-.4-1.4s-.3-1-.5-1.4l.6-.5-.7.2c-.2-.4-.3-.9-.5-1.3l-.1-.3c-.2-.4-.4-.9-.6-1.3s-.4-.9-.6-1.3l.5-.5-.6.3-.6-1.2-.1-.2c-.2-.4-.4-.8-.7-1.3s-.5-.8-.7-1.2l.5-.5-.6.4a6.22,6.22,0,0,0-.8-1.2l.4-.6-.6.4c-.3-.4-.5-.8-.8-1.2a37.17,37.17,0,0,0-4.1-4.8,6.88,6.88,0,0,0-1.3-1.1,27.49,27.49,0,0,0-5.3-3.6,13.9,13.9,0,0,0-2.8-1.2c-.5-.2-.9-.3-1.4-.5a14,14,0,0,0-2.8-.6c-.2,0-.5-.1-.7-.1a13.13,13.13,0,0,0-2.8-.1h-1.4a26.69,26.69,0,0,1,9,5.4l3,2.7L165.4,87l-1.8-.6-1.2-.3c-.4-.1-.8-.1-1.2-.2a1.27,1.27,0,0,1-.6-.1,10.87,10.87,0,0,0-1.8-.1l-9.3.2h-1.2c-.3,0-.7.1-1,.1l-.3-.7.1.7c-.2,0-.3.1-.5.1l-1.1.2a4.54,4.54,0,0,0-.8.2l-.3.1-.9.3-.3-.6.2.7c-.4.1-.7.3-1.1.4-.1,0-.2.1-.3.2l-.4.2c-.1.1-.3.1-.4.2l-.3.2a25.3,25.3,0,0,0-9.1,8.4,10.47,10.47,0,0,1-.8,1.1l-.2.3c-.2.4-.5.8-.7,1.2l-.7-.2.6.4c-.2.4-.4.7-.6,1.1l-.1.3-.6,1.2-.7-.1.7.3a6.89,6.89,0,0,0-.4,1l-.1.3a4.87,4.87,0,0,0-.4,1.1c-.2.5-.3.9-.5,1.3l-.1.3-.3.9-.1.3a5.64,5.64,0,0,1-.4,1.2h-.7l.7.2c-.1.4-.2.7-.3,1.1l-.1.4a3.55,3.55,0,0,0-.2,1l-.1.3a5.07,5.07,0,0,0-.2,1.3l-.1.3c-.1.3-.1.7-.2,1l-.1.4c-.1.4-.1.8-.2,1.2-.1.6-.1,1-.2,1.4v.4c0,.3-.1.7-.1,1v.4a5.7,5.7,0,0,1-.1,1.3l-.7.1h.7v4.4a3.75,3.75,0,0,0,.1,1.1v.4c0,.4.1.8.1,1.1l-.7.3.7-.1c0,.4.1.7.1,1.1l-.7.2.7-.1.9,4.7,1.6,5.5.5,1.3c.1.2.2.5.3.7l2.1,4.2a4.35,4.35,0,0,1,.4.7l.3.4a4.23,4.23,0,0,0,.5.7l.3.5a7.63,7.63,0,0,0,.8,1.1c.2.3.4.5.6.8l.2.2c.2.2.3.4.5.6l-.4.7.6-.5c.2.2.4.5.6.7l-.4.6.5-.5a2.65,2.65,0,0,1,.5.6l.1.1.6.6-.4.7.5-.5a4.35,4.35,0,0,0,.7.6l-.3.7.5-.5c.2.2.4.3.5.5l.2.2c.2.2.4.3.6.5s.6.4.8.6l.2.1c.2.1.4.3.6.4l.2.1a2.51,2.51,0,0,0,.7.4,5.74,5.74,0,0,0,.7.4l.2.1.6.3.2.1c.2.1.5.2.7.3a4.87,4.87,0,0,1,.7.3l.2.1c.2.1.4.1.6.2l.2.1c.2.1.5.1.7.2v.7l.2-.7a1.27,1.27,0,0,0,.6.1l1,.2c.2,0,.4.1.6.1a2.81,2.81,0,0,0,.8.1l.1.7.1-.7h1.2l.2.7V159h.7l9.3-.2a17.11,17.11,0,0,0,6.7-1.4Z" transform="translate(-21.51 -41.9)"/><path class="cls-8" d="M130,152.2c-12-16.6-12.4-43.7-.9-60.4s30.6-16.8,42.6-.2,12.4,43.7.9,60.4S142,168.8,130,152.2Z" transform="translate(-21.51 -41.9)"/><path class="cls-7" d="M151.4,165.4c-8.2,0-16-4.5-22-12.7-12.2-16.8-12.6-44.3-.9-61.2,5.7-8.2,13.3-12.8,21.5-12.9h.3c8.2,0,16,4.5,22,12.7,12.2,16.8,12.6,44.3.9,61.2-5.7,8.2-13.3,12.8-21.5,12.9ZM150.3,80H150c-7.7.1-15,4.5-20.4,12.3-11.3,16.5-10.9,43.2.9,59.6h0c5.7,7.9,13.2,12.2,21.1,12.1,7.7-.1,15-4.5,20.4-12.3,11.3-16.5,10.9-43.2-.9-59.6C165.5,84.3,158.1,80,150.3,80Z" transform="translate(-21.51 -41.9)"/><path class="cls-9" d="M166.5,99.2c-9-12.5-23.3-12.4-31.9.1s-8.3,32.8.7,45.3,23.3,12.4,31.9-.1,8.3-32.8-.7-45.3" transform="translate(-21.51 -41.9)"/><polygon class="cls-7" points="452.39 139.9 451.19 139 456.19 132.7 461.8 138.5 460.8 139.5 456.3 134.9 452.39 139.9"/><path class="cls-10" d="M226.1,84.4a3.58,3.58,0,0,0-1.1.4c-.2.1-.4.1-.5.2a4.88,4.88,0,0,1-.7.3c-.1,0-.2.1-.3.2a27.2,27.2,0,0,0-9.7,8.1c-.3.4-.5.7-.8,1.1-.1.1-.1.2-.2.3-.3.4-.5.8-.8,1.2l-.1.1c-.2.4-.4.7-.6,1.1,0,.1-.1.2-.1.3a7.46,7.46,0,0,1-.7,1.2V99c0,.1-.1.1-.1.2-.1.3-.3.6-.4.9-.1.1-.1.2-.2.3-.2.4-.3.7-.5,1.1v.1c-.2.4-.3.8-.5,1.2,0,.1-.1.2-.1.3l-.3.9c0,.1-.1.2-.1.3-.1.4-.3.8-.4,1.2,0,.1,0,.1-.1.2-.1.4-.2.7-.3,1.1,0,.1-.1.2-.1.4s-.2.7-.3,1a.37.37,0,0,1-.1.3c-.1.4-.2.8-.3,1.3a.37.37,0,0,1-.1.3c-.1.3-.1.7-.2,1a.6.6,0,0,1-.1.4c-.1.4-.1.8-.2,1.2v.1c-.1.4-.1.9-.2,1.3v.4c0,.3-.1.7-.1,1v.4c0,.4-.1.9-.1,1.3v.1a4.87,4.87,0,0,1-.1,1.2v4.9a4.87,4.87,0,0,0,.1,1.2v.2c0,.4.1.8.1,1.1v.2a1.27,1.27,0,0,0,.1.6c0,.3.1.5.1.8s.1.4.1.7.1.5.1.8.1.4.1.7.1.5.1.8.1.4.1.7.1.5.2.8.1.4.1.7.1.5.2.8.1.4.2.6.1.5.2.8.1.4.2.6.1.5.2.7.1.4.2.6.2.5.3.7.1.4.2.6.2.5.3.7a1.42,1.42,0,0,1,.2.6c.1.2.2.5.3.7a1.42,1.42,0,0,1,.2.6c.1.2.2.5.3.7l.3.6a2.51,2.51,0,0,0,.4.7,2.19,2.19,0,0,0,.3.5,4.35,4.35,0,0,0,.4.7.76.76,0,0,1,.2.4v.1c.2.3.3.5.5.8a.76.76,0,0,1,.2.4,8.34,8.34,0,0,0,.8,1.2l.6.9.2.2c.2.2.3.4.5.6l.2.2c.2.3.4.5.6.8l.1.1a2.65,2.65,0,0,1,.5.6l.2.2c.2.2.3.4.5.6,0,.1.1.1.1.2a4.62,4.62,0,0,0,.7.7l.2.2c.2.2.4.3.5.5l.2.2a2.65,2.65,0,0,0,.6.5l.1.1c.2.2.5.4.7.6l.2.2a2.18,2.18,0,0,1,.5.4l.2.2c.2.2.5.3.7.5h0c.2.2.5.3.7.5l.2.1.6.3.2.1c.2.1.5.3.7.4l.1.1.6.3.2.1.6.3a.1.1,0,0,1,.1.1h0c.2.1.5.2.7.3l.2.1c.2.1.4.1.6.2l.2.1a.9.9,0,0,0,.5.1l.2.1a1.27,1.27,0,0,0,.6.1h.1a1.7,1.7,0,0,0,.7.1h.2a4.33,4.33,0,0,1,.5.1h.3a.75.75,0,0,1,.5.1h.9l5.2.2,4.2.2h0a21.41,21.41,0,0,0,7.1-1,23.34,23.34,0,0,1-16.5,6.1l9.4.4c7.7.3,15.5-3.4,21.5-11.4.3-.5.7-.9,1-1.4l.1-.1c.3-.5.6-.9.9-1.4l.1-.2a10,10,0,0,0,.8-1.4c0-.1.1-.1.1-.2.3-.5.5-.9.8-1.4a.1.1,0,0,1,.1-.1c.1,0,0-.1.1-.1.2-.4.4-.8.6-1.3,0-.1.1-.1.1-.2a6.12,6.12,0,0,0,.5-1.2c0-.1,0-.1.1-.2a6.94,6.94,0,0,0,.5-1.3l.1-.3c.2-.4.3-.9.5-1.4,0-.1,0-.1.1-.2.1-.4.3-.9.4-1.3,0-.1,0-.1.1-.2.1-.5.3-.9.4-1.4,0-.1.1-.2.1-.3.1-.5.3-.9.4-1.4v-.2c.1-.5.2-.9.3-1.4v-.2c.1-.5.2-1,.3-1.4a.37.37,0,0,1,.1-.3,7.72,7.72,0,0,0,.2-1.5v-.2c.1-.5.1-.9.2-1.4v-.2c.1-.5.1-1,.2-1.5v-.3c0-.5.1-1,.1-1.5v-.2c0-.5.1-1,.1-1.4v-5.3c0-.5-.1-1-.1-1.5v-.3c0-.5-.1-1-.1-1.5V116c-.1-.5-.1-1-.2-1.4v-.3c-.1-.5-.1-1-.2-1.5v-.3l-.3-1.5h0c-.1-.5-.2-.9-.3-1.4a.37.37,0,0,0-.1-.3c-.1-.5-.2-1-.3-1.4a.37.37,0,0,0-.1-.3c-.1-.5-.3-1-.4-1.5V106c-.1-.5-.3-.9-.4-1.4,0-.1-.1-.2-.1-.3-.2-.5-.3-.9-.5-1.4,0-.1-.1-.2-.1-.3-.2-.5-.3-.9-.5-1.4v-.1c-.2-.5-.4-.9-.6-1.3a.35.35,0,0,0-.1-.2c-.2-.4-.4-.9-.6-1.3,0-.1-.1-.2-.1-.3a8.26,8.26,0,0,0-.7-1.3h0c-.2-.4-.5-.9-.7-1.3l-.1-.1a.1.1,0,0,0-.1-.1c-.2-.4-.5-.8-.7-1.2l-.1-.2c-.3-.4-.5-.8-.8-1.2a34.77,34.77,0,0,0-4.1-5.2,15.93,15.93,0,0,0-1.3-1.3,27.44,27.44,0,0,0-5.4-4.1c-.9-.5-1.9-1-2.8-1.4-.5-.2-1-.4-1.4-.6-1-.3-1.9-.6-2.9-.8a1.7,1.7,0,0,0-.7-.1,15.26,15.26,0,0,0-3-.3l-9.4-.4c5.7.3,11.4,2.8,16.4,7.6h0a14.58,14.58,0,0,0-1.9-.7c-.4-.1-.8-.3-1.3-.4l-1.3-.3c-.2,0-.4-.1-.6-.1a12.25,12.25,0,0,0-1.9-.2l-4.2-.2-5.2-.2h-1.3a4.1,4.1,0,0,0-1.1.1h-.2c-.2,0-.5.1-.7.1a.75.75,0,0,0-.5.1c-.1,0-.3.1-.4.1-.3.1-.6.1-.8.2s-.2.1-.3.1c-.1-.4-.4-.3-.8-.2Z" transform="translate(-21.51 -41.9)"/><path class="cls-11" d="M210.2,150.5c-11.7-17.5-11.2-44.8.9-61s31.5-15.1,43.1,2.5,11.2,44.8-.9,61S221.9,168,210.2,150.5Z" transform="translate(-21.51 -41.9)"/><path class="cls-12" d="M248.7,99.3c-8.7-13.1-23.2-14-32.3-1.9s-9.4,32.6-.7,45.7,23.2,14,32.3,1.8,9.4-32.4.7-45.6" transform="translate(-21.51 -41.9)"/><path class="cls-13" d="M242.3,165.9h-1l-9.4-.4h-.1c-8.4-.4-16.2-5.4-22-14.2-11.8-17.7-11.4-45.4.9-61.8,5.9-7.9,13.7-12,22-11.7h.1l9.4.4c1,0,2,.2,3,.3a2.35,2.35,0,0,1,.8.2,17.1,17.1,0,0,1,3,.9l1.5.6a15.93,15.93,0,0,1,2.9,1.5,32,32,0,0,1,5.5,4.2,15.93,15.93,0,0,1,1.3,1.3,36.25,36.25,0,0,1,4.2,5.3,14.8,14.8,0,0,1,.8,1.3l.1.2a5.39,5.39,0,0,1,.7,1.3l.1.2a9.15,9.15,0,0,1,.7,1.4c.2.5.5.9.7,1.4l.1.3c.2.4.4.9.6,1.3l.1.3c.2.4.4.9.6,1.4l.6,1.5.1.3c.2.5.3.9.5,1.4v.1a13.08,13.08,0,0,0,.5,1.5,12.44,12.44,0,0,1,.4,1.6l.1.3.3,1.5h0v.1c.1.6.2,1.1.3,1.6s.2,1.1.3,1.6v.3a7.72,7.72,0,0,1,.2,1.5v.3c.1.5.1,1,.2,1.5s.1,1.2.2,1.7v.3c0,.5.1,1,.1,1.5v.2a7.57,7.57,0,0,0,.1,1.5v3.6a6.62,6.62,0,0,1-.1,1.5v.2c0,.5-.1,1-.1,1.5v.3a7.72,7.72,0,0,1-.2,1.5v.2c-.1.5-.1.9-.2,1.4l-.7.1.7.1a7.72,7.72,0,0,0-.2,1.5v.3l-.3,1.5v.1c-.1.5-.2,1-.3,1.4v.2a5.73,5.73,0,0,1-.4,1.4l-.1.3c-.1.5-.3.9-.4,1.4l-.1.2c-.1.4-.3.9-.4,1.3l-.1.2c-.2.5-.3.9-.5,1.4l-.1.3a6.94,6.94,0,0,0-.5,1.3l-.1.2c-.2.4-.4.8-.6,1.3l-.1.2c-.2.4-.4.9-.6,1.3l-.1.1c-.3.6-.6,1.1-.8,1.5l-.1.2c-.3.5-.5.9-.8,1.4l-.1.1c-.3.5-.6,1-.9,1.4a9.73,9.73,0,0,1-1.1,1.5C257.6,161.8,250.2,165.9,242.3,165.9Zm-10-1.8,9,.4c7.8.3,15.2-3.6,20.8-11.1a17,17,0,0,0,1-1.4,8,8,0,0,0,.9-1.4l.7.2-.6-.4c.3-.4.5-.9.8-1.4l.1-.2a9.15,9.15,0,0,0,.7-1.4l.7.1-.6-.3c.2-.5.4-.9.6-1.3l.1-.1c.2-.5.4-.9.6-1.3l.7.1-.7-.3a6.94,6.94,0,0,0,.5-1.3l.1-.2a7.84,7.84,0,0,0,.5-1.4h.7l-.7-.2c.1-.4.3-.9.4-1.3h.7l-.7-.2c.1-.5.3-.9.4-1.4l.1-.3a7.37,7.37,0,0,1,.4-1.4v-.2c.1-.4.2-.9.3-1.3l.7-.1-.7-.1c.1-.5.2-1,.3-1.4l.1-.3a7.84,7.84,0,0,0,.2-1.4l.7-.1-.7-.1c.1-.5.1-.9.2-1.4l.7-.1-.7-.1c.1-.5.1-1,.2-1.5v-.3c0-.5.1-1,.1-1.5l.7-.1h-.7c0-.5.1-.9.1-1.4l.7-.2H271v-3.3l.7-.2H271v-1.4l.7-.3H271c0-.5-.1-1-.1-1.5V118c0-.5-.1-1-.1-1.5s-.1-1.1-.2-1.6l.7-.3-.7.1c-.1-.5-.1-1-.2-1.5v-.3l-.3-1.5q-.15-.9-.3-1.5l.6-.4-.7.2c-.1-.5-.2-.9-.3-1.4l-.1-.3c-.1-.5-.3-1-.4-1.4a8.33,8.33,0,0,1-.4-1.5l.6-.5-.7.2a7.84,7.84,0,0,0-.5-1.4l-.1-.2c-.2-.6-.4-1-.6-1.5s-.4-.9-.6-1.4l-.1-.2c-.2-.4-.4-.9-.6-1.3l-.1-.3c-.2-.4-.4-.9-.6-1.3s-.5-.9-.7-1.3l.5-.5-.6.4a14.8,14.8,0,0,0-.8-1.3l-.1-.2c-.3-.5-.6-.9-.8-1.3a49.92,49.92,0,0,0-4-5.1l-1.2-1.2a28.79,28.79,0,0,0-5.2-4c-.9-.5-1.8-1-2.7-1.4-.5-.2-.9-.4-1.4-.6-.9-.3-1.9-.6-2.8-.8a1.7,1.7,0,0,0-.7-.1,13.58,13.58,0,0,0-2.9-.3l-9.3-.4h0c-7.8-.4-15.3,3.6-20.9,11.1-11.9,15.9-12.3,42.9-.9,60.1,5.6,8.5,13.2,13.3,21.3,13.6a1.24,1.24,0,0,1,.3.2Z" transform="translate(-21.51 -41.9)"/><path class="cls-5" d="M232,104l11.2,18.1-3.4,2c-2.4,1.4-4.7,2.8-7.1,4.2a1,1,0,0,1-.9.1c-3.6-2-7.1-4.1-10.8-6.2Z" transform="translate(-21.51 -41.9)"/><path class="cls-5" d="M232.1,139.7l-11-15,.1-.1c1.1.6,2.2,1.2,3.3,1.9,2.2,1.3,4.5,2.5,6.7,3.8a1.35,1.35,0,0,0,1.7,0c3.1-1.9,6.2-3.7,9.4-5.5a1.42,1.42,0,0,1,.6-.2Z" transform="translate(-21.51 -41.9)"/><path class="cls-14" d="M306.4,84.5a5.64,5.64,0,0,0-1.2.4c-.2.1-.4.1-.6.2s-.5.2-.7.3-.2.1-.3.2a25.9,25.9,0,0,0-9.9,8.1,7.63,7.63,0,0,0-.8,1.1c-.1.1-.1.2-.2.3-.3.4-.5.8-.8,1.2l-.1.1a6.73,6.73,0,0,1-.7,1.1c-.1.1-.1.2-.2.3-.2.4-.5.8-.7,1.2v.1c0,.1-.1.1-.1.2a3.55,3.55,0,0,0-.4.9c-.1.1-.1.2-.2.3-.2.4-.3.7-.5,1.1v.1c-.2.4-.3.8-.5,1.2,0,.1-.1.2-.1.3l-.3.9c0,.1-.1.2-.1.3-.1.4-.3.8-.4,1.2,0,.1,0,.1-.1.2-.1.4-.2.7-.3,1.1,0,.1-.1.2-.1.4s-.2.7-.3,1a.37.37,0,0,1-.1.3c-.1.4-.2.8-.3,1.3a.37.37,0,0,1-.1.3c-.1.3-.1.7-.2,1a.6.6,0,0,1-.1.4c-.1.4-.1.8-.2,1.2v.1c-.1.4-.1.9-.2,1.3v.4c0,.3-.1.7-.1,1v.4c0,.4-.1.9-.1,1.3v.1a4.87,4.87,0,0,1-.1,1.2v4.9a4.87,4.87,0,0,0,.1,1.2v.2c0,.4.1.8.1,1.1v.2a1.27,1.27,0,0,0,.1.6c0,.3.1.5.1.8s.1.4.1.7.1.5.1.8.1.4.1.7.1.5.1.8.1.4.1.7.1.5.2.8a2.54,2.54,0,0,0,.2.7c.1.3.1.5.2.8s.1.4.2.6.1.5.2.8.1.4.2.6a1.85,1.85,0,0,1,.2.7c.1.2.1.4.2.6s.2.5.3.7.1.4.2.6.2.5.3.7a1.42,1.42,0,0,1,.2.6c.1.2.2.5.3.7l.3.6c.1.2.2.5.3.7l.3.6a2.51,2.51,0,0,0,.4.7,2.19,2.19,0,0,0,.3.5,4.35,4.35,0,0,0,.4.7.76.76,0,0,1,.2.4v.1c.2.3.3.5.5.8a.76.76,0,0,1,.2.4,8.34,8.34,0,0,0,.8,1.2l.6.9.2.2c.2.2.3.4.5.6l.2.2c.2.3.4.5.6.8l.1.1.6.6.2.2a2.65,2.65,0,0,1,.5.6l.2.2.7.7.2.2c.2.2.4.3.6.5l.2.2a2.65,2.65,0,0,0,.6.5l.1.1c.2.2.5.4.7.6l.2.2c.2.1.4.3.6.4l.2.2c.2.2.5.3.7.5h0c.2.2.5.3.7.5l.2.1.6.3.2.1c.3.1.5.3.8.4l.1.1.6.3.2.1.6.3a.1.1,0,0,1,.1.1h0c.2.1.5.2.7.3l.2.1c.2.1.4.1.6.2l.3.1a1.09,1.09,0,0,0,.5.1l.2.1a1.27,1.27,0,0,0,.6.1h.1a2.2,2.2,0,0,0,.8.1h.2c.2,0,.4.1.6.1h.3a.75.75,0,0,1,.5.1h1l5.3.2,4.3.2h0a22.6,22.6,0,0,0,7.3-1,24.48,24.48,0,0,1-16.9,6.1l9.6.4c7.9.3,15.8-3.4,22-11.4.3-.5.7-.9,1-1.4l.1-.1c.3-.4.6-.9.9-1.4l.1-.2a10,10,0,0,0,.8-1.4c0-.1.1-.1.1-.2.3-.5.5-.9.8-1.4a.1.1,0,0,1,.1-.1c.1,0,0-.1.1-.1.2-.4.4-.8.6-1.3,0-.1.1-.1.1-.2l.6-1.2c0-.1,0-.1.1-.2a6.94,6.94,0,0,0,.5-1.3l.1-.3c.2-.4.3-.9.5-1.3,0-.1,0-.1.1-.2a6.47,6.47,0,0,0,.4-1.3c0-.1,0-.1.1-.2.1-.5.3-.9.4-1.4,0-.1.1-.2.1-.3.1-.5.3-.9.4-1.4v-.2c.1-.4.2-.9.3-1.4v-.2c.1-.5.2-1,.3-1.4a.37.37,0,0,1,.1-.3,7.72,7.72,0,0,0,.2-1.5v-.2c.1-.5.1-.9.2-1.4v-.2c.1-.5.1-1,.2-1.5V128c0-.5.1-1,.1-1.5v-.2c0-.5.1-1,.1-1.4v-3.7a6.15,6.15,0,0,0-.1-1.4v-.2c0-.5-.1-1-.1-1.5v-.3c0-.5-.1-1-.1-1.5v-.1c-.1-.5-.1-1-.2-1.4v-.2c-.1-.5-.1-1-.2-1.5a.37.37,0,0,0-.1-.3l-.3-1.5v-.1c-.1-.5-.2-.9-.3-1.4a.37.37,0,0,0-.1-.3,5.73,5.73,0,0,0-.4-1.4c0-.1-.1-.2-.1-.3-.1-.5-.3-1-.4-1.5v-.1c-.1-.5-.3-.9-.4-1.4,0-.1-.1-.2-.1-.3-.2-.5-.3-.9-.5-1.4,0-.1-.1-.2-.1-.3a7.84,7.84,0,0,1-.5-1.4v-.1c-.2-.5-.4-.9-.6-1.3a.35.35,0,0,0-.1-.2c-.2-.4-.4-.9-.6-1.3,0-.1-.1-.2-.1-.3a8.26,8.26,0,0,0-.7-1.3h0c-.2-.4-.5-.9-.7-1.3l-.1-.1a.1.1,0,0,0-.1-.1c-.2-.4-.5-.8-.7-1.2l-.1-.2c-.3-.4-.5-.8-.8-1.2a43.34,43.34,0,0,0-4.2-5.2L339,86.3a31.47,31.47,0,0,0-5.5-4.1,25.91,25.91,0,0,0-2.9-1.4l-1.5-.6c-1-.3-2-.6-3-.8a2.2,2.2,0,0,0-.8-.1,15.26,15.26,0,0,0-3-.3l-9.6-.4a26.74,26.74,0,0,1,16.8,7.5h0a14.58,14.58,0,0,0-1.9-.7c-.4-.1-.9-.3-1.3-.4l-1.3-.3c-.2,0-.4-.1-.7-.1a13.55,13.55,0,0,0-2-.2l-4.3-.2-5.3-.2h-1.3a4.1,4.1,0,0,0-1.1.1h-.2c-.2,0-.5.1-.7.1a.75.75,0,0,0-.5.1c-.1,0-.3.1-.4.1-.3.1-.6.1-.9.2-.1,0-.2.1-.3.1a3,3,0,0,1-1,.2C306.5,84.5,306.4,84.5,306.4,84.5Z" transform="translate(-21.51 -41.9)"/><path class="cls-15" d="M290.1,150.5c-11.9-17.5-11.5-44.8.9-60.9s32.2-15,44.1,2.5,11.5,44.8-.9,60.9S302,168,290.1,150.5Z" transform="translate(-21.51 -41.9)"/><path class="cls-16" d="M329.5,99.4c-8.9-13.1-23.8-13.9-33.1-1.8s-9.6,32.5-.7,45.7,23.8,13.9,33.1,1.8,9.7-32.6.7-45.7" transform="translate(-21.51 -41.9)"/><path class="cls-17" d="M322.9,165.9h-1l-9.6-.4h0c-8.7-.4-16.7-5.4-22.7-14.2-12.1-17.7-11.6-45.4.9-61.7,6.1-7.9,14.1-12,22.5-11.7h0l9.6.4c1,0,2.1.2,3.1.3.3,0,.5.1.8.1a18.12,18.12,0,0,1,3.1.9l1.5.6a21,21,0,0,1,3,1.5,32.76,32.76,0,0,1,5.6,4.2,15.93,15.93,0,0,1,1.3,1.3,36.87,36.87,0,0,1,4.3,5.3,5.67,5.67,0,0,1,.8,1.3l.2.2c.3.4.5.8.8,1.2l.1.2a9.15,9.15,0,0,1,.7,1.4,9.15,9.15,0,0,1,.7,1.4l.1.3c.2.4.4.9.6,1.3l.1.2c.2.5.4,1,.6,1.4l.6,1.5.1.3c.2.5.3.9.5,1.4l.1.3a7.37,7.37,0,0,1,.4,1.4,12.44,12.44,0,0,1,.4,1.6l.1.3a8.33,8.33,0,0,0,.4,1.5v.2c.1.6.2,1,.3,1.5s.2,1.1.3,1.6l.1.3a7.72,7.72,0,0,1,.2,1.5v.2c.1.6.1,1.1.2,1.5v.1a7.57,7.57,0,0,1,.1,1.5v.3c0,.5.1,1,.1,1.5v.2a7.57,7.57,0,0,0,.1,1.5v3.7a6.15,6.15,0,0,1-.1,1.4v.2c0,.5-.1,1-.1,1.5v.3a7.72,7.72,0,0,1-.2,1.5v.2c-.1.5-.1.9-.2,1.4v.2a7.72,7.72,0,0,0-.2,1.5v.3l-.3,1.5v.1c-.1.5-.2,1-.3,1.4v.2a5.73,5.73,0,0,1-.4,1.4l-.1.3c-.1.5-.3.9-.4,1.4l-.1.2c-.1.4-.3.9-.4,1.3l-.1.2c-.2.5-.3.9-.5,1.4l-.1.3c-.2.4-.4.9-.6,1.3l-.1.2c-.2.4-.4.8-.6,1.3l-.1.2c-.2.4-.4.9-.6,1.3l-.1.1c-.3.6-.6,1.1-.8,1.5l-.1.1c-.3.6-.6,1-.9,1.5l-.1.2c-.3.5-.6.9-.9,1.4s-.8,1.1-1.1,1.5C338.6,161.7,331,165.9,322.9,165.9ZM312.6,164l9.4.4c8,.3,15.6-3.6,21.4-11.1a17,17,0,0,0,1-1.4c.4-.5.7-1,1-1.4l.7.2-.6-.4a6.38,6.38,0,0,0,.8-1.4l.1-.2c.3-.5.5-.9.8-1.4l.7.1-.6-.3c.2-.5.5-.9.7-1.3l.7.1-.6-.3.6-1.2.7.1-.7-.3a6.94,6.94,0,0,0,.5-1.3l.1-.3c.2-.4.3-.9.5-1.3h.7l-.7-.2c.1-.4.3-.9.4-1.3h.7l-.7-.2c.1-.5.3-.9.4-1.4l.1-.3c.1-.5.3-.9.4-1.4h.7l-.7-.2c.1-.4.2-.9.3-1.3l.7-.1-.7-.1c.1-.5.2-.9.3-1.4l.1-.3a7.84,7.84,0,0,0,.2-1.4l.7-.1-.7-.1c.1-.5.1-.9.2-1.4l.7-.1-.7-.1c.1-.5.1-1,.2-1.5v-.3c0-.5.1-1,.1-1.5l.7-.1h-.7c0-.5.1-.9.1-1.4v-3.5l.7-.2h-.7V120l.7-.3h-.7c0-.5-.1-1-.1-1.5v-.3c0-.5-.1-1-.1-1.5s-.1-1.1-.2-1.6v-.2c-.1-.5-.1-1-.2-1.5v-.2c-.1-.6-.2-1.1-.3-1.6s-.2-1.1-.3-1.5l-.1-.2c-.1-.5-.2-.9-.3-1.4l-.1-.3c-.1-.5-.3-1-.4-1.4s-.3-1-.5-1.5l-.1-.3a7.84,7.84,0,0,0-.5-1.4l-.1-.3c-.2-.5-.3-.9-.5-1.4s-.4-.9-.6-1.4l-.1-.2c-.2-.4-.4-.9-.6-1.3l-.1-.3a8.26,8.26,0,0,0-.7-1.3c-.2-.5-.5-.9-.7-1.3l.5-.5-.6.4a14.8,14.8,0,0,0-.8-1.3l-.1-.2c-.3-.4-.5-.8-.8-1.2a39.81,39.81,0,0,0-4.1-5.1,15.38,15.38,0,0,0-1.3-1.2,27,27,0,0,0-5.4-4,24.37,24.37,0,0,0-2.8-1.4c-.5-.2-.9-.4-1.4-.6a24.54,24.54,0,0,0-2.9-.8,1.7,1.7,0,0,0-.7-.1,14.28,14.28,0,0,0-2.9-.3l-9.5-.4h0c-8-.4-15.6,3.6-21.5,11.1-12.2,15.9-12.6,42.8-.9,60,5.7,8.7,13.5,13.5,21.8,13.8Z" transform="translate(-21.51 -41.9)"/><path class="cls-5" d="M309.6,110.2v-3.5h6v3.2c1.5.2,3.3.3,4.7.6l-.8,6.7a38.25,38.25,0,0,0-5.9-1c-.9,0-1.5.2-1.5.9s.6.7,1.4,1.1c2.4,1.1,7.4,2.5,7.4,7.9,0,4-2,6.8-5.3,7.7V137h-6v-2.9a35.45,35.45,0,0,1-4.7-.8l.5-6.5a28.82,28.82,0,0,0,6.5,1.3c.8,0,1.1-.3,1.1-.8s-.5-.8-1.2-1.2c-2.4-1.2-7.6-2.4-7.6-8.3C304.2,113.8,306.1,111.2,309.6,110.2Z" transform="translate(-21.51 -41.9)"/><path class="cls-18" d="M55.8,139H54.4v-6.2h1.4Zm0-9.1H54.4v-7.2h1.4Zm0-10H54.4v-7.2h1.4Zm0-10H54.4v-7.2h1.4Zm0-10.1H54.4V92.7h1.4Zm0-10H54.4V82.6h1.4Zm0-10H54.4V72.6h1.4Zm0-10H54.4V62.6h1.4Zm0-10.1H54.4V57.2a16.09,16.09,0,0,1,.8-4.8l1.4.4a12.91,12.91,0,0,0-.7,4.3Zm1.8-9.3-1.3-.7a15.5,15.5,0,0,1,5.1-5.4l.8,1.2a13.53,13.53,0,0,0-4.6,4.9Zm7-6.1L64.1,43a14.87,14.87,0,0,1,5.5-1h1.8v1.4H69.6a10.84,10.84,0,0,0-5,.9Zm237.5-1h-7.2V41.9h7.2Zm-10,0h-7.2V41.9h7.2Zm-10.1,0h-7.2V41.9H282Zm-10,0h-7.2V41.9H272Zm-10,0h-7.2V41.9H262Zm-10,0h-7.2V41.9H252Zm-10.1,0h-7.2V41.9h7.2Zm-10,0h-7.2V41.9h7.2Zm-10,0h-7.2V41.9h7.2Zm-10.1,0h-7.2V41.9h7.2Zm-10,0h-7.2V41.9h7.2Zm-10,0h-7.2V41.9h7.2Zm-10.1,0h-7.2V41.9h7.2Zm-10,0h-7.2V41.9h7.2Zm-10,0h-7.2V41.9h7.2Zm-10,0h-7.2V41.9h7.2Zm-10.1,0h-7.2V41.9h7.2Zm-10,0h-7.2V41.9h7.2Zm-10,0h-7.2V41.9h7.2Zm-10.1,0h-7.2V41.9h7.2Zm-10,0H94.3V41.9h7.2Zm-10,0H84.3V41.9h7.2Zm-10.1,0H74.2V41.9h7.2ZM478.1,72h-1.4V64.8h1.4Zm0-10h-1.4V54.8h1.4Zm-1.6-10a9.89,9.89,0,0,0-3-5.9l1-1a12.32,12.32,0,0,1,3.4,6.7Zm-5.1-7.4a10.54,10.54,0,0,0-4.9-1.3h-1.7V41.9h1.7a11.82,11.82,0,0,1,5.5,1.4ZM462,43.3h-7.2V41.9H462Zm-10,0h-7.2V41.9H452Zm-10.1,0h-7.2V41.9h7.2Zm-10,0h-7.2V41.9h7.2Zm-10,0h-7.2V41.9h7.2Zm-10.1,0h-7.2V41.9h7.2Zm-10,0h-7.2V41.9h7.2Zm-10,0h-7.2V41.9h7.2Zm-10.1,0h-7.2V41.9h7.2Zm-10,0h-7.2V41.9h7.2Zm-10,0h-7.2V41.9h7.2Zm-10,0h-7.2V41.9h7.2Zm-10.1,0h-7.2V41.9h7.2Zm-10,0h-7.2V41.9h7.2Zm-10,0h-7.2V41.9h7.2Zm-10.1,0h-7.2V41.9h7.2Zm-10,0h-7.2V41.9h7.2Zm-10,0h-7.2V41.9h7.2Zm-10.1,0h-7.2V41.9h7.2Z" transform="translate(-21.51 -41.9)"/><path class="cls-18" d="M237.7,72h-1.4V64.8h1.4Zm0-10.1h-1.4V54.7h1.4Zm0-10h-1.4V44.7h1.4Z" transform="translate(-21.51 -41.9)"/><path class="cls-18" d="M155.5,72h-1.4V64.8h1.4Zm0-10.1h-1.4V54.7h1.4Zm0-10h-1.4V44.7h1.4Z" transform="translate(-21.51 -41.9)"/><path class="cls-7" d="M467.3,206.3h-1.7v-1.4h1.7a10.44,10.44,0,0,0,4.9-1.2l.7,1.3A12.42,12.42,0,0,1,467.3,206.3Zm-4.6,0h-7.2v-1.4h7.2Zm-10,0h-7.2v-1.4h7.2Zm-10.1,0h-7.2v-1.4h7.2Zm-10,0h-7.2v-1.4h7.2Zm-10,0h-7.2v-1.4h7.2Zm-10.1,0h-7.2v-1.4h7.2Zm-10,0h-7.2v-1.4h7.2Zm-10,0h-7.2v-1.4h7.2Zm-10.1,0h-7.2v-1.4h7.2Zm-10,0h-7.2v-1.4h7.2Zm-10,0h-7.2v-1.4h7.2Zm-10,0h-7.2v-1.4h7.2Zm-10.1,0h-7.2v-1.4h7.2Zm-10,0h-7.2v-1.4h7.2Zm-10,0h-7.2v-1.4h7.2Zm-10.1,0H305v-1.4h7.2Zm-10,0H295v-1.4h7.2Zm-10,0H285v-1.4h7.2Zm-10.1,0H275v-1.4h7.2v1.4Zm193.2-3.2-1-1a10.17,10.17,0,0,0,3-5.9l1.4.2a12.32,12.32,0,0,1-3.4,6.7Zm3.5-9.7h-1.4v-7.2h1.4Zm0-10h-1.4v-7.2h1.4ZM272.7,206.3h-7.2v-1.4h7.2Zm-10,0h-7.2v-1.4h7.2Zm-10.1,0h-7.2v-1.4h7.2Zm-10,0h-7.2v-1.4h7.2Zm-10,0h-7.2v-1.4h7.2Zm-10,0h-7.2v-1.4h7.2Zm-10.1,0h-7.2v-1.4h7.2Zm-10,0h-7.2v-1.4h7.2Zm-10,0h-7.2v-1.4h7.2Zm-10.1,0h-7.2v-1.4h7.2Zm-10,0h-7.2v-1.4h7.2Zm-10,0h-7.2v-1.4h7.2Zm-10.1,0h-7.2v-1.4h7.2Zm-10,0h-7.2v-1.4h7.2Zm-10,0h-7.2v-1.4h7.2Z" transform="translate(-21.51 -41.9)"/><path class="cls-7" d="M398.2,203.5h-1.4v-7.2h1.4Zm0-10.1h-1.4v-7.2h1.4Zm0-10h-1.4v-7.2h1.4Z" transform="translate(-21.51 -41.9)"/><path class="cls-7" d="M316.1,203.5h-1.4v-7.2h1.4Zm0-10.1h-1.4v-7.2h1.4Zm0-10h-1.4v-7.2h1.4Z" transform="translate(-21.51 -41.9)"/><polygon class="cls-7" points="371.8 139.9 370.69 139 375.69 132.7 381.3 138.5 380.19 139.5 375.8 134.9 371.8 139.9"/><polygon class="cls-7" points="289.69 139.9 288.6 139 293.6 132.7 299.19 138.5 298.1 139.5 293.69 134.9 289.69 139.9"/><polygon class="cls-18" points="33.49 98.9 28 93 29 92 33.4 96.7 37.4 91.6 38.49 92.5 33.49 98.9"/><path class="cls-19" d="M387.2,84.4a3.58,3.58,0,0,0-1.1.4c-.2.1-.4.1-.5.2a4.88,4.88,0,0,1-.7.3c-.1,0-.2.1-.3.2a27.2,27.2,0,0,0-9.7,8.1c-.3.4-.5.7-.8,1.1-.1.1-.1.2-.2.3-.3.4-.5.8-.8,1.2l-.1.1c-.2.4-.4.7-.6,1.1,0,.1-.1.2-.1.3a7.46,7.46,0,0,1-.7,1.2V99c0,.1-.1.1-.1.2-.1.3-.3.6-.4.9-.1.1-.1.2-.2.3-.2.4-.3.7-.5,1.1v.1c-.2.4-.3.8-.5,1.2,0,.1-.1.2-.1.3l-.3.9c0,.1-.1.2-.1.3-.1.4-.3.8-.4,1.2,0,.1,0,.1-.1.2-.1.4-.2.7-.3,1.1,0,.1-.1.2-.1.4s-.2.7-.3,1a.37.37,0,0,1-.1.3c-.1.4-.2.8-.3,1.3a.37.37,0,0,1-.1.3c-.1.3-.1.7-.2,1a.6.6,0,0,1-.1.4c-.1.4-.1.8-.2,1.2v.1c-.1.4-.1.9-.2,1.3v.4c0,.3-.1.7-.1,1v.4c0,.4-.1.9-.1,1.3v.1a4.87,4.87,0,0,1-.1,1.2v4.9a4.87,4.87,0,0,0,.1,1.2v.2c0,.4.1.8.1,1.1v.2a1.27,1.27,0,0,0,.1.6c0,.3.1.5.1.8s.1.4.1.7.1.5.1.8.1.4.1.7.1.5.1.8.1.4.1.7.1.5.2.8.1.4.1.7.1.5.2.8.1.4.2.6.1.5.2.8.1.4.2.6.1.5.2.7.1.4.2.6.2.5.3.7.1.4.2.6.2.5.3.7a1.42,1.42,0,0,1,.2.6c.1.2.2.5.3.7a1.42,1.42,0,0,1,.2.6c.1.2.2.5.3.7l.3.6a2.51,2.51,0,0,0,.4.7,2.19,2.19,0,0,0,.3.5,4.35,4.35,0,0,0,.4.7.76.76,0,0,1,.2.4v.1c.2.3.3.5.5.8a.76.76,0,0,1,.2.4,8.34,8.34,0,0,0,.8,1.2l.6.9.2.2c.2.2.3.4.5.6l.2.2c.2.3.4.5.6.8l.1.1a2.65,2.65,0,0,1,.5.6l.2.2c.2.2.3.4.5.6,0,.1.1.1.1.2a4.62,4.62,0,0,0,.7.7l.2.2c.2.2.4.3.5.5l.2.2a2.65,2.65,0,0,0,.6.5l.1.1c.2.2.5.4.7.6l.2.2a2.18,2.18,0,0,1,.5.4l.2.2c.2.2.5.3.7.5h0c.2.2.5.3.7.5l.2.1.6.3.2.1c.2.1.5.3.7.4l.1.1.6.3.2.1.6.3a.1.1,0,0,1,.1.1h0c.2.1.5.2.7.3l.2.1c.2.1.4.1.6.2l.2.1a.9.9,0,0,0,.5.1l.2.1a1.27,1.27,0,0,0,.6.1h.1a1.7,1.7,0,0,0,.7.1h.2a4.33,4.33,0,0,1,.5.1h.3a.75.75,0,0,1,.5.1h.9l5.2.2,4.2.2h0a21.41,21.41,0,0,0,7.1-1,23.34,23.34,0,0,1-16.5,6.1l9.4.4c7.7.3,15.5-3.4,21.5-11.4.3-.5.7-.9,1-1.4l.1-.1c.3-.5.6-.9.9-1.4l.1-.2a10,10,0,0,0,.8-1.4c0-.1.1-.1.1-.2.3-.5.5-.9.8-1.4a.1.1,0,0,1,.1-.1c.1,0,0-.1.1-.1.2-.4.4-.8.6-1.3,0-.1.1-.1.1-.2a6.12,6.12,0,0,0,.5-1.2c0-.1,0-.1.1-.2a6.94,6.94,0,0,0,.5-1.3l.1-.3c.2-.4.3-.9.5-1.4,0-.1,0-.1.1-.2.1-.4.3-.9.4-1.3,0-.1,0-.1.1-.2.1-.5.3-.9.4-1.4,0-.1.1-.2.1-.3.1-.5.3-.9.4-1.4v-.2c.1-.5.2-.9.3-1.4v-.2c.1-.5.2-1,.3-1.4a.37.37,0,0,1,.1-.3,7.72,7.72,0,0,0,.2-1.5v-.2c.1-.5.1-.9.2-1.4v-.2c.1-.5.1-1,.2-1.5v-.3c0-.5.1-1,.1-1.5v-.2c0-.5.1-1,.1-1.4v-5.3c0-.5-.1-1-.1-1.5v-.3c0-.5-.1-1-.1-1.5V116c-.1-.5-.1-1-.2-1.4v-.3c-.1-.5-.1-1-.2-1.5v-.3l-.3-1.5h0c-.1-.5-.2-.9-.3-1.4a.37.37,0,0,0-.1-.3c-.1-.5-.2-1-.3-1.4a.37.37,0,0,0-.1-.3c-.1-.5-.3-1-.4-1.5V106c-.1-.5-.3-.9-.4-1.4,0-.1-.1-.2-.1-.3-.2-.5-.3-.9-.5-1.4,0-.1-.1-.2-.1-.3-.2-.5-.3-.9-.5-1.4v-.1c-.2-.5-.4-.9-.6-1.3a.35.35,0,0,0-.1-.2c-.2-.4-.4-.9-.6-1.3,0-.1-.1-.2-.1-.3a8.26,8.26,0,0,0-.7-1.3h0c-.2-.4-.5-.9-.7-1.3l-.1-.1a.1.1,0,0,0-.1-.1c-.2-.4-.5-.8-.7-1.2l-.1-.2c-.3-.4-.5-.8-.8-1.2a34.77,34.77,0,0,0-4.1-5.2,15.93,15.93,0,0,0-1.3-1.3,27.44,27.44,0,0,0-5.4-4.1c-.9-.5-1.9-1-2.8-1.4-.5-.2-1-.4-1.4-.6-1-.3-1.9-.6-2.9-.8a1.7,1.7,0,0,0-.7-.1,15.26,15.26,0,0,0-3-.3l-9.4-.4c5.7.3,11.4,2.8,16.4,7.6h0a14.58,14.58,0,0,0-1.9-.7c-.4-.1-.8-.3-1.3-.4l-1.3-.3c-.2,0-.4-.1-.6-.1a12.25,12.25,0,0,0-1.9-.2l-4.2-.2-5.2-.2H392a4.1,4.1,0,0,0-1.1.1h-.2c-.2,0-.5.1-.7.1a.75.75,0,0,0-.5.1c-.1,0-.3.1-.4.1-.3.1-.6.1-.8.2s-.2.1-.3.1c-.1-.4-.4-.3-.8-.2Z" transform="translate(-21.51 -41.9)"/><path class="cls-20" d="M371.2,150.5c-11.7-17.5-11.2-44.8.9-61s31.5-15.1,43.1,2.5,11.2,44.8-.9,61S382.9,168,371.2,150.5Z" transform="translate(-21.51 -41.9)"/><path class="cls-21" d="M409.8,99.3c-8.7-13.1-23.2-14-32.3-1.9s-9.4,32.6-.7,45.7,23.2,14,32.3,1.8,9.4-32.4.7-45.6" transform="translate(-21.51 -41.9)"/><path class="cls-19" d="M403.3,165.9h-1l-9.4-.4h-.1c-8.4-.4-16.2-5.4-22-14.2-11.8-17.7-11.4-45.4.9-61.8,5.9-7.9,13.7-12,22-11.7h.1l9.4.4c1,0,2,.2,3,.3a2.35,2.35,0,0,1,.8.2,17.1,17.1,0,0,1,3,.9l1.5.6a15.93,15.93,0,0,1,2.9,1.5,32,32,0,0,1,5.5,4.2,15.93,15.93,0,0,1,1.3,1.3,36.25,36.25,0,0,1,4.2,5.3,14.8,14.8,0,0,1,.8,1.3l.1.2a5.39,5.39,0,0,1,.7,1.3l.1.2a9.15,9.15,0,0,1,.7,1.4c.2.5.5.9.7,1.4l.1.3c.2.4.4.9.6,1.3l.1.3c.2.4.4.9.6,1.4l.6,1.5.1.3c.2.5.3.9.5,1.4v.1a13.08,13.08,0,0,0,.5,1.5,12.44,12.44,0,0,1,.4,1.6l.1.3.3,1.5h0v.1c.1.6.2,1.1.3,1.6s.2,1.1.3,1.6v.3a7.72,7.72,0,0,1,.2,1.5v.3c.1.5.1,1,.2,1.5s.1,1.2.2,1.7v.3c0,.5.1,1,.1,1.5v.2a7.57,7.57,0,0,0,.1,1.5v3.6a6.62,6.62,0,0,1-.1,1.5v.2c0,.5-.1,1-.1,1.5v.3a7.72,7.72,0,0,1-.2,1.5v.2c-.1.5-.1.9-.2,1.4l-.7.1.7.1a7.72,7.72,0,0,0-.2,1.5v.3l-.3,1.5v.1c-.1.5-.2,1-.3,1.4v.2a5.73,5.73,0,0,1-.4,1.4l-.1.3c-.1.5-.3.9-.4,1.4l-.1.2c-.1.4-.3.9-.4,1.3l-.1.2c-.2.5-.3.9-.5,1.4l-.1.3a6.94,6.94,0,0,0-.5,1.3l-.1.2c-.2.4-.4.8-.6,1.3l-.1.2c-.2.4-.4.9-.6,1.3l-.1.1c-.3.6-.6,1.1-.8,1.5l-.1.2c-.3.5-.5.9-.8,1.4l-.1.1c-.3.5-.6,1-.9,1.4a9.73,9.73,0,0,1-1.1,1.5C418.6,161.8,411.2,165.9,403.3,165.9Zm-9.9-1.8,9,.4c7.8.3,15.2-3.6,20.8-11.1a17,17,0,0,0,1-1.4,8,8,0,0,0,.9-1.4l.7.2-.6-.4c.3-.4.5-.9.8-1.4l.1-.2a9.15,9.15,0,0,0,.7-1.4l.7.1-.6-.3c.2-.5.4-.9.6-1.3l.1-.1c.2-.5.4-.9.6-1.3l.7.1-.7-.3a6.94,6.94,0,0,0,.5-1.3l.1-.2a7.84,7.84,0,0,0,.5-1.4h.7l-.7-.2c.1-.4.3-.9.4-1.3h.7l-.7-.2c.1-.5.3-.9.4-1.4l.1-.3a7.37,7.37,0,0,1,.4-1.4v-.2c.1-.4.2-.9.3-1.3l.7-.1-.7-.1c.1-.5.2-1,.3-1.4l.1-.3a7.84,7.84,0,0,0,.2-1.4l.7-.1-.7-.1c.1-.5.1-.9.2-1.4l.7-.1-.7-.1c.1-.5.1-1,.2-1.5v-.3c0-.5.1-1,.1-1.5l.7-.1H432c0-.5.1-.9.1-1.4l.7-.2h-.7v-3.3l.7-.2h-.7v-1.4l.7-.3h-.7c0-.5-.1-1-.1-1.5V118c0-.5-.1-1-.1-1.5s-.1-1.1-.2-1.6l.7-.3-.7.1c-.1-.5-.1-1-.2-1.5v-.3l-.3-1.5q-.15-.9-.3-1.5l.6-.4-.7.2c-.1-.5-.2-.9-.3-1.4l-.1-.3c-.1-.5-.3-1-.4-1.4a8.33,8.33,0,0,1-.4-1.5l.6-.5-.7.2a7.84,7.84,0,0,0-.5-1.4l-.1-.2c-.2-.6-.4-1-.6-1.5s-.4-.9-.6-1.4l-.1-.2c-.2-.4-.4-.9-.6-1.3l-.1-.3c-.2-.4-.4-.9-.6-1.3s-.5-.9-.7-1.3l.5-.5-.6.4a14.8,14.8,0,0,0-.8-1.3l-.1-.2c-.3-.5-.6-.9-.8-1.3a49.92,49.92,0,0,0-4-5.1l-1.2-1.2a28.79,28.79,0,0,0-5.2-4c-.9-.5-1.8-1-2.7-1.4-.5-.2-.9-.4-1.4-.6-.9-.3-1.9-.6-2.8-.8a1.7,1.7,0,0,0-.7-.1,13.58,13.58,0,0,0-2.9-.3l-9.3-.4h0c-7.8-.4-15.3,3.6-20.9,11.1-11.9,15.9-12.3,42.9-.9,60.1,5.6,8.5,13.2,13.3,21.3,13.6.2.1.2.2.3.2Z" transform="translate(-21.51 -41.9)"/><path class="cls-22" d="M467.4,84.5a5.64,5.64,0,0,0-1.2.4c-.2.1-.4.1-.6.2s-.5.2-.7.3-.2.1-.3.2a25.9,25.9,0,0,0-9.9,8.1,7.63,7.63,0,0,0-.8,1.1c-.1.1-.1.2-.2.3-.3.4-.5.8-.8,1.2l-.1.1a6.73,6.73,0,0,1-.7,1.1c-.1.1-.1.2-.2.3-.2.4-.5.8-.7,1.2v.1c0,.1-.1.1-.1.2a3.55,3.55,0,0,0-.4.9c-.1.1-.1.2-.2.3-.2.4-.3.7-.5,1.1v.1c-.2.4-.3.8-.5,1.2,0,.1-.1.2-.1.3l-.3.9c0,.1-.1.2-.1.3-.1.4-.3.8-.4,1.2,0,.1,0,.1-.1.2-.1.4-.2.7-.3,1.1,0,.1-.1.2-.1.4s-.2.7-.3,1a.37.37,0,0,1-.1.3c-.1.4-.2.8-.3,1.3a.37.37,0,0,1-.1.3c-.1.3-.1.7-.2,1a.6.6,0,0,1-.1.4c-.1.4-.1.8-.2,1.2v.1c-.1.4-.1.9-.2,1.3v.4c0,.3-.1.7-.1,1v.4c0,.4-.1.9-.1,1.3v.1a4.87,4.87,0,0,1-.1,1.2v4.9a4.87,4.87,0,0,0,.1,1.2v.2c0,.4.1.8.1,1.1v.2a1.27,1.27,0,0,0,.1.6c0,.3.1.5.1.8s.1.4.1.7.1.5.1.8.1.4.1.7.1.5.1.8.1.4.1.7.1.5.2.8a2.54,2.54,0,0,0,.2.7c.1.3.1.5.2.8s.1.4.2.6.1.5.2.8.1.4.2.6a1.85,1.85,0,0,1,.2.7c.1.2.1.4.2.6s.2.5.3.7.1.4.2.6.2.5.3.7a1.42,1.42,0,0,1,.2.6c.1.2.2.5.3.7l.3.6c.1.2.2.5.3.7l.3.6a2.51,2.51,0,0,0,.4.7,2.19,2.19,0,0,0,.3.5,4.35,4.35,0,0,0,.4.7.76.76,0,0,1,.2.4v.1c.2.3.3.5.5.8a.76.76,0,0,1,.2.4,8.34,8.34,0,0,0,.8,1.2l.6.9.2.2c.2.2.3.4.5.6l.2.2c.2.3.4.5.6.8l.1.1.6.6.2.2a2.65,2.65,0,0,1,.5.6l.2.2.7.7.2.2c.2.2.4.3.6.5l.2.2a2.65,2.65,0,0,0,.6.5l.1.1c.2.2.5.4.7.6l.2.2c.2.1.4.3.6.4l.2.2c.2.2.5.3.7.5h0c.2.2.5.3.7.5l.2.1.6.3.2.1c.3.1.5.3.8.4l.1.1.6.3.2.1.6.3a.1.1,0,0,1,.1.1h0c.2.1.5.2.7.3l.2.1c.2.1.4.1.6.2l.3.1a1.09,1.09,0,0,0,.5.1l.2.1a1.27,1.27,0,0,0,.6.1h.1a2.2,2.2,0,0,0,.8.1h.2c.2,0,.4.1.6.1h.3a.75.75,0,0,1,.5.1h1l5.3.2,4.3.2h0a22.6,22.6,0,0,0,7.3-1,24.48,24.48,0,0,1-16.9,6.1l9.6.4c7.9.3,15.8-3.4,22-11.4.3-.5.7-.9,1-1.4l.1-.1c.3-.4.6-.9.9-1.4l.1-.2a10,10,0,0,0,.8-1.4c0-.1.1-.1.1-.2.3-.5.5-.9.8-1.4a.1.1,0,0,1,.1-.1c.1,0,0-.1.1-.1.2-.4.4-.8.6-1.3,0-.1.1-.1.1-.2l.6-1.2c0-.1,0-.1.1-.2a6.94,6.94,0,0,0,.5-1.3l.1-.3c.2-.4.3-.9.5-1.3,0-.1,0-.1.1-.2a6.47,6.47,0,0,0,.4-1.3c0-.1,0-.1.1-.2.1-.5.3-.9.4-1.4,0-.1.1-.2.1-.3.1-.5.3-.9.4-1.4v-.2c.1-.4.2-.9.3-1.4v-.2c.1-.5.2-1,.3-1.4a.37.37,0,0,1,.1-.3,7.72,7.72,0,0,0,.2-1.5v-.2c.1-.5.1-.9.2-1.4v-.2c.1-.5.1-1,.2-1.5V128c0-.5.1-1,.1-1.5v-.2c0-.5.1-1,.1-1.4v-3.7a6.15,6.15,0,0,0-.1-1.4v-.2c0-.5-.1-1-.1-1.5v-.3c0-.5-.1-1-.1-1.5v-.1c-.1-.5-.1-1-.2-1.4v-.2c-.1-.5-.1-1-.2-1.5a.37.37,0,0,0-.1-.3l-.3-1.5v-.1c-.1-.5-.2-.9-.3-1.4a.37.37,0,0,0-.1-.3,5.73,5.73,0,0,0-.4-1.4c0-.1-.1-.2-.1-.3-.1-.5-.3-1-.4-1.5v-.1c-.1-.5-.3-.9-.4-1.4,0-.1-.1-.2-.1-.3-.2-.5-.3-.9-.5-1.4,0-.1-.1-.2-.1-.3a7.84,7.84,0,0,1-.5-1.4v-.1c-.2-.5-.4-.9-.6-1.3a.35.35,0,0,0-.1-.2c-.2-.4-.4-.9-.6-1.3,0-.1-.1-.2-.1-.3a8.26,8.26,0,0,0-.7-1.3h0c-.2-.4-.5-.9-.7-1.3l-.1-.1a.1.1,0,0,0-.1-.1c-.2-.4-.5-.8-.7-1.2l-.1-.2c-.3-.4-.5-.8-.8-1.2a43.34,43.34,0,0,0-4.2-5.2L500,86.3a31.47,31.47,0,0,0-5.5-4.1,25.91,25.91,0,0,0-2.9-1.4l-1.5-.6c-1-.3-2-.6-3-.8a2.2,2.2,0,0,0-.8-.1,15.26,15.26,0,0,0-3-.3l-9.6-.4a26.74,26.74,0,0,1,16.8,7.5h0a14.58,14.58,0,0,0-1.9-.7c-.4-.1-.9-.3-1.3-.4l-1.3-.3c-.2,0-.4-.1-.7-.1a13.55,13.55,0,0,0-2-.2l-4.3-.2-5-.5h-1.3a4.1,4.1,0,0,0-1.1.1h-.2c-.2,0-.5.1-.7.1a.75.75,0,0,0-.5.1c-.1,0-.3.1-.4.1-.3.1-.6.1-.9.2-.1,0-.2.1-.3.1a3,3,0,0,1-1,.2C467.5,84.5,467.5,84.5,467.4,84.5Z" transform="translate(-21.51 -41.9)"/><path class="cls-23" d="M451.1,150.5c-11.9-17.5-11.5-44.8.9-60.9s32.2-15,44.1,2.5,11.5,44.8-.9,60.9S463.1,168,451.1,150.5Z" transform="translate(-21.51 -41.9)"/><path class="cls-24" d="M490.5,99.4c-8.9-13.1-23.8-13.9-33.1-1.8s-9.6,32.5-.7,45.7,23.8,13.9,33.1,1.8,9.7-32.6.7-45.7" transform="translate(-21.51 -41.9)"/><path class="cls-25" d="M483.9,165.9h-1l-9.6-.4h0c-8.7-.4-16.7-5.4-22.7-14.2-12.1-17.7-11.6-45.4.9-61.7,6.1-7.9,14.1-12,22.5-11.7h0l9.6.4c1,0,2.1.2,3.1.3.3,0,.5.1.8.1a18.12,18.12,0,0,1,3.1.9l1.5.6a21,21,0,0,1,3,1.5,32.76,32.76,0,0,1,5.6,4.2,15.93,15.93,0,0,1,1.3,1.3,36.87,36.87,0,0,1,4.3,5.3,5.67,5.67,0,0,1,.8,1.3l.2.2c.3.4.5.8.8,1.2l.1.2a9.15,9.15,0,0,1,.7,1.4,9.15,9.15,0,0,1,.7,1.4l.1.3c.2.4.4.9.6,1.3l.1.2c.2.5.4,1,.6,1.4l.6,1.5.1.3c.2.5.3.9.5,1.4l.1.3a7.37,7.37,0,0,1,.4,1.4,12.44,12.44,0,0,1,.4,1.6l.1.3a8.33,8.33,0,0,0,.4,1.5v.2c.1.6.2,1,.3,1.5s.2,1.1.3,1.6l.1.3a7.72,7.72,0,0,1,.2,1.5v.2c.1.6.1,1.1.2,1.5v.1a7.57,7.57,0,0,1,.1,1.5v.3c0,.5.1,1,.1,1.5v.2a7.57,7.57,0,0,0,.1,1.5v3.7a6.15,6.15,0,0,1-.1,1.4v.2c0,.5-.1,1-.1,1.5v.3a7.72,7.72,0,0,1-.2,1.5v.2c-.1.5-.1.9-.2,1.4v.2a7.72,7.72,0,0,0-.2,1.5v.3l-.3,1.5v.1c-.1.5-.2,1-.3,1.4v.2a5.73,5.73,0,0,1-.4,1.4l-.1.3c-.1.5-.3.9-.4,1.4l-.1.2c-.1.4-.3.9-.4,1.3l-.1.2c-.2.5-.3.9-.5,1.4l-.1.3c-.2.4-.4.9-.6,1.3l-.1.2c-.2.4-.4.8-.6,1.3l-.1.2c-.2.4-.4.9-.6,1.3l-.1.1c-.3.6-.6,1.1-.8,1.5l-.1.1c-.3.6-.6,1-.9,1.5l-.1.2c-.3.5-.6.9-.9,1.4s-.8,1.1-1.1,1.5C499.6,161.7,492,165.9,483.9,165.9ZM473.6,164l9.4.4c8,.3,15.6-3.6,21.4-11.1a17,17,0,0,0,1-1.4c.4-.5.7-1,1-1.4l.7.2-.6-.4a6.38,6.38,0,0,0,.8-1.4l.1-.2c.3-.5.5-.9.8-1.4l.7.1-.6-.3c.2-.5.5-.9.7-1.3l.7.1-.6-.3.6-1.2.7.1-.7-.3a6.94,6.94,0,0,0,.5-1.3l.1-.3c.2-.4.3-.9.5-1.3h.7l-.7-.2c.1-.4.3-.9.4-1.3h.7l-.7-.2c.1-.5.3-.9.4-1.4l.1-.3c.1-.5.3-.9.4-1.4h.7l-.7-.2c.1-.4.2-.9.3-1.3l.7-.1-.7-.1c.1-.5.2-.9.3-1.4l.1-.3a7.85,7.85,0,0,0,.2-1.4l.7-.1-.7-.1c.1-.5.1-.9.2-1.4l.7-.1-.7-.1c.1-.5.1-1,.2-1.5v-.3c0-.5.1-1,.1-1.5l.7-.1h-.7c0-.5.1-.9.1-1.4v-3.5l.7-.2h-.7V120l.7-.3h-.7c0-.5-.1-1-.1-1.5v-.3c0-.5-.1-1-.1-1.5s-.1-1.1-.2-1.6v-.2c-.1-.5-.1-1-.2-1.5v-.2c-.1-.6-.2-1.1-.3-1.6s-.2-1.1-.3-1.5l-.1-.2c-.1-.5-.2-.9-.3-1.4l-.1-.3c-.1-.5-.3-1-.4-1.4s-.3-1-.5-1.5l-.1-.3a7.84,7.84,0,0,0-.5-1.4l-.1-.3c-.2-.5-.3-.9-.5-1.4s-.4-.9-.6-1.4l-.1-.2c-.2-.4-.4-.9-.6-1.3l-.1-.3a8.26,8.26,0,0,0-.7-1.3c-.2-.5-.5-.9-.7-1.3l.5-.5-.6.4a14.8,14.8,0,0,0-.8-1.3l-.1-.2c-.3-.4-.5-.8-.8-1.2a39.81,39.81,0,0,0-4.1-5.1,15.38,15.38,0,0,0-1.3-1.2,27,27,0,0,0-5.4-4,24.37,24.37,0,0,0-2.8-1.4c-.5-.2-.9-.4-1.4-.6a24.54,24.54,0,0,0-2.9-.8,1.7,1.7,0,0,0-.7-.1,14.28,14.28,0,0,0-2.9-.3l-9.5-.4h0c-8-.4-15.6,3.6-21.5,11.1-12.2,15.9-12.6,42.8-.9,60,5.7,8.7,13.5,13.5,21.8,13.8Z" transform="translate(-21.51 -41.9)"/><path class="cls-7" d="M235.9,203.5h-1.4v-7.2h1.4Zm0-10.1h-1.4v-7.2h1.4Zm0-10h-1.4v-7.2h1.4Z" transform="translate(-21.51 -41.9)"/><path class="cls-7" d="M153.8,203.5h-1.4v-7.2h1.4Zm0-10.1h-1.4v-7.2h1.4Zm0-10h-1.4v-7.2h1.4Z" transform="translate(-21.51 -41.9)"/><polygon class="cls-7" points="209.5 139.9 208.4 139 213.4 132.7 219 138.5 217.9 139.5 213.5 134.9 209.5 139.9"/><polygon class="cls-7" points="127.39 139.9 126.3 139 131.29 132.7 136.79 138.5 135.79 139.5 131.4 134.9 127.39 139.9"/><path class="cls-18" d="M398.2,72h-1.4V64.8h1.4Zm0-10.1h-1.4V54.7h1.4Zm0-10h-1.4V44.7h1.4Z" transform="translate(-21.51 -41.9)"/><path class="cls-18" d="M316.1,72h-1.4V64.8h1.4Zm0-10.1h-1.4V54.7h1.4Zm0-10h-1.4V44.7h1.4Z" transform="translate(-21.51 -41.9)"/></g><g id="Warstwa_1" data-name="Warstwa 1"><path class="cls-5" d="M154.6,135.4H152v-4.3h-2.1v4.3h-2.6V131H142c.2-1.1.4-2.1.5-3,.1,0,.1-.1.2-.1h1.4c1,0,1.3-.3,1.3-1.3v-11c0-1-.4-1.5-1.5-1.5H142v-2.8h5.3v-4.2h2.6v4.1H152v-4.1h2.6v4.1a24.18,24.18,0,0,1,3.6,1,4,4,0,0,1,2.7,3.3,4.29,4.29,0,0,1-2.1,4.7,9.44,9.44,0,0,1,.9.3,4.13,4.13,0,0,1,2.2,1.9,5.81,5.81,0,0,1-2.7,7.8,28.75,28.75,0,0,1-4,.9c-.5.1-.7.2-.7.7A21.36,21.36,0,0,1,154.6,135.4Zm-4.5-7.5a16,16,0,0,0,5.4-.5,2.49,2.49,0,0,0,1.9-2.4,2.41,2.41,0,0,0-1.9-2.4,16.52,16.52,0,0,0-5.4-.5Zm0-8.5a11,11,0,0,0,4.8-.6,2.19,2.19,0,0,0,1.3-2,1.88,1.88,0,0,0-1.3-2,11.17,11.17,0,0,0-4.8-.6Z" transform="translate(-21.51 -41.9)"/><path class="cls-5" d="M480.5,117.3v2.8H470V122h10.5v2.8h-10a4.92,4.92,0,0,0,.6,1.7,5.61,5.61,0,0,0,4.1,2.9,9.92,9.92,0,0,0,4.2-.1,11.76,11.76,0,0,0,2-.7h.1c0,.2.1.3.1.5.3,1.2.5,2.5.8,3.7,0,.2,0,.3-.2.3a13.07,13.07,0,0,1-6.7,1.4,12.11,12.11,0,0,1-5.6-1.6,11.14,11.14,0,0,1-5.3-6.9c-.1-.3-.1-.6-.2-.9s-.1-.2-.3-.2h-2.4v-2.8h2.2v-1.9h-2.2v-2.8h2.4c.2,0,.2-.1.3-.2a10.55,10.55,0,0,1,2.2-4.5,11.55,11.55,0,0,1,7.4-4.5,14.92,14.92,0,0,1,8.1.9c.2.1.2.2.2.4-.3,1.4-.7,2.7-1,4.1,0,.1,0,.1-.1.2s-.2-.1-.3-.1a10.87,10.87,0,0,0-3.9-.8,6.1,6.1,0,0,0-6.2,4.3,4.33,4.33,0,0,0-.1.5A79.5,79.5,0,0,1,480.5,117.3Z" transform="translate(-21.51 -41.9)"/><path class="cls-5" d="M403.4,108.1c-2.2,4.3-4.3,8.5-6.5,12.8h3.5v3.8h-4.3v2.1h4.3v3.8h-4.3v3.8h-6.5v-3.8h-4.4v-3.8h4.4v-2.1h-4.4v-3.8h3.4c-2.1-4.3-4.2-8.5-6.4-12.8H389a.46.46,0,0,1,.5.3c1,2.8,2.1,5.5,3.2,8.3,0,.1.1.2.2.4a10.38,10.38,0,0,1,.4-1l3-7.8c.1-.2.2-.3.4-.3h6.5C403.1,108,403.2,108,403.4,108.1Z" transform="translate(-21.51 -41.9)"/></g></svg>