<svg xmlns="http://www.w3.org/2000/svg" width="183" height="128" viewBox="0 0 183 128" xmlns:xlink="http://www.w3.org/1999/xlink"><defs><ellipse id="a" cx="52.4" cy="51.9" rx="52.2" ry="51.8"/></defs><g fill="none" fill-rule="evenodd" transform="translate(1)"><path stroke="#6AC9D0" stroke-width="2.5" d="M.6 43.2h64.6v83.1H.6z" stroke-linejoin="round"/><path stroke="#6AC9D0" stroke-width="2.5" d="M10.6 57h44.5M10.6 68.4h44.5M10.6 79.9h44.5M10.6 91.3h44.5m-44.5 11.4h19.5m-19.5 11.5h19.5" stroke-linecap="round" stroke-linejoin="round"/><circle cx="46.5" cy="108.1" r="5.8" fill="#FFE5CA" fill-rule="nonzero" stroke="#F59122"/><path stroke="#F59122" d="M41.1 110.3c-2.2 1.9-3.4 3.5-3.1 4 .4.5 2.2-.2 4.7-1.7 1.4-.8 3-1.9 4.7-3.1 4.7-3.4 8-6.7 7.4-7.5-.4-.5-2.2.2-4.6 1.6" opacity=".4"/><circle cx="52.3" cy="80.2" r="6.6" stroke="#C3E9EC" stroke-width="2.5"/><g transform="translate(77)"><mask id="b" fill="#fff"><use xlink:href="#a"/></mask><g fill-rule="nonzero" mask="url(#b)"><path fill="#469DA1" d="M29.5 29.8H.9c-.6 0-1.1-.5-1.1-1.1V.3C-.2-.3.3-.8.9-.8h28.6c.6 0 1.1.5 1.1 1.1v28.4c0 .6-.5 1.1-1.1 1.1z" opacity=".25"/><path fill="#469DA1" d="M20.9 22.3s-.1.1-.2.1c-.1.1-.4.2-.7.2-.6.1-1.5.1-2.5-.4-.5-.2-1-.5-1.5-.9s-.9-.9-1.3-1.5-.6-1.2-.8-1.9c-.2-.7-.3-1.3-.4-2.1 0-.4 0-.8.1-1.2.1-.4.3-.9.7-1.2.2-.2.5-.3.8-.4h.7s.1 0 .2.1c.6.3.8.7 1 1.1.3.7.3 1.4.4 1.9 0 .5.1 1.1.2 1.5.2.9.5 1.7.8 2.2.3.5.5.8.5.8s-.1 0-.2-.1-.3-.2-.6-.4c-.5-.4-1-1.1-1.4-2.1-.2-.5-.4-1-.5-1.6-.1-.6-.2-1.1-.4-1.6-.1-.2-.3-.3-.3-.3h-.1s-.1 0-.1.1c-.2.2-.3.7-.3 1.2 0 .6.2 1.2.3 1.8.1.6.3 1.2.6 1.7.2.5.5 1 .9 1.4.4.4.7.7 1.1 1 .8.5 1.6.7 2.1.8.6-.1.9-.2.9-.2z"/><path fill="#469DA1" d="M19.5 16.9s-.1-.3-.2-1c-.2-.6-.3-1.5-.6-2.4-.2-.5-.4-.9-.7-1.3-.2-.2-.4-.3-.6-.5-.1 0-.3-.2-.4-.2-.1 0-.2-.1-.4-.1-1-.3-2.2-.1-3.1.8-.4.4-.8.9-1.1 1.5-.2.5-.4 1.1-.4 1.7 0 .6 0 1.2.1 1.7s.3 1.1.5 1.5c.2.5.4.9.6 1.2l.6.9.5.5.2.2s-.3-.1-.9-.5c-.3-.2-.6-.4-.9-.7-.3-.3-.7-.7-.9-1.2-.6-.9-1.1-2.2-1.1-3.7 0-.7.1-1.5.4-2.3.3-.7.8-1.4 1.3-1.9.6-.6 1.3-1 2.2-1.2.8-.2 1.7-.1 2.4.2.2.1.4.2.5.3.2.1.2.2.4.3.3.2.6.5.8.8.4.6.6 1.2.7 1.8.1 1.1.1 2 0 2.6.1.7.1 1 .1 1z"/><path fill="#469DA1" d="M20.3 18.9s0-.3.1-1c.1-.6.2-1.5.3-2.5.1-1 .2-2.2 0-3.4-.1-.6-.3-1.1-.5-1.7-.3-.5-.7-.9-1.2-1.3-.2-.2-.5-.3-.8-.4-.2-.1-.3-.1-.4-.2-.1 0-.3-.1-.4-.1-.6-.1-1.2-.2-1.8-.2-1.2 0-2.3.3-3.2.8-.9.4-1.5 1-1.9 1.5-.2.2-.3.4-.4.6l-.1.2v-.3c0-.2.1-.4.2-.7.2-.6.8-1.4 1.7-2 .9-.6 2.1-1.1 3.5-1.3.7-.1 1.4-.1 2.2.1.2 0 .4.1.6.1.2.1.4.1.5.2.4.2.7.3 1 .6.7.5 1.2 1.1 1.6 1.8.4.7.5 1.5.6 2.2.1.7 0 1.4-.1 2-.1.6-.2 1.2-.4 1.7-.3 1-.6 1.8-.9 2.4 0 .6-.2.9-.2.9zm-11-5.7s-.2 1.1 0 2.7c0 .4.1.8.2 1.3.1.4.2.9.5 1.3.2.4.4.9.7 1.3.1.2.3.4.5.6l.1.1.1.1.3.3c.4.3.7.7 1.1 1 .4.3.8.5 1.3.8.9.4 1.7.7 2.5.9.4.1.7.1 1.1.1h.8c.2 0 .4 0 .6-.1h.2s-.2.2-.7.4c-.5.2-1.2.4-2 .4-.4 0-.9 0-1.4-.1-.5-.1-1-.2-1.5-.5-.5-.2-1-.5-1.5-.8-.5-.3-.9-.7-1.4-1.1l-.3-.3-.1-.1-.1-.1-.1-.2c-.2-.2-.4-.5-.5-.7-.3-.5-.5-1-.7-1.5-.2-.5-.3-1-.3-1.5-.1-.5-.1-1 0-1.4 0-.9.2-1.5.4-2 .1-.6.2-.9.2-.9z"/><path fill="#469DA1" d="M7.6 18s.1.2.2.5c0 .2.1.4.2.6.1.2.2.5.3.7.1.3.2.5.4.8.1.3.3.5.5.8.2.3.4.5.6.8l.7.7c.2.3.5.4.8.7l.9.6c.6.4 1.2.6 1.7.8 1 .4 1.8.6 1.8.6h-.1c-.1 0-.2.1-.4.1-.4 0-.9.1-1.5 0-.3 0-.6-.1-1-.2-.3-.1-.7-.2-1.1-.4-.7-.3-1.5-.7-2.1-1.3l-.9-.9c-.2-.3-.5-.7-.6-1.1-.2-.4-.3-.7-.4-1.1-.1-.4-.2-.7-.2-1v-.8c0-.2.1-.4.1-.6.1-.1.1-.3.1-.3zm-.2-1.5s-.1-.3-.3-.8c-.1-.3-.2-.6-.3-1 0-.4-.1-.8-.1-1.3s0-1 .1-1.6c.1-.6.3-1.2.5-1.8.3-.6.5-1.2.9-1.7.4-.6.9-1 1.4-1.5.6-.4 1.1-.8 1.7-1.1.3-.2.6-.3.9-.4.4-.2.7-.3 1-.3.3-.1.6-.1.9-.2h.9c.6 0 1.1.1 1.6.2.5.2.9.3 1.3.5s.7.3.9.5c.4.4.7.6.7.6s-.3-.1-.8-.4c-.2-.1-.6-.2-.9-.3-.4-.1-.8-.1-1.2-.2-.5 0-.9 0-1.4.1-.5 0-1 .2-1.6.3-.5.2-1.1.4-1.6.7-.5.2-1 .6-1.4 1-.4.4-.9.8-1.2 1.3-.4.4-.6 1-.9 1.4L7.9 12c-.1.5-.3 1-.3 1.4 0 .4-.1.9-.1 1.2v1c-.1.6-.1.9-.1.9z"/><path fill="#469DA1" d="M9.4 5.3s.2-.2.7-.6c.2-.2.5-.4.8-.6.3-.2.7-.5 1.2-.7.5-.2 1-.4 1.5-.5.6-.2 1.2-.2 1.8-.3h1.5l.5.1c.7.1 1.3.4 1.9.6.6.3 1.2.7 1.7 1.1.1.1.3.2.4.3l.3.4c.2.3.5.5.6.8.2.3.3.5.5.8.1.3.2.6.3.8.3.5.3 1.1.4 1.6.1.5.1.9.1 1.3s-.1.7-.1 1c-.1.6-.2.9-.2.9s0-.3-.1-.9c0-.3 0-.6-.1-1s-.1-.8-.3-1.2c-.2-.4-.3-.9-.6-1.3-.1-.2-.2-.5-.4-.7-.2-.2-.3-.4-.5-.6-.1-.2-.4-.4-.6-.6l-.6-.6c-.4-.4-1-.6-1.5-.9-.5-.2-1.1-.5-1.6-.6-.3-.1-.6-.1-.8-.2-.3 0-.6-.1-.8-.1-.6 0-1.1 0-1.6.1-.5 0-1 .2-1.4.3-.5.1-.8.3-1.2.4-.4.1-.7.3-.9.4-.6.3-.9.5-.9.5zm13.9 8.4s0 .1.1.4c.1.3.1.6.1 1.1 0 .5 0 1-.1 1.6-.1.3-.1.6-.2.9l-.3.9c-.3.6-.6 1.1-1 1.5l-.6.6c-.2.2-.4.3-.6.4-.4.2-.8.3-1 .4-.3 0-.4.1-.4.1l.3-.3c.2-.2.5-.4.7-.7.3-.3.6-.7.8-1.1.1-.2.3-.4.4-.7.1-.2.3-.5.4-.7l.6-1.5c.2-.5.3-1 .4-1.4.1-.4.2-.8.3-1 .1-.4.1-.5.1-.5zm-6.9 12.1s.5-.1 1.2-.4c.3-.1.7-.2 1.1-.4l.6-.3.6-.3c.2-.1.4-.2.5-.4.2-.1.3-.3.5-.4.2-.1.3-.3.4-.4.1-.1.2-.3.3-.4.1-.1.2-.3.3-.4.1-.1.1-.2.2-.3.1-.2.2-.3.2-.3v.4c0 .2 0 .6-.1.9 0 .2-.1.4-.2.6-.1.2-.2.5-.3.7-.2.2-.3.4-.5.6-.2.2-.4.4-.6.5-.2.2-.5.3-.7.4-.4 0-.7.1-.9.1-.5.1-1 .1-1.3.1-.9 0-1.3-.3-1.3-.3z"/><path fill="#6AC9D0" d="M66.8 29.8H38.2c-.6 0-1.1-.5-1.1-1.1V.3c0-.6.5-1.1 1.1-1.1h28.6c.6 0 1.1.5 1.1 1.1v28.4c-.1.6-.6 1.1-1.1 1.1z" opacity=".25"/><path fill="#6AC9D0" d="M52.7 17.6s0-.2.1-.4c0-.2.1-.6.1-.9 0-.4 0-.8-.1-1.2-.1-.4-.2-.7-.4-.9 0 0-.1 0-.1-.1 0 0-.1 0 0 0h-.1c-.1-.1-.2-.1-.2-.1-.1 0-.3-.1-.4-.1-.1 0-.3.1-.4.2-.2.1-.3.3-.4.4-.2.3-.4.6-.4.8-.1.2-.1.4-.1.4s0-.1-.1-.4c0-.3-.1-.6 0-1.1.1-.2.1-.5.3-.7.2-.2.4-.5.7-.7.3-.2.8-.2 1.1-.2.2 0 .4.1.5.2h.1l.1.1.3.2c.3.2.6.6.7.9.1.3.2.7.2 1 0 .6-.2 1.2-.4 1.6-.2.4-.5.7-.7.9-.2.1-.4.1-.4.1z"/><path fill="#6AC9D0" d="M55 16.7s.2-.3.2-.8 0-1.3-.3-2.1-.7-1.8-1.5-2.4c-.4-.3-.8-.6-1.3-.6-.5-.1-1 0-1.5.2s-.9.5-1.2.9c-.3.4-.5.9-.6 1.4-.2 1-.1 2.1.1 3 .2.9.5 1.6.8 2 .3.5.4.7.4.7l-.6-.6c-.4-.4-.8-1.1-1.2-2-.4-.9-.6-2.1-.5-3.3.1-.6.3-1.3.7-1.9.4-.6 1-1.1 1.7-1.4.6-.3 1.4-.4 2.1-.2.7.1 1.4.5 1.9 1 1 1 1.3 2.1 1.5 3.1.1 1 0 1.8-.2 2.4-.1.3-.2.5-.3.6H55zm-7.6-6.8v-.4c0-.1 0-.3.1-.5 0-.2.1-.4.2-.6.1-.2.2-.4.4-.6l.6-.6c.2-.2.5-.4.8-.5.3-.1.6-.3.9-.4.3-.1.6-.1.9-.2.3-.1.6 0 .9 0 .6.1 1.1.2 1.5.4.4.2.7.4.9.6l.3.3s-.2 0-.4-.1c-.2 0-.6-.1-1-.1h-1.4c-.5.1-1 .1-1.5.3-.2.1-.5.1-.7.3-.2.1-.5.2-.7.3-.4.2-.8.5-1.1.8l-.7.7c.1.1 0 .3 0 .3z"/><path fill="#6AC9D0" d="M53 21.1l-.6.3c-.2.1-.5.1-.8.2-.3 0-.7.1-1.1-.1-.4-.1-.9-.2-1.3-.4s-.9-.5-1.2-.9c-.4-.4-.7-.7-1.1-1.2-.3-.4-.6-.9-.8-1.4l-.6-1.5c-.1-.5-.2-1-.3-1.6V13c0-.5.1-.9.3-1.3.2-.8.5-1.4.8-1.7.3-.4.4-.6.4-.6s-.1.3-.2.7c-.1.4-.2 1-.2 1.8v1.2c0 .4.1.8.2 1.3.1.4.2.9.3 1.3.1.4.3.9.5 1.3s.4.8.7 1.2c.1.2.3.4.4.6.1.2.3.3.4.5.3.3.6.6.9.8l.9.6c.3.2.6.2.9.3.3 0 .5.1.8.1h.7z"/><path fill="#6AC9D0" d="M58.6 12.7s.2.3.3.8c.2.5.4 1.3.4 2.3 0 .5 0 1-.2 1.6-.1.6-.3 1.1-.6 1.7-.3.6-.7 1.1-1.1 1.6-.2.3-.4.4-.7.7-.2.2-.5.4-.7.6-1 .8-2.1 1.4-3.2 1.9s-2.1.8-3 1.1c-.9.3-1.5.6-2 .8-.4.3-.6.5-.6.5s0-.1.1-.2.2-.3.4-.5c.4-.4 1-.9 1.8-1.4.8-.5 1.8-.9 2.7-1.5 1-.5 2-1.2 2.9-1.9.2-.2.5-.4.7-.5.2-.2.5-.4.6-.6.4-.4.7-.8 1-1.2.6-.9.9-1.8 1.1-2.7.1-.4.1-.8.2-1.2v-1c-.1-.6-.1-.9-.1-.9z"/><path fill="#6AC9D0" d="M60.1 18.4s0 .2.1.6c0 .2.1.4 0 .7 0 .3 0 .6-.1.9-.1.3-.2.7-.4 1-.2.3-.4.7-.7 1l-.9.9c-.3.3-.7.5-1.1.8l-1.2.6c-.4.2-.8.3-1.2.4-.8.2-1.5.4-2.1.4-1.3.2-2.1 0-2.1 0s.8-.4 1.9-.8c.6-.2 1.2-.5 1.9-.8.3-.1.7-.3 1-.5.4-.2.7-.4 1-.6.3-.2.7-.4 1-.6.1-.1.3-.2.5-.3.1-.1.3-.2.4-.4.3-.2.5-.5.7-.7.2-.2.4-.5.5-.8.1-.2.2-.5.3-.7.1-.2.1-.5.2-.6.3-.3.3-.5.3-.5zm.3-2.2v-1.9c-.1-.4-.1-.8-.2-1.2-.1-.4-.2-.9-.3-1.4-.1-.5-.3-1-.5-1.5-.3-.5-.5-1-.8-1.4-.3-.5-.7-.9-1.1-1.3-.4-.4-.8-.8-1.3-1-.2-.2-.5-.3-.7-.4-.2-.1-.5-.3-.7-.3-.3-.1-.5-.2-.8-.2-.3 0-.5-.1-.8-.1-.2-.1-.5 0-.7 0h-.7c-.4.1-.9.1-1.2.2-.4.1-.7.1-.9.3-.7-.1-1 0-1 0s.2-.2.7-.5c.2-.2.5-.3.9-.5.3-.2.8-.3 1.3-.5.5-.1 1-.2 1.6-.2h.9c.3 0 .6.1.9.2l.9.3c.3.1.6.2.9.4.6.3 1.1.7 1.6 1.2.4.5.9 1 1.2 1.6.4.5.6 1.2.8 1.7.2.6.3 1.2.4 1.7 0 .6.1 1.1.1 1.6s-.1.9-.1 1.3c-.1.4-.2.7-.2 1-.2.6-.2.9-.2.9z"/><path fill="#6AC9D0" d="M59.6 6.1s-.3-.2-.8-.6c-.2-.2-.6-.4-.9-.7-.2-.1-.4-.2-.6-.4-.2-.1-.4-.2-.7-.3-.4-.3-1-.3-1.6-.5-.6-.1-1.2-.2-1.8-.2-.6-.1-1.3.1-1.9.2-.3.1-.6.2-1 .3-.3.1-.6.3-.9.4-.3.1-.6.3-.9.5-.3.2-.6.3-.8.6-.2.2-.5.4-.7.7-.2.2-.4.5-.6.7-.2.2-.3.5-.5.8-.2.3-.3.5-.5.8-.2.5-.5 1.1-.6 1.5-.1.5-.3 1-.4 1.4-.1.4-.1.8-.2 1.1-.1.6-.2 1-.2 1s0-.4-.1-1v-1.1c0-.4.1-.9.2-1.5.1-.5.3-1.1.5-1.7.1-.3.3-.6.4-.9.2-.3.3-.6.5-.9l.6-.9c.2-.3.5-.5.8-.8.3-.3.6-.5.9-.7.3-.2.6-.4 1-.6.4-.1.7-.3 1.1-.4.4-.1.7-.2 1.1-.3.7-.1 1.5-.2 2.2-.1.7 0 1.4.2 2 .4.6.3 1.2.4 1.6.8.2.2.5.3.7.4.2.1.4.3.5.5l.8.8c.6.4.8.7.8.7zM56.9 16v.4c0 .3-.1.6-.3 1.1-.1.2-.2.4-.4.7-.1.2-.3.5-.6.7-.2.2-.5.4-.8.6-.3.1-.6.3-.9.3-.3.1-.7.1-1 0-.3 0-.7-.2-1-.3-.3-.2-.6-.4-.7-.6-.2-.2-.3-.5-.4-.8 0-.3-.1-.5 0-.7 0-.2.1-.4.2-.5l.2-.4v.4c0 .1 0 .3.1.4 0 .2.1.3.2.5 0 .1.1.1.2.2l.2.2c.1.1.3.2.5.3l.3.1h.3c.2 0 .5 0 .7-.1.2 0 .5-.1.7-.2l.6-.3c.2-.1.4-.3.5-.4.2-.2.3-.3.5-.4.1-.2.3-.3.4-.4.1-.2.2-.3.3-.4.1-.3.2-.4.2-.4zm-7.6 6.9s-.5.1-1.3-.1c-.4-.1-.8-.3-1.2-.5-.2-.1-.4-.3-.6-.5l-.6-.6c-.2-.2-.3-.4-.5-.6-.2-.2-.2-.5-.4-.7-.1-.2-.2-.5-.2-.7-.1-.2-.1-.4-.1-.6-.1-.4 0-.7 0-.9v-.4s.1.1.2.3c.1.1.1.2.2.3.1.1.2.3.3.4.1.2.2.3.3.5.1.2.2.3.3.5.3.3.5.7.8 1 .3.4.6.7.9 1 .3.3.6.6.9.8.6.5 1 .8 1 .8z"/><path fill="#6AC9D0" d="M57.1 14.5V14c0-.3-.1-.7-.1-1.2-.1-.2-.1-.5-.2-.7-.1-.3-.2-.5-.3-.8-.1-.3-.2-.5-.4-.7-.1-.3-.3-.5-.5-.7-.2-.2-.4-.4-.6-.5-.2-.2-.5-.3-.7-.4-.3-.1-.5-.2-.8-.3-.3 0-.5-.1-.7-.2-.2 0-.5-.1-.6-.1h-1l.4-.2c.1-.1.3-.1.5-.2.2 0 .4-.1.7-.1.3-.1.6 0 .9 0 .3 0 .6.1 1 .2.3.1.7.2 1 .4.3.2.6.4.9.7.2.3.5.6.6.9.2.3.3.7.4 1 .1.3.1.7.2 1v.9c-.1.5-.2 1-.3 1.2-.3.1-.4.3-.4.3zm-10 9.9s-.2.1-.5.1-.6-.1-.9-.3c-.3-.2-.5-.5-.5-.8-.1-.3 0-.5 0-.5s.2 0 .5.1c.2 0 .5.1.7.3.2.2.4.4.5.6.2.2.2.5.2.5z"/><path fill="#F59122" d="M103.9 29.8H75.3c-.6 0-1.1-.5-1.1-1.1V.3c0-.6.5-1.1 1.1-1.1h28.6c.6 0 1.1.5 1.1 1.1v28.4c0 .6-.5 1.1-1.1 1.1z" opacity=".25"/><path fill="#F59122" d="M86.1 16.6s.1-.1.3-.2c.2-.1.4-.3.7-.5.2-.2.5-.5.6-.8.2-.3.2-.7.2-.8v-.1c.1 0 0 0 0 0l-.1-.1c-.1-.1-.2-.1-.3-.1-.2 0-.6.1-.8.3-.2.2-.4.5-.5.6-.1.2-.2.3-.2.3v-.4c0-.2.1-.5.3-.9.1-.2.2-.4.4-.6.2-.2.5-.3.8-.4.3 0 .7 0 1 .2l.2.1.1.1.1.1c.1.1.3.3.3.5.1.4.1.7 0 1.1-.1.3-.2.6-.4.8-.4.4-.8.7-1.2.8-.4.1-.8.1-1 .1-.4 0-.5-.1-.5-.1z"/><path fill="#F59122" d="M85.5 12.3s0-.1.1-.1c0-.1.1-.2.3-.4.3-.3.7-.7 1.4-1 .4-.1.8-.2 1.2-.2.4 0 .9.2 1.3.4.2.1.4.3.6.4.1.1.4.4.5.6.3.4.5 1 .5 1.5.1 1-.3 2-.8 2.7-.5.7-1.2 1.3-1.8 1.6-.6.3-1.2.4-1.6.5h-.6s.2-.1.6-.2c.4-.1.9-.4 1.4-.7.5-.4 1-.9 1.4-1.6.4-.7.6-1.5.5-2.2 0-.4-.2-.7-.4-1-.1-.2-.2-.2-.3-.4-.1-.1-.3-.2-.4-.3-.6-.4-1.2-.4-1.8-.4-.6.1-1.1.3-1.4.4-.5.3-.7.4-.7.4zm-1.2-2.1l.2-.4c.1-.1.2-.3.3-.4.1-.2.3-.4.5-.5.2-.2.4-.3.7-.5.3-.2.6-.3.9-.4.3-.1.7-.2 1-.2H89c.4.1.7.1 1 .2.3.1.7.2 1 .4.6.3 1.1.7 1.5 1 .2.2.3.4.5.5.1.2.2.3.3.5.1.3.2.4.2.4s-.2-.1-.4-.3c-.2-.2-.6-.4-1-.6-.2-.1-.4-.2-.7-.3-.2-.1-.5-.2-.8-.3-.3-.1-.5-.1-.8-.2-.3-.1-.6-.1-.9-.1h-1.7c-.3.1-.5.1-.8.1-.2.1-.5.1-.7.2-.4.2-.8.3-1 .5-.2.3-.4.4-.4.4zm6.5 15.3s-.7.1-1.7.2-2.4.1-3.8-.3c-.7-.2-1.4-.4-2-.9-.3-.2-.6-.5-.8-.7-.2-.3-.4-.6-.5-.9-.1-.1-.1-.3-.1-.4v-1c.1-.3.1-.5.1-.5l.2.4c0 .1.1.3.3.5.1.2.2.3.4.5.1.2.4.3.5.4.2.1.4.2.7.3.2.1.5.2.8.3.3.1.6.2.9.2.6.2 1.3.3 1.9.4.6.2 1.2.3 1.7.5.8.5 1.4 1 1.4 1zm4.1-13.3s.1.2.4.5c.1.2.3.4.4.6.1.3.2.6.3 1 .1.4.1.8.1 1.2 0 .4 0 .9-.1 1.4-.1.2-.1.5-.2.7-.1.2-.2.5-.3.7-.2.5-.5.9-.8 1.3-.3.4-.6.8-1 1.1-.3.4-.7.6-1.1.9-.4.2-.7.5-1.1.7-.4.2-.7.3-1.1.5-.3.1-.7.2-.9.3-.3.1-.5.1-.8.1H88l.6-.3c.4-.2.8-.5 1.4-.9.3-.2.6-.4.8-.6.3-.2.6-.5.9-.8l.9-.9c.3-.3.5-.6.8-1 .2-.3.5-.7.7-1 .1-.2.2-.4.3-.5.1-.2.1-.4.2-.5.2-.4.2-.7.3-1.1 0-.4.1-.7.1-1v-.9c0-.3-.1-.5-.1-.7v-.8z"/><path fill="#F59122" d="M97.9 14.4l-.3-.6c-.1-.2-.2-.5-.3-.7-.1-.3-.2-.6-.4-.9-.2-.3-.3-.7-.6-1-.2-.3-.4-.7-.7-1-.2-.4-.6-.6-.9-.9-.3-.3-.7-.6-1-.8-.2-.1-.4-.3-.6-.4l-.6-.3-.6-.3c-.2-.1-.4-.1-.6-.2L90.1 7c-.4 0-.8-.1-1.1-.1h-1c-.3 0-.6 0-.8.1-.4.1-.7.1-.7.1s.2-.1.6-.4c.2-.1.4-.3.7-.4.3-.1.6-.3 1-.3.4-.1.8-.2 1.3-.2s.9 0 1.4.1c.2.1.5.1.8.2.2.1.5.2.7.3.3.1.5.2.7.3.2.1.5.2.7.4.4.3.8.7 1.2 1 .3.4.7.8.9 1.2.3.4.5.9.6 1.3.2.4.3.8.4 1.2.1.4.1.7.1 1v.8c.3.6.3.8.3.8z"/><path fill="#F59122" d="M88.9 5.3s-.2 0-.4.1c-.1 0-.3.1-.5.2-.2 0-.3.2-.5.2-.4.2-.8.4-1.3.7-.2.1-.4.3-.7.5-.2.2-.5.4-.7.5-.4.4-.9.8-1.3 1.1-.2.2-.4.4-.5.6-.1.2-.3.4-.5.5-.1.2-.3.3-.4.5-.1.2-.2.3-.3.4l-.2.4v-.9c0-.2.1-.4.2-.7.1-.5.4-1 .8-1.5.3-.5.8-1 1.3-1.4.3-.2.5-.4.8-.6.3-.2.6-.3.8-.4.3-.1.6-.2.8-.3.3-.1.5-.1.8-.1h.7c.2 0 .4 0 .5.1.5 0 .6.1.6.1zm-2.8 14.8s.3-.1.7-.1c.2 0 .5-.1.8-.2l.9-.3c.3-.2.7-.3 1-.5.2-.1.3-.2.5-.3.2-.1.3-.3.5-.4.3-.3.6-.6.9-1l.4-.6.3-.6c.1-.2.2-.4.2-.6.1-.2.2-.4.2-.6 0-.2.1-.4.1-.6v-.6c-.1-.4-.1-.8-.3-1.1-.1-.4-.3-.6-.6-.9-.1-.2-.2-.3-.3-.4l-.3-.3c-.2-.2-.4-.3-.6-.5-.4-.2-.6-.4-.6-.4s.2 0 .7.1c.2.1.5.1.8.3.3.2.7.3.9.6.2.1.3.3.5.4.2.2.3.4.4.6.3.4.4.9.6 1.4 0 .3.1.5.1.8 0 .3 0 .6-.1.8 0 .3-.1.5-.2.8-.1.3-.2.5-.3.8-.1.2-.2.5-.4.7l-.5.7-.6.6c-.2.2-.4.4-.6.5-.2.1-.4.3-.6.4-.2.1-.4.2-.7.3-.4.2-.9.3-1.3.4-.4.1-.8.1-1.1.1-.3 0-.6 0-.8-.1-.3-.2-.6-.2-.6-.2zm-3.7-4.2s-.1-.1-.2-.3c-.1-.1-.1-.2-.2-.3-.1-.1-.1-.3-.2-.5-.1-.4-.1-.8 0-1.3 0-.2.1-.5.2-.7.1-.2.2-.5.4-.7.3-.4.7-.8 1.1-1 .4-.3.8-.4 1.1-.5.7-.2 1.2-.2 1.2-.2s-.4.3-.9.7c-.5.4-1.2 1-1.6 1.6-.1.2-.2.3-.3.5-.1.2-.2.3-.2.5-.2.3-.2.7-.3 1v.8c-.1.3-.1.4-.1.4zm3.5 2.5h-.3c-.2 0-.4 0-.7-.1-.2 0-.3-.1-.5-.2s-.3-.2-.5-.4c-.1-.2-.3-.4-.4-.6-.1-.2-.1-.5-.2-.7 0-.2 0-.5.1-.7 0-.2.1-.4.2-.6.2-.4.4-.7.6-.9.4-.5.8-.7.8-.7v.3c0 .2-.1.4-.1.7 0 .1-.1.3-.1.4 0 .1-.1.3-.1.5 0 .3-.1.6-.1.9 0 .5.3 1 .7 1.4.2.2.3.4.5.5 0 .1.1.2.1.2z"/><path fill="#F59122" d="M84.3 5.4s.1-.2.4-.5c.1-.2.3-.3.5-.5s.5-.4.8-.6c.3-.2.7-.4 1-.5.4-.2.8-.3 1.2-.4.4 0 .9-.2 1.4-.1.5 0 1 0 1.4.1.5.1.9.2 1.4.3.5.1.9.3 1.3.6.4.2.7.5 1.1.7.3.3.6.5.8.9.2.3.4.6.5.8.1.3.2.5.3.7.1.4.1.6.1.6s-.1-.2-.4-.5c-.1-.2-.3-.3-.4-.5l-.6-.6c-.2-.2-.5-.4-.8-.6-.3-.2-.6-.4-1-.5-.2-.1-.4-.1-.5-.2-.2-.1-.4-.1-.6-.2L91 4.1c-.4-.1-.8-.1-1.2-.1h-1.2c-.4.1-.8.1-1.1.2-.4.1-.7.1-1 .2-.3.1-.6.2-.8.3-.2.1-.5.2-.6.3l-.8.4zm-2.9 10.1s0 .2.1.5c0 .2.1.3.1.5s.1.4.2.6c.1.2.2.4.3.7.2.2.3.5.5.7.2.2.4.4.6.7.2.2.4.4.7.6.2.2.5.3.8.5.3.1.5.3.8.4.3.1.5.2.8.2.3.1.5.1.8.1h1.7s-.1.1-.4.3c-.1.1-.3.2-.5.3-.2.1-.4.2-.7.2-.3 0-.6.1-.9.1-.3 0-.7 0-1-.1-.4-.1-.7-.2-1.1-.3-.3-.2-.7-.4-1-.6-.3-.2-.6-.5-.8-.8-.2-.3-.5-.6-.6-.9-.2-.3-.3-.6-.4-.9-.1-.3-.2-.6-.2-.9v-.8c0-.2 0-.4.1-.6 0-.3.1-.5.1-.5zm9 8.6s.2-.1.5-.1c.2 0 .3-.1.6-.2.2-.1.5-.2.7-.3.3-.1.5-.2.8-.4.3-.1.5-.3.8-.5.3-.2.5-.4.8-.6.3-.2.5-.5.7-.7.2-.3.4-.5.6-.8.2-.3.3-.6.5-.9.1-.3.3-.6.4-.9.1-.3.2-.6.3-.8.1-.3.1-.5.2-.7 0-.2.1-.4.1-.6.1-.3.1-.5.1-.5s.1.2.1.5c.1.3.2.8.2 1.4 0 .6-.1 1.3-.3 2.1-.2.4-.3.8-.5 1.1-.2.4-.5.7-.7 1l-.9.9c-.3.3-.7.5-1 .7-.3.2-.7.3-1 .4-.3.1-.7.2-1 .2-.6.1-1.1 0-1.5 0-.3-.2-.5-.3-.5-.3z"/><path fill="#6AC9D0" d="M29.5 104H.9c-.6 0-1.1-.5-1.1-1.1V74.5c0-.6.5-1.1 1.1-1.1h28.6c.6 0 1.1.5 1.1 1.1v28.4c0 .6-.5 1.1-1.1 1.1z" opacity=".25"/><path fill="#6AC9D0" d="M20.9 96.5s-.1.1-.2.1c-.1.1-.4.2-.7.2-.6.1-1.5.1-2.5-.4-.5-.2-1-.5-1.5-.9s-.9-.9-1.3-1.5-.6-1.2-.8-1.9c-.2-.7-.3-1.3-.4-2.1 0-.4 0-.8.1-1.2.1-.4.3-.9.7-1.2.2-.2.5-.3.8-.4h.7s.1 0 .2.1c.6.3.8.7 1 1.1.3.7.3 1.4.4 1.9 0 .5.1 1.1.2 1.5.2.9.5 1.7.8 2.2.3.5.5.8.5.8s-.1 0-.2-.1-.3-.2-.6-.4c-.5-.4-1-1.1-1.4-2.1-.2-.5-.4-1-.5-1.6-.1-.6-.2-1.1-.4-1.6-.1-.2-.3-.3-.3-.3h-.1s-.1 0-.1.1c-.2.2-.3.7-.3 1.2 0 .6.2 1.2.3 1.8.1.6.3 1.2.6 1.7.2.5.5 1 .9 1.4.4.4.7.7 1.1 1 .8.5 1.6.7 2.1.8.6-.1.9-.2.9-.2z"/><path fill="#6AC9D0" d="M19.5 91.1s-.1-.3-.2-1c-.2-.6-.3-1.5-.6-2.4-.2-.5-.4-.9-.7-1.3-.2-.2-.4-.3-.6-.5-.1 0-.3-.2-.4-.2-.1 0-.2-.1-.4-.1-1-.3-2.2-.1-3.1.8-.4.4-.8.9-1.1 1.5-.2.5-.4 1.1-.4 1.7 0 .6 0 1.2.1 1.7s.3 1.1.5 1.5c.2.5.4.9.6 1.2l.6.9.5.5.2.2s-.3-.1-.9-.5c-.3-.2-.6-.4-.9-.7-.3-.3-.7-.7-.9-1.2-.6-.9-1.1-2.2-1.1-3.7 0-.7.1-1.5.4-2.3.3-.7.8-1.4 1.3-1.9.6-.6 1.3-1 2.2-1.2.8-.2 1.7-.1 2.4.2.2.1.4.2.5.3.2.1.2.2.4.3.3.2.6.5.8.8.4.6.6 1.2.7 1.8.1 1.1.1 2 0 2.6.1.7.1 1 .1 1z"/><path fill="#6AC9D0" d="M20.3 93.1s0-.3.1-1c.1-.6.2-1.5.3-2.5.1-1 .2-2.2 0-3.4-.1-.6-.3-1.1-.5-1.7-.3-.5-.7-.9-1.2-1.3-.2-.2-.5-.3-.8-.4-.2-.1-.3-.1-.4-.2-.1 0-.3-.1-.4-.1-.6-.1-1.2-.2-1.8-.2-1.2 0-2.3.3-3.2.8-.9.4-1.5 1-1.9 1.5-.2.2-.3.4-.4.6l-.1.2v-.3c0-.2.1-.4.2-.7.2-.6.8-1.4 1.7-2 .9-.6 2.1-1.1 3.5-1.3.7-.1 1.4-.1 2.2.1.2 0 .4.1.6.1.2.1.4.1.5.2.4.2.7.3 1 .6.7.5 1.2 1.1 1.6 1.8.4.7.5 1.5.6 2.2.1.7 0 1.4-.1 2-.1.6-.2 1.2-.4 1.7-.3 1-.6 1.8-.9 2.4 0 .6-.2.9-.2.9zm-11-5.7s-.2 1.1 0 2.7c0 .4.1.8.2 1.3.1.4.2.9.5 1.3.2.4.4.9.7 1.3.1.2.3.4.5.6l.1.1.1.1.3.3c.4.3.7.7 1.1 1 .4.3.8.5 1.3.8.9.4 1.7.7 2.5.9.4.1.7.1 1.1.1h.8c.2 0 .4 0 .6-.1h.2s-.2.2-.7.4c-.5.2-1.2.4-2 .4-.4 0-.9 0-1.4-.1-.5-.1-1-.2-1.5-.5-.5-.2-1-.5-1.5-.8-.5-.3-.9-.7-1.4-1.1l-.3-.3-.1-.1-.1-.1-.1-.2c-.2-.2-.4-.5-.5-.7-.3-.5-.5-1-.7-1.5-.2-.5-.3-1-.3-1.5-.1-.5-.1-1 0-1.4 0-.9.2-1.5.4-2 .1-.6.2-.9.2-.9z"/><path fill="#6AC9D0" d="M7.6 92.2s.1.2.2.5c0 .2.1.4.2.6.1.2.2.5.3.7.1.3.2.5.4.8.1.3.3.5.5.8.2.3.4.5.6.8l.7.7c.2.3.5.4.8.7l.9.6c.6.4 1.2.6 1.7.8 1 .4 1.8.6 1.8.6h-.1c-.1 0-.2.1-.4.1-.4 0-.9.1-1.5 0-.3 0-.6-.1-1-.2-.3-.1-.7-.2-1.1-.4-.7-.3-1.5-.7-2.1-1.3l-.9-.9c-.2-.3-.5-.7-.6-1.1-.2-.4-.3-.7-.4-1.1-.1-.4-.2-.7-.2-1v-.8c0-.2.1-.4.1-.6.1-.1.1-.3.1-.3zm-.2-1.5s-.1-.3-.3-.8c-.1-.3-.2-.6-.3-1 0-.4-.1-.8-.1-1.3s0-1 .1-1.6c.1-.6.3-1.2.5-1.8.3-.6.5-1.2.9-1.7.4-.6.9-1 1.4-1.5.6-.4 1.1-.8 1.7-1.1.3-.2.6-.3.9-.4l.9-.3c.3-.1.6-.1.9-.2h.9c.6 0 1.1.1 1.6.2.5.2.9.3 1.3.5s.7.3.9.5c.4.4.7.6.7.6s-.3-.1-.8-.4c-.2-.1-.6-.2-.9-.3-.4-.1-.8-.1-1.2-.2-.5 0-.9 0-1.4.1-.5 0-1 .2-1.6.3-.5.2-1.1.4-1.6.7-.5.2-1 .6-1.4 1-.4.4-.9.8-1.2 1.3-.4.4-.6 1-.9 1.4l-.6 1.5c-.1.5-.3 1-.3 1.4 0 .4-.1.9-.1 1.2v1.9z"/><path fill="#6AC9D0" d="M9.4 79.5s.2-.2.7-.6c.2-.2.5-.4.8-.6.3-.2.7-.5 1.2-.7.5-.2 1-.4 1.5-.5.6-.2 1.2-.2 1.8-.3h1.5l.5.1c.7.1 1.3.4 1.9.6.6.3 1.2.7 1.7 1.1.1.1.3.2.4.3l.3.4c.2.3.5.5.6.8.2.3.3.5.5.8.1.3.2.6.3.8.3.5.3 1.1.4 1.6.1.5.1.9.1 1.3s-.1.7-.1 1c-.1.6-.2.9-.2.9s0-.3-.1-.9c0-.3 0-.6-.1-1s-.1-.8-.3-1.2c-.2-.4-.3-.9-.6-1.3-.1-.2-.2-.5-.4-.7-.2-.2-.3-.4-.5-.6-.1-.2-.4-.4-.6-.6l-.6-.6c-.4-.4-1-.6-1.5-.9-.5-.2-1.1-.5-1.6-.6-.3-.1-.6-.1-.8-.2-.3 0-.6-.1-.8-.1-.6 0-1.1 0-1.6.1-.5 0-1 .2-1.4.3-.5.1-.8.3-1.2.4-.4.1-.7.3-.9.4-.6.3-.9.5-.9.5zm13.9 8.4s0 .1.1.4c.1.3.1.6.1 1.1 0 .5 0 1-.1 1.6-.1.3-.1.6-.2.9l-.3.9c-.3.6-.6 1.1-1 1.5l-.6.6c-.2.2-.4.3-.6.4-.4.2-.8.3-1 .4-.3 0-.4.1-.4.1l.3-.3c.2-.2.5-.4.7-.7.3-.3.6-.7.8-1.1.1-.2.3-.4.4-.7.1-.2.3-.5.4-.7l.6-1.5c.2-.5.3-1 .4-1.4.1-.4.2-.8.3-1 .1-.4.1-.5.1-.5zM16.4 100s.5-.1 1.2-.4c.3-.1.7-.2 1.1-.4l.6-.3.6-.3c.2-.1.4-.2.5-.4.2-.1.3-.3.5-.4.2-.1.3-.3.4-.4.1-.1.2-.3.3-.4.1-.1.2-.3.3-.4.1-.1.1-.2.2-.3.1-.2.2-.3.2-.3v.4c0 .2 0 .6-.1.9 0 .2-.1.4-.2.6-.1.2-.2.5-.3.7-.2.2-.3.4-.5.6-.2.2-.4.4-.6.5-.2.2-.5.3-.7.4-.2.1-.5.2-.7.2-.5.1-1 .1-1.3.1-1.1-.1-1.5-.4-1.5-.4z"/><path fill="#6AC9D0" d="M122.5 66.9H93.9c-.6 0-1.1-.5-1.1-1.1V37.4c0-.6.5-1.1 1.1-1.1h28.6c.6 0 1.1.5 1.1 1.1v28.4c0 .6-.5 1.1-1.1 1.1z" opacity=".25"/><path fill="#6AC9D0" d="M112.4 54.1s-.1-.3-.2-1c-.2-.6-.3-1.5-.6-2.4-.2-.5-.4-.9-.7-1.3-.2-.2-.4-.3-.6-.5-.1 0-.3-.2-.4-.2-.1 0-.2-.1-.4-.1-1-.3-2.2-.1-3.1.8-.4.4-.8.9-1.1 1.5-.2.5-.4 1.1-.4 1.7 0 .6 0 1.2.1 1.7s.3 1.1.5 1.5c.2.5.4.9.6 1.2l.6.9.5.5.2.2s-.3-.1-.9-.5c-.3-.2-.6-.4-.9-.7-.3-.3-.7-.7-.9-1.2-.6-.9-1.1-2.2-1.1-3.7 0-.7.1-1.5.4-2.3.3-.7.8-1.4 1.3-1.9.6-.6 1.3-1 2.2-1.2.8-.2 1.7-.1 2.4.2.2.1.4.2.5.3.2.1.2.2.4.3.3.2.6.5.8.8.4.6.6 1.2.7 1.8.1 1.1.1 2 0 2.6.1.6.1 1 .1 1z"/><path fill="#6AC9D0" d="M113.3 56.1s0-.3.1-1c.1-.6.2-1.5.3-2.5.1-1 .2-2.2 0-3.4-.1-.6-.3-1.1-.5-1.7-.3-.5-.7-.9-1.2-1.3-.2-.2-.5-.3-.8-.4-.2-.1-.3-.1-.4-.2-.1 0-.3-.1-.4-.1-.6-.1-1.2-.2-1.8-.2-1.2 0-2.3.3-3.2.8-.9.4-1.5 1-1.9 1.5-.2.2-.3.4-.4.6l-.1.2v-.3c0-.2.1-.4.2-.7.2-.6.8-1.4 1.7-2 .9-.6 2.1-1.1 3.5-1.3.7-.1 1.4-.1 2.2.1.2 0 .4.1.6.1.2.1.4.1.5.2.4.2.7.3 1 .6.7.5 1.2 1.1 1.6 1.8.4.7.5 1.5.6 2.2.1.7 0 1.4-.1 2-.1.6-.2 1.2-.4 1.7-.3 1-.6 1.8-.9 2.4-.1.5-.2.9-.2.9zm-11-5.8s-.2 1.1 0 2.7c0 .4.1.8.2 1.3.1.4.2.9.5 1.3.2.4.4.9.7 1.3.1.2.3.4.5.6l.1.1.1.1.3.3c.4.3.7.7 1.1 1 .4.3.8.5 1.3.8.9.4 1.7.7 2.5.9.4.1.7.1 1.1.1h.8c.2 0 .4 0 .6-.1h.2s-.2.2-.7.4c-.5.2-1.2.4-2 .4-.4 0-.9 0-1.4-.1-.5-.1-1-.2-1.5-.5-.5-.2-1-.5-1.5-.8-.5-.3-.9-.7-1.4-1.1l-.3-.3-.1-.1-.1-.1-.1-.2c-.2-.2-.4-.5-.5-.7-.3-.5-.5-1-.7-1.5-.2-.5-.3-1-.3-1.5-.1-.5-.1-1 0-1.4 0-.9.2-1.5.4-2 .1-.6.2-.9.2-.9z"/><path fill="#6AC9D0" d="M100.6 55.1s.1.2.2.5c0 .2.1.4.2.6.1.2.2.5.3.7.1.3.2.5.4.8.1.3.3.5.5.8.2.3.4.5.6.8l.7.7c.2.3.5.4.8.7l.9.6c.6.4 1.2.6 1.7.8 1 .4 1.8.6 1.8.6h-.1c-.1 0-.2.1-.4.1-.4 0-.9.1-1.5 0-.3 0-.6-.1-1-.2-.3-.1-.7-.2-1.1-.4-.7-.3-1.5-.7-2.1-1.3l-.9-.9c-.2-.3-.5-.7-.6-1.1-.2-.4-.3-.7-.4-1.1-.1-.4-.2-.7-.2-1V56c0-.2.1-.4.1-.6 0-.1.1-.3.1-.3zm-.2-1.5s-.1-.3-.3-.8c-.1-.3-.2-.6-.3-1 0-.4-.1-.8-.1-1.3s0-1 .1-1.6c.1-.6.3-1.2.5-1.8.3-.6.5-1.2.9-1.7.4-.6.9-1 1.4-1.5.6-.4 1.1-.8 1.7-1.1.3-.2.6-.3.9-.4l.9-.3c.3-.1.6-.1.9-.2h.9c.6 0 1.1.1 1.6.2.5.2.9.3 1.3.5s.7.3.9.5c.4.4.7.6.7.6s-.3-.1-.8-.4c-.2-.1-.6-.2-.9-.3-.4-.1-.8-.1-1.2-.2-.5 0-.9 0-1.4.1-.5 0-1 .2-1.6.3-.5.2-1.1.4-1.6.7-.5.2-1 .6-1.4 1-.4.4-.9.8-1.2 1.3-.4.4-.6 1-.9 1.4l-.6 1.5c-.1.5-.3 1-.3 1.4 0 .4-.1.9-.1 1.2v1.9z"/><path fill="#6AC9D0" d="M102.3 42.4s.2-.2.7-.6c.2-.2.5-.4.8-.6.3-.2.7-.5 1.2-.7.5-.2 1-.4 1.5-.5.6-.2 1.2-.2 1.8-.3h1.5l.5.1c.7.1 1.3.4 1.9.6.6.3 1.2.7 1.7 1.1.1.1.3.2.4.3l.3.4c.2.3.5.5.6.8.2.3.3.5.5.8.1.3.2.6.3.8.3.5.3 1.1.4 1.6.1.5.1.9.1 1.3s-.1.7-.1 1c-.1.6-.2.9-.2.9s0-.3-.1-.9c0-.3 0-.6-.1-1s-.1-.8-.3-1.2c-.2-.4-.3-.9-.6-1.3-.1-.2-.2-.5-.4-.7-.2-.2-.3-.4-.5-.6-.1-.2-.4-.4-.6-.6l-.6-.6c-.4-.4-1-.6-1.5-.9-.5-.2-1.1-.5-1.6-.6-.3-.1-.6-.1-.8-.2-.3 0-.6-.1-.8-.1-.6 0-1.1 0-1.6.1-.5 0-1 .2-1.4.3-.5.1-.8.3-1.2.4-.4.1-.7.3-.9.4-.6.4-.9.5-.9.5z"/><path fill="#F59122" d="M66.7 104.1H38.1c-.6 0-1.1-.5-1.1-1.1V74.6c0-.6.5-1.1 1.1-1.1h28.6c.6 0 1.1.5 1.1 1.1V103c0 .6-.5 1.1-1.1 1.1z" opacity=".25"/><path fill="#F59122" d="M51.5 90.9s-.2-.1-.3-.4c-.2-.3-.4-.7-.4-1.3-.1-.6 0-1.2.4-1.9.2-.3.5-.7.9-.9.2-.1.4-.2.7-.2h.7c.5.1.9.5 1.1.8.2.4.3.7.4 1.1.1.7 0 1.3-.2 1.8s-.4.9-.6 1.1l-.3.3s.3-.6.3-1.5c0-.5 0-1-.2-1.5-.1-.2-.2-.5-.3-.6-.2-.2-.3-.2-.4-.2H53s-.1.1-.2.1c-.1.1-.3.2-.4.4-.2.3-.4.8-.6 1.2-.1.4-.2.8-.3 1.1v.6z"/><path fill="#F59122" d="M49.4 90.1s-.1-.1-.1-.2c-.1-.2-.2-.4-.2-.8-.1-.7-.1-1.7.4-2.8.2-.5.6-1.1 1.1-1.7.5-.5 1.3-.9 2.1-1 .8-.1 1.7.1 2.4.5.4.2.8.5 1.1.8.3.3.5.7.8 1 .4.8.6 1.6.6 2.4 0 .4 0 .8-.1 1.2-.1.2-.1.4-.2.6l-.2.6c-.6 1.4-1.7 2.4-2.7 3-.5.3-1 .5-1.5.6-.5.1-.9.1-1.2.1-.7 0-1-.2-1-.2s.4.1 1 0 1.5-.4 2.3-1c.8-.6 1.6-1.6 2.1-2.8l.1-.4c0-.2.1-.4.1-.5.1-.3.1-.6.1-1 0-.6-.2-1.3-.5-1.8-.2-.3-.3-.5-.6-.8-.2-.2-.4-.4-.7-.5-.6-.3-1.2-.4-1.7-.4-.5.1-1.1.3-1.5.6-.4.3-.8.8-1 1.2-.5.9-.8 1.8-.9 2.4-.2.5-.1.9-.1.9z"/><path fill="#F59122" d="M57.9 85.6s-.1-.1-.2-.4c-.1-.1-.2-.3-.3-.4-.1-.2-.2-.3-.4-.5s-.3-.4-.5-.6l-.6-.6c-.2-.2-.5-.3-.7-.5-.2-.2-.5-.3-.8-.4-.3-.2-.5-.3-.8-.4-.3-.1-.5-.2-.8-.3-.3-.1-.5-.1-.8-.2-.3 0-.5-.1-.7-.1h-1.1c-.3 0-.5.1-.5.1s.1-.1.4-.3c.1-.1.3-.2.5-.3.2-.1.4-.2.7-.2.3-.1.5-.1.8-.1h1c.3 0 .7.1 1 .2.3.1.7.2 1 .4l.9.6c.3.2.5.5.7.7.2.2.4.5.6.8.2.2.3.5.4.8.1.2.2.5.2.7.1.2.1.4.1.5-.1.4-.1.5-.1.5z"/><path fill="#F59122" d="M51.9 95.3h.7c.4 0 1-.1 1.7-.4.6-.3 1.3-.7 1.9-1.4.6-.6 1.1-1.4 1.5-2.3.4-.8.7-1.8.9-2.6.1-.4.1-.9.1-1.3v-1.2c-.1-.7-.2-1.3-.3-1.8-.1-.4-.2-.7-.2-.7s.2.2.4.6c.2.4.5 1 .7 1.7.1.4.2.8.2 1.3s.1.9 0 1.4c-.1 1-.4 2-.8 3-.5 1-1.1 1.8-1.9 2.5-.8.7-1.7 1.1-2.4 1.3-.8.2-1.5.1-1.9 0-.2 0-.4-.1-.5-.1h-.1z"/><path fill="#F59122" d="M46.3 86.9s0 1.2.3 3c.2.9.4 1.9.9 2.8.2.5.5.9.8 1.4.3.4.7.8 1.1 1.2.5.4.9.7 1.3 1.1.4.3.9.6 1.4.9.5.3.9.5 1.4.7.5.2.9.3 1.3.5.8.3 1.6.4 2.1.7.3.1.4.2.6.3.1.1.2.1.2.1h-.8c-.5 0-1.3 0-2.2-.1-.9-.1-2.1-.3-3.1-.8-.6-.2-1.1-.6-1.6-.9l-1.5-1.2c-.5-.4-.9-.9-1.3-1.5-.4-.5-.6-1.1-.8-1.7-.4-1.1-.5-2.3-.5-3.2 0-.9.1-1.7.2-2.2.1-.8.2-1.1.2-1.1z"/><path fill="#F59122" d="M44.7 92.1s.1.2.2.5c.1.2.1.4.2.6.1.2.2.5.3.7.1.3.3.5.4.8.2.3.3.5.5.8.4.5.9 1.1 1.4 1.6.3.3.5.5.8.7l.9.6c.3.2.6.4.9.5.3.1.6.3.8.4.5.2 1 .4 1.3.5.3.1.5.1.5.1h-.1c-.1 0-.2.1-.4.1-.4.1-.9.1-1.5 0-.3 0-.6-.1-1-.2-.3-.1-.7-.2-1-.4-.7-.3-1.4-.8-2-1.4l-.9-.9c-.3-.3-.5-.7-.7-1-.2-.4-.3-.7-.4-1.1-.1-.4-.2-.7-.2-1v-.9c0-.3.1-.5.1-.6-.2-.2-.1-.4-.1-.4zm-.2-1.7s-.1-.3-.1-.9c0-.3-.1-.6-.1-1v-1.3c0-.5.1-1 .1-1.6.1-.6.3-1.1.4-1.7.1-.3.2-.6.4-.9l.2-.5.3-.4c.3-.6.8-1.1 1.3-1.6l.8-.6c.3-.2.6-.3.9-.5.3-.2.6-.2.9-.4.3-.1.6-.2 1-.2.6-.1 1.3-.1 1.8 0 .6.1 1.1.2 1.6.4.2.1.5.2.7.2l.6.3c.4.2.6.4.9.5.5.3.7.5.7.5s-.3-.1-.8-.3l-.9-.3c-.2 0-.4-.1-.6-.2-.2 0-.4-.1-.6-.1-.4-.1-.9-.1-1.4-.1-.5 0-1 0-1.6.2-.5.1-1 .3-1.5.6-.2.1-.5.3-.7.4l-.7.5c-.4.4-.8.8-1.1 1.3-.3.4-.6 1-.8 1.5-.2.5-.4 1-.5 1.5-.1.5-.3 1-.4 1.4-.1.5-.2.9-.2 1.2 0 .4-.1.7-.1 1-.5.8-.5 1.1-.5 1.1z"/><path fill="#F59122" d="M55.3 78.9s.2 0 .5.1.8.3 1.3.5c.2.2.5.3.8.6.3.2.5.5.8.7.2.3.5.6.7.9.2.3.4.7.6 1 .1.4.3.7.4 1.1.1.4.2.8.3 1.1.1.7.2 1.4.1 2 0 .6-.1 1.1-.1 1.4-.1.3-.1.5-.1.5s-.1-.2-.1-.5c-.1-.3-.2-.8-.3-1.3-.1-.3-.2-.6-.2-.9-.1-.3-.2-.6-.3-1-.2-.7-.4-1.3-.7-2-.3-.7-.7-1.3-1-1.8-.2-.3-.4-.5-.6-.8l-.6-.6c-.2-.2-.4-.4-.6-.5-.2-.1-.3-.3-.5-.4-.2 0-.4-.1-.4-.1z"/><path fill="#F59122" d="M45.7 80.3l.3-.6c.1-.2.2-.4.4-.6.2-.2.4-.5.7-.7.3-.3.6-.5.9-.7.3-.2.7-.5 1.1-.7.4-.2.8-.4 1.3-.5.5-.1 1-.2 1.4-.3h1.5c.5 0 1 .2 1.4.3.4.2.9.3 1.2.5.4.2.7.4 1 .7.3.2.5.5.7.7.2.2.3.4.5.6.2.3.3.6.3.6s-.2-.1-.5-.4c-.2-.1-.3-.3-.6-.4-.2-.1-.5-.3-.8-.5-.3-.1-.6-.3-1-.4-.3-.1-.7-.2-1.1-.3-.4-.1-.8-.1-1.2-.1h-1.3c-.4.1-.9.1-1.3.2l-1.2.3c-.4.2-.8.3-1.1.5-.3.2-.7.3-.9.5-.3.2-.5.3-.8.5-.2.2-.4.3-.6.4-.1.2-.3.4-.3.4zm2.7 9.9s.1.1.2.3c.1.1.2.2.2.3l.3.3c.1.1.3.2.4.4.1.1.3.2.5.3.2.1.3.1.5.2s.3 0 .5 0 .4-.1.5-.1c.2-.1.3-.1.5-.3.2-.1.3-.2.4-.4.1-.1.2-.3.3-.4.1-.1.1-.3.2-.4 0-.1.1-.3.1-.4v-.4s.1.1.2.3c.1.1.1.2.2.4s.1.4.1.6c0 .2-.1.5-.1.7-.1.2-.2.5-.4.7-.2.2-.4.4-.7.5l-.9.3c-.3 0-.6 0-.9-.1-.3-.1-.6-.3-.8-.4-.2-.2-.4-.4-.5-.6-.1-.2-.3-.4-.3-.6-.2-.4-.2-.7-.2-.9-.3-.2-.3-.3-.3-.3zm6 6.9s.2 0 .4-.2c.1 0 .3-.1.5-.2l.6-.3c.2-.1.4-.2.6-.4.2-.1.4-.3.7-.5.4-.4.9-.8 1.2-1.2.2-.2.4-.5.5-.7.1-.3.3-.5.4-.7.3-.5.4-1 .6-1.5.1-.2.1-.4.2-.6 0-.2.1-.4.1-.5.1-.3.1-.4.1-.4s0 .2.1.4c.1.3.1.7.1 1.2 0 .3 0 .5-.1.8 0 .3-.1.6-.2.9-.2.6-.6 1.3-1 1.8-.2.3-.5.5-.8.7-.3.2-.6.4-.8.6-.6.3-1.1.5-1.7.6-.5.1-.9.1-1.2.1-.2 0-.3 0-.3-.1.1.2 0 .2 0 .2zm-6.6-8.5s-.1-.1-.2-.4c-.1-.3-.3-.7-.3-1.2 0-.3-.1-.6 0-.9 0-.3.1-.6.2-1 .1-.3.2-.7.4-1l.6-.9c.3-.3.6-.5.9-.7.3-.2.7-.3 1-.4.3-.1.7-.2 1-.2h.9c.3 0 .5.1.7.1.2.1.4.1.5.2.3.1.4.2.4.2h-1c-.2 0-.4.1-.6.1-.2 0-.5.1-.7.2-.3 0-.5.2-.8.3-.2.1-.5.2-.7.4-.2.1-.4.4-.6.5-.2.2-.4.4-.5.7-.2.2-.3.5-.4.7-.1.3-.2.5-.3.8-.1.3-.1.5-.2.7-.1.5-.1.9-.1 1.2-.2.5-.2.6-.2.6zm9.4 9.4s.3-.2.7-.4c.4-.2.8-.4 1.1-.7.1-.1.2-.1.3-.2.1-.1.2-.1.3-.2l.5-.5c.2-.1.3-.3.4-.4.1-.1.2-.1.2-.1s.1.3 0 .8c0 .2-.1.5-.3.8-.1.3-.4.5-.6.7-.3.2-.6.4-.9.4-.3.1-.6.1-.9 0-.6 0-.8-.2-.8-.2z"/><path fill="#EF5034" d="M103.8 104H75.5c-.7 0-1.2-.6-1.2-1.2V74.5c0-.6.5-1.1 1.1-1.1h28.4c.7 0 1.2.6 1.2 1.2v28.1c0 .7-.5 1.3-1.2 1.3z" opacity=".25"/><path fill="#6AC9D0" d="M85.4 66.8H56.8c-.6 0-1.1-.5-1.1-1.1V37.4c0-.6.5-1.1 1.1-1.1h28.6c.6 0 1.1.5 1.1 1.1v28.4c0 .6-.5 1-1.1 1z" opacity=".25"/><path fill="#EF5034" d="M89.8 91.9s-.1 0-.4-.2c-.2-.2-.5-.4-.8-.8-.2-.4-.4-.9-.5-1.6 0-.3 0-.7.2-1 .1-.3.3-.7.7-.9l.2-.2.1-.1h.1c.1-.1.3-.1.5-.2.4-.1.8 0 1.1.1.3.1.6.4.7.6.2.2.3.5.3.7.1.4.1.8.1 1.1 0 .3-.1.4-.1.4s0-.1-.1-.4c-.1-.2-.2-.5-.5-.8-.2-.3-.6-.6-.9-.6-.2 0-.3 0-.4.1-.1 0-.1 0-.2.1l-.1.1c.1 0 0 0 0 0l-.1.1c-.2.2-.3.6-.4 1-.1.4 0 .8 0 1.2 0 .4.1.7.2.9.3.2.3.4.3.4z"/><path fill="#EF5034" d="M87.5 91.1l-.2-.2c-.1-.1-.2-.3-.4-.6-.2-.5-.4-1.4-.4-2.4 0-.5.1-1 .3-1.6.2-.6.5-1.1 1-1.6s1.1-.9 1.9-1.1c.7-.2 1.5-.1 2.2.2.7.2 1.4.7 1.8 1.3.4.6.7 1.3.8 1.9.2 1.3 0 2.5-.3 3.4-.3.9-.8 1.6-1.1 2l-.6.6s.2-.3.4-.8.5-1.2.7-2.1c.2-.9.2-1.9-.1-2.9-.1-.5-.4-1-.7-1.4-.3-.4-.7-.7-1.2-.8-.5-.2-1-.2-1.5-.1s-.9.3-1.2.6c-.7.7-1.1 1.6-1.4 2.5-.2.8-.3 1.6-.2 2.1 0 .7.2 1 .2 1zm7.2-7.2l-.3-.3-.7-.7c-.1-.1-.3-.2-.5-.4l-.6-.3c-.2-.1-.4-.2-.7-.3-.2-.1-.5-.1-.7-.2-.5-.1-1-.2-1.5-.2h-1.3c-.4 0-.8.1-1 .1-.3 0-.4.1-.4.1l.3-.3c.1-.1.2-.2.4-.3.2-.1.3-.2.5-.3.4-.2.9-.4 1.5-.5.3 0 .6-.1.9 0 .3 0 .6.1.9.1l.9.3c.3.1.5.3.8.5.2.2.5.4.6.6.2.2.3.4.4.6l.3.6c.1.2.1.3.1.5.1.2.1.4.1.4z"/><path fill="#EF5034" d="M89.8 95.4h.7c.2 0 .5-.1.8-.1.1 0 .3-.1.4-.1.2 0 .3-.1.5-.2.3-.1.6-.4.9-.6l.9-.9c.1-.2.3-.4.4-.5.1-.2.2-.4.4-.6.2-.4.4-.8.6-1.3.2-.4.3-.9.5-1.3.1-.5.2-.9.3-1.3 0-.4.1-.9.1-1.3s0-.8-.1-1.2c-.1-.7-.2-1.3-.3-1.8-.1-.4-.2-.7-.2-.7l.5.5c.3.4.6.9.9 1.7.1.4.2.8.3 1.3.1.5.1.9.1 1.5 0 1-.3 2.1-.7 3.1-.2.5-.5 1-.7 1.4-.3.5-.6.9-1 1.2-.4.4-.8.7-1.2.9-.4.2-.8.4-1.3.5-.4.1-.8.1-1.1.1-.3 0-.6-.1-.8-.1-.7-.1-.9-.2-.9-.2z"/><path fill="#EF5034" d="M83.7 87.2v.8c0 .5.1 1.3.3 2.1.2.9.6 1.8 1.2 2.6.3.4.7.8 1.1 1.2.4.4.9.7 1.4 1.1 1 .7 2 1.2 3 1.7s2 .9 2.8 1.3c.8.4 1.5.9 1.9 1.3.2.2.3.4.4.5.1.1.1.2.1.2s-.2-.2-.7-.5c-.4-.3-1.1-.5-2-.8-.9-.3-1.9-.5-3-1-1.1-.4-2.2-1-3.3-1.7l-1.5-1.2c-.5-.4-.9-1-1.2-1.5-.3-.5-.6-1.1-.7-1.6-.2-.5-.2-1.1-.3-1.6-.1-1 .1-1.8.2-2.3.2-.3.3-.6.3-.6z"/><path fill="#EF5034" d="M82.5 93s.1.2.2.6c.1.2.1.4.2.6.1.2.2.4.4.7.2.2.3.5.6.7l.7.7c.1.1.3.2.4.3.2.1.3.2.5.3.3.2.7.4 1 .6.4.2.7.4 1.1.5.4.2.7.3 1.1.5.7.3 1.4.5 2 .7 1.2.4 2 .7 2 .7s-.9.1-2.1.1c-.6 0-1.4-.1-2.2-.4-.4-.1-.8-.2-1.2-.4-.4-.1-.8-.3-1.2-.5-.4-.2-.8-.4-1.1-.7-.4-.3-.7-.6-1-.9-.3-.3-.5-.7-.7-1-.2-.3-.3-.7-.5-1-.1-.3-.1-.7-.2-.9-.1-.3 0-.5 0-.7-.1-.3 0-.5 0-.5zm-.4-2.2s-.1-.3-.3-.8c-.1-.3-.2-.6-.3-1-.1-.4-.1-.8-.2-1.3s0-1 0-1.6c0-.6.2-1.1.3-1.7.2-.6.4-1.2.7-1.8.3-.6.7-1.1 1.2-1.6s1-.9 1.6-1.3c.3-.2.6-.3.9-.5.3-.1.6-.3.9-.3.3-.1.6-.2.9-.2.3 0 .6-.1.9-.1.6 0 1.1 0 1.6.1s.9.2 1.3.4.7.3.9.5c.5.3.7.5.7.5s-.3-.1-.8-.3c-.2-.1-.6-.1-.9-.2-.4-.1-.8-.1-1.2-.1h-.7c-.2 0-.5 0-.7.1-.2.1-.5.1-.7.2-.2.1-.5.2-.7.3-.3.1-.5.2-.7.3-.2.1-.5.2-.7.4-.5.3-.9.7-1.3 1.1-.4.4-.8.9-1 1.4-.3.5-.5 1-.7 1.5-.2.5-.3 1-.4 1.5-.1.5-.2 1-.2 1.4 0 .4-.1.9-.1 1.2v1c-.3.6-.3.9-.3.9z"/><path fill="#EF5034" d="M82.3 80.7s.2-.3.5-.8c.2-.3.4-.6.7-.9.2-.2.3-.4.5-.5.2-.2.4-.3.6-.5.4-.4 1-.6 1.6-.9.6-.2 1.3-.5 2-.5.7-.1 1.5-.1 2.2 0 .4.1.8.1 1.1.2.4.1.7.3 1.1.4.4.1.7.4 1 .5.3.2.7.4.9.7.3.2.6.5.8.8.2.3.5.6.7.8.4.6.7 1.2 1 1.8.2.6.4 1.2.6 1.7l.3 1.5c.1.4 0 .8 0 1.2v1s-.1-.3-.3-1c-.1-.3-.1-.7-.3-1.1-.2-.4-.3-.9-.5-1.4-.2-.5-.5-1-.7-1.5-.1-.3-.3-.5-.5-.7-.2-.2-.3-.5-.6-.7-.2-.2-.4-.5-.7-.7-.2-.2-.5-.4-.8-.6-.2-.2-.5-.4-.8-.5-.3-.2-.6-.4-.9-.4-.3-.1-.6-.3-.9-.4-.3-.1-.6-.1-1-.2-.6-.1-1.3-.2-1.9-.1-.6 0-1.2.2-1.8.3-.3.1-.5.2-.8.3-.3.1-.5.2-.7.3-.5.2-.9.4-1.2.7-.3.2-.7.4-.9.7-.1.2-.3.5-.3.5zm3.2 9.7l.3.3c.1.1.2.2.3.4.1.1.3.2.4.4.1.1.3.3.5.4.2.2.4.3.6.4l.6.3c.2.1.4.2.7.2.2.1.4 0 .7 0h.3l.3-.1c.2-.1.4-.1.5-.3.1 0 .1-.1.2-.2l.2-.2c.1-.1.2-.3.2-.5s.1-.3.1-.4v-.4s.1.1.2.3c.1.1.2.3.2.5.1.2.1.4.1.7 0 .3-.1.6-.3.8-.2.3-.4.5-.7.7-.2.1-.3.1-.5.2s-.3.1-.5.1c-.3 0-.7.1-1 0-.4 0-.7-.2-1-.3-.3-.2-.6-.3-.8-.5-.2-.2-.4-.4-.6-.7-.2-.2-.3-.4-.4-.7-.2-.4-.3-.8-.3-1.1-.3-.1-.3-.3-.3-.3zm8 6.6s.4-.4.9-.8c.3-.2.6-.5.8-.8.3-.3.6-.6.8-1 .2-.2.3-.4.4-.5.1-.2.2-.4.4-.5.1-.2.2-.4.3-.5.1-.2.2-.3.3-.5.1-.2.2-.3.2-.4.1-.1.1-.3.2-.3.1-.2.2-.3.2-.3s0 .1.1.4c0 .2.1.6.1 1 0 .2 0 .4-.1.6-.1.2-.1.5-.2.7-.1.2-.2.5-.3.7-.1.2-.3.5-.4.7-.3.4-.7.8-1.2 1.1-.4.3-.8.5-1.2.6-.7-.1-1.3-.2-1.3-.2z"/><path fill="#EF5034" d="M85.3 88.9s-.1-.1-.3-.4c-.1-.3-.3-.7-.4-1.2 0-.3-.1-.6-.1-.9 0-.3 0-.6.1-1 .1-.3.2-.7.3-1 .1-.3.4-.7.6-1 .3-.3.5-.6.9-.8.3-.2.7-.3 1-.5.3-.1.7-.2 1-.2h.9c.5.1.9.2 1.2.3.3.1.4.2.4.2s-.2 0-.5.1c-.1 0-.3.1-.5.1s-.4.1-.6.1c-.2 0-.5.2-.7.2-.3.1-.5.2-.7.3-.2.2-.5.3-.7.5l-.6.6c-.2.2-.3.4-.5.7-.1.2-.3.5-.4.7-.1.3-.2.5-.2.8-.1.3-.1.5-.2.7 0 .2-.1.5-.1.6v.5c.1.4.1.6.1.6zm10.5 9.5s0-.3.1-.5c0-.1.1-.3.2-.4.1-.1.2-.2.2-.3.2-.2.4-.2.7-.3h.5s.1.2.1.5c0 .2-.1.3-.1.5-.1.2-.2.3-.3.4-.3.2-.6.3-.9.3-.3-.1-.5-.2-.5-.2z"/><path fill="#469DA1" d="M48.2 66.8H19.6c-.6 0-1.1-.5-1.1-1.1V37.4c0-.6.5-1.1 1.1-1.1h28.6c.6 0 1.1.5 1.1 1.1v28.4c0 .6-.5 1-1.1 1z" opacity=".25"/><path fill="#469DA1" d="M28.2 59.3s.3.2.9.1c.6 0 1.3-.3 2.1-.8.4-.3.8-.6 1.1-1 .4-.4.7-.9.9-1.4.3-.5.4-1.1.6-1.7.1-.6.3-1.3.3-1.8 0-.6-.1-1.1-.3-1.2l-.1-.1h-.1s-.2.1-.3.3c-.2.4-.3 1-.4 1.6-.2.6-.3 1.1-.5 1.6-.4 1-1 1.7-1.4 2.1-.2.2-.4.3-.6.4-.1.1-.2.1-.2.1s.2-.3.5-.8.6-1.2.8-2.2c.1-.5.2-1 .2-1.5.1-.5.1-1.2.4-1.9.2-.4.4-.8 1-1.1.1 0 .2-.1.2-.1h.7c.3.1.6.2.8.4.4.3.6.8.7 1.2.1.4.1.8.1 1.2-.1.8-.2 1.4-.4 2.1-.2.7-.5 1.3-.8 1.9-.4.6-.8 1.1-1.3 1.5-.5.4-1 .7-1.5.9-1 .4-1.9.5-2.5.4-.3-.1-.5-.1-.7-.2-.1.1-.2 0-.2 0z"/><path fill="#469DA1" d="M29.7 54s0-.4-.1-1c0-.6-.1-1.5 0-2.6.1-.6.2-1.2.7-1.8.2-.3.5-.6.8-.8.2-.1.3-.2.4-.3.2-.1.4-.2.5-.3.7-.3 1.6-.4 2.4-.2.8.2 1.6.6 2.2 1.2.6.5 1.1 1.2 1.3 1.9.3.8.4 1.5.4 2.3 0 1.5-.5 2.7-1.1 3.7-.3.5-.6.9-.9 1.2-.3.3-.6.6-.9.7-.5.4-.9.5-.9.5l.2-.2.5-.5c.2-.2.4-.5.6-.9l.6-1.2c.2-.5.3-1 .5-1.5.1-.6.1-1.1.1-1.7 0-.6-.2-1.2-.4-1.7-.3-.6-.6-1.1-1.1-1.5-.9-.9-2.1-1.1-3.1-.8-.1 0-.2.1-.4.1-.1 0-.3.2-.4.2-.2.1-.4.3-.6.5-.3.4-.5.8-.7 1.3-.3.9-.4 1.8-.6 2.4.1.6 0 1 0 1z"/><path fill="#469DA1" d="M28.8 56s-.2-.3-.4-.9c-.2-.6-.6-1.4-.9-2.4-.2-.5-.3-1.1-.4-1.7-.1-.6-.2-1.3-.1-2s.2-1.5.6-2.2c.4-.7.9-1.3 1.6-1.8.3-.2.7-.4 1-.6.2-.1.3-.1.5-.2s.4-.1.6-.1c.8-.2 1.5-.1 2.2-.1 1.4.2 2.6.7 3.5 1.3.9.6 1.5 1.4 1.7 2 .1.3.2.5.2.7v.3s0-.1-.1-.2-.2-.4-.4-.6c-.3-.5-1-1-1.9-1.5-.9-.4-2-.7-3.2-.8-.6 0-1.2 0-1.8.2-.1 0-.3.1-.4.1-.1 0-.3.1-.4.2-.2.1-.5.3-.8.4-.5.3-.9.8-1.2 1.3-.3.5-.5 1.1-.5 1.7-.2 1.2-.1 2.4 0 3.4s.3 1.9.3 2.5c.3.6.3 1 .3 1zm11-5.7s.1.2.3.7c.1.5.3 1.2.4 2v1.4l-.3 1.5c-.2.5-.4 1-.7 1.5-.1.3-.3.5-.5.7l-.1.2-.1.1-.1.1-.3.3c-.4.4-.9.8-1.4 1.1-.5.3-1 .6-1.5.8-.5.2-1 .4-1.5.5-.5.1-1 .1-1.4.1-.9 0-1.6-.2-2-.4-.5-.2-.7-.4-.7-.4h.2c.1 0 .3 0 .6.1h.8c.3 0 .7-.1 1.1-.1.8-.2 1.6-.4 2.5-.9.4-.2.9-.5 1.3-.8.4-.3.8-.6 1.1-1l.3-.3.1-.1.1-.1c.2-.2.3-.4.5-.6.3-.4.5-.8.7-1.3.2-.4.3-.9.5-1.3.1-.4.2-.9.2-1.3.1-1.4-.1-2.5-.1-2.5z"/><path fill="#469DA1" d="M41.5 55.1s0 .2.1.5c0 .2.1.4.1.6v.8c0 .3-.1.6-.2 1s-.2.7-.4 1.1c-.2.4-.4.7-.6 1.1-.3.3-.5.7-.9.9-.6.6-1.4 1-2.1 1.3-.4.2-.7.3-1.1.4-.3.1-.7.1-1 .2-.6.1-1.1 0-1.5 0-.2 0-.3-.1-.4-.1h-.1s.8-.2 1.8-.6c.5-.2 1.1-.5 1.7-.8l.9-.6c.3-.2.6-.4.8-.7.3-.2.5-.5.7-.7.2-.3.4-.5.6-.8.1-.3.4-.6.5-.8.1-.3.3-.5.4-.8.1-.3.2-.5.3-.7.1-.2.1-.4.2-.6.2-.5.2-.7.2-.7zm.2-1.5v-1.9c0-.4-.1-.8-.1-1.2 0-.5-.2-.9-.3-1.4-.1-.5-.4-1-.6-1.5-.3-.5-.5-1-.9-1.4-.3-.5-.8-.9-1.2-1.3-.5-.3-.9-.7-1.4-1-.5-.3-1-.5-1.6-.7-.5-.1-1.1-.3-1.6-.3-.5-.1-1 0-1.4-.1-.4.1-.9.1-1.2.2-.3.1-.7.2-.9.3-.5.2-.8.4-.8.4s.2-.2.7-.6c.2-.2.5-.3.9-.5s.8-.3 1.3-.5c.5-.1 1-.2 1.6-.2h.9c.3 0 .6.1.9.2l.9.3c.3.1.6.2.9.4.6.3 1.2.7 1.7 1.1.5.5 1 .9 1.4 1.5.4.5.7 1.2.9 1.7.2.6.4 1.2.5 1.8 0 .6.1 1.1.1 1.6s-.1 1-.1 1.3c-.1.4-.2.7-.3 1-.2.5-.3.8-.3.8z"/><path fill="#469DA1" d="M39.8 42.3s-.3-.1-.8-.4c-.2-.1-.6-.3-.9-.4-.4-.1-.7-.3-1.2-.4-.4-.1-.9-.2-1.4-.3-.5-.1-1.1-.1-1.6-.1-.3 0-.6.1-.8.1-.3 0-.6.1-.8.2-.6.1-1.1.3-1.6.6s-1 .5-1.5.9l-.6.6-.6.6c-.2.2-.3.4-.5.6-.2.2-.3.5-.4.7-.3.4-.4.9-.6 1.3-.2.4-.2.8-.3 1.2-.1.4-.1.7-.1 1-.1.6-.1.9-.1.9s-.1-.3-.2-.9c0-.3-.1-.6-.1-1s0-.9.1-1.3c.1-.5.2-1 .4-1.6.1-.3.2-.6.3-.8.2-.3.3-.5.5-.8.2-.3.4-.5.6-.8l.3-.4c.1-.1.3-.2.4-.3.5-.5 1.1-.8 1.7-1.1.6-.2 1.3-.5 1.9-.6l.5-.1h1.5c.6 0 1.2.1 1.8.3.6.1 1.1.3 1.5.5.5.2.8.4 1.2.7.4.2.6.4.8.6.4.3.6.5.6.5zm-14 8.4s.1.1.1.4c.1.2.2.6.3 1 .1.4.3.9.4 1.4.2.5.3 1 .6 1.5.1.3.2.5.4.7.1.2.2.5.4.7.3.4.6.8.8 1.1.3.3.5.6.7.7l.3.3s-.1 0-.4-.1c-.3-.1-.6-.2-1-.4-.2-.1-.4-.3-.6-.4l-.6-.6c-.4-.4-.7-1-1-1.5l-.3-.9c-.1-.3-.1-.6-.2-.9-.1-.6-.1-1.1-.1-1.6s.1-.8.1-1.1c.1-.1.1-.3.1-.3zm7 12.2s-.5.2-1.3.3c-.4 0-.9 0-1.3-.1-.2-.1-.5-.1-.7-.2-.2-.1-.5-.2-.7-.4-.2-.2-.5-.3-.6-.5-.2-.2-.4-.4-.5-.6-.2-.2-.2-.4-.3-.7-.1-.2-.2-.4-.2-.6-.1-.4-.1-.7-.1-.9v-.4s.1.1.2.3c.1.1.1.2.2.3.1.1.2.3.3.4.1.1.2.3.3.4.1.1.2.3.4.4.1.1.3.3.5.4.2.1.3.3.5.4l.6.3.6.3c.4.2.8.3 1.1.4.5.3 1 .5 1 .5z"/><path fill="#EF5034" d="M11 66.8h-28.6c-.6 0-1.1-.5-1.1-1.1V37.4c0-.6.5-1.1 1.1-1.1H11c.6 0 1.1.5 1.1 1.1v28.4c-.1.6-.5 1-1.1 1z" opacity=".25"/><path fill="#EF5034" d="M.1 52.9s-.1.1-.4.1c-.2 0-.6 0-1-.1s-.8-.4-1.2-.9c-.2-.2-.3-.5-.4-.8-.1-.3-.1-.7.1-1.1.1-.2.2-.4.4-.5l.1-.1c.1-.1.1 0 .1-.1l.2-.1c.3-.2.7-.2 1-.2.3.1.6.2.8.4.2.2.3.4.4.6.2.4.2.7.2.9v.3s-.1-.1-.2-.3c-.1-.2-.3-.4-.5-.7-.2-.2-.5-.4-.8-.4-.1 0-.2.1-.3.1l-.1.1s-.1.1 0 0c0 0 0 .1-.1.1-.1.2 0 .5.1.8.1.3.4.6.6.8.2.2.5.4.6.5.3.6.4.6.4.6z"/><path fill="#EF5034" d="M1 48.7s-.2-.1-.5-.3c-.3-.2-.8-.4-1.4-.5-.6-.1-1.2 0-1.8.3-.1.1-.3.2-.4.3-.2.2-.3.2-.4.4-.2.3-.4.6-.4 1-.1.7 0 1.5.4 2.2.3.7.8 1.2 1.3 1.6.5.4 1 .7 1.3.8.3.2.6.2.6.2s-.2 0-.6-.1c-.4-.1-.9-.2-1.6-.6-.6-.3-1.3-.9-1.7-1.7-.5-.8-.8-1.7-.7-2.8.1-.5.3-1 .6-1.4.1-.2.4-.4.5-.6.2-.2.4-.3.6-.4.4-.2.9-.3 1.4-.3.4 0 .9.1 1.2.2.7.3 1.1.7 1.4 1.1.1.2.2.3.2.4-.1.2 0 .2 0 .2zm1.3-2.1l-.4-.2c-.3-.2-.6-.3-1-.5-.2-.1-.4-.2-.7-.2-.2-.1-.5-.1-.8-.2-.5-.1-1.1-.1-1.7-.1-.6 0-1.2.1-1.7.2-.3.1-.5.1-.8.2-.2.1-.5.2-.7.3l-1 .5-.4.2.2-.4c.1-.1.2-.3.3-.5.1-.2.3-.4.5-.5.4-.4.9-.7 1.5-1 .3-.1.6-.3 1-.3.3-.1.7-.1 1.1-.2.4 0 .7 0 1.1.1.4 0 .7.2 1 .2.3.1.6.2.9.4.3.1.5.3.7.5l.5.5c.1.2.2.3.3.5 0 .4.1.5.1.5zm-7.4 15s.6-.4 1.7-.7c.5-.2 1.1-.3 1.7-.4.6-.1 1.3-.2 1.9-.4.3-.1.6-.1.9-.2.3-.1.6-.2.8-.3.3-.1.5-.2.7-.3.2-.1.4-.2.6-.4.2-.1.3-.3.4-.5.1-.2.2-.3.3-.4.1-.3.2-.4.2-.4s0 .2.1.5v.6c0 .1 0 .2-.1.4 0 .1-.1.3-.2.4-.1.3-.3.6-.5.8-.2.2-.5.5-.8.7-.6.4-1.4.6-2.1.8-1.4.3-2.8.2-3.9.1-.9-.2-1.7-.3-1.7-.3zm-3.3-13.5s0 .2-.1.6c0 .2-.1.4-.1.7 0 .3 0 .6-.1.9 0 .3 0 .7.1 1 .1.4.1.7.2 1.1.1.2.1.4.2.6.1.2.2.4.2.5.2.4.4.7.6 1.1.2.3.5.7.7 1 .2.3.5.6.8.9l.8.8c.3.2.5.5.8.7.5.4 1 .7 1.3.9l.6.3h-.7c-.2 0-.5-.1-.7-.1l-.9-.3c-.3-.1-.7-.3-1-.5-.4-.2-.7-.5-1.1-.7-.3-.3-.7-.6-1-1-.3-.3-.6-.7-.9-1.2-.2-.4-.5-.9-.7-1.3-.1-.2-.2-.5-.2-.7 0-.2-.1-.5-.1-.7-.1-.5 0-.9-.1-1.4 0-.4.1-.8.2-1.2.1-.4.3-.7.4-.9.1-.3.3-.4.4-.6.3-.3.4-.5.4-.5z"/><path fill="#EF5034" d="M-11.5 50.2v-.7c0-.2 0-.5.1-.8.1-.3.1-.7.2-1 .1-.4.2-.8.4-1.2.2-.4.4-.8.7-1.2.3-.4.6-.8 1-1.2.4-.3.8-.7 1.3-1 .2-.2.5-.3.7-.4.2-.1.5-.2.7-.3.3-.1.5-.2.8-.2.3 0 .5-.1.8-.1.5-.1 1-.1 1.4 0 .5 0 .9.1 1.2.3.4.1.7.2 1 .4.3.1.5.3.7.4.4.3.6.4.6.4s-.3 0-.7-.1c-.2-.1-.5-.1-.8-.1-.3 0-.6-.1-1-.1h-1.1c-.4 0-.8.1-1.2.2-.2.1-.4.1-.6.2-.2.1-.4.2-.6.2l-.6.3-.6.3c-.4.2-.7.5-1.1.8-.3.3-.7.6-.9.9-.3.3-.5.6-.8 1-.3.3-.4.7-.6.9-.2.3-.3.6-.5.8-.1.3-.2.5-.3.7-.1.4-.2.6-.2.6zm9.4-8.7s.2-.1.4-.1c.1 0 .3-.1.5-.1h.7c.3 0 .5.1.8.2.3.1.6.2.8.3.3.1.6.3.8.5.3.2.5.4.8.6.5.5.9 1 1.2 1.5.3.5.6 1.1.7 1.5.1.2.1.5.1.7v.5c0 .3-.1.4-.1.4s-.1-.1-.2-.4c0-.1-.2-.3-.2-.4-.1-.2-.2-.3-.3-.5-.1-.2-.3-.4-.4-.6-.2-.2-.3-.4-.5-.6l-1.2-1.2-.6-.6c-.2-.2-.4-.4-.6-.5-.4-.3-.9-.6-1.2-.8-.2-.1-.4-.2-.5-.3-.2-.1-.3-.1-.4-.2-.4.2-.6.1-.6.1zm2 14.9s-.3 0-.7.1c-.2 0-.5.1-.8 0-.3 0-.7 0-1.1-.1-.4-.1-.8-.2-1.2-.4l-.6-.3c-.2-.1-.4-.3-.6-.5-.2-.1-.4-.3-.6-.5-.2-.2-.4-.4-.5-.6l-.4-.7c-.1-.2-.2-.5-.4-.8-.1-.3-.2-.5-.2-.8-.1-.3-.1-.5-.1-.8v-.8c0-.3.1-.5.1-.8.2-.5.4-1 .7-1.4.3-.4.6-.7 1-.9.3-.3.7-.4 1-.5.3-.2.6-.2.8-.2.4-.1.7-.1.7-.1s-.2.1-.6.4c-.2.1-.4.2-.6.4-.1.1-.2.2-.4.3-.1.1-.3.2-.4.3-.2.3-.5.5-.6.9-.2.3-.3.7-.4 1.1v1.2c0 .2.1.4.1.6.1.2.1.4.2.6l.3.6.3.6c.3.3.5.7.8 1 .2.1.3.3.5.4.2.1.3.2.5.4.3.3.7.4 1 .6.3.2.6.2.9.4.3.1.5.2.8.2.2 0 .5.1.5.1zm3.9-4v-1.1c0-.3-.1-.7-.2-1 0-.2-.1-.3-.2-.5s-.2-.3-.3-.5c-.4-.7-1-1.3-1.5-1.7-.5-.5-.9-.8-.9-.8s.5 0 1.2.2c.3.1.7.3 1.1.6.4.3.7.6 1 1.1.3.4.5.9.5 1.4.1.5 0 1-.1 1.3-.1.2-.1.3-.2.5-.1.1-.2.2-.2.3l-.2.2zM.3 54.7l.2-.2c.1-.1.3-.3.5-.4.4-.4.8-.8.8-1.4v-.9c0-.3-.1-.6-.1-.9-.1-.3-.1-.5-.1-.7v-.3s.4.2.7.7c.2.2.4.5.5.9.1.2.1.4.2.6v.7c0 .2-.1.5-.2.7-.1.2-.3.4-.4.6-.2.2-.3.3-.5.4-.2.1-.3.2-.5.2-.3.1-.6.1-.7.1-.3-.1-.4-.1-.4-.1z"/><path fill="#EF5034" d="M2.9 41.9s-.2-.1-.5-.3l-.6-.3c-.2-.1-.5-.2-.8-.3-.3-.1-.6-.2-1-.3-.3-.1-.7-.1-1.1-.2-.4 0-.8-.1-1.2-.1h-1.2c-.4 0-.8.1-1.2.2-.2.1-.4.1-.6.1-.2.1-.4.1-.6.2-.4.1-.7.3-1 .4-.3.2-.6.3-.9.5-.3.2-.5.4-.7.5-.2.2-.4.3-.5.5-.2.3-.4.5-.4.5s.1-.2.2-.6c.1-.2.2-.4.3-.7.1-.3.3-.5.6-.8.2-.3.5-.5.8-.8.3-.2.7-.5 1.1-.7.4-.2.8-.4 1.3-.5.5-.1.9-.2 1.4-.3h1.4c.5 0 .9.1 1.4.2.4.1.9.2 1.2.4.4.2.7.3 1 .6.3.2.6.4.8.6l.5.5c.2.5.3.7.3.7zm2 10.2s.1.2.1.5c0 .1.1.3.1.6v.8c0 .3-.1.6-.2.9-.1.3-.2.6-.5.9-.2.3-.4.6-.7.9-.3.3-.5.5-.9.7-.3.2-.7.4-1 .5-.4.1-.7.3-1.1.3-.4.1-.7.1-1 0-.3 0-.6-.1-.9-.2-.3-.1-.5-.2-.7-.3-.2-.1-.4-.2-.5-.3-.3-.2-.4-.3-.4-.3h.5c.2 0 .3.1.5 0h.7c.2 0 .5 0 .8-.1.3 0 .5-.1.8-.2.3-.1.5-.2.8-.3.3-.1.5-.3.8-.5.3-.2.5-.4.7-.6l.6-.6c.2-.2.3-.5.5-.7.1-.2.3-.5.4-.7l.3-.6c.1-.2.1-.4.2-.5l.1-.2zm-9.5 8.2s-.2.1-.5.1-.9.1-1.5-.1c-.3-.1-.6-.1-1-.3-.3-.1-.7-.3-1-.5-.3-.2-.7-.4-1-.7l-.9-.9c-.3-.3-.5-.7-.7-1.1-.2-.4-.3-.8-.4-1.1-.2-.8-.3-1.5-.2-2.1 0-.6.1-1.1.3-1.4.1-.3.2-.5.2-.5s0 .2.1.5c0 .2.1.4.1.6.1.2.1.5.2.7.1.3.2.5.2.8l.3.9c.2.3.3.6.5.9l.6.9c.2.3.4.5.7.8l.7.7c.3.2.5.4.8.6.3.2.5.3.8.4.2.1.5.2.7.3.2.1.4.1.5.2.3.2.5.3.5.3z"/><path fill="#6AC9D0" d="M67.6 53.8s.1-.1.3-.2c.2-.1.4-.3.6-.5.2-.2.4-.5.6-.8.1-.3.2-.6.2-.7v-.1l-.1-.1c-.1 0-.2-.1-.2-.1-.2-.1-.5.1-.8.3-.3.2-.4.4-.6.6-.1.2-.2.3-.2.3v-.4c0-.2 0-.6.2-1 .1-.2.2-.4.4-.6.2-.2.5-.4.8-.4.4-.1.7 0 1.1.2l.2.1.1.1.1.1c.2.1.3.3.4.5.2.4.1.8 0 1.1-.1.3-.2.6-.4.8-.4.5-.9.7-1.3.8-.4.1-.8.1-1 0-.3.1-.4 0-.4 0z"/><path fill="#6AC9D0" d="M67 49.5l.3-.6c.2-.3.7-.8 1.4-1.1.7-.3 1.8-.3 2.7.2.2.1.4.3.6.5.1.1.4.4.5.6.3.5.5 1 .5 1.6.1 1.1-.3 2.1-.9 2.8-.5.7-1.3 1.3-1.9 1.6-.6.3-1.2.4-1.6.4H68s.2-.1.6-.2c.4-.2.8-.4 1.3-.8s1-.9 1.3-1.6c.3-.6.5-1.4.4-2.1 0-.3-.2-.6-.3-.9-.1-.1-.1-.2-.3-.3-.1-.1-.3-.2-.4-.3-.5-.3-1.1-.4-1.7-.4-.6 0-1.1.2-1.4.3-.2.2-.5.3-.5.3z"/><path fill="#6AC9D0" d="M65.8 47.4l.2-.4c.1-.1.2-.3.3-.4.1-.2.3-.4.5-.5.2-.2.4-.3.7-.5.3-.2.6-.3.9-.4.3-.1.7-.2 1-.2.4-.1.7 0 1.1 0 .4.1.7.1 1.1.2.3.1.7.2 1 .4.6.3 1.1.7 1.5 1.1.2.2.3.4.5.6.1.2.2.3.3.5.1.1.1.2.1.2l-.4-.2c-.2-.2-.6-.4-1-.5-.2-.1-.4-.2-.7-.3-.2-.1-.5-.2-.8-.2-.3-.1-.5-.1-.8-.2-.3-.1-.6-.1-.9-.1h-1.7c-.3.1-.5.1-.8.1-.2.1-.5.1-.7.2-.4.1-.8.3-1.1.4-.1.1-.3.2-.3.2zm6.5 15.3s-.7.1-1.7.1-2.4 0-3.8-.3c-.7-.2-1.4-.4-2-.9-.3-.2-.6-.5-.8-.7-.2-.3-.4-.5-.5-.8-.1-.1-.1-.3-.1-.4v-1c.1-.3.1-.5.1-.5l.2.4c0 .1.1.3.2.5s.2.3.4.5c.1.2.3.3.5.5.2.1.4.3.7.4.2.1.5.2.8.3.3.1.6.2.9.2.6.2 1.3.3 1.9.4.6.1 1.2.3 1.7.5.9.4 1.5.8 1.5.8zm4.1-13.3s.1.2.4.5c.1.2.3.4.3.6.1.3.2.6.3 1 0 .4.1.8.1 1.2 0 .4 0 .9-.1 1.3-.1.2-.1.5-.2.7-.1.2-.2.5-.3.7-.2.5-.5.9-.7 1.3-.3.4-.6.8-1 1.1-.3.4-.7.6-1.1.9-.4.2-.7.5-1.1.7-.4.2-.7.3-1.1.5-.3.1-.7.2-.9.3-.3.1-.5.1-.7.1h-.7l.6-.3c.4-.2.8-.5 1.4-.9l.9-.6c.3-.2.6-.5.9-.8l.9-.9c.3-.3.5-.6.8-1 .2-.3.5-.7.7-1 .1-.2.2-.4.3-.5.1-.2.1-.4.2-.5.2-.4.2-.7.3-1.1 0-.4.1-.7.1-1v-.9c0-.3-.1-.5-.1-.7-.2-.5-.2-.7-.2-.7z"/><path fill="#6AC9D0" d="M79.4 51.6l-.3-.6c-.1-.2-.2-.5-.3-.7-.1-.3-.2-.6-.4-.9-.2-.3-.3-.7-.6-1-.2-.3-.4-.7-.7-1-.2-.4-.6-.6-.9-1-.3-.3-.7-.6-1-.8-.2-.1-.4-.3-.6-.4l-.6-.3-.6-.3c-.2-.1-.4-.1-.6-.2-.4-.1-.8-.2-1.2-.2-.4 0-.8-.1-1.1-.1h-1c-.3 0-.5 0-.8.1-.4.1-.7.1-.7.1s.2-.1.6-.4c.2-.1.4-.3.7-.4.3-.1.6-.3 1-.3.4-.1.8-.2 1.3-.2s.9 0 1.4.1c.2.1.5.1.7.2.2.1.5.2.7.3.3.1.5.2.7.3.2.1.5.2.7.4.4.3.8.7 1.2 1 .3.4.7.8.9 1.2.3.4.5.8.6 1.3.2.4.3.8.4 1.2.1.4.1.7.2 1 .1.3 0 .6 0 .8.3.6.3.8.3.8z"/><path fill="#6AC9D0" d="M70.5 42.5s-.2.1-.4.1c-.1 0-.3.1-.5.2-.2 0-.3.2-.5.2l-.6.3c-.2.1-.4.3-.6.4-.2.1-.4.3-.7.5-.2.2-.4.4-.7.5-.4.4-.9.7-1.2 1.1-.2.2-.4.4-.5.6-.1.2-.3.4-.5.5-.1.2-.3.3-.4.5-.1.2-.2.3-.3.4l-.2.4v-1c0-.2.1-.4.2-.7.3-1 1-2.1 2.1-3 .5-.4 1.1-.8 1.7-1l.9-.3c.3-.1.6-.1.8-.1h.7c.2 0 .4 0 .5.1 0 .2.2.3.2.3zm-2.8 14.8s.3-.1.7-.1c.2 0 .5-.1.8-.2l.9-.3c.3-.2.7-.3 1-.5.2-.1.3-.2.5-.3.2-.1.3-.3.5-.4.3-.3.6-.6.9-1l.4-.6.3-.6c.1-.2.2-.4.2-.6.1-.2.2-.4.2-.6 0-.2.1-.4.1-.6v-.6c-.1-.4-.1-.8-.3-1.1-.1-.4-.3-.6-.5-.9-.1-.2-.2-.3-.3-.4l-.3-.3c-.2-.2-.4-.3-.6-.5-.4-.2-.6-.4-.6-.4s.2 0 .7.1c.2.1.5.1.8.3.3.2.7.3 1 .6.2.1.3.3.5.4.2.2.3.4.4.6.3.4.5.9.6 1.4 0 .3.1.5.1.8 0 .3 0 .6-.1.8 0 .3-.1.6-.2.8-.1.3-.2.5-.3.8-.1.2-.2.5-.4.7l-.5.7-.6.6c-.2.2-.4.4-.6.5-.2.1-.4.3-.6.4-.2.1-.4.2-.7.3-.4.2-.9.3-1.3.4-.4.1-.8.1-1.1.1-.3 0-.6-.1-.8-.1-.6-.2-.8-.2-.8-.2zM64 53.1s-.1-.1-.2-.3c-.1-.1-.2-.2-.2-.3-.1-.1-.2-.3-.2-.5s-.1-.4-.1-.6v-.7c.1-.5.3-1 .6-1.5.6-.9 1.6-1.3 2.3-1.5.4-.1.7-.1.9-.1h.3l-.2.2c-.2.1-.4.4-.6.6-.5.5-1.1 1.1-1.5 1.7-.1.1-.2.3-.3.5-.1.2-.2.3-.3.5-.2.3-.2.6-.3.9 0 .1-.1.3-.1.4v.4c-.1.2-.1.3-.1.3zm3.4 2.5h-.3c-.2 0-.5 0-.8-.1-.2 0-.3-.1-.5-.2s-.4-.2-.5-.4c-.2-.2-.3-.4-.4-.6-.1-.2-.2-.5-.2-.8 0-.2 0-.5.1-.7 0-.2.1-.4.2-.6.2-.4.4-.7.6-.9.4-.4.9-.6.9-.6v.3c0 .2 0 .4-.1.7-.1.6-.2 1.2-.2 1.7 0 .2.1.4.2.7.1.1.1.2.2.3.1.1.2.2.2.3.2.2.3.4.4.5.1.3.2.4.2.4z"/><path fill="#6AC9D0" d="M65.8 42.6s.1-.2.4-.5c.1-.2.3-.3.5-.5s.5-.4.8-.6c.2-.1.3-.2.5-.3.2-.1.4-.1.6-.2.4-.2.8-.3 1.2-.4.4-.1.9-.2 1.4-.1.5 0 1 0 1.4.1.5.1 1 .2 1.4.3.5.1.9.3 1.3.6.4.2.7.5 1.1.8.3.3.6.6.8.9.2.3.4.6.5.8.1.3.2.5.3.7.1.4.1.6.1.6s-.2-.2-.4-.5c-.1-.2-.3-.3-.5-.5l-.6-.6c-.2-.2-.5-.4-.8-.6-.3-.2-.6-.3-1-.5-.2-.1-.4-.1-.5-.2-.2-.1-.4-.1-.6-.2-.4-.1-.8-.2-1.2-.2-.4-.1-.8-.1-1.2-.1h-1.2c-.4.1-.8.1-1.1.1-.4.1-.7.1-1 .2-.3.1-.6.2-.8.3-.2.1-.5.2-.7.3-.5.2-.7.3-.7.3zm-2.9 10.1s.1.2.1.5c0 .2.1.3.2.5 0 .2.2.4.2.6.1.2.2.4.4.7.2.2.3.5.5.7.2.2.4.4.6.7.2.2.4.4.7.6.2.2.5.3.7.5.3.1.5.3.8.4.3.1.5.2.8.2.3.1.5.1.8.1h1.7s-.1.1-.4.3c-.1.1-.3.2-.5.3-.2.1-.4.2-.7.3-.3 0-.6.1-.9.1-.3 0-.7 0-1-.1-.4 0-.7-.2-1.1-.3-.3-.2-.7-.4-1-.6-.3-.2-.6-.5-.8-.8-.2-.3-.5-.6-.6-.9-.2-.3-.3-.7-.4-1-.1-.3-.2-.6-.2-.9v-.8c0-.2.1-.4.1-.6-.1-.3 0-.5 0-.5zm9 8.6s.2-.1.5-.1c.2-.1.3-.1.6-.2.2-.1.4-.2.7-.3.2-.1.5-.3.8-.4.3-.1.5-.3.8-.5.3-.2.5-.4.8-.6.3-.2.5-.5.7-.7.2-.3.4-.5.6-.8.2-.3.3-.6.5-.9.1-.3.3-.6.4-.9.1-.3.2-.6.3-.8.1-.3.1-.5.2-.7.1-.2.1-.4.1-.6.1-.3.1-.5.1-.5s.1.2.2.5.2.8.2 1.4c0 .6-.1 1.3-.3 2.1-.2.4-.3.8-.5 1.1-.2.4-.5.7-.7 1l-.9.9c-.3.3-.7.5-1 .7-.3.2-.7.3-1 .4-.3.1-.7.2-1 .2-.6.1-1.1 0-1.5 0l-.6-.3z"/></g></g><path stroke="#C3E9EC" stroke-width="2.5" d="M46.5 76.9l42.8-58.1"/><path stroke="#C3E9EC" stroke-width="2.5" d="M50.4 86.8l69.2 15.9" stroke-linecap="round"/></g></svg>