<?xml version="1.0" encoding="UTF-8"?>
<svg width="74px" height="73px" viewBox="0 0 74 73" version="1.1" xmlns="http://www.w3.org/2000/svg" xmlns:xlink="http://www.w3.org/1999/xlink">
    <!-- Generator: Sketch 46.2 (44496) - http://www.bohemiancoding.com/sketch -->
    <title>protocol-labs</title>
    <desc>Created with Sketch.</desc>
    <defs></defs>
    <g id="Page-1" stroke="none" stroke-width="1" fill="none" fill-rule="evenodd">
        <g id="protocol-labs" fill-rule="nonzero" fill="#2F2F2F">
            <path d="M34.1843393,53.5274127 C34.9026455,53.9421317 35.4849476,54.9459136 35.4849476,55.781617 L35.4849476,71.5324382 C35.4849476,72.3626819 34.9073691,72.7022957 34.1843393,72.2848961 L20.5571214,64.4180075 C19.8388153,64.0033348 19.2565131,62.9995532 19.2565131,62.1638033 L19.2565131,46.4121039 C19.2565131,45.5818139 19.8340917,45.2421999 20.5571214,45.659646 L34.1843393,53.5274127 Z M54.749641,39.923179 C54.7495947,40.7532453 54.1717626,41.7597234 53.4484624,42.1773041 L39.8161472,50.0476062 C39.0975724,50.4624588 38.5150524,50.1313573 38.5150524,49.295879 L38.5150524,33.5492999 C38.5150524,32.7192798 39.0928842,31.712802 39.816231,31.2951748 L53.4494243,23.4239945 C54.1680454,23.0090957 54.7505657,23.3401969 54.7505191,24.1757218 L54.749641,39.923179 Z M51.933764,19.3043166 C52.6546455,19.7205967 52.6609532,20.391815 51.9372931,20.8096212 L38.2981946,28.6841744 C37.5792622,29.0992511 36.4100006,29.0971384 35.6911059,28.6820712 L2.8077597,9.6962615 C2.0868368,9.2800233 2.0805681,8.6087655 2.8043192,8.1908674 L16.4451327,0.3145818 C17.1641554,-0.1005862 18.3334566,-0.0985134 19.0523099,0.3165955 L51.933764,19.3043166 Z M16.2264084,60.4199927 C16.2264084,61.2446765 15.6489019,61.5797817 14.9259624,61.1623805 L1.3004459,53.2954602 C0.5822295,52.8807859 0,51.867378 0,51.0371819 L0,13.0627397 C0,12.2302013 0.5863015,11.8937941 1.3050121,12.3087382 L34.1799355,31.2889196 C34.9006738,31.7050345 35.4849476,32.7099117 35.4849476,33.5455698 L35.4849476,49.295536 C35.4849476,50.1257347 34.9085778,50.4660196 34.1914363,50.0520317 L17.5199197,40.42798 C16.8055331,40.0155824 16.2264084,40.3466261 16.2264084,41.1744901 L16.2264084,60.4199927 Z M57.7663773,22.4242477 C57.7664525,21.5995276 58.3442718,20.5973829 59.0675266,20.1798015 L72.6989868,12.309486 C73.4175165,11.8946328 74,12.2355925 74,13.0658094 L74,51.0411993 C74,51.8737584 73.4136985,52.8871793 72.6949879,53.3021235 L39.8200645,72.2823049 C39.0993262,72.6984197 38.5150524,72.3681611 38.5150524,71.532457 L38.5150524,55.7816225 C38.5150524,54.9513781 39.0911497,53.9456988 39.8079522,53.5318238 L56.4715875,43.9103963 C57.1856363,43.4981112 57.7645479,42.4985007 57.7646234,41.6706001 L57.7663773,22.4242477 Z M41.3191202,9.6881293 C40.6002318,9.2730051 40.5954685,8.6027964 41.3190395,8.185081 L54.9564579,0.31224 C55.6753017,-0.1027464 56.8360493,-0.1054389 57.5596186,0.312322 L71.1970046,8.1860224 C71.9158467,8.6010541 71.9206097,9.2712622 71.1970853,9.6890707 L57.560545,17.5636679 C56.8417474,17.9787469 55.6810001,17.98144 54.9573843,17.5635859 L41.3191202,9.6881293 Z" id="Shape"></path>
        </g>
    </g>
</svg>