<?xml version="1.0" encoding="UTF-8"?>
<svg width="150px" height="28px" viewBox="0 0 150 28" version="1.1" xmlns="http://www.w3.org/2000/svg" xmlns:xlink="http://www.w3.org/1999/xlink">
    <!-- Generator: Sketch 46.2 (44496) - http://www.bohemiancoding.com/sketch -->
    <title>angellist_logo_black</title>
    <desc>Created with Sketch.</desc>
    <defs>
        <polygon id="path-1" points="32.7213687 22.1815642 0.240502793 22.1815642 0.240502793 0.305027933 32.7213687 0.305027933"></polygon>
        <polygon id="path-3" points="0.0251396648 21.6167598 0.0251396648 0.169692737 149.697905 0.169692737 149.697905 21.6167598"></polygon>
    </defs>
    <g id="Page-1" stroke="none" stroke-width="1" fill="none" fill-rule="evenodd">
        <g id="Comply-API-homepage" transform="translate(-871.000000, -456.000000)">
            <g id="angellist_logo_black" transform="translate(871.000000, 456.000000)">
                <path d="M31.2959497,13.4442737 L28.5808659,5.54078212 L28.5205307,5.54078212 L25.7149441,13.4442737 L31.2959497,13.4442737 Z M31.0244413,0.230865922 L39.0791899,21.7705307 L34.1618715,21.7705307 L32.5328212,16.9738827 L24.4780726,16.9738827 L22.7886872,21.7705307 L18.0222067,21.7705307 L26.1674581,0.230865922 L31.0244413,0.230865922 L31.0244413,0.230865922 Z" id="Fill-1" fill="#1A1919"></path>
                <g id="Group-5" transform="translate(40.223464, 5.446927)">
                    <mask id="mask-2" fill="white">
                        <use xlink:href="#path-1"></use>
                    </mask>
                    <g id="Clip-3"></g>
                    <path d="M4.3127095,0.726955307 L4.3127095,2.89902235 L4.40363128,2.89902235 C4.94664804,1.99399441 5.65013966,1.33575419 6.51494413,0.923463687 C7.3797486,0.511173184 8.2650838,0.305027933 9.17011173,0.305027933 C10.3164804,0.305027933 11.2562849,0.460893855 11.9907821,0.772206704 C12.7244413,1.08435754 13.3030726,1.51675978 13.725,2.06941341 C14.1477654,2.62290503 14.4439944,3.29664804 14.6149441,4.09106145 C14.7858939,4.88547486 14.8717877,5.76494413 14.8717877,6.73030726 L14.8717877,16.3236034 L10.5879888,16.3236034 L10.5879888,7.5150838 C10.5879888,6.22793296 10.3864525,5.26717877 9.98463687,4.63407821 C9.58198324,4.00013966 8.86843575,3.68379888 7.84273743,3.68379888 C6.67583799,3.68379888 5.83114525,4.03072626 5.30824022,4.72416201 C4.7853352,5.41843575 4.52388268,6.55977654 4.52388268,8.14818436 L4.52388268,16.3236034 L0.240502793,16.3236034 L0.240502793,0.726955307 L4.3127095,0.726955307" id="Fill-2" fill="#1A1919" mask="url(#mask-2)"></path>
                    <path d="M26.5973464,12.2815642 C27.0599162,12.0398045 27.4420391,11.7184358 27.7437151,11.3157821 C28.0453911,10.9139665 28.271648,10.4564246 28.422486,9.94315642 C28.573324,9.43030726 28.648743,8.89273743 28.648743,8.32918994 C28.648743,7.68603352 28.5884078,7.07765363 28.4677374,6.50405028 C28.347067,5.93086592 28.1455307,5.42346369 27.8643855,4.98100559 C27.5824022,4.53854749 27.2103352,4.18659218 26.7481844,3.92513966 C26.2851955,3.66368715 25.7019553,3.53296089 24.9984637,3.53296089 C24.3951117,3.53296089 23.8768156,3.65321229 23.4448324,3.89455307 C23.0120112,4.13631285 22.65,4.46312849 22.3587989,4.875 C22.0671788,5.2877095 21.8560056,5.7603352 21.7252793,6.29329609 C21.5941341,6.82625698 21.5291899,7.38435754 21.5291899,7.96759777 C21.5291899,8.53072626 21.5844972,9.08882682 21.6951117,9.64148045 C21.8053073,10.1949721 21.9967877,10.6927374 22.2682961,11.1351955 C22.5398045,11.5776536 22.8963687,11.9396648 23.3392458,12.2208101 C23.7812849,12.5027933 24.3347765,12.6431564 24.9984637,12.6431564 C25.6018156,12.6431564 26.1343575,12.522905 26.5973464,12.2815642 Z M32.4649441,17.4699721 C32.2939944,18.2744413 31.9265363,19.0236034 31.3638268,19.7178771 C30.8002793,20.4113128 29.9857542,20.999581 28.9202514,21.4822626 C27.8539106,21.9653631 26.4259777,22.2067039 24.6364525,22.2067039 C23.8717877,22.2067039 23.0924581,22.1107542 22.2984637,21.9201117 C21.5036313,21.7286313 20.7796089,21.4315642 20.1263966,21.0297486 C19.4727654,20.627095 18.9297486,20.1100559 18.4973464,19.4761173 C18.0645251,18.8430168 17.8185754,18.0833799 17.7582402,17.1984637 L22.0118715,17.1984637 C22.2125698,18.002933 22.6047486,18.5610335 23.1884078,18.8727654 C23.7712291,19.1844972 24.4449721,19.3407821 25.2096369,19.3407821 C26.4163408,19.3407821 27.2958101,18.978352 27.8493017,18.2543296 C28.4023743,17.5307263 28.6684358,16.6148045 28.648743,15.5094972 L28.648743,13.4581006 L28.5884078,13.4581006 C28.125419,14.2826816 27.4671788,14.8906425 26.6124302,15.2832402 C25.7572626,15.675419 24.8576816,15.8710894 23.9124302,15.8710894 C22.7459497,15.8710894 21.7403631,15.6653631 20.8956704,15.2526536 C20.0509777,14.8407821 19.3571229,14.2776536 18.8141061,13.5636872 C18.2710894,12.8497207 17.8738827,12.0150838 17.622486,11.0597765 C17.3706704,10.1044693 17.2453911,9.09385475 17.2453911,8.02793296 C17.2453911,7.02234637 17.3907821,6.05153631 17.6828212,5.11634078 C17.9740223,4.18114525 18.4013966,3.35698324 18.9649441,2.64301676 C19.5276536,1.92905028 20.2265363,1.36089385 21.0615922,0.938128492 C21.8958101,0.515782123 22.8565642,0.305027933 23.9425978,0.305027933 C24.9682961,0.305027933 25.8678771,0.496089385 26.6425978,0.878212291 C27.4164804,1.2603352 28.0650838,1.90349162 28.5884078,2.80893855 L28.648743,2.80893855 L28.648743,0.726955307 L32.7213687,0.726955307 L32.7213687,15.3284916 C32.7213687,15.9519553 32.6354749,16.6655028 32.4649441,17.4699721 L32.4649441,17.4699721 Z" id="Fill-4" fill="#1A1919" mask="url(#mask-2)"></path>
                </g>
                <path d="M85.4430168,9.82416201 C84.9297486,9.26145251 84.150419,8.97988827 83.1050279,8.97988827 C82.4208101,8.97988827 81.8526536,9.09553073 81.4001397,9.32639665 C80.9476257,9.55810056 80.5860335,9.84469274 80.3145251,10.1865922 C80.0425978,10.5284916 79.8515363,10.8905028 79.7409218,11.2722067 C79.6303073,11.6547486 79.5649441,11.9962291 79.5452514,12.298324 L86.5135475,12.298324 C86.3128492,11.2118715 85.9554469,10.3877095 85.4430168,9.82416201 Z M80.6006983,18.0297486 C81.2442737,18.6536313 82.1694134,18.9653631 83.3765363,18.9653631 C84.2409218,18.9653631 84.9850559,18.749162 85.6089385,18.3163408 C86.2319832,17.8843575 86.6141061,17.4263966 86.7553073,16.9437151 L90.526257,16.9437151 C89.922486,18.8141061 88.9973464,20.1519553 87.750838,20.9564246 C86.5034916,21.7608939 84.9951117,22.1631285 83.2256983,22.1631285 C81.9984637,22.1631285 80.8923184,21.9670391 79.9068436,21.5748603 C78.9213687,21.1826816 78.0867318,20.624581 77.403352,19.9005587 C76.7191341,19.1765363 76.1912011,18.3117318 75.8195531,17.3061453 C75.447067,16.3005587 75.2614525,15.1944134 75.2614525,13.9872905 C75.2614525,12.8212291 75.452095,11.7351955 75.8346369,10.7291899 C76.2163408,9.72402235 76.7593575,8.85418994 77.4636872,8.11969274 C78.1671788,7.38603352 79.0068436,6.80782123 79.9826816,6.38505587 C80.9576816,5.9627095 82.0386872,5.75195531 83.2256983,5.75195531 C84.5530726,5.75195531 85.7090782,6.00796089 86.6949721,6.52081006 C87.6800279,7.03407821 88.4895251,7.72290503 89.1230447,8.5877095 C89.7569832,9.45251397 90.2141061,10.4379888 90.4960894,11.5437151 C90.7772346,12.6502793 90.8777933,13.8067039 90.7973464,15.0134078 L79.5452514,15.0134078 C79.6055866,16.4011173 79.9571229,17.4067039 80.6006983,18.0297486 L80.6006983,18.0297486 Z" id="Fill-6" fill="#1A1919"></path>
                <polygon id="Fill-7" fill="#1A1919" points="93.077933 21.7705307 97.3613128 21.7705307 97.3613128 0.230865922 93.077933 0.230865922"></polygon>
                <polyline id="Fill-8" fill="#1A1919" points="105.512849 0.230865922 105.512849 17.7888268 116.010754 17.7888268 116.010754 21.7705307 100.776536 21.7705307 100.776536 0.230865922 105.512849 0.230865922"></polyline>
                <path d="M117.783939,21.7705307 L122.068156,21.7705307 L122.068156,6.17388268 L117.783939,6.17388268 L117.783939,21.7705307 Z M117.783939,3.76047486 L122.068156,3.76047486 L122.068156,0.230865922 L117.783939,0.230865922 L117.783939,3.76047486 Z" id="Fill-9" fill="#1A1919"></path>
                <path d="M128.74986,17.8944134 C128.940503,18.225838 129.187709,18.4973464 129.488966,18.7085196 C129.791061,18.9196927 130.137989,19.0759777 130.529749,19.1765363 C130.921927,19.277095 131.32919,19.3269553 131.751536,19.3269553 C132.053631,19.3269553 132.370391,19.2921788 132.701816,19.2213687 C133.034078,19.1513966 133.335335,19.0403631 133.606844,18.8895251 C133.878352,18.7391061 134.105028,18.5379888 134.286034,18.2865922 C134.467039,18.0351955 134.557123,17.7184358 134.557123,17.3358939 C134.557123,16.6927374 134.129749,16.2100559 133.275419,15.8878492 C132.420251,15.5664804 131.228631,15.2446927 129.70014,14.922486 C129.076676,14.7821229 128.468296,14.6162011 127.875,14.4247207 C127.281704,14.2340782 126.75419,13.9826816 126.29162,13.6705307 C125.828631,13.3592179 125.456983,12.9670391 125.175419,12.4939944 C124.893017,12.0217877 124.753073,11.4435754 124.753073,10.7597765 C124.753073,9.75418994 124.948743,8.92960894 125.341341,8.28561453 C125.73352,7.6424581 126.250559,7.13463687 126.894553,6.76256983 C127.538128,6.39050279 128.262151,6.12863128 129.06662,5.97821229 C129.871089,5.8273743 130.696089,5.75195531 131.540363,5.75195531 C132.385056,5.75195531 133.20419,5.83240223 133.999022,5.99329609 C134.793436,6.15418994 135.501955,6.42569832 136.125838,6.80782123 C136.749302,7.18994413 137.267179,7.69776536 137.679888,8.33086592 C138.091341,8.96480447 138.338547,9.76424581 138.418575,10.7291899 L134.34595,10.7291899 C134.286034,9.90502793 133.973464,9.34692737 133.411173,9.05488827 C132.847626,8.76368715 132.183939,8.6174581 131.420112,8.6174581 C131.178771,8.6174581 130.916899,8.63296089 130.635335,8.6627095 C130.353771,8.69329609 130.096927,8.75865922 129.866061,8.85921788 C129.634777,8.95977654 129.439106,9.10558659 129.277793,9.29664804 C129.11648,9.4877095 129.036453,9.74413408 129.036453,10.0655028 C129.036453,10.4480447 129.177235,10.7597765 129.458799,11.0006983 C129.739944,11.2424581 130.107402,11.4381285 130.560335,11.5893855 C131.012849,11.7402235 131.529888,11.8755587 132.113547,11.9962291 C132.696788,12.1168994 133.290084,12.2480447 133.893436,12.3884078 C134.516899,12.5296089 135.125698,12.7005587 135.718994,12.901676 C136.311453,13.1027933 136.839385,13.3692737 137.302374,13.7011173 C137.764944,14.0329609 138.13743,14.4452514 138.418575,14.9375698 C138.70014,15.4307263 138.840922,16.0386872 138.840922,16.7627095 C138.840922,17.7888268 138.634777,18.6481844 138.222486,19.3424581 C137.809777,20.0358939 137.272207,20.5939944 136.60852,21.0167598 C135.944832,21.4391061 135.185615,21.7361732 134.331285,21.9062849 C133.476117,22.0772346 132.605866,22.1631285 131.721369,22.1631285 C130.816341,22.1631285 129.931844,22.0726257 129.06662,21.8916201 C128.201816,21.7101955 127.432542,21.4089385 126.758799,20.9865922 C126.084637,20.5642458 125.532402,20.0061453 125.1,19.3118715 C124.667179,18.6184358 124.430866,17.7486034 124.390642,16.7023743 L128.463687,16.7023743 C128.463687,17.1653631 128.55838,17.5625698 128.74986,17.8944134" id="Fill-10" fill="#1A1919"></path>
                <g id="Group-14" transform="translate(0.000000, 0.418994)">
                    <mask id="mask-4" fill="white">
                        <use xlink:href="#path-3"></use>
                    </mask>
                    <g id="Clip-12"></g>
                    <path d="M149.697905,5.75488827 L149.697905,8.62122905 L146.560475,8.62122905 L146.560475,16.3437151 C146.560475,17.0677374 146.681564,17.550838 146.922905,17.7917598 C147.164246,18.0335196 147.647346,18.1541899 148.370531,18.1541899 C148.612291,18.1541899 148.842737,18.1441341 149.064804,18.1236034 C149.285615,18.1039106 149.496788,18.073743 149.697905,18.0335196 L149.697905,21.3515363 C149.336313,21.4118715 148.933659,21.452095 148.49162,21.4726257 C148.049162,21.4923184 147.617179,21.5023743 147.194832,21.5023743 C146.531145,21.5023743 145.901816,21.4571229 145.309358,21.3670391 C144.715223,21.2761173 144.193156,21.1001397 143.740642,20.8386872 C143.287709,20.5776536 142.930307,20.2055866 142.669274,19.722486 C142.407402,19.2398045 142.277095,18.6067039 142.277095,17.8223464 L142.277095,8.62122905 L139.682263,8.62122905 L139.682263,5.75488827 L142.277095,5.75488827 L142.277095,1.07932961 L146.560475,1.07932961 L146.560475,5.75488827 L149.697905,5.75488827" id="Fill-11" fill="#1A1919" mask="url(#mask-4)"></path>
                    <path d="M11.4603352,9.06662011 C12.1177374,7.27960894 12.6310056,5.80391061 12.9993017,4.64036313 C13.3675978,3.47639665 13.5519553,2.76201117 13.5519553,2.49678771 C13.5519553,2.2122905 13.4903631,1.99106145 13.3675978,1.83393855 C13.2448324,1.67723464 13.0755587,1.59846369 12.8593575,1.59846369 C12.5844972,1.59846369 12.3046089,1.82681564 12.0196927,2.28351955 C11.7347765,2.74022346 11.4209497,3.47430168 11.0769553,4.48575419 L9.60418994,8.74273743 L11.4603352,9.06662011 Z M9.50111732,13.0290503 C9.07877095,13.0093575 8.67821229,12.9653631 8.30069832,12.896648 C7.92234637,12.827933 7.56159218,12.7294693 7.21801676,12.602095 C7.37472067,12.9163408 7.5146648,13.2305866 7.63784916,13.5448324 C7.76019553,13.8590782 7.86075419,14.1682961 7.93952514,14.472486 C8.17541899,14.177933 8.42346369,13.9106145 8.68365922,13.6696927 C8.94343575,13.4291899 9.21620112,13.2159218 9.50111732,13.0290503 Z M7.83645251,8.56592179 L6.24553073,3.96997207 C5.83324022,2.80139665 5.51396648,2.03798883 5.28812849,1.67932961 C5.0622905,1.32108939 4.81675978,1.14175978 4.55153631,1.14175978 C4.34539106,1.14175978 4.17821229,1.22053073 4.05083799,1.37765363 C3.92304469,1.53477654 3.85935754,1.74594972 3.85935754,2.01075419 C3.85935754,2.46243017 4.03114525,3.24804469 4.37472067,4.36759777 C4.71871508,5.48715084 5.23407821,6.95530726 5.92164804,8.77206704 C5.98030726,8.66396648 6.06368715,8.58812849 6.17178771,8.54371508 C6.27988827,8.49972067 6.4273743,8.47751397 6.61382682,8.47751397 C6.67290503,8.47751397 6.79064246,8.4825419 6.9674581,8.49217877 C7.14427374,8.50181564 7.43379888,8.52695531 7.83645251,8.56592179 Z M6.39301676,15.6804469 C6.55977654,15.6804469 6.71187151,15.6046089 6.84972067,15.452095 C6.98715084,15.3 7.05586592,15.1357542 7.05586592,14.9589385 C7.05586592,14.772486 6.92094972,14.3379888 6.65069832,13.6550279 C6.38044693,12.972486 6.04441341,12.302514 5.64175978,11.6446927 C5.3472067,11.1536313 5.05726257,10.7828212 4.77276536,10.5322626 C4.48743017,10.2821229 4.21759777,10.1568436 3.96243017,10.1568436 C3.75628492,10.1568436 3.52793296,10.2871508 3.2773743,10.5469274 C3.02723464,10.8071229 2.90195531,11.0505587 2.90195531,11.2763966 C2.90195531,11.5118715 3.02472067,11.8655028 3.2702514,12.3368715 C3.51536313,12.8082402 3.84469274,13.3089385 4.25698324,13.8393855 C4.68896648,14.4188547 5.09664804,14.8705307 5.47960894,15.1944134 C5.86256983,15.5187151 6.16675978,15.6804469 6.39301676,15.6804469 Z M1.97388268,15.3272346 C2.11131285,15.4939944 2.3027933,15.7395251 2.54832402,16.0634078 C3.19650838,16.9571229 3.7952514,17.4041899 4.34539106,17.4041899 C4.53184358,17.4041899 4.69902235,17.3451117 4.84608939,17.2273743 C4.99357542,17.1092179 5.06731844,16.9868715 5.06731844,16.8590782 C5.06731844,16.7115922 4.96885475,16.4664804 4.77276536,16.122486 C4.57583799,15.7789106 4.30600559,15.3909218 3.96243017,14.9589385 C3.5698324,14.4578212 3.24301676,14.0920391 2.98282123,13.8615922 C2.7226257,13.6307263 2.51396648,13.5150838 2.35684358,13.5150838 C2.01284916,13.5150838 1.69608939,13.6994413 1.40656425,14.0677374 C1.11703911,14.4360335 0.972067039,14.8705307 0.972067039,15.3712291 C0.972067039,15.7738827 1.07304469,16.2234637 1.27416201,16.7191341 C1.47527933,17.2148045 1.76773743,17.7134078 2.15069832,18.2141061 C2.7301676,18.9900838 3.44916201,19.5863128 4.30851955,20.0036313 C5.16787709,20.4213687 6.11815642,20.6296089 7.15893855,20.6296089 C9.07374302,20.6296089 10.6768156,19.9152235 11.9681564,18.4868715 C13.2594972,17.0576816 13.9051676,15.2681564 13.9051676,13.1174581 C13.9051676,12.4596369 13.8561453,11.9367318 13.7581006,11.548743 C13.6600559,11.1607542 13.497905,10.878352 13.272067,10.7019553 C12.8689944,10.3680168 12.0863128,10.0684358 10.9223464,9.80321229 C9.75879888,9.53798883 8.54371508,9.40558659 7.27667598,9.40558659 C6.92304469,9.40558659 6.67290503,9.46424581 6.52541899,9.58240223 C6.37835196,9.70013966 6.30460894,9.90125698 6.30460894,10.1861732 C6.30460894,10.8540503 6.67793296,11.3375698 7.42416201,11.6371508 C8.17039106,11.9367318 9.37793296,12.0863128 11.0476257,12.0863128 L11.6518156,12.0863128 C11.7892458,12.0863128 11.8994413,12.1378492 11.9832402,12.2409218 C12.0662011,12.3439944 12.1231844,12.4990223 12.152514,12.7051676 C11.9853352,12.8622905 11.6417598,13.0416201 11.1213687,13.2427374 C10.6005587,13.4438547 10.202933,13.6428771 9.92807263,13.8393855 C9.33896648,14.2717877 8.8650838,14.7846369 8.50684358,15.3787709 C8.14818436,15.972905 7.96927374,16.5347765 7.96927374,17.0652235 C7.96927374,17.3891061 8.04511173,17.7796089 8.1972067,18.2363128 C8.34972067,18.6930168 8.42555866,18.975419 8.42555866,19.0831006 L8.42555866,19.1865922 L8.39622905,19.3189944 C7.96382682,19.2896648 7.62276536,19.0370112 7.3726257,18.5601955 C7.12206704,18.0842179 6.99678771,17.4481844 6.99678771,16.652933 L6.99678771,16.5201117 C6.91801676,16.5888268 6.84217877,16.6378492 6.76843575,16.6675978 C6.69511173,16.6969274 6.61382682,16.7115922 6.52541899,16.7115922 C6.43701117,16.7115922 6.35363128,16.7044693 6.27527933,16.6898045 C6.19650838,16.6747207 6.10810056,16.652933 6.01005587,16.6231844 C6.03938547,16.7317039 6.06159218,16.8368715 6.07625698,16.9399441 C6.09092179,17.0430168 6.09846369,17.1243017 6.09846369,17.1829609 C6.09846369,17.5462291 5.95600559,17.8583799 5.67108939,18.1185754 C5.38617318,18.3787709 5.0472067,18.5086592 4.65460894,18.5086592 C4.03617318,18.5086592 3.40768156,18.2069832 2.76913408,17.6027933 C2.13058659,16.9990223 1.81173184,16.4074022 1.81173184,15.827933 C1.81173184,15.7198324 1.82430168,15.6243017 1.84860335,15.5405028 C1.87290503,15.4575419 1.91480447,15.3858939 1.97388268,15.3272346 Z M12.5208101,9.31717877 C13.4044693,9.48435754 14.027933,9.85726257 14.3916201,10.4367318 C14.7544693,11.0162011 14.9363128,11.9296089 14.9363128,13.1765363 C14.9363128,15.6511173 14.1925978,17.6765363 12.7047486,19.2527933 C11.2168994,20.8286313 9.31424581,21.6167598 6.99678771,21.6167598 C6.08379888,21.6167598 5.1972067,21.452095 4.33826816,21.1231844 C3.47849162,20.7942737 2.73980447,20.3350559 2.12094972,19.7459497 C1.41410615,19.0981844 0.883659218,18.4131285 0.530446927,17.6912011 C0.176815642,16.9692737 0,16.2305866 0,15.4743017 C0,14.6296089 0.181843575,13.9768156 0.545111732,13.5150838 C0.907960894,13.0537709 1.48282123,12.7395251 2.26843575,12.5723464 C2.12094972,12.2287709 2.01284916,11.9392458 1.94455307,11.703352 C1.87583799,11.4678771 1.84148045,11.2860335 1.84148045,11.1582402 C1.84148045,10.7166201 2.07444134,10.2649441 2.54078212,9.80321229 C3.00712291,9.34148045 3.44706704,9.11103352 3.85935754,9.11103352 C4.03617318,9.11103352 4.2226257,9.14287709 4.41913408,9.20656425 C4.61564246,9.27067039 4.84106145,9.37583799 5.09664804,9.52332402 C4.34036313,7.38268156 3.79064246,5.7301676 3.44706704,4.56662011 C3.10307263,3.40307263 2.93128492,2.60027933 2.93128492,2.15824022 C2.93128492,1.54944134 3.08840782,1.06592179 3.40265363,0.70726257 C3.71689944,0.349022346 4.14427374,0.169692737 4.68435754,0.169692737 C5.60698324,0.169692737 6.77597765,2.23198324 8.1900838,6.35614525 C8.43519553,7.06340782 8.62206704,7.60851955 8.74986034,7.99148045 C8.85796089,7.6872905 9.00963687,7.25488827 9.20656425,6.69511173 C10.6206704,2.6099162 11.8378492,0.567318436 12.8593575,0.567318436 C13.3604749,0.567318436 13.7601955,0.736592179 14.0601955,1.07555866 C14.3593575,1.41452514 14.5093575,1.86871508 14.5093575,2.43812849 C14.5093575,2.87053073 14.3446927,3.66075419 14.0157821,4.80963687 C13.6868715,5.95851955 13.1886872,7.46103352 12.5208101,9.31717877 L12.5208101,9.31717877 Z" id="Fill-13" fill="#1A1919" mask="url(#mask-4)"></path>
                </g>
            </g>
        </g>
    </g>
</svg>