<?xml version="1.0" encoding="UTF-8"?>
<svg width="45px" height="45px" viewBox="0 0 45 45" version="1.1" xmlns="http://www.w3.org/2000/svg" xmlns:xlink="http://www.w3.org/1999/xlink">
    <!-- Generator: Sketch 47 (45396) - http://www.bohemiancoding.com/sketch -->
    <title>api</title>
    <desc>Created with Sketch.</desc>
    <defs></defs>
    <g id="Page-1" stroke="none" stroke-width="1" fill="none" fill-rule="evenodd" opacity="0.600000024">
        <g id="ComplyAPI" transform="translate(-1185.000000, -451.000000)" fill="#3A2E50">
            <path d="M1207.30053,451.947004 C1195.15773,451.947004 1185.27393,461.828404 1185.27393,473.973604 C1185.27393,478.829884 1186.85829,483.322804 1189.53021,486.967204 C1189.56537,487.04689 1189.61458,487.117204 1189.68021,487.1758 C1193.70441,492.52894 1200.10521,496 1207.30041,496 C1219.44561,496 1229.32701,486.1186 1229.32701,473.9734 C1229.32701,461.8282 1219.44561,451.9468 1207.30041,451.9468 L1207.30053,451.947004 Z M1227.71253,478.105804 C1224.94455,479.692504 1221.93519,480.789424 1218.82293,481.394104 C1218.78074,481.288636 1218.72683,481.19254 1218.67293,481.094104 C1222.51905,477.742564 1225.54233,473.404504 1227.35193,468.356104 C1227.85349,470.144404 1228.12773,472.026424 1228.12773,473.974084 C1228.12773,475.387384 1227.98476,476.770204 1227.71288,478.106104 L1227.71253,478.105804 Z M1211.06733,464.481604 C1211.49154,465.555064 1212.53217,466.319104 1213.75563,466.319104 C1213.95016,466.319104 1214.14,466.298008 1214.32516,466.260508 C1215.48766,469.194868 1216.12516,472.356508 1216.12516,475.607308 C1216.12516,476.957308 1216.00563,478.290928 1215.79469,479.603428 C1214.53373,479.755774 1213.52123,480.709708 1213.29623,481.947148 C1207.21643,481.944808 1201.46483,480.060448 1196.69543,476.720608 C1196.89699,476.326858 1197.02121,475.886248 1197.02121,475.415128 C1197.02121,474.597148 1196.67903,473.861248 1196.13291,473.336248 C1199.86653,468.801088 1205.11671,465.601648 1211.06751,464.481448 L1211.06733,464.481604 Z M1213.75797,461.727724 C1214.69313,461.727724 1215.45249,462.489424 1215.45249,463.422244 C1215.45249,464.357404 1214.69079,465.116764 1213.75797,465.116764 C1212.82281,465.116764 1212.06345,464.355064 1212.06345,463.422244 C1212.0611,462.489424 1212.82047,461.727724 1213.75797,461.727724 Z M1216.57749,464.057404 C1220.07903,464.167558 1223.57349,464.999584 1226.73549,466.506604 C1226.70736,466.54879 1226.67689,466.590976 1226.66283,466.6402 C1225.00347,472.04722 1221.91671,476.674 1217.89743,480.1774 C1217.63025,479.97115 1217.32556,479.814118 1216.99509,479.713336 C1217.20837,478.363336 1217.33025,476.994616 1217.33025,475.607056 C1217.33025,472.187536 1216.65291,468.866656 1215.42477,465.784456 C1215.99664,465.376642 1216.41849,464.764936 1216.57791,464.057116 L1216.57749,464.057404 Z M1195.82109,475.415404 C1195.82109,476.350564 1195.05939,477.109924 1194.12657,477.109924 C1193.19141,477.109924 1192.43205,476.348224 1192.43205,475.415404 C1192.43205,474.480244 1193.19375,473.720884 1194.12657,473.720884 C1195.06173,473.720884 1195.82109,474.482584 1195.82109,475.415404 Z M1193.03439,478.091944 C1193.37189,478.230226 1193.73987,478.309912 1194.12891,478.309912 C1194.81561,478.309912 1195.44141,478.05913 1195.94061,477.656032 C1200.92343,481.166992 1206.94221,483.147412 1213.30341,483.147412 C1213.31512,483.147412 1213.3245,483.145066 1213.33622,483.145066 C1213.35731,483.229438 1213.38544,483.31147 1213.41357,483.393502 C1209.04245,485.936482 1203.97737,487.366162 1198.61997,487.366162 C1195.88715,487.366162 1193.17311,486.979444 1190.54337,486.229462 C1190.91602,483.325582 1191.78087,480.590422 1193.03475,478.092262 L1193.03439,478.091944 Z M1214.44479,482.465404 C1214.44479,481.530244 1215.20649,480.770884 1216.13931,480.770884 C1217.07447,480.770884 1217.83383,481.532584 1217.83383,482.465404 C1217.83383,483.400564 1217.07213,484.159924 1216.13931,484.159924 C1215.20649,484.159924 1214.44479,483.400564 1214.44479,482.465404 Z M1226.03199,464.882404 C1223.04603,463.642564 1219.82319,462.958204 1216.59399,462.857404 C1216.33149,461.530864 1215.15729,460.527724 1213.75569,460.527724 C1213.39709,460.527724 1213.05957,460.600378 1212.74319,460.71991 C1210.76973,457.78555 1208.22681,455.22853 1205.19399,453.25291 C1205.88537,453.182596 1206.58851,453.147442 1207.30101,453.147442 C1215.52521,453.147442 1222.65021,457.942762 1226.03241,464.882842 L1226.03199,464.882404 Z M1203.33759,453.531604 C1206.75243,455.493304 1209.59079,458.195644 1211.72799,461.362204 C1211.22174,461.859076 1210.90533,462.543484 1210.87251,463.300504 C1204.57251,464.479384 1199.01771,467.875504 1195.09671,472.698904 C1194.79202,472.58875 1194.46857,472.518436 1194.12639,472.518436 C1193.49123,472.518436 1192.91001,472.729372 1192.43187,473.07625 C1190.62719,471.19891 1189.05921,469.06375 1187.78889,466.69645 C1190.29671,459.99325 1196.16549,454.91905 1203.33729,453.53185 L1203.33759,453.531604 Z M1187.28279,468.245404 C1188.51795,470.347744 1189.98045,472.262584 1191.63279,473.971204 C1191.38435,474.397768 1191.232,474.885244 1191.232,475.412584 C1191.232,476.186044 1191.54138,476.884444 1192.03588,477.404764 C1190.86402,479.701624 1190.00854,482.193064 1189.54216,484.832164 C1187.59684,481.670464 1186.47418,477.950764 1186.47418,473.973364 C1186.47418,471.985864 1186.76247,470.066344 1187.2828,468.245224 L1187.28279,468.245404 Z M1191.72417,487.776004 C1193.98353,488.298658 1196.29215,488.568184 1198.61457,488.568184 C1204.19739,488.568184 1209.47097,487.079884 1214.02257,484.429144 C1214.13741,484.551016 1214.26163,484.661176 1214.39522,484.764298 C1212.93974,488.542438 1210.60772,491.969098 1207.50482,494.701498 L1207.58451,494.792902 C1207.48841,494.795248 1207.39466,494.799934 1207.29857,494.799934 C1201.10897,494.799934 1195.54217,492.078814 1191.72437,487.775734 L1191.72417,487.776004 Z M1209.25557,494.704204 C1212.00711,492.022924 1214.11653,488.800324 1215.48777,485.280004 C1215.6987,485.329222 1215.91667,485.362036 1216.14165,485.362036 C1217.70261,485.362036 1218.97053,484.117516 1219.02681,482.568316 C1221.91197,482.015188 1224.71277,481.058956 1227.32361,479.690176 C1225.00329,487.797376 1217.88741,493.898176 1209.2558,494.703976 L1209.25557,494.704204 Z" id="api"></path>
        </g>
    </g>
</svg>