<?xml version="1.0" encoding="UTF-8"?>
<svg width="58px" height="50px" viewBox="0 0 58 50" version="1.1" xmlns="http://www.w3.org/2000/svg" xmlns:xlink="http://www.w3.org/1999/xlink">
    <!-- Generator: Sketch 47 (45396) - http://www.bohemiancoding.com/sketch -->
    <title>kyc</title>
    <desc>Created with Sketch.</desc>
    <defs></defs>
    <g id="Page-1" stroke="none" stroke-width="1" fill="none" fill-rule="evenodd" opacity="0.3">
        <g id="ComplyAPI" transform="translate(-1048.000000, -1866.000000)" fill="#3A2E50">
            <g id="kyc" transform="translate(1048.682129, 1865.754176)">
                <path d="M26.3355529,9.52421109 L26.3355529,7.83412462 C26.9384554,8.19454113 27.5413133,8.37473371 28.1407365,8.37473371 C28.8011369,8.37473371 29.4318739,8.19452769 30.0051577,7.83412462 L30.0365205,9.52421109 L35.8090579,9.52421109 L39.6284961,25.862072 L36.8022679,25.862072 L33.8540407,13.3890958 L32.1394531,22.4186563 L35.8090579,41.9580701 L32.020978,41.9580701 L28.1701813,25.8898414 L24.3821015,41.956278 L20.5609235,41.9580275 L24.5023162,22.418616 L22.5472991,13.3590466 L19.6304303,25.8615838 L16.7135615,25.8615838 L20.5608789,9.5237184 L26.3355529,9.52421109 Z M28.1703553,8.31700007 C29.2524216,8.31700007 30.1549912,7.92334079 30.9059875,7.16926948 C31.6900819,6.38370668 32.0490311,5.47743622 32.0490311,4.38918608 C32.0490311,1.79278435 30.7578937,0.494605883 28.1703553,0.494605883 C27.0882889,0.494605883 26.1857194,0.884762618 25.4016249,1.67382348 C24.6488889,2.45589269 24.260321,3.36390995 24.260321,4.38918608 C24.260321,5.50892323 24.6506286,6.41694048 25.4329834,7.16926948 C26.1857194,7.92159848 27.116168,8.31700007 28.1703553,8.31700007 Z" id="Page-1"></path>
                <path d="M28.5134055,49.9637958 C12.8538338,49.9637958 0.212710076,46.3596225 0.212710076,41.4886598 C0.212710076,36.6176972 12.8538338,33.0135238 28.5134055,33.0135238 C44.1729772,33.0135238 56.814101,36.6176972 56.814101,41.4886598 C56.814101,46.3596225 44.1729772,49.9637958 28.5134055,49.9637958 Z M28.5134055,48.8274322 C43.4863226,48.8274322 55.6777374,45.3514776 55.6777374,41.4886598 C55.6777374,37.6258421 43.4863226,34.1498875 28.5134055,34.1498875 C13.5404885,34.1498875 1.34907371,37.6258421 1.34907371,41.4886598 C1.34907371,45.3514776 13.5404885,48.8274322 28.5134055,48.8274322 Z" id="Oval" fill-rule="nonzero"></path>
            </g>
        </g>
    </g>
</svg>