<?xml version="1.0" encoding="UTF-8"?>
<svg width="46px" height="46px" viewBox="0 0 46 46" version="1.1" xmlns="http://www.w3.org/2000/svg" xmlns:xlink="http://www.w3.org/1999/xlink">
    <!-- Generator: Sketch 47 (45396) - http://www.bohemiancoding.com/sketch -->
    <title>kyc_aml</title>
    <desc>Created with Sketch.</desc>
    <defs></defs>
    <g id="Page-1" stroke="none" stroke-width="1" fill="none" fill-rule="evenodd" opacity="0.5">
        <g id="ComplyAPI" transform="translate(-876.000000, -450.000000)" fill="#362B4A">
            <g id="kyc_aml" transform="translate(876.273926, 449.986435)">
                <path d="M10.6129397,42.0250271 C10.4871344,42.0250271 10.361329,41.9817803 10.2571471,41.893324 C10.0232296,41.6947881 9.99570845,41.3429004 10.1922768,41.1090031 C10.2158678,41.0814819 12.4823368,38.3629238 14.4676963,34.913341 C14.6210228,34.6479722 14.9591222,34.5555808 15.2225284,34.7108749 C15.4859346,34.866164 15.5763535,35.206236 15.423032,35.4735573 C13.3865452,39.0098451 11.131912,41.7145093 11.0355451,41.8287406 C10.9254654,41.9584761 10.7682087,42.0253089 10.6129196,42.0253089 L10.6129397,42.0250271 Z" id="Fill-1"></path>
                <path d="M38.9800343,38.2015508 C38.9702064,38.2015508 38.962341,38.2015508 38.9525131,38.1995882 C29.3812417,37.7356784 28.8468206,33.1004456 27.9621573,25.4222881 L27.9444641,25.2748594 C27.2093079,18.8960297 24.3531238,19.0001915 22.6470522,19.0610863 C20.8346499,19.1259566 18.8945301,20.6552918 18.8945301,22.8273917 L18.8925675,22.8745687 L18.5583983,26.8099162 C18.4601141,28.3431815 17.9883491,30.1024939 17.156826,32.0409028 C17.0349508,32.3239649 16.7106095,32.4517378 16.4314827,32.3298626 C16.1523508,32.2079874 16.0226153,31.879716 16.1444905,31.5986316 C16.9268488,29.7744539 17.3691301,28.1370218 17.4575964,26.7315243 L17.4575964,26.7197288 L17.7917656,22.8000869 C17.8055237,20.217152 19.9599454,18.0430845 22.6077456,17.9467679 C25.3656506,17.8445536 28.2886122,18.6249594 29.0414314,25.1453503 L29.0571571,25.2927791 C29.4876479,29.0158124 29.8257272,31.9564371 31.1192075,33.9003814 C32.4519391,35.9034543 34.8835553,36.886296 39.0036807,37.0867795 C39.3083662,37.1005375 39.5422786,37.3619812 39.5285406,37.6686041 C39.5147825,37.9693594 39.2710322,38.2013143 38.9801299,38.2013143 L38.9800343,38.2015508 Z" id="Fill-2"></path>
                <path d="M40.2300363,34.340836 C37.9301635,34.340836 36.0175195,33.6508692 34.5255183,32.2807482 C31.0010058,29.0412603 31.1287737,23.1950855 31.1405491,22.8176694 C31.136619,19.1359002 28.8151126,15.8686849 25.3595415,14.6896371 C25.0705817,14.5913529 24.9152926,14.2748719 25.0135767,13.9839697 C25.1118609,13.6930473 25.4244117,13.5357906 25.7133564,13.6360374 C29.6192101,14.9707315 32.2436608,18.6643264 32.2436608,22.8298927 L32.2436608,22.8495485 C32.2416932,22.9065534 32.0844365,28.5384666 35.2728021,31.4631895 C36.8630824,32.9217265 39.0508879,33.4819629 41.7754293,33.1242228 C42.0781472,33.0849061 42.3552913,33.2991727 42.3946432,33.6038532 C42.4339549,33.9085387 42.2196933,34.1876907 41.918943,34.2269923 C41.3351055,34.3016905 40.7709943,34.3410021 40.2303835,34.3410021 L40.2300363,34.340836 Z" id="Fill-3"></path>
                <path d="M6.8604176,38.9070672 C6.70709107,38.9070672 6.55376956,38.8421969 6.44565244,38.7163916 C6.2451489,38.4844367 6.26873992,38.134567 6.49675961,37.9301081 C10.0566486,34.7830117 11.6371664,30.8613568 12.3366442,28.1273549 C13.0993266,25.1414403 13.0108602,22.8747297 13.0108602,22.8515815 L13.0108602,22.8260279 C13.0108602,17.4752746 17.3255813,13.1214029 22.6289312,13.1214029 C22.9336167,13.1214029 23.1813174,13.371046 23.1813174,13.6777142 C23.1813174,13.9843622 22.9336368,14.2340254 22.6289312,14.2340254 C17.9367941,14.2340254 14.119457,18.0809016 14.1134184,22.812441 C14.1212787,23.0306327 14.1881165,25.3167727 13.4156012,28.3634764 C12.680445,31.2628873 11.009599,35.4201504 7.22547455,38.7660696 C7.11736246,38.8623912 6.98762191,38.9076006 6.85985399,38.9076006 L6.8604176,38.9070672 Z" id="Fill-4"></path>
                <path d="M41.6848494,29.1516168 C39.9687637,29.1516168 38.5652792,28.6896746 37.4920086,27.771683 C35.3415422,25.9258668 35.3828063,22.9419148 35.3847689,22.8161094 C35.3926292,22.5133916 35.6363796,22.2716239 35.937155,22.2716239 L35.9489505,22.2716239 C36.253636,22.2794892 36.4953987,22.5330625 36.4875484,22.8416731 C36.4875484,22.8652641 36.4600272,25.4324582 38.2134469,26.9303471 C39.4459368,27.9839921 41.2858653,28.2886424 43.6779283,27.8404734 C43.976716,27.7834685 44.2656909,27.983972 44.320693,28.2866899 C44.3757354,28.5894077 44.179162,28.8803402 43.8784067,28.9353926 C43.0999735,29.0788912 42.3667799,29.1516218 41.6846632,29.1516218 L41.6848494,29.1516168 Z" id="Fill-5"></path>
                <path d="M35.2783375,19.1989036 C35.0463827,19.1989036 34.8301585,19.0495072 34.7534776,18.8155897 C33.0315042,13.516165 28.1587609,9.95637667 22.6268479,9.95637667 C20.26996,9.95637667 17.9681246,10.6090045 15.9692285,11.8454196 C15.202621,12.3191572 14.4831653,12.877426 13.8325,13.5044902 C13.6123407,13.7167843 13.2624508,13.7069564 13.0521043,13.4848344 C12.8417577,13.2627075 12.8516007,12.9088975 13.0717651,12.698551 C13.7793951,12.0183969 14.5617534,11.4129712 15.3932765,10.8979744 C17.5653814,9.55537965 20.0677506,8.84578713 22.6270844,8.84578713 C28.6380642,8.84578713 33.9319535,12.7143018 35.803434,18.4739225 C35.897788,18.7668125 35.7405313,19.0793482 35.4515715,19.1756648 C35.392599,19.1913905 35.3355941,19.1992508 35.2785892,19.1992508 L35.2783375,19.1989036 Z" id="Fill-6"></path>
                <path d="M3.49285987,34.7323423 C3.29432392,34.7323423 3.10364829,34.6242302 3.00339652,34.4335546 C2.8618655,34.1622881 2.96604743,33.8242038 3.2353514,33.6826476 C8.14961049,31.0761116 8.73958728,23.1894746 8.76273546,22.8105488 C8.76666562,20.4005711 9.38587455,18.0260202 10.5574243,15.94057 C10.7087833,15.6732337 11.0449201,15.5788796 11.3102939,15.7302386 C11.5756627,15.8815975 11.6680541,16.2216645 11.5186578,16.4889958 C10.4394994,18.4114526 9.86748764,20.6032335 9.86748764,22.8265664 L9.86748764,22.8580177 C9.84783181,23.2197081 9.31510149,31.7157211 3.75032807,34.6681212 C3.66776957,34.7133306 3.57931331,34.7329915 3.49281961,34.7329915 L3.49285987,34.7323423 Z" id="Fill-7"></path>
                <path d="M33.7903118,42.4708813 C33.7804839,42.4708813 33.7726236,42.4708813 33.7627906,42.4689187 C31.2800974,42.3490111 29.2691743,41.4251369 27.7809976,39.7267646 C24.5237964,36.0076564 24.9405643,32.4064026 24.96019,32.1487532 C24.983781,31.8421002 25.2452196,31.6121179 25.5518777,31.635719 C25.8565632,31.659305 26.0845879,31.9266414 26.0609868,32.2332944 C26.0550941,32.3099552 25.6678451,35.6359267 28.6105078,38.9915581 C29.894125,40.4540202 31.6435743,41.2501668 33.8158302,41.3562962 C34.1205156,41.3700542 34.3544281,41.6314979 34.3406901,41.9381208 C34.326932,42.2388761 34.0831816,42.470831 33.7902665,42.470831 L33.7903118,42.4708813 Z" id="Fill-8"></path>
                <path d="M20.7463094,45.2899277 C20.7050302,45.2899277 20.6637509,45.2840304 20.6224717,45.2761676 C20.3256515,45.2073672 20.1389061,44.9085794 20.2077065,44.6098018 C20.5890527,42.9251674 22.9675741,37.6985608 23.0697783,37.476137 C23.1818256,37.230424 23.4530921,37.1026511 23.7105805,37.1714515 C23.9700515,37.2402519 24.1430339,37.4859649 24.1194479,37.755289 C24.0309916,38.840335 24.8428287,42.3452219 27.2901454,44.1753863 C27.5338958,44.3581966 27.5869655,44.7080965 27.4041552,44.9538195 C27.2233075,45.2015001 26.8773327,45.2526073 26.6316097,45.069797 C24.7642054,43.6741627 23.7184106,41.4804208 23.2722042,39.7386708 C22.5291474,41.4409682 21.5050415,43.876508 21.2829196,44.8594504 C21.2259147,45.1149913 20.9978899,45.2899413 20.7462843,45.2899413 L20.7463094,45.2899277 Z" id="Fill-9"></path>
                <path d="M14.917999,44.3091506 C14.7784355,44.3091506 14.6369045,44.2560759 14.5287874,44.1479638 C14.3125582,43.9317346 14.3105956,43.5779146 14.5268198,43.3616803 C14.5484432,43.3400574 16.6713985,41.1640102 18.7354115,37.6455867 C20.630342,34.4178742 22.8653497,29.3620589 22.7533326,23.6082252 C22.7474398,23.3015772 22.9892176,23.0460263 23.293893,23.0401386 C23.5946483,23.0322783 23.8502043,23.2779912 23.856092,23.5865867 C23.9720694,29.6136697 21.6427229,34.8813915 19.6671763,38.2388848 C17.5324154,41.8695267 15.3976495,44.0536098 15.3072206,44.1436864 C15.2010711,44.2517985 15.05954,44.3088034 14.918009,44.3088034 L14.917999,44.3091506 Z" id="Fill-10"></path>
                <path d="M0.552386151,23.3841961 C0.247700679,23.3841961 0,23.134553 0,22.8278848 C0,17.6185367 1.78487605,12.5254327 5.02436393,8.48406151 C8.21669997,4.50151688 12.6869165,1.68855947 17.6109381,0.564362821 C17.9077582,0.497529984 18.2045884,0.684270421 18.2714162,0.985025734 C18.338249,1.28578105 18.1515086,1.58260117 17.8546884,1.65139154 C7.99255508,3.90214997 1.10496302,12.6100444 1.10496302,22.8279553 C1.10496302,23.1346083 0.857282473,23.3842666 0.552576872,23.3842666 L0.552386151,23.3841961 Z" id="Fill-11"></path>
                <path d="M42.2177609,13.1114341 C42.019225,13.1114341 41.8265868,13.0013544 41.726335,12.8106787 C38.0033017,5.59649649 30.6851539,1.11480654 22.6275725,1.11480654 C22.322887,1.11480654 22.0751864,0.865163424 22.0751864,0.558495259 C22.0751864,0.249879628 22.3228669,0.000221417424 22.6275725,0.000221417424 C31.0977954,0.000221417424 38.7915477,4.71203453 42.7071135,12.2979464 C42.8486446,12.5711806 42.742495,12.9072973 42.4731961,13.0488534 C42.3906376,13.0921003 42.3041439,13.1117561 42.2176552,13.1117561 L42.2177609,13.1114341 Z" id="Fill-12"></path>
                <path d="M1.78291349,29.5541939 C1.57847978,29.5541939 1.37994384,29.4382165 1.28558982,29.2396805 C1.15388671,28.9625162 1.26789807,28.6303297 1.54309829,28.4966238 C4.38549415,27.1108023 4.26165136,22.890234 4.26165136,22.8489698 L4.26165136,22.8273464 C4.26165136,12.6094355 12.5019021,4.29672086 22.6292331,4.29672086 C26.6235531,4.29672086 30.4191007,5.56851235 33.6095245,7.97260235 C33.8532749,8.15738023 33.904382,8.50531255 33.7215718,8.75299813 C33.5407241,8.99871108 33.1927867,9.04981825 32.9490262,8.86504541 C29.9513363,6.60643672 26.3814835,5.41128585 22.6269485,5.41128585 C13.1110315,5.41128585 5.36796352,13.2192694 5.36393774,22.8177147 C5.37376566,23.1459862 5.45829176,27.8243653 2.02224559,29.4969726 C1.94361725,29.5362843 1.8630213,29.5539775 1.78243039,29.5539775 L1.78291349,29.5541939 Z" id="Fill-13"></path>
                <path d="M44.6629138,24.9331116 C44.643258,24.9331116 44.6255647,24.9331116 44.6059089,24.931144 C44.303191,24.8996927 44.0830115,24.6264586 44.1125154,24.3198307 C44.5371084,20.1505406 42.9448907,15.5899505 42.9271773,15.5446606 C42.8249579,15.2557008 42.9743543,14.9372723 43.2613465,14.8330552 C43.5483387,14.7308408 43.8648096,14.8802322 43.9670139,15.1711596 C44.0377769,15.3677279 45.6594985,20.0185909 45.2113295,24.4354609 C45.1818407,24.7185229 44.9439931,24.9327845 44.6629188,24.9327845 L44.6629138,24.9331116 Z" id="Fill-14"></path>
                <path d="M40.5229112,24.0977641 C40.2260911,24.0977641 39.9823507,23.8599114 39.9724876,23.5591662 C39.8683057,20.2056483 39.1586779,17.7997971 39.1174138,17.6619144 C38.2898661,15.2244105 37.137942,13.1309591 35.6892178,11.4426009 C35.4906819,11.210646 35.5142679,10.8587634 35.7462228,10.6563174 C35.97621,10.4558139 36.3241222,10.4794049 36.524656,10.7133223 C38.0657716,12.5119363 39.2904112,14.7312434 40.1631984,17.308039 L40.1671286,17.3217971 C40.1985799,17.425979 40.9612623,19.9244079 41.0733297,23.521485 C41.0831576,23.828133 40.8433424,24.0856465 40.538657,24.0954593 C40.5347268,24.0974269 40.5288291,24.0974269 40.5229313,24.0974269 L40.5229112,24.0977641 Z" id="Fill-15"></path>
            </g>
        </g>
    </g>
</svg>