<?xml version="1.0" standalone="no"?>
<!DOCTYPE svg PUBLIC "-//W3C//DTD SVG 20010904//EN"
 "http://www.w3.org/TR/2001/REC-SVG-20010904/DTD/svg10.dtd">
<svg version="1.0" xmlns="http://www.w3.org/2000/svg"
 width="956.000000pt" height="956.000000pt" viewBox="0 0 956.000000 956.000000"
 preserveAspectRatio="xMidYMid meet">
<metadata>
Created by potrace 1.11, written by Peter Selinger 2001-2013
</metadata>
<g transform="translate(0.000000,956.000000) scale(0.100000,-0.100000)"
fill="#000000" stroke="none">
<path d="M5496 9508 c-16 -29 -36 -61 -44 -70 -8 -10 -12 -18 -8 -18 4 0 -2
-13 -13 -29 -12 -16 -21 -34 -21 -39 0 -6 -4 -12 -8 -14 -7 -3 -26 -35 -130
-218 -14 -25 -32 -57 -41 -72 -76 -129 -161 -281 -161 -288 0 -4 -4 -10 -8
-12 -4 -1 -34 -50 -67 -108 -33 -57 -64 -112 -70 -121 -5 -9 -22 -38 -38 -65
-15 -27 -35 -62 -45 -79 -9 -16 -44 -77 -77 -135 -32 -58 -62 -107 -65 -110
-3 -3 -12 -18 -20 -35 -8 -16 -17 -32 -21 -35 -3 -3 -13 -21 -22 -40 -10 -19
-26 -48 -37 -65 -10 -16 -27 -46 -38 -65 -26 -46 -49 -87 -112 -195 -60 -102
-59 -101 -165 -285 -42 -74 -82 -141 -87 -147 -6 -7 -7 -13 -2 -13 5 0 4 -4
-2 -8 -6 -4 -25 -32 -41 -62 -17 -30 -52 -90 -77 -133 -25 -43 -46 -81 -46
-85 0 -5 -5 -13 -12 -20 -12 -12 -64 -101 -90 -152 -7 -14 -17 -28 -23 -32 -5
-4 -6 -8 -1 -8 5 0 2 -8 -6 -17 -9 -10 -27 -38 -40 -63 -14 -25 -35 -61 -47
-80 -11 -19 -24 -41 -28 -49 -3 -8 -36 -64 -71 -125 -36 -61 -81 -140 -100
-176 -20 -36 -38 -67 -42 -70 -4 -3 -13 -18 -22 -35 -8 -16 -24 -46 -35 -65
-43 -75 -247 -427 -265 -457 -45 -80 -62 -110 -79 -138 -10 -16 -24 -41 -32
-55 -8 -14 -37 -65 -65 -113 -29 -49 -52 -93 -52 -98 0 -5 -3 -9 -7 -9 -5 0
-13 -10 -19 -23 -18 -38 -76 -141 -95 -169 -11 -14 -19 -31 -19 -37 0 -6 -4
-11 -10 -11 -5 0 -10 -9 -10 -19 0 -11 -4 -21 -8 -23 -7 -3 -81 -128 -91 -153
-2 -5 -9 -17 -16 -25 -7 -8 -28 -44 -46 -80 -19 -36 -36 -67 -39 -70 -5 -4
-71 -117 -120 -206 -10 -17 -24 -42 -32 -55 -7 -13 -17 -27 -23 -31 -5 -4 -6
-8 -2 -8 4 0 -6 -20 -23 -44 -16 -25 -30 -48 -30 -52 0 -4 -7 -15 -16 -25 -8
-9 -17 -25 -18 -34 -1 -9 -9 -24 -18 -34 -8 -9 -22 -31 -30 -47 -8 -16 -66
-117 -128 -224 -104 -180 -146 -253 -174 -305 -6 -11 -13 -22 -16 -25 -5 -5
-11 -15 -55 -94 -13 -23 -46 -81 -75 -131 -29 -49 -64 -110 -78 -135 -13 -25
-31 -53 -40 -62 -8 -10 -11 -18 -7 -18 4 0 1 -8 -7 -17 -8 -10 -68 -110 -132
-223 -65 -113 -122 -212 -127 -220 -8 -13 -79 -137 -131 -230 -54 -94 -180
-312 -198 -340 -5 -8 -18 -31 -28 -50 -10 -19 -40 -71 -66 -115 -27 -44 -52
-89 -57 -100 -5 -11 -18 -33 -29 -50 -11 -16 -23 -37 -26 -45 -4 -8 -14 -23
-22 -32 -8 -10 -11 -18 -7 -18 4 0 1 -8 -7 -17 -9 -10 -27 -39 -42 -65 -14
-27 -38 -69 -52 -95 -15 -27 -30 -52 -34 -58 -4 -5 -18 -28 -30 -50 -55 -98
-114 -200 -120 -205 -3 -3 -14 -24 -25 -47 -11 -24 -23 -43 -27 -43 -5 0 -8
-4 -8 -9 0 -5 -23 -49 -51 -98 -29 -48 -62 -106 -74 -128 -13 -22 -50 -86 -84
-143 -34 -57 -61 -105 -61 -107 0 -1 -46 -81 -101 -176 -132 -226 -137 -234
-172 -299 -16 -30 -34 -61 -40 -68 -8 -10 157 -12 829 -10 l839 3 22 40 c12
22 34 60 48 85 15 25 37 63 49 85 13 22 90 155 171 295 81 140 157 271 167
290 20 35 57 97 91 155 10 16 20 38 23 47 4 10 11 18 16 18 5 0 6 5 3 10 -3 6
-2 10 3 10 5 0 12 8 15 18 3 9 20 40 36 67 17 28 35 59 41 70 6 11 20 36 31
55 12 19 78 134 148 255 70 121 145 250 167 288 21 37 46 80 54 95 8 15 43 75
78 134 34 58 62 111 62 116 0 6 4 12 8 14 4 2 25 35 47 73 21 39 41 72 44 75
3 3 17 28 31 55 14 28 28 52 33 53 4 2 7 9 7 16 0 7 9 22 20 34 12 12 19 22
16 22 -3 0 15 34 39 75 25 42 45 80 45 85 0 6 4 10 9 10 5 0 14 12 20 27 6 16
31 62 56 103 25 41 48 83 52 93 3 9 10 17 15 17 5 0 7 4 3 9 -3 5 1 15 8 23 7
7 31 45 52 83 21 39 41 72 44 75 3 3 14 21 25 40 57 106 67 124 75 134 5 6 21
34 36 61 14 28 35 64 45 80 20 31 45 76 76 135 11 19 22 37 25 40 3 3 19 30
36 60 16 30 44 79 62 108 17 29 31 57 31 62 0 6 3 10 8 10 4 0 16 19 27 43 11
23 23 47 28 52 20 26 75 125 69 125 -4 0 -2 4 4 8 6 4 26 34 45 67 18 33 42
74 52 90 9 17 20 38 23 48 4 9 10 17 15 17 5 0 9 5 9 10 0 9 265 473 365 640
18 30 43 73 55 95 12 22 55 96 94 165 40 69 75 133 79 143 3 9 11 17 17 17 6
0 9 4 6 9 -3 5 1 14 9 21 8 7 15 16 15 20 0 7 70 131 210 370 40 69 83 143 95
165 12 22 47 83 77 135 30 52 108 187 173 300 64 113 126 217 136 232 10 14
20 32 21 40 2 7 5 15 8 18 7 6 80 130 80 135 0 2 21 39 48 82 26 43 53 89 60
103 7 14 26 48 43 75 16 28 33 58 36 68 3 9 9 17 13 17 4 0 10 8 13 18 3 9 23
46 44 83 21 36 70 120 108 187 39 67 73 122 76 122 7 0 33 -89 31 -102 -1 -4
3 -20 9 -35 6 -15 13 -39 15 -53 3 -14 10 -41 16 -60 7 -19 13 -40 14 -46 1
-7 18 -73 39 -148 20 -74 38 -143 40 -153 2 -10 4 -18 5 -18 1 0 3 -7 5 -15 8
-37 67 -257 72 -270 3 -8 7 -22 8 -30 1 -8 11 -46 22 -85 11 -38 22 -74 23
-80 1 -5 4 -14 5 -20 2 -5 7 -23 11 -40 4 -16 8 -34 10 -40 2 -5 5 -19 8 -30
2 -11 12 -47 21 -80 9 -33 18 -67 20 -75 4 -18 24 -91 60 -220 15 -52 27 -105
28 -117 0 -13 4 -23 7 -23 3 0 7 -11 8 -26 1 -14 6 -33 10 -42 5 -9 15 -43 22
-74 10 -43 10 -61 1 -71 -6 -8 -22 -34 -35 -58 -13 -24 -34 -62 -47 -85 -13
-22 -69 -119 -124 -215 -55 -96 -103 -175 -107 -177 -5 -2 -8 -10 -8 -17 0 -8
-7 -21 -16 -29 -8 -9 -12 -16 -8 -16 3 0 1 -7 -6 -15 -18 -22 -48 -75 -61
-107 -6 -16 -14 -28 -19 -28 -4 0 -14 -15 -21 -32 -7 -18 -42 -79 -76 -136
-35 -57 -63 -106 -63 -108 0 -2 -27 -49 -59 -104 -33 -55 -57 -100 -53 -100 4
0 -1 -5 -10 -11 -10 -5 -18 -14 -18 -20 0 -5 -24 -51 -54 -102 -29 -50 -79
-137 -111 -192 -76 -131 -92 -159 -128 -225 -16 -30 -36 -62 -43 -71 -8 -8
-14 -18 -14 -21 0 -4 -27 -52 -60 -108 -33 -56 -60 -106 -60 -111 0 -5 -4 -9
-10 -9 -5 0 -10 -9 -10 -19 0 -11 -4 -21 -8 -23 -7 -3 -24 -29 -80 -128 -10
-19 -42 -74 -70 -123 -28 -48 -48 -87 -44 -87 4 0 1 -4 -5 -8 -12 -7 -31 -39
-84 -137 -12 -22 -27 -43 -33 -47 -6 -4 -7 -8 -2 -8 5 0 2 -8 -6 -17 -8 -10
-18 -25 -21 -33 -4 -8 -20 -37 -37 -65 -17 -27 -40 -69 -51 -92 -12 -24 -25
-43 -30 -43 -5 0 -9 -9 -9 -20 0 -11 -4 -20 -10 -20 -5 0 -10 -4 -10 -9 0 -5
-18 -39 -40 -75 -22 -36 -40 -70 -40 -76 0 -5 -4 -10 -10 -10 -5 0 -10 -5 -10
-10 0 -11 -88 -170 -100 -180 -3 -3 -14 -23 -25 -45 -11 -22 -26 -46 -32 -53
-7 -7 -13 -18 -13 -24 0 -6 -6 -19 -14 -27 -7 -9 -28 -45 -47 -81 -19 -36 -37
-67 -40 -70 -3 -3 -16 -25 -30 -50 -13 -25 -26 -47 -29 -50 -3 -3 -11 -16 -17
-30 -7 -14 -26 -47 -43 -75 -17 -27 -35 -59 -40 -70 -6 -11 -14 -27 -20 -35
-27 -42 -100 -169 -100 -174 0 -5 -31 -58 -77 -131 -7 -11 -25 -42 -39 -70
-15 -27 -30 -51 -35 -53 -5 -2 -9 -8 -9 -13 0 -8 -70 -135 -110 -199 -13 -22
-81 -140 -100 -175 -9 -16 -27 -48 -41 -70 -15 -22 -29 -50 -33 -62 -4 -13
-12 -23 -17 -23 -5 0 -9 -4 -9 -9 0 -12 -123 -225 -132 -229 -5 -2 -8 -12 -8
-22 0 -10 -4 -20 -8 -22 -4 -1 -19 -23 -33 -48 -39 -69 -68 -119 -109 -190
-53 -91 -80 -140 -80 -144 0 -2 374 -3 831 -2 815 1 832 1 843 21 6 10 16 25
22 31 6 7 17 26 24 43 7 17 16 31 21 31 5 0 9 7 9 15 0 9 5 21 10 28 10 11
138 231 241 412 22 39 44 77 49 85 5 8 46 78 90 155 44 77 85 147 90 155 6 8
13 22 17 30 4 8 27 49 51 90 25 41 54 91 65 110 78 138 112 196 120 201 5 3 9
10 9 15 0 9 22 48 135 241 29 50 53 96 53 102 0 6 4 11 9 11 5 0 11 8 15 18 3
9 14 31 24 47 10 17 40 68 67 115 28 47 55 94 62 105 7 11 16 27 20 35 7 15
85 151 103 180 5 8 44 76 87 150 43 74 83 144 90 155 7 11 16 27 20 35 28 55
78 136 87 142 6 4 7 8 2 8 -5 0 -4 6 2 12 9 12 98 164 150 258 14 25 33 56 44
69 10 13 18 28 18 34 0 6 11 27 24 46 13 20 70 117 126 216 57 99 108 186 114
194 8 10 13 2 24 -35 7 -27 15 -56 17 -64 4 -14 30 -114 39 -150 2 -8 10 -35
17 -60 7 -25 13 -49 15 -55 1 -5 14 -55 29 -110 15 -55 34 -127 42 -160 8 -33
18 -67 21 -75 3 -8 7 -19 7 -25 1 -5 5 -17 8 -25 4 -8 8 -28 11 -45 2 -16 5
-31 6 -32 3 -3 3 -4 15 -48 4 -16 28 -102 52 -190 25 -88 46 -169 48 -180 1
-11 3 -20 4 -20 2 0 4 -8 7 -18 2 -9 6 -25 8 -35 3 -9 5 -19 6 -22 1 -3 2 -8
2 -11 -1 -4 10 -42 23 -84 14 -43 25 -83 25 -90 0 -7 9 -40 20 -75 11 -34 17
-66 14 -71 -3 -5 -1 -9 4 -9 5 0 9 -6 10 -12 0 -15 6 -38 21 -85 5 -17 7 -34
3 -37 -3 -3 0 -6 5 -6 6 0 10 -8 8 -17 -1 -10 0 -22 4 -28 3 -5 6 -14 7 -20 2
-5 12 -46 24 -90 12 -44 23 -87 25 -95 2 -8 13 -46 25 -85 11 -38 22 -81 25
-95 2 -14 9 -41 15 -60 6 -19 14 -48 17 -65 3 -16 10 -36 15 -42 6 -7 8 -13 5
-13 -3 0 0 -21 8 -47 13 -45 42 -150 50 -183 2 -8 11 -42 20 -75 9 -33 21 -76
26 -95 5 -19 12 -43 14 -53 3 -9 7 -27 10 -38 2 -12 12 -47 21 -78 9 -31 18
-63 20 -71 2 -8 17 -67 35 -130 17 -63 35 -131 39 -150 4 -19 13 -51 19 -70 6
-19 14 -47 16 -62 3 -14 11 -44 18 -65 l12 -38 748 -1 c411 -1 747 -1 747 0 0
0 -14 50 -31 111 -17 61 -32 123 -35 138 -2 15 -8 35 -13 45 -4 9 -12 35 -16
57 -5 22 -10 45 -11 50 -26 87 -83 299 -91 335 -2 14 -7 32 -10 40 -8 20 -13
41 -15 63 -1 9 -5 17 -8 17 -3 0 -7 15 -8 33 -2 17 -7 34 -12 35 -6 2 -8 7 -5
11 2 4 0 24 -6 44 -5 20 -10 40 -11 44 0 5 -5 19 -10 33 -5 14 -11 32 -13 41
-2 9 -17 67 -34 130 -17 63 -37 141 -46 174 -9 33 -23 85 -31 115 -9 30 -17
62 -19 70 -2 8 -9 30 -14 49 -6 19 -8 38 -5 42 3 5 1 9 -4 9 -5 0 -9 6 -10 13
0 11 -4 27 -17 74 -2 10 -9 38 -16 63 -6 25 -13 52 -16 60 -3 8 -7 20 -9 25
-1 6 -7 30 -13 55 -7 25 -14 52 -16 60 -6 20 -57 210 -89 330 -24 91 -39 147
-71 265 -39 144 -47 172 -51 192 -2 12 -9 34 -14 48 -5 14 -7 25 -5 25 2 0 0
12 -6 27 -6 16 -12 35 -14 44 -2 9 -18 69 -35 135 -18 65 -34 126 -35 134 -2
8 -4 17 -6 20 -1 3 -3 10 -4 15 0 6 -6 26 -12 45 -6 19 -21 73 -33 120 -13 47
-34 123 -47 170 -14 47 -26 94 -28 105 -1 11 -3 20 -5 20 -1 0 -3 9 -5 20 -2
11 -13 54 -25 95 -11 41 -22 82 -25 91 -11 47 -47 186 -52 199 -3 8 -7 22 -9
30 -5 25 -26 104 -31 120 -7 17 -9 24 -17 60 -3 14 -15 59 -26 100 -11 41 -22
82 -25 90 -2 8 -18 67 -35 130 -17 63 -33 122 -34 130 -1 8 -6 25 -10 37 -4
12 -9 30 -11 40 -7 32 -94 357 -107 398 -7 22 -13 47 -14 55 -2 8 -5 27 -8 42
-5 20 3 43 31 91 57 94 71 120 85 147 7 14 18 31 25 38 7 8 11 17 8 22 -3 5
-2 10 3 12 7 3 25 32 80 128 10 19 49 86 86 149 36 62 66 115 66 117 0 1 33
59 74 128 41 69 77 135 81 146 3 11 11 20 16 20 5 0 9 5 9 11 0 5 29 60 65
120 36 60 65 114 65 119 0 6 4 10 8 10 4 0 13 12 19 28 7 15 25 50 42 77 17
28 42 71 56 97 13 26 49 88 80 139 30 50 55 93 55 95 0 2 14 26 30 52 17 27
30 53 30 58 0 5 -309 9 -737 9 -406 -1 -745 1 -754 3 -11 2 -21 22 -28 55 -13
59 -19 82 -21 82 -1 0 -3 7 -5 15 -2 8 -8 35 -14 60 -7 25 -14 56 -17 69 -3
14 -8 29 -12 35 -3 6 -7 17 -8 26 0 8 -9 42 -18 75 -26 92 -68 248 -71 267 -2
9 -8 25 -14 36 -6 11 -8 21 -6 24 2 2 -3 26 -11 53 -9 28 -18 64 -21 80 -3 17
-10 36 -15 43 -6 6 -8 12 -5 12 3 0 1 15 -4 33 -17 54 -21 71 -22 92 -1 11 -5
22 -8 25 -3 3 -15 46 -28 95 -12 50 -25 97 -28 105 -7 17 -9 25 -17 60 -3 14
-26 99 -51 190 -25 91 -48 172 -50 180 -2 8 -8 35 -15 60 -6 25 -12 51 -12 58
-1 6 -5 12 -10 12 -5 0 -7 3 -5 8 5 6 -22 114 -52 210 -5 17 -7 32 -4 32 3 0
0 6 -6 14 -6 8 -11 18 -10 22 1 5 0 11 -1 14 -1 3 -3 12 -5 20 -10 44 -30 116
-35 120 -3 3 -6 14 -7 25 -1 11 -3 29 -6 40 -4 20 -13 20 -738 23 l-734 2 -29
-52z"/>
</g>
</svg>
