<?xml version="1.0" encoding="UTF-8"?>
<svg width="72px" height="72px" viewBox="0 0 72 72" version="1.1" xmlns="http://www.w3.org/2000/svg" xmlns:xlink="http://www.w3.org/1999/xlink">
    <!-- Generator: Sketch 59.1 (86144) - https://sketch.com -->
    <title>icon_bitcoin</title>
    <desc>Created with Sketch.</desc>
    <g id="Page-2" stroke="none" stroke-width="1" fill="none" fill-rule="evenodd">
        <g id="00" transform="translate(-457.000000, -1217.000000)">
            <g id="Value-props" transform="translate(170.000000, 916.000000)">
                <g id="Group-13" transform="translate(58.000000, 301.000000)">
                    <g id="icon_bitcoin" transform="translate(229.000000, 0.000000)">
                        <circle id="Oval" fill="#631A72" cx="36" cy="36" r="36"></circle>
                        <circle id="Oval" stroke="#FFFFFF" stroke-width="2" opacity="0.708472842" cx="36" cy="36" r="32"></circle>
                        <path d="M35,15.0375 C36,15.3375 36.9,15.5375 37.9,15.7375 C38.2,15.8375 38.2,15.9375 38.1,16.1375 C37.7,17.7375 37.3,19.4375 36.9,21.0375 C36.9,21.1375 36.9,21.2375 36.8,21.4375 C37.6,21.6375 38.5,21.8375 39.3,22.0375 C39.4,22.0375 39.5,21.8375 39.6,21.7375 C39.9,20.4375 40.2,19.2375 40.6,17.9375 L40.9,16.7375 L40.9,16.7375 C40.9,16.5375 41,16.4375 41.2,16.5375 C42.2,16.8375 43.2,17.0375 44.3,17.3375 C44.4,17.3375 44.4,17.4375 44.5,17.4375 C44.2,18.7375 43.9,19.9375 43.6,21.1375 C43.5,21.6375 43.4,22.1375 43.2,22.6375 C43.1,22.9375 43.2,23.0375 43.5,23.1375 L46.8,24.6375 L46.8,24.6375 C47.8,25.2375 48.7,26.0375 49.4,27.0375 C50.3,28.5375 50.4,30.1375 50,31.7375 C49.7,32.8375 49.3,33.8375 48.5,34.6375 C47.9,35.2375 47.1,35.6375 46.3,35.9375 C46.2,35.9375 46.1,36.0375 45.9,36.0375 C46.3,36.3375 46.7,36.5375 47.1,36.8375 C48.3,37.7375 49.1,38.8375 49.5,40.2375 C49.7,41.3375 49.6,42.5375 49.3,43.6375 C48.9,45.0375 48.4,46.2375 47.5,47.3375 C46.4,48.6375 45,49.3375 43.4,49.5375 C41.3,49.8375 39.3,49.6375 37.3,49.3375 C37,49.2375 36.8,49.3375 36.7,49.6375 C36.3,51.2375 35.9,52.9375 35.5,54.5375 C35.4,54.9375 35.4,55.0375 34.9,54.8375 C34,54.6375 33,54.3375 32.1,54.1375 C31.8,54.0375 31.8,53.9375 31.9,53.7375 C32.3,52.0375 32.7,50.3375 33.2,48.7375 C33.2,48.5375 33.3,48.4375 33.1,48.3375 C32.3,48.1375 31.5,47.9375 30.6,47.7375 C30.4,48.6375 30.1,49.5375 29.9,50.4375 C29.7,51.3375 29.4,52.2375 29.2,53.1375 C29.1,53.3375 29.1,53.4375 28.8,53.3375 C27.8,53.0375 26.8,52.8375 25.8,52.6375 C25.5,52.5375 25.5,52.4375 25.6,52.2375 C26,50.5375 26.4,48.8375 26.9,47.2375 C26.9,47.1375 27,47.0375 27,46.8375 C24.7,46.2375 22.4,45.6375 20,45.0375 C20.2,44.6375 20.3,44.3375 20.5,43.9375 C20.9,43.0375 21.3,42.1375 21.6,41.3375 C21.7,41.0375 21.8,41.0375 22.1,41.0375 C22.8,41.2375 23.6,41.4375 24.3,41.5375 C25.1,41.7375 25.7,41.3375 25.8,40.6375 C27.1,35.5375 28.4,30.4375 29.6,25.2375 C29.8,24.4375 29.3,23.5375 28.4,23.2375 C27.5,22.9375 26.6,22.7375 25.8,22.5375 C25.6,22.5375 25.5,22.4375 25.6,22.2375 C25.825,21.4125 26.05,20.53125 26.275,19.678125 L26.431,19.095 L27.025,19.246875 C27.575,19.378125 28.125,19.496875 28.675,19.628125 L29.5,19.8375 C30.6,20.1375 31.7,20.3375 32.8,20.6375 C33.1,20.7375 33.2,20.6375 33.3,20.3375 C33.7,18.6375 34.1,17.0375 34.5,15.3375 C34.6,15.0375 34.7,14.9375 35,15.0375 Z M33.1,36.5375 C32.9,37.5375 32.6,38.4375 32.4,39.4375 C32,40.8375 31.7,42.2375 31.3,43.7375 C31.4,43.7375 31.5,43.8375 31.5,43.8375 C33.1,44.2375 34.8,44.7375 36.5,44.8375 C37.7,44.9375 38.8,44.9375 39.9,44.5375 C41.8,43.9375 42.6,41.4375 41.5,39.8375 C41,39.0375 40.2,38.5375 39.4,38.0375 C37.6,37.0375 35.5,36.6375 33.5,36.2375 C33.2,36.1375 33.2,36.2375 33.1,36.5375 Z M35.6,26.1375 C35.1,28.2375 34.6,30.2375 34,32.3375 C33.9,32.5375 34,32.6375 34.2,32.7375 C34.6,32.8375 34.9,32.9375 35.3,33.0375 C36.8,33.2375 38.1,33.5375 39.7,33.5375 C39.9,33.5375 40.4,33.4375 40.8,33.3375 C42.7,32.9375 43.7,30.7375 42.7,29.0375 C42.2,28.1375 41.3,27.5375 40.4,27.1375 C39,26.5375 37.6,26.2375 36.1,25.8375 C35.8,25.7375 35.7,25.8375 35.6,26.1375 Z M26.2,19.0375 L26.224,19.043 L26.1989076,19.0618969 C26.1147929,19.1227071 26.1384615,19.0990385 26.2,19.0375 Z M26.5,18.8375 L26.431,19.095 L26.224,19.043 L26.2356395,19.0350421 C26.2776969,19.0040453 26.3361402,18.9603493 26.4146563,18.9014964 L26.5,18.8375 L26.5,18.8375 Z" id="Combined-Shape" fill="#FFFFFF"></path>
                    </g>
                </g>
            </g>
        </g>
    </g>
</svg>