<svg width="111" height="106" viewBox="0 0 111 106" fill="none" xmlns="http://www.w3.org/2000/svg">
<path d="M43.9897 0H58.282C58.282 14.6192 70.7771 26.5881 86.3533 26.5881C86.5244 26.5881 86.7812 26.5881 86.9523 26.5881C87.5514 30.0078 87.9793 33.5984 87.9793 37.2746V51.8938C87.9793 60.614 83.1867 70.1891 74.9707 79.6787C67.4394 88.3989 56.9983 97.2046 45.5302 105.07C44.5887 105.668 43.3906 105.668 42.5348 105.07C31.0666 97.2901 20.6255 88.3989 13.0942 79.6787C4.79265 70.1891 0 60.614 0 51.8938C0 51.8938 0.427915 29.1528 1.027 27.0155C1.45491 25.6477 2.48191 25.5622 2.48191 25.5622C18.058 25.0492 28.1568 16.0725 29.5261 2.65026C29.6973 1.1114 30.981 0 32.5215 0H43.9897Z" fill="#DBC5E8"/>
<path d="M45.7005 0.0324707C44.5023 0.203455 43.5609 1.14386 43.5609 2.42624C43.5609 3.70863 43.5609 3.96507 43.5609 4.90549C43.5609 15.421 34.6603 24.1412 23.021 24.1412C22.0796 24.1412 21.1382 24.1412 20.7103 24.1412C19.5121 24.0557 18.3995 24.8252 18.1428 26.0221C17.2014 30.0402 16.7734 34.4003 16.7734 38.5894V51.8407C16.7734 61.5014 21.9084 70.991 29.6965 80.1386C37.4845 89.2863 48.268 97.8356 59.9929 105.615C60.7631 106.128 61.7901 106.128 62.6459 105.615C74.3708 97.9211 85.0687 89.2863 92.9423 80.1386C100.816 70.991 105.865 61.5014 105.865 51.8407V38.5894C105.865 34.3148 105.437 30.0402 104.496 26.0221C104.239 24.8252 103.127 24.0557 101.929 24.1412C101.501 24.1412 100.559 24.1412 99.6178 24.1412C87.9785 24.1412 78.9923 15.3355 79.0779 4.90549C79.0779 3.96507 79.0779 3.79412 79.0779 2.42624C79.0779 1.14386 77.9653 0.0324707 76.6815 0.0324707H61.2766H45.9572C45.8717 0.0324707 45.7861 0.0324707 45.7005 0.0324707Z" fill="#350089"/>
<path d="M48.3516 4.82007H61.2746H74.1976C74.1976 18.0714 85.4946 28.8434 99.6158 28.8434C99.7014 28.8434 99.9581 28.8434 100.129 28.8434C100.728 31.9211 101.071 35.1698 101.071 38.504V51.7553C101.071 59.6206 96.706 68.2553 89.2603 76.8901C82.1569 85.0973 72.2292 93.219 61.2746 100.486C50.32 93.219 40.4779 85.0973 33.289 76.8901C25.8432 68.3408 21.4785 59.7061 21.4785 51.7553V38.504C21.4785 35.2553 21.8208 32.0066 22.4199 28.8434C22.5911 28.8434 22.8478 28.8434 22.9334 28.8434C37.0546 28.8434 48.3516 18.0714 48.3516 4.82007Z" fill="white"/>
<path d="M111.001 38.4714H96.1094V53.7745H111.001V38.4714Z" fill="white"/>
<path d="M103.385 40.6089C104.708 40.6089 105.781 39.5371 105.781 38.2151C105.781 36.893 104.708 35.8213 103.385 35.8213C102.061 35.8213 100.988 36.893 100.988 38.2151C100.988 39.5371 102.061 40.6089 103.385 40.6089Z" fill="#350089"/>
<path d="M103.299 56.1687C104.622 56.1687 105.695 55.0969 105.695 53.7749C105.695 52.4528 104.622 51.3811 103.299 51.3811C101.975 51.3811 100.902 52.4528 100.902 53.7749C100.902 55.0969 101.975 56.1687 103.299 56.1687Z" fill="#350089"/>
<path d="M103.555 48.3032C104.878 48.3032 105.951 47.2315 105.951 45.9094C105.951 44.5874 104.878 43.5156 103.555 43.5156C102.231 43.5156 101.158 44.5874 101.158 45.9094C101.158 47.2315 102.231 48.3032 103.555 48.3032Z" fill="#350089"/>
<path d="M73.1729 16.1587L30.9805 68.3944C32.2642 70.3607 33.7191 72.3271 35.3452 74.2934L77.1953 22.6561C75.5692 20.6898 74.1999 18.467 73.1729 16.1587Z" fill="#DBC5E8"/>
<path d="M81.5619 26.845L39.4551 78.8242C41.0812 80.5341 42.8784 82.1584 44.6756 83.7828L87.8951 30.4356C85.6699 29.5807 83.5303 28.2983 81.5619 26.845Z" fill="#DBC5E8"/>
<path d="M51.5199 7.95117C51.4343 9.66102 51.1776 11.3709 50.6641 13.0807L54.8576 7.95117H51.5199Z" fill="#DBC5E8"/>
<path d="M26.7873 31.8891C26.7017 31.8891 26.445 31.8891 26.2738 31.8891C25.7603 34.7103 25.418 37.617 25.418 40.5238V44.1999L38.4266 28.2129C34.8321 30.3502 30.8953 31.7181 26.7873 31.8891Z" fill="#DBC5E8"/>
<path d="M71.2033 7.95117H62.645L25.502 53.775C25.6731 56.5962 26.5289 59.5885 27.8127 62.5807L71.2033 8.97708C71.2033 8.63511 71.2033 8.29314 71.2033 7.95117Z" fill="#DBC5E8"/>
<path d="M62.1348 35.7356C60.6799 35.9066 59.5673 37.1035 59.6529 38.5569V49.7564H47.5001C47.4145 49.7564 47.3289 49.7564 47.2433 49.7564C45.7028 49.8419 44.5047 51.1242 44.5903 52.6631C44.6758 54.202 45.9596 55.3988 47.5001 55.3134H59.6529V66.6838C59.6529 68.2227 60.851 69.5051 62.3915 69.5051C63.932 69.5051 65.2158 68.3082 65.2158 66.7693V66.6838V55.3988H77.283C78.8235 55.3988 80.1072 54.202 80.1072 52.6631C80.1072 51.1242 78.909 49.8419 77.3685 49.8419H77.283H65.2158V38.5569C65.2158 37.018 64.0176 35.7356 62.4771 35.6501C62.3915 35.7356 62.2204 35.7356 62.1348 35.7356Z" fill="#EE5294"/>
</svg>
