<svg width="150" height="103" viewBox="0 0 150 103" fill="none" xmlns="http://www.w3.org/2000/svg">
<path d="M88.7828 79.1733L55.9486 46.418L30.8194 71.5538L28.0176 68.7512L54.8103 42.0389C55.5983 41.2507 56.8241 41.2507 57.6122 42.0389L91.5847 76.0204L88.7828 79.1733Z" fill="#350089"/>
<path d="M132.736 77.159L87.2057 32.7553L66.0167 54.0375L63.2148 51.2349L85.9799 28.4639C86.7679 27.6756 87.9937 27.6756 88.7818 28.4639L135.976 74.4439L132.736 77.159Z" fill="#350089"/>
<path d="M55.9498 54.8258L94.9131 93.5367H15.498" fill="#DBC5E8"/>
<path d="M111.55 30.3907C103.144 30.3907 96.3145 23.5593 96.3145 15.1515C96.3145 6.74375 103.144 0 111.55 0C119.955 0 126.785 6.83133 126.785 15.2391C126.785 23.6469 119.955 30.3907 111.55 30.3907ZM111.55 4.37906C105.508 4.37906 100.342 9.19602 100.342 15.5894C100.342 21.9829 105.158 26.7998 111.55 26.7998C117.941 26.7998 122.757 21.9829 122.757 15.5894C122.757 9.19602 117.591 4.37906 111.55 4.37906Z" fill="#350089"/>
<path d="M19.176 90.0334H8.40641C7.1806 90.0334 6.39258 89.2452 6.39258 88.0191V77.159C6.39258 75.9329 7.1806 75.1447 8.40641 75.1447H19.176C20.4018 75.1447 21.1899 75.9329 21.1899 77.159V87.9315C21.1899 89.1576 20.4018 90.0334 19.176 90.0334ZM10.4202 86.0047H17.2498V79.1734H10.4202V86.0047Z" fill="#350089"/>
<path d="M15.5863 88.019H11.5586V98.4412H15.5863V88.019Z" fill="#350089"/>
<path d="M35.2014 90.0334H24.4318C23.206 90.0334 22.418 89.2452 22.418 88.0191V70.4152C22.418 69.1891 23.206 68.4009 24.4318 68.4009H35.2014C36.4272 68.4009 37.2153 69.1891 37.2153 70.4152V88.0191C37.2153 89.1576 35.9895 90.0334 35.2014 90.0334ZM26.0078 86.0047H33.5378V72.4296H26.0078V86.0047Z" fill="#350089"/>
<path d="M31.6097 88.019H27.582V98.4412H31.6097V88.019Z" fill="#350089"/>
<path d="M147.187 98.3535H2.01562V102.382H147.187V98.3535Z" fill="#350089"/>
<path d="M138.78 91.9602H128.01C126.784 91.9602 125.996 91.1719 125.996 89.9458V75.5825C125.996 74.3563 126.784 73.5681 128.01 73.5681H138.78C140.005 73.5681 140.793 74.3563 140.793 75.5825V89.9458C140.793 91.1719 139.918 91.9602 138.78 91.9602ZM129.936 88.019H136.766V77.5968H129.936V88.019Z" fill="#350089"/>
<path d="M135.541 90.0334H131.514V100.456H135.541V90.0334Z" fill="#350089"/>
<path d="M122.758 91.9602H111.988C110.763 91.9602 109.975 91.172 109.975 89.9459V72.4296C109.975 71.2035 110.763 70.4153 111.988 70.4153H122.758C123.984 70.4153 124.772 71.2035 124.772 72.4296V90.0335C124.772 91.172 123.546 91.9602 122.758 91.9602ZM113.564 88.0191H121.094V74.3564H113.564V88.0191Z" fill="#350089"/>
<path d="M119.168 90.0334H115.141V100.456H119.168V90.0334Z" fill="#350089"/>
<path d="M39.5768 26.3619H19.1758V30.3907H39.5768V26.3619Z" fill="#EE5294"/>
<path d="M45.6193 19.1803H40.0156V23.209H45.6193V19.1803Z" fill="#EE5294"/>
<path d="M33.5358 72.4296H26.0059V86.0046H33.5358V72.4296Z" fill="white"/>
<path d="M19.174 30.3907C20.2862 30.3907 21.1878 29.4888 21.1878 28.3763C21.1878 27.2638 20.2862 26.3619 19.174 26.3619C18.0618 26.3619 17.1602 27.2638 17.1602 28.3763C17.1602 29.4888 18.0618 30.3907 19.174 30.3907Z" fill="#EE5294"/>
<path d="M39.5763 30.3907C40.6885 30.3907 41.5902 29.4888 41.5902 28.3763C41.5902 27.2638 40.6885 26.3619 39.5763 26.3619C38.4641 26.3619 37.5625 27.2638 37.5625 28.3763C37.5625 29.4888 38.4641 30.3907 39.5763 30.3907Z" fill="#EE5294"/>
<path d="M40.0138 23.209C41.126 23.209 42.0277 22.3072 42.0277 21.1947C42.0277 20.0822 41.126 19.1803 40.0138 19.1803C38.9016 19.1803 38 20.0822 38 21.1947C38 22.3072 38.9016 23.209 40.0138 23.209Z" fill="#EE5294"/>
<path d="M2.01383 102.382C3.12604 102.382 4.02767 101.481 4.02767 100.368C4.02767 99.2556 3.12604 98.3538 2.01383 98.3538C0.901624 98.3538 0 99.2556 0 100.368C0 101.481 0.901624 102.382 2.01383 102.382Z" fill="#350089"/>
<path d="M90.2713 79.7865C91.4319 79.7865 92.3727 78.8455 92.3727 77.6846C92.3727 76.5237 91.4319 75.5826 90.2713 75.5826C89.1107 75.5826 88.1699 76.5237 88.1699 77.6846C88.1699 78.8455 89.1107 79.7865 90.2713 79.7865Z" fill="#350089"/>
<path d="M147.186 102.382C148.298 102.382 149.2 101.481 149.2 100.368C149.2 99.2556 148.298 98.3538 147.186 98.3538C146.074 98.3538 145.172 99.2556 145.172 100.368C145.172 101.481 146.074 102.382 147.186 102.382Z" fill="#350089"/>
<path d="M39.5763 30.3907C40.6885 30.3907 41.5902 29.4888 41.5902 28.3763C41.5902 27.2638 40.6885 26.3619 39.5763 26.3619C38.4641 26.3619 37.5625 27.2638 37.5625 28.3763C37.5625 29.4888 38.4641 30.3907 39.5763 30.3907Z" fill="#EE5294"/>
<path d="M45.6193 23.209C46.7315 23.209 47.6331 22.3072 47.6331 21.1947C47.6331 20.0822 46.7315 19.1803 45.6193 19.1803C44.5071 19.1803 43.6055 20.0822 43.6055 21.1947C43.6055 22.3072 44.5071 23.209 45.6193 23.209Z" fill="#EE5294"/>
</svg>
