<svg width="127" height="135" viewBox="0 0 127 135" fill="none" xmlns="http://www.w3.org/2000/svg">
<path d="M56.5552 60.298H11.4853C5.78256 60.298 1.18359 55.6003 1.18359 49.9816C1.18359 44.2707 5.87454 39.573 11.4853 39.573H56.5552C62.2579 39.573 66.8569 44.2707 66.8569 49.8894C66.8569 55.6003 62.2579 60.298 56.5552 60.298Z" fill="#DBC5E8"/>
<path d="M64.1892 122.381C56.095 122.381 49.5645 115.841 49.5645 107.735H50.0244C50.0244 115.565 56.3709 121.92 64.1892 121.92C72.0074 121.92 78.354 115.565 78.354 107.735H78.8139C78.8139 115.841 72.2834 122.381 64.1892 122.381Z" fill="#DBC5E8"/>
<path d="M78.5378 107.735C78.5378 115.749 72.0992 122.197 64.097 122.197C56.0948 122.197 49.6562 115.749 49.6562 107.735" fill="#DBC5E8"/>
<path d="M86.4501 22.7515C85.8062 22.7515 85.1624 22.4753 84.7025 22.0147C84.2426 21.5542 83.9667 20.9094 84.0586 20.2646C84.0586 19.6198 84.3346 18.975 84.7945 18.5145L94.7282 8.56641C95.1881 8.10586 95.74 7.82959 96.3839 7.82959C97.1197 7.82959 97.7636 8.10586 98.2235 8.56641C98.6834 9.02697 98.9593 9.67177 98.9593 10.3165C98.9593 10.9613 98.6834 11.6061 98.2235 12.0667L88.2897 22.0147C87.7378 22.4753 87.094 22.7515 86.4501 22.7515Z" fill="#EE5294"/>
<path d="M96.3828 8.01367C95.8309 8.01367 95.2791 8.29007 94.8192 8.65852L84.8854 18.6064C83.9656 19.4354 83.9656 20.9092 84.7934 21.7382C85.6212 22.6594 87.0009 22.6593 87.9207 21.8303L88.0127 21.7382L97.9465 11.7902C98.8663 10.9612 98.8663 9.48752 98.0384 8.65852C97.6705 8.19796 97.0267 8.01367 96.3828 8.01367Z" fill="#EE5294"/>
<path d="M64.1898 20.4486C62.8101 20.4486 61.7063 19.3433 61.7983 17.9617V2.48695C61.7983 1.10529 62.9021 0 64.1898 0C64.9256 0 65.4775 0.276322 65.9374 0.736877C66.3973 1.19743 66.6732 1.84218 66.6732 2.48695V17.9617C66.6732 19.3433 65.5695 20.4486 64.1898 20.4486Z" fill="#EE5294"/>
<path d="M64.2817 0.184082C63.086 0.184082 62.0742 1.19733 62.0742 2.39477V17.8695C62.0742 19.0669 62.994 20.0801 64.2817 20.1723C65.4775 20.1723 66.4892 19.2511 66.4892 17.9616C66.4892 17.9616 66.4892 17.9616 66.4892 17.8695V2.39477C66.4892 1.19733 65.4775 0.184082 64.2817 0.184082Z" fill="#EE5294"/>
<path d="M49.8428 110.625C48.3711 110.625 47.3594 109.52 47.3594 108.138C47.3594 106.849 48.4631 105.743 49.8428 105.743H78.7244C79.4602 105.743 80.104 106.02 80.5639 106.48C81.0238 106.941 81.2998 107.586 81.2998 108.23C81.2998 109.612 80.196 110.625 78.8163 110.625H49.8428Z" fill="#350089"/>
<path d="M49.8405 105.928C48.6448 105.928 47.633 106.849 47.541 108.138C47.541 109.336 48.4608 110.349 49.7485 110.441H49.8405H78.63C79.8258 110.441 80.8376 109.52 80.9295 108.231C80.9295 107.033 80.0097 106.02 78.722 105.928H78.63H49.8405Z" fill="#350089"/>
<path d="M64.2822 29.1072C49.1976 29.1072 35.9526 39.5157 32.0894 54.4377C28.3183 68.8992 34.2969 83.9132 46.5302 91.9269V98.0984C46.5302 99.2958 47.542 100.309 48.7377 100.309H77.6192C77.6192 102.52 77.6192 104.822 77.6192 107.033C77.6192 114.402 71.6406 120.389 64.2822 120.389C56.9239 120.389 50.9452 114.494 50.9452 107.033C50.9452 106.112 50.9452 105.467 50.9452 104.73C50.9452 103.533 50.0254 102.52 48.7377 102.428C47.542 102.428 46.5302 103.349 46.4382 104.638C46.4382 105.375 46.4382 106.02 46.4382 106.941C46.5302 116.705 54.5324 124.626 64.2822 124.626C73.7561 124.626 81.2984 117.073 81.8503 107.678C81.8503 107.31 81.8503 107.125 81.8503 106.849C81.8503 101.967 81.9423 96.9009 81.9423 91.7427C94.1755 83.7291 100.154 68.715 96.383 54.2535C96.1071 53.0561 94.8194 52.3191 93.6237 52.6876C92.4279 52.9639 91.6921 54.2535 92.06 55.4509C95.4632 68.4386 89.9445 82.1632 78.631 88.8873C77.9872 89.2557 77.5273 89.9926 77.5273 90.8216C77.5273 92.4796 77.5273 94.1376 77.5273 95.7956H50.8532V90.8216C50.8532 89.9926 50.4853 89.3479 49.7495 88.8873C38.436 82.1632 32.8253 68.4386 36.2285 55.4509C39.6317 42.4633 51.0372 33.4364 64.0983 33.4364C70.6288 33.4364 76.6994 35.6471 81.6663 39.5158C82.5861 40.2527 84.0578 40.0684 84.7936 39.1473C85.5295 38.1341 85.3455 36.7524 84.4257 36.0155C78.907 31.6863 71.8245 29.1072 64.2822 29.1072Z" fill="#350089"/>
<path d="M42.0227 22.7515C41.3788 22.7515 40.735 22.4753 40.2751 22.0147L30.3413 12.0667C29.8814 11.6061 29.6055 10.9613 29.6055 10.3165C29.6055 8.93488 30.7092 7.82959 32.0889 7.82959C32.7328 7.82959 33.3766 8.10586 33.8365 8.56641L43.7703 18.5145C44.3222 19.0671 44.5061 19.7119 44.5061 20.3567C44.5061 21.0015 44.2302 21.6463 43.7703 22.1068C43.3104 22.4753 42.6665 22.7515 42.0227 22.7515Z" fill="#EE5294"/>
<path d="M32.0884 8.01367C30.8926 8.01367 29.8809 9.02692 29.8809 10.2244C29.8809 10.8691 30.1568 11.4218 30.5247 11.7902L40.4585 21.7382C41.2863 22.6594 42.758 22.6593 43.5858 21.8303C44.5056 21.0013 44.5056 19.5275 43.6778 18.6985C43.6778 18.6985 43.6778 18.6986 43.5858 18.6064L33.652 8.65852C33.1921 8.19796 32.6402 8.01367 32.0884 8.01367Z" fill="#EE5294"/>
<path d="M87.8281 45.5952C87.8281 46.7926 88.8399 47.8059 90.0356 47.8059C91.2314 47.8059 92.2431 46.7926 92.2431 45.5952C92.2431 44.3977 91.2314 43.3845 90.0356 43.3845C88.8399 43.2924 87.8281 44.3056 87.8281 45.5952Z" fill="#350089"/>
<path d="M96.0145 121.091C97.4862 120.447 99.1418 120.631 99.7856 121.736C100.705 122.841 100.521 124.315 99.3257 125.144C88.8401 131.776 76.4229 135 64.2816 135C51.8644 135 39.7231 131.776 29.2374 125.144C28.0417 124.315 27.7658 122.749 28.5016 121.736C29.4214 120.631 31.077 120.447 32.2728 121.091C41.8386 127.079 52.9681 130.118 64.1896 130.118C75.4111 130.118 86.7246 127.079 96.0145 121.091Z" fill="#350089"/>
<path d="M71.5474 96.6818V86.8259C71.5474 85.4443 71.0875 83.9705 70.2597 82.8652C69.6159 82.0362 68.6961 81.2072 68.2362 80.9308L67.8683 80.7466C67.0405 80.4703 66.8565 79.3649 67.5923 78.9044L67.8683 78.7202C70.9036 76.6016 71.3635 72.825 68.7881 69.6933C68.0522 68.7722 67.0405 68.1274 65.8447 67.851C65.2928 67.7589 64.8329 67.6668 64.373 67.6668V64.9956C68.972 64.9956 72.9271 68.9564 72.9271 73.5619C72.9271 75.6805 72.0993 77.7991 70.5357 79.4571C70.9956 79.7334 71.3635 80.1018 71.8234 80.4703C73.479 82.1283 74.3988 84.2468 74.3988 86.6417V97.2345C74.3988 98.3398 73.387 99.353 72.2833 99.353H64.465V96.6818H71.5474Z" fill="#350089" stroke="#350089" stroke-miterlimit="10"/>
<path d="M57.0154 96.6818V86.8259C57.0154 85.4443 57.4753 83.9705 58.3031 82.8652C58.947 82.0362 59.8668 81.2072 60.3267 80.9308L60.6946 80.7466C61.5224 80.4703 61.7064 79.3649 60.9705 78.9044L60.6946 78.7202C57.6593 76.6016 57.1994 72.825 59.7748 69.6933C60.5106 68.7722 61.5224 68.1274 62.7182 67.851C63.27 67.7589 63.7299 67.6668 64.1898 67.6668V64.9956C59.5908 64.9956 55.6357 68.9564 55.6357 73.5619C55.6357 75.6805 56.4635 77.7991 58.0272 79.4571C57.5673 79.7334 57.1994 80.1018 56.7395 80.4703C55.0839 82.1283 54.1641 84.2468 54.1641 86.6417V97.2345C54.1641 98.3398 55.1758 99.353 56.2796 99.353H64.0978V96.6818H57.0154Z" fill="#350089" stroke="#350089" stroke-miterlimit="10"/>
<path d="M18.3834 116.67V106.814C18.3834 105.433 17.9235 103.959 17.0957 102.853C16.4518 102.024 15.532 101.195 15.0721 100.919L14.7042 100.735C13.8764 100.459 13.6924 99.3532 14.4283 98.8927L14.7042 98.7084C17.7395 96.5899 18.1994 92.8133 15.624 89.6816C14.8882 88.7604 13.8764 88.1157 12.6807 87.8393C12.1288 87.7472 11.6689 87.6551 11.209 87.6551V84.9839C15.808 84.9839 19.7631 88.9447 19.7631 93.5502C19.7631 95.6688 18.9353 97.7873 17.3716 99.4453C17.8315 99.7217 18.1994 100.09 18.6593 100.459C20.3149 102.117 21.2347 104.235 21.2347 106.63V117.223C21.2347 118.328 20.223 119.341 19.1192 119.341H11.301V116.67H18.3834Z" fill="#350089" stroke="#350089" stroke-miterlimit="10"/>
<path d="M3.85136 116.67V106.814C3.85136 105.433 4.31126 103.959 5.13907 102.853C5.78293 102.024 6.70272 101.195 7.16262 100.919L7.53054 100.735C8.35835 100.459 8.54231 99.3532 7.80648 98.8927L7.53054 98.7084C4.49522 96.5899 4.03532 92.8133 6.61074 89.6816C7.34658 88.7604 8.35835 88.1157 9.55408 87.8393C10.106 87.7472 10.5659 87.6551 11.0258 87.6551V84.9839C6.42678 84.9839 2.47167 88.9447 2.47167 93.5502C2.47167 95.6688 3.29948 97.7873 4.86313 99.4453C4.40324 99.7217 4.03532 100.09 3.57542 100.459C1.91979 102.117 1 104.235 1 106.63V117.223C1 118.328 2.01177 119.341 3.11553 119.341H10.9338V116.67H3.85136Z" fill="#350089" stroke="#350089" stroke-miterlimit="10"/>
<path d="M123.149 116.67V106.814C123.149 105.433 122.689 103.959 121.861 102.853C121.217 102.024 120.298 101.195 119.838 100.919L119.47 100.735C118.642 100.459 118.458 99.3532 119.194 98.8927L119.47 98.7084C122.505 96.5899 122.965 92.8133 120.39 89.6816C119.654 88.7604 118.642 88.1157 117.446 87.8393C116.894 87.7472 116.435 87.6551 115.975 87.6551V84.9839C120.574 84.9839 124.529 88.9447 124.529 93.5502C124.529 95.6688 123.701 97.7873 122.137 99.4453C122.597 99.7217 122.965 100.09 123.425 100.459C125.081 102.117 126 104.235 126 106.63V117.223C126 118.328 124.989 119.341 123.885 119.341H116.067V116.67H123.149Z" fill="#350089" stroke="#350089" stroke-miterlimit="10"/>
<path d="M108.615 116.67V106.814C108.615 105.433 109.075 103.959 109.903 102.853C110.547 102.024 111.466 101.195 111.926 100.919L112.294 100.735C113.122 100.459 113.306 99.3532 112.57 98.8927L112.294 98.7084C109.259 96.5899 108.799 92.8133 111.374 89.6816C112.11 88.7604 113.122 88.1157 114.318 87.8393C114.87 87.7472 115.33 87.6551 115.789 87.6551V84.9839C111.19 84.9839 107.235 88.9447 107.235 93.5502C107.235 95.6688 108.063 97.7873 109.627 99.4453C109.167 99.7217 108.799 100.09 108.339 100.459C106.683 102.117 105.764 104.235 105.764 106.63V117.223C105.764 118.328 106.775 119.341 107.879 119.341H115.697V116.67H108.615Z" fill="#350089" stroke="#350089" stroke-miterlimit="10"/>
</svg>
