<svg width="91" height="111" viewBox="0 0 91 111" fill="none" xmlns="http://www.w3.org/2000/svg">
<path d="M81.4701 52.2689H55.791V101.958H81.4701V52.2689Z" fill="#DBC5E8"/>
<path d="M68.7179 13.2027C69.7865 13.2027 70.6527 12.2987 70.6527 11.1836C70.6527 10.0684 69.7865 9.16443 68.7179 9.16443C67.6494 9.16443 66.7832 10.0684 66.7832 11.1836C66.7832 12.2987 67.6494 13.2027 68.7179 13.2027Z" fill="#EE5294"/>
<path d="M31.7824 13.2027C32.8509 13.2027 33.7171 12.2987 33.7171 11.1836C33.7171 10.0684 32.8509 9.16443 31.7824 9.16443C30.7139 9.16443 29.8477 10.0684 29.8477 11.1836C29.8477 12.2987 30.7139 13.2027 31.7824 13.2027Z" fill="#EE5294"/>
<path d="M42.0714 82.9073C43.14 82.9073 44.0062 82.0033 44.0062 80.8882C44.0062 79.773 43.14 78.869 42.0714 78.869C41.0029 78.869 40.1367 79.773 40.1367 80.8882C40.1367 82.0033 41.0029 82.9073 42.0714 82.9073Z" fill="#350089"/>
<path d="M19.2941 69.4757C20.3626 69.4757 21.2288 68.5717 21.2288 67.4565C21.2288 66.3414 20.3626 65.4374 19.2941 65.4374C18.2256 65.4374 17.3594 66.3414 17.3594 67.4565C17.3594 68.5717 18.2256 69.4757 19.2941 69.4757Z" fill="#350089"/>
<path d="M56.8457 31.6385H84.8113C85.8666 35.2378 86.3942 39.0128 86.4822 42.7877H89.736C89.736 38.2227 89.0325 33.7454 87.6254 29.4438C87.3616 28.7414 86.746 28.3025 86.0425 28.3025H56.8457V31.6385Z" fill="#350089" stroke="#350089" stroke-width="0.75" stroke-miterlimit="10"/>
<path d="M43.6545 81.1517H40.4007V86.2435H27.2973C14.3698 86.2435 14.194 69.9146 14.194 69.2123H19.1187V65.7885H5.92741C5.13593 65.8763 4.34445 65.2618 4.25651 64.3839L13.9301 42.6122C14.0181 42.3488 14.106 42.1732 14.106 41.9099C14.106 38.4861 14.5457 34.9745 15.5131 31.6385H43.7425V28.2147H14.2819C13.5784 28.2147 12.8748 28.6537 12.611 29.4438C11.4678 33.3943 10.8522 37.4326 10.8522 41.5587L1.17854 63.4182C1.09059 63.6816 1.00265 63.8572 1.00265 64.1206C0.91471 66.842 3.02532 69.1245 5.66358 69.2123C5.75152 69.2123 5.83946 69.2123 5.92741 69.2123H10.8522C10.8522 76.3233 14.2819 89.6672 27.2973 89.6672H40.4007V108.718H43.6545V81.1517Z" fill="#350089" stroke="#350089" stroke-width="0.75" stroke-miterlimit="10"/>
<path d="M60.0995 62.1891V106.786V110.21H88.0651C88.9445 110.21 89.736 109.42 89.736 108.542V61.9258H86.4821V106.698H63.4413V62.1891H60.0995ZM51.745 59.1165L51.8329 18.8212C53.6797 20.4892 55.9662 21.4549 58.4286 21.4549H74.522C79.9744 21.4549 84.6353 17.0654 84.7233 11.4469C84.8112 5.74062 80.4141 1 74.8737 1H58.5165C55.1747 1 52.0968 2.75579 50.3379 5.56504C48.4911 2.668 45.4132 1 42.1593 1H25.978C20.5256 1 15.8646 5.38947 15.7767 11.008C15.6887 16.7143 20.0858 21.4549 25.6262 21.4549H42.0714C44.5337 21.4549 46.6443 20.4892 48.667 18.8212V59.1165H51.745ZM52.0968 9.51556C52.8003 6.53073 55.4385 4.42378 58.4286 4.42378H74.8737C78.4794 4.42378 81.4694 7.49641 81.4694 11.2713C81.4694 15.0463 78.5673 18.1189 74.8737 18.1189H58.5165C55.5265 18.1189 52.8882 16.012 52.1847 13.0271H68.366V9.60335H52.0968V9.51556ZM48.4032 12.9393C47.6996 15.9242 45.0614 18.0311 42.0714 18.0311H25.6262C22.0206 18.0311 19.0305 14.9585 19.0305 11.1836C19.0305 7.40862 21.9326 4.33599 25.6262 4.33599H42.0714C45.0614 4.33599 47.6996 6.44294 48.4032 9.42777H32.2219V12.9393H48.4032Z" fill="#350089" stroke="#350089" stroke-width="0.75" stroke-miterlimit="10"/>
<path d="M42.0714 111C43.14 111 44.0062 110.096 44.0062 108.981C44.0062 107.866 43.14 106.962 42.0714 106.962C41.0029 106.962 40.1367 107.866 40.1367 108.981C40.1367 110.096 41.0029 111 42.0714 111Z" fill="#350089"/>
<path d="M68.7189 9.16443H31.7832V13.2027H68.7189V9.16443Z" fill="#EE5294"/>
<path d="M88.0656 45.1579C89.1341 45.1579 90.0003 44.2539 90.0003 43.1388C90.0003 42.0236 89.1341 41.1196 88.0656 41.1196C86.9971 41.1196 86.1309 42.0236 86.1309 43.1388C86.1309 44.2539 86.9971 45.1579 88.0656 45.1579Z" fill="#350089"/>
<path d="M88.0656 63.6816C89.1341 63.6816 90.0003 62.7776 90.0003 61.6625C90.0003 60.5473 89.1341 59.6433 88.0656 59.6433C86.9971 59.6433 86.1309 60.5473 86.1309 61.6625C86.1309 62.7776 86.9971 63.6816 88.0656 63.6816Z" fill="#350089"/>
<path d="M88.0656 54.2881C89.1341 54.2881 90.0003 53.3841 90.0003 52.2689C90.0003 51.1538 89.1341 50.2498 88.0656 50.2498C86.9971 50.2498 86.1309 51.1538 86.1309 52.2689C86.1309 53.3841 86.9971 54.2881 88.0656 54.2881Z" fill="#350089"/>
<path d="M56.4933 31.9896C57.5618 31.9896 58.428 31.0856 58.428 29.9704C58.428 28.8553 57.5618 27.9513 56.4933 27.9513C55.4248 27.9513 54.5586 28.8553 54.5586 29.9704C54.5586 31.0856 55.4248 31.9896 56.4933 31.9896Z" fill="#350089"/>
<path d="M44.007 31.9896C45.0755 31.9896 45.9417 31.0856 45.9417 29.9704C45.9417 28.8553 45.0755 27.9513 44.007 27.9513C42.9385 27.9513 42.0723 28.8553 42.0723 29.9704C42.0723 31.0856 42.9385 31.9896 44.007 31.9896Z" fill="#350089"/>
<path d="M50.1632 61.2235C51.2318 61.2235 52.098 60.3195 52.098 59.2043C52.098 58.0892 51.2318 57.1852 50.1632 57.1852C49.0947 57.1852 48.2285 58.0892 48.2285 59.2043C48.2285 60.3195 49.0947 61.2235 50.1632 61.2235Z" fill="#350089"/>
<path d="M61.7707 64.2084C62.8392 64.2084 63.7054 63.3043 63.7054 62.1892C63.7054 61.074 62.8392 60.17 61.7707 60.17C60.7021 60.17 59.8359 61.074 59.8359 62.1892C59.8359 63.3043 60.7021 64.2084 61.7707 64.2084Z" fill="#350089"/>
</svg>
