<svg width="95" height="112" viewBox="0 0 95 112" fill="none" xmlns="http://www.w3.org/2000/svg">
<path d="M33.5982 22.3771C32.7227 21.5013 31.4093 21.5013 30.5337 22.3771L11.5336 41.3822C10.6581 42.258 10.6581 43.5717 11.5336 44.4475C11.9714 44.8854 12.4968 45.0606 13.0221 45.0606C13.5475 45.0606 14.1604 44.8854 14.5106 44.4475L33.5982 25.4424C34.4738 24.5666 34.4738 23.1653 33.5982 22.3771Z" fill="#EE5294"/>
<path d="M2.07734 40.769C2.51513 41.2069 3.04048 41.3821 3.56583 41.3821C4.09118 41.3821 4.70408 41.2069 5.05432 40.769L37.7134 8.2764C38.589 7.40059 38.589 6.08687 37.7134 5.21106C36.8379 4.33525 35.5245 4.33525 34.6489 5.21106L2.07734 37.7037C1.28932 38.5795 1.28932 39.9808 2.07734 40.769Z" fill="#EE5294"/>
<path d="M36.5763 19.487C37.0141 19.9249 37.5394 20.1001 38.0647 20.1001C38.5901 20.1001 39.203 19.9249 39.5532 19.487L47.1708 11.8675C48.0464 10.9917 48.0464 9.67793 47.1708 8.80212C46.2952 7.92631 44.9818 7.92631 44.1062 8.80212L36.4887 16.4217C35.7007 17.2975 35.7007 18.6988 36.5763 19.487Z" fill="#EE5294"/>
<path d="M26.9437 4.94833C27.469 4.94833 28.0819 4.77317 28.4321 4.33527L29.0451 3.7222C29.9206 2.84639 29.9206 1.53267 29.0451 0.656858C28.1695 -0.218953 26.8561 -0.218953 25.9805 0.656858L25.3676 1.26993C24.492 2.14574 24.492 3.45945 25.3676 4.33527C25.8054 4.77317 26.3308 4.94833 26.9437 4.94833Z" fill="#EE5294"/>
<path d="M48.9201 17.2972L45.2426 20.9756C44.367 21.8515 44.367 23.1652 45.2426 24.041C45.6804 24.4789 46.2058 24.6541 46.7311 24.6541C47.2565 24.6541 47.8694 24.4789 48.3072 24.041L51.9846 20.3626C52.8602 19.4868 52.8602 18.1731 51.9846 17.2972C51.109 16.4214 49.7081 16.4214 48.9201 17.2972Z" fill="#EE5294"/>
<path d="M54.5255 1.53284C53.6499 0.657024 52.3365 0.657024 51.461 1.53284L50.3227 2.67139C49.4471 3.5472 49.4471 4.86092 50.3227 5.73673C50.7605 6.17463 51.2858 6.3498 51.8112 6.3498C52.3365 6.3498 52.9494 6.17463 53.2997 5.73673L54.4379 4.59817C55.3135 3.80994 55.3135 2.40865 54.5255 1.53284Z" fill="#EE5294"/>
<path d="M14.8597 17.0347C15.385 17.0347 15.9979 16.8595 16.3482 16.4216L21.9519 10.8164C22.8275 9.94062 22.8275 8.62691 21.9519 7.7511C21.0763 6.87529 19.7629 6.87529 18.8873 7.7511L13.2836 13.3563C12.4081 14.2321 12.4081 15.5458 13.2836 16.4216C13.809 16.772 14.3343 17.0347 14.8597 17.0347Z" fill="#EE5294"/>
<path d="M47.5173 91.2159C62.3146 91.2159 74.3101 79.2172 74.3101 64.416C74.3101 49.6149 62.3146 37.6162 47.5173 37.6162C32.7201 37.6162 20.7246 49.6149 20.7246 64.416C20.7246 79.2172 32.7201 91.2159 47.5173 91.2159Z" fill="#DBC5E8"/>
<path d="M47.5188 104.09C36.7492 104.09 26.5925 99.8862 18.975 92.2667L21.1639 90.0772C28.1685 97.0836 37.5372 101.025 47.5188 101.025C68.095 101.025 84.8185 84.2968 84.8185 63.7152C84.8185 43.1337 68.095 26.4933 47.5188 26.4933C26.9427 26.4933 10.3067 43.2212 10.3067 63.7152C10.3067 69.9335 11.8828 76.1518 14.8597 81.5818L12.1454 83.0707C8.90579 77.2027 7.24219 70.459 7.24219 63.7152C7.24219 41.4696 25.3667 23.3403 47.6064 23.3403C69.8461 23.3403 87.9706 41.4696 87.9706 63.7152C87.9706 85.9608 69.8461 104.09 47.5188 104.09Z" fill="#350089" stroke="#350089" stroke-width="1.5" stroke-miterlimit="10"/>
<path d="M11.6201 110.308C7.41734 110.308 4.87815 108.732 3.47723 106.98C-1.2509 101.375 0.850488 89.6391 9.25605 74.8379L11.9704 76.4143C4.44037 89.6391 2.0763 100.587 5.84129 104.966C8.99338 108.644 15.7353 106.98 19.4128 105.579L20.4635 108.469C16.8736 109.87 13.9842 110.308 11.6201 110.308Z" fill="#350089" stroke="#350089" stroke-width="1.5" stroke-miterlimit="10"/>
<path d="M27.1184 102.076C36.3995 96.9084 46.7314 88.5882 56.4503 78.2537C59.5148 74.9256 62.4918 71.5099 65.2937 68.0942L67.7453 70.021C64.9434 73.5243 61.8789 77.0275 58.7268 80.3556C48.7452 90.9529 38.0631 99.6234 28.4318 104.878C27.7313 105.229 26.3304 102.514 27.1184 102.076Z" fill="#350089" stroke="#350089" stroke-width="1.5" stroke-miterlimit="10"/>
<path d="M73.4361 62.4015L70.8969 60.6499C82.8924 43.3964 87.7956 28.0697 83.0675 22.4645C79.4776 18.2606 70.0214 20.1874 58.2886 27.4567L56.625 24.8292C70.1965 16.4214 80.7034 14.845 85.4316 20.4502C91.2979 27.3691 86.6574 43.3964 73.4361 62.4015Z" fill="#350089" stroke="#350089" stroke-width="1.5" stroke-miterlimit="10"/>
<path d="M19.5865 68.6197C5.48971 59.5988 -1.1647 50.6656 1.63715 44.6225C3.38831 40.8565 8.46668 38.9297 16.522 38.9297V41.995C10.0427 41.995 5.66482 43.3963 4.43901 45.9362C2.42518 50.2277 9.16714 58.2851 21.2501 66.0798L19.5865 68.6197Z" fill="#350089" stroke="#350089" stroke-width="1.5" stroke-miterlimit="10"/>
<path d="M75.9765 88.5008C66.17 87.9753 53.3866 84.7348 40.3404 79.3048C35.9625 77.4656 31.6722 75.4512 27.6445 73.3493L29.133 70.6343C33.0731 72.7362 37.1883 74.663 41.4787 76.5022C55.488 82.2826 69.4972 85.6107 79.2162 85.5231C81.3176 85.4355 76.9397 88.5884 75.9765 88.5008Z" fill="#350089" stroke="#350089" stroke-width="1.5" stroke-miterlimit="10"/>
<path d="M91.8237 85.1726L89.7223 82.8955C90.1601 82.5452 90.5103 82.1073 90.6854 81.5818C91.9112 78.9543 89.8098 74.7505 84.9941 70.0211L87.1831 67.8315C94.8006 75.2759 94.8882 80.0929 93.5748 82.8955C93.137 83.7713 92.5241 84.472 91.8237 85.1726Z" fill="#350089" stroke="#350089" stroke-width="1.5" stroke-miterlimit="10"/>
<path d="M86.4807 101.55L84.3793 103.652C83.5038 104.528 83.5038 105.842 84.3793 106.718C84.8171 107.156 85.3425 107.331 85.8678 107.331C86.3932 107.331 87.0061 107.156 87.3563 106.718L89.4577 104.616C90.3333 103.74 90.3333 102.426 89.4577 101.55C88.5821 100.675 87.2688 100.675 86.4807 101.55Z" fill="#EE5294"/>
<path d="M81.4911 93.4051L74.9243 99.9737C74.0487 100.85 74.0487 102.163 74.9243 103.039C75.3621 103.477 75.8874 103.652 76.4128 103.652C76.9381 103.652 77.551 103.477 77.9012 103.039L84.4681 96.4705C85.3437 95.5947 85.3437 94.281 84.4681 93.4051C83.7676 92.5293 82.3667 92.5293 81.4911 93.4051Z" fill="#EE5294"/>
<path d="M13.8081 85.2604C15.017 85.2604 15.997 84.2801 15.997 83.0709C15.997 81.8616 15.017 80.8813 13.8081 80.8813C12.5992 80.8813 11.6191 81.8616 11.6191 83.0709C11.6191 84.2801 12.5992 85.2604 13.8081 85.2604Z" fill="#350089"/>
<path d="M19.4995 92.7921C20.7084 92.7921 21.6884 91.8119 21.6884 90.6026C21.6884 89.3934 20.7084 88.4131 19.4995 88.4131C18.2906 88.4131 17.3105 89.3934 17.3105 90.6026C17.3105 91.8119 18.2906 92.7921 19.4995 92.7921Z" fill="#350089"/>
<path d="M90.0698 86.8366C91.2787 86.8366 92.2588 85.8563 92.2588 84.647C92.2588 83.4378 91.2787 82.4575 90.0698 82.4575C88.8609 82.4575 87.8809 83.4378 87.8809 84.647C87.8809 85.8563 88.8609 86.8366 90.0698 86.8366Z" fill="#350089"/>
<path d="M20.3745 109.082C21.5834 109.082 22.5634 108.102 22.5634 106.893C22.5634 105.684 21.5834 104.703 20.3745 104.703C19.1656 104.703 18.1855 105.684 18.1855 106.893C18.1855 108.102 19.1656 109.082 20.3745 109.082Z" fill="#350089"/>
<path d="M27.5561 105.842C28.7651 105.842 29.7451 104.862 29.7451 103.652C29.7451 102.443 28.7651 101.463 27.5561 101.463C26.3472 101.463 25.3672 102.443 25.3672 103.652C25.3672 104.862 26.3472 105.842 27.5561 105.842Z" fill="#350089"/>
<path d="M21.0757 69.9337C22.2846 69.9337 23.2646 68.9535 23.2646 67.7442C23.2646 66.535 22.2846 65.5547 21.0757 65.5547C19.8667 65.5547 18.8867 66.535 18.8867 67.7442C18.8867 68.9535 19.8667 69.9337 21.0757 69.9337Z" fill="#350089"/>
<path d="M27.73 73.7873C28.9389 73.7873 29.9189 72.807 29.9189 71.5977C29.9189 70.3885 28.9389 69.4082 27.73 69.4082C26.521 69.4082 25.541 70.3885 25.541 71.5977C25.541 72.807 26.521 73.7873 27.73 73.7873Z" fill="#350089"/>
<path d="M71.8589 64.1532C73.0678 64.1532 74.0478 63.1729 74.0478 61.9637C74.0478 60.7545 73.0678 59.7742 71.8589 59.7742C70.6499 59.7742 69.6699 60.7545 69.6699 61.9637C69.6699 63.1729 70.6499 64.1532 71.8589 64.1532Z" fill="#350089"/>
<path d="M66.8686 70.7218C68.0776 70.7218 69.0576 69.7415 69.0576 68.5323C69.0576 67.3231 68.0776 66.3428 66.8686 66.3428C65.6597 66.3428 64.6797 67.3231 64.6797 68.5323C64.6797 69.7415 65.6597 70.7218 66.8686 70.7218Z" fill="#350089"/>
</svg>
