<svg width="143" height="104" viewBox="0 0 143 104" fill="none" xmlns="http://www.w3.org/2000/svg">
<path d="M74.7778 2.29492H56.1992L63.871 11.0151L69.1395 20.745L68.0304 29.6488L70.9881 33.3205L69.1395 41.6735L65.165 44.2437L58.6024 54.7998V60.4908H74.8702C91.0456 60.4908 104.171 47.4564 104.171 31.3929C104.078 15.3293 90.9532 2.29492 74.7778 2.29492Z" fill="#DBC5E8"/>
<path d="M87.8096 104C88.8305 104 89.6582 103.178 89.6582 102.164C89.6582 101.15 88.8305 100.328 87.8096 100.328C86.7886 100.328 85.9609 101.15 85.9609 102.164C85.9609 103.178 86.7886 104 87.8096 104Z" fill="#350089"/>
<path d="M95.0185 104C96.0395 104 96.8672 103.178 96.8672 102.164C96.8672 101.15 96.0395 100.328 95.0185 100.328C93.9976 100.328 93.1699 101.15 93.1699 102.164C93.1699 103.178 93.9976 104 95.0185 104Z" fill="#350089"/>
<path d="M68.9531 80.6846L123.302 80.8682C125.428 80.8682 127.184 82.6122 127.184 84.7234V95.6466" stroke="#350089" stroke-width="3.7" stroke-miterlimit="10" stroke-linecap="round"/>
<path d="M79.5829 100.237H70.7095H67.2896H52.1309H51.4839H49.9126H40.2074H38.636H4.25181V80.8685C4.25181 75.82 8.22634 71.414 13.7722 70.4042C13.8646 70.4042 13.957 70.4042 14.0495 70.3125L32.1659 64.8967L42.5181 71.3222L46.2154 73.617L49.9126 71.3222L59.6178 64.8967C59.6178 64.8967 69.1382 67.5587 73.5749 68.8438C75.0538 67.7423 76.7175 66.9162 78.5661 66.4572L61.2816 61.5005V55.1668C63.5924 53.2392 65.3485 50.7608 66.1804 47.9153C66.6426 46.263 67.0123 45.0697 67.1971 44.3354C69.6928 44.2436 71.7263 42.6832 72.096 40.572L73.2976 34.0547C73.5749 32.5861 73.1127 31.1174 72.0035 30.0159C71.3565 29.3734 70.6171 28.9144 69.6928 28.5473V24.7838C70.7095 24.6002 71.449 23.8659 71.449 22.948C71.3565 16.7061 68.2139 11.015 62.8529 7.068V6.60904C62.8529 6.05829 62.5756 5.50754 62.021 5.14037C57.8616 2.29483 52.5931 0.734375 47.3245 0.734375H45.0138C40.4847 0.734375 36.3253 2.662 32.6281 4.95679H32.5356C31.7962 4.68142 30.9643 4.68142 30.3173 5.14037C24.8639 8.81204 20.9818 15.9718 20.8893 22.948C20.8893 23.4069 21.0742 23.9577 21.5364 24.3248C21.8137 24.6002 22.2758 24.7838 22.6455 24.8756V28.639C21.7212 28.9144 20.9818 29.4652 20.3348 30.1077C19.2256 31.2092 18.7634 32.6779 19.0407 34.1465L20.2423 40.6637C20.6121 42.775 22.6455 44.3354 25.1412 44.4272C25.326 45.1615 25.6957 46.263 26.1579 48.0071C26.9898 50.7608 28.746 53.2392 31.0567 55.2586V61.5005L12.8479 66.8244C5.36098 68.2012 0 74.0759 0 80.8685V102.072C0 103.082 0.924307 103.908 2.12591 103.908H50.005H79.5829C80.7845 103.908 81.7088 103.082 81.7088 102.072C81.7088 101.063 80.692 100.237 79.5829 100.237ZM30.1324 46.9974C28.9308 43.0503 28.746 42.316 28.746 42.2242C28.5611 41.3063 27.7292 40.6637 26.6201 40.6637H25.0487C24.5866 40.6637 24.3093 40.3884 24.2169 40.113L23.0153 33.6876C22.9228 33.1368 23.2001 32.8615 23.385 32.6779C23.5698 32.4943 23.9396 32.2189 24.5866 32.2189C25.7882 32.2189 26.7125 31.3928 26.7125 30.3831V23.2233C26.7125 22.3054 26.0655 21.5711 25.1412 21.3875C25.6957 17.0733 27.8217 12.8509 30.7794 9.91354C31.4265 10.0971 32.1659 10.0053 32.7205 9.63817C36.5101 7.15979 40.762 4.58962 44.9213 4.58962H47.2321C51.2066 4.58962 55.1812 5.69112 58.5087 7.71054V8.07771C58.5087 8.62846 58.7859 9.17921 59.3405 9.54637C63.6848 12.4837 66.3653 16.7979 67.0123 21.4793C66.088 21.6629 65.441 22.3972 65.441 23.3151V30.2913C65.441 31.301 66.3653 32.1271 67.5669 32.1271C68.2139 32.1271 68.5836 32.4025 68.7685 32.5861C68.9533 32.7697 69.2306 33.1368 69.1382 33.5958L67.9366 40.113C67.8442 40.4802 67.5669 40.6637 67.1047 40.6637H65.6258C64.6091 40.6637 63.7772 41.3063 63.4999 42.2242C63.4999 42.316 63.3151 43.0503 62.1135 46.9974C61.1891 50.1183 58.7859 52.7803 55.5509 54.2489C54.5341 54.7079 54.1644 55.9012 54.719 56.8191C55.1812 57.5534 56.1979 57.9206 57.1222 57.737V61.8676L46.2154 68.5684L35.3085 61.8676V57.8288L37.989 59.1139C40.4847 60.3072 43.35 60.9497 46.2154 60.9497C47.0472 60.9497 47.9716 60.8579 48.8034 60.7661C50.005 60.5825 50.7445 59.6646 50.5596 58.6549C50.3748 57.6452 49.2656 56.9109 48.1564 57.0945C45.3835 57.4616 42.4257 57.0027 39.9301 55.8094L36.7874 54.3407C33.4599 52.7803 31.0567 50.1183 30.1324 46.9974Z" fill="#350089"/>
<path d="M140.312 101.522C139.295 101.522 138.556 100.695 138.556 99.7775V81.2356C138.556 75.361 134.119 70.3124 128.203 69.5781L115.448 67.9258C113.045 67.4669 111.289 65.3557 111.289 62.8773V59.6646C109.163 60.4907 106.852 60.8579 104.541 60.8579C102.23 60.8579 99.9196 60.3989 97.7012 59.6646L94.2813 58.0123C93.4494 57.5534 92.71 57.0026 91.9705 56.4519L90.9538 61.225C90.8614 61.9594 90.3068 62.5101 89.5673 62.6019H89.1976C88.643 62.6019 88.0884 62.3265 87.7187 61.8676C81.6183 53.7899 77.9211 44.06 77.3665 33.8711C76.627 23.4987 79.3075 14.6867 85.0382 8.62842C90.1219 3.21271 97.3315 0.0917917 104.726 0H107.591C112.583 0 117.297 1.92763 120.901 5.32392C126.54 7.7105 130.237 13.218 130.144 19.2762V29.3733C131.254 30.5666 131.808 32.1271 131.808 33.7793C131.808 35.4316 131.161 37.0838 130.052 38.2771C129.867 42.0406 128.85 51.7705 123.582 59.022C123.12 59.5728 122.473 59.94 121.733 59.94C121.271 59.94 120.901 59.8482 120.532 59.5728C119.7 58.9303 119.7 58.0123 120.162 57.3698C120.254 57.278 120.347 57.0944 120.439 56.9108L120.624 56.6355C123.674 52.1377 125.8 45.9876 126.262 40.2965C125.8 40.3883 125.338 40.4801 124.876 40.4801H124.136L124.044 42.2242C123.859 46.1712 121.733 50.7608 119.885 53.331C117.851 56.0847 115.633 57.3698 114.801 57.9205V62.7855C114.801 63.6116 115.448 64.2542 116.187 64.346L128.481 65.9064C136.152 66.8243 141.976 73.3415 141.976 81.052V99.5022C142.16 100.695 141.329 101.522 140.312 101.522ZM88.643 42.1324C88.9203 47.9153 92.2478 53.0556 97.5164 55.7175L97.8861 55.9011C100.012 56.9108 102.323 57.3698 104.634 57.3698C106.944 57.3698 109.255 56.819 111.381 55.9011L111.751 55.7175C116.927 53.1474 120.347 48.007 120.624 42.316L121.456 29.1897C118.591 25.0591 116.465 20.3778 115.263 15.5128C109.07 20.6531 98.5331 27.4457 95.3905 29.098C92.3403 30.6584 91.3235 31.2092 91.3235 31.2092C91.3235 31.2092 89.1976 32.2189 87.996 32.7696L88.643 42.1324ZM81.8032 40.2965C83.0048 45.9876 85.2231 51.4951 88.4582 56.4519L89.1052 53.331C86.702 50.21 85.3155 46.4466 85.1307 42.4995L84.9458 40.7555H84.2064C83.3745 40.6637 82.5426 40.5719 81.8032 40.2965ZM125.061 37.1756C126.909 37.1756 128.388 35.707 128.388 33.8711C128.388 32.0353 126.909 30.5666 125.061 30.5666H124.968L124.599 37.1756H125.061ZM81.1561 35.0644C81.6183 36.2577 82.9123 37.0838 84.2064 37.0838H84.6685L84.3912 33.9629C83.282 34.4219 82.2653 34.789 81.1561 35.0644ZM104.726 3.57987C98.2558 3.67167 92.063 6.33362 87.7187 11.015C83.0048 15.9718 80.6016 23.0397 80.8788 31.4845C96.8694 26.3442 112.398 13.218 115.356 10.6478L115.448 10.556C115.818 10.2807 116.187 10.0971 116.65 10.0971C117.666 10.0971 118.406 10.9232 118.406 11.8411C118.406 11.9329 118.591 18.083 124.414 26.9867H125.061C125.615 26.9867 126.17 27.0785 126.632 27.1703V19.2762C126.632 14.5031 123.767 10.2807 119.238 8.44483C119.053 8.35304 118.775 8.26125 118.591 8.07767C115.725 5.14033 111.751 3.48808 107.591 3.48808H104.726V3.57987Z" fill="#350089"/>
<path d="M128.664 66.1818L116.371 64.6213C115.539 64.5296 114.892 63.7952 114.892 62.9691V58.0123C115.724 57.5534 118.035 56.1765 119.976 53.5145C121.825 50.9444 123.951 46.3548 124.135 42.4995L124.228 40.6637H125.06C125.522 40.6637 126.076 40.5719 126.539 40.4801C126.076 45.8958 124.135 52.1377 120.9 56.9108C120.715 57.1862 120.623 57.3698 120.438 57.6452C119.976 58.2877 120.068 59.1138 120.808 59.6646C121.732 60.3071 123.026 60.0318 123.673 59.1138C129.127 51.5869 129.958 41.5816 130.143 38.3689C131.253 37.1756 131.807 35.5234 131.807 33.8711C131.807 32.2189 131.16 30.6584 130.143 29.4651V19.2763C130.143 13.218 126.539 7.71051 120.9 5.41571C117.388 2.01942 112.582 0.0917969 107.683 0.0917969H104.817C97.3304 0.183589 90.3057 3.3045 85.222 8.62842C79.4913 14.7785 76.9033 23.4069 77.5503 33.7793C78.1049 43.9682 81.8021 53.6981 88.0874 61.7758C88.3647 62.2348 88.9193 62.4183 89.4738 62.4183H89.8436C90.4906 62.2348 91.0452 61.7758 91.1376 61.0415L92.1543 56.0847C92.8938 56.7273 93.7257 57.278 94.5575 57.737L97.885 59.3892C102.229 61.0415 107.128 61.0415 111.472 59.3892V62.7855C111.472 65.1721 113.136 67.2833 115.539 67.7423L118.959 68.2012L122.656 68.6602L124.135 68.8438L128.202 69.3945C134.118 70.1288 138.647 75.1774 138.647 81.1438V99.594C138.647 100.512 139.386 101.246 140.311 101.246C141.235 101.246 141.975 100.512 141.975 99.594V81.2356C142.067 73.5251 136.336 67.0997 128.664 66.1818ZM128.48 33.8711C128.48 35.707 127.001 37.2674 125.06 37.2674H124.413L124.782 30.4748H124.967C126.908 30.4748 128.48 32.0353 128.48 33.8711ZM87.6252 10.9232C92.0619 6.24184 98.2548 3.48809 104.725 3.3963H107.59C111.75 3.3963 115.724 5.04855 118.682 7.98588C118.867 8.16946 119.052 8.26126 119.237 8.35305C123.766 10.0971 126.631 14.4113 126.631 19.2763V27.3539C126.076 27.1703 125.522 27.1703 124.967 27.0785H124.228C118.312 17.9912 118.22 11.8411 118.22 11.8411C118.22 10.9232 117.48 10.1889 116.556 10.1889C116.094 10.1889 115.724 10.3725 115.447 10.6478C115.262 10.8314 98.1623 26.0688 80.7853 31.5763C80.5081 23.1315 82.8188 15.9718 87.6252 10.9232ZM84.4826 33.8711L84.7599 37.1756H84.2053C82.8188 37.1756 81.5248 36.2577 81.0626 34.9726C82.1718 34.6973 83.3734 34.3301 84.4826 33.8711ZM88.4571 56.6355C85.222 51.5869 82.9113 45.9876 81.7097 40.113C82.5415 40.4801 83.3734 40.5719 84.2977 40.6637H85.0372L85.222 42.4078C85.4069 46.3548 86.7933 50.1183 89.1965 53.2392L88.4571 56.6355ZM111.842 55.8093L111.472 55.9929C107.128 58.0123 102.137 58.0123 97.885 55.9929L97.5153 55.8093C92.2468 53.2392 88.9193 48.007 88.642 42.2242L87.8101 32.586C89.0117 32.1271 91.23 31.0256 91.23 31.0256C91.23 31.0256 92.2468 30.4748 95.297 28.9144C98.3472 27.3539 109.069 20.4695 115.262 15.3292C116.464 20.286 118.59 24.9673 121.455 29.1898L120.623 42.316C120.438 48.0988 117.018 53.2392 111.842 55.8093Z" fill="#350089"/>
<path d="M94.4656 62.8774C94.4656 63.7035 93.8186 64.4379 92.9868 64.5297L80.6935 66.0901C79.954 66.1819 79.2146 66.3655 78.5676 66.5491C76.7189 67.008 75.0552 67.8341 73.5763 68.9356C69.6942 71.6894 67.291 76.1872 67.291 81.2357V100.237H70.711V81.2357C70.711 75.2693 75.1476 70.2207 81.1556 69.4864L85.2226 68.9356L94.0035 67.8342C96.3143 67.2834 97.978 65.264 97.8856 62.8774V59.4811L94.5581 57.8289V62.8774H94.4656Z" fill="#EE5294"/>
<path d="M10.7227 69.2111V45.437" stroke="#EE5294" stroke-width="3.7" stroke-miterlimit="10" stroke-linecap="round"/>
<path d="M127.092 101.154C130.104 101.154 132.545 98.7297 132.545 95.7387C132.545 92.7477 130.104 90.323 127.092 90.323C124.08 90.323 121.639 92.7477 121.639 95.7387C121.639 98.7297 124.08 101.154 127.092 101.154Z" fill="white" stroke="#EE5294" stroke-width="3.7" stroke-miterlimit="10" stroke-linecap="round"/>
<path d="M10.9073 50.3937C13.6639 50.3937 15.8985 48.1745 15.8985 45.437C15.8985 42.6994 13.6639 40.4802 10.9073 40.4802C8.15068 40.4802 5.91602 42.6994 5.91602 45.437C5.91602 48.1745 8.15068 50.3937 10.9073 50.3937Z" fill="white" stroke="#350089" stroke-width="3.7" stroke-miterlimit="10" stroke-linecap="round"/>
</svg>
