<svg width="116" height="110" viewBox="0 0 116 110" fill="none" xmlns="http://www.w3.org/2000/svg">
<path d="M75.3613 6.09656L76.0575 9.14486L83.8025 14.7189L88.0666 25.6057V36.9279V39.9762L90.0681 44.9406L88.0666 51.0372H86.9353L89.981 63.1433L94.2451 77.2526L95.2024 92.8425L92.8528 100.071H104.688V35.099C104.775 19.0736 91.6345 6.09656 75.3613 6.09656Z" fill="#DBC5E8"/>
<path d="M75.1875 8.5352L75.3615 8.62229V6.09656L75.1875 8.5352Z" fill="#350089"/>
<path d="M75.3613 6.09656V8.62229L76.0575 9.14486L75.3613 6.09656Z" fill="#350089"/>
<path d="M42.6409 103.12C42.0317 103.12 41.4226 102.771 41.1615 102.336L32.9814 89.3588L32.6333 88.8362C32.3723 88.4008 32.2852 87.7911 32.5463 87.3556C32.8074 86.9202 33.2425 86.5718 33.8516 86.4847L36.2012 86.1363C37.6806 85.9621 39.16 84.4815 39.16 83.1751V78.9946C39.16 78.1236 39.9432 77.4269 40.9004 77.4269C41.9447 77.4269 42.7279 78.1236 42.7279 78.9946V83.2622C42.7279 86.0492 40.7264 88.4879 37.7676 89.0975L37.2455 89.1846L43.7722 99.4617C43.9462 99.723 44.2073 99.8972 44.5553 99.8972H60.1323C60.4804 99.8972 60.7415 99.723 60.9155 99.5488L68.3124 89.1846L67.7902 89.0975C64.8315 88.4879 62.6559 86.0492 62.6559 83.2622V82.9138C62.6559 82.0429 63.4391 81.3461 64.3964 81.3461H64.4834C65.4407 81.3461 66.2238 82.0429 66.2238 82.9138V83.2622C66.2238 84.6557 67.2681 85.7879 68.8345 86.0492C69.5307 86.2234 70.3139 86.3976 71.1841 86.5718C71.7933 86.6589 72.3154 87.0072 72.4894 87.5298C72.7505 88.0524 72.6635 88.662 72.4024 89.0975L63.1781 102.423C62.83 102.858 62.3079 103.12 61.6987 103.12H42.6409Z" fill="#350089"/>
<path d="M42.6378 103.033C42.0287 103.033 41.5065 102.771 41.2455 102.249L33.0654 89.2717L32.7173 88.7491C32.4562 88.3137 32.3692 87.7911 32.6303 87.3556C32.8914 86.9202 33.3265 86.5718 33.8486 86.4847L36.1982 86.1363C37.7646 85.9621 39.244 84.4815 39.1569 83.088V78.9075C39.1569 78.0365 39.9401 77.4269 40.8104 77.4269C41.7676 77.4269 42.5508 78.1236 42.5508 78.9075V83.1751C42.5508 85.9621 40.5493 88.3137 37.5905 88.9233L36.8944 89.0975L43.508 99.4617C43.6821 99.723 44.0302 99.8972 44.3783 99.8972H59.9552C60.3033 99.8972 60.6514 99.723 60.8254 99.4617L68.3093 89.0104L67.7002 88.9233C64.7414 88.4008 62.6529 85.9621 62.5659 83.1751V82.8267C62.5659 81.9558 63.3491 81.3461 64.2193 81.3461H64.3063C65.1765 81.3461 65.9597 82.0429 65.9597 82.8267V83.1751C65.9597 84.6557 67.004 85.7879 68.6574 86.0492C69.3536 86.2234 70.1368 86.3976 71.007 86.5718C71.5292 86.6589 72.0513 87.0073 72.3124 87.4427C72.5734 87.9653 72.4864 88.4879 72.2253 88.9233L63.001 102.249C62.6529 102.684 62.2178 102.945 61.6086 102.945H42.6378V103.033Z" fill="#350089"/>
<path d="M13.6645 106.952C10.7058 102.771 8.79128 99.9841 8.00808 93.0166C7.92106 92.494 8.09511 91.9715 8.53022 91.6231C8.8783 91.2747 9.48746 91.0134 10.0096 91.0134C11.0539 91.0134 11.8371 91.7102 12.0111 92.6682C12.8813 99.3745 14.7958 102.161 17.8416 106.168L19.2339 107.997L14.8828 108.781L13.6645 106.952Z" fill="#350089"/>
<path d="M13.6649 106.865C10.7932 102.684 8.87873 99.9841 8.0085 92.9295C7.92148 92.4069 8.09553 91.9715 8.44361 91.6231C8.7917 91.2747 9.31384 91.0134 9.83597 91.0134C10.7932 91.0134 11.5764 91.7102 11.7505 92.5811C12.6207 99.2874 14.5352 102.161 17.668 106.081L18.9733 107.736L14.8833 108.519L13.6649 106.865Z" fill="#350089"/>
<path d="M85.8903 107.91L91.2857 97.3714C94.2445 91.1006 93.2872 78.559 89.1972 68.1948C87.4567 63.753 86.3255 59.137 85.9774 54.4339L85.8903 53.8243L85.1942 53.9984C85.0201 54.0855 84.8461 54.0855 84.585 54.1726C84.411 54.1726 84.3239 54.2597 84.1499 54.2597C83.1056 54.2597 82.3224 53.6501 82.1484 52.7791C81.9743 51.8211 82.6705 50.9501 83.7148 50.776H83.8018C83.9759 50.6889 84.1499 50.6889 84.2369 50.6889L84.498 50.6018C84.585 50.6018 84.672 50.5147 84.7591 50.5147L85.0201 50.4276C85.1071 50.4276 85.1942 50.3405 85.2812 50.3405C85.2812 50.3405 85.6293 50.1663 85.7163 50.0792C85.7163 50.0792 86.0644 49.8179 86.1514 49.8179L86.3254 49.7308C86.4125 49.6437 86.4995 49.5566 86.5865 49.5566L86.6735 49.4695C86.7606 49.3825 86.8476 49.2954 86.9346 49.2083L87.0216 48.7728C87.1087 48.6857 87.1087 48.5986 87.1957 48.5986C87.2827 48.5115 87.2827 48.5115 87.3697 48.4244C87.4567 48.3373 87.4567 48.2502 87.5438 48.1631C87.5438 48.076 87.6308 47.9889 87.6308 47.9889C87.7178 47.9018 87.7178 47.8148 87.7178 47.7277C87.7178 47.6406 87.8048 47.5535 87.8048 47.5535C87.8048 47.4664 87.8918 47.3793 87.8918 47.2922C87.8918 47.2051 87.9789 47.118 87.9789 47.0309C87.9789 46.9438 88.0659 46.8567 88.0659 46.7696C88.0659 46.6825 88.0659 46.5954 88.1529 46.5083C88.1529 46.4212 88.1529 46.3342 88.2399 46.2471C88.2399 46.16 88.2399 46.0729 88.2399 45.9858C88.2399 45.8987 88.2399 45.5503 88.2399 45.5503C88.2399 45.3761 88.2399 45.289 88.2399 45.2019V44.9406V44.7665C88.1529 44.5052 88.1529 44.2439 88.0659 43.9826C87.2827 41.8053 85.1942 40.4117 82.7575 40.4117H82.0614L81.2782 51.1243L80.9301 54.2597L80.669 57.308C80.2339 65.9304 75.2737 73.6818 67.2676 78.2107L66.7455 78.4719L63.7867 79.7784L62.3074 80.3009C61.6982 80.5622 61.002 80.7364 60.2188 80.9106C60.0448 80.9977 59.8707 80.9977 59.6097 81.0848C58.9135 81.259 58.3043 81.346 57.6952 81.5202L57.4341 81.4331C56.7379 81.5202 56.0418 81.6073 55.2586 81.6944H54.6494C54.1273 81.6944 53.5181 81.7815 52.909 81.7815H52.3868C51.6036 81.7815 50.9075 81.7815 50.1243 81.6944H49.6892C48.906 81.6073 48.2968 81.5202 47.6006 81.4331H47.3396C46.6434 81.346 45.9472 81.1719 45.164 80.9977C44.99 80.9977 44.4678 80.8235 44.4678 80.8235C43.9457 80.6493 43.4236 80.5622 42.9885 80.388L42.7274 80.3009C42.6404 80.2138 42.4663 80.1267 42.3793 80.1267L41.335 79.7784L38.2893 78.4719L37.7671 78.1236C29.7611 73.6817 24.8008 65.8433 24.3657 57.2209L22.9734 41.0214C22.9734 40.4988 23.1474 39.9763 23.4955 39.6279C23.8436 39.2795 24.2787 39.1053 24.7138 39.1053C25.323 39.1053 28.4558 37.886 36.2878 32.5733C40.6389 29.6121 41.248 25.7799 41.8572 22.0348C42.5533 17.7672 43.2495 13.4125 49.3411 11.5835C50.2983 11.2352 51.2556 11.1481 52.2128 11.1481C53.5181 11.1481 54.9105 11.4964 56.1288 12.019C58.3914 13.3254 60.1318 15.2415 61.089 17.5059L61.2631 17.9414L67.0065 16.1995C67.1806 16.1124 67.4417 16.1124 67.6157 16.1124C67.9638 16.1124 68.3119 16.1995 68.66 16.3737C69.0951 16.635 69.3561 16.9834 69.5302 17.4189V17.5059V17.593C69.5302 17.7672 71.7928 32.312 80.495 36.8409L80.669 36.928H82.5835C83.6278 36.928 84.585 37.1022 85.5423 37.4505L86.2384 37.7118L86.3254 37.1022C87.3697 30.5701 86.3255 23.8638 83.3667 17.8543C80.669 11.9319 74.4904 8.27396 67.6157 8.18686C67.3546 8.18686 67.0936 8.18686 66.9195 8.09977L59.3486 5.31275C56.912 4.18052 54.2143 3.57087 51.4296 3.57087C49.167 3.57087 46.9915 3.91924 44.99 4.70309C28.1077 10.7126 17.578 25.867 18.7093 42.4149C19.1444 49.4695 16.9689 60.5305 14.0101 66.6271C12.4437 69.8496 11.5735 74.6398 11.4865 80.2138C11.4865 81.1719 10.6162 82.0428 9.57198 82.0428C9.04984 82.0428 8.52771 81.8686 8.17962 81.5202C7.83153 81.1719 7.57047 80.7364 7.65749 80.2138C7.65749 74.1172 8.70176 68.8045 10.4422 65.2336C13.1399 59.6596 15.2284 49.1212 14.7933 42.6762C13.488 24.4735 25.0619 7.92558 43.5106 1.39351C46.0342 0.435471 48.7319 0 51.4296 0C54.7364 0 58.0433 0.696754 60.915 2.09026L67.9638 4.616H68.0508C76.2309 4.79018 83.6278 9.40618 86.9346 16.1995C90.3285 23.2542 91.3727 30.9185 90.0674 38.4957L89.8063 40.0634L89.9804 40.1505C92.9391 43.46 92.8521 48.076 89.8063 51.2985L89.6323 51.4727L89.7193 51.5598C89.8063 56.6984 90.9376 61.924 92.9391 66.9755C97.4643 78.3848 98.3345 91.3619 94.9406 98.5907L90.0674 108.345L85.8903 107.91ZM28.1947 57.1338C28.8039 68.8045 38.8114 77.9494 51.4296 78.4719C51.7777 78.4719 52.2128 78.4719 52.5609 78.4719C65.6142 78.4719 76.2309 69.1528 76.84 57.1338L78.2324 39.715L77.9713 39.5408C70.9225 35.3603 67.5287 26.0412 66.1363 20.8155L65.9623 20.293L60.5669 21.9478H60.3929C60.2188 21.9478 60.0448 22.0348 59.8707 22.0348C59.0005 22.0348 58.2173 21.5123 57.9562 20.6413C57.4341 18.464 56.0418 16.5479 54.2143 15.2415L54.1273 15.1544C53.5181 14.8931 52.909 14.806 52.2998 14.806C51.6907 14.806 51.0815 14.8931 50.4724 15.1544C50.1243 15.2415 49.7762 15.4157 49.4281 15.5899L48.8189 15.9383L49.3411 16.3737C49.8632 16.8092 50.2983 17.2447 50.9075 17.7672C50.9945 17.8543 51.1685 18.0285 51.2556 18.1156C51.7777 18.7253 52.2128 19.1607 52.6479 19.6833C52.996 20.1188 53.083 20.6413 52.996 21.1639C52.909 21.6865 52.4739 22.0349 52.0387 22.2961L51.8647 22.3832C51.6036 22.4703 51.3426 22.5574 51.0815 22.5574C50.4724 22.5574 49.9502 22.2961 49.5151 21.8607C49.254 21.5123 48.906 21.1639 48.5579 20.7284L48.2968 20.4672C47.8617 20.0317 47.5136 19.7704 47.1655 19.422L46.4693 18.8124L46.2083 19.5962C45.9472 20.3801 45.7732 21.4252 45.5991 22.7316C44.9029 26.7379 44.1197 31.7023 38.5503 35.6216C35.0694 38.1473 31.2405 40.4117 27.2375 42.2407L26.9764 42.502L28.1947 57.1338Z" fill="#350089"/>
<path d="M85.98 107.822L91.2884 97.3706C94.2471 91.0998 93.3769 78.5582 89.1998 68.1069C87.4594 63.6651 86.3281 59.0491 85.98 54.346L85.893 53.6493L85.1098 53.8235C84.9358 53.9106 84.7617 53.9106 84.5877 53.9977C84.4136 53.9977 84.3266 54.0848 84.1526 54.0848C83.1953 54.0848 82.4121 53.4751 82.2381 52.6912C82.064 51.8203 82.7602 50.9494 83.7175 50.7752H83.8045V50.8623V50.7752H83.8915C84.0655 50.7752 84.1526 50.6881 84.2396 50.6881L84.5007 50.601C84.5877 50.601 84.6747 50.5139 84.7617 50.5139L85.0228 50.4268C85.1098 50.4268 85.1968 50.3397 85.2839 50.3397C85.2839 50.3397 85.719 50.1655 85.719 50.0784C85.719 50.0784 86.0671 49.8171 86.1541 49.8171L86.3281 49.73C86.4151 49.6429 86.5022 49.5559 86.5892 49.5559L86.7632 49.4688C86.8503 49.3817 86.9373 49.2946 87.0243 49.2075L87.1983 49.0333C87.2854 48.9462 87.2854 48.8591 87.3724 48.8591C87.4594 48.772 87.4594 48.772 87.5464 48.6849C87.6334 48.5978 87.6335 48.5107 87.7205 48.4236C87.7205 48.3365 87.8075 48.2494 87.8075 48.2494C87.8945 48.1623 87.8945 48.0752 87.8945 47.9882C87.8945 47.9011 87.9815 47.814 87.9815 47.814C87.9815 47.7269 88.0686 47.6398 88.0686 47.5527C88.0686 47.4656 88.1556 47.3785 88.1556 47.2914C88.1556 47.2043 88.2426 47.1172 88.2426 47.0301C88.2426 46.943 88.2426 46.8559 88.3296 46.7688C88.3296 46.6817 88.3296 46.5946 88.4166 46.5076C88.4166 46.4205 88.4166 46.3334 88.4166 46.2463C88.4166 46.1592 88.4166 45.8108 88.4166 45.8108C88.4166 45.6366 88.4166 45.5495 88.4166 45.4624V45.2011V45.027C88.3296 44.7657 88.3296 44.4173 88.2426 44.156C87.4594 41.9786 85.2839 40.5851 82.8472 40.5851H82.064L81.2808 51.3848L81.1068 54.4331L80.8457 57.4814C80.4106 66.0167 75.4504 73.8552 67.4443 78.297L66.7481 78.3841L63.7894 79.6034L62.31 80.1259C61.7009 80.3872 61.0047 80.5614 60.2215 80.7356C60.0474 80.8227 59.8734 80.8227 59.6123 80.9098C58.9162 81.084 58.307 81.1711 57.6979 81.3453H57.4368C56.7406 81.4324 56.0444 81.5194 55.2612 81.6065H54.6521C54.1299 81.6065 53.5208 81.6936 52.9116 81.6936H52.3025C51.5193 81.6936 50.8231 81.6936 50.0399 81.6065H49.6048C48.8216 81.5194 48.2124 81.4324 47.5163 81.3453H47.2552C46.559 81.2582 45.8629 81.084 45.0797 80.9098C44.9056 80.9098 44.3835 80.7356 44.3835 80.7356C43.8613 80.5614 43.3392 80.4743 42.9041 80.3001L42.8171 80.1259C42.643 80.0388 42.469 80.0388 42.382 79.9518L41.3377 79.6034L38.379 78.3841L37.8568 78.1228C29.9378 73.681 24.8905 65.8425 24.4554 57.3072L23.0631 41.1077C23.0631 40.6722 23.2371 40.1497 23.5852 39.8013C23.9333 39.54 24.2814 39.2787 24.7165 39.2787C25.3256 39.2787 28.5455 38.0594 36.3774 32.7467C40.7285 29.6984 41.3377 25.8662 42.0339 22.1212C42.7301 17.9406 43.4262 13.5859 49.5178 11.6698C50.388 11.3215 51.3452 11.2344 52.3025 11.2344C53.6078 11.2344 55.0002 11.5827 56.1315 12.1053C58.307 13.3246 60.0475 15.3278 61.0047 17.5052L61.2658 18.0277L67.0092 16.2858C67.1833 16.1987 67.3573 16.1987 67.6184 16.1987C67.9665 16.1987 68.3145 16.2858 68.5756 16.46C69.0107 16.7213 69.2718 17.0697 69.4458 17.5052V17.5923C69.4458 17.7664 71.6214 32.3112 80.4976 36.9272L80.6717 37.0143H82.6732C83.7175 37.0143 84.6747 37.1885 85.6319 37.5368L86.4151 37.7981L86.5022 37.1014C87.5464 30.4822 86.5022 23.863 83.5434 17.7664C80.7587 11.9311 74.4931 8.18607 67.6184 8.18607C67.3573 8.18607 67.1833 8.18607 66.9222 8.09898L59.3513 5.22487C56.9147 4.09264 54.217 3.48298 51.4323 3.48298C49.1697 3.48298 46.9941 3.83136 44.9056 4.61521C28.0233 10.6247 17.4066 25.8662 18.6249 42.5012C19.06 49.5559 16.8845 60.6168 13.9257 66.7134C12.3593 69.9359 11.4021 74.7261 11.3151 80.3001C11.3151 81.2582 10.4449 82.042 9.48762 82.042C8.96549 82.042 8.53038 81.8678 8.18229 81.5194C7.8342 81.1711 7.66016 80.7356 7.66016 80.3001C7.74718 74.2035 8.79144 68.8908 10.6189 65.3199C13.3166 59.7459 15.4051 49.2075 14.97 42.7625C13.5777 24.5598 25.1516 8.01188 43.6003 1.47981C46.1239 0.521775 48.7346 0.0863037 51.4323 0.0863037C54.7391 0.0863037 57.9589 0.783058 60.9177 2.17657L67.9665 4.7023H68.0535C76.1465 4.87649 83.5434 9.40539 86.8503 16.2858C90.2441 23.2534 91.2884 31.0048 89.983 38.4949L89.635 40.0626L89.809 40.2368C92.6807 43.4593 92.5937 48.0752 89.635 51.2106L89.4609 51.3848V51.559C89.5479 56.6976 90.6792 61.9232 92.6807 67.0618C97.2059 78.4711 98.0761 91.4482 94.6822 98.5899L89.809 108.257L85.98 107.822ZM28.1103 57.2201C28.7195 68.8037 38.727 78.0357 51.4323 78.5582C51.7804 78.5582 52.2155 78.5582 52.5636 78.5582C65.6169 78.5582 76.3206 69.1521 76.9297 57.1331L78.3221 39.7142L77.974 39.54C70.9252 35.3595 67.5313 26.0404 66.226 20.9018L66.052 20.2922L60.5696 21.947H60.3955C60.2215 21.947 60.0475 22.0341 59.9604 22.0341C59.0902 22.0341 58.394 21.5115 58.133 20.7276C57.6108 18.5503 56.2185 16.6342 54.304 15.2407L54.217 15.1536C53.6078 14.8923 52.9987 14.8052 52.3025 14.8052C51.6933 14.8052 51.0842 14.8923 50.475 15.1536C50.1269 15.2407 49.7788 15.4149 49.4308 15.5891L48.7346 15.9375L49.4308 16.46C49.9529 16.8955 50.388 17.331 50.9972 17.8535C51.0842 17.9406 51.2582 18.1148 51.3452 18.2019C51.8674 18.7245 52.3025 19.247 52.7376 19.7696C53.0857 20.2051 53.1727 20.6406 52.9987 21.1631C52.9116 21.5986 52.5636 22.0341 52.0414 22.2082L51.8674 22.2953C51.6063 22.3824 51.3452 22.4695 51.0842 22.4695C50.475 22.4695 49.9529 22.2082 49.6048 21.7728C49.3437 21.4244 48.9956 21.076 48.6476 20.6406L48.3865 20.3793C47.9514 19.9438 47.6033 19.6825 47.2552 19.3341L46.472 18.6374L46.2109 19.5954C45.9499 20.3793 45.7758 21.4244 45.6018 22.7308C44.9056 26.7372 44.1224 31.7015 38.553 35.5337C35.0721 38.0594 31.2431 40.3239 27.2401 42.1528L26.892 42.327L28.1103 57.2201Z" fill="#350089"/>
<path d="M9.31097 88.3136C10.3683 88.3136 11.2255 87.4947 11.2255 86.4846C11.2255 85.4745 10.3683 84.6556 9.31097 84.6556C8.25363 84.6556 7.39648 85.4745 7.39648 86.4846C7.39648 87.4947 8.25363 88.3136 9.31097 88.3136Z" fill="#350089"/>
<path d="M9.30989 88.2264C10.3192 88.2264 11.1373 87.4466 11.1373 86.4846C11.1373 85.5225 10.3192 84.7427 9.30989 84.7427C8.3006 84.7427 7.48242 85.5225 7.48242 86.4846C7.48242 87.4466 8.3006 88.2264 9.30989 88.2264Z" fill="#350089"/>
<path d="M112.867 81.1718C114.608 81.1718 116 82.4782 116 84.0459C116 85.6136 114.608 86.92 112.867 86.92C111.127 86.92 109.734 85.6136 109.734 84.0459C109.734 82.4782 111.127 81.1718 112.867 81.1718Z" fill="#EE5294"/>
<path d="M112.867 92.7554C114.608 92.7554 116 94.0618 116 95.6295C116 97.1972 114.608 98.5036 112.867 98.5036C111.127 98.5036 109.734 97.1972 109.734 95.6295C109.734 93.9747 111.127 92.7554 112.867 92.7554Z" fill="#EE5294"/>
<path d="M112.867 104.252C114.608 104.252 116 105.558 116 107.126C116 108.694 114.608 110 112.867 110C111.127 110 109.734 108.694 109.734 107.126C109.734 105.558 111.127 104.252 112.867 104.252Z" fill="#EE5294"/>
<path d="M100.51 104.252C102.25 104.252 103.643 105.558 103.643 107.126C103.643 108.694 102.25 110 100.51 110C98.7693 110 97.377 108.694 97.377 107.126C97.377 105.558 98.7693 104.252 100.51 104.252Z" fill="#EE5294"/>
<path d="M88.0683 104.252C89.8088 104.252 91.2011 105.558 91.2011 107.126C91.2011 108.694 89.8088 110 88.0683 110C86.3279 110 84.9355 108.694 84.9355 107.126C85.0226 105.558 86.4149 104.252 88.0683 104.252Z" fill="#EE5294"/>
<path d="M16.5351 104.252C18.2756 104.252 19.6679 105.558 19.6679 107.126C19.6679 108.694 18.2756 110 16.5351 110C14.7947 110 13.4023 108.694 13.4023 107.126C13.4894 105.558 14.8817 104.252 16.5351 104.252Z" fill="#EE5294"/>
<path d="M3.13279 104.252C4.87324 104.252 6.26559 105.558 6.26559 107.126C6.26559 108.694 4.87324 110 3.13279 110C1.39235 110 0 108.694 0 107.126C0 105.558 1.39235 104.252 3.13279 104.252Z" fill="#EE5294"/>
<path d="M75.623 104.252C77.3635 104.252 78.7558 105.558 78.7558 107.126C78.7558 108.694 77.3635 110 75.623 110C73.8826 110 72.4902 108.694 72.4902 107.126C72.5773 105.558 73.8826 104.252 75.623 104.252Z" fill="#EE5294"/>
<path d="M62.4805 104.252C64.2209 104.252 65.6133 105.558 65.6133 107.126C65.6133 108.694 64.2209 110 62.4805 110C60.74 110 59.3477 108.694 59.3477 107.126C59.4347 105.558 60.827 104.252 62.4805 104.252Z" fill="#EE5294"/>
<path d="M50.0371 104.252C51.7775 104.252 53.1699 105.558 53.1699 107.126C53.1699 108.694 51.7775 110 50.0371 110C48.2966 110 46.9043 108.694 46.9043 107.126C46.9043 105.558 48.2966 104.252 50.0371 104.252Z" fill="#EE5294"/>
<path d="M37.9433 59.6595C43.5664 59.6595 48.1249 55.0972 48.1249 49.4694C48.1249 43.8417 43.5664 39.2794 37.9433 39.2794C32.3202 39.2794 27.7617 43.8417 27.7617 49.4694C27.7617 55.0972 32.3202 59.6595 37.9433 59.6595Z" stroke="#350089" stroke-width="3.7" stroke-miterlimit="10"/>
<path d="M68.4863 59.6595C74.1094 59.6595 78.6679 55.0972 78.6679 49.4694C78.6679 43.8417 74.1094 39.2794 68.4863 39.2794C62.8631 39.2794 58.3047 43.8417 58.3047 49.4694C58.3047 55.0972 62.8631 59.6595 68.4863 59.6595Z" stroke="#350089" stroke-width="3.7" stroke-miterlimit="10"/>
<path d="M48.2109 46.4213H58.3055" stroke="#350089" stroke-width="3.7" stroke-miterlimit="10"/>
</svg>
