<svg width="126" height="120" viewBox="0 0 126 120" fill="none" xmlns="http://www.w3.org/2000/svg">
<path d="M35.6366 46.5407H92.1115C92.987 46.5407 93.6875 45.84 93.6875 44.9642V2.83769C93.6875 1.96188 92.987 1.26123 92.1115 1.26123H35.6366C34.761 1.26123 34.0605 1.96188 34.0605 2.83769V45.0518C34.0605 45.84 34.761 46.5407 35.6366 46.5407ZM37.2126 31.5643L45.0928 23.7696L64.7934 43.4753H37.2126V31.5643ZM90.623 4.32657V43.3877H69.2588L46.1435 20.4415C45.5306 19.8284 44.5675 19.8284 43.9546 20.4415L37.2126 27.1852V4.41415H90.623V4.32657Z" fill="#350089" stroke="#350089" stroke-width="0.75" stroke-miterlimit="10"/>
<path d="M90.0094 4.93945H38V42.6869H90.0094V4.93945Z" fill="white"/>
<path d="M83.7931 11.2454H37.5625V43.1249H83.7931V11.2454Z" fill="#DBC5E8"/>
<path d="M41.853 53.9851L43.429 39.8846C43.8668 39.9722 44.3046 40.0597 44.7424 40.0597C46.6687 40.0597 48.5074 39.0088 49.5581 37.3447C52.8853 31.652 51.3093 25.784 51.2217 25.5213C51.0466 24.733 50.2586 24.2951 49.4705 24.4703C49.2079 24.5579 43.3415 26.1343 40.0143 31.8271C38.7885 33.9291 39.1387 36.5565 40.7147 38.3081L38.9636 53.9851H36.7746L35.0235 34.1042C36.3369 33.1408 37.2124 31.8271 37.6502 30.2507C38.1756 28.4115 37.9129 26.5723 36.9498 24.9082C32.3967 17.2011 24.429 15.0115 24.1663 14.924C23.8161 14.8364 23.3783 14.8364 23.028 15.0991C22.6778 15.2743 22.4151 15.6246 22.3276 15.9749C22.24 16.3253 20.1386 24.2951 24.6041 32.0023C25.8299 34.1918 28.194 35.5055 30.7331 35.5055C31.1709 35.5055 31.6087 35.4179 32.1341 35.4179L33.7977 54.0727" fill="#350089"/>
<path d="M41.853 53.9851L43.429 39.8846C43.8668 39.9722 44.3046 40.0597 44.7424 40.0597C46.6687 40.0597 48.5074 39.0088 49.5581 37.3447C52.8853 31.652 51.3093 25.784 51.2217 25.5213C51.0466 24.733 50.2586 24.2951 49.4705 24.4703C49.2079 24.5579 43.3415 26.1343 40.0143 31.8271C38.7885 33.9291 39.1387 36.5565 40.7147 38.3081L38.9636 53.9851H36.7746L35.0235 34.1042C36.3369 33.1408 37.2124 31.8271 37.6502 30.2507C38.1756 28.4115 37.9129 26.5723 36.9498 24.9082C32.3967 17.2011 24.429 15.0115 24.1663 14.924C23.8161 14.8364 23.3783 14.8364 23.028 15.0991C22.6778 15.2743 22.4151 15.6246 22.3276 15.9749C22.24 16.3253 20.1386 24.2951 24.6041 32.0023C25.8299 34.1918 28.194 35.5055 30.7331 35.5055C31.1709 35.5055 31.6087 35.4179 32.1341 35.4179L33.7977 54.0727" stroke="#350089" stroke-width="0.5" stroke-miterlimit="10"/>
<path d="M42.4644 33.316C44.2156 30.3383 46.9299 28.6742 48.5935 27.886C48.7686 29.7252 48.681 32.8781 46.9299 35.9435C46.4921 36.7317 45.6165 37.2572 44.6534 37.2572C44.2156 37.2572 43.7778 37.1696 43.34 36.9068C42.1142 36.1186 41.764 34.5422 42.4644 33.316Z" fill="white" stroke="#350089" stroke-width="1.5" stroke-miterlimit="10"/>
<path d="M27.1446 30.5133C24.4303 25.7839 24.5179 20.7918 24.8681 18.252C27.1446 19.2153 31.6101 21.58 34.3244 26.3094C34.8497 27.2728 35.0248 28.4114 34.7621 29.4623C34.4995 30.5133 33.799 31.3891 32.8359 32.0022C32.223 32.3525 31.5225 32.5277 30.7345 32.5277C29.3335 32.6153 27.9326 31.827 27.1446 30.5133Z" fill="white" stroke="#350089" stroke-width="1.5" stroke-miterlimit="10"/>
<path d="M115.139 113.89V106.621H118.816C119.867 106.621 120.655 105.833 120.655 104.782V71.939C120.655 70.9756 119.867 70.0998 118.816 70.0998H109.622V60.9914C109.622 56.9627 106.295 53.7222 102.268 53.7222H69.4334C67.2444 53.7222 65.3182 54.6856 63.9172 56.1744C62.6039 54.6856 60.59 53.7222 58.4011 53.7222H25.4793C21.4516 53.7222 18.1244 56.9627 18.1244 60.9914V70.0998H9.0184C7.96771 70.0998 7.17969 70.8881 7.17969 71.939V104.782C7.17969 105.745 7.96771 106.621 9.0184 106.621H12.6958V113.89H115.139ZM62.0785 91.9951H21.8019V84.7259H62.0785V91.9951ZM65.756 84.7259H106.033V91.9951H65.756V84.7259ZM69.4334 57.4006H102.355C104.369 57.4006 106.033 59.0646 106.033 61.079V81.1351H65.756V60.9914C65.756 59.0646 67.4196 57.4006 69.4334 57.4006ZM21.8019 60.9914C21.8019 58.977 23.4655 57.313 25.4793 57.313H58.4011C60.4149 57.313 62.0785 58.977 62.0785 60.9914V81.0475H21.8019V60.9914ZM10.7696 73.7782H18.1244V93.8343C18.1244 94.7977 18.9125 95.6735 19.9631 95.6735H63.9172H107.871C108.922 95.6735 109.71 94.8853 109.71 93.8343V73.7782H117.065V102.943H10.7696V73.7782ZM16.2857 106.621H111.461V113.89H16.2857V106.621Z" fill="#350089" stroke="#350089" stroke-width="0.5" stroke-miterlimit="10"/>
<path d="M125.208 114.241H0V119.583H125.208V114.241Z" fill="white"/>
<path d="M99.1148 100.052H89.7461V115.467H99.1148V100.052Z" fill="white"/>
<path d="M74.0745 73.428H65.9316V88.8423H74.0745V73.428Z" fill="white"/>
<path d="M89.7463 106.796C90.8585 106.796 91.7601 105.894 91.7601 104.782C91.7601 103.669 90.8585 102.768 89.7463 102.768C88.634 102.768 87.7324 103.669 87.7324 104.782C87.7324 105.894 88.634 106.796 89.7463 106.796Z" fill="#350089"/>
<path d="M30.0319 75.2671H21.9766V90.6814H30.0319V75.2671Z" fill="white"/>
<path d="M30.1196 85.3389C31.4736 85.3389 32.5712 84.2409 32.5712 82.8866C32.5712 81.5322 31.4736 80.4343 30.1196 80.4343C28.7656 80.4343 27.668 81.5322 27.668 82.8866C27.668 84.2409 28.7656 85.3389 30.1196 85.3389Z" fill="#EE5294"/>
<path d="M74.0747 85.3389C75.4287 85.3389 76.5263 84.2409 76.5263 82.8866C76.5263 81.5322 75.4287 80.4343 74.0747 80.4343C72.7207 80.4343 71.623 81.5322 71.623 82.8866C71.623 84.2409 72.7207 85.3389 74.0747 85.3389Z" fill="#EE5294"/>
<path d="M61.8167 80.522H30.0332V85.3389H61.8167V80.522Z" fill="#EE5294"/>
<path d="M105.77 80.522H73.9863V85.3389H105.77V80.522Z" fill="#EE5294"/>
<path d="M116.977 113.102H10.7695V116.956H116.977V113.102Z" fill="white"/>
<path d="M99.0295 106.796C100.142 106.796 101.043 105.894 101.043 104.782C101.043 103.669 100.142 102.768 99.0295 102.768C97.9172 102.768 97.0156 103.669 97.0156 104.782C97.0156 105.894 97.9172 106.796 99.0295 106.796Z" fill="#350089"/>
<path d="M113.299 115.117C114.411 115.117 115.313 114.215 115.313 113.102C115.313 111.99 114.411 111.088 113.299 111.088C112.187 111.088 111.285 111.99 111.285 113.102C111.285 114.215 112.187 115.117 113.299 115.117Z" fill="#350089"/>
<path d="M14.4455 115.117C15.5577 115.117 16.4593 114.215 16.4593 113.102C16.4593 111.99 15.5577 111.088 14.4455 111.088C13.3333 111.088 12.4316 111.99 12.4316 113.102C12.4316 114.215 13.3333 115.117 14.4455 115.117Z" fill="#350089"/>
</svg>
