<svg width="106" height="111" viewBox="0 0 106 111" fill="none" xmlns="http://www.w3.org/2000/svg">
<path d="M100.78 96.5356L85.7202 97.9369L83.5312 76.2168H103.144L100.78 96.5356Z" fill="#DBC5E8"/>
<path d="M85.7186 74.0272V2.21066C85.7186 1.77275 85.3684 1.51001 85.0182 1.51001H5.34042C4.90263 1.51001 4.46484 1.86033 4.46484 2.38582V79.9827C4.46484 83.3984 4.46484 86.9016 5.51554 90.3173C6.74135 94.2584 9.28053 97.4113 12.4326 98.9878C14.7091 100.039 17.2483 100.039 19.5248 100.039V108.271C19.5248 108.972 20.3128 109.498 20.9257 109.147L27.5801 105.556L33.8843 109.235C34.4972 109.585 35.3728 109.147 35.3728 108.359V100.214H55.5987H92.5481H93.4237C99.6403 100.214 104.631 95.2218 104.631 89.0036V74.9906C104.631 74.6403 104.368 74.2899 103.931 74.2899L85.7186 74.0272ZM28.2806 89.6166C20.9257 90.0545 14.9718 84.099 15.4096 76.7422C15.7598 70.6991 20.6631 65.7946 26.7046 65.4442C34.0594 65.0063 40.0134 70.9618 39.5756 78.3187C39.1378 84.2742 34.2345 89.2663 28.2806 89.6166ZM27.6677 101.528L23.3774 103.892C23.2022 103.98 23.0271 103.892 23.0271 103.717V92.5068C24.4281 93.0323 26.0041 93.2075 27.4926 93.2075C29.0686 93.2075 30.6447 93.0323 31.958 92.5068V103.717C31.958 103.892 31.7829 103.98 31.6078 103.892L27.6677 101.528ZM35.3728 96.5355V90.8428C40.1885 87.865 43.4281 82.5226 42.9028 76.3043C42.2899 68.5972 35.8981 62.3789 28.1931 61.941C19.2621 61.5907 11.9073 68.5972 11.9073 77.5304C11.9073 83.2232 15.0594 88.0402 19.5248 90.8428V96.5355C17.5985 96.5355 15.5847 96.5355 13.8335 95.6597C11.557 94.6087 9.71832 92.4192 8.84274 89.2663C7.96716 86.4637 7.96716 83.2232 7.96716 80.0703V5.88907C7.96716 5.45116 8.31739 5.10084 8.75518 5.10084H81.3407C81.8661 5.10084 82.2163 5.53874 82.2163 5.97665V88.916C82.2163 91.8937 83.4421 94.6087 85.3684 96.7107L35.3728 96.5355ZM101.216 88.7408C101.216 93.2075 97.5389 96.7107 92.9859 96.5355C88.9583 96.3604 85.6311 92.5944 85.6311 88.4781V77.5304H100.516C100.866 77.5304 101.129 77.7932 101.129 78.1435V88.7408H101.216Z" fill="#350089" stroke="#350089" stroke-width="1.3" stroke-miterlimit="10"/>
<path d="M17.4238 22.1792H23.5529" stroke="#EE5294" stroke-width="5" stroke-miterlimit="10" stroke-linecap="round"/>
<path d="M17.4238 29.0981H39.576" stroke="#EE5294" stroke-width="5" stroke-miterlimit="10" stroke-linecap="round"/>
<path d="M17.4238 39.5203H70.1337" stroke="#350089" stroke-width="5" stroke-miterlimit="10" stroke-linecap="round"/>
<path d="M17.4238 46.4392H70.1337" stroke="#350089" stroke-width="5" stroke-miterlimit="10" stroke-linecap="round"/>
<path d="M17.4238 53.3582H65.4931" stroke="#350089" stroke-width="5" stroke-miterlimit="10" stroke-linecap="round"/>
<path d="M49.3828 74.9031H70.134" stroke="#350089" stroke-width="5" stroke-miterlimit="10" stroke-linecap="round"/>
<path d="M11.2074 18.5884H0V33.0393H11.2074V18.5884Z" fill="white"/>
<path d="M6.21596 20.8653C7.47324 20.8653 8.49247 19.8458 8.49247 18.5881C8.49247 17.3305 7.47324 16.311 6.21596 16.311C4.95868 16.311 3.93945 17.3305 3.93945 18.5881C3.93945 19.8458 4.95868 20.8653 6.21596 20.8653Z" fill="#350089"/>
<path d="M6.21596 35.1411C7.47324 35.1411 8.49247 34.1216 8.49247 32.864C8.49247 31.6064 7.47324 30.5869 6.21596 30.5869C4.95868 30.5869 3.93945 31.6064 3.93945 32.864C3.93945 34.1216 4.95868 35.1411 6.21596 35.1411Z" fill="#350089"/>
</svg>
