<svg width="21" height="21" viewBox="0 0 18 21" fill="none" xmlns="http://www.w3.org/2000/svg">
<path d="M17 19.1364C17 19.6137 16.6024 20 16.1111 20C15.6198 20 15.2222 19.6137 15.2222 19.1364C15.2222 15.7982 12.4358 13.0909 9 13.0909C5.56422 13.0909 2.77778 15.7982 2.77778 19.1364C2.77778 19.6137 2.38021 20 1.88889 20C1.39757 20 1 19.6137 1 19.1364C1 14.8435 4.5816 11.3636 9 11.3636C13.4184 11.3636 17 14.8435 17 19.1364ZM9 10.5C6.30036 10.5 4.11111 8.37295 4.11111 5.75C4.11111 3.12705 6.30036 1 9 1C11.6996 1 13.8889 3.12705 13.8889 5.75C13.8889 8.37295 11.6996 10.5 9 10.5ZM9 8.77273C10.7188 8.77273 12.1111 7.41993 12.1111 5.75C12.1111 4.08007 10.7188 2.72727 9 2.72727C7.28124 2.72727 5.88889 4.08007 5.88889 5.75C5.88889 7.41993 7.28124 8.77273 9 8.77273Z" fill="white" stroke="white" stroke-width="0.1"/>
</svg>
