<?xml version="1.0" encoding="UTF-8"?>
<svg width="20px" height="20px" viewBox="0 0 20 20" version="1.1" xmlns="http://www.w3.org/2000/svg" xmlns:xlink="http://www.w3.org/1999/xlink">
    <!-- Generator: Sketch 59.1 (86144) - https://sketch.com -->
    <title>icons8-auction</title>
    <desc>Created with Sketch.</desc>
    <g id="Page-1" stroke="none" stroke-width="1" fill="none" fill-rule="evenodd">
        <g id="icons8-auction" transform="translate(-1.000000, -1.000000)" fill="#FFFFFF" fill-rule="nonzero">
            <path d="M10.980469,0.9902344 C10.7206704,0.997975536 10.4740906,1.10655471 10.292969,1.2929688 L9.751953,1.8339844 L5.8339844,5.7519531 L5.2929688,6.2929688 C4.8938568,6.6748219 4.8798657,7.3079192 5.2617188,7.7070312 C5.6435719,8.1061432 6.2766692,8.1201343 6.6757812,7.7382812 C7.3413546,9.119198 8.1668409,10.35419 9.132812,11.453125 L1.2929688,19.292969 C1.03173098,19.5437863 0.926498457,19.9162353 1.01785572,20.2666755 C1.10921299,20.6171157 1.3828845,20.8907872 1.73332476,20.9821444 C2.08376501,21.0735015 2.456214,20.9682689 2.7070312,20.707031 L10.546875,12.867188 C11.645996,13.833323 12.880521,14.660538 14.261719,15.326172 C13.9039028,15.7285232 13.9288583,16.3419408 14.3181755,16.7138966 C14.7074927,17.0858523 15.3214101,17.0828175 15.707031,16.707031 L16.248047,16.166016 L16.707031,15.707031 L20.166016,12.248047 L20.707031,11.707031 C21.0027915,11.4195397 21.09172,10.979965 20.9309658,10.6001181 C20.7702116,10.2202713 20.3927526,9.9780755 19.980469,9.990234 C19.7358724,9.99739692 19.5023895,10.0939868 19.324219,10.261719 C17.689045,6.8690971 15.131018,4.3088737 11.738281,2.6738281 C12.0143498,2.37925655 12.0862364,1.94758753 11.9205303,1.57944641 C11.7548242,1.21130529 11.3840255,0.978895914 10.980469,0.9902344 Z M10.201172,4.2128906 C10.71042,4.4303575 11.190835,4.6729092 11.65625,4.9296875 L8.9296875,7.65625 C8.6729092,7.1908349 8.4303575,6.7104196 8.2128906,6.2011719 L10.201172,4.2128906 Z M13.367188,6.046875 C14.349792,6.7897546 15.210245,7.6502078 15.953125,8.6328125 L12.632812,11.953125 C11.650208,11.210245 10.789755,10.349792 10.046875,9.367188 L13.367188,6.046875 Z M17.070312,10.34375 C17.327091,10.809165 17.569643,11.28958 17.787109,11.798828 L15.798828,13.787109 C15.28958,13.569643 14.809165,13.327091 14.34375,13.070312 L17.070312,10.34375 Z" id="Shape"></path>
        </g>
    </g>
</svg>