<?xml version="1.0" encoding="UTF-8"?>
<svg width="20px" height="19px" viewBox="0 0 20 19" version="1.1" xmlns="http://www.w3.org/2000/svg" xmlns:xlink="http://www.w3.org/1999/xlink">
    <title>icons8-bread-loaf (1)</title>
    <g id="Page-1" stroke="none" stroke-width="1" fill="none" fill-rule="evenodd">
        <g id="icons8-bread-loaf-(1)" transform="translate(-0.000000, 0.000000)" fill="#FFFFFF" fill-rule="nonzero">
            <path d="M8.33333333,0 C6.24118417,0 4.33507892,0.0695351667 2.84993492,0.397135417 C2.10736292,0.560935583 1.46062342,0.782192167 0.929362,1.171875 C0.398100583,1.56155783 1.6283271e-15,2.2105405 1.6283271e-15,2.91666667 C1.6283271e-15,3.79620725 0.442614,4.26890442 0.833333333,4.5703125 L0.833333333,16.6666667 C0.833333333,17.5775525 1.58911433,18.3333333 2.5,18.3333333 L14.1666667,18.3333333 L17.5,18.3333333 C18.4191667,18.3333333 19.1666667,17.5858333 19.1666667,16.6666667 L19.1666667,4.3277995 C19.72,3.92613283 20,3.4525 20,2.91666667 C20,0.614166667 14.7616667,0 11.6666667,0 L8.33333333,0 Z M8.33333333,1.66666667 C10.3836842,1.66666667 12.2278,1.75358983 13.4570317,2.02473958 C14.0716467,2.16031442 14.5232533,2.34924025 14.7509767,2.516276 C14.9786992,2.68331192 15,2.7369595 15,2.91666667 C15,3.242398 14.6484375,3.41145833 14.6484375,3.41145833 C14.3547096,3.54815554 14.1668182,3.84268799 14.1666667,4.16666667 L14.1666667,16.6666667 L2.5,16.6666667 L2.5,4.16666667 C2.50023497,3.83457186 2.30328521,3.53403162 1.99869792,3.40169267 C1.99869792,3.40169267 1.66666667,3.28251825 1.66666667,2.91666667 C1.66666667,2.7369595 1.68796717,2.683312 1.91569008,2.516276 C2.14341308,2.34924025 2.59501992,2.16031442 3.20963542,2.02473958 C4.43886642,1.75358983 6.2829825,1.66666667 8.33333333,1.66666667 Z M6.25,5 C5.55964406,5 5,5.55964406 5,6.25 C5,6.94035594 5.55964406,7.5 6.25,7.5 C6.94035594,7.5 7.5,6.94035594 7.5,6.25 C7.5,5.55964406 6.94035594,5 6.25,5 Z M10.8333333,7.5 C10.373096,7.5 10,7.87309604 10,8.33333333 C10,8.79357062 10.373096,9.16666667 10.8333333,9.16666667 C11.2935706,9.16666667 11.6666667,8.79357062 11.6666667,8.33333333 C11.6666667,7.87309604 11.2935706,7.5 10.8333333,7.5 Z M6.66666667,11.6666667 C6.20642938,11.6666667 5.83333333,12.0397627 5.83333333,12.5 C5.83333333,12.9602373 6.20642938,13.3333333 6.66666667,13.3333333 C7.12690396,13.3333333 7.5,12.9602373 7.5,12.5 C7.5,12.0397627 7.12690396,11.6666667 6.66666667,11.6666667 Z" id="Shape"></path>
        </g>
    </g>
</svg>