<svg width="20" height="20" viewBox="0 0 20 20" fill="none" xmlns="http://www.w3.org/2000/svg">
<g clip-path="url(#clip0)">
<path d="M5.28545 5.0376H3.39249L3.39327 0.5C3.39327 0.22344 3.16983 0 2.89327 0C2.61671 0 2.39327 0.22344 2.39327 0.5V5.0376H0.500305C0.223745 5.0376 0.000305176 5.26104 0.000305176 5.5376V15.8986C0.000305176 16.1752 0.223745 16.3986 0.500305 16.3986H2.39327V19.5002C2.39327 19.7768 2.61671 20.0002 2.89327 20.0002C3.16983 20.0002 3.39327 19.7768 3.39327 19.5002V16.3986H5.28623C5.56279 16.3986 5.78623 16.1752 5.78623 15.8986L5.78545 5.5376C5.78545 5.26104 5.56201 5.0376 5.28545 5.0376ZM4.78545 15.3986H1.00024V6.0376H4.78545V15.3986Z" fill="white" stroke="white" stroke-width="0.125"/>
<path d="M19.4997 6.98828H17.6067V2.95068C17.6067 2.67412 17.3833 2.45068 17.1067 2.45068C16.8301 2.45068 16.6067 2.67412 16.6067 2.95068V6.98828H14.7137C14.4372 6.98828 14.2137 7.21172 14.2137 7.48828V13.8493C14.2137 14.1258 14.4372 14.3493 14.7137 14.3493H16.6067V19.5001C16.6067 19.7766 16.8301 20.0001 17.1067 20.0001C17.3833 20.0001 17.6067 19.7766 17.6067 19.5001V14.3493H19.4997C19.7762 14.3493 19.9997 14.1258 19.9997 13.8493V7.48828C19.9997 7.21172 19.7762 6.98828 19.4997 6.98828ZM18.9997 13.3493H15.2145V7.98828H18.9997V13.3493Z" fill="white" stroke="white" stroke-width="0.125"/>
<path d="M12.3928 3.3054H10.4998V0.5C10.4998 0.22344 10.2756 0 9.99983 0C9.72327 0 9.49983 0.22344 9.49983 0.5V3.3054H7.60687C7.33031 3.3054 7.10687 3.52884 7.10687 3.8054V8.9664C7.10687 9.24296 7.33031 9.4664 7.60687 9.4664L9.49983 9.46718V16.8688C9.49983 17.1453 9.72327 17.3688 9.99983 17.3688C10.2756 17.3688 10.4998 17.1453 10.4998 16.8688V9.46718H12.3928C12.6694 9.46718 12.8928 9.24374 12.8928 8.96718V3.80538C12.8928 3.5296 12.6686 3.30538 12.3928 3.30538V3.3054ZM11.8928 8.4672H8.10679V4.3054H11.892L11.8928 8.4672Z" fill="white" stroke="white" stroke-width="0.125"/>
</g>
<defs>
<clipPath id="clip0">
<rect width="20" height="20" fill="white"/>
</clipPath>
</defs>
</svg>
