<?xml version="1.0" encoding="UTF-8"?>
<svg width="20px" height="20px" viewBox="0 0 20 20" version="1.1" xmlns="http://www.w3.org/2000/svg" xmlns:xlink="http://www.w3.org/1999/xlink">
    <title>icons8-guru</title>
    <g id="Page-1" stroke="none" stroke-width="1" fill="none" fill-rule="evenodd">
        <g id="02" transform="translate(-24.000000, -546.000000)" fill="#FFFFFF" fill-rule="nonzero">
            <g id="icons8-guru" transform="translate(24.000000, 546.000000)">
                <path d="M9.5,0 C8.11860818,0 7,1.11860818 7,2.5 C7,3.88139227 8.11860818,5 9.5,5 C10.8813923,5 12,3.88139227 12,2.5 C12,1.11860818 10.8813923,0 9.5,0 Z M10,6 C8.12962403,6 6.14002091,6.77211238 6.14002091,6.77211238 L6.14002091,6.78668054 C5.50103776,6.91050989 4.98687066,7.36576506 4.79871543,7.96670135 L4.78381204,7.96670135 L3.21895565,11.9583767 C3.21895565,11.9583767 0.946188034,13.899584 0.402214146,14.3329865 C-0.141759741,14.7663894 -0.106364061,15.5257545 0.34260057,15.9209157 C0.7915652,16.314256 1.40446764,16.1958898 2.02668411,15.7169615 C2.47564874,15.3727889 4.39259818,13.9050467 4.66458488,13.648283 C4.93657206,13.3915194 5.13963069,13.0746617 5.27562404,12.817898 C5.3706333,12.6394383 6.24807075,11.0460459 6.6616397,10.2976067 L6.6616397,14.1873049 C6.6616397,14.824662 5.04834752,15.7278879 4.12806269,16.2851197 C2.97491245,16.9862122 2.07139429,17.4596773 2.07139429,18.4266389 C2.07139429,19.5283558 3.26552863,20 4.30690342,20 L5.72272587,20 C5.55506292,19.7650886 5.45446477,19.4755463 5.45446477,19.1113424 C5.45446477,17.248439 7.69369999,16.8733092 9.03127938,16.6493236 C10.9892129,16.3215401 12.3994465,16.0975545 12.4143499,16.0957336 C12.440431,16.0920918 12.4776895,16.0975545 12.5037702,16.0957336 C12.5130847,16.0939127 12.5093591,16.0957336 12.5186736,16.0957336 C12.5223997,16.0957336 12.5298514,16.0957336 12.533577,16.0957336 C12.5447548,16.0957336 12.5522065,16.0957336 12.5633838,16.0957336 C12.5671099,16.0957336 12.5745616,16.0939127 12.5782872,16.0957336 C12.8148787,16.123049 12.9955822,16.3215401 12.9955822,16.5619147 C12.9955822,16.8041102 12.8055642,16.9898544 12.5633838,17.0135276 C12.5633838,17.0153485 12.5633838,17.0280957 12.5633838,17.0280957 C12.5633838,17.0280957 11.1699164,17.2356922 9.19521671,17.5671176 C7.63594922,17.8293444 6.408282,18.138918 6.408282,19.1113424 C6.408282,19.7650886 7.06962024,19.9544746 7.71978069,20 L8.77792168,20 C8.78351057,20 8.78723618,20 8.79282507,20 L14.575342,20 C15.3279634,20 17.9286057,19.9690428 17.9286057,18.5577523 C17.9286057,17.6781997 17.1927505,17.21384 16.3041357,16.6347555 C14.6181894,15.5366804 13.3383603,14.7536422 13.3383603,14.1581686 L13.3383603,10.3121748 C13.7519297,11.0606141 14.6293667,12.6376169 14.724376,12.817898 C14.8603693,13.0746617 15.0634284,13.3915194 15.3354151,13.648283 C15.6074023,13.9050467 17.5262141,15.3727889 17.9733159,15.7169615 C18.5973956,16.1958898 19.2084348,16.314256 19.6573994,15.9209157 C20.1063641,15.5257545 20.1417597,14.7663894 19.5977859,14.3329865 C19.053812,13.899584 16.7810444,11.9583767 16.7810444,11.9583767 L15.216188,7.96670135 L15.2012846,7.96670135 C15.0131293,7.36212279 14.4896477,6.89229992 13.8450757,6.77211238 C13.5190638,6.65010394 11.6971241,6 10,6 Z" id="Shape"></path>
            </g>
        </g>
    </g>
</svg>