<svg width="20" height="20" viewBox="0 0 20 20" fill="none" xmlns="http://www.w3.org/2000/svg">
<path d="M17.566 0C17.566 1.21316 17.282 1.76282 16.887 2.21166C16.6422 2.49137 16.3028 2.71904 15.947 2.99224C15.4443 2.45884 14.5761 1.63598 13.3619 0.962721C12.399 0.429322 11.2402 0.019515 9.96726 0.0780585C8.69428 0.136603 7.32991 0.676507 6.10263 1.89942L5.78928 2.23768L5.89373 2.65399C5.89373 2.65399 5.93616 2.89467 5.99818 3.12234C5.36822 3.58744 4.75132 4.10457 4.17032 4.68351C0.361177 8.4791 -1.09459 13.5529 0.88016 16.9907C0.88016 16.9972 0.867104 17.0037 0.854048 17.0688C0.814879 17.2379 0.713694 17.5339 0.592924 17.7973C0.351385 18.321 0.0706771 18.7861 0.0706771 18.7861L1.19351 19.9569C1.19351 19.9569 1.68312 19.648 2.21189 19.4105C2.47628 19.2902 2.76678 19.1894 2.94304 19.1503C3.03117 19.1308 3.08013 19.1503 3.0736 19.1503C6.52369 21.0758 11.5797 19.6252 15.3725 15.8459C15.8393 15.3808 16.4627 14.7108 16.9131 13.9985C17.1677 14.07 17.4093 14.1286 17.4093 14.1286L17.8271 14.2327L18.1665 13.9204C19.3906 12.7008 19.9357 11.338 19.9944 10.0695C20.0532 8.80109 19.6419 7.64973 19.1066 6.68701C18.4734 5.54866 17.7128 4.72904 17.1743 4.21516C17.4778 3.97448 17.8075 3.68501 18.1404 3.30448C18.7606 2.59544 19.2371 1.52539 19.2371 0H17.566ZM10.0456 1.74331C10.9106 1.70102 11.7723 1.96122 12.5524 2.39379C14.1159 3.25894 15.242 4.68351 15.242 4.68351L15.2942 4.76157L15.3725 4.81361C15.3725 4.81361 16.7761 5.9357 17.6443 7.49361C18.0784 8.2742 18.3624 9.12959 18.3232 9.99148C18.2873 10.733 17.9478 11.5104 17.2526 12.3332C17.0078 12.2682 16.7761 12.2292 15.9209 11.8128C14.7654 11.2502 13.1823 10.2549 11.4818 8.56041C9.78121 6.86589 8.78241 5.28846 8.21773 4.1371C7.79993 3.28496 7.76077 3.05404 7.69549 2.8101C8.52455 2.11408 9.30139 1.77908 10.0456 1.74331ZM6.65099 4.73555C6.67384 4.78108 6.68037 4.82011 6.70322 4.86564C7.34297 6.16337 8.43969 7.92293 10.2806 9.75731C12.1215 11.5917 13.8874 12.6845 15.1897 13.322C15.2354 13.3447 15.2746 13.3513 15.3203 13.374C14.9906 13.8196 14.5271 14.3465 14.1975 14.675C10.7572 18.1031 6.27889 19.1081 3.80474 17.6672V17.6933C3.33146 17.3908 2.89734 17.4591 2.55135 17.5371C2.51545 17.5469 2.48281 17.5534 2.4469 17.5632C2.45996 17.5176 2.48933 17.4818 2.49913 17.4331C2.5742 17.0916 2.64274 16.6622 2.34245 16.2101C0.89648 13.7448 1.90507 9.28245 5.34537 5.85439C5.76317 5.43807 6.20382 5.08031 6.65099 4.73555Z" fill="white"/>
</svg>
