<svg width="22" height="20" viewBox="0 0 22 20" fill="none" xmlns="http://www.w3.org/2000/svg">
<path d="M19.3061 0H2.69388C1.22449 0 0 1.21951 0 2.68293V17.3171C0 18.7805 1.22449 20 2.69388 20H19.3061C20.7755 20 22 18.7805 22 17.3171V2.68293C22 1.21951 20.7755 0 19.3061 0ZM19.3061 18.5366H2.69388C2.00895 18.5366 1.46939 17.9992 1.46939 17.3171V2.68293C1.46939 2.00078 2.00895 1.46341 2.69388 1.46341H19.3061C19.9911 1.46341 20.5306 2.00078 20.5306 2.68293V5.21912H15.3878C12.0089 5.21912 11.7143 7.2199 11.7143 9.46263V10.2439C11.7143 12.4886 12.0089 14.4874 15.3878 14.4874H20.5306V17.3171C20.5306 17.9992 19.9432 18.5366 19.3061 18.5366ZM20.5306 6.68244V13.0239H15.3878C13.3788 13.0239 13.1837 12.4865 13.1837 10.2438V9.46254C13.1837 7.26742 13.3788 6.68244 15.3878 6.68244H20.5306Z" fill="white"/>
</svg>
