<svg width="815" height="751" viewBox="0 0 815 751" fill="none" xmlns="http://www.w3.org/2000/svg">
<mask id="mask0" mask-type="alpha" maskUnits="userSpaceOnUse" x="138" y="155" width="548" height="547">
<path fill-rule="evenodd" clip-rule="evenodd" d="M372.041 195.407C243.336 217.665 157.044 340.045 179.302 468.75C201.561 597.454 323.94 683.746 452.645 661.488C581.35 639.23 667.642 516.85 645.384 388.145C623.125 259.44 500.745 173.148 372.041 195.407ZM384.329 269.395C296.711 284.547 237.967 367.859 253.12 455.476C268.273 543.093 351.584 601.837 439.201 586.685C526.819 571.532 585.563 488.221 570.41 400.603C555.257 312.986 471.946 254.242 384.329 269.395Z" fill="#C4C4C4"/>
</mask>
<g mask="url(#mask0)">
<path d="M306.383 701.059L414.295 425.065L225.72 178.037L57.2332 751.69L306.383 701.059Z" fill="#712770"/>
<path d="M703.008 172.674L410.657 421.635L294.353 727.324L764.109 675.618L703.008 172.674Z" fill="#BB25B9"/>
<path d="M594.218 127.298L413.613 421.124L691.068 182.857L594.218 127.298Z" fill="#F71DF4"/>
<path d="M197.881 142.555L414.295 425.066L499.821 51.459L197.881 142.555Z" fill="#432771"/>
<path d="M493.58 48.9993L417.136 432.692L595.785 123.874L493.58 48.9993Z" fill="#0B5777"/>
<path d="M493.58 48.9993L417.136 432.692L595.785 123.874L493.58 48.9993Z" fill="#672771"/>
</g>
<path d="M231.489 56V26.84H238.725C240.477 26.84 241.869 27.164 242.901 27.812C243.957 28.436 244.725 29.348 245.205 30.548C245.685 31.748 245.925 33.2 245.925 34.904C245.925 36.44 245.649 37.772 245.097 38.9C244.569 40.028 243.777 40.904 242.721 41.528C241.665 42.128 240.345 42.428 238.761 42.428H235.557V56H231.489ZM235.557 39.512H237.429C238.605 39.512 239.529 39.38 240.201 39.116C240.873 38.852 241.353 38.396 241.641 37.748C241.929 37.076 242.073 36.14 242.073 34.94C242.073 33.548 241.965 32.48 241.749 31.736C241.557 30.992 241.137 30.476 240.489 30.188C239.841 29.9 238.833 29.756 237.465 29.756H235.557V39.512ZM256.31 56.324C254.198 56.324 252.578 55.904 251.45 55.064C250.322 54.224 249.554 53.048 249.146 51.536C248.738 50 248.534 48.212 248.534 46.172V26.84H252.422V46.352C252.422 47.6 252.506 48.74 252.674 49.772C252.842 50.804 253.202 51.62 253.754 52.22C254.33 52.82 255.182 53.12 256.31 53.12C257.462 53.12 258.314 52.82 258.866 52.22C259.418 51.62 259.778 50.804 259.946 49.772C260.114 48.74 260.198 47.6 260.198 46.352V26.84H264.05V46.172C264.05 48.212 263.846 50 263.438 51.536C263.03 53.048 262.262 54.224 261.134 55.064C260.03 55.904 258.422 56.324 256.31 56.324ZM268.332 56V26.84H274.2C276.144 26.84 277.752 27.104 279.024 27.632C280.296 28.136 281.232 28.964 281.832 30.116C282.456 31.244 282.768 32.732 282.768 34.58C282.768 35.708 282.648 36.74 282.408 37.676C282.168 38.588 281.784 39.368 281.256 40.016C280.728 40.64 280.032 41.096 279.168 41.384L283.308 56H279.384L275.568 42.32H272.4V56H268.332ZM272.4 39.404H273.948C275.1 39.404 276.036 39.26 276.756 38.972C277.476 38.684 278.004 38.192 278.34 37.496C278.676 36.8 278.844 35.828 278.844 34.58C278.844 32.876 278.532 31.652 277.908 30.908C277.284 30.14 276.048 29.756 274.2 29.756H272.4V39.404ZM294.308 56.324C292.244 56.324 290.636 55.892 289.484 55.028C288.356 54.164 287.564 53 287.108 51.536C286.676 50.072 286.46 48.44 286.46 46.64V36.344C286.46 34.376 286.676 32.66 287.108 31.196C287.564 29.732 288.356 28.604 289.484 27.812C290.636 26.996 292.244 26.588 294.308 26.588C296.132 26.588 297.572 26.924 298.628 27.596C299.708 28.268 300.476 29.228 300.932 30.476C301.412 31.724 301.652 33.224 301.652 34.976V37.28H297.8V35.228C297.8 34.148 297.74 33.2 297.62 32.384C297.524 31.544 297.236 30.896 296.756 30.44C296.276 29.984 295.472 29.756 294.344 29.756C293.192 29.756 292.352 30.008 291.824 30.512C291.296 30.992 290.948 31.688 290.78 32.6C290.636 33.488 290.564 34.532 290.564 35.732V47.288C290.564 48.752 290.684 49.916 290.924 50.78C291.164 51.62 291.56 52.22 292.112 52.58C292.664 52.94 293.408 53.12 294.344 53.12C295.448 53.12 296.24 52.88 296.72 52.4C297.2 51.896 297.5 51.212 297.62 50.348C297.74 49.484 297.8 48.476 297.8 47.324V45.164H301.652V47.324C301.652 49.1 301.436 50.672 301.004 52.04C300.572 53.384 299.828 54.44 298.772 55.208C297.716 55.952 296.228 56.324 294.308 56.324ZM305.528 56V26.84H309.596V39.44H317.084V26.84H321.152V56H317.084V42.356H309.596V56H305.528ZM324.123 56L330.315 26.84H334.239L340.467 56H336.615L335.283 48.656H329.343L327.939 56H324.123ZM329.883 45.74H334.743L332.295 32.6L329.883 45.74ZM350.302 56.324C348.622 56.324 347.218 55.964 346.09 55.244C344.986 54.524 344.146 53.528 343.57 52.256C342.994 50.984 342.658 49.508 342.562 47.828L346.162 46.856C346.234 47.888 346.39 48.884 346.63 49.844C346.894 50.804 347.314 51.596 347.89 52.22C348.466 52.82 349.27 53.12 350.302 53.12C351.358 53.12 352.15 52.832 352.678 52.256C353.23 51.656 353.506 50.804 353.506 49.7C353.506 48.38 353.206 47.324 352.606 46.532C352.006 45.716 351.25 44.9 350.338 44.084L345.442 39.764C344.482 38.924 343.774 38.012 343.318 37.028C342.862 36.02 342.634 34.784 342.634 33.32C342.634 31.184 343.246 29.528 344.47 28.352C345.694 27.176 347.362 26.588 349.474 26.588C350.626 26.588 351.634 26.744 352.498 27.056C353.386 27.344 354.118 27.8 354.694 28.424C355.294 29.048 355.762 29.84 356.098 30.8C356.458 31.736 356.698 32.84 356.818 34.112L353.362 35.048C353.29 34.088 353.146 33.212 352.93 32.42C352.714 31.604 352.33 30.956 351.778 30.476C351.25 29.972 350.482 29.72 349.474 29.72C348.466 29.72 347.674 29.996 347.098 30.548C346.546 31.076 346.27 31.868 346.27 32.924C346.27 33.812 346.414 34.544 346.702 35.12C347.014 35.696 347.506 36.284 348.178 36.884L353.11 41.204C354.214 42.164 355.186 43.316 356.026 44.66C356.866 45.98 357.286 47.552 357.286 49.376C357.286 50.816 356.986 52.064 356.386 53.12C355.786 54.152 354.958 54.944 353.902 55.496C352.87 56.048 351.67 56.324 350.302 56.324ZM360.442 56V26.84H371.746V29.864H364.51V39.512H370.378V42.392H364.51V53.084H371.818V56H360.442ZM375.102 56V26.84H380.97C382.914 26.84 384.522 27.104 385.794 27.632C387.066 28.136 388.002 28.964 388.602 30.116C389.226 31.244 389.538 32.732 389.538 34.58C389.538 35.708 389.418 36.74 389.178 37.676C388.938 38.588 388.554 39.368 388.026 40.016C387.498 40.64 386.802 41.096 385.938 41.384L390.078 56H386.154L382.338 42.32H379.17V56H375.102ZM379.17 39.404H380.718C381.87 39.404 382.806 39.26 383.526 38.972C384.246 38.684 384.774 38.192 385.11 37.496C385.446 36.8 385.614 35.828 385.614 34.58C385.614 32.876 385.302 31.652 384.678 30.908C384.054 30.14 382.818 29.756 380.97 29.756H379.17V39.404ZM401.997 56V26.84H408.333C410.493 26.84 412.197 27.176 413.445 27.848C414.717 28.496 415.617 29.48 416.145 30.8C416.697 32.12 416.973 33.764 416.973 35.732V46.46C416.973 48.524 416.697 50.264 416.145 51.68C415.617 53.096 414.741 54.176 413.517 54.92C412.317 55.64 410.697 56 408.657 56H401.997ZM406.065 53.084H408.369C409.857 53.084 410.913 52.796 411.537 52.22C412.161 51.644 412.533 50.804 412.653 49.7C412.797 48.596 412.869 47.264 412.869 45.704V36.236C412.869 34.724 412.773 33.5 412.581 32.564C412.389 31.628 411.969 30.944 411.321 30.512C410.673 30.08 409.653 29.864 408.261 29.864H406.065V53.084ZM421.197 56V26.84H425.193V56H421.197ZM436.787 56.324C435.107 56.324 433.703 55.964 432.575 55.244C431.471 54.524 430.631 53.528 430.055 52.256C429.479 50.984 429.143 49.508 429.047 47.828L432.647 46.856C432.719 47.888 432.875 48.884 433.115 49.844C433.379 50.804 433.799 51.596 434.375 52.22C434.951 52.82 435.755 53.12 436.787 53.12C437.843 53.12 438.635 52.832 439.163 52.256C439.715 51.656 439.991 50.804 439.991 49.7C439.991 48.38 439.691 47.324 439.091 46.532C438.491 45.716 437.735 44.9 436.823 44.084L431.927 39.764C430.967 38.924 430.259 38.012 429.803 37.028C429.347 36.02 429.119 34.784 429.119 33.32C429.119 31.184 429.731 29.528 430.955 28.352C432.179 27.176 433.847 26.588 435.959 26.588C437.111 26.588 438.119 26.744 438.983 27.056C439.871 27.344 440.603 27.8 441.179 28.424C441.779 29.048 442.247 29.84 442.583 30.8C442.943 31.736 443.183 32.84 443.303 34.112L439.847 35.048C439.775 34.088 439.631 33.212 439.415 32.42C439.199 31.604 438.815 30.956 438.263 30.476C437.735 29.972 436.967 29.72 435.959 29.72C434.951 29.72 434.159 29.996 433.583 30.548C433.031 31.076 432.755 31.868 432.755 32.924C432.755 33.812 432.899 34.544 433.187 35.12C433.499 35.696 433.991 36.284 434.663 36.884L439.595 41.204C440.699 42.164 441.671 43.316 442.511 44.66C443.351 45.98 443.771 47.552 443.771 49.376C443.771 50.816 443.471 52.064 442.871 53.12C442.271 54.152 441.443 54.944 440.387 55.496C439.355 56.048 438.155 56.324 436.787 56.324ZM450.13 56V29.864H445.198V26.84H458.986V29.864H454.198V56H450.13ZM461.797 56V26.84H467.665C469.609 26.84 471.217 27.104 472.489 27.632C473.761 28.136 474.697 28.964 475.297 30.116C475.921 31.244 476.233 32.732 476.233 34.58C476.233 35.708 476.113 36.74 475.873 37.676C475.633 38.588 475.249 39.368 474.721 40.016C474.193 40.64 473.497 41.096 472.633 41.384L476.773 56H472.849L469.033 42.32H465.865V56H461.797ZM465.865 39.404H467.413C468.565 39.404 469.501 39.26 470.221 38.972C470.941 38.684 471.469 38.192 471.805 37.496C472.141 36.8 472.309 35.828 472.309 34.58C472.309 32.876 471.997 31.652 471.373 30.908C470.749 30.14 469.513 29.756 467.665 29.756H465.865V39.404ZM480.681 56V26.84H484.677V56H480.681ZM489.395 56V26.84H496.091C497.411 26.84 498.551 26.984 499.511 27.272C500.495 27.56 501.311 28.004 501.959 28.604C502.607 29.204 503.087 29.972 503.399 30.908C503.711 31.82 503.867 32.9 503.867 34.148C503.867 35.348 503.711 36.392 503.399 37.28C503.111 38.144 502.655 38.828 502.031 39.332C501.431 39.836 500.651 40.16 499.691 40.304C500.867 40.568 501.815 41.024 502.535 41.672C503.255 42.296 503.783 43.112 504.119 44.12C504.479 45.104 504.659 46.292 504.659 47.684C504.659 48.932 504.515 50.072 504.227 51.104C503.939 52.136 503.483 53.012 502.859 53.732C502.259 54.452 501.479 55.016 500.519 55.424C499.583 55.808 498.467 56 497.171 56H489.395ZM493.463 53.084H496.199C498.023 53.084 499.235 52.664 499.835 51.824C500.459 50.96 500.771 49.58 500.771 47.684C500.771 46.46 500.603 45.44 500.267 44.624C499.955 43.784 499.439 43.16 498.719 42.752C498.023 42.32 497.075 42.104 495.875 42.104H493.463V53.084ZM493.463 39.008H495.875C497.027 39.008 497.927 38.852 498.575 38.54C499.223 38.204 499.679 37.676 499.943 36.956C500.207 36.236 500.339 35.3 500.339 34.148C500.339 32.804 500.135 31.832 499.727 31.232C499.319 30.632 498.683 30.26 497.819 30.116C496.955 29.948 495.827 29.864 494.435 29.864H493.463V39.008ZM515.798 56.324C513.686 56.324 512.066 55.904 510.938 55.064C509.81 54.224 509.042 53.048 508.634 51.536C508.226 50 508.022 48.212 508.022 46.172V26.84H511.91V46.352C511.91 47.6 511.994 48.74 512.162 49.772C512.33 50.804 512.69 51.62 513.242 52.22C513.818 52.82 514.67 53.12 515.798 53.12C516.95 53.12 517.802 52.82 518.354 52.22C518.906 51.62 519.266 50.804 519.434 49.772C519.602 48.74 519.686 47.6 519.686 46.352V26.84H523.538V46.172C523.538 48.212 523.334 50 522.926 51.536C522.518 53.048 521.75 54.224 520.622 55.064C519.518 55.904 517.91 56.324 515.798 56.324ZM531.025 56V29.864H526.093V26.84H539.881V29.864H535.093V56H531.025ZM542.908 56V26.84H546.904V56H542.908ZM559.074 56.324C557.106 56.324 555.534 55.94 554.358 55.172C553.182 54.404 552.342 53.312 551.838 51.896C551.334 50.456 551.082 48.776 551.082 46.856V35.804C551.082 33.884 551.334 32.24 551.838 30.872C552.366 29.48 553.206 28.424 554.358 27.704C555.534 26.96 557.106 26.588 559.074 26.588C561.042 26.588 562.602 26.96 563.754 27.704C564.906 28.448 565.734 29.504 566.238 30.872C566.766 32.24 567.03 33.884 567.03 35.804V46.892C567.03 48.788 566.766 50.444 566.238 51.86C565.734 53.276 564.906 54.38 563.754 55.172C562.602 55.94 561.042 56.324 559.074 56.324ZM559.074 53.12C560.154 53.12 560.97 52.904 561.522 52.472C562.074 52.016 562.446 51.392 562.638 50.6C562.83 49.784 562.926 48.836 562.926 47.756V34.976C562.926 33.896 562.83 32.972 562.638 32.204C562.446 31.412 562.074 30.812 561.522 30.404C560.97 29.972 560.154 29.756 559.074 29.756C557.994 29.756 557.166 29.972 556.59 30.404C556.038 30.812 555.666 31.412 555.474 32.204C555.282 32.972 555.186 33.896 555.186 34.976V47.756C555.186 48.836 555.282 49.784 555.474 50.6C555.666 51.392 556.038 52.016 556.59 52.472C557.166 52.904 557.994 53.12 559.074 53.12ZM571.028 56V26.84H573.8L582.08 46.208V26.84H585.464V56H582.872L574.484 36.092V56H571.028Z" fill="white"/>
<path d="M584.96 203.402C584.832 203.402 584.72 203.354 584.624 203.258C584.528 203.162 584.48 203.05 584.48 202.922C584.48 202.794 584.488 202.706 584.504 202.658L590.456 187.13C590.584 186.778 590.84 186.602 591.224 186.602H592.856C593.24 186.602 593.496 186.778 593.624 187.13L599.552 202.658L599.6 202.922C599.6 203.05 599.552 203.162 599.456 203.258C599.36 203.354 599.248 203.402 599.12 203.402H597.896C597.72 203.402 597.584 203.362 597.488 203.282C597.392 203.186 597.328 203.09 597.296 202.994L595.976 199.586H588.104L586.784 202.994C586.752 203.09 586.68 203.186 586.568 203.282C586.472 203.362 586.344 203.402 586.184 203.402H584.96ZM595.28 197.522L592.04 189.002L588.8 197.522H595.28ZM608.197 203.642C606.133 203.642 604.533 203.09 603.397 201.986C602.277 200.866 601.717 199.178 601.717 196.922V187.178C601.717 187.002 601.765 186.866 601.861 186.77C601.973 186.658 602.109 186.602 602.269 186.602H603.493C603.669 186.602 603.805 186.658 603.901 186.77C604.013 186.866 604.069 187.002 604.069 187.178V196.97C604.069 198.506 604.429 199.658 605.149 200.426C605.869 201.194 606.885 201.578 608.197 201.578C609.509 201.578 610.525 201.194 611.245 200.426C611.965 199.658 612.325 198.506 612.325 196.97V187.178C612.325 187.002 612.373 186.866 612.469 186.77C612.581 186.658 612.717 186.602 612.877 186.602H614.125C614.285 186.602 614.413 186.658 614.509 186.77C614.621 186.882 614.677 187.018 614.677 187.178V196.922C614.677 199.178 614.109 200.866 612.973 201.986C611.853 203.09 610.261 203.642 608.197 203.642ZM624.738 203.642C622.594 203.642 620.962 203.066 619.842 201.914C618.738 200.762 618.146 199.17 618.066 197.138C618.05 196.706 618.042 196.002 618.042 195.026C618.042 194.034 618.05 193.314 618.066 192.866C618.146 190.85 618.746 189.266 619.866 188.114C620.986 186.946 622.61 186.362 624.738 186.362C626.162 186.362 627.37 186.618 628.362 187.13C629.354 187.626 630.106 188.282 630.618 189.098C631.13 189.914 631.41 190.786 631.458 191.714V191.762C631.458 191.89 631.402 192.002 631.29 192.098C631.194 192.178 631.082 192.218 630.954 192.218H629.634C629.314 192.218 629.114 192.034 629.034 191.666C628.762 190.466 628.274 189.626 627.57 189.146C626.866 188.65 625.922 188.402 624.738 188.402C621.986 188.402 620.562 189.93 620.466 192.986C620.45 193.418 620.442 194.082 620.442 194.978C620.442 195.874 620.45 196.554 620.466 197.018C620.562 200.074 621.986 201.602 624.738 201.602C625.922 201.602 626.866 201.362 627.57 200.882C628.29 200.386 628.778 199.538 629.034 198.338C629.082 198.13 629.154 197.986 629.25 197.906C629.346 197.826 629.474 197.786 629.634 197.786H630.954C631.098 197.786 631.218 197.834 631.314 197.93C631.426 198.01 631.474 198.122 631.458 198.266C631.41 199.21 631.13 200.09 630.618 200.906C630.106 201.722 629.354 202.386 628.362 202.898C627.37 203.394 626.162 203.642 624.738 203.642ZM638.898 203.402C638.738 203.402 638.602 203.354 638.49 203.258C638.394 203.146 638.346 203.01 638.346 202.85V188.738H633.738C633.578 188.738 633.442 188.69 633.33 188.594C633.234 188.482 633.186 188.346 633.186 188.186V187.178C633.186 187.018 633.234 186.882 633.33 186.77C633.442 186.658 633.578 186.602 633.738 186.602H645.306C645.482 186.602 645.618 186.658 645.714 186.77C645.826 186.866 645.882 187.002 645.882 187.178V188.186C645.882 188.346 645.826 188.482 645.714 188.594C645.602 188.69 645.466 188.738 645.306 188.738H640.722V202.85C640.722 203.01 640.666 203.146 640.554 203.258C640.442 203.354 640.306 203.402 640.146 203.402H638.898ZM649.124 203.402C648.964 203.402 648.828 203.354 648.716 203.258C648.62 203.146 648.572 203.01 648.572 202.85V187.154C648.572 186.994 648.62 186.866 648.716 186.77C648.828 186.658 648.964 186.602 649.124 186.602H650.396C650.556 186.602 650.684 186.658 650.78 186.77C650.892 186.866 650.948 186.994 650.948 187.154V202.85C650.948 203.01 650.892 203.146 650.78 203.258C650.684 203.354 650.556 203.402 650.396 203.402H649.124ZM661.183 203.642C659.087 203.642 657.463 203.098 656.311 202.01C655.175 200.906 654.575 199.25 654.511 197.042C654.495 196.562 654.487 195.882 654.487 195.002C654.487 194.122 654.495 193.45 654.511 192.986C654.575 190.826 655.199 189.186 656.383 188.066C657.567 186.93 659.167 186.362 661.183 186.362C663.183 186.362 664.775 186.93 665.959 188.066C667.143 189.186 667.767 190.826 667.831 192.986C667.863 193.914 667.879 194.586 667.879 195.002C667.879 195.402 667.863 196.082 667.831 197.042C667.767 199.25 667.159 200.906 666.007 202.01C664.871 203.098 663.263 203.642 661.183 203.642ZM661.183 201.602C662.447 201.602 663.455 201.218 664.207 200.45C664.959 199.682 665.367 198.506 665.431 196.922C665.463 195.962 665.479 195.322 665.479 195.002C665.479 194.65 665.463 194.01 665.431 193.082C665.367 191.498 664.951 190.322 664.183 189.554C663.431 188.786 662.431 188.402 661.183 188.402C659.919 188.402 658.903 188.786 658.135 189.554C657.383 190.322 656.975 191.498 656.911 193.082C656.895 193.546 656.887 194.186 656.887 195.002C656.887 195.802 656.895 196.442 656.911 196.922C656.975 198.506 657.383 199.682 658.135 200.45C658.903 201.218 659.919 201.602 661.183 201.602ZM671.929 203.402C671.769 203.402 671.633 203.354 671.521 203.258C671.425 203.146 671.377 203.01 671.377 202.85V187.178C671.377 187.002 671.425 186.866 671.521 186.77C671.633 186.658 671.769 186.602 671.929 186.602H673.033C673.321 186.602 673.521 186.714 673.633 186.938L681.601 199.178V187.178C681.601 187.002 681.649 186.866 681.745 186.77C681.857 186.658 681.993 186.602 682.153 186.602H683.305C683.481 186.602 683.617 186.658 683.713 186.77C683.825 186.866 683.881 187.002 683.881 187.178V202.826C683.881 202.986 683.825 203.122 683.713 203.234C683.617 203.346 683.489 203.402 683.329 203.402H682.177C681.937 203.402 681.745 203.29 681.601 203.066L673.657 190.946V202.85C673.657 203.01 673.601 203.146 673.489 203.258C673.377 203.354 673.241 203.402 673.081 203.402H671.929Z" fill="white"/>
<path d="M591.218 224.402C591.098 224.402 590.996 224.366 590.912 224.294C590.84 224.21 590.804 224.108 590.804 223.988V221.396H584.972C584.852 221.396 584.75 221.36 584.666 221.288C584.594 221.204 584.558 221.102 584.558 220.982V220.262C584.558 220.082 584.624 219.902 584.756 219.722L590.156 212.108C590.216 212.012 590.306 211.94 590.426 211.892C590.546 211.832 590.678 211.802 590.822 211.802H592.118C592.238 211.802 592.334 211.844 592.406 211.928C592.49 212 592.532 212.096 592.532 212.216V219.83H594.152C594.272 219.83 594.374 219.872 594.458 219.956C594.542 220.028 594.584 220.124 594.584 220.244V220.982C594.584 221.102 594.542 221.204 594.458 221.288C594.386 221.36 594.29 221.396 594.17 221.396H592.532V223.988C592.532 224.108 592.49 224.21 592.406 224.294C592.334 224.366 592.238 224.402 592.118 224.402H591.218ZM590.822 219.866V213.692L586.484 219.866H590.822ZM596.536 224.402C596.416 224.402 596.314 224.366 596.23 224.294C596.158 224.21 596.122 224.108 596.122 223.988V222.692C596.122 222.572 596.158 222.476 596.23 222.404C596.314 222.32 596.416 222.278 596.536 222.278H597.832C597.952 222.278 598.054 222.32 598.138 222.404C598.222 222.476 598.264 222.572 598.264 222.692V223.988C598.264 224.108 598.222 224.21 598.138 224.294C598.054 224.366 597.952 224.402 597.832 224.402H596.536ZM604.815 224.582C603.867 224.582 603.045 224.432 602.349 224.132C601.665 223.82 601.143 223.418 600.783 222.926C600.435 222.434 600.249 221.918 600.225 221.378C600.225 221.27 600.261 221.186 600.333 221.126C600.405 221.054 600.495 221.018 600.603 221.018H601.485C601.737 221.018 601.905 221.15 601.989 221.414C602.145 222.014 602.481 222.44 602.997 222.692C603.513 222.932 604.119 223.052 604.815 223.052C605.667 223.052 606.345 222.854 606.849 222.458C607.353 222.05 607.605 221.468 607.605 220.712C607.605 219.26 606.723 218.534 604.959 218.534H603.249C603.129 218.534 603.027 218.498 602.943 218.426C602.871 218.342 602.835 218.24 602.835 218.12V217.634C602.835 217.466 602.901 217.304 603.033 217.148L606.525 213.332H601.215C601.095 213.332 600.993 213.296 600.909 213.224C600.837 213.14 600.801 213.038 600.801 212.918V212.234C600.801 212.114 600.837 212.012 600.909 211.928C600.993 211.844 601.095 211.802 601.215 211.802H608.397C608.529 211.802 608.631 211.844 608.703 211.928C608.787 212 608.829 212.102 608.829 212.234V212.882C608.829 213.026 608.763 213.164 608.631 213.296L605.157 217.166L605.445 217.184C606.669 217.22 607.635 217.538 608.343 218.138C609.051 218.738 609.405 219.614 609.405 220.766C609.405 221.546 609.207 222.224 608.811 222.8C608.415 223.376 607.869 223.82 607.173 224.132C606.477 224.432 605.691 224.582 604.815 224.582ZM613.736 218.12C612.956 218.12 612.338 217.916 611.882 217.508C611.438 217.088 611.192 216.512 611.144 215.78C611.132 215.576 611.126 215.312 611.126 214.988C611.126 214.64 611.132 214.358 611.144 214.142C611.18 213.398 611.414 212.81 611.846 212.378C612.29 211.934 612.92 211.712 613.736 211.712C614.552 211.712 615.176 211.934 615.608 212.378C616.052 212.81 616.292 213.398 616.328 214.142C616.352 214.622 616.364 214.928 616.364 215.06C616.364 215.18 616.352 215.42 616.328 215.78C616.292 216.512 616.046 217.088 615.59 217.508C615.134 217.916 614.516 218.12 613.736 218.12ZM612.224 224.402C612.116 224.402 612.026 224.372 611.954 224.312C611.882 224.24 611.846 224.15 611.846 224.042C611.846 223.97 611.87 223.904 611.918 223.844L620.81 212.144C620.906 212.012 620.99 211.922 621.062 211.874C621.146 211.826 621.26 211.802 621.404 211.802H621.998C622.118 211.802 622.208 211.838 622.268 211.91C622.34 211.97 622.376 212.054 622.376 212.162C622.376 212.234 622.352 212.3 622.304 212.36L613.43 224.06C613.334 224.192 613.244 224.282 613.16 224.33C613.088 224.378 612.974 224.402 612.818 224.402H612.224ZM613.736 217.004C614.168 217.004 614.48 216.878 614.672 216.626C614.876 216.374 614.996 216.068 615.032 215.708C615.056 215.276 615.068 215.024 615.068 214.952C615.068 214.844 615.056 214.598 615.032 214.214C615.008 213.842 614.888 213.53 614.672 213.278C614.468 213.026 614.156 212.9 613.736 212.9C613.316 212.9 613.004 213.026 612.8 213.278C612.596 213.53 612.482 213.842 612.458 214.214C612.446 214.406 612.44 214.652 612.44 214.952C612.44 215.24 612.446 215.492 612.458 215.708C612.494 216.08 612.608 216.392 612.8 216.644C613.004 216.884 613.316 217.004 613.736 217.004ZM620.468 224.51C619.688 224.51 619.07 224.294 618.614 223.862C618.17 223.418 617.924 222.83 617.876 222.098C617.864 221.894 617.858 221.63 617.858 221.306C617.858 220.958 617.864 220.676 617.876 220.46C617.924 219.716 618.164 219.128 618.596 218.696C619.04 218.252 619.664 218.03 620.468 218.03C621.284 218.03 621.908 218.252 622.34 218.696C622.784 219.128 623.03 219.716 623.078 220.46C623.102 220.892 623.114 221.174 623.114 221.306C623.114 221.426 623.102 221.69 623.078 222.098C623.03 222.83 622.778 223.418 622.322 223.862C621.866 224.294 621.248 224.51 620.468 224.51ZM620.468 223.322C620.9 223.322 621.212 223.196 621.404 222.944C621.608 222.692 621.728 222.386 621.764 222.026C621.788 221.594 621.8 221.342 621.8 221.27C621.8 221.162 621.788 220.916 621.764 220.532C621.74 220.16 621.626 219.848 621.422 219.596C621.218 219.344 620.9 219.218 620.468 219.218C620.048 219.218 619.736 219.344 619.532 219.596C619.328 219.848 619.214 220.16 619.19 220.532C619.178 220.724 619.172 220.97 619.172 221.27C619.172 221.558 619.178 221.81 619.19 222.026C619.226 222.386 619.34 222.692 619.532 222.944C619.736 223.196 620.048 223.322 620.468 223.322Z" fill="#797979"/>
<path d="M598.488 658.24C597.16 658.24 596.008 658.032 595.032 657.616C594.072 657.2 593.336 656.656 592.824 655.984C592.312 655.296 592.04 654.56 592.008 653.776C592.008 653.648 592.056 653.536 592.152 653.44C592.264 653.328 592.392 653.272 592.536 653.272H593.76C594.064 653.272 594.272 653.432 594.384 653.752C594.528 654.424 594.936 655 595.608 655.48C596.296 655.96 597.256 656.2 598.488 656.2C599.816 656.2 600.816 655.968 601.488 655.504C602.16 655.024 602.496 654.36 602.496 653.512C602.496 652.968 602.328 652.528 601.992 652.192C601.672 651.856 601.192 651.56 600.552 651.304C599.912 651.048 598.952 650.728 597.672 650.344C596.424 649.992 595.432 649.616 594.696 649.216C593.96 648.816 593.408 648.32 593.04 647.728C592.672 647.136 592.488 646.392 592.488 645.496C592.488 644.632 592.72 643.856 593.184 643.168C593.664 642.48 594.344 641.944 595.224 641.56C596.104 641.16 597.152 640.96 598.368 640.96C599.616 640.96 600.688 641.184 601.584 641.632C602.48 642.064 603.16 642.616 603.624 643.288C604.088 643.96 604.336 644.632 604.368 645.304C604.368 645.432 604.32 645.544 604.224 645.64C604.144 645.736 604.024 645.784 603.864 645.784H602.592C602.256 645.784 602.048 645.632 601.968 645.328C601.872 644.656 601.496 644.104 600.84 643.672C600.184 643.224 599.36 643 598.368 643C597.28 643 596.424 643.208 595.8 643.624C595.176 644.04 594.864 644.656 594.864 645.472C594.864 646.016 595.008 646.464 595.296 646.816C595.6 647.168 596.056 647.48 596.664 647.752C597.272 648.008 598.16 648.304 599.328 648.64C600.688 649.008 601.76 649.392 602.544 649.792C603.328 650.176 603.912 650.664 604.296 651.256C604.68 651.832 604.872 652.568 604.872 653.464C604.872 654.952 604.296 656.12 603.144 656.968C601.992 657.816 600.44 658.24 598.488 658.24ZM608.57 658C608.41 658 608.274 657.952 608.162 657.856C608.066 657.744 608.018 657.608 608.018 657.448V641.776C608.018 641.6 608.066 641.464 608.162 641.368C608.274 641.256 608.41 641.2 608.57 641.2H618.482C618.642 641.2 618.77 641.256 618.866 641.368C618.978 641.464 619.034 641.6 619.034 641.776V642.688C619.034 642.848 618.986 642.984 618.89 643.096C618.794 643.192 618.658 643.24 618.482 643.24H610.322V648.496H617.954C618.114 648.496 618.242 648.552 618.338 648.664C618.45 648.76 618.506 648.896 618.506 649.072V649.96C618.506 650.12 618.45 650.256 618.338 650.368C618.242 650.464 618.114 650.512 617.954 650.512H610.322V655.96H618.674C618.85 655.96 618.986 656.008 619.082 656.104C619.178 656.2 619.226 656.336 619.226 656.512V657.448C619.226 657.608 619.17 657.744 619.058 657.856C618.962 657.952 618.834 658 618.674 658H608.57ZM623.124 658C622.964 658 622.828 657.952 622.716 657.856C622.62 657.744 622.572 657.608 622.572 657.448V641.776C622.572 641.6 622.62 641.464 622.716 641.368C622.828 641.256 622.964 641.2 623.124 641.2H633.036C633.196 641.2 633.324 641.256 633.42 641.368C633.532 641.464 633.588 641.6 633.588 641.776V642.688C633.588 642.848 633.54 642.984 633.444 643.096C633.348 643.192 633.212 643.24 633.036 643.24H624.876V648.496H632.508C632.668 648.496 632.796 648.552 632.892 648.664C633.004 648.76 633.06 648.896 633.06 649.072V649.96C633.06 650.12 633.004 650.256 632.892 650.368C632.796 650.464 632.668 650.512 632.508 650.512H624.876V655.96H633.228C633.404 655.96 633.54 656.008 633.636 656.104C633.732 656.2 633.78 656.336 633.78 656.512V657.448C633.78 657.608 633.724 657.744 633.612 657.856C633.516 657.952 633.388 658 633.228 658H623.124ZM637.679 658C637.519 658 637.383 657.952 637.271 657.856C637.175 657.744 637.127 657.608 637.127 657.448V641.776C637.127 641.6 637.175 641.464 637.271 641.368C637.383 641.256 637.519 641.2 637.679 641.2H643.127C645.543 641.2 647.287 641.744 648.359 642.832C649.431 643.904 649.991 645.528 650.039 647.704C650.055 648.168 650.063 648.792 650.063 649.576C650.063 650.36 650.055 650.992 650.039 651.472C649.991 652.992 649.735 654.232 649.271 655.192C648.823 656.136 648.111 656.84 647.135 657.304C646.159 657.768 644.863 658 643.247 658H637.679ZM643.127 655.96C644.231 655.96 645.103 655.808 645.743 655.504C646.399 655.2 646.871 654.72 647.159 654.064C647.463 653.392 647.631 652.496 647.663 651.376C647.695 650.416 647.711 649.816 647.711 649.576C647.711 649.32 647.695 648.728 647.663 647.8C647.631 646.216 647.255 645.064 646.535 644.344C645.815 643.608 644.639 643.24 643.007 643.24H639.479V655.96H643.127ZM660.109 658C659.949 658 659.813 657.952 659.701 657.856C659.605 657.744 659.557 657.608 659.557 657.448V641.776C659.557 641.6 659.605 641.464 659.701 641.368C659.813 641.256 659.949 641.2 660.109 641.2H665.965C667.805 641.2 669.245 641.632 670.285 642.496C671.325 643.36 671.845 644.608 671.845 646.24C671.845 647.456 671.541 648.456 670.933 649.24C670.341 650.024 669.501 650.568 668.413 650.872L672.109 657.256C672.157 657.352 672.181 657.44 672.181 657.52C672.181 657.648 672.125 657.76 672.013 657.856C671.917 657.952 671.805 658 671.677 658H670.525C670.285 658 670.093 657.944 669.949 657.832C669.821 657.72 669.701 657.56 669.589 657.352L666.109 651.256H661.909V657.448C661.909 657.608 661.853 657.744 661.741 657.856C661.629 657.952 661.493 658 661.333 658H660.109ZM665.869 649.216C668.253 649.216 669.445 648.216 669.445 646.216C669.445 644.216 668.253 643.216 665.869 643.216H661.909V649.216H665.869ZM681.308 658.24C679.212 658.24 677.588 657.696 676.436 656.608C675.3 655.504 674.7 653.848 674.636 651.64C674.62 651.16 674.612 650.48 674.612 649.6C674.612 648.72 674.62 648.048 674.636 647.584C674.7 645.424 675.324 643.784 676.508 642.664C677.692 641.528 679.292 640.96 681.308 640.96C683.308 640.96 684.9 641.528 686.084 642.664C687.268 643.784 687.892 645.424 687.956 647.584C687.988 648.512 688.004 649.184 688.004 649.6C688.004 650 687.988 650.68 687.956 651.64C687.892 653.848 687.284 655.504 686.132 656.608C684.996 657.696 683.388 658.24 681.308 658.24ZM681.308 656.2C682.572 656.2 683.58 655.816 684.332 655.048C685.084 654.28 685.492 653.104 685.556 651.52C685.588 650.56 685.604 649.92 685.604 649.6C685.604 649.248 685.588 648.608 685.556 647.68C685.492 646.096 685.076 644.92 684.308 644.152C683.556 643.384 682.556 643 681.308 643C680.044 643 679.028 643.384 678.26 644.152C677.508 644.92 677.1 646.096 677.036 647.68C677.02 648.144 677.012 648.784 677.012 649.6C677.012 650.4 677.02 651.04 677.036 651.52C677.1 653.104 677.508 654.28 678.26 655.048C679.028 655.816 680.044 656.2 681.308 656.2ZM697.838 658.24C695.774 658.24 694.174 657.688 693.038 656.584C691.918 655.464 691.358 653.776 691.358 651.52V641.776C691.358 641.6 691.406 641.464 691.502 641.368C691.614 641.256 691.75 641.2 691.91 641.2H693.134C693.31 641.2 693.446 641.256 693.542 641.368C693.654 641.464 693.71 641.6 693.71 641.776V651.568C693.71 653.104 694.07 654.256 694.79 655.024C695.51 655.792 696.526 656.176 697.838 656.176C699.15 656.176 700.166 655.792 700.886 655.024C701.606 654.256 701.966 653.104 701.966 651.568V641.776C701.966 641.6 702.014 641.464 702.11 641.368C702.222 641.256 702.358 641.2 702.518 641.2H703.766C703.926 641.2 704.054 641.256 704.15 641.368C704.262 641.48 704.318 641.616 704.318 641.776V651.52C704.318 653.776 703.75 655.464 702.614 656.584C701.494 657.688 699.902 658.24 697.838 658.24ZM708.882 658C708.722 658 708.586 657.952 708.474 657.856C708.378 657.744 708.33 657.608 708.33 657.448V641.776C708.33 641.6 708.378 641.464 708.474 641.368C708.586 641.256 708.722 641.2 708.882 641.2H709.986C710.274 641.2 710.474 641.312 710.586 641.536L718.554 653.776V641.776C718.554 641.6 718.602 641.464 718.698 641.368C718.81 641.256 718.946 641.2 719.106 641.2H720.258C720.434 641.2 720.57 641.256 720.666 641.368C720.778 641.464 720.834 641.6 720.834 641.776V657.424C720.834 657.584 720.778 657.72 720.666 657.832C720.57 657.944 720.442 658 720.282 658H719.13C718.89 658 718.698 657.888 718.554 657.664L710.61 645.544V657.448C710.61 657.608 710.554 657.744 710.442 657.856C710.33 657.952 710.194 658 710.034 658H708.882ZM725.57 658C725.41 658 725.274 657.952 725.162 657.856C725.066 657.744 725.018 657.608 725.018 657.448V641.776C725.018 641.6 725.066 641.464 725.162 641.368C725.274 641.256 725.41 641.2 725.57 641.2H731.018C733.434 641.2 735.178 641.744 736.25 642.832C737.322 643.904 737.882 645.528 737.93 647.704C737.946 648.168 737.954 648.792 737.954 649.576C737.954 650.36 737.946 650.992 737.93 651.472C737.882 652.992 737.626 654.232 737.162 655.192C736.714 656.136 736.002 656.84 735.026 657.304C734.05 657.768 732.754 658 731.138 658H725.57ZM731.018 655.96C732.122 655.96 732.994 655.808 733.634 655.504C734.29 655.2 734.762 654.72 735.05 654.064C735.354 653.392 735.522 652.496 735.554 651.376C735.586 650.416 735.602 649.816 735.602 649.576C735.602 649.32 735.586 648.728 735.554 647.8C735.522 646.216 735.146 645.064 734.426 644.344C733.706 643.608 732.53 643.24 730.898 643.24H727.37V655.96H731.018Z" fill="white"/>
<path d="M598.218 679C598.098 679 597.996 678.964 597.912 678.892C597.84 678.808 597.804 678.706 597.804 678.586V675.994H591.972C591.852 675.994 591.75 675.958 591.666 675.886C591.594 675.802 591.558 675.7 591.558 675.58V674.86C591.558 674.68 591.624 674.5 591.756 674.32L597.156 666.706C597.216 666.61 597.306 666.538 597.426 666.49C597.546 666.43 597.678 666.4 597.822 666.4H599.118C599.238 666.4 599.334 666.442 599.406 666.526C599.49 666.598 599.532 666.694 599.532 666.814V674.428H601.152C601.272 674.428 601.374 674.47 601.458 674.554C601.542 674.626 601.584 674.722 601.584 674.842V675.58C601.584 675.7 601.542 675.802 601.458 675.886C601.386 675.958 601.29 675.994 601.17 675.994H599.532V678.586C599.532 678.706 599.49 678.808 599.406 678.892C599.334 678.964 599.238 679 599.118 679H598.218ZM597.822 674.464V668.29L593.484 674.464H597.822ZM603.476 679C603.356 679 603.254 678.964 603.17 678.892C603.098 678.808 603.062 678.706 603.062 678.586V678.01C603.062 677.734 603.212 677.47 603.512 677.218L607.328 673.402C608.252 672.634 608.888 672.01 609.236 671.53C609.584 671.038 609.758 670.522 609.758 669.982C609.758 669.286 609.56 668.74 609.164 668.344C608.78 667.948 608.216 667.75 607.472 667.75C606.776 667.75 606.218 667.96 605.798 668.38C605.378 668.788 605.12 669.334 605.024 670.018C605 670.162 604.94 670.27 604.844 670.342C604.76 670.402 604.664 670.432 604.556 670.432H603.62C603.512 670.432 603.422 670.402 603.35 670.342C603.278 670.27 603.242 670.186 603.242 670.09C603.266 669.442 603.44 668.824 603.764 668.236C604.088 667.636 604.562 667.15 605.186 666.778C605.822 666.394 606.584 666.202 607.472 666.202C608.828 666.202 609.848 666.556 610.532 667.264C611.228 667.96 611.576 668.848 611.576 669.928C611.576 670.684 611.384 671.368 611 671.98C610.628 672.58 610.046 673.228 609.254 673.924L605.798 677.434H611.414C611.546 677.434 611.648 677.476 611.72 677.56C611.804 677.632 611.846 677.728 611.846 677.848V678.586C611.846 678.706 611.804 678.808 611.72 678.892C611.636 678.964 611.534 679 611.414 679H603.476ZM614.364 679C614.244 679 614.142 678.964 614.058 678.892C613.986 678.808 613.95 678.706 613.95 678.586V677.29C613.95 677.17 613.986 677.074 614.058 677.002C614.142 676.918 614.244 676.876 614.364 676.876H615.66C615.78 676.876 615.882 676.918 615.966 677.002C616.05 677.074 616.092 677.17 616.092 677.29V678.586C616.092 678.706 616.05 678.808 615.966 678.892C615.882 678.964 615.78 679 615.66 679H614.364ZM619.416 679C619.308 679 619.218 678.964 619.146 678.892C619.086 678.808 619.056 678.712 619.056 678.604L619.092 678.442L623.574 667.966H617.67C617.55 667.966 617.448 667.93 617.364 667.858C617.292 667.774 617.256 667.672 617.256 667.552V666.832C617.256 666.7 617.292 666.598 617.364 666.526C617.448 666.442 617.55 666.4 617.67 666.4H625.05C625.182 666.4 625.284 666.442 625.356 666.526C625.44 666.598 625.482 666.7 625.482 666.832V667.498C625.482 667.714 625.434 667.948 625.338 668.2L620.91 678.55C620.85 678.682 620.778 678.79 620.694 678.874C620.622 678.958 620.52 679 620.388 679H619.416ZM629.437 672.718C628.657 672.718 628.039 672.514 627.583 672.106C627.139 671.686 626.893 671.11 626.845 670.378C626.833 670.174 626.827 669.91 626.827 669.586C626.827 669.238 626.833 668.956 626.845 668.74C626.881 667.996 627.115 667.408 627.547 666.976C627.991 666.532 628.621 666.31 629.437 666.31C630.253 666.31 630.877 666.532 631.309 666.976C631.753 667.408 631.993 667.996 632.029 668.74C632.053 669.22 632.065 669.526 632.065 669.658C632.065 669.778 632.053 670.018 632.029 670.378C631.993 671.11 631.747 671.686 631.291 672.106C630.835 672.514 630.217 672.718 629.437 672.718ZM627.925 679C627.817 679 627.727 678.97 627.655 678.91C627.583 678.838 627.547 678.748 627.547 678.64C627.547 678.568 627.571 678.502 627.619 678.442L636.511 666.742C636.607 666.61 636.691 666.52 636.763 666.472C636.847 666.424 636.961 666.4 637.105 666.4H637.699C637.819 666.4 637.909 666.436 637.969 666.508C638.041 666.568 638.077 666.652 638.077 666.76C638.077 666.832 638.053 666.898 638.005 666.958L629.131 678.658C629.035 678.79 628.945 678.88 628.861 678.928C628.789 678.976 628.675 679 628.519 679H627.925ZM629.437 671.602C629.869 671.602 630.181 671.476 630.373 671.224C630.577 670.972 630.697 670.666 630.733 670.306C630.757 669.874 630.769 669.622 630.769 669.55C630.769 669.442 630.757 669.196 630.733 668.812C630.709 668.44 630.589 668.128 630.373 667.876C630.169 667.624 629.857 667.498 629.437 667.498C629.017 667.498 628.705 667.624 628.501 667.876C628.297 668.128 628.183 668.44 628.159 668.812C628.147 669.004 628.141 669.25 628.141 669.55C628.141 669.838 628.147 670.09 628.159 670.306C628.195 670.678 628.309 670.99 628.501 671.242C628.705 671.482 629.017 671.602 629.437 671.602ZM636.169 679.108C635.389 679.108 634.771 678.892 634.315 678.46C633.871 678.016 633.625 677.428 633.577 676.696C633.565 676.492 633.559 676.228 633.559 675.904C633.559 675.556 633.565 675.274 633.577 675.058C633.625 674.314 633.865 673.726 634.297 673.294C634.741 672.85 635.365 672.628 636.169 672.628C636.985 672.628 637.609 672.85 638.041 673.294C638.485 673.726 638.731 674.314 638.779 675.058C638.803 675.49 638.815 675.772 638.815 675.904C638.815 676.024 638.803 676.288 638.779 676.696C638.731 677.428 638.479 678.016 638.023 678.46C637.567 678.892 636.949 679.108 636.169 679.108ZM636.169 677.92C636.601 677.92 636.913 677.794 637.105 677.542C637.309 677.29 637.429 676.984 637.465 676.624C637.489 676.192 637.501 675.94 637.501 675.868C637.501 675.76 637.489 675.514 637.465 675.13C637.441 674.758 637.327 674.446 637.123 674.194C636.919 673.942 636.601 673.816 636.169 673.816C635.749 673.816 635.437 673.942 635.233 674.194C635.029 674.446 634.915 674.758 634.891 675.13C634.879 675.322 634.873 675.568 634.873 675.868C634.873 676.156 634.879 676.408 634.891 676.624C634.927 676.984 635.041 677.29 635.233 677.542C635.437 677.794 635.749 677.92 636.169 677.92Z" fill="#797979"/>
<path d="M26.64 663C26.48 663 26.344 662.952 26.232 662.856C26.136 662.744 26.088 662.608 26.088 662.448V646.776C26.088 646.6 26.136 646.464 26.232 646.368C26.344 646.256 26.48 646.2 26.64 646.2H36.432C36.608 646.2 36.744 646.256 36.84 646.368C36.952 646.464 37.008 646.6 37.008 646.776V647.736C37.008 647.896 36.952 648.032 36.84 648.144C36.744 648.24 36.608 648.288 36.432 648.288H28.416V653.88H35.952C36.128 653.88 36.264 653.936 36.36 654.048C36.472 654.144 36.528 654.28 36.528 654.456V655.416C36.528 655.576 36.472 655.712 36.36 655.824C36.248 655.92 36.112 655.968 35.952 655.968H28.416V662.448C28.416 662.608 28.36 662.744 28.248 662.856C28.136 662.952 28 663 27.84 663H26.64ZM46.0344 663.24C43.9384 663.24 42.3144 662.696 41.1624 661.608C40.0264 660.504 39.4264 658.848 39.3624 656.64C39.3464 656.16 39.3384 655.48 39.3384 654.6C39.3384 653.72 39.3464 653.048 39.3624 652.584C39.4264 650.424 40.0504 648.784 41.2344 647.664C42.4184 646.528 44.0184 645.96 46.0344 645.96C48.0344 645.96 49.6264 646.528 50.8104 647.664C51.9944 648.784 52.6184 650.424 52.6824 652.584C52.7144 653.512 52.7304 654.184 52.7304 654.6C52.7304 655 52.7144 655.68 52.6824 656.64C52.6184 658.848 52.0104 660.504 50.8584 661.608C49.7224 662.696 48.1144 663.24 46.0344 663.24ZM46.0344 661.2C47.2984 661.2 48.3064 660.816 49.0584 660.048C49.8104 659.28 50.2184 658.104 50.2824 656.52C50.3144 655.56 50.3304 654.92 50.3304 654.6C50.3304 654.248 50.3144 653.608 50.2824 652.68C50.2184 651.096 49.8024 649.92 49.0344 649.152C48.2824 648.384 47.2824 648 46.0344 648C44.7704 648 43.7544 648.384 42.9864 649.152C42.2344 649.92 41.8264 651.096 41.7624 652.68C41.7464 653.144 41.7384 653.784 41.7384 654.6C41.7384 655.4 41.7464 656.04 41.7624 656.52C41.8264 658.104 42.2344 659.28 42.9864 660.048C43.7544 660.816 44.7704 661.2 46.0344 661.2ZM62.5646 663.24C60.5006 663.24 58.9006 662.688 57.7646 661.584C56.6446 660.464 56.0846 658.776 56.0846 656.52V646.776C56.0846 646.6 56.1326 646.464 56.2286 646.368C56.3406 646.256 56.4766 646.2 56.6366 646.2H57.8606C58.0366 646.2 58.1726 646.256 58.2686 646.368C58.3806 646.464 58.4366 646.6 58.4366 646.776V656.568C58.4366 658.104 58.7966 659.256 59.5166 660.024C60.2366 660.792 61.2526 661.176 62.5646 661.176C63.8766 661.176 64.8926 660.792 65.6126 660.024C66.3326 659.256 66.6926 658.104 66.6926 656.568V646.776C66.6926 646.6 66.7406 646.464 66.8366 646.368C66.9486 646.256 67.0846 646.2 67.2446 646.2H68.4926C68.6526 646.2 68.7806 646.256 68.8766 646.368C68.9886 646.48 69.0446 646.616 69.0446 646.776V656.52C69.0446 658.776 68.4766 660.464 67.3406 661.584C66.2206 662.688 64.6286 663.24 62.5646 663.24ZM73.6088 663C73.4488 663 73.3128 662.952 73.2008 662.856C73.1048 662.744 73.0568 662.608 73.0568 662.448V646.776C73.0568 646.6 73.1048 646.464 73.2008 646.368C73.3128 646.256 73.4488 646.2 73.6088 646.2H74.7128C75.0008 646.2 75.2008 646.312 75.3128 646.536L83.2808 658.776V646.776C83.2808 646.6 83.3288 646.464 83.4248 646.368C83.5368 646.256 83.6728 646.2 83.8328 646.2H84.9848C85.1608 646.2 85.2968 646.256 85.3928 646.368C85.5048 646.464 85.5608 646.6 85.5608 646.776V662.424C85.5608 662.584 85.5048 662.72 85.3928 662.832C85.2968 662.944 85.1688 663 85.0088 663H83.8568C83.6168 663 83.4248 662.888 83.2808 662.664L75.3368 650.544V662.448C75.3368 662.608 75.2808 662.744 75.1688 662.856C75.0568 662.952 74.9208 663 74.7608 663H73.6088ZM90.2963 663C90.1363 663 90.0003 662.952 89.8883 662.856C89.7923 662.744 89.7443 662.608 89.7443 662.448V646.776C89.7443 646.6 89.7923 646.464 89.8883 646.368C90.0003 646.256 90.1363 646.2 90.2963 646.2H95.7443C98.1603 646.2 99.9043 646.744 100.976 647.832C102.048 648.904 102.608 650.528 102.656 652.704C102.672 653.168 102.68 653.792 102.68 654.576C102.68 655.36 102.672 655.992 102.656 656.472C102.608 657.992 102.352 659.232 101.888 660.192C101.44 661.136 100.728 661.84 99.7523 662.304C98.7763 662.768 97.4803 663 95.8643 663H90.2963ZM95.7443 660.96C96.8483 660.96 97.7203 660.808 98.3603 660.504C99.0163 660.2 99.4883 659.72 99.7762 659.064C100.08 658.392 100.248 657.496 100.28 656.376C100.312 655.416 100.328 654.816 100.328 654.576C100.328 654.32 100.312 653.728 100.28 652.8C100.248 651.216 99.8723 650.064 99.1523 649.344C98.4323 648.608 97.2563 648.24 95.6243 648.24H92.0963V660.96H95.7443ZM106.843 663C106.683 663 106.547 662.952 106.435 662.856C106.339 662.744 106.291 662.608 106.291 662.448V646.752C106.291 646.592 106.339 646.464 106.435 646.368C106.547 646.256 106.683 646.2 106.843 646.2H108.115C108.275 646.2 108.403 646.256 108.499 646.368C108.611 646.464 108.667 646.592 108.667 646.752V662.448C108.667 662.608 108.611 662.744 108.499 662.856C108.403 662.952 108.275 663 108.115 663H106.843ZM113.406 663C113.246 663 113.11 662.952 112.998 662.856C112.902 662.744 112.854 662.608 112.854 662.448V646.776C112.854 646.6 112.902 646.464 112.998 646.368C113.11 646.256 113.246 646.2 113.406 646.2H114.51C114.798 646.2 114.998 646.312 115.11 646.536L123.078 658.776V646.776C123.078 646.6 123.126 646.464 123.222 646.368C123.334 646.256 123.47 646.2 123.63 646.2H124.782C124.958 646.2 125.094 646.256 125.19 646.368C125.302 646.464 125.358 646.6 125.358 646.776V662.424C125.358 662.584 125.302 662.72 125.19 662.832C125.094 662.944 124.966 663 124.806 663H123.654C123.414 663 123.222 662.888 123.078 662.664L115.134 650.544V662.448C115.134 662.608 115.078 662.744 114.966 662.856C114.854 662.952 114.718 663 114.558 663H113.406ZM135.661 663.24C133.565 663.24 131.933 662.672 130.765 661.536C129.613 660.384 128.997 658.816 128.917 656.832C128.901 656.352 128.893 655.6 128.893 654.576C128.893 653.536 128.901 652.784 128.917 652.32C128.997 650.352 129.621 648.8 130.789 647.664C131.957 646.528 133.581 645.96 135.661 645.96C137.069 645.96 138.261 646.216 139.237 646.728C140.229 647.224 140.973 647.832 141.469 648.552C141.965 649.272 142.229 649.944 142.261 650.568V650.616C142.261 650.744 142.213 650.848 142.117 650.928C142.021 651.008 141.901 651.048 141.757 651.048H140.341C140.181 651.048 140.061 651.024 139.981 650.976C139.917 650.912 139.853 650.792 139.789 650.616C139.549 649.896 139.085 649.28 138.397 648.768C137.725 648.256 136.813 648 135.661 648C134.333 648 133.293 648.36 132.541 649.08C131.789 649.8 131.381 650.92 131.317 652.44C131.301 652.904 131.293 653.616 131.293 654.576C131.293 655.52 131.301 656.232 131.317 656.712C131.381 658.248 131.789 659.384 132.541 660.12C133.293 660.84 134.333 661.2 135.661 661.2C137.005 661.2 138.077 660.832 138.877 660.096C139.677 659.36 140.077 658.256 140.077 656.784V655.776H136.477C136.317 655.776 136.181 655.728 136.069 655.632C135.973 655.52 135.925 655.376 135.925 655.2V654.432C135.925 654.272 135.973 654.136 136.069 654.024C136.181 653.912 136.317 653.856 136.477 653.856H141.901C142.061 653.856 142.189 653.912 142.285 654.024C142.397 654.12 142.453 654.256 142.453 654.432V656.736C142.453 658.048 142.181 659.192 141.637 660.168C141.093 661.144 140.309 661.904 139.285 662.448C138.261 662.976 137.053 663.24 135.661 663.24ZM152.312 663C152.152 663 152.016 662.952 151.904 662.856C151.808 662.744 151.76 662.608 151.76 662.448V646.776C151.76 646.6 151.808 646.464 151.904 646.368C152.016 646.256 152.152 646.2 152.312 646.2H158.168C160.008 646.2 161.448 646.632 162.488 647.496C163.528 648.36 164.048 649.608 164.048 651.24C164.048 652.456 163.744 653.456 163.136 654.24C162.544 655.024 161.704 655.568 160.616 655.872L164.312 662.256C164.36 662.352 164.384 662.44 164.384 662.52C164.384 662.648 164.328 662.76 164.216 662.856C164.12 662.952 164.008 663 163.88 663H162.728C162.488 663 162.296 662.944 162.152 662.832C162.024 662.72 161.904 662.56 161.792 662.352L158.312 656.256H154.112V662.448C154.112 662.608 154.056 662.744 153.944 662.856C153.832 662.952 153.696 663 153.536 663H152.312ZM158.072 654.216C160.456 654.216 161.648 653.216 161.648 651.216C161.648 649.216 160.456 648.216 158.072 648.216H154.112V654.216H158.072ZM173.511 663.24C171.415 663.24 169.791 662.696 168.639 661.608C167.503 660.504 166.903 658.848 166.839 656.64C166.823 656.16 166.815 655.48 166.815 654.6C166.815 653.72 166.823 653.048 166.839 652.584C166.903 650.424 167.527 648.784 168.711 647.664C169.895 646.528 171.495 645.96 173.511 645.96C175.511 645.96 177.103 646.528 178.287 647.664C179.471 648.784 180.095 650.424 180.159 652.584C180.191 653.512 180.207 654.184 180.207 654.6C180.207 655 180.191 655.68 180.159 656.64C180.095 658.848 179.487 660.504 178.335 661.608C177.199 662.696 175.591 663.24 173.511 663.24ZM173.511 661.2C174.775 661.2 175.783 660.816 176.535 660.048C177.287 659.28 177.695 658.104 177.759 656.52C177.791 655.56 177.807 654.92 177.807 654.6C177.807 654.248 177.791 653.608 177.759 652.68C177.695 651.096 177.279 649.92 176.511 649.152C175.759 648.384 174.759 648 173.511 648C172.247 648 171.231 648.384 170.463 649.152C169.711 649.92 169.303 651.096 169.239 652.68C169.223 653.144 169.215 653.784 169.215 654.6C169.215 655.4 169.223 656.04 169.239 656.52C169.303 658.104 169.711 659.28 170.463 660.048C171.231 660.816 172.247 661.2 173.511 661.2ZM190.041 663.24C187.977 663.24 186.377 662.688 185.241 661.584C184.121 660.464 183.561 658.776 183.561 656.52V646.776C183.561 646.6 183.609 646.464 183.705 646.368C183.817 646.256 183.953 646.2 184.113 646.2H185.337C185.513 646.2 185.649 646.256 185.745 646.368C185.857 646.464 185.913 646.6 185.913 646.776V656.568C185.913 658.104 186.273 659.256 186.993 660.024C187.713 660.792 188.729 661.176 190.041 661.176C191.353 661.176 192.369 660.792 193.089 660.024C193.809 659.256 194.169 658.104 194.169 656.568V646.776C194.169 646.6 194.217 646.464 194.313 646.368C194.425 646.256 194.561 646.2 194.721 646.2H195.969C196.129 646.2 196.257 646.256 196.353 646.368C196.465 646.48 196.521 646.616 196.521 646.776V656.52C196.521 658.776 195.953 660.464 194.817 661.584C193.697 662.688 192.105 663.24 190.041 663.24ZM201.085 663C200.925 663 200.789 662.952 200.677 662.856C200.581 662.744 200.533 662.608 200.533 662.448V646.776C200.533 646.6 200.581 646.464 200.677 646.368C200.789 646.256 200.925 646.2 201.085 646.2H202.189C202.477 646.2 202.677 646.312 202.789 646.536L210.757 658.776V646.776C210.757 646.6 210.805 646.464 210.901 646.368C211.013 646.256 211.149 646.2 211.309 646.2H212.461C212.637 646.2 212.773 646.256 212.869 646.368C212.981 646.464 213.037 646.6 213.037 646.776V662.424C213.037 662.584 212.981 662.72 212.869 662.832C212.773 662.944 212.645 663 212.485 663H211.333C211.093 663 210.901 662.888 210.757 662.664L202.813 650.544V662.448C202.813 662.608 202.757 662.744 202.645 662.856C202.533 662.952 202.397 663 202.237 663H201.085ZM217.773 663C217.613 663 217.477 662.952 217.365 662.856C217.269 662.744 217.221 662.608 217.221 662.448V646.776C217.221 646.6 217.269 646.464 217.365 646.368C217.477 646.256 217.613 646.2 217.773 646.2H223.221C225.637 646.2 227.381 646.744 228.453 647.832C229.525 648.904 230.085 650.528 230.133 652.704C230.149 653.168 230.157 653.792 230.157 654.576C230.157 655.36 230.149 655.992 230.133 656.472C230.085 657.992 229.829 659.232 229.365 660.192C228.917 661.136 228.205 661.84 227.229 662.304C226.253 662.768 224.957 663 223.341 663H217.773ZM223.221 660.96C224.325 660.96 225.197 660.808 225.837 660.504C226.493 660.2 226.965 659.72 227.253 659.064C227.557 658.392 227.725 657.496 227.757 656.376C227.789 655.416 227.805 654.816 227.805 654.576C227.805 654.32 227.789 653.728 227.757 652.8C227.725 651.216 227.349 650.064 226.629 649.344C225.909 648.608 224.733 648.24 223.101 648.24H219.573V660.96H223.221Z" fill="white"/>
<path d="M29.364 684.18C28.416 684.18 27.594 684.03 26.898 683.73C26.214 683.418 25.692 683.016 25.332 682.524C24.984 682.032 24.798 681.516 24.774 680.976C24.774 680.868 24.81 680.784 24.882 680.724C24.954 680.652 25.044 680.616 25.152 680.616H26.034C26.286 680.616 26.454 680.748 26.538 681.012C26.694 681.612 27.03 682.038 27.546 682.29C28.062 682.53 28.668 682.65 29.364 682.65C30.216 682.65 30.894 682.452 31.398 682.056C31.902 681.648 32.154 681.066 32.154 680.31C32.154 678.858 31.272 678.132 29.508 678.132H27.798C27.678 678.132 27.576 678.096 27.492 678.024C27.42 677.94 27.384 677.838 27.384 677.718V677.232C27.384 677.064 27.45 676.902 27.582 676.746L31.074 672.93H25.764C25.644 672.93 25.542 672.894 25.458 672.822C25.386 672.738 25.35 672.636 25.35 672.516V671.832C25.35 671.712 25.386 671.61 25.458 671.526C25.542 671.442 25.644 671.4 25.764 671.4H32.946C33.078 671.4 33.18 671.442 33.252 671.526C33.336 671.598 33.378 671.7 33.378 671.832V672.48C33.378 672.624 33.312 672.762 33.18 672.894L29.706 676.764L29.994 676.782C31.218 676.818 32.184 677.136 32.892 677.736C33.6 678.336 33.954 679.212 33.954 680.364C33.954 681.144 33.756 681.822 33.36 682.398C32.964 682.974 32.418 683.418 31.722 683.73C31.026 684.03 30.24 684.18 29.364 684.18ZM42.0285 684C41.9085 684 41.8065 683.964 41.7225 683.892C41.6505 683.808 41.6145 683.706 41.6145 683.586V680.994H35.7825C35.6625 680.994 35.5605 680.958 35.4765 680.886C35.4045 680.802 35.3685 680.7 35.3685 680.58V679.86C35.3685 679.68 35.4345 679.5 35.5665 679.32L40.9665 671.706C41.0265 671.61 41.1165 671.538 41.2365 671.49C41.3565 671.43 41.4885 671.4 41.6325 671.4H42.9285C43.0485 671.4 43.1445 671.442 43.2165 671.526C43.3005 671.598 43.3425 671.694 43.3425 671.814V679.428H44.9625C45.0825 679.428 45.1845 679.47 45.2685 679.554C45.3525 679.626 45.3945 679.722 45.3945 679.842V680.58C45.3945 680.7 45.3525 680.802 45.2685 680.886C45.1965 680.958 45.1005 680.994 44.9805 680.994H43.3425V683.586C43.3425 683.706 43.3005 683.808 43.2165 683.892C43.1445 683.964 43.0485 684 42.9285 684H42.0285ZM41.6325 679.464V673.29L37.2945 679.464H41.6325ZM47.3466 684C47.2266 684 47.1246 683.964 47.0406 683.892C46.9686 683.808 46.9326 683.706 46.9326 683.586V682.29C46.9326 682.17 46.9686 682.074 47.0406 682.002C47.1246 681.918 47.2266 681.876 47.3466 681.876H48.6426C48.7626 681.876 48.8646 681.918 48.9486 682.002C49.0326 682.074 49.0746 682.17 49.0746 682.29V683.586C49.0746 683.706 49.0326 683.808 48.9486 683.892C48.8646 683.964 48.7626 684 48.6426 684H47.3466ZM55.704 684.18C54.156 684.18 53.022 683.73 52.302 682.83C51.582 681.93 51.198 680.748 51.15 679.284C51.138 678.96 51.132 678.438 51.132 677.718C51.132 676.974 51.138 676.434 51.15 676.098C51.186 674.658 51.57 673.488 52.302 672.588C53.034 671.676 54.168 671.22 55.704 671.22C57.252 671.22 58.392 671.676 59.124 672.588C59.856 673.488 60.24 674.658 60.276 676.098C60.3 676.77 60.312 677.31 60.312 677.718C60.312 678.114 60.3 678.636 60.276 679.284C60.228 680.748 59.844 681.93 59.124 682.83C58.404 683.73 57.264 684.18 55.704 684.18ZM55.704 682.632C56.604 682.632 57.282 682.332 57.738 681.732C58.206 681.132 58.452 680.286 58.476 679.194C58.5 678.498 58.512 677.994 58.512 677.682C58.512 677.346 58.5 676.854 58.476 676.206C58.452 675.126 58.212 674.28 57.756 673.668C57.3 673.056 56.616 672.75 55.704 672.75C54.804 672.75 54.12 673.056 53.652 673.668C53.196 674.28 52.956 675.126 52.932 676.206L52.914 677.682L52.932 679.194C52.956 680.286 53.196 681.132 53.652 681.732C54.12 682.332 54.804 682.632 55.704 682.632ZM64.8978 677.718C64.1178 677.718 63.4998 677.514 63.0438 677.106C62.5998 676.686 62.3538 676.11 62.3058 675.378C62.2938 675.174 62.2878 674.91 62.2878 674.586C62.2878 674.238 62.2938 673.956 62.3058 673.74C62.3418 672.996 62.5758 672.408 63.0078 671.976C63.4518 671.532 64.0818 671.31 64.8978 671.31C65.7138 671.31 66.3378 671.532 66.7698 671.976C67.2138 672.408 67.4538 672.996 67.4898 673.74C67.5138 674.22 67.5258 674.526 67.5258 674.658C67.5258 674.778 67.5138 675.018 67.4898 675.378C67.4538 676.11 67.2078 676.686 66.7518 677.106C66.2958 677.514 65.6778 677.718 64.8978 677.718ZM63.3858 684C63.2778 684 63.1878 683.97 63.1158 683.91C63.0438 683.838 63.0078 683.748 63.0078 683.64C63.0078 683.568 63.0318 683.502 63.0798 683.442L71.9718 671.742C72.0678 671.61 72.1518 671.52 72.2238 671.472C72.3078 671.424 72.4218 671.4 72.5658 671.4H73.1598C73.2798 671.4 73.3698 671.436 73.4298 671.508C73.5018 671.568 73.5378 671.652 73.5378 671.76C73.5378 671.832 73.5138 671.898 73.4658 671.958L64.5918 683.658C64.4958 683.79 64.4058 683.88 64.3218 683.928C64.2498 683.976 64.1358 684 63.9798 684H63.3858ZM64.8978 676.602C65.3298 676.602 65.6418 676.476 65.8338 676.224C66.0378 675.972 66.1578 675.666 66.1938 675.306C66.2178 674.874 66.2298 674.622 66.2298 674.55C66.2298 674.442 66.2178 674.196 66.1938 673.812C66.1698 673.44 66.0498 673.128 65.8338 672.876C65.6298 672.624 65.3178 672.498 64.8978 672.498C64.4778 672.498 64.1658 672.624 63.9618 672.876C63.7578 673.128 63.6438 673.44 63.6198 673.812C63.6078 674.004 63.6018 674.25 63.6018 674.55C63.6018 674.838 63.6078 675.09 63.6198 675.306C63.6558 675.678 63.7698 675.99 63.9618 676.242C64.1658 676.482 64.4778 676.602 64.8978 676.602ZM71.6298 684.108C70.8498 684.108 70.2318 683.892 69.7758 683.46C69.3318 683.016 69.0858 682.428 69.0378 681.696C69.0258 681.492 69.0198 681.228 69.0198 680.904C69.0198 680.556 69.0258 680.274 69.0378 680.058C69.0858 679.314 69.3258 678.726 69.7578 678.294C70.2018 677.85 70.8258 677.628 71.6298 677.628C72.4458 677.628 73.0698 677.85 73.5018 678.294C73.9458 678.726 74.1918 679.314 74.2398 680.058C74.2638 680.49 74.2758 680.772 74.2758 680.904C74.2758 681.024 74.2638 681.288 74.2398 681.696C74.1918 682.428 73.9398 683.016 73.4838 683.46C73.0278 683.892 72.4098 684.108 71.6298 684.108ZM71.6298 682.92C72.0618 682.92 72.3738 682.794 72.5658 682.542C72.7698 682.29 72.8898 681.984 72.9258 681.624C72.9498 681.192 72.9618 680.94 72.9618 680.868C72.9618 680.76 72.9498 680.514 72.9258 680.13C72.9018 679.758 72.7878 679.446 72.5838 679.194C72.3798 678.942 72.0618 678.816 71.6298 678.816C71.2098 678.816 70.8978 678.942 70.6938 679.194C70.4898 679.446 70.3758 679.758 70.3518 680.13C70.3398 680.322 70.3338 680.568 70.3338 680.868C70.3338 681.156 70.3398 681.408 70.3518 681.624C70.3878 681.984 70.5018 682.29 70.6938 682.542C70.8978 682.794 71.2098 682.92 71.6298 682.92Z" fill="#797979"/>
<path d="M49.3925 182.402C48.9605 182.402 48.6645 182.194 48.5045 181.778L43.1525 166.346L43.1045 166.082C43.1045 165.954 43.1525 165.842 43.2485 165.746C43.3445 165.65 43.4565 165.602 43.5845 165.602H44.8325C45.1365 165.602 45.3525 165.746 45.4805 166.034L50.1605 179.642L54.8645 166.034C54.8965 165.938 54.9685 165.842 55.0805 165.746C55.1925 165.65 55.3285 165.602 55.4885 165.602H56.7365C56.8645 165.602 56.9765 165.65 57.0725 165.746C57.1845 165.842 57.2405 165.954 57.2405 166.082L57.1925 166.346L51.8165 181.778C51.6565 182.194 51.3685 182.402 50.9525 182.402H49.3925ZM57.8272 182.402C57.6992 182.402 57.5872 182.354 57.4912 182.258C57.3952 182.162 57.3472 182.05 57.3472 181.922C57.3472 181.794 57.3552 181.706 57.3712 181.658L63.3232 166.13C63.4512 165.778 63.7072 165.602 64.0912 165.602H65.7232C66.1072 165.602 66.3632 165.778 66.4912 166.13L72.4192 181.658L72.4672 181.922C72.4672 182.05 72.4192 182.162 72.3232 182.258C72.2272 182.354 72.1152 182.402 71.9872 182.402H70.7632C70.5872 182.402 70.4512 182.362 70.3552 182.282C70.2592 182.186 70.1952 182.09 70.1632 181.994L68.8432 178.586H60.9712L59.6512 181.994C59.6192 182.09 59.5472 182.186 59.4352 182.282C59.3392 182.362 59.2112 182.402 59.0512 182.402H57.8272ZM68.1472 176.522L64.9072 168.002L61.6672 176.522H68.1472ZM75.5853 182.402C75.4253 182.402 75.2893 182.354 75.1773 182.258C75.0813 182.146 75.0333 182.01 75.0333 181.85V166.154C75.0333 165.994 75.0813 165.866 75.1773 165.77C75.2893 165.658 75.4253 165.602 75.5853 165.602H76.8573C77.0173 165.602 77.1453 165.658 77.2413 165.77C77.3533 165.866 77.4093 165.994 77.4093 166.154V180.314H85.3773C85.5533 180.314 85.6893 180.37 85.7853 180.482C85.8973 180.578 85.9533 180.714 85.9533 180.89V181.85C85.9533 182.01 85.8973 182.146 85.7853 182.258C85.6733 182.354 85.5373 182.402 85.3773 182.402H75.5853ZM89.1088 182.402C88.9488 182.402 88.8128 182.354 88.7008 182.258C88.6048 182.146 88.5568 182.01 88.5568 181.85V166.154C88.5568 165.994 88.6048 165.866 88.7008 165.77C88.8128 165.658 88.9488 165.602 89.1088 165.602H90.3808C90.5408 165.602 90.6688 165.658 90.7648 165.77C90.8768 165.866 90.9328 165.994 90.9328 166.154V181.85C90.9328 182.01 90.8768 182.146 90.7648 182.258C90.6688 182.354 90.5408 182.402 90.3808 182.402H89.1088ZM95.6713 182.402C95.5113 182.402 95.3753 182.354 95.2633 182.258C95.1673 182.146 95.1193 182.01 95.1193 181.85V166.178C95.1193 166.002 95.1673 165.866 95.2633 165.77C95.3753 165.658 95.5113 165.602 95.6713 165.602H101.119C103.535 165.602 105.279 166.146 106.351 167.234C107.423 168.306 107.983 169.93 108.031 172.106C108.047 172.57 108.055 173.194 108.055 173.978C108.055 174.762 108.047 175.394 108.031 175.874C107.983 177.394 107.727 178.634 107.263 179.594C106.815 180.538 106.103 181.242 105.127 181.706C104.151 182.17 102.855 182.402 101.239 182.402H95.6713ZM101.119 180.362C102.223 180.362 103.095 180.21 103.735 179.906C104.391 179.602 104.863 179.122 105.151 178.466C105.455 177.794 105.623 176.898 105.655 175.778C105.687 174.818 105.703 174.218 105.703 173.978C105.703 173.722 105.687 173.13 105.655 172.202C105.623 170.618 105.247 169.466 104.527 168.746C103.807 168.01 102.631 167.642 100.999 167.642H97.4713V180.362H101.119ZM110.257 182.402C110.129 182.402 110.017 182.354 109.921 182.258C109.825 182.162 109.777 182.05 109.777 181.922C109.777 181.794 109.785 181.706 109.801 181.658L115.753 166.13C115.881 165.778 116.137 165.602 116.521 165.602H118.153C118.537 165.602 118.793 165.778 118.921 166.13L124.849 181.658L124.897 181.922C124.897 182.05 124.849 182.162 124.753 182.258C124.657 182.354 124.545 182.402 124.417 182.402H123.193C123.017 182.402 122.881 182.362 122.785 182.282C122.689 182.186 122.625 182.09 122.593 181.994L121.273 178.586H113.401L112.081 181.994C112.049 182.09 111.977 182.186 111.865 182.282C111.769 182.362 111.641 182.402 111.481 182.402H110.257ZM120.577 176.522L117.337 168.002L114.097 176.522H120.577ZM129.906 182.402C129.746 182.402 129.61 182.354 129.498 182.258C129.402 182.146 129.354 182.01 129.354 181.85V167.738H124.746C124.586 167.738 124.45 167.69 124.338 167.594C124.242 167.482 124.194 167.346 124.194 167.186V166.178C124.194 166.018 124.242 165.882 124.338 165.77C124.45 165.658 124.586 165.602 124.746 165.602H136.314C136.49 165.602 136.626 165.658 136.722 165.77C136.834 165.866 136.89 166.002 136.89 166.178V167.186C136.89 167.346 136.834 167.482 136.722 167.594C136.61 167.69 136.474 167.738 136.314 167.738H131.73V181.85C131.73 182.01 131.674 182.146 131.562 182.258C131.45 182.354 131.314 182.402 131.154 182.402H129.906ZM145.277 182.642C143.181 182.642 141.557 182.098 140.405 181.01C139.269 179.906 138.669 178.25 138.605 176.042C138.589 175.562 138.581 174.882 138.581 174.002C138.581 173.122 138.589 172.45 138.605 171.986C138.669 169.826 139.293 168.186 140.477 167.066C141.661 165.93 143.261 165.362 145.277 165.362C147.277 165.362 148.869 165.93 150.053 167.066C151.237 168.186 151.861 169.826 151.925 171.986C151.957 172.914 151.973 173.586 151.973 174.002C151.973 174.402 151.957 175.082 151.925 176.042C151.861 178.25 151.253 179.906 150.101 181.01C148.965 182.098 147.357 182.642 145.277 182.642ZM145.277 180.602C146.541 180.602 147.549 180.218 148.301 179.45C149.053 178.682 149.461 177.506 149.525 175.922C149.557 174.962 149.573 174.322 149.573 174.002C149.573 173.65 149.557 173.01 149.525 172.082C149.461 170.498 149.045 169.322 148.277 168.554C147.525 167.786 146.525 167.402 145.277 167.402C144.013 167.402 142.997 167.786 142.229 168.554C141.477 169.322 141.069 170.498 141.005 172.082C140.989 172.546 140.981 173.186 140.981 174.002C140.981 174.802 140.989 175.442 141.005 175.922C141.069 177.506 141.477 178.682 142.229 179.45C142.997 180.218 144.013 180.602 145.277 180.602ZM156.023 182.402C155.863 182.402 155.727 182.354 155.615 182.258C155.519 182.146 155.471 182.01 155.471 181.85V166.178C155.471 166.002 155.519 165.866 155.615 165.77C155.727 165.658 155.863 165.602 156.023 165.602H161.879C163.719 165.602 165.159 166.034 166.199 166.898C167.239 167.762 167.759 169.01 167.759 170.642C167.759 171.858 167.455 172.858 166.847 173.642C166.255 174.426 165.415 174.97 164.327 175.274L168.023 181.658C168.071 181.754 168.095 181.842 168.095 181.922C168.095 182.05 168.039 182.162 167.927 182.258C167.831 182.354 167.719 182.402 167.591 182.402H166.439C166.199 182.402 166.007 182.346 165.863 182.234C165.735 182.122 165.615 181.962 165.503 181.754L162.023 175.658H157.823V181.85C157.823 182.01 157.767 182.146 157.655 182.258C157.543 182.354 157.407 182.402 157.247 182.402H156.023ZM161.783 173.618C164.167 173.618 165.359 172.618 165.359 170.618C165.359 168.618 164.167 167.618 161.783 167.618H157.823V173.618H161.783ZM177.632 182.402C177.472 182.402 177.336 182.354 177.224 182.258C177.128 182.146 177.08 182.01 177.08 181.85V166.178C177.08 166.002 177.128 165.866 177.224 165.77C177.336 165.658 177.472 165.602 177.632 165.602H183.488C185.328 165.602 186.768 166.034 187.808 166.898C188.848 167.762 189.368 169.01 189.368 170.642C189.368 171.858 189.064 172.858 188.456 173.642C187.864 174.426 187.024 174.97 185.936 175.274L189.632 181.658C189.68 181.754 189.704 181.842 189.704 181.922C189.704 182.05 189.648 182.162 189.536 182.258C189.44 182.354 189.328 182.402 189.2 182.402H188.048C187.808 182.402 187.616 182.346 187.472 182.234C187.344 182.122 187.224 181.962 187.112 181.754L183.632 175.658H179.432V181.85C179.432 182.01 179.376 182.146 179.264 182.258C179.152 182.354 179.016 182.402 178.856 182.402H177.632ZM183.392 173.618C185.776 173.618 186.968 172.618 186.968 170.618C186.968 168.618 185.776 167.618 183.392 167.618H179.432V173.618H183.392ZM198.831 182.642C196.735 182.642 195.111 182.098 193.959 181.01C192.823 179.906 192.223 178.25 192.159 176.042C192.143 175.562 192.135 174.882 192.135 174.002C192.135 173.122 192.143 172.45 192.159 171.986C192.223 169.826 192.847 168.186 194.031 167.066C195.215 165.93 196.815 165.362 198.831 165.362C200.831 165.362 202.423 165.93 203.607 167.066C204.791 168.186 205.415 169.826 205.479 171.986C205.511 172.914 205.527 173.586 205.527 174.002C205.527 174.402 205.511 175.082 205.479 176.042C205.415 178.25 204.807 179.906 203.655 181.01C202.519 182.098 200.911 182.642 198.831 182.642ZM198.831 180.602C200.095 180.602 201.103 180.218 201.855 179.45C202.607 178.682 203.015 177.506 203.079 175.922C203.111 174.962 203.127 174.322 203.127 174.002C203.127 173.65 203.111 173.01 203.079 172.082C203.015 170.498 202.599 169.322 201.831 168.554C201.079 167.786 200.079 167.402 198.831 167.402C197.567 167.402 196.551 167.786 195.783 168.554C195.031 169.322 194.623 170.498 194.559 172.082C194.543 172.546 194.535 173.186 194.535 174.002C194.535 174.802 194.543 175.442 194.559 175.922C194.623 177.506 195.031 178.682 195.783 179.45C196.551 180.218 197.567 180.602 198.831 180.602ZM215.362 182.642C213.298 182.642 211.698 182.09 210.562 180.986C209.442 179.866 208.882 178.178 208.882 175.922V166.178C208.882 166.002 208.93 165.866 209.026 165.77C209.138 165.658 209.274 165.602 209.434 165.602H210.658C210.834 165.602 210.97 165.658 211.066 165.77C211.178 165.866 211.234 166.002 211.234 166.178V175.97C211.234 177.506 211.594 178.658 212.314 179.426C213.034 180.194 214.05 180.578 215.362 180.578C216.674 180.578 217.69 180.194 218.41 179.426C219.13 178.658 219.49 177.506 219.49 175.97V166.178C219.49 166.002 219.538 165.866 219.634 165.77C219.746 165.658 219.882 165.602 220.042 165.602H221.29C221.45 165.602 221.578 165.658 221.674 165.77C221.786 165.882 221.842 166.018 221.842 166.178V175.922C221.842 178.178 221.274 179.866 220.138 180.986C219.018 182.09 217.426 182.642 215.362 182.642ZM226.406 182.402C226.246 182.402 226.11 182.354 225.998 182.258C225.902 182.146 225.854 182.01 225.854 181.85V166.178C225.854 166.002 225.902 165.866 225.998 165.77C226.11 165.658 226.246 165.602 226.406 165.602H227.51C227.798 165.602 227.998 165.714 228.11 165.938L236.078 178.178V166.178C236.078 166.002 236.126 165.866 236.222 165.77C236.334 165.658 236.47 165.602 236.63 165.602H237.782C237.958 165.602 238.094 165.658 238.19 165.77C238.302 165.866 238.358 166.002 238.358 166.178V181.826C238.358 181.986 238.302 182.122 238.19 182.234C238.094 182.346 237.966 182.402 237.806 182.402H236.654C236.414 182.402 236.222 182.29 236.078 182.066L228.134 169.946V181.85C228.134 182.01 228.078 182.146 227.966 182.258C227.854 182.354 227.718 182.402 227.558 182.402H226.406ZM243.093 182.402C242.933 182.402 242.797 182.354 242.685 182.258C242.589 182.146 242.541 182.01 242.541 181.85V166.178C242.541 166.002 242.589 165.866 242.685 165.77C242.797 165.658 242.933 165.602 243.093 165.602H248.541C250.957 165.602 252.701 166.146 253.773 167.234C254.845 168.306 255.405 169.93 255.453 172.106C255.469 172.57 255.477 173.194 255.477 173.978C255.477 174.762 255.469 175.394 255.453 175.874C255.405 177.394 255.149 178.634 254.685 179.594C254.237 180.538 253.525 181.242 252.549 181.706C251.573 182.17 250.277 182.402 248.661 182.402H243.093ZM248.541 180.362C249.645 180.362 250.517 180.21 251.157 179.906C251.813 179.602 252.285 179.122 252.573 178.466C252.877 177.794 253.045 176.898 253.077 175.778C253.109 174.818 253.125 174.218 253.125 173.978C253.125 173.722 253.109 173.13 253.077 172.202C253.045 170.618 252.669 169.466 251.949 168.746C251.229 168.01 250.053 167.642 248.421 167.642H244.893V180.362H248.541Z" fill="white"/>
<path d="M214.577 203.402C214.457 203.402 214.355 203.366 214.271 203.294C214.199 203.21 214.163 203.108 214.163 202.988V192.908L211.175 195.212C211.091 195.284 211.001 195.32 210.905 195.32C210.797 195.32 210.695 195.26 210.599 195.14L210.131 194.546C210.071 194.462 210.041 194.378 210.041 194.294C210.041 194.15 210.101 194.036 210.221 193.952L214.145 190.928C214.277 190.844 214.433 190.802 214.613 190.802H215.531C215.651 190.802 215.747 190.844 215.819 190.928C215.903 191 215.945 191.096 215.945 191.216V202.988C215.945 203.108 215.903 203.21 215.819 203.294C215.747 203.366 215.651 203.402 215.531 203.402H214.577ZM222.673 203.582C221.725 203.582 220.903 203.432 220.207 203.132C219.523 202.82 219.001 202.418 218.641 201.926C218.293 201.434 218.107 200.918 218.083 200.378C218.083 200.27 218.119 200.186 218.191 200.126C218.263 200.054 218.353 200.018 218.461 200.018H219.343C219.595 200.018 219.763 200.15 219.847 200.414C220.003 201.014 220.339 201.44 220.855 201.692C221.371 201.932 221.977 202.052 222.673 202.052C223.525 202.052 224.203 201.854 224.707 201.458C225.211 201.05 225.463 200.468 225.463 199.712C225.463 198.26 224.581 197.534 222.817 197.534H221.107C220.987 197.534 220.885 197.498 220.801 197.426C220.729 197.342 220.693 197.24 220.693 197.12V196.634C220.693 196.466 220.759 196.304 220.891 196.148L224.383 192.332H219.073C218.953 192.332 218.851 192.296 218.767 192.224C218.695 192.14 218.659 192.038 218.659 191.918V191.234C218.659 191.114 218.695 191.012 218.767 190.928C218.851 190.844 218.953 190.802 219.073 190.802H226.255C226.387 190.802 226.489 190.844 226.561 190.928C226.645 191 226.687 191.102 226.687 191.234V191.882C226.687 192.026 226.621 192.164 226.489 192.296L223.015 196.166L223.303 196.184C224.527 196.22 225.493 196.538 226.201 197.138C226.909 197.738 227.263 198.614 227.263 199.766C227.263 200.546 227.065 201.224 226.669 201.8C226.273 202.376 225.727 202.82 225.031 203.132C224.335 203.432 223.549 203.582 222.673 203.582ZM229.739 203.402C229.619 203.402 229.517 203.366 229.433 203.294C229.361 203.21 229.325 203.108 229.325 202.988V201.692C229.325 201.572 229.361 201.476 229.433 201.404C229.517 201.32 229.619 201.278 229.739 201.278H231.035C231.155 201.278 231.257 201.32 231.341 201.404C231.425 201.476 231.467 201.572 231.467 201.692V202.988C231.467 203.108 231.425 203.21 231.341 203.294C231.257 203.366 231.155 203.402 231.035 203.402H229.739ZM238.005 203.582C237.045 203.582 236.211 203.39 235.503 203.006C234.795 202.61 234.255 202.082 233.883 201.422C233.511 200.762 233.325 200.042 233.325 199.262C233.325 198.626 233.451 198.026 233.703 197.462C233.967 196.886 234.261 196.376 234.585 195.932L238.005 191.162C238.017 191.15 238.053 191.108 238.113 191.036C238.161 190.964 238.227 190.91 238.311 190.874C238.395 190.826 238.491 190.802 238.599 190.802H239.553C239.661 190.802 239.745 190.844 239.805 190.928C239.877 191 239.913 191.09 239.913 191.198C239.913 191.282 239.889 191.36 239.841 191.432L237.213 195.104C237.477 195.02 237.819 194.978 238.239 194.978C239.103 194.99 239.865 195.188 240.525 195.572C241.197 195.956 241.713 196.472 242.073 197.12C242.445 197.768 242.631 198.476 242.631 199.244C242.631 200.012 242.445 200.732 242.073 201.404C241.713 202.064 241.179 202.592 240.471 202.988C239.775 203.384 238.953 203.582 238.005 203.582ZM237.987 202.052C238.503 202.052 238.977 201.944 239.409 201.728C239.853 201.512 240.201 201.194 240.453 200.774C240.717 200.342 240.849 199.832 240.849 199.244C240.849 198.668 240.717 198.17 240.453 197.75C240.201 197.33 239.853 197.012 239.409 196.796C238.977 196.58 238.503 196.472 237.987 196.472C237.483 196.472 237.009 196.58 236.565 196.796C236.133 197.012 235.785 197.33 235.521 197.75C235.257 198.17 235.125 198.668 235.125 199.244C235.125 199.832 235.257 200.342 235.521 200.774C235.785 201.194 236.133 201.512 236.565 201.728C236.997 201.944 237.471 202.052 237.987 202.052ZM246.781 197.12C246.001 197.12 245.383 196.916 244.927 196.508C244.483 196.088 244.237 195.512 244.189 194.78C244.177 194.576 244.171 194.312 244.171 193.988C244.171 193.64 244.177 193.358 244.189 193.142C244.225 192.398 244.459 191.81 244.891 191.378C245.335 190.934 245.965 190.712 246.781 190.712C247.597 190.712 248.221 190.934 248.653 191.378C249.097 191.81 249.337 192.398 249.373 193.142C249.397 193.622 249.409 193.928 249.409 194.06C249.409 194.18 249.397 194.42 249.373 194.78C249.337 195.512 249.091 196.088 248.635 196.508C248.179 196.916 247.561 197.12 246.781 197.12ZM245.269 203.402C245.161 203.402 245.071 203.372 244.999 203.312C244.927 203.24 244.891 203.15 244.891 203.042C244.891 202.97 244.915 202.904 244.963 202.844L253.855 191.144C253.951 191.012 254.035 190.922 254.107 190.874C254.191 190.826 254.305 190.802 254.449 190.802H255.043C255.163 190.802 255.253 190.838 255.313 190.91C255.385 190.97 255.421 191.054 255.421 191.162C255.421 191.234 255.397 191.3 255.349 191.36L246.475 203.06C246.379 203.192 246.289 203.282 246.205 203.33C246.133 203.378 246.019 203.402 245.863 203.402H245.269ZM246.781 196.004C247.213 196.004 247.525 195.878 247.717 195.626C247.921 195.374 248.041 195.068 248.077 194.708C248.101 194.276 248.113 194.024 248.113 193.952C248.113 193.844 248.101 193.598 248.077 193.214C248.053 192.842 247.933 192.53 247.717 192.278C247.513 192.026 247.201 191.9 246.781 191.9C246.361 191.9 246.049 192.026 245.845 192.278C245.641 192.53 245.527 192.842 245.503 193.214C245.491 193.406 245.485 193.652 245.485 193.952C245.485 194.24 245.491 194.492 245.503 194.708C245.539 195.08 245.653 195.392 245.845 195.644C246.049 195.884 246.361 196.004 246.781 196.004ZM253.513 203.51C252.733 203.51 252.115 203.294 251.659 202.862C251.215 202.418 250.969 201.83 250.921 201.098C250.909 200.894 250.903 200.63 250.903 200.306C250.903 199.958 250.909 199.676 250.921 199.46C250.969 198.716 251.209 198.128 251.641 197.696C252.085 197.252 252.709 197.03 253.513 197.03C254.329 197.03 254.953 197.252 255.385 197.696C255.829 198.128 256.075 198.716 256.123 199.46C256.147 199.892 256.159 200.174 256.159 200.306C256.159 200.426 256.147 200.69 256.123 201.098C256.075 201.83 255.823 202.418 255.367 202.862C254.911 203.294 254.293 203.51 253.513 203.51ZM253.513 202.322C253.945 202.322 254.257 202.196 254.449 201.944C254.653 201.692 254.773 201.386 254.809 201.026C254.833 200.594 254.845 200.342 254.845 200.27C254.845 200.162 254.833 199.916 254.809 199.532C254.785 199.16 254.671 198.848 254.467 198.596C254.263 198.344 253.945 198.218 253.513 198.218C253.093 198.218 252.781 198.344 252.577 198.596C252.373 198.848 252.259 199.16 252.235 199.532C252.223 199.724 252.217 199.97 252.217 200.27C252.217 200.558 252.223 200.81 252.235 201.026C252.271 201.386 252.385 201.692 252.577 201.944C252.781 202.196 253.093 202.322 253.513 202.322Z" fill="#797979"/>
<path d="M312.761 153.642C311.433 153.642 310.281 153.434 309.305 153.018C308.345 152.602 307.609 152.058 307.097 151.386C306.585 150.698 306.313 149.962 306.281 149.178C306.281 149.05 306.329 148.938 306.425 148.842C306.537 148.73 306.665 148.674 306.809 148.674H308.033C308.337 148.674 308.545 148.834 308.657 149.154C308.801 149.826 309.209 150.402 309.881 150.882C310.569 151.362 311.529 151.602 312.761 151.602C314.089 151.602 315.089 151.37 315.761 150.906C316.433 150.426 316.769 149.762 316.769 148.914C316.769 148.37 316.601 147.93 316.265 147.594C315.945 147.258 315.465 146.962 314.825 146.706C314.185 146.45 313.225 146.13 311.945 145.746C310.697 145.394 309.705 145.018 308.969 144.618C308.233 144.218 307.681 143.722 307.313 143.13C306.945 142.538 306.761 141.794 306.761 140.898C306.761 140.034 306.993 139.258 307.457 138.57C307.937 137.882 308.617 137.346 309.497 136.962C310.377 136.562 311.425 136.362 312.641 136.362C313.889 136.362 314.961 136.586 315.857 137.034C316.753 137.466 317.433 138.018 317.897 138.69C318.361 139.362 318.609 140.034 318.641 140.706C318.641 140.834 318.593 140.946 318.497 141.042C318.417 141.138 318.297 141.186 318.137 141.186H316.865C316.529 141.186 316.321 141.034 316.241 140.73C316.145 140.058 315.769 139.506 315.113 139.074C314.457 138.626 313.633 138.402 312.641 138.402C311.553 138.402 310.697 138.61 310.073 139.026C309.449 139.442 309.137 140.058 309.137 140.874C309.137 141.418 309.281 141.866 309.569 142.218C309.873 142.57 310.329 142.882 310.937 143.154C311.545 143.41 312.433 143.706 313.601 144.042C314.961 144.41 316.033 144.794 316.817 145.194C317.601 145.578 318.185 146.066 318.569 146.658C318.953 147.234 319.145 147.97 319.145 148.866C319.145 150.354 318.569 151.522 317.417 152.37C316.265 153.218 314.713 153.642 312.761 153.642ZM326.328 153.402C326.168 153.402 326.032 153.354 325.92 153.258C325.824 153.146 325.776 153.01 325.776 152.85V138.738H321.168C321.008 138.738 320.872 138.69 320.76 138.594C320.664 138.482 320.616 138.346 320.616 138.186V137.178C320.616 137.018 320.664 136.882 320.76 136.77C320.872 136.658 321.008 136.602 321.168 136.602H332.736C332.912 136.602 333.048 136.658 333.144 136.77C333.256 136.866 333.312 137.002 333.312 137.178V138.186C333.312 138.346 333.256 138.482 333.144 138.594C333.032 138.69 332.896 138.738 332.736 138.738H328.152V152.85C328.152 153.01 328.096 153.146 327.984 153.258C327.872 153.354 327.736 153.402 327.576 153.402H326.328ZM336.554 153.402C336.394 153.402 336.258 153.354 336.146 153.258C336.05 153.146 336.002 153.01 336.002 152.85V137.178C336.002 137.002 336.05 136.866 336.146 136.77C336.258 136.658 336.394 136.602 336.554 136.602H342.41C344.25 136.602 345.69 137.034 346.73 137.898C347.77 138.762 348.29 140.01 348.29 141.642C348.29 142.858 347.986 143.858 347.378 144.642C346.786 145.426 345.946 145.97 344.858 146.274L348.554 152.658C348.602 152.754 348.626 152.842 348.626 152.922C348.626 153.05 348.57 153.162 348.458 153.258C348.362 153.354 348.25 153.402 348.122 153.402H346.97C346.73 153.402 346.538 153.346 346.394 153.234C346.266 153.122 346.146 152.962 346.034 152.754L342.554 146.658H338.354V152.85C338.354 153.01 338.298 153.146 338.186 153.258C338.074 153.354 337.938 153.402 337.778 153.402H336.554ZM342.314 144.618C344.698 144.618 345.89 143.618 345.89 141.618C345.89 139.618 344.698 138.618 342.314 138.618H338.354V144.618H342.314ZM350.601 153.402C350.473 153.402 350.361 153.354 350.265 153.258C350.169 153.162 350.121 153.05 350.121 152.922C350.121 152.794 350.129 152.706 350.145 152.658L356.097 137.13C356.225 136.778 356.481 136.602 356.865 136.602H358.497C358.881 136.602 359.137 136.778 359.265 137.13L365.193 152.658L365.241 152.922C365.241 153.05 365.193 153.162 365.097 153.258C365.001 153.354 364.889 153.402 364.761 153.402H363.537C363.361 153.402 363.225 153.362 363.129 153.282C363.033 153.186 362.969 153.09 362.937 152.994L361.617 149.586H353.745L352.425 152.994C352.393 153.09 352.321 153.186 352.209 153.282C352.113 153.362 351.985 153.402 351.825 153.402H350.601ZM360.921 147.522L357.681 139.002L354.441 147.522H360.921ZM370.25 153.402C370.09 153.402 369.954 153.354 369.842 153.258C369.746 153.146 369.698 153.01 369.698 152.85V138.738H365.09C364.93 138.738 364.794 138.69 364.682 138.594C364.586 138.482 364.538 138.346 364.538 138.186V137.178C364.538 137.018 364.586 136.882 364.682 136.77C364.794 136.658 364.93 136.602 365.09 136.602H376.658C376.834 136.602 376.97 136.658 377.066 136.77C377.178 136.866 377.234 137.002 377.234 137.178V138.186C377.234 138.346 377.178 138.482 377.066 138.594C376.954 138.69 376.818 138.738 376.658 138.738H372.074V152.85C372.074 153.01 372.018 153.146 371.906 153.258C371.794 153.354 371.658 153.402 371.498 153.402H370.25ZM380.476 153.402C380.316 153.402 380.18 153.354 380.068 153.258C379.972 153.146 379.924 153.01 379.924 152.85V137.178C379.924 137.002 379.972 136.866 380.068 136.77C380.18 136.658 380.316 136.602 380.476 136.602H390.388C390.548 136.602 390.676 136.658 390.772 136.77C390.884 136.866 390.94 137.002 390.94 137.178V138.09C390.94 138.25 390.892 138.386 390.796 138.498C390.7 138.594 390.564 138.642 390.388 138.642H382.228V143.898H389.86C390.02 143.898 390.148 143.954 390.244 144.066C390.356 144.162 390.412 144.298 390.412 144.474V145.362C390.412 145.522 390.356 145.658 390.244 145.77C390.148 145.866 390.02 145.914 389.86 145.914H382.228V151.362H390.58C390.756 151.362 390.892 151.41 390.988 151.506C391.084 151.602 391.132 151.738 391.132 151.914V152.85C391.132 153.01 391.076 153.146 390.964 153.258C390.868 153.354 390.74 153.402 390.58 153.402H380.476ZM400.435 153.642C398.339 153.642 396.707 153.074 395.539 151.938C394.387 150.786 393.771 149.218 393.691 147.234C393.675 146.754 393.667 146.002 393.667 144.978C393.667 143.938 393.675 143.186 393.691 142.722C393.771 140.754 394.395 139.202 395.563 138.066C396.731 136.93 398.355 136.362 400.435 136.362C401.843 136.362 403.035 136.618 404.011 137.13C405.003 137.626 405.747 138.234 406.243 138.954C406.739 139.674 407.003 140.346 407.035 140.97V141.018C407.035 141.146 406.987 141.25 406.891 141.33C406.795 141.41 406.675 141.45 406.531 141.45H405.115C404.955 141.45 404.835 141.426 404.755 141.378C404.691 141.314 404.627 141.194 404.563 141.018C404.323 140.298 403.859 139.682 403.171 139.17C402.499 138.658 401.587 138.402 400.435 138.402C399.107 138.402 398.067 138.762 397.315 139.482C396.563 140.202 396.155 141.322 396.091 142.842C396.075 143.306 396.067 144.018 396.067 144.978C396.067 145.922 396.075 146.634 396.091 147.114C396.155 148.65 396.563 149.786 397.315 150.522C398.067 151.242 399.107 151.602 400.435 151.602C401.779 151.602 402.851 151.234 403.651 150.498C404.451 149.762 404.851 148.658 404.851 147.186V146.178H401.251C401.091 146.178 400.955 146.13 400.843 146.034C400.747 145.922 400.699 145.778 400.699 145.602V144.834C400.699 144.674 400.747 144.538 400.843 144.426C400.955 144.314 401.091 144.258 401.251 144.258H406.675C406.835 144.258 406.963 144.314 407.059 144.426C407.171 144.522 407.227 144.658 407.227 144.834V147.138C407.227 148.45 406.955 149.594 406.411 150.57C405.867 151.546 405.083 152.306 404.059 152.85C403.035 153.378 401.827 153.642 400.435 153.642ZM411.203 153.402C411.043 153.402 410.907 153.354 410.795 153.258C410.699 153.146 410.651 153.01 410.651 152.85V137.154C410.651 136.994 410.699 136.866 410.795 136.77C410.907 136.658 411.043 136.602 411.203 136.602H412.475C412.635 136.602 412.763 136.658 412.859 136.77C412.971 136.866 413.027 136.994 413.027 137.154V152.85C413.027 153.01 412.971 153.146 412.859 153.258C412.763 153.354 412.635 153.402 412.475 153.402H411.203ZM423.261 153.642C421.117 153.642 419.485 153.066 418.365 151.914C417.261 150.762 416.669 149.17 416.589 147.138C416.573 146.706 416.565 146.002 416.565 145.026C416.565 144.034 416.573 143.314 416.589 142.866C416.669 140.85 417.269 139.266 418.389 138.114C419.509 136.946 421.133 136.362 423.261 136.362C424.685 136.362 425.893 136.618 426.885 137.13C427.877 137.626 428.629 138.282 429.141 139.098C429.653 139.914 429.933 140.786 429.981 141.714V141.762C429.981 141.89 429.925 142.002 429.813 142.098C429.717 142.178 429.605 142.218 429.477 142.218H428.157C427.837 142.218 427.637 142.034 427.557 141.666C427.285 140.466 426.797 139.626 426.093 139.146C425.389 138.65 424.445 138.402 423.261 138.402C420.509 138.402 419.085 139.93 418.989 142.986C418.973 143.418 418.965 144.082 418.965 144.978C418.965 145.874 418.973 146.554 418.989 147.018C419.085 150.074 420.509 151.602 423.261 151.602C424.445 151.602 425.389 151.362 426.093 150.882C426.813 150.386 427.301 149.538 427.557 148.338C427.605 148.13 427.677 147.986 427.773 147.906C427.869 147.826 427.997 147.786 428.157 147.786H429.477C429.621 147.786 429.741 147.834 429.837 147.93C429.949 148.01 429.997 148.122 429.981 148.266C429.933 149.21 429.653 150.09 429.141 150.906C428.629 151.722 427.877 152.386 426.885 152.898C425.893 153.394 424.685 153.642 423.261 153.642ZM439.632 153.402C439.472 153.402 439.336 153.354 439.224 153.258C439.128 153.146 439.08 153.01 439.08 152.85V137.178C439.08 137.002 439.128 136.866 439.224 136.77C439.336 136.658 439.472 136.602 439.632 136.602H445.488C447.328 136.602 448.768 137.034 449.808 137.898C450.848 138.762 451.368 140.01 451.368 141.642C451.368 142.858 451.064 143.858 450.456 144.642C449.864 145.426 449.024 145.97 447.936 146.274L451.632 152.658C451.68 152.754 451.704 152.842 451.704 152.922C451.704 153.05 451.648 153.162 451.536 153.258C451.44 153.354 451.328 153.402 451.2 153.402H450.048C449.808 153.402 449.616 153.346 449.472 153.234C449.344 153.122 449.224 152.962 449.112 152.754L445.632 146.658H441.432V152.85C441.432 153.01 441.376 153.146 441.264 153.258C441.152 153.354 441.016 153.402 440.856 153.402H439.632ZM445.392 144.618C447.776 144.618 448.968 143.618 448.968 141.618C448.968 139.618 447.776 138.618 445.392 138.618H441.432V144.618H445.392ZM460.831 153.642C458.735 153.642 457.111 153.098 455.959 152.01C454.823 150.906 454.223 149.25 454.159 147.042C454.143 146.562 454.135 145.882 454.135 145.002C454.135 144.122 454.143 143.45 454.159 142.986C454.223 140.826 454.847 139.186 456.031 138.066C457.215 136.93 458.815 136.362 460.831 136.362C462.831 136.362 464.423 136.93 465.607 138.066C466.791 139.186 467.415 140.826 467.479 142.986C467.511 143.914 467.527 144.586 467.527 145.002C467.527 145.402 467.511 146.082 467.479 147.042C467.415 149.25 466.807 150.906 465.655 152.01C464.519 153.098 462.911 153.642 460.831 153.642ZM460.831 151.602C462.095 151.602 463.103 151.218 463.855 150.45C464.607 149.682 465.015 148.506 465.079 146.922C465.111 145.962 465.127 145.322 465.127 145.002C465.127 144.65 465.111 144.01 465.079 143.082C465.015 141.498 464.599 140.322 463.831 139.554C463.079 138.786 462.079 138.402 460.831 138.402C459.567 138.402 458.551 138.786 457.783 139.554C457.031 140.322 456.623 141.498 456.559 143.082C456.543 143.546 456.535 144.186 456.535 145.002C456.535 145.802 456.543 146.442 456.559 146.922C456.623 148.506 457.031 149.682 457.783 150.45C458.551 151.218 459.567 151.602 460.831 151.602ZM477.362 153.642C475.298 153.642 473.698 153.09 472.562 151.986C471.442 150.866 470.882 149.178 470.882 146.922V137.178C470.882 137.002 470.93 136.866 471.026 136.77C471.138 136.658 471.274 136.602 471.434 136.602H472.658C472.834 136.602 472.97 136.658 473.066 136.77C473.178 136.866 473.234 137.002 473.234 137.178V146.97C473.234 148.506 473.594 149.658 474.314 150.426C475.034 151.194 476.05 151.578 477.362 151.578C478.674 151.578 479.69 151.194 480.41 150.426C481.13 149.658 481.49 148.506 481.49 146.97V137.178C481.49 137.002 481.538 136.866 481.634 136.77C481.746 136.658 481.882 136.602 482.042 136.602H483.29C483.45 136.602 483.578 136.658 483.674 136.77C483.786 136.882 483.842 137.018 483.842 137.178V146.922C483.842 149.178 483.274 150.866 482.138 151.986C481.018 153.09 479.426 153.642 477.362 153.642ZM488.406 153.402C488.246 153.402 488.11 153.354 487.998 153.258C487.902 153.146 487.854 153.01 487.854 152.85V137.178C487.854 137.002 487.902 136.866 487.998 136.77C488.11 136.658 488.246 136.602 488.406 136.602H489.51C489.798 136.602 489.998 136.714 490.11 136.938L498.078 149.178V137.178C498.078 137.002 498.126 136.866 498.222 136.77C498.334 136.658 498.47 136.602 498.63 136.602H499.782C499.958 136.602 500.094 136.658 500.19 136.77C500.302 136.866 500.358 137.002 500.358 137.178V152.826C500.358 152.986 500.302 153.122 500.19 153.234C500.094 153.346 499.966 153.402 499.806 153.402H498.654C498.414 153.402 498.222 153.29 498.078 153.066L490.134 140.946V152.85C490.134 153.01 490.078 153.146 489.966 153.258C489.854 153.354 489.718 153.402 489.558 153.402H488.406ZM505.093 153.402C504.933 153.402 504.797 153.354 504.685 153.258C504.589 153.146 504.541 153.01 504.541 152.85V137.178C504.541 137.002 504.589 136.866 504.685 136.77C504.797 136.658 504.933 136.602 505.093 136.602H510.541C512.957 136.602 514.701 137.146 515.773 138.234C516.845 139.306 517.405 140.93 517.453 143.106C517.469 143.57 517.477 144.194 517.477 144.978C517.477 145.762 517.469 146.394 517.453 146.874C517.405 148.394 517.149 149.634 516.685 150.594C516.237 151.538 515.525 152.242 514.549 152.706C513.573 153.17 512.277 153.402 510.661 153.402H505.093ZM510.541 151.362C511.645 151.362 512.517 151.21 513.157 150.906C513.813 150.602 514.285 150.122 514.573 149.466C514.877 148.794 515.045 147.898 515.077 146.778C515.109 145.818 515.125 145.218 515.125 144.978C515.125 144.722 515.109 144.13 515.077 143.202C515.045 141.618 514.669 140.466 513.949 139.746C513.229 139.01 512.053 138.642 510.421 138.642H506.893V151.362H510.541Z" fill="white"/>
<path d="M484.582 174.582C483.67 174.582 482.884 174.42 482.224 174.096C481.564 173.772 481.054 173.346 480.694 172.818C480.346 172.29 480.16 171.726 480.136 171.126V171.09C480.136 170.994 480.172 170.916 480.244 170.856C480.316 170.796 480.4 170.766 480.496 170.766H481.468C481.72 170.766 481.882 170.898 481.954 171.162C482.122 171.798 482.446 172.272 482.926 172.584C483.406 172.896 483.958 173.052 484.582 173.052C485.386 173.052 486.052 172.812 486.58 172.332C487.12 171.84 487.39 171.162 487.39 170.298C487.39 169.518 487.12 168.888 486.58 168.408C486.052 167.928 485.386 167.688 484.582 167.688C484.15 167.688 483.802 167.748 483.538 167.868C483.274 167.976 483.01 168.132 482.746 168.336C482.602 168.444 482.476 168.528 482.368 168.588C482.272 168.636 482.164 168.66 482.044 168.66H481.108C481 168.66 480.904 168.624 480.82 168.552C480.736 168.468 480.7 168.372 480.712 168.264L481.288 162.252C481.3 162.108 481.342 162 481.414 161.928C481.498 161.844 481.606 161.802 481.738 161.802H488.02C488.14 161.802 488.236 161.844 488.308 161.928C488.392 162 488.434 162.096 488.434 162.216V162.918C488.434 163.038 488.392 163.14 488.308 163.224C488.236 163.296 488.14 163.332 488.02 163.332H482.836L482.494 166.878C483.142 166.47 483.922 166.266 484.834 166.266C485.626 166.266 486.352 166.428 487.012 166.752C487.684 167.076 488.212 167.544 488.596 168.156C488.992 168.768 489.19 169.488 489.19 170.316C489.19 171.204 488.992 171.972 488.596 172.62C488.212 173.256 487.672 173.742 486.976 174.078C486.28 174.414 485.482 174.582 484.582 174.582ZM491.475 174.402C491.355 174.402 491.253 174.366 491.169 174.294C491.097 174.21 491.061 174.108 491.061 173.988V172.692C491.061 172.572 491.097 172.476 491.169 172.404C491.253 172.32 491.355 172.278 491.475 172.278H492.771C492.891 172.278 492.993 172.32 493.077 172.404C493.161 172.476 493.203 172.572 493.203 172.692V173.988C493.203 174.108 493.161 174.21 493.077 174.294C492.993 174.366 492.891 174.402 492.771 174.402H491.475ZM501.345 174.402C501.225 174.402 501.123 174.366 501.039 174.294C500.967 174.21 500.931 174.108 500.931 173.988V171.396H495.099C494.979 171.396 494.877 171.36 494.793 171.288C494.721 171.204 494.685 171.102 494.685 170.982V170.262C494.685 170.082 494.751 169.902 494.883 169.722L500.283 162.108C500.343 162.012 500.433 161.94 500.553 161.892C500.673 161.832 500.805 161.802 500.949 161.802H502.245C502.365 161.802 502.461 161.844 502.533 161.928C502.617 162 502.659 162.096 502.659 162.216V169.83H504.279C504.399 169.83 504.501 169.872 504.585 169.956C504.669 170.028 504.711 170.124 504.711 170.244V170.982C504.711 171.102 504.669 171.204 504.585 171.288C504.513 171.36 504.417 171.396 504.297 171.396H502.659V173.988C502.659 174.108 502.617 174.21 502.533 174.294C502.461 174.366 502.365 174.402 502.245 174.402H501.345ZM500.949 169.866V163.692L496.611 169.866H500.949ZM508.781 168.12C508.001 168.12 507.383 167.916 506.927 167.508C506.483 167.088 506.237 166.512 506.189 165.78C506.177 165.576 506.171 165.312 506.171 164.988C506.171 164.64 506.177 164.358 506.189 164.142C506.225 163.398 506.459 162.81 506.891 162.378C507.335 161.934 507.965 161.712 508.781 161.712C509.597 161.712 510.221 161.934 510.653 162.378C511.097 162.81 511.337 163.398 511.373 164.142C511.397 164.622 511.409 164.928 511.409 165.06C511.409 165.18 511.397 165.42 511.373 165.78C511.337 166.512 511.091 167.088 510.635 167.508C510.179 167.916 509.561 168.12 508.781 168.12ZM507.269 174.402C507.161 174.402 507.071 174.372 506.999 174.312C506.927 174.24 506.891 174.15 506.891 174.042C506.891 173.97 506.915 173.904 506.963 173.844L515.855 162.144C515.951 162.012 516.035 161.922 516.107 161.874C516.191 161.826 516.305 161.802 516.449 161.802H517.043C517.163 161.802 517.253 161.838 517.313 161.91C517.385 161.97 517.421 162.054 517.421 162.162C517.421 162.234 517.397 162.3 517.349 162.36L508.475 174.06C508.379 174.192 508.289 174.282 508.205 174.33C508.133 174.378 508.019 174.402 507.863 174.402H507.269ZM508.781 167.004C509.213 167.004 509.525 166.878 509.717 166.626C509.921 166.374 510.041 166.068 510.077 165.708C510.101 165.276 510.113 165.024 510.113 164.952C510.113 164.844 510.101 164.598 510.077 164.214C510.053 163.842 509.933 163.53 509.717 163.278C509.513 163.026 509.201 162.9 508.781 162.9C508.361 162.9 508.049 163.026 507.845 163.278C507.641 163.53 507.527 163.842 507.503 164.214C507.491 164.406 507.485 164.652 507.485 164.952C507.485 165.24 507.491 165.492 507.503 165.708C507.539 166.08 507.653 166.392 507.845 166.644C508.049 166.884 508.361 167.004 508.781 167.004ZM515.513 174.51C514.733 174.51 514.115 174.294 513.659 173.862C513.215 173.418 512.969 172.83 512.921 172.098C512.909 171.894 512.903 171.63 512.903 171.306C512.903 170.958 512.909 170.676 512.921 170.46C512.969 169.716 513.209 169.128 513.641 168.696C514.085 168.252 514.709 168.03 515.513 168.03C516.329 168.03 516.953 168.252 517.385 168.696C517.829 169.128 518.075 169.716 518.123 170.46C518.147 170.892 518.159 171.174 518.159 171.306C518.159 171.426 518.147 171.69 518.123 172.098C518.075 172.83 517.823 173.418 517.367 173.862C516.911 174.294 516.293 174.51 515.513 174.51ZM515.513 173.322C515.945 173.322 516.257 173.196 516.449 172.944C516.653 172.692 516.773 172.386 516.809 172.026C516.833 171.594 516.845 171.342 516.845 171.27C516.845 171.162 516.833 170.916 516.809 170.532C516.785 170.16 516.671 169.848 516.467 169.596C516.263 169.344 515.945 169.218 515.513 169.218C515.093 169.218 514.781 169.344 514.577 169.596C514.373 169.848 514.259 170.16 514.235 170.532C514.223 170.724 514.217 170.97 514.217 171.27C514.217 171.558 514.223 171.81 514.235 172.026C514.271 172.386 514.385 172.692 514.577 172.944C514.781 173.196 515.093 173.322 515.513 173.322Z" fill="#797979"/>
<line x1="240.426" y1="634.766" x2="269.426" y2="597.766" stroke="#712770" stroke-width="4"/>
<line x1="268.664" y1="210.293" x2="288.664" y2="240.293" stroke="#432771" stroke-width="4"/>
<line x1="484.959" y1="182.807" x2="478.959" y2="211.807" stroke="#672771" stroke-width="4"/>
<line x1="580.54" y1="231.678" x2="551.54" y2="266.678" stroke="#F71DF4" stroke-width="4"/>
<line x1="577.492" y1="631.314" x2="550.492" y2="600.314" stroke="#BB25B9" stroke-width="4"/>
</svg>
