<?xml version="1.0" encoding="UTF-8"?>
<svg width="356px" height="92px" viewBox="0 0 356 92" version="1.1" xmlns="http://www.w3.org/2000/svg" xmlns:xlink="http://www.w3.org/1999/xlink">
    <!-- Generator: Sketch 59.1 (86144) - https://sketch.com -->
    <title>oxt_logotype</title>
    <desc>Created with Sketch.</desc>
    <defs>
        <polygon id="path-1" points="0.162892663 0.149051708 63.502413 0.149051708 63.502413 85.4538559 0.162892663 85.4538559"></polygon>
        <polygon id="path-3" points="0.156610075 0.0761440326 71.383193 0.0761440326 71.383193 68.4611682 0.156610075 68.4611682"></polygon>
    </defs>
    <g id="Page-1" stroke="none" stroke-width="1" fill="none" fill-rule="evenodd">
        <g id="Desktop" transform="translate(-17.000000, -43.000000)">
            <g id="oxt_logotype" transform="translate(17.000000, 43.000000)">
                <path d="M167.482171,39.6211765 C165.363829,39.6211765 163.352329,39.9520941 161.447671,40.6112941 C159.540314,41.2768941 157.887914,42.2451765 156.4897,43.5266824 C155.094186,44.8112 153.970214,46.4014118 153.124729,48.3022118 C152.276543,50.2048941 151.853414,52.4388706 151.853414,55.0011294 C151.853414,60.1282824 153.356929,63.9731765 156.364343,66.5354353 C159.370214,69.0999529 163.035657,70.3788235 167.354114,70.3788235 C169.895971,70.3788235 172.097243,70.0915765 173.962557,69.5121882 C175.824786,68.9339294 177.476414,68.3146353 178.917829,67.6516706 C180.610343,68.8104471 181.881657,70.0697412 182.728686,71.4344471 C183.575329,72.7991529 184,74.4330353 184,76.3327059 C184,79.7239529 182.348757,82.3479529 179.045886,84.2084706 C175.740314,86.0716235 171.167286,87 165.321786,87 C159.9862,87 155.157443,86.2350118 150.837443,84.7069176 C146.516671,83.1784471 142.810343,81.0269176 139.719614,78.2572235 C136.626957,75.4875294 134.233986,72.1580235 132.539157,68.2709647 C130.844329,64.3876706 130,60.0857412 130,55.3734588 C130,49.9142588 130.907586,45.1398588 132.730471,41.0476235 C134.551814,36.9533929 137.030414,33.5862776 140.164343,30.9378824 C143.295571,28.2919341 146.917814,26.3089506 151.0276,24.9841506 C155.136229,23.6617976 159.477057,23 164.051243,23 C170.150543,23 174.851243,24.0763294 178.155657,26.2253365 C181.459686,28.3755482 183.110929,31.1451294 183.110929,34.5341176 C183.110929,36.1061835 182.728686,37.5728 181.966129,38.9375059 C181.203957,40.3022118 180.314886,41.4816941 179.298914,42.4718118 C177.8575,41.8126118 176.121786,41.1714824 174.087914,40.5495529 C172.056357,39.9302588 169.852386,39.6211765 167.482171,39.6211765" id="Path" fill="#5F45BA"></path>
                <path d="M108.938527,85.8649412 C108.116473,86.1171765 106.822491,86.3682824 105.056964,86.6197647 C103.2922,86.8742588 101.4652,87 99.5778727,87 C97.7699636,87 96.1476182,86.8742588 94.7127455,86.6197647 C93.2732909,86.3682824 92.0636909,85.8649412 91.0778364,85.1078588 C90.0931273,84.3530353 89.3325455,83.3252706 88.8002909,82.0211765 C88.2649818,80.7223529 88,79.0184471 88,76.9196235 L88,39.1253647 C88,37.1948612 88.3478364,35.5353035 89.0473273,34.1490635 C89.7441455,32.7628235 90.7502364,31.5243106 92.0636909,30.4335247 C93.3767636,29.3427388 94.9991091,28.3529224 96.9288182,27.4726588 C98.8581455,26.5899482 100.933327,25.8168282 103.149018,25.1409129 C105.366236,24.4712094 107.664018,23.9467482 110.047327,23.5663247 C112.426818,23.1883482 114.808982,23 117.189618,23 C121.131509,23 124.252491,23.7768471 126.551418,25.3292988 C128.8492,26.88544 130,29.4252235 130,32.9524141 C130,34.1305788 129.833909,35.28416 129.507836,36.4180141 C129.177945,37.5506635 128.768636,38.5809882 128.276473,39.5018353 C126.551418,39.5018353 124.784745,39.5869176 122.980273,39.7567059 C121.172364,39.9268706 119.406836,40.1779765 117.684455,40.5115294 C115.9594,40.8477176 114.337055,41.2057412 112.819327,41.5825882 C111.297782,41.9605647 110.0038,42.3999059 108.938527,42.9058824 L108.938527,85.8649412 Z" id="Path" fill="#5F45BA"></path>
                <path d="M248,86.8686727 C247.2039,87.1202909 245.9537,87.3703818 244.24408,87.6208545 C242.53446,87.8747636 240.76556,88 238.93852,88 C237.18938,88 235.61732,87.8747636 234.22804,87.6208545 C232.83534,87.3703818 231.66304,86.8686727 230.71,86.1142 C229.75658,85.3620182 229.02014,84.3376 228.5041,83.0378909 C227.9854,81.7435273 227.72776,80.0455818 227.72776,77.9532182 L227.72776,50.0785818 C227.72776,46.6479455 226.91228,44.2417273 225.28398,42.8603091 C223.65378,41.4796545 221.647,40.7900909 219.26288,40.7900909 C217.67106,40.7900909 216.16056,41.0000909 214.72986,41.4170364 C213.29992,41.8355091 212.1451,42.3376 211.27224,42.9240727 L211.27224,86.8686727 C210.47614,87.1202909 209.2248,87.3703818 207.51632,87.6208545 C205.80556,87.8747636 204.03552,88 202.20924,88 C200.4601,88 198.88804,87.8747636 197.498,87.6208545 C196.10758,87.3703818 194.93528,86.8686727 193.98224,86.1142 C193.02654,85.3620182 192.29124,84.3376 191.77482,83.0378909 C191.2565,81.7435273 191,80.0455818 191,77.9532182 L191,5.13006727 C191.874,4.96443455 193.1641,4.73251818 194.87486,4.43802182 C196.58296,4.14722909 198.31348,4 200.06262,4 C201.81062,4 203.3804,4.12516 204.77196,4.37544182 C206.16352,4.62946545 207.33696,5.13006727 208.29114,5.88221091 C209.24456,6.63679818 209.97872,7.66133091 210.49704,8.95829091 C211.01346,10.2576564 211.27224,11.9533873 211.27224,14.0454073 L211.27224,26.3484673 C212.3047,25.9312927 213.87562,25.4515382 215.9812,24.9042782 C218.08716,24.3619436 220.412,24.0895545 222.95914,24.0895545 C230.82894,24.0895545 236.96898,26.1607273 241.38192,30.3042945 C245.7941,34.4490836 248,40.6209455 248,48.8258364 L248,86.8686727 Z" id="Path" fill="#5F45BA"></path>
                <path d="M286.011383,85.9098522 C285.1025,86.070613 283.76505,86.2903826 281.993283,86.5744565 C280.219217,86.8581522 278.427133,87 276.61435,87 C274.799267,87 273.1701,86.8793348 271.729533,86.6346 C270.283983,86.3932696 269.068433,85.9098522 268.079817,85.1824565 C267.0912,84.4577087 266.3276,83.4704478 265.793233,82.2184043 C265.2558,80.9709 264.988617,79.3341652 264.988617,77.3180348 L264.988617,28.0733491 C265.894817,27.9102052 267.2338,27.6902465 269.007867,27.4064752 C270.779633,27.1250491 272.572867,26.9831635 274.3868,26.9831635 C276.199583,26.9831635 277.82875,27.1049635 279.271617,27.3461804 C280.713333,27.5873974 281.930417,28.0733491 282.919033,28.7982104 C283.9088,29.5253791 284.67125,30.5127157 285.207917,31.7625652 C285.74305,33.01476 286.011383,34.6477122 286.011383,36.6625565 L286.011383,85.9098522 Z M264,10.8902061 C264,7.82534739 265.050333,5.24409522 267.154067,3.14645713 C269.25435,1.050003 272.037733,0 275.50115,0 C278.962267,0 281.7468,1.050003 283.847083,3.14645713 C285.949667,5.24409522 287,7.82534739 287,10.8902061 C287,13.9562752 285.949667,16.5375274 283.847083,18.6340004 C281.7468,20.7339913 278.962267,21.7816226 275.50115,21.7816226 C272.037733,21.7816226 269.25435,20.7339913 267.154067,18.6340004 C265.050333,16.5375274 264,13.9562752 264,10.8902061 L264,10.8902061 Z" id="Shape" fill="#5F45BA"></path>
                <g id="Clipped" transform="translate(292.000000, 4.000000)">
                    <mask id="mask-2" fill="white">
                        <use xlink:href="#path-1"></use>
                    </mask>
                    <g id="Path"></g>
                    <path d="M36.067645,37.0700693 C31.5161574,37.0700693 28.0175131,38.3715855 25.5751132,40.9749979 C23.1289342,43.5814512 21.9083011,47.5270521 21.9083011,52.8205433 C21.9083011,58.0292687 23.046173,61.9535831 25.3230505,64.6010889 C27.5987943,67.2482147 30.8850561,68.5721576 35.1833473,68.5721576 C36.7002579,68.5721576 38.0690298,68.3395268 39.2911745,67.8776862 C40.5129413,67.4181264 41.4618607,66.8901457 42.1364211,66.3013465 L42.1364211,38.5821696 C40.4486974,37.5737226 38.4276616,37.0700693 36.067645,37.0700693 M0.162892663,52.8205433 C0.162892663,47.2757957 1.00410915,42.4684725 2.6918328,38.3913515 C4.37691112,34.3191721 6.71463133,30.9367886 9.70801669,28.2487244 C12.6991346,25.5606602 16.1966452,23.5670674 20.2009264,22.2630805 C24.203696,20.9615264 28.5254174,20.3101221 33.1607999,20.3101221 C34.8458782,20.3101221 36.489009,20.4578731 38.0913262,20.7509423 C39.6913759,21.0464823 40.9985492,21.4035629 42.0102008,21.8222224 L42.0102008,1.40997149 C42.8502836,1.15753666 44.200916,0.884195464 46.0552958,0.589871881 C47.9096755,0.296840691 49.804869,0.149051708 51.7446553,0.149051708 C53.5975234,0.149051708 55.2629506,0.274641934 56.7382917,0.525860397 C58.2132548,0.780765983 59.457318,1.28438127 60.4682139,2.03796063 C61.4798655,2.79648151 62.2398324,3.82344008 62.7439577,5.1262106 C63.2503503,6.43023551 63.502413,8.1307591 63.502413,10.2314305 L63.502413,69.9550185 C63.502413,73.9063212 61.6480332,77.0574803 57.9392737,79.4054549 C55.4942285,81.0027011 52.3326754,82.4114099 48.4568819,83.6277801 C44.5799547,84.8445304 40.1138736,85.4538559 35.0571271,85.4538559 C29.5778827,85.4538559 24.6670075,84.6993262 20.3279025,83.187226 C15.9853963,81.6751258 12.319718,79.4906009 9.33011171,76.6351718 C6.33786007,73.780883 4.06060465,70.357561 2.50288031,66.365586 C0.941376926,62.3747513 0.162892663,57.8604973 0.162892663,52.8205433" id="Shape" fill="#5F45BA" mask="url(#mask-2)"></path>
                </g>
                <path d="M22.5090481,28.2871302 C21.5225051,29.9485758 19.3747347,30.4956594 17.7135331,29.508977 C16.0513866,28.5222946 15.5043728,26.3752253 16.4909157,24.7128698 C17.4784386,23.0514242 19.6252291,22.5043406 21.2873756,23.491023 C22.9485771,24.4777054 23.495591,26.6257197 22.5090481,28.2871302" id="Path" fill="#5F45BA"></path>
                <path d="M3.7190542,26.0209969 C3.1546142,26.9705939 1.9279102,27.283513 0.979154199,26.7190347 C0.0296248791,26.1553564 -0.283262201,24.9285602 0.280400599,23.9790031 C0.844838199,23.0294061 2.0715422,22.716487 3.0210742,23.2809653 C3.9706062,23.8446436 4.2834822,25.0714398 3.7190542,26.0209969" id="Path" fill="#5F45BA"></path>
                <g id="Clipped" transform="translate(8.000000, 23.000000)">
                    <mask id="mask-4" fill="white">
                        <use xlink:href="#path-3"></use>
                    </mask>
                    <g id="Path"></g>
                    <path d="M62.481006,11.6575677 C56.1910231,4.80555563 47.495766,0.716750397 38.0018051,0.143083841 C35.7148857,0.00498245168 33.3947506,0.0805179406 31.1017225,0.369728342 L31.1005771,0.369728342 C30.3100437,0.432294243 29.5453192,0.533806942 28.8137722,0.656542603 L28.13999,0.741548553 L28.2088649,0.765129622 C24.9174953,1.3907506 22.4978658,2.42356339 22.3712262,2.47905497 L22.3503041,2.48730834 C18.7307101,4.18465087 16.7376923,6.99509593 16.7376923,10.4028266 C16.7376923,15.10067 20.7188028,18.9215259 25.6133831,18.9215259 C26.631425,18.9215259 29.7924516,17.8980314 29.8231856,17.8873819 C32.0966661,17.1263219 34.4717789,16.8121612 36.8976697,16.9608741 C43.0673889,17.3339874 48.5445419,20.6589182 51.5557161,25.8551208 L51.5629701,25.8691934 C53.2374991,28.7670025 54.0083322,32.0470532 53.7933847,35.3594327 C53.1664862,44.9025392 44.5808027,52.17844 34.6290762,51.5775031 C28.9748111,51.2363383 23.9388159,48.4495884 20.7753459,43.9345743 L20.7753459,43.9277282 L20.6695902,43.796511 L19.9515967,42.7532388 C17.4889014,38.7079445 17.8073521,33.1355857 17.9069228,31.978592 L17.9167729,31.8679131 L17.9143295,31.8264561 C17.7446622,27.2098913 13.8446819,23.5932399 9.03737873,23.5932399 C5.03538426,23.5932399 1.50921411,26.1867772 0.462919835,29.8988938 C0.250186695,30.6508257 0.15659684,32.6525542 0.186275124,32.8803777 C-0.600593148,51.3059404 14.3561654,67.2372346 33.526468,68.3953694 C34.2480502,68.4391085 34.9772683,68.4615485 35.7110678,68.4615485 C37.0488584,68.4615485 38.4038295,68.3835788 39.7549828,68.238289 L39.7660546,68.2417121 L39.9565676,68.2207934 L42.780665,67.9020686 L42.5790801,67.8229579 C58.3744775,64.8920593 70.2844027,52.0639577 71.3110348,36.4179184 C71.9085355,27.3019335 68.7721343,18.5096178 62.481006,11.6575677" id="Path" fill="#5F45BA" mask="url(#mask-4)"></path>
                </g>
                <path d="M14.2282681,38.3085888 C12.6775985,40.9199642 9.30411913,41.7786895 6.69139965,40.2280708 C4.07985351,38.6770854 3.22135135,35.3037838 4.77201004,32.6922617 C6.32264306,30.0807029 9.69612238,29.221061 12.3088419,30.7716798 C14.9192513,32.3223352 15.7789012,35.6969567 14.2282681,38.3085888" id="Path" fill="#5F45BA"></path>
            </g>
        </g>
    </g>
</svg>