<?xml version="1.0" encoding="UTF-8"?>
<svg width="64px" height="74px" viewBox="0 0 64 74" version="1.1" xmlns="http://www.w3.org/2000/svg" xmlns:xlink="http://www.w3.org/1999/xlink">
    <!-- Generator: Sketch 59.1 (86144) - https://sketch.com -->
    <title>icon_secure</title>
    <desc>Created with Sketch.</desc>
    <g id="Page-1" stroke="none" stroke-width="1" fill="none" fill-rule="evenodd">
        <g id="home_5" transform="translate(-688.000000, -1218.000000)">
            <g id="Value-props" transform="translate(170.000000, 916.000000)">
                <g id="Group-13" transform="translate(58.000000, 301.000000)">
                    <g id="icon_secure" transform="translate(463.000000, 4.000000)">
                        <path d="M29,2.84217094e-14 L43.9140137,2.84217094e-14 C45.3794061,4.82293581 46.9368532,8.02067117 48.586355,9.5932061 C50.2358567,11.165741 53.4067516,12.4757201 58.0990395,13.5231433 C58.0990395,25.5735874 55.7429767,35.9285709 51.0308511,44.5880939 C47.889434,50.3611092 40.545817,57.8662034 29,67.1033764 C17.5202094,57.8662034 10.2096055,50.3611092 7.06818842,44.5880939 C2.35606281,35.9285709 7.95807864e-13,25.5735874 7.95807864e-13,13.5231433 C4.69228795,12.4757201 7.8631828,11.165741 9.51268454,9.5932061 C11.1621863,8.02067117 12.7196334,4.82293581 14.1850259,2.84217094e-14 C14.9743599,2.84217094e-14 16.3232529,2.84217094e-14 18.2317051,2.84217094e-14 C20.1401572,2.84217094e-14 23.762602,2.84217094e-14 29.0990395,2.84217094e-14" id="Path" stroke="#333333" stroke-width="5"></path>
                        <path d="M38,25 C39.1045695,25 40,25.8954305 40,27 L40,42 C40,43.1045695 39.1045695,44 38,44 L20,44 C18.8954305,44 18,43.1045695 18,42 L18,27 C18,25.8954305 18.8954305,25 20,25 L38,25 Z M29,30 C27.3431458,30 26,31.3392317 26,32.9912577 C26,34.0123613 26.5131319,34.9139658 27.2963105,35.4536943 L27.2963105,35.4536943 L26.7939762,39 L31.229836,39 L30.6678295,35.478028 C31.4711675,34.9413172 32,34.0278652 32,32.9912577 C32,31.3392317 30.6568542,30 29,30 Z" id="Combined-Shape" fill="#333333"></path>
                        <path d="M23,22.6793109 C23,17.5597703 25.0896703,15 29.2690109,15 C33.4483515,15 35.5380218,17.5597703 35.5380218,22.6793109" id="Path-3" stroke="#333333" stroke-width="3"></path>
                    </g>
                </g>
            </g>
        </g>
    </g>
</svg>