<?xml version="1.0" encoding="UTF-8"?>
<svg width="472px" height="140px" viewBox="0 0 472 140" version="1.1" xmlns="http://www.w3.org/2000/svg" xmlns:xlink="http://www.w3.org/1999/xlink">
    <!-- Generator: Sketch 54.1 (76490) - https://sketchapp.com -->
    <title>logo_foundation</title>
    <desc>Created with Sketch.</desc>
    <g id="Page-1" stroke="none" stroke-width="1" fill="none" fill-rule="evenodd">
        <g id="logo_foundation" fill="#000000" fill-rule="nonzero">
            <polygon id="Path" points="117.5 23.8 117.5 95.7 102.8 95.7 102.8 23.8"></polygon>
            <path d="M177.3,47.3 L177.3,95.9 C177.3,111 165.6,120.2 151.2,120.2 C137.3,120.2 127,111.6 126,99.4 L140.6,99.5 C141.2,104.7 145.7,106.9 151.7,106.9 C157.4,106.9 162.6,103.9 162.6,96 L162.6,89.8 C158.9,92.2 154.1,93.6 148.7,93.6 C135.3,93.6 124.6,82.8 124.6,70.3 C124.6,55.8 135.3,46.1 148.7,46.1 C154.1,46.1 158.8,47.5 162.6,49.9 L162.6,47.3 L177.3,47.3 Z M162.6,75.9 L162.6,64 C159.6,59.7 155.5,58.2 151.4,58.2 C144.2,58.2 139.2,63 139.2,70.3 C139.2,75.7 144.2,81.6 151.4,81.6 C155.5,81.6 159.6,80.2 162.6,75.9 Z" id="Shape"></path>
            <path d="M235.7,70.9 C235.7,85.9 224.6,96.5 209.8,96.5 C194.8,96.5 183.8,85.8 183.8,70.9 C183.8,56 194.9,45.2 209.8,45.2 C224.6,45.2 235.7,56 235.7,70.9 Z M221.5,70.9 C221.5,63.9 216.9,58.2 209.7,58.2 C202.5,58.2 197.8,63.9 197.8,70.9 C197.8,78.1 202.4,83.5 209.7,83.5 C216.9,83.5 221.5,78.1 221.5,70.9 Z" id="Shape"></path>
            <path d="M326.7,47.3 L326.7,95.6 L312.3,95.7 L312.3,93 C308.6,95.4 303.8,96.9 298.4,96.9 C285,96.9 274.3,85.6 274.3,71.6 C274.3,57.5 285,46.2 298.4,46.2 C303.8,46.2 308.5,47.7 312.3,50.1 L312.3,47.4 L326.7,47.3 Z M312.3,79 L312.3,64.2 C309.3,59.9 305,58.7 300.8,58.7 C293.4,58.7 288.4,64.6 288.4,71.6 C288.4,78.6 293.5,84.4 300.8,84.4 C305,84.4 309.2,83.3 312.3,79 Z" id="Shape"></path>
            <path d="M385.7,69.5 L385.7,95.7 L371.6,95.7 L371.6,71.2 C371.6,63.3 367.7,59.2 360.7,59.2 C357.1,59.2 353,61.3 349.6,65.4 L349.6,95.8 L335.1,95.8 L335.1,47.5 L349.6,47.5 L349.6,51.1 C353.5,48 358.1,46.2 363.6,46.2 C376.4,46.2 385.7,55.3 385.7,69.5 Z" id="Path"></path>
            <g id="Group" transform="translate(449.000000, 23.000000)">
                <polygon id="Path" points="10 2.7 6.4 2.7 6.4 11.3 4.3 11.3 4.3 2.7 0.7 2.7 0.7 0.8 9.9 0.8 9.9 2.7"></polygon>
                <polygon id="Path" points="22.2 11.2 20.1 11.2 20.1 5.3 17.4 9.6 16.1 9.6 16.1 9.6 13.3 5.2 13.3 11.1 11.2 11.1 11.2 0.6 12.7 0.6 16.7 7 20.7 0.6 22.2 0.6"></polygon>
            </g>
            <g id="lINT7W_10_">
                <polygon id="Path" points="96.1 95.7 81.2 95.7 71.5 59.5 50.6 95.7 33.9 95.7 66.2 39.7 61 20.3 17.5 95.7 0.8 95.7 55.9 0.2 70.5 0.2 76.9 23.9 92 23.9 81.7 41.8"></polygon>
            </g>
            <path d="M444.1,23.8 L444.1,95.7 L429.4,95.7 L429.4,93 C425.7,95.4 420.9,96.9 415.5,96.9 C402.1,96.9 391.4,85.6 391.4,71.5 C391.4,57.5 402.1,46.2 415.5,46.2 C420.9,46.2 425.6,47.7 429.4,50.1 L429.4,23.8 L444.1,23.8 Z M429.4,79 L429.4,64.1 C426.3,59.8 422.1,58.6 417.8,58.6 C410.4,58.6 405.3,64.5 405.3,71.5 C405.3,78.6 410.4,84.5 417.8,84.5 C422.1,84.5 426.4,83.4 429.4,79 Z" id="Shape"></path>
            <path d="M271.7,59.6 C268.5,60 261,60.4 256.6,66.4 L256.6,95.7 L242.1,95.7 L242.1,47.5 L256.6,47.5 L256.6,51.1 C259.9,48.3 264.9,46.6 271.7,47.3" id="Path"></path>
            <g id="Group" transform="translate(188.000000, 111.000000)">
                <polygon id="Path" points="7.1 7.1 7.1 12.9 18.8 12.9 18.8 18.8 7.1 18.8 7.1 28.4 0.4 28.4 0.4 1.2 20.7 1.2 20.7 7.1 7.1 7.1"></polygon>
                <path d="M50.7,14.8 C50.7,22.7 44.5,28.9 36.3,28.9 C28.1,28.9 21.9,22.7 21.9,14.8 C21.9,6.9 28.1,0.7 36.3,0.7 C44.5,0.7 50.7,6.9 50.7,14.8 Z M43.9,14.8 C43.9,10.5 40.7,7 36.4,7 C32,7 28.9,10.5 28.9,14.8 C28.9,19.1 32.1,22.6 36.4,22.6 C40.7,22.5 43.9,19 43.9,14.8 Z" id="Shape"></path>
                <path d="M79.1,15.7 C79.1,24.1 74.2,28.9 66.4,28.9 C58.7,28.9 53.8,24.1 53.8,15.7 L53.8,1.2 L60.6,1.2 L60.6,15.8 C60.6,20 62.9,22.5 66.4,22.5 C69.9,22.5 72.3,19.9 72.3,15.8 L72.3,1.2 L79.1,1.2 L79.1,15.7 Z" id="Path"></path>
                <polygon id="Path" points="107.8 1.2 107.8 28.4 102.6 28.4 89.6 13.5 89.6 28.4 82.9 28.4 82.9 1.2 88.1 1.2 101.2 16.5 101.2 1.2"></polygon>
                <path d="M137.5,14.7 C137.5,22.8 131.4,28.4 122.8,28.4 L112,28.4 L112,1.2 L122.9,1.2 C131.4,1.2 137.5,6.7 137.5,14.7 Z M130.7,14.7 C130.7,10.5 127.3,7.3 122.9,7.3 L118.7,7.3 L118.7,22.3 L122.9,22.3 C127.3,22.3 130.7,19 130.7,14.7 Z" id="Shape"></path>
                <path d="M157.2,23.7 L145.7,23.7 L143.9,28.4 L136.7,28.4 L148.2,1.2 L154.7,1.2 L166.2,28.4 L159,28.4 L157.2,23.7 Z M155,18 L151.4,8.9 L147.8,18 L155,18 Z" id="Shape"></path>
                <polygon id="Path" points="186.2 7.2 177.5 7.2 177.5 28.3 170.8 28.3 170.8 7.2 162.1 7.2 162.1 1.2 186.1 1.2 186.1 7.2"></polygon>
                <polygon id="Path" points="195.6 1.2 195.6 28.4 188.9 28.4 188.9 1.2"></polygon>
                <path d="M227.7,14.8 C227.7,22.7 221.5,28.9 213.3,28.9 C205.1,28.9 198.9,22.7 198.9,14.8 C198.9,6.9 205.1,0.7 213.3,0.7 C221.5,0.7 227.7,6.9 227.7,14.8 Z M220.9,14.8 C220.9,10.5 217.7,7 213.4,7 C209,7 205.9,10.5 205.9,14.8 C205.9,19.1 209.1,22.6 213.4,22.6 C217.7,22.5 220.9,19 220.9,14.8 Z" id="Shape"></path>
                <polygon id="Path" points="256.1 1.2 256.1 28.4 250.9 28.4 237.9 13.5 237.9 28.4 231.2 28.4 231.2 1.2 236.4 1.2 249.5 16.5 249.5 1.2"></polygon>
            </g>
        </g>
    </g>
</svg>