<?xml version="1.0" encoding="UTF-8"?>
<svg width="184px" height="184px" viewBox="0 0 184 184" version="1.1" xmlns="http://www.w3.org/2000/svg" xmlns:xlink="http://www.w3.org/1999/xlink">
    <!-- Generator: Sketch 53 (72520) - https://sketchapp.com -->
    <title>1stplace</title>
    <desc>Created with Sketch.</desc>
    <g id="Page-1" stroke="none" stroke-width="1" fill="none" fill-rule="evenodd">
        <g id="1stplace" transform="translate(-29.000000, -30.000000)">
            <g id="XMLID_152_" transform="translate(29.000000, 30.000000)" fill="#DC92FF" fill-rule="nonzero">
                <path d="M183.7,91.6 C183.7,117.2 173.2,140.4 156.2,157 C139.7,173.2 117,183.2 92.1,183.2 C66.8,183.2 43.9,172.9 27.3,156.4 C10.7,139.9 0.5,116.9 0.5,91.6 C0.5,41 41.5,-1.42108547e-14 92.1,-1.42108547e-14 C142.7,-1.42108547e-14 183.7,41 183.7,91.6 Z" id="XMLID_327_"></path>
            </g>
            <g id="XMLID_151_" transform="translate(33.000000, 34.000000)" fill-rule="nonzero">
                <path d="M174.6,87.6 C174.6,111.8 164.7,133.7 148.7,149.3 C133.1,164.6 111.8,174 88.2,174 C64.3,174 42.7,164.3 27.1,148.7 C11.5,133.1 1.8,111.5 1.8,87.6 C1.8,39.9 40.5,1.2 88.2,1.2 C135.9,1.2 174.6,39.9 174.6,87.6 Z" id="XMLID_123_" fill="#FFFFFF"></path>
                <path d="M88.1,175.1 C64.7,175.1 42.8,166 26.3,149.5 C9.8,133 0.7,111 0.7,87.7 C0.7,39.5 39.9,0.3 88.1,0.3 C136.3,0.3 175.5,39.5 175.5,87.7 C175.5,111.4 166.2,133.6 149.3,150.2 C132.9,166.2 111.1,175.1 88.1,175.1 Z M88.1,2.2 C41,2.2 2.7,40.5 2.7,87.6 C2.7,110.4 11.6,131.9 27.7,148 C43.8,164.1 65.3,173 88.1,173 C110.6,173 131.8,164.3 147.9,148.6 C164.4,132.4 173.5,110.7 173.5,87.6 C173.6,40.5 135.2,2.2 88.1,2.2 Z" id="XMLID_141_" fill="#231F20"></path>
            </g>
            <g id="XMLID_11_" transform="translate(122.000000, 56.000000)" fill="#231F20" fill-rule="nonzero">
                <rect id="XMLID_140_" x="0" y="0.7" width="2" height="15.1"></rect>
            </g>
            <g id="XMLID_18_" transform="translate(145.000000, 68.000000)" fill="#231F20" fill-rule="nonzero">
                <rect id="XMLID_139_" x="0.8" y="0.5" width="14.2" height="2"></rect>
            </g>
            <g id="XMLID_21_" transform="translate(129.000000, 57.000000)" fill="#231F20" fill-rule="nonzero">
                <path d="M2.9,13.5 C2.4,13.5 1.6,13.4 1,12.8 C0.6,12.5 0.2,11.9 0.2,10.8 L0.2,0.3 L2.2,0.3 L2.2,10.9 C2.2,11.1 2.2,11.3 2.3,11.4 C2.5,11.6 2.9,11.6 3,11.6 L3.1,11.6 L11.8,11.6 L11.8,13.6 L3.1,13.6 C3.2,13.5 3.1,13.5 2.9,13.5 Z" id="XMLID_138_"></path>
            </g>
            <g id="XMLID_20_" transform="translate(82.000000, 68.000000)" fill="#231F20" fill-rule="nonzero">
                <rect id="XMLID_137_" x="0.2" y="0.8" width="2" height="11.6"></rect>
            </g>
            <g id="XMLID_22_" transform="translate(58.000000, 102.000000)" fill="#231F20" fill-rule="nonzero">
                <rect id="XMLID_136_" transform="translate(6.051282, 1.102055) rotate(0.398295) translate(-6.051282, -1.102055) " x="0.801155041" y="0.102030877" width="10.5002537" height="2.00004833"></rect>
            </g>
            <g id="XMLID_6_"></g>
            <g id="XMLID_32_" transform="translate(68.000000, 70.000000)" fill="#231F20" fill-rule="nonzero">
                <polygon id="XMLID_135_" points="105.7 91.2 103.7 91.2 103.7 14.2 55 2.8 2.4 14.3 2.4 90.9 0.4 90.9 0.4 12.6 55 0.7 105.7 12.7"></polygon>
            </g>
            <g id="XMLID_8_" transform="translate(55.000000, 55.000000)" fill="#DC92FF" fill-rule="nonzero">
                <path d="M66.1,132.6 C48.5,132.6 31.9,125.7 19.4,113.3 C6.9,100.8 0.1,84.3 0.1,66.6 C0.1,30.2 29.7,0.6 66.1,0.6 C102.5,0.6 132.1,30.2 132.1,66.6 C132.1,84.5 125.1,101.2 112.3,113.7 C99.9,125.9 83.5,132.6 66.1,132.6 Z M66.1,2.6 C30.8,2.6 2.1,31.3 2.1,66.6 C2.1,83.7 8.8,99.8 20.8,111.8 C33,124 49,130.6 66.1,130.6 C82.9,130.6 98.8,124.1 110.9,112.3 C123.3,100.2 130.1,83.9 130.1,66.6 C130.1,31.3 101.4,2.6 66.1,2.6 Z" id="XMLID_132_"></path>
            </g>
            <g id="XMLID_12_" transform="translate(111.000000, 61.000000)" fill="#231F20" fill-rule="nonzero">
                <path d="M4.1,7.6 C2.2,7.6 0.7,6.1 0.7,4.2 C0.7,2.3 2.2,0.8 4.1,0.8 C6,0.8 7.5,2.3 7.5,4.2 C7.5,6.1 6,7.6 4.1,7.6 Z M4.1,2.8 C3.3,2.8 2.7,3.4 2.7,4.2 C2.7,5 3.3,5.6 4.1,5.6 C4.9,5.6 5.5,5 5.5,4.2 C5.5,3.4 4.9,2.8 4.1,2.8 Z" id="XMLID_129_"></path>
            </g>
            <g id="XMLID_13_" transform="translate(117.000000, 64.000000)" fill="#231F20" fill-rule="nonzero">
                <rect id="XMLID_128_" x="0.5" y="0.2" width="5.5" height="2"></rect>
            </g>
            <g id="XMLID_15_" transform="translate(93.000000, 64.000000)" fill="#231F20" fill-rule="nonzero">
                <path d="M2.9,13.9 L0.9,13.9 L0.9,4.1 C0.9,2.8 1.3,1.9 2,1.2 C3,0.2 4.4,0.2 4.6,0.2 L19.8,0.2 L19.8,2.2 L4.5,2.2 C4.5,2.2 3.8,2.2 3.4,2.6 C3.1,2.9 2.9,3.4 2.9,4.1 L2.9,13.9 Z" id="XMLID_127_"></path>
            </g>
            <g id="XMLID_14_" transform="translate(140.000000, 66.000000)" fill="#231F20" fill-rule="nonzero">
                <path d="M3.4,6.9 C1.5,6.9 0,5.4 0,3.5 C0,1.6 1.5,0.1 3.4,0.1 C5.3,0.1 6.8,1.6 6.8,3.5 C6.8,5.4 5.3,6.9 3.4,6.9 Z M3.4,2.1 C2.6,2.1 2,2.7 2,3.5 C2,4.3 2.6,4.9 3.4,4.9 C4.2,4.9 4.8,4.3 4.8,3.5 C4.8,2.7 4.1,2.1 3.4,2.1 Z" id="XMLID_124_"></path>
            </g>
            <g id="XMLID_25_" transform="translate(74.000000, 76.000000)" fill-rule="nonzero">
                <polyline id="XMLID_119_" fill="#DC92FF" points="1.1 45.6 1.1 11.8 49 1.9 92.6 11.8 92.6 45.6"></polyline>
                <polygon id="XMLID_122_" fill="#231F20" points="93.6 45.6 91.6 45.6 91.6 12.6 49 2.9 2.1 12.6 2.1 45.6 0.1 45.6 0.1 11 49 0.9 93.6 11"></polygon>
            </g>
            <g id="XMLID_33_" transform="translate(121.000000, 146.000000)" fill="#231F20" fill-rule="nonzero">
                <path d="M0.1,36.1 L0.1,34.1 C17,34.1 31.2,27.4 44.6,13.1 L44.6,0.6 L46.6,0.6 L46.6,13.9 L46.3,14.2 C32.4,29.2 17.7,36.1 0.1,36.1 Z" id="XMLID_121_"></path>
            </g>
            <g id="XMLID_23_"></g>
            <g id="XMLID_28_"></g>
            <g id="XMLID_24_" transform="translate(74.000000, 146.000000)" fill="#231F20" fill-rule="nonzero">
                <path d="M47.1,36.1 C23.9,36.1 10.5,24.8 0.4,13.7 L0.1,13.4 L0,9.4 L0,0.5 L2,0.5 L2,12.5 C11.8,23.1 24.7,33.9 47,33.9 L47,36.1 L47.1,36.1 Z" id="XMLID_120_"></path>
            </g>
            <g id="XMLID_45_" transform="translate(49.000000, 120.000000)" fill="#DC92FF" fill-rule="nonzero">
                <polygon id="XMLID_279_" points="19.4 0.6 0 0.6 5.2 13.4 0 27.3 19.4 27.3"></polygon>
            </g>
            <g id="XMLID_44_" transform="translate(173.000000, 120.000000)" fill="#DC92FF" fill-rule="nonzero">
                <polygon id="XMLID_277_" points="0.6 0.6 20.1 0.6 14.8 13.4 20.1 27.3 0.6 27.3"></polygon>
            </g>
            <g id="XMLID_37_" transform="translate(65.000000, 115.000000)" fill="#DC92FF" fill-rule="nonzero">
                <rect id="XMLID_275_" x="0.7" y="0.7" width="110.7" height="27"></rect>
            </g>
            <g id="XMLID_9_" transform="translate(47.000000, 115.000000)" fill-rule="nonzero">
                <polygon id="XMLID_115_" fill="#FFFFFF" points="22.4 1 2 1 7.4 13.8 2 27.7 22.4 27.7"></polygon>
                <path d="M23.4,28.7 L0.5,28.7 L6.4,13.8 L0.4,0 L23.3,0 L23.3,28.7 L23.4,28.7 Z M3.4,26.7 L21.3,26.7 L21.3,2 L3.5,2 L8.5,13.8 L3.4,26.7 Z" id="XMLID_116_" fill="#231F20"></path>
            </g>
            <g id="XMLID_10_" transform="translate(171.000000, 115.000000)" fill-rule="nonzero">
                <polygon id="XMLID_111_" fill="#FFFFFF" points="1.7 1 22.1 1 16.6 13.8 22.1 27.7 1.7 27.7"></polygon>
                <path d="M23.5,28.7 L0.6,28.7 L0.6,0 L23.5,0 L17.6,13.8 L23.5,28.7 Z M2.7,26.7 L20.6,26.7 L15.5,13.8 L20.5,2 L2.6,2 L2.6,26.7 L2.7,26.7 Z" id="XMLID_112_" fill="#231F20"></path>
            </g>
            <g id="XMLID_26_" transform="translate(64.000000, 110.000000)" fill-rule="nonzero">
                <rect id="XMLID_107_" fill="#FFFFFF" x="1.7" y="1.1" width="110.7" height="27"></rect>
                <path d="M113.4,29.1 L0.7,29.1 L0.7,0.1 L113.4,0.1 L113.4,29.1 Z M2.7,27.1 L111.4,27.1 L111.4,2.1 L2.7,2.1 L2.7,27.1 Z" id="XMLID_108_" fill="#231F20"></path>
            </g>
            <g id="XMLID_43_" transform="translate(104.000000, 100.000000)" fill="#DC92FF" fill-rule="nonzero">
                <polygon id="XMLID_258_" points="0.8 9.1 0.8 25.6 12 17.4 12 39.5 0.8 39.5 0.8 53.6 35.3 53.6 35.3 39.4 25.2 39.4 25.2 0.9 12.7 0.9"></polygon>
            </g>
            <g id="XMLID_34_" transform="translate(103.000000, 95.000000)" fill-rule="nonzero">
                <polygon id="XMLID_1_" fill="#FFFFFF" points="1.8 9.3 1.8 25.8 13 17.5 13 39.7 1.8 39.7 1.8 53.7 36.3 53.7 36.3 39.5 26.2 39.5 26.2 1 13.7 1"></polygon>
                <path d="M37.3,54.7 L0.8,54.7 L0.8,38.7 L12,38.7 L12,19.5 L0.7,27.7 L0.7,8.7 L13.4,-1.42108547e-14 L27.2,-1.42108547e-14 L27.2,38.5 L37.2,38.5 L37.2,54.7 L37.3,54.7 Z M2.8,52.7 L35.3,52.7 L35.3,40.5 L25.3,40.5 L25.3,2 L14,2 L2.7,9.8 L2.7,23.8 L14,15.6 L14,40.7 L2.7,40.7 L2.7,52.7 L2.8,52.7 Z" id="XMLID_40_" fill="#231F20"></path>
            </g>
            <g id="XMLID_7_" transform="translate(101.000000, 158.000000)" fill-rule="nonzero">
                <path d="M0.9,2.3 C0.9,1.5 1,1 1.3,0.6 C1.6,0.2 2,0.1 2.6,0.1 C2.9,0.1 3.1,0.1 3.3,0.2 C3.5,0.3 3.6,0.4 3.7,0.5 C3.8,0.6 3.9,0.7 4,0.8 C4.1,0.9 4.1,1.1 4.2,1.2 C4.3,1.5 4.3,1.8 4.3,2.2 C4.3,3 4.2,3.5 3.9,3.9 C3.6,4.2 3.2,4.4 2.6,4.4 C2.3,4.4 2,4.3 1.8,4.2 C1.6,4.1 1.4,3.9 1.3,3.7 C1.2,3.5 1.1,3.3 1.1,3.1 C1.1,2.9 0.9,2.6 0.9,2.3 Z M2,2.3 C2,2.8 2,3.2 2.1,3.4 C2.2,3.6 2.3,3.7 2.5,3.7 C2.6,3.7 2.7,3.7 2.8,3.6 C2.9,3.5 2.9,3.4 3,3.2 C3.1,3 3.1,2.7 3.1,2.4 C3.1,1.8 3.1,1.5 3,1.3 C2.9,1.1 2.8,1 2.6,1 C2.4,1 2.3,1.1 2.2,1.3 C2.1,1.5 2,1.8 2,2.3 Z" id="XMLID_38_" fill="#231F20"></path>
                <polygon id="XMLID_63_" fill="#231F20" points="4.4 0.2 5.8 0.2 6.5 1.5 7.2 0.2 8.6 0.2 7.3 2.2 8.7 4.3 7.3 4.3 6.5 3 5.7 4.3 4.3 4.3 5.7 2.1"></polygon>
                <polygon id="XMLID_65_" fill="#DC92FF" points="8.9 1.9 10 1.9 10 0.8 10.9 0.8 10.9 1.9 12 1.9 12 2.8 10.9 2.8 10.9 3.9 10 3.9 10 2.8 8.9 2.8"></polygon>
                <path d="M15.3,2.7 L16.4,3 C16.3,3.3 16.2,3.6 16,3.8 C15.8,4 15.6,4.2 15.4,4.3 C15.2,4.4 14.9,4.5 14.5,4.5 C14,4.5 13.7,4.4 13.4,4.3 C13.1,4.2 12.9,3.9 12.7,3.6 C12.5,3.3 12.4,2.8 12.4,2.3 C12.4,1.6 12.6,1.1 12.9,0.7 C13.3,0.3 13.8,0.1 14.5,0.1 C15,0.1 15.4,0.2 15.7,0.4 C16,0.6 16.2,0.9 16.4,1.4 L15.3,1.7 C15.3,1.6 15.2,1.5 15.2,1.4 C15.1,1.3 15,1.2 14.9,1.2 C14.8,1.1 14.7,1.1 14.6,1.1 C14.3,1.1 14.1,1.2 13.9,1.5 C13.8,1.7 13.7,1.9 13.7,2.3 C13.7,2.8 13.8,3.1 13.9,3.2 C14,3.3 14.2,3.5 14.5,3.5 C14.7,3.5 14.9,3.4 15.1,3.3 C15.2,3.1 15.3,2.9 15.3,2.7 Z" id="XMLID_67_" fill="#231F20"></path>
                <path d="M16.7,2.3 C16.7,1.6 16.9,1.1 17.3,0.7 C17.7,0.3 18.2,0.1 18.9,0.1 C19.6,0.1 20.1,0.3 20.5,0.7 C20.9,1.1 21.1,1.6 21.1,2.3 C21.1,2.8 21,3.2 20.9,3.5 C20.7,3.8 20.5,4.1 20.2,4.2 C19.9,4.3 19.5,4.5 19,4.5 C18.5,4.5 18.1,4.4 17.8,4.3 C17.5,4.2 17.2,3.9 17.1,3.6 C16.8,3.2 16.7,2.8 16.7,2.3 Z M18,2.3 C18,2.7 18.1,3 18.2,3.2 C18.4,3.4 18.6,3.5 18.8,3.5 C19.1,3.5 19.3,3.4 19.4,3.2 C19.6,3 19.6,2.7 19.6,2.2 C19.6,1.8 19.5,1.5 19.4,1.3 C19.2,1.1 19,1 18.8,1 C18.5,1 18.3,1.1 18.2,1.3 C18,1.6 18,1.9 18,2.3 Z" id="XMLID_69_" fill="#231F20"></path>
                <polygon id="XMLID_72_" fill="#231F20" points="21.5 0.2 22.8 0.2 22.8 4.4 21.5 4.4"></polygon>
                <polygon id="XMLID_74_" fill="#231F20" points="23.4 0.2 24.6 0.2 26.2 2.5 26.2 0.2 27.4 0.2 27.4 4.4 26.2 4.4 24.6 2.1 24.6 4.4 23.4 4.4"></polygon>
                <polygon id="XMLID_76_" fill="#231F20" points="28 0.2 29.3 0.2 29.3 3.3 31.3 3.3 31.3 4.3 28 4.3"></polygon>
                <polygon id="XMLID_78_" fill="#231F20" points="31.7 0.2 33 0.2 33 4.4 31.7 4.4"></polygon>
                <path d="M33.4,3 L34.6,2.9 C34.6,3.1 34.7,3.2 34.8,3.4 C34.9,3.6 35.1,3.7 35.4,3.7 C35.6,3.7 35.7,3.7 35.8,3.6 C35.9,3.5 35.9,3.4 35.9,3.3 C35.9,3.2 35.9,3.1 35.8,3 C35.7,2.9 35.5,2.8 35.1,2.8 C34.5,2.7 34.1,2.5 33.9,2.3 C33.7,2.1 33.5,1.8 33.5,1.5 C33.5,1.3 33.6,1.1 33.7,0.9 C33.8,0.7 34,0.6 34.3,0.5 C34.5,0.4 34.9,0.3 35.3,0.3 C35.8,0.3 36.2,0.4 36.5,0.6 C36.8,0.8 36.9,1.1 37,1.5 L35.8,1.6 C35.8,1.4 35.7,1.3 35.6,1.2 C35.5,1.1 35.4,1.1 35.2,1.1 C35.1,1.1 34.9,1.1 34.9,1.2 C34.8,1.3 34.8,1.3 34.8,1.4 C34.8,1.5 34.8,1.5 34.9,1.6 C35,1.7 35.1,1.7 35.3,1.8 C35.9,1.9 36.3,2 36.5,2.2 C36.7,2.3 36.9,2.5 37,2.7 C37.1,2.9 37.2,3.1 37.2,3.3 C37.2,3.6 37.1,3.8 37,4 C36.9,4.2 36.6,4.4 36.4,4.5 C36.1,4.6 35.8,4.7 35.4,4.7 C34.7,4.7 34.2,4.6 33.9,4.3 C33.6,3.8 33.5,3.4 33.4,3 Z" id="XMLID_80_" fill="#231F20"></path>
                <polygon id="XMLID_82_" fill="#231F20" points="37.3 0.2 41.2 0.2 41.2 1.2 39.9 1.2 39.9 4.3 38.6 4.3 38.6 1.2 37.3 1.2 37.3 0.2"></polygon>
                <polygon id="XMLID_84_" fill="#231F20" points="1 13.4 1 5.7 2.2 5.7 2.2 9 3.6 9 3.6 5.7 4.8 5.7 4.8 13.4 3.6 13.4 3.6 10.1 2.2 10.1 2.2 13.4"></polygon>
                <path d="M8.5,13.4 L8.3,12 L6.8,12 L6.6,13.4 L5.5,13.4 L6.7,5.7 L8.5,5.7 L9.7,13.4 L8.5,13.4 Z M8.2,10.9 L7.6,7 L7,10.9 L8.2,10.9 Z" id="XMLID_86_" fill="#231F20"></path>
                <path d="M13.9,11.5 C13.9,12.7 13.3,13.4 12.1,13.4 C10.9,13.4 10.3,12.7 10.3,11.5 L10.3,7.5 C10.3,6.3 10.9,5.6 12.1,5.6 C13.3,5.6 13.9,6.3 13.9,7.5 L13.9,8.2 L12.8,8.2 L12.8,7.4 C12.8,6.8 12.6,6.6 12.2,6.6 C11.8,6.6 11.6,6.8 11.6,7.4 L11.6,11.6 C11.6,12.1 11.8,12.3 12.2,12.3 C12.6,12.3 12.8,12.1 12.8,11.6 L12.8,10.5 L13.9,10.5 L13.9,11.5 Z" id="XMLID_89_" fill="#231F20"></path>
                <polygon id="XMLID_91_" fill="#231F20" points="15.9 11 15.9 13.4 14.7 13.4 14.7 5.7 15.9 5.7 15.9 9.1 17.5 5.7 18.7 5.7 17 9.1 18.7 13.4 17.5 13.4 16.3 10.3"></polygon>
                <path d="M22.1,13.4 L21.9,12 L20.4,12 L20.2,13.4 L19.1,13.4 L20.3,5.7 L22.1,5.7 L23.3,13.4 L22.1,13.4 Z M21.7,10.9 L21.1,7 L20.5,10.9 L21.7,10.9 Z" id="XMLID_93_" fill="#231F20"></path>
                <polygon id="XMLID_96_" fill="#231F20" points="27.3 5.7 27.3 6.8 26 6.8 26 13.4 24.8 13.4 24.8 6.8 23.5 6.8 23.5 5.7"></polygon>
                <polygon id="XMLID_98_" fill="#231F20" points="27.9 13.4 27.9 5.7 29.1 5.7 29.1 9 30.5 9 30.5 5.7 31.7 5.7 31.7 13.4 30.5 13.4 30.5 10.1 29.1 10.1 29.1 13.4"></polygon>
                <path d="M34.5,5.6 C35.7,5.6 36.3,6.3 36.3,7.5 L36.3,11.5 C36.3,12.7 35.7,13.4 34.5,13.4 C33.3,13.4 32.7,12.7 32.7,11.5 L32.7,7.5 C32.6,6.3 33.3,5.6 34.5,5.6 Z M34.5,12.4 C34.9,12.4 35.1,12.2 35.1,11.6 L35.1,7.4 C35.1,6.8 34.9,6.6 34.5,6.6 C34.1,6.6 33.9,6.8 33.9,7.4 L33.9,11.6 C33.8,12.2 34.1,12.4 34.5,12.4 Z" id="XMLID_100_" fill="#231F20"></path>
                <polygon id="XMLID_103_" fill="#231F20" points="38.2 13.4 37.1 13.4 37.1 5.7 38.6 5.7 39.8 10.3 39.8 5.7 40.9 5.7 40.9 13.4 39.7 13.4 38.2 7.8"></polygon>
            </g>
            <g id="XMLID_155_" transform="translate(69.000000, 41.000000)" fill="#DC92FF" fill-rule="nonzero">
                <path d="M7.8,25.1 L6.5,26.1 L3.2,22.1 C2.9,21.7 2.5,21.2 2,20.5 C2,20.6 2,20.7 2,21 C2,21.3 2,21.8 1.9,22.5 L0.5,22.3 L0.9,19.1 L2,18.2 L7.8,25.1 Z" id="XMLID_2_"></path>
                <path d="M12.2,18.9 C12.7,19.6 12.9,20.2 12.8,20.8 C12.7,21.4 12.3,21.9 11.7,22.4 C11.1,22.8 10.4,23.1 9.8,23.1 L8.9,21.8 C9.7,21.8 10.3,21.6 10.8,21.3 C11.1,21.1 11.2,20.9 11.2,20.7 C11.2,20.5 11.2,20.2 11,20 C10.8,19.8 10.6,19.6 10.3,19.5 C10,19.4 9.6,19.4 9.1,19.4 C8.6,19.4 8.3,19.4 8,19.3 C7.7,19.2 7.4,19.1 7.2,18.9 C6.9,18.7 6.7,18.5 6.5,18.1 C6.1,17.5 5.9,16.8 6,16.2 C6.1,15.6 6.4,15.1 7,14.7 C7.6,14.3 8.2,14.1 8.9,14.1 L9.2,15.5 C9,15.5 8.8,15.5 8.5,15.6 C8.3,15.6 8.1,15.7 7.9,15.9 C7.7,16.1 7.6,16.2 7.5,16.5 C7.5,16.7 7.6,17 7.7,17.2 C7.9,17.4 8.1,17.6 8.4,17.7 C8.7,17.8 9,17.8 9.6,17.8 C10.3,17.8 10.9,17.9 11.3,18.1 C11.5,18.1 11.9,18.4 12.2,18.9 Z" id="XMLID_4_"></path>
                <polygon id="XMLID_16_" points="17.7 18.4 16.3 19.2 12.6 12.7 11.1 13.5 10.4 12.2 14.8 9.7 15.5 11 14.1 12"></polygon>
                <path d="M27.1,7.6 C27.4,8.5 27.5,9.2 27.2,9.9 C26.9,10.5 26.4,11 25.5,11.3 L25.1,11.4 L26.2,14.4 L24.7,15 L21.5,6.7 L23.6,5.9 C25.3,5.3 26.4,5.8 27.1,7.6 Z M24.6,10.1 L24.9,10 C25.3,9.9 25.5,9.6 25.6,9.4 C25.7,9.1 25.7,8.7 25.5,8.3 C25.3,7.9 25.1,7.6 24.9,7.4 C24.7,7.3 24.3,7.3 24,7.4 L23.6,7.5 L24.6,10.1 Z" id="XMLID_19_"></path>
                <polygon id="XMLID_30_" points="31.3 12.7 28.9 4.1 30.5 3.7 32.5 10.9 34.7 10.3 35.1 11.7"></polygon>
                <path d="M41.2,10.4 L40.3,8.3 L38,8.7 L37.9,11 L36.3,11.3 L36.9,2.1 L39.1,1.7 L42.9,10.1 L41.2,10.4 Z M39.7,6.9 L38.9,4.9 C38.8,4.7 38.7,4.4 38.5,4 C38.3,3.5 38.2,3.2 38.1,3 C38.1,3.4 38.1,3.8 38.1,4.2 C38.1,4.6 38.1,5.5 38,7.1 L39.7,6.9 Z" id="XMLID_35_"></path>
                <path d="M46.9,2.2 C46.4,2.2 46.1,2.5 45.8,3.1 C45.6,3.7 45.5,4.4 45.6,5.4 C45.8,7.5 46.4,8.4 47.5,8.4 C48,8.4 48.4,8.2 48.9,7.8 L49,9.3 C48.6,9.6 48,9.8 47.4,9.9 C46.4,10 45.6,9.6 45,8.9 C44.4,8.1 44,7 43.9,5.6 C43.8,4.2 44,3 44.5,2.2 C45,1.4 45.7,0.9 46.7,0.8 C47,0.8 47.3,0.8 47.6,0.9 C47.9,1 48.2,1.1 48.6,1.3 L48.2,2.7 C48,2.6 47.8,2.5 47.6,2.4 C47.4,2.2 47.2,2.2 46.9,2.2 Z" id="XMLID_41_"></path>
                <polygon id="XMLID_46_" points="55.3 9.6 51.3 9.5 51.4 0.6 55.4 0.7 55.4 2.1 53 2.1 53 4.2 55.2 4.2 55.2 5.6 53 5.6 53 8.1 55.4 8.1"></polygon>
                <path d="M68.9,11.5 L66.9,11.1 L66.9,6.4 C66.9,5.7 66.9,5 67,4.1 L66.9,4.5 L66.3,6.3 L64.6,10.7 L62.6,10.3 L62.7,1.2 L64.3,1.5 L64.1,6.6 C64.1,7.1 64,7.9 64,9 C64.3,7.9 64.6,7.2 64.7,6.8 L66.6,2 L68.3,2.3 L68.3,7.5 C68.3,8.2 68.2,9 68.2,9.9 C68.6,8.7 68.8,8 69,7.6 L70.7,2.8 L72.3,3.1 L68.9,11.5 Z" id="XMLID_48_"></path>
                <polygon id="XMLID_50_" points="72.5 12.5 75.1 4 76.6 4.5 74 13"></polygon>
                <path d="M82.5,16.2 L80.6,15.4 L80.5,8.4 L80.4,8.4 C80.3,8.9 80.2,9.4 79.9,9.9 L78,14.4 L76.6,13.8 L80,5.6 L81.9,6.4 L82,13.3 L82.1,13.3 C82.2,12.9 82.3,12.4 82.6,11.8 L84.5,7.3 L85.9,7.9 L82.5,16.2 Z" id="XMLID_52_"></path>
                <path d="M90.1,20.4 L88.3,19.4 L89.1,12.4 L89,12.4 C88.8,12.9 88.6,13.4 88.4,13.9 L86,18 L84.7,17.2 L89.1,9.4 L90.9,10.4 L90.1,17.3 L90.2,17.3 C90.3,16.9 90.6,16.4 90.9,15.9 L93.3,11.7 L94.6,12.5 L90.1,20.4 Z" id="XMLID_54_"></path>
                <polygon id="XMLID_56_" points="95.4 24.1 92.1 21.8 97.3 14.6 100.6 16.9 99.8 18.1 97.9 16.7 96.7 18.4 98.5 19.7 97.7 20.9 95.9 19.6 94.5 21.6 96.4 23"></polygon>
                <path d="M100.8,24 L98.5,26.6 L97.2,25.5 L103,18.8 L104.6,20.2 C105.3,20.8 105.7,21.4 105.7,22 C105.7,22.6 105.5,23.3 104.9,23.9 C104.2,24.8 103.4,25.1 102.5,24.9 L101.2,29 L99.9,27.8 L101.1,24.3 L100.8,24 Z M101.7,22.9 L102,23.2 C102.3,23.5 102.6,23.6 102.9,23.5 C103.2,23.4 103.5,23.3 103.7,22.9 C104,22.6 104.1,22.3 104.1,22 C104.1,21.7 103.9,21.5 103.7,21.2 L103.4,20.9 L101.7,22.9 Z" id="XMLID_58_"></path>
            </g>
        </g>
    </g>
</svg>