<?xml version="1.0" encoding="UTF-8"?>
<svg width="184px" height="184px" viewBox="0 0 184 184" version="1.1" xmlns="http://www.w3.org/2000/svg" xmlns:xlink="http://www.w3.org/1999/xlink">
    <!-- Generator: Sketch 53 (72520) - https://sketchapp.com -->
    <title>community</title>
    <desc>Created with Sketch.</desc>
    <g id="Page-1" stroke="none" stroke-width="1" fill="none" fill-rule="evenodd">
        <g id="community" transform="translate(0.000000, -257.000000)" fill-rule="nonzero">
            <g id="XMLID_246_" transform="translate(0.000000, 257.000000)" fill="#2AC49F">
                <path d="M183.3,91.6 C183.3,117.2 172.8,140.4 155.8,157 C139.3,173.2 116.6,183.2 91.7,183.2 C66.4,183.2 43.5,172.9 26.9,156.4 C10.3,139.9 0.1,116.9 0.1,91.6 C0.1,41 41.1,0 91.7,0 C142.3,0 183.3,41 183.3,91.6 Z" id="XMLID_583_"></path>
            </g>
            <g id="XMLID_244_" transform="translate(4.000000, 261.000000)">
                <path d="M174.2,87.6 C174.2,111.8 164.3,133.7 148.3,149.3 C132.7,164.6 111.4,174 87.8,174 C63.9,174 42.3,164.3 26.7,148.7 C11.1,133.1 1.4,111.5 1.4,87.6 C1.4,39.9 40.1,1.2 87.8,1.2 C135.5,1.2 174.2,39.9 174.2,87.6 Z" id="XMLID_243_" fill="#FFFFFF"></path>
                <path d="M87.7,175 C64.3,175 42.4,165.9 25.9,149.4 C9.4,132.9 0.3,110.9 0.3,87.6 C0.3,39.4 39.5,0.2 87.7,0.2 C135.9,0.2 175.1,39.4 175.1,87.6 C175.1,111.3 165.8,133.5 148.9,150.1 C132.5,166.2 110.7,175 87.7,175 Z M87.7,2.2 C40.6,2.2 2.3,40.5 2.3,87.6 C2.3,110.4 11.2,131.9 27.3,148 C43.4,164.1 64.9,173 87.7,173 C110.2,173 131.4,164.3 147.5,148.6 C164,132.4 173.1,110.7 173.1,87.6 C173.2,40.5 134.8,2.2 87.7,2.2 Z" id="XMLID_336_" fill="#231F20"></path>
            </g>
            <g id="XMLID_242_" transform="translate(34.000000, 268.000000)" fill="#2AC49F">
                <path d="M2.2,24.8 C1.9,25.1 1.8,25.6 2,26.2 C2.2,26.8 2.7,27.4 3.4,28.1 C4.9,29.5 6,29.9 6.7,29.1 C7,28.8 7.3,28.3 7.4,27.7 L8.5,28.7 C8.4,29.2 8.1,29.7 7.6,30.2 C6.9,30.9 6.1,31.2 5.1,31 C4.2,30.8 3.2,30.2 2.1,29.2 C1.1,28.2 0.4,27.2 0.2,26.3 C0,25.3 0.2,24.5 0.9,23.8 C1.1,23.6 1.4,23.4 1.6,23.2 C1.9,23 2.2,22.9 2.6,22.8 L3.2,24.1 C3,24.1 2.8,24.2 2.5,24.3 C2.6,24.5 2.4,24.6 2.2,24.8 Z" id="XMLID_342_"></path>
                <path d="M12.2,20.2 C13.1,21.3 13.6,22.4 13.7,23.4 C13.8,24.4 13.4,25.2 12.6,25.8 C11.8,26.5 10.9,26.7 10,26.4 C9.1,26.1 8.1,25.4 7.2,24.3 C6.3,23.2 5.8,22.1 5.7,21.2 C5.6,20.2 6,19.4 6.8,18.8 C7.6,18.1 8.5,18 9.4,18.2 C10.3,18.4 11.3,19.1 12.2,20.2 Z M8.6,23.2 C9.2,24 9.8,24.5 10.4,24.8 C10.9,25 11.4,25 11.8,24.7 C12.6,24.1 12.3,22.9 11,21.3 C9.7,19.7 8.6,19.2 7.9,19.8 C7.5,20.1 7.4,20.6 7.5,21.1 C7.5,21.8 7.9,22.4 8.6,23.2 Z" id="XMLID_345_"></path>
                <path d="M19.5,20.7 L14.1,15.1 L14,15.1 C14.4,15.5 14.7,16 14.9,16.4 L18,21.5 L16.7,22.3 L12,14.7 L14.2,13.4 L19.2,18.6 L19.2,18.6 L16.8,11.9 L19,10.5 L23.7,18.1 L22.4,18.9 L19.2,13.8 C18.9,13.4 18.7,12.9 18.5,12.4 L18.5,12.4 L21.1,19.7 L19.5,20.7 Z" id="XMLID_348_"></path>
                <path d="M28.8,15.7 L24.3,9.4 L24.2,9.4 C24.5,9.9 24.7,10.4 24.9,10.8 L27.3,16.3 L25.9,16.9 L22.4,8.7 L24.7,7.7 L28.9,13.5 L28.9,13.5 L27.5,6.5 L29.9,5.5 L33.4,13.7 L32,14.3 L29.6,8.7 C29.4,8.3 29.2,7.8 29.1,7.3 L29.1,7.3 L30.5,14.9 L28.8,15.7 Z" id="XMLID_350_"></path>
                <path d="M38.6,2.9 L40.2,8.4 C40.5,9.4 40.5,10.3 40.2,10.9 C39.9,11.6 39.3,12 38.4,12.3 C37.5,12.5 36.8,12.5 36.2,12 C35.6,11.6 35.2,10.9 34.9,9.8 L33.3,4.3 L34.9,3.9 L36.5,9.5 C36.8,10.6 37.3,11 38,10.8 C38.3,10.7 38.6,10.5 38.7,10.2 C38.8,9.9 38.8,9.4 38.6,8.9 L37,3.2 L38.6,2.9 Z" id="XMLID_352_"></path>
                <path d="M49.6,10 L47.6,10.3 L43.9,4.4 L43.8,4.4 C44,4.9 44.1,5.4 44.2,5.9 L45,10.7 L43.5,10.9 L42.1,2.1 L44.1,1.8 L47.8,7.7 L47.9,7.7 C47.8,7.3 47.6,6.8 47.5,6.2 L46.7,1.4 L48.2,1.2 L49.6,10 Z" id="XMLID_354_"></path>
                <polygon id="XMLID_356_" points="52.4 9.8 51.8 0.9 53.4 0.8 54 9.7"></polygon>
                <polygon id="XMLID_358_" points="59.6 9.6 57.9 9.6 58 2.1 56.3 2.1 56.3 0.6 61.4 0.7 61.4 2.2 59.7 2.2"></polygon>
                <polygon id="XMLID_360_" points="65.9 4.6 67.4 1.2 69.1 1.4 66.4 6.5 66 10.1 64.4 9.9 64.8 6.4 63.3 0.8 65 1"></polygon>
                <path d="M81.1,13.4 L79.1,12.8 L79.6,8.1 C79.7,7.4 79.8,6.7 80,5.9 L79.8,6.3 L79,8 L76.9,12.2 L74.9,11.6 L75.9,2.6 L77.5,3.1 L76.9,8.1 C76.8,8.6 76.7,9.4 76.5,10.5 C76.9,9.4 77.2,8.7 77.4,8.3 L79.7,3.7 L81.3,4.2 L80.8,9.3 C80.7,10 80.6,10.8 80.4,11.6 C80.9,10.5 81.2,9.7 81.4,9.4 L83.6,4.8 L85.2,5.3 L81.1,13.4 Z" id="XMLID_362_"></path>
                <polygon id="XMLID_364_" points="84.5 14.7 87.9 6.5 89.3 7.1 85.9 15.3"></polygon>
                <path d="M94.1,19.4 L92.3,18.4 L92.9,11.4 L92.8,11.4 C92.7,11.9 92.5,12.4 92.2,12.9 L89.9,17.2 L88.5,16.5 L92.7,8.6 L94.5,9.6 L93.9,16.5 L94,16.5 C94.1,16.1 94.3,15.6 94.6,15.1 L96.9,10.8 L98.2,11.5 L94.1,19.4 Z" id="XMLID_367_"></path>
                <path d="M101.3,24.3 L99.6,23.1 L101,16.2 L100.9,16.2 C100.7,16.7 100.4,17.1 100.1,17.6 L97.3,21.6 L96,20.7 L101.1,13.4 L102.8,14.6 L101.4,21.4 L101.5,21.4 C101.7,21 101.9,20.6 102.3,20.1 L105.1,16.1 L106.3,17 L101.3,24.3 Z" id="XMLID_369_"></path>
                <polygon id="XMLID_371_" points="106.3 28.5 103.3 25.9 109.1 19.2 112.1 21.8 111.2 22.9 109.4 21.4 108 23 109.7 24.4 108.8 25.5 107.1 24.1 105.5 26 107.3 27.5"></polygon>
                <path d="M111.6,28.8 L109.1,31.2 L108,30 L114.4,23.8 L115.9,25.4 C116.5,26.1 116.8,26.7 116.8,27.3 C116.8,27.9 116.5,28.5 115.8,29.2 C115,30 114.2,30.2 113.3,30 L111.7,33.9 L110.5,32.6 L112,29.2 L111.6,28.8 Z M112.6,27.9 L112.9,28.2 C113.2,28.5 113.4,28.6 113.7,28.6 C114,28.6 114.3,28.4 114.6,28.1 C114.9,27.8 115.1,27.5 115.1,27.2 C115.1,26.9 115,26.7 114.7,26.4 L114.4,26.1 L112.6,27.9 Z" id="XMLID_373_"></path>
            </g>
            <g id="XMLID_241_" transform="translate(65.000000, 284.000000)" fill="#2AC49F">
                <path d="M12.9,15.5 L0,5.5 C0,5.5 6.9,1.4 20.4,0 L26.7,5.3 L33.6,0 C33.6,0 42.7,0.4 54.5,5.7 L41.8,15.5 L26.9,11.7 L12.9,15.5 Z" id="XMLID_543_"></path>
            </g>
            <g id="XMLID_2_" transform="translate(26.000000, 0.000000)">
                <g id="XMLID_240_" transform="translate(116.000000, 360.000000)" fill="#2AC49F">
                    <polyline id="XMLID_541_" points="0.7 10.8 5 15.7 8.4 3.3 7 0.6 4.5 9.5 0.7 5.1 0.7 10.8"></polyline>
                </g>
                <g id="XMLID_239_" transform="translate(80.000000, 334.000000)" fill="#231F20">
                    <polygon id="XMLID_341_" points="8.7 20.7 0.8 20.7 0.8 18.7 6.2 18.7 2.5 1.2 4.4 0.8"></polygon>
                </g>
                <g id="XMLID_238_" transform="translate(92.000000, 334.000000)" fill="#231F20">
                    <polygon id="XMLID_340_" points="8 20.7 0.1 20.7 0.1 18.7 5.5 18.7 1.8 1.2 3.7 0.8"></polygon>
                </g>
                <g id="XMLID_237_" transform="translate(58.000000, 283.000000)" fill="#231F20">
                    <polygon id="XMLID_339_" points="7.7 7.5 0.8 1.7 2 0.2 7.7 4.9 14 0.1 15.2 1.7"></polygon>
                </g>
                <g id="XMLID_236_" transform="translate(38.000000, 288.000000)" fill="#231F20">
                    <rect id="XMLID_338_" transform="translate(7.363460, 6.473005) rotate(37.756890) translate(-7.363460, -6.473005) " x="-0.786375572" y="5.47302518" width="16.2996711" height="1.99995965"></rect>
                </g>
                <g id="XMLID_233_" transform="translate(80.000000, 288.000000)" fill="#231F20">
                    <rect id="XMLID_337_" transform="translate(7.076680, 6.606100) rotate(52.238581) translate(-7.076680, -6.606100) " x="6.07663894" y="-1.39422847" width="2.00008212" height="16.0006569"></rect>
                </g>
                <g id="XMLID_232_" transform="translate(14.000000, 294.000000)">
                    <polyline id="XMLID_329_" fill="#FFFFFF" points="0.7 14.6 51.8 1.7 102.7 14.6"></polyline>
                    <polygon id="XMLID_335_" fill="#231F20" points="1 15.6 0.5 13.7 51.8 0.6 52.1 0.7 103 13.7 102.5 15.6 51.8 2.7"></polygon>
                </g>
                <g id="XMLID_231_" transform="translate(19.000000, 299.000000)" fill="#231F20">
                    <path d="M47,110.1 C29.3,110.1 13.1,102.4 0.3,87.7 L0.1,87.4 L2.84217094e-14,83.5 L2.84217094e-14,13.1 L46.8,0.8 L93.5,13.1 L93.5,87.9 L93.2,88.2 C80,102.7 64.4,110.1 47,110.1 Z M2,86.7 C14.6,100.9 29.7,108.1 47,108.1 C63.8,108.1 78.7,101.1 91.5,87.1 L91.5,14.6 L46.8,2.9 L2,14.6 L2,83.4 L2,86.7 Z" id="XMLID_332_"></path>
                </g>
                <g id="XMLID_230_" transform="translate(120.000000, 329.000000)" fill="#231F20">
                    <rect id="XMLID_331_" x="0.7" y="0.6" width="7.4" height="2"></rect>
                </g>
                <g id="XMLID_228_" transform="translate(3.000000, 329.000000)" fill="#231F20">
                    <rect id="XMLID_330_" x="0.8" y="0.6" width="6.9" height="2"></rect>
                </g>
                <g id="XMLID_225_" transform="translate(116.000000, 359.000000)">
                    <polyline id="XMLID_186_" fill="#FFFFFF" points="0.7 6.1 5 11 7.9 0.2"></polyline>
                    <polygon id="XMLID_327_" fill="#231F20" points="5.5 13 0 6.8 1.5 5.5 4.5 8.9 6.9 0 8.9 0.5"></polygon>
                </g>
                <g id="XMLID_221_" transform="translate(115.000000, 308.000000)" fill="#231F20">
                    <rect id="XMLID_326_" x="0.7" y="0.6" width="2" height="79.9"></rect>
                </g>
                <g id="XMLID_218_" transform="translate(13.000000, 308.000000)" fill="#231F20">
                    <rect id="XMLID_325_" x="0.7" y="0.6" width="2" height="79.9"></rect>
                </g>
                <g id="XMLID_212_" transform="translate(0.000000, 282.000000)" fill="#2AC49F">
                    <path d="M66,132.6 C48.4,132.6 31.8,125.7 19.3,113.3 C6.8,100.8 0,84.3 0,66.6 C0,30.2 29.6,0.6 66,0.6 C102.4,0.6 132,30.2 132,66.6 C132,84.5 125,101.2 112.2,113.7 C99.8,125.9 83.4,132.6 66,132.6 Z M66,2.6 C30.7,2.6 2,31.3 2,66.6 C2,83.7 8.7,99.8 20.7,111.8 C32.8,123.9 48.9,130.5 65.9,130.5 C82.7,130.5 98.6,124 110.7,112.2 C123.1,100.1 129.9,83.8 129.9,66.5 C130,31.3 101.3,2.6 66,2.6 Z" id="XMLID_322_"></path>
                </g>
                <g id="XMLID_211_" transform="translate(97.000000, 365.000000)" fill="#231F20">
                    <rect id="XMLID_321_" x="0" y="0.6" width="2" height="16.1"></rect>
                </g>
                <g id="XMLID_209_" transform="translate(40.000000, 368.000000)" fill="#231F20">
                    <path d="M9.1,14.1 C9,14.1 8.9,14.1 8.8,14.1 L0.1,14.1 L0.1,12.1 L9,12.1 C9.1,12.1 9.5,12.1 9.7,11.9 C9.8,11.8 9.8,11.7 9.8,11.4 L9.8,0.8 L11.8,0.8 L11.8,11.4 C11.8,12.4 11.4,13.1 11,13.4 C10.4,14 9.6,14.1 9.1,14.1 Z" id="XMLID_267_"></path>
                </g>
                <g id="XMLID_161_" transform="translate(46.000000, 385.000000)">
                    <path d="M0.8,2.3 C0.8,1.5 0.9,1 1.2,0.6 C1.5,0.2 1.9,0.1 2.5,0.1 C2.8,0.1 3,0.1 3.2,0.2 C3.4,0.3 3.5,0.4 3.6,0.5 C3.7,0.6 3.8,0.7 3.9,0.8 C4,0.9 4,1.1 4.1,1.2 C4.2,1.5 4.2,1.8 4.2,2.2 C4.2,3 4.1,3.5 3.8,3.9 C3.5,4.3 3.1,4.4 2.5,4.4 C2.2,4.4 1.9,4.3 1.7,4.2 C1.5,4.1 1.3,3.9 1.2,3.7 C1.1,3.5 1,3.3 1,3.1 C0.8,2.9 0.8,2.6 0.8,2.3 Z M1.9,2.3 C1.9,2.8 1.9,3.2 2,3.4 C2.1,3.6 2.2,3.7 2.4,3.7 C2.5,3.7 2.6,3.7 2.7,3.6 C2.8,3.5 2.8,3.4 2.9,3.2 C2.9,3 3,2.7 3,2.4 C3,1.8 3,1.5 2.9,1.3 C2.8,1.1 2.7,1 2.5,1 C2.3,1 2.2,1.1 2.1,1.3 C2,1.4 1.9,1.7 1.9,2.3 Z" id="XMLID_275_" fill="#231F20"></path>
                    <polygon id="XMLID_278_" fill="#231F20" points="4.3 0.2 5.7 0.2 6.4 1.5 7.1 0.2 8.5 0.2 7.2 2.2 8.6 4.3 7.2 4.3 6.4 3 5.6 4.3 4.2 4.3 5.6 2.1"></polygon>
                    <polygon id="XMLID_280_" fill="#2AC49F" points="8.8 1.8 9.9 1.8 9.9 0.7 10.8 0.7 10.8 1.8 11.9 1.8 11.9 2.7 10.8 2.7 10.8 3.8 9.9 3.8 9.9 2.7 8.8 2.7"></polygon>
                    <path d="M15.2,2.7 L16.3,3 C16.2,3.3 16.1,3.6 15.9,3.8 C15.7,4 15.5,4.2 15.3,4.3 C15.1,4.4 14.8,4.5 14.4,4.5 C13.9,4.5 13.6,4.4 13.3,4.3 C13,4.2 12.8,3.9 12.6,3.6 C12.4,3.3 12.3,2.8 12.3,2.3 C12.3,1.6 12.5,1.1 12.8,0.7 C13.2,0.3 13.7,0.1 14.4,0.1 C14.9,0.1 15.3,0.2 15.6,0.4 C15.9,0.6 16.1,0.9 16.3,1.4 L15.2,1.7 C15.2,1.6 15.1,1.5 15.1,1.4 C15,1.3 14.9,1.2 14.8,1.2 C14.7,1.1 14.6,1.1 14.5,1.1 C14.2,1.1 14,1.2 13.8,1.5 C13.7,1.7 13.6,1.9 13.6,2.3 C13.6,2.8 13.7,3.1 13.8,3.2 C13.9,3.4 14.1,3.5 14.4,3.5 C14.6,3.5 14.8,3.4 15,3.3 C15,3.1 15.1,2.9 15.2,2.7 Z" id="XMLID_282_" fill="#231F20"></path>
                    <path d="M16.5,2.3 C16.5,1.6 16.7,1.1 17.1,0.7 C17.5,0.3 18,0.1 18.7,0.1 C19.4,0.1 19.9,0.3 20.3,0.7 C20.7,1.1 20.9,1.6 20.9,2.3 C20.9,2.8 20.8,3.2 20.7,3.5 C20.5,3.8 20.3,4.1 20,4.2 C19.7,4.3 19.3,4.5 18.8,4.5 C18.3,4.5 17.9,4.4 17.6,4.3 C17.3,4.2 17,3.9 16.9,3.6 C16.6,3.2 16.5,2.8 16.5,2.3 Z M17.8,2.3 C17.8,2.7 17.9,3 18,3.2 C18.2,3.4 18.4,3.5 18.6,3.5 C18.9,3.5 19.1,3.4 19.2,3.2 C19.4,3 19.4,2.7 19.4,2.2 C19.4,1.8 19.3,1.5 19.2,1.3 C19,1.1 18.8,1 18.6,1 C18.3,1 18.1,1.1 18,1.3 C17.9,1.6 17.8,1.9 17.8,2.3 Z" id="XMLID_284_" fill="#231F20"></path>
                    <polygon id="XMLID_287_" fill="#231F20" points="21.3 0.2 22.6 0.2 22.6 4.4 21.3 4.4"></polygon>
                    <polygon id="XMLID_289_" fill="#231F20" points="23.3 0.2 24.5 0.2 26.1 2.5 26.1 0.2 27.3 0.2 27.3 4.4 26.1 4.4 24.5 2.1 24.5 4.4 23.3 4.4"></polygon>
                    <polygon id="XMLID_291_" fill="#231F20" points="27.9 0.2 29.2 0.2 29.2 3.3 31.2 3.3 31.2 4.3 27.9 4.3"></polygon>
                    <polygon id="XMLID_293_" fill="#231F20" points="31.6 0.2 32.9 0.2 32.9 4.4 31.6 4.4"></polygon>
                    <path d="M33.3,3 L34.5,2.9 C34.5,3.1 34.6,3.2 34.7,3.4 C34.8,3.6 35,3.7 35.3,3.7 C35.5,3.7 35.6,3.7 35.7,3.6 C35.8,3.5 35.8,3.4 35.8,3.3 C35.8,3.2 35.8,3.1 35.7,3 C35.6,2.9 35.4,2.8 35,2.8 C34.4,2.7 34,2.5 33.8,2.3 C33.6,2.1 33.4,1.8 33.4,1.5 C33.4,1.3 33.5,1.1 33.6,0.9 C33.7,0.7 33.9,0.6 34.2,0.5 C34.4,0.4 34.8,0.3 35.2,0.3 C35.7,0.3 36.1,0.4 36.4,0.6 C36.7,0.8 36.8,1.1 36.9,1.5 L35.7,1.6 C35.7,1.4 35.6,1.3 35.5,1.2 C35.4,1.1 35.3,1.1 35.1,1.1 C35,1.1 34.8,1.1 34.8,1.2 C34.7,1.3 34.7,1.3 34.7,1.4 C34.7,1.5 34.7,1.5 34.8,1.6 C34.9,1.7 35,1.7 35.2,1.8 C35.8,1.9 36.2,2 36.4,2.2 C36.6,2.3 36.8,2.5 36.9,2.7 C37,2.9 37.1,3.1 37.1,3.3 C37.1,3.6 37,3.8 36.9,4 C36.8,4.2 36.5,4.4 36.3,4.5 C36,4.6 35.7,4.7 35.3,4.7 C34.6,4.7 34.1,4.6 33.8,4.3 C33.5,3.7 33.3,3.4 33.3,3 Z" id="XMLID_295_" fill="#231F20"></path>
                    <polygon id="XMLID_297_" fill="#231F20" points="37.2 0.2 41.1 0.2 41.1 1.2 39.8 1.2 39.8 4.3 38.5 4.3 38.5 1.2 37.2 1.2 37.2 0.2"></polygon>
                    <polygon id="XMLID_299_" fill="#231F20" points="0.9 13.4 0.9 5.7 2.1 5.7 2.1 9 3.5 9 3.5 5.7 4.7 5.7 4.7 13.4 3.5 13.4 3.5 10.1 2.1 10.1 2.1 13.4"></polygon>
                    <path d="M8.4,13.4 L8.2,12 L6.7,12 L6.5,13.4 L5.4,13.4 L6.6,5.7 L8.4,5.7 L9.6,13.4 L8.4,13.4 Z M8,10.9 L7.4,7 L6.8,10.9 L8,10.9 Z" id="XMLID_301_" fill="#231F20"></path>
                    <path d="M13.8,11.5 C13.8,12.7 13.2,13.4 12,13.4 C10.8,13.4 10.2,12.7 10.2,11.5 L10.2,7.5 C10.2,6.3 10.8,5.6 12,5.6 C13.2,5.6 13.8,6.3 13.8,7.5 L13.8,8.2 L12.7,8.2 L12.7,7.4 C12.7,6.8 12.5,6.6 12.1,6.6 C11.7,6.6 11.5,6.8 11.5,7.4 L11.5,11.6 C11.5,12.2 11.7,12.3 12.1,12.3 C12.5,12.3 12.7,12.1 12.7,11.6 L12.7,10.5 L13.8,10.5 L13.8,11.5 Z" id="XMLID_305_" fill="#231F20"></path>
                    <polygon id="XMLID_307_" fill="#231F20" points="15.8 11 15.8 13.4 14.6 13.4 14.6 5.7 15.8 5.7 15.8 9.1 17.4 5.7 18.6 5.7 16.9 9.1 18.6 13.4 17.4 13.4 16.2 10.3"></polygon>
                    <path d="M21.9,13.4 L21.7,12 L20.2,12 L20,13.4 L18.9,13.4 L20.1,5.7 L21.9,5.7 L23.1,13.4 L21.9,13.4 Z M21.6,10.9 L21,7 L20.4,10.9 L21.6,10.9 Z" id="XMLID_309_" fill="#231F20"></path>
                    <polygon id="XMLID_312_" fill="#231F20" points="27.2 5.7 27.2 6.8 25.9 6.8 25.9 13.4 24.7 13.4 24.7 6.8 23.4 6.8 23.4 5.7"></polygon>
                    <polygon id="XMLID_314_" fill="#231F20" points="27.8 13.4 27.8 5.7 29 5.7 29 9 30.4 9 30.4 5.7 31.6 5.7 31.6 13.4 30.4 13.4 30.4 10.1 29 10.1 29 13.4"></polygon>
                    <path d="M34.3,5.6 C35.5,5.6 36.1,6.3 36.1,7.5 L36.1,11.5 C36.1,12.7 35.5,13.4 34.3,13.4 C33.1,13.4 32.5,12.7 32.5,11.5 L32.5,7.5 C32.5,6.3 33.1,5.6 34.3,5.6 Z M34.3,12.3 C34.7,12.3 34.9,12.1 34.9,11.5 L34.9,7.3 C34.9,6.7 34.7,6.5 34.3,6.5 C33.9,6.5 33.7,6.7 33.7,7.3 L33.7,11.5 C33.7,12.1 33.9,12.3 34.3,12.3 Z" id="XMLID_316_" fill="#231F20"></path>
                    <polygon id="XMLID_319_" fill="#231F20" points="38.1 13.4 37 13.4 37 5.7 38.5 5.7 39.7 10.3 39.7 5.7 40.8 5.7 40.8 13.4 39.6 13.4 38.1 7.8"></polygon>
                </g>
                <g id="XMLID_156_" transform="translate(94.000000, 380.000000)" fill="#231F20">
                    <path d="M4,7.6 C2.1,7.6 0.6,6.1 0.6,4.2 C0.6,2.3 2.1,0.8 4,0.8 C5.9,0.8 7.4,2.3 7.4,4.2 C7.4,6.1 5.9,7.6 4,7.6 Z M4,2.8 C3.2,2.8 2.6,3.4 2.6,4.2 C2.6,5 3.2,5.6 4,5.6 C4.8,5.6 5.4,5 5.4,4.2 C5.4,3.4 4.8,2.8 4,2.8 Z" id="XMLID_272_"></path>
                </g>
                <g id="XMLID_154_" transform="translate(20.000000, 380.000000)" fill="#231F20">
                    <rect id="XMLID_271_" x="0" y="0" width="15.3" height="2"></rect>
                </g>
                <g id="XMLID_138_" transform="translate(34.000000, 377.000000)" fill="#231F20">
                    <path d="M3.7,7.5 C1.8,7.5 0.3,6 0.3,4.1 C0.3,2.2 1.8,0.7 3.7,0.7 C5.6,0.7 7.1,2.2 7.1,4.1 C7.1,6 5.6,7.5 3.7,7.5 Z M3.7,2.6 C2.9,2.6 2.3,3.2 2.3,4 C2.3,4.8 2.9,5.4 3.7,5.4 C4.5,5.4 5.1,4.8 5.1,4 C5.1,3.2 4.5,2.6 3.7,2.6 Z" id="XMLID_268_"></path>
                </g>
                <g id="XMLID_133_" transform="translate(8.000000, 353.000000)" fill="#2AC49F">
                    <polyline id="XMLID_425_" points="5.4 25.8 107.7 11.6 107.8 0.9 0.8 15"></polyline>
                </g>
                <g id="XMLID_124_" transform="translate(8.000000, 346.000000)">
                    <polyline id="XMLID_265_" fill="#FFFFFF" points="5.4 26.7 115.4 12.7 110.8 1.9 0.8 16"></polyline>
                    <polygon id="XMLID_266_" fill="#231F20" points="5.5 27.7 5.3 25.8 114 11.8 110.2 3 0.9 17 0.7 15 111.5 0.8 116.9 13.5"></polygon>
                </g>
                <g id="XMLID_8_" transform="translate(55.000000, 340.000000)" fill="#2AC49F">
                    <polyline id="XMLID_411_" points="17.2 0 21.2 18.7 0.5 18.7 4.5 0"></polyline>
                </g>
                <g id="XMLID_7_" transform="translate(30.000000, 313.000000)">
                    <path d="M13.2,23.9 C7,23.9 1.9,18.8 1.9,12.6 C1.9,6.4 7,1.3 13.2,1.3" id="XMLID_263_" fill="#FFFFFF"></path>
                    <path d="M13.2,24.9 C6.4,24.9 0.9,19.4 0.9,12.6 C0.9,5.8 6.4,0.3 13.2,0.3 L13.2,2.3 C7.5,2.3 2.9,6.9 2.9,12.6 C2.9,18.3 7.5,22.9 13.2,22.9 L13.2,24.9 Z" id="XMLID_264_" fill="#231F20"></path>
                </g>
                <g id="XMLID_40_" transform="translate(88.000000, 313.000000)">
                    <path d="M0.4,23.9 C6.6,23.9 11.7,18.8 11.7,12.6 C11.7,6.4 6.6,1.3 0.4,1.3" id="XMLID_261_" fill="#FFFFFF"></path>
                    <path d="M0.4,24.9 L0.4,22.9 C6.1,22.9 10.7,18.3 10.7,12.6 C10.7,6.9 6.1,2.3 0.4,2.3 L0.4,0.3 C7.2,0.3 12.7,5.8 12.7,12.6 C12.7,19.4 7.2,24.9 0.4,24.9 Z" id="XMLID_262_" fill="#231F20"></path>
                </g>
                <g id="XMLID_6_" transform="translate(77.000000, 313.000000)">
                    <path d="M0.1,23.9 C6.3,23.9 11.4,18.8 11.4,12.6 C11.4,6.4 6.3,1.3 0.1,1.3" id="XMLID_259_" fill="#FFFFFF"></path>
                    <path d="M0.1,24.9 L0.1,22.9 C5.8,22.9 10.4,18.3 10.4,12.6 C10.4,6.9 5.8,2.3 0.1,2.3 L0.1,0.3 C6.9,0.3 12.4,5.8 12.4,12.6 C12.4,19.4 6.9,24.9 0.1,24.9 Z" id="XMLID_260_" fill="#231F20"></path>
                </g>
                <g id="XMLID_38_" transform="translate(42.000000, 313.000000)">
                    <path d="M12.5,23.9 C6.3,23.9 1.2,18.8 1.2,12.6 C1.2,6.4 6.3,1.3 12.5,1.3" id="XMLID_257_" fill="#FFFFFF"></path>
                    <path d="M12.5,24.9 C5.7,24.9 0.2,19.4 0.2,12.6 C0.2,5.8 5.7,0.3 12.5,0.3 L12.5,2.3 C6.8,2.3 2.2,6.9 2.2,12.6 C2.2,18.3 6.8,22.9 12.5,22.9 L12.5,24.9 L12.5,24.9 Z" id="XMLID_258_" fill="#231F20"></path>
                </g>
                <g id="XMLID_35_" transform="translate(54.000000, 319.000000)" fill="#2AC49F">
                    <circle id="XMLID_395_" cx="11.8" cy="11.6" r="11.3"></circle>
                </g>
                <g id="XMLID_4_" transform="translate(54.000000, 334.000000)">
                    <polyline id="XMLID_252_" fill="#FFFFFF" points="18.2 1 22.2 19.7 1.5 19.7 5.5 1"></polyline>
                    <polygon id="XMLID_255_" fill="#231F20" points="23.4 20.7 0.2 20.7 4.5 0.8 6.4 1.2 2.7 18.7 20.9 18.7 17.2 1.2 19.1 0.8"></polygon>
                </g>
                <g id="XMLID_1_" transform="translate(42.000000, 334.000000)" fill="#231F20">
                    <polygon id="XMLID_254_" points="8.9 20.7 0.9 20.7 5.2 0.8 7.2 1.2 3.4 18.7 8.9 18.7"></polygon>
                </g>
                <g id="XMLID_19_" transform="translate(31.000000, 334.000000)" fill="#231F20">
                    <polygon id="XMLID_253_" points="8.6 20.7 0.7 20.7 4.9 0.8 6.9 1.2 3.1 18.7 8.6 18.7"></polygon>
                </g>
                <g id="XMLID_17_" transform="translate(53.000000, 313.000000)">
                    <circle id="XMLID_247_" fill="#FFFFFF" cx="12.8" cy="12.6" r="11.3"></circle>
                    <path d="M12.8,24.9 C6,24.9 0.5,19.4 0.5,12.6 C0.5,5.8 6,0.3 12.8,0.3 C19.6,0.3 25.1,5.8 25.1,12.6 C25.1,19.4 19.6,24.9 12.8,24.9 Z M12.8,2.3 C7.1,2.3 2.5,6.9 2.5,12.6 C2.5,18.3 7.1,22.9 12.8,22.9 C18.5,22.9 23.1,18.3 23.1,12.6 C23.1,6.9 18.5,2.3 12.8,2.3 Z" id="XMLID_249_" fill="#231F20"></path>
                </g>
                <g id="XMLID_16_" transform="translate(7.000000, 355.000000)" fill="#231F20">
                    <polygon id="XMLID_248_" points="6.5 18.8 0.6 6.8 7.1 0.8 8.4 2.3 3 7.2 8.3 17.9"></polygon>
                </g>
            </g>
        </g>
    </g>
</svg>