<?xml version="1.0" encoding="UTF-8"?>
<svg width="184px" height="185px" viewBox="0 0 184 185" version="1.1" xmlns="http://www.w3.org/2000/svg" xmlns:xlink="http://www.w3.org/1999/xlink">
    <!-- Generator: Sketch 53 (72520) - https://sketchapp.com -->
    <title>finance</title>
    <desc>Created with Sketch.</desc>
    <g id="Page-1" stroke="none" stroke-width="1" fill="none" fill-rule="evenodd">
        <g id="finance" transform="translate(0.000000, -256.000000)" fill-rule="nonzero">
            <path d="M92,259.7 C43,259.7 3.1,299.6 3.1,348.6 C3.1,372.4 12.4,394.7 29.2,411.5 C46,428.3 68.3,437.6 92.1,437.6 C115.5,437.6 137.6,428.6 154.3,412.2 C171.5,395.3 181,372.8 181,348.7 C180.9,299.6 141,259.7 92,259.7 Z" id="Path" fill="#FFFFFF"></path>
            <g id="XMLID_147_" transform="translate(132.000000, 294.000000)" fill="#D7DF23">
                <path d="M22.6,35.1 C18.7,22.4 11.1,11.4 0.6,3.1 L2.3,0.9 C13.2,9.5 21.1,21.1 25.2,34.3 L22.6,35.1 Z" id="XMLID_329_"></path>
            </g>
            <g id="XMLID_145_" transform="translate(26.000000, 291.000000)" fill="#D7DF23">
                <path d="M2.9,38.3 L0.2,37.5 C4.9,22.3 14.9,9.1 28.2,0.3 L29.7,2.6 C17,11 7.4,23.7 2.9,38.3 Z" id="XMLID_146_"></path>
            </g>
            <g id="XMLID_128_" transform="translate(60.000000, 277.000000)" fill="#D7DF23">
                <polygon id="XMLID_143_" points="6.9 16.9 5.1 17.7 0.7 7.7 5.2 5.7 5.9 7.3 3.3 8.5 4.5 11.3 7 10.2 7.7 11.8 5.2 12.9"></polygon>
                <polygon id="XMLID_141_" points="12.4 14.8 9.1 4.4 10.9 3.8 14.2 14.2"></polygon>
                <path d="M25.1,11.9 L22.7,12.3 L18,5.1 L17.9,5.1 C18.1,5.7 18.3,6.3 18.4,7 L19.4,12.9 L17.5,13.2 L15.6,2.4 L18.1,2 L22.7,9.1 L22.8,9.1 C22.6,8.6 22.5,8 22.3,7.3 L21.3,1.4 L23.1,1.1 L25.1,11.9 Z" id="XMLID_139_"></path>
                <path d="M33.3,11.6 L32.6,8.9 L29.8,8.9 L29.2,11.7 L27.2,11.7 L29.8,0.7 L32.6,0.7 L35.4,11.6 L33.3,11.6 Z M32.3,7.1 L31.7,4.6 C31.6,4.4 31.6,4 31.5,3.4 C31.4,2.7 31.3,2.3 31.3,2.2 C31.2,2.7 31.2,3.1 31.1,3.6 C31,4 30.8,5.2 30.4,7.1 L32.3,7.1 Z" id="XMLID_135_"></path>
                <path d="M45,12.9 L42.5,12.5 L40.4,4.2 L40.3,4.2 C40.3,4.8 40.3,5.5 40.2,6.1 L39.3,12 L37.4,11.7 L39.1,0.9 L41.6,1.3 L43.7,9.5 L43.8,9.5 C43.8,9 43.8,8.4 43.9,7.6 L44.8,1.7 L46.6,2 L45,12.9 Z" id="XMLID_132_"></path>
                <path d="M54.2,6 C53.6,5.8 53.1,6 52.6,6.6 C52.1,7.1 51.6,8 51.3,9.2 C50.5,11.6 50.8,13 52,13.4 C52.5,13.6 53.2,13.6 53.9,13.4 L53.4,15.1 C52.8,15.3 52.1,15.2 51.3,15 C50.1,14.6 49.4,13.9 49,12.7 C48.7,11.6 48.8,10.2 49.3,8.5 C49.8,6.8 50.6,5.6 51.5,4.9 C52.4,4.2 53.5,4 54.7,4.3 C55.1,4.4 55.4,4.6 55.7,4.8 C56,5 56.3,5.3 56.6,5.7 L55.5,7.1 C55.3,6.9 55.1,6.7 54.9,6.5 C54.8,6.2 54.5,6.1 54.2,6 Z" id="XMLID_130_"></path>
                <polygon id="XMLID_129_" points="60.3 18.5 55.8 16.4 60.4 6.5 64.9 8.6 64.2 10.2 61.6 9 60.5 11.4 62.9 12.5 62.2 14.1 59.8 13 58.5 15.7 61.1 16.9"></polygon>
            </g>
            <g id="XMLID_125_" transform="translate(26.000000, 368.000000)" fill="#D7DF23">
                <path d="M34.1,41.5 C17.9,33.1 5.6,18.2 0.2,0.8 L2.9,0 C8,16.7 19.9,30.9 35.4,39 L34.1,41.5 Z" id="XMLID_127_"></path>
            </g>
            <g id="XMLID_122_" transform="translate(116.000000, 369.000000)" fill="#231F20">
                <path d="M24.5,22.1 C24.3,22.1 24.2,22.1 24.1,22.1 L0.4,22.1 L0.4,19.3 L24.4,19.3 C24.6,19.3 25.2,19.3 25.4,19.1 C25.5,19 25.6,18.8 25.6,18.4 L25.6,0.6 L28.4,0.6 L28.4,18.4 C28.4,19.9 27.8,20.7 27.3,21.2 C26.3,22 25.2,22.1 24.5,22.1 Z" id="XMLID_123_"></path>
            </g>
            <g id="XMLID_116_" transform="translate(43.000000, 296.000000)" fill="#231F20">
                <path d="M2.5,33.6 L0,32.5 C8.5,13 27.8,0.5 49,0.5 C70.2,0.5 89.5,13.1 98,32.5 L95.5,33.6 C87.4,15.2 69.2,3.2 49,3.2 C28.8,3.2 10.6,15.1 2.5,33.6 Z" id="XMLID_117_"></path>
            </g>
            <g id="XMLID_113_" transform="translate(92.000000, 311.000000)" fill="#231F20">
                <rect id="XMLID_114_" transform="translate(2.184820, 9.894932) rotate(89.733265) translate(-2.184820, -9.894932) " x="-7.31528249" y="8.49491649" width="19.0002059" height="2.80003034"></rect>
            </g>
            <g id="XMLID_111_" transform="translate(116.000000, 312.000000)" fill="#231F20">
                <rect id="XMLID_112_" x="0.4" y="0.7" width="2.8" height="16.2"></rect>
            </g>
            <g id="XMLID_106_" transform="translate(0.000000, 256.000000)" fill="#BCBEC0">
                <path d="M91.9,184.4 C67.4,184.4 44.4,174.9 27,157.5 C9.7,140.2 0.1,117.1 0.1,92.6 C0.1,42 41.2,0.9 91.8,0.9 C142.4,0.9 183.5,42 183.5,92.6 C183.5,117.5 173.7,140.7 156,158.1 C138.9,175.1 116.1,184.4 91.9,184.4 Z M91.9,3.8 C42.9,3.8 3,43.7 3,92.7 C3,116.5 12.3,138.8 29.1,155.6 C45.9,172.4 68.2,181.7 92,181.7 C115.4,181.7 137.5,172.7 154.2,156.3 C171.4,139.4 180.9,116.9 180.9,92.8 C180.9,43.7 141,3.8 91.9,3.8 Z" id="XMLID_107_"></path>
            </g>
            <g id="XMLID_102_" transform="translate(65.000000, 315.000000)" fill="#231F20">
                <path d="M4.8,9.8 C2.2,9.8 0,7.7 0,5 C0,2.4 2.1,0.2 4.8,0.2 C7.4,0.2 9.6,2.3 9.6,5 C9.6,7.7 7.5,9.8 4.8,9.8 Z M4.8,3.1 C3.7,3.1 2.8,4 2.8,5.1 C2.8,6.2 3.7,7.1 4.8,7.1 C5.9,7.1 6.8,6.2 6.8,5.1 C6.8,4 5.9,3.1 4.8,3.1 Z" id="XMLID_103_"></path>
            </g>
            <g id="XMLID_100_" transform="translate(73.000000, 318.000000)" fill="#231F20">
                <rect id="XMLID_101_" x="0.2" y="0.7" width="21" height="2.8"></rect>
            </g>
            <g id="XMLID_98_" transform="translate(53.000000, 318.000000)" fill="#231F20">
                <path d="M3.5,11 L0.7,11 L0.7,6.1 C0.7,4.4 1.2,3 2.2,2 C3.7,0.6 5.5,0.7 5.7,0.7 L13.3,0.7 L13.3,3.5 L5.6,3.5 C5.6,3.5 4.6,3.5 4,4.1 C3.6,4.5 3.3,5.2 3.3,6.2 L3.3,11 L3.5,11 Z" id="XMLID_99_"></path>
            </g>
            <g id="XMLID_46_" transform="translate(65.000000, 399.000000)">
                <path d="M0.2,3.4 C0.2,2.3 0.4,1.5 0.8,1.1 C1.2,0.7 1.8,0.4 2.6,0.4 C3,0.4 3.3,0.4 3.6,0.5 C3.8,0.6 4.1,0.7 4.2,0.9 C4.4,1.1 4.5,1.2 4.6,1.4 C4.7,1.6 4.8,1.8 4.8,2 C4.9,2.4 5,2.9 5,3.3 C5,4.3 4.8,5.1 4.5,5.6 C4.1,6.1 3.5,6.3 2.7,6.3 C2.2,6.3 1.8,6.2 1.5,6.1 C1.2,5.9 1,5.7 0.8,5.4 C0.7,5.2 0.6,4.9 0.5,4.5 C0.3,4.3 0.2,3.9 0.2,3.4 Z M1.8,3.5 C1.8,4.2 1.9,4.7 2,5 C2.1,5.3 2.3,5.4 2.6,5.4 C2.8,5.4 2.9,5.3 3,5.2 C3.1,5.1 3.2,4.9 3.3,4.7 C3.4,4.5 3.4,4.1 3.4,3.5 C3.4,2.7 3.3,2.2 3.2,2 C3.1,1.7 2.9,1.6 2.6,1.6 C2.3,1.6 2.1,1.7 2,2 C1.9,2.2 1.8,2.7 1.8,3.5 Z" id="XMLID_92_" fill="#231F20"></path>
                <polygon id="XMLID_90_" fill="#231F20" points="5.1 0.6 7.1 0.6 8.1 2.4 9.1 0.6 11 0.6 9.2 3.4 11.2 6.4 9.2 6.4 8.1 4.5 7 6.4 5 6.4 7 3.4"></polygon>
                <polygon id="XMLID_88_" fill="#D7DF23" points="11.4 2.8 12.9 2.8 12.9 1.3 14.2 1.3 14.2 2.8 15.7 2.8 15.7 4.1 14.2 4.1 14.2 5.6 12.9 5.6 12.9 4.1 11.4 4.1"></polygon>
                <path d="M20.3,4 L21.9,4.5 C21.8,4.9 21.6,5.3 21.4,5.6 C21.2,5.9 20.9,6.1 20.6,6.3 C20.3,6.4 19.8,6.5 19.3,6.5 C18.7,6.5 18.2,6.4 17.8,6.2 C17.4,6 17.1,5.7 16.8,5.2 C16.5,4.7 16.4,4.2 16.4,3.4 C16.4,2.4 16.7,1.7 17.2,1.2 C17.7,0.7 18.4,0.4 19.4,0.4 C20.1,0.4 20.7,0.5 21.1,0.8 C21.5,1.1 21.8,1.5 22,2.2 L20.4,2.6 C20.3,2.4 20.3,2.3 20.2,2.2 C20.1,2.1 20,2 19.8,1.9 C19.7,1.8 19.5,1.8 19.3,1.8 C18.9,1.8 18.6,2 18.4,2.3 C18.2,2.5 18.2,2.9 18.2,3.4 C18.2,4 18.3,4.5 18.5,4.7 C18.7,4.9 19,5.1 19.3,5.1 C19.6,5.1 19.9,5 20.1,4.8 C20.1,4.6 20.2,4.4 20.3,4 Z" id="XMLID_86_" fill="#231F20"></path>
                <path d="M22.2,3.5 C22.2,2.6 22.5,1.8 23,1.3 C23.5,0.8 24.3,0.5 25.2,0.5 C26.2,0.5 26.9,0.8 27.4,1.3 C27.9,1.8 28.2,2.5 28.2,3.5 C28.2,4.2 28.1,4.7 27.9,5.2 C27.7,5.6 27.3,6 26.9,6.2 C26.5,6.4 25.9,6.6 25.3,6.6 C24.6,6.6 24.1,6.5 23.7,6.3 C23.3,6.1 22.9,5.8 22.7,5.3 C22.3,4.7 22.2,4.1 22.2,3.5 Z M23.9,3.5 C23.9,4.1 24,4.5 24.2,4.8 C24.4,5.1 24.7,5.2 25.1,5.2 C25.5,5.2 25.8,5.1 26,4.8 C26.2,4.6 26.3,4.1 26.3,3.5 C26.3,3 26.2,2.6 26,2.3 C25.8,2 25.5,1.9 25.1,1.9 C24.7,1.9 24.5,2 24.2,2.3 C24,2.5 23.9,2.9 23.9,3.5 Z" id="XMLID_83_" fill="#231F20"></path>
                <polygon id="XMLID_81_" fill="#231F20" points="28.8 0.6 30.6 0.6 30.6 6.4 28.8 6.4"></polygon>
                <polygon id="XMLID_79_" fill="#231F20" points="31.6 0.6 33.3 0.6 35.5 3.8 35.5 0.6 37.2 0.6 37.2 6.4 35.5 6.4 33.3 3.2 33.3 6.4 31.6 6.4"></polygon>
                <polygon id="XMLID_77_" fill="#231F20" points="37.9 0.6 39.7 0.6 39.7 5 42.5 5 42.5 6.4 37.9 6.4"></polygon>
                <polygon id="XMLID_75_" fill="#231F20" points="43 0.6 44.8 0.6 44.8 6.4 43 6.4"></polygon>
                <path d="M45.5,4.4 L47.2,4.3 C47.2,4.6 47.3,4.8 47.4,4.9 C47.6,5.1 47.8,5.3 48.2,5.3 C48.5,5.3 48.7,5.2 48.8,5.1 C48.9,5 49,4.8 49,4.7 C49,4.6 48.9,4.4 48.8,4.3 C48.7,4.2 48.4,4.1 47.9,4 C47.1,3.8 46.6,3.6 46.2,3.3 C45.9,3 45.7,2.6 45.7,2.2 C45.7,1.9 45.8,1.6 46,1.4 C46.2,1.1 46.4,0.9 46.8,0.8 C47.1,0.6 47.6,0.6 48.2,0.6 C48.9,0.6 49.5,0.7 49.9,1 C50.3,1.3 50.5,1.7 50.6,2.3 L48.9,2.4 C48.9,2.1 48.8,2 48.6,1.8 C48.5,1.7 48.3,1.6 48,1.6 C47.8,1.6 47.6,1.6 47.5,1.7 C47.4,1.8 47.3,1.9 47.3,2 C47.3,2.1 47.3,2.2 47.4,2.2 C47.5,2.3 47.7,2.3 48,2.4 C48.8,2.6 49.3,2.7 49.7,2.9 C50.1,3.1 50.3,3.3 50.4,3.5 C50.6,3.8 50.6,4 50.6,4.4 C50.6,4.8 50.5,5.1 50.3,5.4 C50.1,5.7 49.8,5.9 49.4,6.1 C49,6.3 48.6,6.3 48,6.3 C47,6.3 46.3,6.1 46,5.7 C45.7,5.5 45.5,5 45.5,4.4 Z" id="XMLID_73_" fill="#231F20"></path>
                <polygon id="XMLID_71_" fill="#231F20" points="50.8 0.6 56.2 0.6 56.2 2 54.4 2 54.4 6.3 52.6 6.3 52.6 2 50.8 2 50.8 0.6"></polygon>
                <polygon id="XMLID_69_" fill="#231F20" points="0.4 18.9 0.4 8.2 2.1 8.2 2.1 12.8 4 12.8 4 8.2 5.7 8.2 5.7 18.9 4 18.9 4 14.3 2.1 14.3 2.1 18.9"></polygon>
                <path d="M10.8,18.9 L10.5,17 L8.4,17 L8.1,18.9 L6.6,18.9 L8.3,8.2 L10.8,8.2 L12.5,18.9 L10.8,18.9 Z M10.3,15.5 L9.5,10.1 L8.7,15.5 L10.3,15.5 Z" id="XMLID_66_" fill="#231F20"></path>
                <path d="M18.3,16.3 C18.3,18 17.4,19 15.8,19 C14.1,19 13.3,18 13.3,16.3 L13.3,10.7 C13.3,9 14.2,8 15.8,8 C17.5,8 18.3,9 18.3,10.7 L18.3,11.7 L16.7,11.7 L16.7,10.6 C16.7,9.8 16.4,9.5 15.8,9.5 C15.3,9.5 14.9,9.8 14.9,10.6 L14.9,16.4 C14.9,17.2 15.2,17.4 15.8,17.4 C16.3,17.4 16.7,17.1 16.7,16.4 L16.7,14.9 L18.3,14.9 L18.3,16.3 Z" id="XMLID_64_" fill="#231F20"></path>
                <polygon id="XMLID_62_" fill="#231F20" points="21.1 15.6 21.1 18.9 19.4 18.9 19.4 8.2 21.1 8.2 21.1 12.9 23.3 8.2 25 8.2 22.7 13 25 18.9 23.3 18.9 21.7 14.6"></polygon>
                <path d="M29.7,18.9 L29.4,17 L27.3,17 L27,18.9 L25.5,18.9 L27.2,8.2 L29.7,8.2 L31.4,18.9 L29.7,18.9 Z M29.1,15.5 L28.3,10.1 L27.5,15.5 L29.1,15.5 Z" id="XMLID_58_" fill="#231F20"></path>
                <polygon id="XMLID_56_" fill="#231F20" points="37 8.2 37 9.7 35.2 9.7 35.2 18.9 33.5 18.9 33.5 9.7 31.7 9.7 31.7 8.2"></polygon>
                <polygon id="XMLID_54_" fill="#231F20" points="37.8 18.9 37.8 8.2 39.5 8.2 39.5 12.8 41.4 12.8 41.4 8.2 43.1 8.2 43.1 18.9 41.4 18.9 41.4 14.3 39.5 14.3 39.5 18.9"></polygon>
                <path d="M46.9,8 C48.6,8 49.5,9 49.5,10.7 L49.5,16.3 C49.5,18 48.6,19 46.9,19 C45.2,19 44.3,18 44.3,16.3 L44.3,10.7 C44.3,9 45.2,8 46.9,8 Z M46.9,17.5 C47.4,17.5 47.8,17.2 47.8,16.4 L47.8,10.6 C47.8,9.8 47.5,9.5 46.9,9.5 C46.4,9.5 46,9.8 46,10.6 L46,16.4 C46,17.2 46.3,17.5 46.9,17.5 Z" id="XMLID_51_" fill="#231F20"></path>
                <polygon id="XMLID_48_" fill="#231F20" points="52.1 18.9 50.6 18.9 50.6 8.2 52.7 8.2 54.4 14.6 54.4 8.2 55.9 8.2 55.9 18.9 54.2 18.9 52.1 11.1"></polygon>
            </g>
            <g id="XMLID_44_" transform="translate(108.000000, 310.000000)" fill="#231F20">
                <rect id="XMLID_45_" x="0" y="0" width="19.7" height="2.8"></rect>
            </g>
            <g id="XMLID_41_" transform="translate(84.000000, 298.000000)" fill="#231F20">
                <path d="M4.7,14.8 C4,14.8 2.9,14.7 2,13.9 C1.5,13.4 0.9,12.6 0.9,11.1 L0.9,0.1 L3.7,0.1 L3.7,11.1 C3.7,11.4 3.8,11.7 3.9,11.8 C4.2,12 4.7,12 4.9,12 L5.1,12 L17.3,12 L17.3,14.8 L5.2,14.8 C5,14.8 4.9,14.8 4.7,14.8 Z" id="XMLID_43_"></path>
            </g>
            <g id="XMLID_34_" transform="translate(99.000000, 306.000000)" fill="#231F20">
                <path d="M5.6,10.2 C3,10.2 0.8,8.1 0.8,5.4 C0.8,2.8 2.9,0.6 5.6,0.6 C8.2,0.6 10.4,2.7 10.4,5.4 C10.4,8 8.2,10.2 5.6,10.2 Z M5.6,3.4 C4.5,3.4 3.6,4.3 3.6,5.4 C3.6,6.5 4.5,7.4 5.6,7.4 C6.7,7.4 7.6,6.5 7.6,5.4 C7.6,4.3 6.7,3.4 5.6,3.4 Z" id="XMLID_36_"></path>
            </g>
            <g id="XMLID_32_" transform="translate(11.000000, 367.000000)" fill="#231F20">
                <rect id="XMLID_33_" x="0.3" y="0" width="160.9" height="2.8"></rect>
            </g>
            <g id="XMLID_29_" transform="translate(11.000000, 327.000000)" fill="#231F20">
                <rect id="XMLID_30_" x="0.3" y="0.6" width="160.9" height="2.8"></rect>
            </g>
            <g id="XMLID_7_" transform="translate(37.000000, 340.000000)" fill="#000000">
                <polygon id="XMLID_26_" points="0.8 0.9 12.9 0.9 12.9 4.3 5.7 4.3 5.7 7.1 11.8 7.1 11.8 10.3 5.7 10.3 5.7 16.8 0.8 16.8"></polygon>
                <polygon id="XMLID_24_" points="15.8 0.9 20.7 0.9 20.7 16.7 15.8 16.7"></polygon>
                <polygon id="XMLID_22_" points="24.2 0.9 28.8 0.9 34.8 9.6 34.8 0.9 39.4 0.9 39.4 16.7 34.8 16.7 28.9 8 28.9 16.7 24.3 16.7 24.3 0.9"></polygon>
                <path d="M52.1,14.1 L46.6,14.1 L45.8,16.7 L40.8,16.7 L46.7,0.9 L52,0.9 L57.9,16.7 L52.8,16.7 L52.1,14.1 Z M51.1,10.7 L49.4,5 L47.7,10.7 L51.1,10.7 Z" id="XMLID_18_"></path>
                <polygon id="XMLID_14_" points="59.5 0.9 64.4 0.9 64.4 12.8 72 12.8 72 16.7 59.5 16.7"></polygon>
                <polygon id="XMLID_12_" points="74.5 0.9 79.4 0.9 79.4 16.7 74.5 16.7"></polygon>
                <path d="M82,11.5 L86.7,11.2 C86.8,12 87,12.5 87.3,12.9 C87.8,13.5 88.5,13.9 89.5,13.9 C90.2,13.9 90.7,13.7 91.1,13.4 C91.5,13.1 91.7,12.7 91.7,12.3 C91.7,11.9 91.5,11.5 91.2,11.2 C90.8,10.9 90,10.6 88.7,10.3 C86.6,9.8 85,9.2 84.1,8.4 C83.2,7.6 82.7,6.6 82.7,5.3 C82.7,4.5 82.9,3.7 83.4,3 C83.9,2.3 84.6,1.7 85.5,1.3 C86.4,0.9 87.7,0.7 89.4,0.7 C91.4,0.7 93,1.1 94,1.8 C95.1,2.6 95.7,3.7 95.9,5.4 L91.3,5.7 C91.2,5 90.9,4.5 90.5,4.1 C90.1,3.8 89.6,3.6 88.9,3.6 C88.3,3.6 87.9,3.7 87.6,4 C87.3,4.2 87.2,4.5 87.2,4.9 C87.2,5.2 87.3,5.4 87.6,5.6 C87.8,5.8 88.4,6 89.2,6.2 C91.3,6.7 92.9,7.1 93.8,7.6 C94.7,8.1 95.4,8.7 95.8,9.4 C96.2,10.1 96.4,10.9 96.4,11.7 C96.4,12.7 96.1,13.6 95.6,14.5 C95,15.4 94.3,16 93.2,16.4 C92.2,16.8 90.9,17.1 89.4,17.1 C86.7,17.1 84.8,16.6 83.8,15.5 C82.7,14.4 82.2,13.1 82,11.5 Z" id="XMLID_10_"></path>
                <polygon id="XMLID_8_" points="97.7 0.9 112.6 0.9 112.6 4.8 107.6 4.8 107.6 16.7 102.7 16.7 102.7 4.8 97.7 4.8"></polygon>
            </g>
            <g id="XMLID_6_" transform="translate(11.000000, 369.000000)" fill="#BCBEC0">
                <polygon id="XMLID_335_" points="159.4 6 2.2 6 0.5 0.8 161.4 0.8"></polygon>
            </g>
            <g id="XMLID_1_" transform="translate(7.000000, 264.000000)" fill="#231F20">
                <path d="M84.8,169 C38.3,169 0.5,131.2 0.5,84.7 C0.5,38.2 38.3,0.4 84.8,0.4 C131.3,0.4 169.1,38.2 169.1,84.7 C169.1,131.2 131.3,169 84.8,169 Z M84.8,3.2 C39.9,3.2 3.3,39.8 3.3,84.7 C3.3,129.6 39.9,166.2 84.8,166.2 C129.7,166.2 166.3,129.6 166.3,84.7 C166.3,39.8 129.7,3.2 84.8,3.2 Z" id="XMLID_3_"></path>
            </g>
        </g>
    </g>
</svg>