<?xml version="1.0" encoding="UTF-8"?>
<svg width="184px" height="185px" viewBox="0 0 184 185" version="1.1" xmlns="http://www.w3.org/2000/svg" xmlns:xlink="http://www.w3.org/1999/xlink">
    <!-- Generator: Sketch 53 (72520) - https://sketchapp.com -->
    <title>gaming</title>
    <desc>Created with Sketch.</desc>
    <g id="Page-1" stroke="none" stroke-width="1" fill="none" fill-rule="evenodd">
        <g id="gaming" transform="translate(0.000000, -256.000000)" fill-rule="nonzero">
            <path d="M92,259.7 C43,259.7 3.1,299.6 3.1,348.6 C3.1,372.4 12.4,394.7 29.2,411.5 C46,428.3 68.3,437.6 92.1,437.6 C115.5,437.6 137.6,428.6 154.3,412.2 C171.5,395.3 181,372.8 181,348.7 C180.9,299.6 141,259.7 92,259.7 Z" id="Path" fill="#FFFFFF"></path>
            <g id="XMLID_215_" transform="translate(128.000000, 291.000000)" fill="#FBB040">
                <path d="M26.6,38 C22.1,23.7 12.8,11.2 0.3,2.8 L1.8,0.5 C14.8,9.2 24.6,22.2 29.2,37.1 L26.6,38 Z" id="XMLID_326_"></path>
            </g>
            <g id="XMLID_212_" transform="translate(26.000000, 289.000000)" fill="#FBB040">
                <path d="M3,40.2 L0.3,39.4 C5.3,23.1 16.3,9.3 31,0.5 L32.4,2.9 C18.3,11.3 7.8,24.5 3,40.2 Z" id="XMLID_211_"></path>
            </g>
            <g id="XMLID_209_" transform="translate(63.000000, 277.000000)" fill="#FBB040">
                <path d="M3.9,10.3 L7,9.1 L9.1,14.3 C8.4,15 7.5,15.6 6.5,16 C5.3,16.5 4.2,16.4 3.2,15.7 C2.2,15.1 1.4,13.9 0.7,12.2 C0,10.6 -0.1,9.2 0.3,7.9 C0.7,6.7 1.5,5.8 2.8,5.3 C3.6,5 4.5,4.9 5.4,5 L5.4,6.8 C4.7,6.7 4.1,6.7 3.6,6.9 C2.9,7.2 2.4,7.7 2.3,8.5 C2.1,9.3 2.3,10.3 2.7,11.4 C3.2,12.5 3.7,13.4 4.2,13.8 C4.7,14.3 5.3,14.4 5.9,14.2 C6.2,14.1 6.5,13.9 6.8,13.7 L5.9,11.4 L4.6,11.9 L3.9,10.3 Z" id="XMLID_313_"></path>
                <path d="M17,12.7 L15.8,10.2 L13,10.8 L13,13.6 L11,14.1 L11.2,2.8 L13.9,2.2 L19,12.3 L17,12.7 Z M15,8.5 L13.9,6.2 C13.8,6 13.6,5.6 13.4,5.1 C13.1,4.5 13,4.1 12.9,3.9 C12.9,4.4 13,4.8 13,5.3 C13,5.7 13,6.9 13,8.9 L15,8.5 Z" id="XMLID_315_"></path>
                <path d="M24.9,11.7 L22.4,2.5 L22.3,2.5 C22.4,3.2 22.5,3.8 22.5,4.5 L22.8,11.8 L20.9,11.9 L20.4,1 L23.5,0.9 L25.8,9.4 L25.9,9.4 L27.3,0.7 L30.5,0.6 L31,11.5 L29.1,11.6 L28.8,4.2 C28.8,3.6 28.8,3 28.8,2.3 L28.7,2.3 L27.1,11.7 L24.9,11.7 Z" id="XMLID_318_"></path>
                <polygon id="XMLID_320_" points="34.5 11.8 35.7 0.9 37.6 1.1 36.4 12"></polygon>
                <path d="M47.3,14.2 L44.9,13.6 L43.5,5.1 L43.4,5.1 C43.4,5.7 43.3,6.3 43.1,7 L41.7,12.8 L39.9,12.4 L42.5,1.8 L44.9,2.4 L46.3,10.8 L46.4,10.8 C46.4,10.3 46.5,9.7 46.7,9 L48.1,3.2 L49.9,3.6 L47.3,14.2 Z" id="XMLID_322_"></path>
                <path d="M55.6,11 L58.7,12.3 L56.5,17.4 C55.5,17.4 54.5,17.2 53.5,16.8 C52.3,16.3 51.6,15.5 51.4,14.3 C51.1,13.2 51.4,11.7 52.1,10.1 C52.8,8.5 53.7,7.4 54.8,6.8 C55.9,6.2 57.1,6.2 58.4,6.7 C59.2,7 59.9,7.6 60.4,8.3 L59.2,9.6 C58.8,9 58.3,8.6 57.8,8.4 C57.1,8.1 56.4,8.2 55.7,8.6 C55,9.1 54.4,9.8 54,10.9 C53.5,12 53.3,13 53.3,13.7 C53.3,14.4 53.7,14.9 54.2,15.2 C54.5,15.3 54.8,15.4 55.2,15.5 L56.2,13.2 L55,12.7 L55.6,11 Z" id="XMLID_324_"></path>
            </g>
            <g id="XMLID_189_" transform="translate(26.000000, 367.000000)" fill="#FBB040">
                <path d="M34.2,42.4 C18,34 5.7,19.1 0.3,1.7 L3,0.9 C8.1,17.6 20,31.8 35.5,39.9 L34.2,42.4 Z" id="XMLID_312_"></path>
            </g>
            <g id="XMLID_188_" transform="translate(116.000000, 369.000000)" fill="#231F20">
                <path d="M24.6,22 C24.4,22 24.3,22 24.2,22 L0.5,22 L0.5,19.2 L24.5,19.2 C24.7,19.2 25.3,19.2 25.5,19 C25.6,18.9 25.7,18.7 25.7,18.3 L25.7,0.5 L28.5,0.5 L28.5,18.3 C28.5,19.8 27.9,20.6 27.4,21.1 C26.4,21.9 25.2,22 24.6,22 Z" id="XMLID_311_"></path>
            </g>
            <g id="XMLID_156_" transform="translate(43.000000, 296.000000)" fill="#231F20">
                <path d="M2.5,33.5 L0,32.4 C8.5,12.9 27.8,0.4 49,0.4 C70.2,0.4 89.5,13 98,32.4 L95.5,33.5 C87.4,15.1 69.2,3.1 49,3.1 C28.9,3.1 10.6,15 2.5,33.5 Z" id="XMLID_310_"></path>
            </g>
            <g id="XMLID_138_" transform="translate(92.000000, 311.000000)" fill="#231F20">
                <rect id="XMLID_309_" transform="translate(2.227386, 9.849066) rotate(89.733265) translate(-2.227386, -9.849066) " x="-7.27271694" y="8.44905094" width="19.0002059" height="2.80003034"></rect>
            </g>
            <g id="XMLID_133_" transform="translate(116.000000, 312.000000)" fill="#231F20">
                <rect id="XMLID_308_" x="0.5" y="0.6" width="2.8" height="16.2"></rect>
            </g>
            <g id="XMLID_124_" transform="translate(0.000000, 256.000000)" fill="#BCBEC0">
                <path d="M92,184.3 C67.5,184.3 44.5,174.8 27.1,157.4 C9.8,140.1 0.2,117 0.2,92.5 C0.2,41.9 41.3,0.8 91.9,0.8 C142.5,0.8 183.6,41.9 183.6,92.5 C183.6,117.4 173.8,140.6 156.1,158 C138.9,175 116.1,184.3 92,184.3 Z M92,3.7 C43,3.7 3.1,43.6 3.1,92.6 C3.1,116.4 12.4,138.7 29.2,155.5 C46,172.3 68.3,181.6 92.1,181.6 C115.5,181.6 137.6,172.6 154.3,156.2 C171.5,139.3 181,116.8 181,92.7 C180.9,43.6 141,3.7 92,3.7 Z" id="XMLID_305_"></path>
            </g>
            <g id="XMLID_118_" transform="translate(65.000000, 315.000000)" fill="#231F20">
                <path d="M4.9,9.7 C2.3,9.7 0.1,7.6 0.1,4.9 C0.1,2.3 2.2,0.1 4.9,0.1 C7.5,0.1 9.7,2.2 9.7,4.9 C9.6,7.6 7.5,9.7 4.9,9.7 Z M4.9,3 C3.8,3 2.9,3.9 2.9,5 C2.9,6.1 3.8,7 4.9,7 C6,7 6.9,6.1 6.9,5 C6.9,3.9 6,3 4.9,3 Z" id="XMLID_301_"></path>
            </g>
            <g id="XMLID_60_" transform="translate(73.000000, 318.000000)" fill="#231F20">
                <rect id="XMLID_300_" x="0.2" y="0.6" width="21" height="2.8"></rect>
            </g>
            <g id="XMLID_49_" transform="translate(53.000000, 318.000000)" fill="#231F20">
                <path d="M3.5,10.9 L0.7,10.9 L0.7,6 C0.7,4.3 1.2,2.9 2.2,1.9 C3.7,0.5 5.5,0.6 5.7,0.6 L13.3,0.6 L13.3,3.4 L5.6,3.4 C5.6,3.4 4.6,3.4 4,4 C3.6,4.4 3.3,5.1 3.3,6.1 L3.3,10.9 L3.5,10.9 Z" id="XMLID_218_"></path>
            </g>
            <g id="XMLID_39_" transform="translate(65.000000, 399.000000)">
                <path d="M0.3,3.3 C0.3,2.2 0.5,1.4 0.9,1 C1.3,0.6 1.9,0.3 2.7,0.3 C3.1,0.3 3.4,0.3 3.7,0.4 C3.9,0.5 4.2,0.6 4.3,0.8 C4.5,1 4.6,1.1 4.7,1.3 C4.8,1.5 4.9,1.7 4.9,1.9 C5,2.3 5.1,2.8 5.1,3.2 C5.1,4.2 4.9,5 4.6,5.5 C4.2,6 3.6,6.2 2.8,6.2 C2.3,6.2 1.9,6.1 1.6,6 C1.3,5.8 1.1,5.6 0.9,5.3 C0.8,5.1 0.7,4.8 0.6,4.4 C0.3,4.2 0.3,3.8 0.3,3.3 Z M1.9,3.3 C1.9,4 2,4.5 2.1,4.8 C2.2,5.1 2.4,5.2 2.7,5.2 C2.9,5.2 3,5.1 3.1,5 C3.2,4.9 3.3,4.7 3.4,4.5 C3.5,4.3 3.5,3.9 3.5,3.3 C3.5,2.5 3.4,2 3.3,1.8 C3.2,1.5 3,1.4 2.7,1.4 C2.4,1.4 2.2,1.5 2.1,1.8 C1.9,2.1 1.9,2.6 1.9,3.3 Z" id="XMLID_254_" fill="#231F20"></path>
                <polygon id="XMLID_258_" fill="#231F20" points="5.2 0.5 7.2 0.5 8.2 2.3 9.2 0.5 11.1 0.5 9.3 3.3 11.3 6.3 9.3 6.3 8.2 4.4 7.1 6.3 5.1 6.3 7.1 3.3"></polygon>
                <polygon id="XMLID_260_" fill="#FBB040" points="11.4 2.7 12.9 2.7 12.9 1.2 14.2 1.2 14.2 2.7 15.7 2.7 15.7 4 14.2 4 14.2 5.5 12.9 5.5 12.9 4 11.4 4"></polygon>
                <path d="M20.3,3.9 L21.9,4.4 C21.8,4.8 21.6,5.2 21.4,5.5 C21.2,5.8 20.9,6 20.6,6.2 C20.3,6.3 19.8,6.4 19.3,6.4 C18.7,6.4 18.2,6.3 17.8,6.1 C17.4,5.9 17.1,5.6 16.8,5.1 C16.5,4.6 16.4,4.1 16.4,3.3 C16.4,2.3 16.7,1.6 17.2,1.1 C17.7,0.6 18.4,0.3 19.4,0.3 C20.1,0.3 20.7,0.4 21.1,0.7 C21.5,1 21.8,1.4 22,2.1 L20.4,2.5 C20.3,2.3 20.3,2.2 20.2,2.1 C20.1,2 20,1.9 19.8,1.8 C19.7,1.7 19.5,1.7 19.3,1.7 C18.9,1.7 18.6,1.9 18.4,2.2 C18.2,2.4 18.2,2.8 18.2,3.3 C18.2,3.9 18.3,4.4 18.5,4.6 C18.7,4.8 19,5 19.3,5 C19.6,5 19.9,4.9 20.1,4.7 C20.1,4.5 20.3,4.3 20.3,3.9 Z" id="XMLID_262_" fill="#231F20"></path>
                <path d="M22.2,3.4 C22.2,2.5 22.5,1.7 23,1.2 C23.5,0.7 24.3,0.4 25.2,0.4 C26.2,0.4 26.9,0.7 27.4,1.2 C27.9,1.7 28.2,2.4 28.2,3.4 C28.2,4.1 28.1,4.6 27.9,5.1 C27.7,5.5 27.3,5.9 26.9,6.1 C26.5,6.3 25.9,6.5 25.3,6.5 C24.6,6.5 24.1,6.4 23.7,6.2 C23.3,6 22.9,5.7 22.7,5.2 C22.3,4.6 22.2,4 22.2,3.4 Z M24,3.4 C24,4 24.1,4.4 24.3,4.7 C24.5,5 24.8,5.1 25.2,5.1 C25.6,5.1 25.9,5 26.1,4.7 C26.3,4.5 26.4,4 26.4,3.4 C26.4,2.9 26.3,2.5 26.1,2.2 C25.9,1.9 25.6,1.8 25.2,1.8 C24.8,1.8 24.6,1.9 24.3,2.2 C24.1,2.4 24,2.8 24,3.4 Z" id="XMLID_264_" fill="#231F20"></path>
                <polygon id="XMLID_267_" fill="#231F20" points="28.9 0.5 30.7 0.5 30.7 6.3 28.9 6.3"></polygon>
                <polygon id="XMLID_269_" fill="#231F20" points="31.6 0.5 33.3 0.5 35.5 3.7 35.5 0.5 37.2 0.5 37.2 6.3 35.5 6.3 33.3 3.1 33.3 6.3 31.6 6.3"></polygon>
                <polygon id="XMLID_271_" fill="#231F20" points="38 0.5 39.8 0.5 39.8 4.9 42.6 4.9 42.6 6.3 38 6.3"></polygon>
                <polygon id="XMLID_273_" fill="#231F20" points="43.1 0.5 44.9 0.5 44.9 6.3 43.1 6.3"></polygon>
                <path d="M45.5,4.3 L47.2,4.2 C47.2,4.5 47.3,4.7 47.4,4.8 C47.6,5 47.8,5.2 48.2,5.2 C48.5,5.2 48.7,5.1 48.8,5 C48.9,4.9 49,4.7 49,4.6 C49,4.5 48.9,4.3 48.8,4.2 C48.7,4.1 48.4,4 47.9,3.9 C47.1,3.7 46.6,3.5 46.2,3.2 C45.9,2.9 45.7,2.5 45.7,2.1 C45.7,1.8 45.8,1.5 46,1.3 C46.2,1 46.4,0.8 46.8,0.7 C47.1,0.5 47.6,0.5 48.2,0.5 C48.9,0.5 49.5,0.6 49.9,0.9 C50.3,1.2 50.5,1.6 50.6,2.2 L48.9,2.3 C48.9,2 48.8,1.9 48.6,1.7 C48.5,1.6 48.3,1.5 48,1.5 C47.8,1.5 47.6,1.5 47.5,1.6 C47.4,1.7 47.3,1.8 47.3,1.9 C47.3,2 47.3,2.1 47.4,2.1 C47.5,2.2 47.7,2.2 48,2.3 C48.8,2.5 49.3,2.6 49.7,2.8 C50,3 50.3,3.2 50.4,3.4 C50.6,3.7 50.6,3.9 50.6,4.3 C50.6,4.7 50.5,5 50.3,5.3 C50.1,5.6 49.8,5.8 49.4,6 C49,6.2 48.6,6.2 48,6.2 C47,6.2 46.3,6 46,5.6 C45.8,5.4 45.5,4.9 45.5,4.3 Z" id="XMLID_275_" fill="#231F20"></path>
                <polygon id="XMLID_277_" fill="#231F20" points="50.9 0.5 56.3 0.5 56.3 1.9 54.5 1.9 54.5 6.2 52.7 6.2 52.7 1.9 50.9 1.9 50.9 0.5"></polygon>
                <polygon id="XMLID_279_" fill="#231F20" points="0.5 18.8 0.5 8.1 2.2 8.1 2.2 12.7 4.1 12.7 4.1 8.1 5.8 8.1 5.8 18.8 4.1 18.8 4.1 14.2 2.2 14.2 2.2 18.8"></polygon>
                <path d="M10.9,18.8 L10.6,16.9 L8.5,16.9 L8.2,18.8 L6.7,18.8 L8.4,8.1 L10.9,8.1 L12.6,18.8 L10.9,18.8 Z M10.4,15.4 L9.6,10 L8.8,15.4 L10.4,15.4 Z" id="XMLID_281_" fill="#231F20"></path>
                <path d="M18.3,16.2 C18.3,17.9 17.4,18.9 15.8,18.9 C14.1,18.9 13.3,17.9 13.3,16.2 L13.3,10.6 C13.3,8.9 14.2,7.9 15.8,7.9 C17.5,7.9 18.3,8.9 18.3,10.6 L18.3,11.6 L16.7,11.6 L16.7,10.5 C16.7,9.7 16.4,9.4 15.8,9.4 C15.3,9.4 14.9,9.7 14.9,10.5 L14.9,16.3 C14.9,17.1 15.2,17.3 15.8,17.3 C16.3,17.3 16.7,17 16.7,16.3 L16.7,14.8 L18.3,14.8 L18.3,16.2 Z" id="XMLID_284_" fill="#231F20"></path>
                <polygon id="XMLID_286_" fill="#231F20" points="21.2 15.5 21.2 18.8 19.5 18.8 19.5 8.1 21.2 8.1 21.2 12.8 23.4 8.1 25.1 8.1 22.8 12.9 25.1 18.8 23.4 18.8 21.8 14.5"></polygon>
                <path d="M29.7,18.8 L29.4,16.9 L27.3,16.9 L27,18.8 L25.5,18.8 L27.2,8.1 L29.7,8.1 L31.4,18.8 L29.7,18.8 Z M29.2,15.4 L28.4,10 L27.6,15.4 L29.2,15.4 Z" id="XMLID_288_" fill="#231F20"></path>
                <polygon id="XMLID_291_" fill="#231F20" points="37 8.1 37 9.6 35.2 9.6 35.2 18.8 33.5 18.8 33.5 9.6 31.7 9.6 31.7 8.1"></polygon>
                <polygon id="XMLID_293_" fill="#231F20" points="37.9 18.8 37.9 8.1 39.6 8.1 39.6 12.7 41.5 12.7 41.5 8.1 43.2 8.1 43.2 18.8 41.5 18.8 41.5 14.2 39.6 14.2 39.6 18.8"></polygon>
                <path d="M46.9,7.9 C48.6,7.9 49.5,8.9 49.5,10.6 L49.5,16.2 C49.5,17.9 48.6,18.9 46.9,18.9 C45.2,18.9 44.3,17.9 44.3,16.2 L44.3,10.6 C44.4,8.9 45.3,7.9 46.9,7.9 Z M46.9,17.4 C47.4,17.4 47.8,17.1 47.8,16.3 L47.8,10.5 C47.8,9.7 47.5,9.4 46.9,9.4 C46.4,9.4 46,9.7 46,10.5 L46,16.3 C46.1,17.1 46.4,17.4 46.9,17.4 Z" id="XMLID_295_" fill="#231F20"></path>
                <polygon id="XMLID_298_" fill="#231F20" points="52.2 18.8 50.7 18.8 50.7 8.1 52.8 8.1 54.5 14.5 54.5 8.1 56 8.1 56 18.8 54.3 18.8 52.2 11"></polygon>
            </g>
            <g id="XMLID_38_" transform="translate(108.000000, 309.000000)" fill="#231F20">
                <rect id="XMLID_253_" x="0" y="0.9" width="19.7" height="2.8"></rect>
            </g>
            <g id="XMLID_35_" transform="translate(85.000000, 298.000000)" fill="#231F20">
                <path d="M3.8,14.7 C3.1,14.7 2,14.6 1.1,13.8 C0.6,13.3 0,12.5 0,11 L0,0 L2.8,0 L2.8,11 C2.8,11.3 2.9,11.6 3,11.7 C3.3,11.9 3.8,11.9 4,11.9 L4.2,11.9 L16.4,11.9 L16.4,14.7 L4.3,14.7 C4.1,14.7 3.9,14.7 3.8,14.7 Z" id="XMLID_252_"></path>
            </g>
            <g id="XMLID_31_" transform="translate(99.000000, 306.000000)" fill="#231F20">
                <path d="M5.6,10.1 C3,10.1 0.8,8 0.8,5.3 C0.8,2.7 2.9,0.5 5.6,0.5 C8.2,0.5 10.4,2.6 10.4,5.3 C10.4,7.9 8.3,10.1 5.6,10.1 Z M5.6,3.3 C4.5,3.3 3.6,4.2 3.6,5.3 C3.6,6.4 4.5,7.3 5.6,7.3 C6.7,7.3 7.6,6.4 7.6,5.3 C7.6,4.2 6.7,3.3 5.6,3.3 Z" id="XMLID_249_"></path>
            </g>
            <g id="XMLID_27_" transform="translate(11.000000, 366.000000)" fill="#231F20">
                <rect id="XMLID_248_" x="0.4" y="0.9" width="160.9" height="2.8"></rect>
            </g>
            <g id="XMLID_19_" transform="translate(11.000000, 327.000000)" fill="#231F20">
                <rect id="XMLID_247_" x="0.4" y="0.5" width="160.9" height="2.8"></rect>
            </g>
            <g id="XMLID_17_" transform="translate(37.000000, 340.000000)" fill="#000000">
                <polygon id="XMLID_229_" points="0.9 0.8 13 0.8 13 4.2 5.8 4.2 5.8 7 11.9 7 11.9 10.2 5.8 10.2 5.8 16.7 0.9 16.7"></polygon>
                <polygon id="XMLID_231_" points="15.8 0.8 20.7 0.8 20.7 16.6 15.8 16.6"></polygon>
                <polygon id="XMLID_233_" points="24.2 0.8 28.8 0.8 34.8 9.5 34.8 0.8 39.4 0.8 39.4 16.6 34.8 16.6 28.9 7.9 28.9 16.6 24.3 16.6 24.3 0.8"></polygon>
                <path d="M52.1,14 L46.6,14 L45.8,16.6 L40.8,16.6 L46.7,0.8 L52,0.8 L57.9,16.6 L52.8,16.6 L52.1,14 Z M51.1,10.6 L49.4,4.9 L47.7,10.6 L51.1,10.6 Z" id="XMLID_235_"></path>
                <polygon id="XMLID_238_" points="59.6 0.8 64.5 0.8 64.5 12.7 72.1 12.7 72.1 16.6 59.6 16.6"></polygon>
                <polygon id="XMLID_240_" points="74.5 0.8 79.4 0.8 79.4 16.6 74.5 16.6"></polygon>
                <path d="M82.1,11.4 L86.8,11.1 C86.9,11.9 87.1,12.4 87.4,12.8 C87.9,13.4 88.6,13.8 89.6,13.8 C90.3,13.8 90.8,13.6 91.2,13.3 C91.6,13 91.8,12.6 91.8,12.2 C91.8,11.8 91.6,11.4 91.3,11.1 C90.9,10.8 90.1,10.5 88.8,10.2 C86.7,9.7 85.1,9.1 84.2,8.3 C83.3,7.5 82.8,6.5 82.8,5.2 C82.8,4.4 83,3.6 83.5,2.9 C84,2.2 84.7,1.6 85.6,1.2 C86.5,0.8 87.8,0.6 89.5,0.6 C91.5,0.6 93.1,1 94.1,1.7 C95.2,2.5 95.8,3.6 96,5.3 L91.4,5.6 C91.3,4.9 91,4.4 90.6,4 C90.2,3.7 89.7,3.5 89,3.5 C88.4,3.5 88,3.6 87.7,3.9 C87.4,4.1 87.3,4.4 87.3,4.8 C87.3,5.1 87.4,5.3 87.7,5.5 C87.9,5.7 88.5,5.9 89.3,6.1 C91.4,6.6 93,7 93.9,7.5 C94.8,8 95.5,8.6 95.9,9.3 C96.3,10 96.5,10.8 96.5,11.6 C96.5,12.6 96.2,13.5 95.7,14.4 C95.1,15.3 94.4,15.9 93.3,16.3 C92.3,16.7 91,17 89.5,17 C86.8,17 84.9,16.5 83.9,15.4 C82.8,14.3 82.2,13 82.1,11.4 Z" id="XMLID_242_"></path>
                <polygon id="XMLID_244_" points="97.8 0.8 112.7 0.8 112.7 4.7 107.7 4.7 107.7 16.6 102.8 16.6 102.8 4.7 97.8 4.7"></polygon>
            </g>
            <g id="XMLID_16_" transform="translate(11.000000, 369.000000)" fill="#BCBEC0">
                <polygon id="XMLID_333_" points="159.5 5.9 2.2 5.9 0.5 0.7 161.4 0.7"></polygon>
            </g>
            <g id="XMLID_2_" transform="translate(7.000000, 264.000000)" fill="#231F20">
                <path d="M84.8,168.9 C38.3,168.9 0.5,131.1 0.5,84.6 C0.5,38.1 38.3,0.3 84.8,0.3 C131.3,0.3 169.1,38.1 169.1,84.6 C169.1,131.1 131.3,168.9 84.8,168.9 Z M84.8,3.1 C39.9,3.1 3.3,39.7 3.3,84.6 C3.3,129.5 39.9,166.1 84.8,166.1 C129.7,166.1 166.3,129.5 166.3,84.6 C166.3,39.7 129.8,3.1 84.8,3.1 Z" id="XMLID_221_"></path>
            </g>
        </g>
    </g>
</svg>