<?xml version="1.0" encoding="UTF-8"?>
<svg width="40px" height="40px" viewBox="0 0 40 40" version="1.1" xmlns="http://www.w3.org/2000/svg" xmlns:xlink="http://www.w3.org/1999/xlink">
    <!-- Generator: Sketch 59.1 (86144) - https://sketch.com -->
    <title>filecoin-logo</title>
    <desc>Created with Sketch.</desc>
    <defs>
        <polygon id="path-1" points="0 0 40 0 40 40 0 40"></polygon>
    </defs>
    <g id="Page-1" stroke="none" stroke-width="1" fill="none" fill-rule="evenodd">
        <g id="filecoin-logo">
            <g id="Clipped">
                <mask id="mask-2" fill="white">
                    <use xlink:href="#path-1"></use>
                </mask>
                <g id="a-logo_1"></g>
                <path d="M20,40 C9,40 0,31 0,19.9 C0.1,8.9 9,-0.1 20.1,0 C31.1,0.1 40,9 40,20.2 C39.9,31.1 31,40 20,40" id="Path" fill="#0090FF" mask="url(#mask-2)"></path>
            </g>
            <path d="M21.9,17.6 L21.3,20.8 L27,21.6 L26.6,23.1 L21,22.3 C20.6,23.6 20.4,25 19.9,26.2 C19.4,27.6 18.9,29 18.3,30.3 C17.5,32 16.1,33.2 14.2,33.5 C13.1,33.7 11.9,33.6 11,32.9 C10.7,32.7 10.4,32.3 10.4,32 C10.4,31.6 10.6,31.1 10.9,30.9 C11.1,30.8 11.6,30.9 11.9,31 C12.2,31.3 12.5,31.7 12.7,32.1 C13.3,32.9 14.1,33 14.9,32.4 C15.8,31.6 16.3,30.5 16.6,29.4 C17.2,27 17.8,24.7 18.3,22.3 L18.3,21.9 L13,21.1 L13.2,19.6 L18.7,20.4 L19.4,17.3 L13.7,16.4 L13.9,14.8 L19.8,15.6 C20,15 20.1,14.5 20.3,14 C20.8,12.2 21.3,10.4 22.5,8.8 C23.7,7.2 25.1,6.2 27.2,6.3 C28.1,6.3 29,6.6 29.6,7.3 C29.7,7.4 29.9,7.6 29.9,7.8 C29.9,8.2 29.9,8.7 29.6,9 C29.2,9.3 28.7,9.2 28.3,8.8 C28,8.5 27.8,8.2 27.5,7.9 C26.9,7.1 26,7 25.3,7.7 C24.8,8.2 24.3,8.9 24,9.6 C23.3,11.7 22.8,13.9 22.1,16.1 L27.6,16.9 L27.2,18.4 L21.9,17.6" id="Path" fill="#FFFFFF"></path>
        </g>
    </g>
</svg>