<svg id="Layer_1" data-name="Layer 1" xmlns="http://www.w3.org/2000/svg" viewBox="0 0 233 87"><defs><style>.cls-1{fill:#ff92e0;}.cls-1,.cls-2,.cls-3{fill-rule:evenodd;}.cls-2{fill:#e796c1;}.cls-3{fill:#fff;}</style></defs><title>security_key</title><path class="cls-1" d="M260.5,68.77A7.2,7.2,0,0,1,253.38,76H206.62a7.2,7.2,0,0,1-7.12-7.23V21.23A7.2,7.2,0,0,1,206.62,14h46.77a7.2,7.2,0,0,1,7.12,7.23Z" transform="translate(-27.5)"/><path class="cls-2" d="M209.5,76.85A10.18,10.18,0,0,1,199.35,87h-66.7A10.18,10.18,0,0,1,122.5,76.85V10.15A10.18,10.18,0,0,1,132.65,0h66.7A10.18,10.18,0,0,1,209.5,10.15Z" transform="translate(-27.5)"/><path class="cls-1" d="M153.5,76.85A10.18,10.18,0,0,1,143.35,87H76.65A10.18,10.18,0,0,1,66.5,76.85V10.15A10.18,10.18,0,0,1,76.65,0h66.7A10.18,10.18,0,0,1,153.5,10.15Z" transform="translate(-27.5)"/><path class="cls-1" d="M209.5,76.85A10.18,10.18,0,0,1,199.35,87h-66.7A10.18,10.18,0,0,1,122.5,76.85V10.15A10.18,10.18,0,0,1,132.65,0h66.7A10.18,10.18,0,0,1,209.5,10.15Z" transform="translate(-27.5)"/><path class="cls-1" d="M153.5,76.85A10.18,10.18,0,0,1,143.35,87H76.65A10.18,10.18,0,0,1,66.5,76.85V10.15A10.18,10.18,0,0,1,76.65,0h66.7A10.18,10.18,0,0,1,153.5,10.15Z" transform="translate(-27.5)"/><path class="cls-1" d="M114.5,76.85A10.18,10.18,0,0,1,104.35,87H37.65A10.18,10.18,0,0,1,27.5,76.85V10.15A10.18,10.18,0,0,1,37.65,0h66.7A10.18,10.18,0,0,1,114.5,10.15Z" transform="translate(-27.5)"/><path class="cls-1" d="M114.5,76.85A10.18,10.18,0,0,1,104.35,87H37.65A10.18,10.18,0,0,1,27.5,76.85V10.15A10.18,10.18,0,0,1,37.65,0h66.7A10.18,10.18,0,0,1,114.5,10.15Z" transform="translate(-27.5)"/><path class="cls-3" d="M209.5,58.31h43V68h-43Z" transform="translate(-27.5)"/><path class="cls-3" d="M209.5,45.72h37.12v9.56H209.5Z" transform="translate(-27.5)"/><path class="cls-3" d="M209.5,33.75h37.12v9.53H209.5Z" transform="translate(-27.5)"/><path class="cls-3" d="M209.5,22h43v9.69h-43Z" transform="translate(-27.5)"/><path class="cls-3" d="M133.5,19a24,24,0,1,1-24,24A24,24,0,0,1,133.5,19Z" transform="translate(-27.5)"/><path class="cls-3" d="M57.5,43.5A7.5,7.5,0,1,1,50,36,7.5,7.5,0,0,1,57.5,43.5Z" transform="translate(-27.5)"/><path class="cls-1" d="M148.42,46H130.87v1.18s-.22.24-.4.13a2.27,2.27,0,0,0-1.57-.7c-1.35.09-1.17,3.37-4.58,3.37-2.69,0-3.1-1.35-4-3.06a2.94,2.94,0,0,1,0-5.88c.94-1.71,1.35-3.06,4-3.06,3.41,0,3.23,3.28,4.58,3.37a2.27,2.27,0,0,0,1.57-.7c.18-.11.4.13.4.13V42h4.35l1.13,1H139l1.6-.77h2.11l.9.92h1.66l.76-1.27h1l2.42,2.06v1.18Zm-28.08-3.55A1.53,1.53,0,1,0,121.9,44,1.55,1.55,0,0,0,120.33,42.47Z" transform="translate(-27.5)"/></svg>