<?xml version="1.0" encoding="UTF-8"?>
<svg width="117px" height="149px" viewBox="0 0 117 149" version="1.1" xmlns="http://www.w3.org/2000/svg" xmlns:xlink="http://www.w3.org/1999/xlink">
    <!-- Generator: Sketch 54.1 (76490) - https://sketchapp.com -->
    <title>logo</title>
    <desc>Created with Sketch.</desc>
    <defs>
        <linearGradient x1="29.4974541%" y1="6.98564261%" x2="76.8338368%" y2="67.8309871%" id="linearGradient-1">
            <stop stop-color="#00D3E6" offset="0%"></stop>
            <stop stop-color="#2B4CD4" offset="100%"></stop>
        </linearGradient>
    </defs>
    <g id="Page-1" stroke="none" stroke-width="1" fill="none" fill-rule="evenodd">
        <g id="logo" fill="url(#linearGradient-1)" fill-rule="nonzero">
            <g id="Layer_1-2">
                <path d="M116.168,8.75 C116.168,13.3063492 112.474349,17 107.918,17 C103.361651,17 99.668,13.3063492 99.668,8.75 C99.668,4.19365081 103.361651,0.5 107.918,0.5 C112.474349,0.5 116.168,4.19365081 116.168,8.75 Z M99.668,50 C99.668,77.3380951 77.5060951,99.5 50.168,99.5 C22.8299049,99.5 0.668,77.3380951 0.668,50 C0.668,22.6619049 22.8299049,0.5 50.168,0.5 C77.5060951,0.5 99.668,22.6619049 99.668,50 Z M83.168,50 C83.168,31.7746033 68.3933967,17 50.168,17 C31.9426033,17 17.168,31.7746033 17.168,50 C17.168,68.2253967 31.9426033,83 50.168,83 C68.3933967,83 83.168,68.2253967 83.168,50 Z M97.248,101.92 C95.7073612,100.373781 93.6155875,99.5029103 91.4328493,99.4989721 C89.250111,99.4950338 87.1552083,100.35835 85.609,101.899 L85.588,101.92 L52.588,134.92 C49.3995442,138.145149 49.4144039,143.339886 52.6212587,146.546741 C55.8281136,149.753596 61.0228512,149.768456 64.248,146.58 L97.248,113.58 C100.467284,110.371555 100.476686,105.161041 97.269,101.941 L97.248,101.92 Z" id="Shape"></path>
            </g>
        </g>
    </g>
</svg>