<?xml version="1.0" encoding="UTF-8"?>
<svg width="287px" height="301px" viewBox="0 0 287 301" version="1.1" xmlns="http://www.w3.org/2000/svg" xmlns:xlink="http://www.w3.org/1999/xlink">
    <!-- Generator: Sketch 47.1 (45422) - http://www.bohemiancoding.com/sketch -->
    <title>index/props_index/overview/illustration_2</title>
    <desc>Created with Sketch.</desc>
    <defs>
        <polygon id="path-1" points="0 300.205144 286.206476 300.205144 286.206476 0 0 0"></polygon>
    </defs>
    <g id="Page-1" stroke="none" stroke-width="1" fill="none" fill-rule="evenodd">
        <g id="coinlist-website-WIP" transform="translate(-257.000000, -1325.000000)">
            <g id="index/props_index/overview/illustration_2" transform="translate(257.000000, 1325.000000)">
                <path d="M250.131836,131.73986 C250.131836,133.730605 248.520497,135.34465 246.53309,135.34465 C244.545682,135.34465 242.934344,133.730605 242.934344,131.73986 C242.934344,129.749114 244.545682,128.135069 246.53309,128.135069 C248.520497,128.135069 250.131836,129.749114 250.131836,131.73986 Z" id="Fill-1" fill="#398EFF"></path>
                <path d="M250.131836,177.250339 C250.131836,180.984 247.110689,184.009321 243.384187,184.009321 C239.657686,184.009321 236.636538,180.984 236.636538,177.250339 C236.636538,173.516677 239.657686,170.491357 243.384187,170.491357 C247.110689,170.491357 250.131836,173.516677 250.131836,177.250339" id="Fill-3" fill="#FFBC00"></path>
                <path d="M44.1036229,184.459919 C44.1036229,188.193581 41.0824755,191.218901 37.355974,191.218901 C33.6294724,191.218901 30.6083251,188.193581 30.6083251,184.459919 C30.6083251,180.726258 33.6294724,177.700937 37.355974,177.700937 C41.0824755,177.700937 44.1036229,180.726258 44.1036229,184.459919" id="Fill-5" fill="#398EFF"></path>
                <path d="M138.962161,254.187381 C79.275158,254.187381 30.7172771,205.547042 30.7172771,145.760692 C30.7172771,85.9734404 79.275158,37.3331021 138.962161,37.3331021 C198.648265,37.3331021 247.207045,85.9734404 247.207045,145.760692 C247.207045,205.547042 198.648265,254.187381 138.962161,254.187381" id="Fill-7" fill="#FFFFFF"></path>
                <path d="M138.962161,35.9813958 C109.688161,35.9813958 82.1667505,47.4004707 61.466763,68.1352251 C40.7667755,88.8699796 29.3677473,116.436713 29.3677473,145.759881 C29.3677473,175.08395 40.7667755,202.650683 61.466763,223.385438 C82.1667505,244.120192 109.688161,255.539267 138.962161,255.539267 C168.236161,255.539267 195.757572,244.120192 216.457559,223.385438 C237.156647,202.650683 248.556575,175.08395 248.556575,145.759881 C248.556575,116.436713 237.156647,88.8699796 216.457559,68.1352251 C195.757572,47.4004707 168.236161,35.9813958 138.962161,35.9813958 M138.962161,38.6849886 C197.998691,38.6849886 245.857515,86.6241952 245.857515,145.759881 C245.857515,204.896468 197.998691,252.835674 138.962161,252.835674 C79.9247317,252.835674 32.0668069,204.896468 32.0668069,145.759881 C32.0668069,86.6241952 79.9247317,38.6849886 138.962161,38.6849886" id="Fill-9" fill="#DDE6F2"></path>
                <path d="M227.04624,179.240183 C226.370575,179.497925 225.909936,180.117048 225.488882,180.70553 C223.485281,183.501946 221.480779,186.297461 219.477177,189.094779 C218.66476,190.227584 217.848745,191.3685 217.22976,192.619363 C216.477622,194.140584 216.030478,195.814108 215.923415,197.50836 C215.887428,198.068904 215.907221,198.683521 216.268895,199.11159 C216.802409,199.744231 217.819055,199.657716 218.560397,199.29183 C219.787569,198.686225 220.651268,197.52368 221.272951,196.303458 C221.893735,195.082336 222.319287,193.769291 222.950867,192.553575 C224.06198,190.416836 225.769585,188.658599 227.112817,186.659743 C228.023299,185.304342 228.786234,183.76059 228.986864,182.12041 C229.135312,180.91641 228.93918,178.517422 227.04624,179.240183" id="Fill-11" fill="#F0F5F9"></path>
                <path d="M145.934282,63.8120901 C145.087677,63.8138925 144.21858,63.8301141 143.429555,64.1392249 C143.138056,64.2527757 142.851956,64.4149913 142.669319,64.6700302 C142.336435,65.1350482 142.4381,65.809144 142.772783,66.2714584 C143.107467,66.734674 143.627486,67.0257608 144.147504,67.2609734 C145.506031,67.8746889 147.041796,68.2072308 148.498388,67.8882069 C149.954981,67.5700841 151.300012,66.5075722 151.676981,65.0629524 C151.726464,64.8700961 151.758852,64.6592159 151.681479,64.4762728 C151.201047,63.3362578 146.912241,63.8102877 145.934282,63.8120901" id="Fill-13" fill="#F0F5F9"></path>
                <path d="M164.515777,74.6343919 C163.864404,74.3081584 163.061884,74.4036853 162.410511,74.7299189 C161.758238,75.0570536 161.232821,75.587859 160.754188,76.1375895 C159.759135,77.2821105 158.899934,78.5762302 158.464486,80.0289608 C158.029937,81.4825925 158.05153,83.1110566 158.743389,84.4610506 C158.919727,84.8044069 159.14195,85.1315416 159.445144,85.370359 C159.77173,85.6281015 160.172991,85.7686883 160.572451,85.8849428 C162.549962,86.4599069 164.635436,86.5265955 166.694818,86.5482243 C168.063241,86.5617422 169.50184,86.5401135 170.693025,85.8660177 C171.078091,85.6479278 171.439765,85.347829 171.605307,84.9377841 C171.850022,84.3303769 171.599909,83.6130237 171.159063,83.1299817 C170.718216,82.6469398 170.117226,82.3477422 169.53063,82.0566554 C168.944934,81.7664698 168.344843,81.461865 167.910295,80.9734159 C167.059191,80.016344 167.042097,78.657338 166.526577,77.5371494 C166.289959,77.0225656 165.954376,76.6179278 165.721357,76.0961344 C165.457749,75.5076524 165.11227,74.9326883 164.515777,74.6343919" id="Fill-15" fill="#F0F5F9"></path>
                <path d="M200.766397,58.1936638 C199.954879,58.7028404 199.194644,59.2949272 198.520779,59.9771338 C197.380876,61.1297656 196.350735,62.5752865 194.779882,62.9709123 C192.382218,63.5738135 190.259857,61.4803314 188.395707,59.8536698 C186.03403,57.7926308 182.751074,56.1794871 179.83429,57.3231069 C178.028619,58.030547 176.748365,59.6662207 175.814491,61.3676817 C174.880616,63.070044 174.194155,64.9138943 173.08934,66.5099153 C172.442466,67.4444572 171.65524,68.2879781 171.139719,69.3009243 C170.207644,71.1339602 170.301212,73.4509392 171.377237,75.2019662 C172.454161,76.9538943 174.476657,78.0812925 176.530641,78.0749841 C177.794701,78.0695769 179.494208,77.9199781 179.881973,79.1257805 C179.992635,79.4691368 179.942252,79.8494422 179.809099,80.1855889 C179.185616,81.7572775 177.16582,82.1123494 175.783901,83.0847416 C173.621955,84.6059632 173.038958,87.6979722 170.912099,89.2696608 C170.025908,89.9257326 168.930089,90.2645829 168.076287,90.9630111 C167.744303,91.2342716 167.438409,91.592047 167.40692,92.0192147 C167.34844,92.8014542 168.193246,93.3583943 168.38218,94.1190051 C168.678177,95.3094871 167.314252,96.2377207 166.118569,96.4981668 C164.099672,96.93705 161.835161,96.6901219 160.132955,97.8643823 C157.76408,99.4991548 157.799168,103.306715 159.620133,105.53808 C161.441099,107.770346 164.444252,108.674248 167.311553,108.914867 C168.917494,109.050948 170.572917,109.010394 172.08529,108.450751 C173.596763,107.891107 174.95529,106.750191 175.47081,105.219957 C175.994428,103.665391 175.694832,101.72331 176.883318,100.59411 C177.325064,100.175053 177.913459,99.9443464 178.506353,99.8082656 C181.516704,99.112541 184.553146,100.608529 187.280995,102.059457 C189.756033,103.375206 192.231071,104.690954 194.706108,106.006703 C196.041243,106.716846 197.434857,107.180963 198.795183,107.842442 C199.405171,108.138035 200.077237,108.44264 200.736707,108.28493 C201.727262,108.048816 202.200497,106.889876 202.234685,105.870622 C202.268873,104.851367 202.025058,103.813188 202.264375,102.82187 C202.730412,100.893307 204.88966,99.6568644 205.140672,97.6877476 C205.263929,96.7297746 204.969732,95.5591189 205.708375,94.9363913 C206.043058,94.6543165 206.504597,94.5858254 206.940945,94.5560859 C211.044415,94.2695051 215.211763,96.6396548 217.068716,100.31564 C217.275644,100.723882 217.454682,101.214134 217.253152,101.62508 C217.052522,102.033322 216.557694,102.190131 216.11055,102.273041 C213.084005,102.82908 209.592321,101.954918 207.15687,103.83752 C206.156418,104.611649 205.474456,105.994987 205.971983,107.159334 C206.462312,108.306559 207.840632,108.764367 209.0795,108.900448 C210.318368,109.034727 211.642707,108.99958 212.704337,109.653849 C214.542397,110.786655 214.716936,113.35687 214.612572,115.517041 C214.593679,115.917173 214.568487,116.32902 214.393049,116.688598 C214.095252,117.296005 213.428585,117.629448 212.779011,117.814194 C211.00213,118.318864 209.009324,117.996236 207.481657,116.957155 C206.29677,116.151484 205.341303,114.921349 203.957585,114.549155 C200.946334,113.739879 198.167202,117.415864 195.105569,116.829185 C194.061933,116.63002 193.183839,115.955924 192.259861,115.430526 C189.143346,113.656969 185.388955,113.528999 181.804603,113.485742 C179.093848,113.453299 176.371397,113.444287 173.688531,113.829999 C167.614748,114.70326 161.858553,117.656484 157.603936,122.084969 C153.384406,126.476505 150.893174,132.548775 150.289484,138.612933 C149.685795,144.678894 151.504961,151.089113 155.741585,155.464427 C156.403754,156.147535 157.134299,156.789188 158.001597,157.183011 C158.752835,157.523664 159.578748,157.664251 160.397462,157.76158 C165.117218,158.327532 169.98992,157.549799 174.300318,155.542831 C177.016472,154.278451 179.813597,152.485068 182.756472,153.04381 C184.975099,153.46467 186.842848,155.345469 187.251306,157.569625 C187.599484,159.463041 186.968804,161.412331 187.146942,163.329179 C187.505917,167.189008 191.060578,170.408987 190.684509,174.267014 C190.455089,176.620041 188.796067,178.556715 187.920672,180.752933 C185.677754,186.374604 188.774475,192.63973 188.7025,198.692173 C188.670111,201.470565 187.961158,204.194885 187.686754,206.958858 C187.621976,207.612227 187.586889,208.29984 187.863992,208.894631 C188.482077,210.21849 190.284149,210.43658 191.719149,210.169825 C195.966569,209.381278 199.328697,206.130658 201.916196,202.666454 C204.503694,199.202251 206.629654,195.337915 209.788453,192.387394 C213.180271,189.222388 217.702096,187.161349 220.177133,183.234831 C223.787575,177.506819 221.876641,169.734891 224.744842,163.599538 C227.118215,158.52129 232.599105,154.929116 233.38813,149.37864 C233.483497,148.705445 233.456506,147.910589 232.923892,147.48973 C232.580212,147.218469 232.113274,147.178816 231.676027,147.168002 C230.021503,147.127448 228.360682,147.341032 226.770936,147.801544 C225.420506,146.850781 224.782629,145.027658 224.276105,143.454167 C222.189732,136.97005 219.712895,130.6112 216.864487,124.424478 C216.709741,124.088331 216.550497,123.734161 216.581986,123.363769 C216.612575,122.995179 216.912171,122.621182 217.281042,122.65002 C217.466378,122.66534 217.629221,122.774385 217.768672,122.896948 C218.128547,123.211466 218.386757,123.624215 218.628773,124.036062 C222.116857,129.974053 223.385415,136.994382 226.716955,143.024296 C227.157801,143.822757 227.79298,144.697819 228.704362,144.705029 C229.479892,144.710436 230.090779,144.076894 230.599102,143.490215 L236.376889,136.84208 C237.468208,135.586712 238.589218,134.278173 239.057955,132.680349 C239.565378,130.946445 239.24329,129.096287 239.089444,127.296595 C239.064252,126.9992 239.063353,126.650436 239.294572,126.461185 C239.468212,126.318796 239.713826,126.318796 239.937848,126.325104 C240.50465,126.342227 241.072353,126.359349 241.639155,126.375571 C243.045365,130.266942 244.451575,134.157412 245.857785,138.047882 C243.512303,105.049631 226.24192,76.1869751 200.766397,58.1936638" id="Fill-17" fill="#F0F5F9"></path>
                <path d="M138.962161,38.6849886 C103.066468,38.6849886 71.3048351,56.4097431 51.9192897,83.5961713 C51.7006658,84.4865545 51.5306251,85.3913569 51.407368,86.2934557 C50.9782176,89.427821 50.9719197,92.6117521 50.4662959,95.7344018 C49.6772708,100.610782 48.8117724,106.37304 44.7712803,109.206405 C42.8819386,110.530264 41.9777536,112.936462 41.9372677,115.24533 C41.8967818,117.555099 42.6039354,119.807192 43.3731674,121.983584 C44.1936815,124.302366 45.0942677,126.59321 46.072227,128.849809 C47.7483429,132.714144 48.884647,136.628046 48.8180702,140.841144 C48.7523931,145.025405 51.6763743,149.082596 55.6619856,150.336162 C56.860368,150.713764 58.1244276,150.857054 59.3120138,151.268902 C62.4132332,152.344932 64.6057693,155.086375 67.3813022,156.840105 C70.2674966,158.665031 74.0623743,159.686087 75.4811799,162.794318 C76.4636376,164.946378 75.5288633,167.293998 74.9971486,169.601063 C74.4357442,172.043309 73.3651172,174.33956 72.7245404,176.76198 C72.0839636,179.184399 71.9112238,181.881683 73.0862144,184.095025 C74.0695718,185.94248 75.8752426,187.237501 76.9008853,189.062426 C78.1496502,191.286581 78.1397536,194.119947 79.6836157,196.148543 C81.7708884,198.891788 85.8113806,199.128803 88.6067066,201.143881 C90.8622207,202.76874 92.1433743,205.461519 92.7362677,208.180432 C93.3291611,210.900246 93.3228633,213.708378 93.5270922,216.484066 C93.8986627,221.546093 95.1258351,226.834321 98.6301141,230.501294 C100.131691,232.072081 101.979647,233.265267 103.590986,234.722504 C105.438042,236.395126 106.963011,238.403896 108.863149,240.013435 C110.764186,241.623875 113.212233,242.842294 115.674675,242.480914 C115.196042,239.981893 112.855058,238.312875 111.670171,236.062584 C109.60449,232.137869 111.394866,227.291228 113.791631,223.561171 C116.189296,219.829312 119.268023,216.280396 119.954484,211.896971 C120.112829,210.879519 120.147917,209.803489 120.660738,208.909501 C120.985525,208.34445 121.479453,207.896554 121.995873,207.497324 C124.191108,205.800369 127.050312,204.672069 128.262189,202.17395 C129.105196,200.437342 128.954948,198.376303 129.607221,196.559489 C130.214509,194.866138 131.478569,193.49001 132.257697,191.869656 C133.037725,190.247501 133.207766,187.83139 131.842042,186.662537 C131.410192,186.858096 130.978343,187.053656 130.546493,187.249216 C125.435374,181.214797 115.43176,182.263791 109.457841,177.084608 C106.574346,174.585587 104.989098,170.926725 102.554547,167.98792 C99.8383931,164.70756 96.0255216,162.354534 91.8788665,161.400165 C89.1591141,160.773833 86.3376972,160.736884 83.5909542,160.240324 C80.8442113,159.743764 78.0434871,158.689363 76.2917975,156.512971 C75.0844182,155.010674 74.4645342,153.083013 73.1581893,151.665429 C69.9265154,148.157968 64.0596596,149.105126 59.971484,146.650264 C58.9656345,146.046462 58.0524527,145.192126 57.6673868,144.082752 C57.3866846,143.273477 57.4055781,142.394809 57.4442646,141.539572 C57.6161047,137.701372 58.4654088,133.317046 61.799647,131.418222 C64.1793179,130.062821 67.1095969,130.412486 69.8338476,130.138522 C74.9296721,129.627543 79.7241016,126.659899 82.4600483,122.324237 C84.5887066,118.949252 85.6161486,114.722635 88.7353618,112.238034 C91.4272238,110.094084 95.1699197,109.698459 97.9364558,107.65274 C98.8892238,106.948004 99.712437,106.056719 100.753374,105.490767 C102.626522,104.472414 104.884735,104.653554 107.015192,104.579656 C109.14475,104.504857 111.536117,103.970447 112.634634,102.141016 C113.131261,101.312815 113.286907,100.3233 113.321095,99.356315 C113.403866,97.0348299 112.826268,94.6926174 111.674669,92.6766383 C110.834362,91.2058838 109.707055,89.9216772 108.796572,88.4950814 C107.127653,85.8807072 106.403406,82.701282 105.773625,79.6642461 C105.182531,76.8101533 105.96076,73.7019228 107.827609,71.4651503 C108.310741,70.8856802 108.872145,70.3467641 109.160045,69.6492371 C109.789826,68.1235096 108.91533,66.3869018 107.819512,65.1531623 C106.723694,63.920324 105.354371,62.8614168 104.705697,61.3438 C103.472227,58.4545605 105.367866,55.1165246 107.814114,53.1519138 C110.176691,51.2548928 113.256318,50.065312 116.244177,50.5546623 C119.232935,51.0449138 121.968882,53.4979737 122.2055,56.5214916 C122.468208,59.8811563 119.858218,62.7523719 119.089885,66.0327311 C117.95718,70.8721623 121.697177,76.2712371 126.618462,76.9038778 C127.487559,77.0156263 128.412437,76.9876892 129.17897,76.562324 C129.929308,76.1468719 130.437631,75.404285 130.864982,74.6598958 C132.469124,71.8616772 133.376907,68.6011443 135.598233,66.2643389 C137.18528,64.5935186 139.302243,63.5517341 141.179888,62.2161593 C143.056634,60.8814856 144.811923,59.0367341 145.046741,56.742285 C145.376026,53.5123928 142.694061,50.8890066 141.050334,48.0916892 C139.401208,45.2835575 138.76333,41.9139796 139.19428,38.6885934 C139.116907,38.6876922 139.039534,38.6849886 138.962161,38.6849886" id="Fill-19" fill="#F0F5F9"></path>
                <path d="M203.348137,123.629081 C203.348137,126.614749 200.930679,129.036267 197.950018,129.036267 C194.969356,129.036267 192.551899,126.614749 192.551899,123.629081 C192.551899,120.643413 194.969356,118.221896 197.950018,118.221896 C200.930679,118.221896 203.348137,120.643413 203.348137,123.629081" id="Fill-21" fill="#398EFF"></path>
                <path d="M88.1882624,161.479381 C88.1882624,163.470126 86.5769238,165.084171 84.5895163,165.084171 C82.6021088,165.084171 80.9907702,163.470126 80.9907702,161.479381 C80.9907702,159.488635 82.6021088,157.87459 84.5895163,157.87459 C86.5769238,157.87459 88.1882624,159.488635 88.1882624,161.479381" id="Fill-23" fill="#398EFF"></path>
                <path d="M118.777604,226.365608 C118.777604,228.356354 117.166266,229.970399 115.178858,229.970399 C113.19145,229.970399 111.580112,228.356354 111.580112,226.365608 C111.580112,224.374863 113.19145,222.760818 115.178858,222.760818 C117.166266,222.760818 118.777604,224.374863 118.777604,226.365608" id="Fill-25" fill="#398EFF"></path>
                <path d="M168.260363,118.221896 C168.260363,120.212641 166.649024,121.826686 164.661617,121.826686 C162.674209,121.826686 161.062871,120.212641 161.062871,118.221896 C161.062871,116.23115 162.674209,114.617105 164.661617,114.617105 C166.649024,114.617105 168.260363,116.23115 168.260363,118.221896" id="Fill-27" fill="#FFBC00"></path>
                <path d="M56.6992342,102.901536 C56.6992342,105.638473 54.484206,107.858123 51.7509583,107.858123 C49.0177107,107.858123 46.8026824,105.638473 46.8026824,102.901536 C46.8026824,100.164599 49.0177107,97.9449494 51.7509583,97.9449494 C54.484206,97.9449494 56.6992342,100.164599 56.6992342,102.901536" id="Fill-29" fill="#FFBC00"></path>
                <path d="M125.07541,61.4464464 C125.07541,63.4371919 123.464071,65.0512368 121.476664,65.0512368 C119.489256,65.0512368 117.877918,63.4371919 117.877918,61.4464464 C117.877918,59.4557009 119.489256,57.841656 121.476664,57.841656 C123.464071,57.841656 125.07541,59.4557009 125.07541,61.4464464" id="Fill-31" fill="#398EFF"></path>
                <path d="M231.238419,157.87459 C231.238419,159.865336 229.627081,161.479381 227.639673,161.479381 C225.652266,161.479381 224.040927,159.865336 224.040927,157.87459 C224.040927,155.883845 225.652266,154.2698 227.639673,154.2698 C229.627081,154.2698 231.238419,155.883845 231.238419,157.87459" id="Fill-33" fill="#FFBC00"></path>
                <path d="M189.852839,102.000339 C189.852839,103.991084 188.241501,105.605129 186.254093,105.605129 C184.266686,105.605129 182.655347,103.991084 182.655347,102.000339 C182.655347,100.009593 184.266686,98.3955482 186.254093,98.3955482 C188.241501,98.3955482 189.852839,100.009593 189.852839,102.000339" id="Fill-35" fill="#398EFF"></path>
                <path d="M192.316451,178.558066 C190.91114,177.622623 189.106369,177.059375 187.136955,177.059375 C182.654717,177.059375 179.021783,179.970243 179.021783,183.562417 C179.021783,187.152788 182.654717,188.330653 187.136955,188.330653 L187.15225,188.330653 C187.143253,188.159426 187.118962,187.996309 187.118962,187.821477 C187.118962,184.083309 189.150454,180.746174 192.316451,178.558066" id="Fill-37" fill="#398EFF"></path>
                <path d="M223.14124,183.562237 C223.14124,179.970964 219.508306,177.059195 215.026968,177.059195 C213.064751,177.059195 211.266278,177.617036 209.862767,178.546171 C213.03956,180.733377 215.07915,184.07682 215.07915,187.822198 C215.07915,187.996129 215.054858,188.160147 215.045861,188.330473 C219.518203,188.326868 223.14124,187.148102 223.14124,183.562237" id="Fill-39" fill="#398EFF"></path>
                <path d="M206.946883,170.941955 C206.946883,167.208294 204.825422,164.182973 201.098921,164.182973 C197.372419,164.182973 195.250958,167.208294 195.250958,170.941955 C195.250958,174.675617 197.372419,177.700937 201.098921,177.700937 C204.825422,177.700937 206.946883,174.675617 206.946883,170.941955" id="Fill-41" fill="#398EFF"></path>
                <path d="M211.480044,187.821747 C211.480044,183.227442 206.832263,179.503693 201.098561,179.503693 C195.365758,179.503693 190.717978,183.227442 190.717978,187.821747 C190.717978,192.416954 195.365758,193.922855 201.098561,193.922855 C206.832263,193.922855 211.480044,192.416954 211.480044,187.821747" id="Fill-43" fill="#398EFF"></path>
                <path d="M210.250892,173.633202 C210.940951,174.85072 212.124939,175.650082 213.737177,175.650082 C216.402049,175.650082 217.91802,173.487208 217.91802,170.81786 C217.91802,168.148513 216.402049,165.985639 213.737177,165.985639 C212.096149,165.985639 210.894168,166.810235 210.210406,168.063801 C209.783955,168.84604 209.556334,169.793199 209.556334,170.81786 C209.556334,171.87136 209.801049,172.839247 210.250892,173.633202" id="Fill-45" fill="#398EFF"></path>
                <path d="M191.979068,168.104535 C191.299805,166.825735 190.086128,165.984918 188.426206,165.984918 C185.761335,165.984918 184.244463,168.148693 184.244463,170.818041 C184.244463,173.487388 185.761335,175.650262 188.426206,175.650262 C190.057338,175.650262 191.252122,174.834678 191.938582,173.593729 C192.373131,172.806984 192.60705,171.853517 192.60705,170.818041 C192.60705,169.812304 192.391125,168.877762 191.979068,168.104535" id="Fill-47" fill="#398EFF"></path>
                <path d="M69.9472082,184.394763 C68.8279981,183.650374 67.3911987,183.202478 65.8239448,183.202478 C62.2557881,183.202478 59.3632959,185.519457 59.3632959,188.378056 C59.3632959,191.237556 62.2557881,192.174802 65.8239448,192.174802 L65.8356408,192.174802 C65.8284433,192.03782 65.8095498,191.908047 65.8095498,191.770164 C65.8095498,188.793508 67.4262865,186.136778 69.9472082,184.394763" id="Fill-49" fill="#FFBC00"></path>
                <path d="M94.486068,188.377966 C94.486068,185.519367 91.5935759,183.202388 88.0263188,183.202388 C86.464463,183.202388 85.0321621,183.645778 83.9156511,184.38476 C86.4446699,186.126775 88.0677044,188.788011 88.0677044,191.770074 C88.0677044,191.907957 88.048811,192.038631 88.0416135,192.174712 C91.601673,192.171107 94.486068,191.23296 94.486068,188.377966" id="Fill-51" fill="#FFBC00"></path>
                <path d="M81.59401,178.331956 C81.59401,175.359806 79.9052984,172.950905 76.939032,172.950905 C73.9718658,172.950905 72.2831542,175.359806 72.2831542,178.331956 C72.2831542,181.303204 73.9718658,183.713007 76.939032,183.713007 C79.9052984,183.713007 81.59401,181.303204 81.59401,178.331956" id="Fill-53" fill="#FFBC00"></path>
                <path d="M85.2028326,191.769804 C85.2028326,188.111843 81.5033216,185.146902 76.9383122,185.146902 C72.3742025,185.146902 68.6746915,188.111843 68.6746915,191.769804 C68.6746915,195.427765 72.3742025,196.626357 76.9383122,196.626357 C81.5033216,196.626357 85.2028326,195.427765 85.2028326,191.769804" id="Fill-55" fill="#FFBC00"></path>
                <path d="M84.2240636,180.474013 C84.7737721,181.4428 85.7157439,182.079947 86.9995966,182.079947 C89.1210574,182.079947 90.3284367,180.357758 90.3284367,178.233635 C90.3284367,176.10771 89.1210574,174.385522 86.9995966,174.385522 C85.6932517,174.385522 84.736885,175.042495 84.1916749,176.041022 C83.8524931,176.662848 83.6707564,177.41715 83.6707564,178.233635 C83.6707564,179.071749 83.8659884,179.842273 84.2240636,180.474013" id="Fill-57" fill="#FFBC00"></path>
                <path d="M69.6783818,176.072744 C69.1367705,175.055292 68.1714069,174.385702 66.8497674,174.385702 C64.7292063,174.385702 63.521827,176.10789 63.521827,178.232914 C63.521827,180.357938 64.7292063,182.080127 66.8497674,182.080127 C68.1489147,182.080127 69.0998834,181.430363 69.6459931,180.442651 C69.9923724,179.816319 70.1786075,179.05751 70.1786075,178.232914 C70.1786075,177.43175 70.0058677,176.689163 69.6783818,176.072744" id="Fill-59" fill="#FFBC00"></path>
                <path d="M178.809277,78.9546431 C177.690067,78.2102539 176.253268,77.7623587 174.686014,77.7623587 C171.117857,77.7623587 168.225365,80.0793377 168.225365,82.9379365 C168.225365,85.7974365 171.117857,86.734682 174.686014,86.734682 L174.69771,86.734682 C174.690512,86.5977 174.671619,86.4679275 174.671619,86.3300443 C174.671619,83.3533886 176.288355,80.6966581 178.809277,78.9546431" id="Fill-61" fill="#FFBC00"></path>
                <path d="M203.348137,82.9378464 C203.348137,80.0792476 200.455645,77.7622686 196.888388,77.7622686 C195.326532,77.7622686 193.894231,78.2056578 192.77772,78.9446398 C195.306739,80.6866548 196.929773,83.3478913 196.929773,86.3299542 C196.929773,86.4678374 196.91088,86.5985111 196.903682,86.7345919 C200.463742,86.7309871 203.348137,85.7928404 203.348137,82.9378464" id="Fill-63" fill="#FFBC00"></path>
                <path d="M190.456079,72.8918362 C190.456079,69.9196865 188.767367,67.5107853 185.801101,67.5107853 C182.833935,67.5107853 181.145223,69.9196865 181.145223,72.8918362 C181.145223,75.8630847 182.833935,78.2728871 185.801101,78.2728871 C188.767367,78.2728871 190.456079,75.8630847 190.456079,72.8918362" id="Fill-65" fill="#FFBC00"></path>
                <path d="M194.064902,86.3296838 C194.064902,82.6717228 190.365391,79.7067826 185.800381,79.7067826 C181.236271,79.7067826 177.536761,82.6717228 177.536761,86.3296838 C177.536761,89.9876449 181.236271,91.1862377 185.800381,91.1862377 C190.365391,91.1862377 194.064902,89.9876449 194.064902,86.3296838" id="Fill-67" fill="#FFBC00"></path>
                <path d="M193.086133,75.0338928 C193.635841,76.0026802 194.577813,76.6398269 195.861666,76.6398269 C197.983126,76.6398269 199.190506,74.9176383 199.190506,72.7935156 C199.190506,70.6675904 197.983126,68.9454018 195.861666,68.9454018 C194.555321,68.9454018 193.598954,69.6023749 193.053744,70.6009018 C192.714562,71.2227281 192.532825,71.9770305 192.532825,72.7935156 C192.532825,73.6316293 192.728057,74.4021533 193.086133,75.0338928" id="Fill-69" fill="#FFBC00"></path>
                <path d="M178.540451,70.632624 C177.998839,69.6151719 177.033476,68.945582 175.711836,68.945582 C173.591275,68.945582 172.383896,70.6677707 172.383896,72.7927946 C172.383896,74.9178186 173.591275,76.6400072 175.711836,76.6400072 C177.010984,76.6400072 177.961952,75.9902437 178.508062,75.0025311 C178.854441,74.3761988 179.040676,73.6173904 179.040676,72.7927946 C179.040676,71.9916299 178.867937,71.2490431 178.540451,70.632624" id="Fill-71" fill="#FFBC00"></path>
                <path d="M227.186321,107.11094 C230.152587,107.11094 231.842199,104.702039 231.842199,101.729889 C231.842199,98.7577395 230.152587,96.3497395 227.186321,96.3497395 C224.220055,96.3497395 222.531343,98.7577395 222.531343,101.729889 C222.531343,104.702039 224.220055,107.11094 227.186321,107.11094" id="Fill-73" fill="#398EFF"></path>
                <path d="M227.186321,108.545466 C222.622211,108.545466 218.921801,111.510407 218.921801,115.168368 C218.921801,118.825428 222.622211,120.02402 227.186321,120.02402 C231.750431,120.02402 235.450841,118.825428 235.450841,115.168368 C235.450841,111.510407 231.750431,108.545466 227.186321,108.545466" id="Fill-75" fill="#398EFF"></path>
                <path d="M85.0358508,71.9642335 C88.0021172,71.9642335 89.6917285,69.5553323 89.6917285,66.5831826 C89.6917285,63.6110329 88.0021172,61.2030329 85.0358508,61.2030329 C82.0695843,61.2030329 80.3808727,63.6110329 80.3808727,66.5831826 C80.3808727,69.5553323 82.0695843,71.9642335 85.0358508,71.9642335" id="Fill-77" fill="#398EFF"></path>
                <path d="M85.0358508,73.3987599 C80.4717411,73.3987599 76.7713304,76.3637 76.7713304,80.0216611 C76.7713304,83.678721 80.4717411,84.8773138 85.0358508,84.8773138 C89.5999605,84.8773138 93.3003712,83.678721 93.3003712,80.0216611 C93.3003712,76.3637 89.5999605,73.3987599 85.0358508,73.3987599" id="Fill-79" fill="#398EFF"></path>
                <path d="M121.02682,53.7862668 C130.023686,-3.89037994 198.399861,2.41800329 184.004877,63.6994404" id="Stroke-81" stroke="#398EFF" stroke-width="2.69999993" stroke-linecap="round" stroke-linejoin="round" stroke-dasharray="0.8999999761581421,6.299999833106995"></path>
                <path d="M112.029955,232.223393 C64.9529583,266.634722 -0.430859875,238.531776 29.2587953,192.570698" id="Stroke-83" stroke="#398EFF" stroke-width="2.69999993" stroke-linecap="round" stroke-linejoin="round" stroke-dasharray="0.8999999761581421,6.299999833106995"></path>
                <path d="M252.381052,129.486866 C300.964124,108.759321 278.471961,26.7503386 203.79798,69.106626" id="Stroke-85" stroke="#398EFF" stroke-width="2.69999993" stroke-linecap="round" stroke-linejoin="round" stroke-dasharray="0.8999999761581421,6.299999833106995"></path>
                <path d="M193.138404,239.348441 C192.101966,295.307405 81.4405235,315.133752 76.9420909,199.780459" id="Stroke-87" stroke="#398EFF" stroke-width="2.69999993" stroke-linecap="round" stroke-linejoin="round" stroke-dasharray="0.8999999761581421,6.299999833106995"></path>
                <path d="M168.710206,183.558722 C168.710206,183.558722 96.7352843,154.720399 89.5377922,89.834171" id="Stroke-89" stroke="#398EFF" stroke-width="2.69999993" stroke-linecap="round" stroke-linejoin="round" stroke-dasharray="0.8999999761581421,6.299999833106995"></path>
                <mask id="mask-2" fill="white">
                    <use xlink:href="#path-1"></use>
                </mask>
                <g id="Clip-92"></g>
                <polygon id="Fill-91" fill="#FFFFFF" mask="url(#mask-2)" points="134.522028 169.13947 139.920147 169.13947 139.920147 161.929889 134.522028 161.929889"></polygon>
                <path d="M61.64751,169.13956 C61.64751,169.13956 -13.5078034,122.125884 31.9578549,74.5138117 C51.7509583,53.7862668 76.9421809,62.7982428 76.9421809,62.7982428" id="Stroke-93" stroke="#398EFF" stroke-width="2.69999993" stroke-linecap="round" stroke-linejoin="round" stroke-dasharray="0.8999999761581421,6.299999833106995" mask="url(#mask-2)"></path>
                <path d="M96.7352843,183.558722 C96.7352843,183.558722 170.509579,165.53477 185.80425,108.759321" id="Stroke-94" stroke="#398EFF" stroke-width="2.69999993" stroke-linecap="round" stroke-linejoin="round" stroke-dasharray="0.8999999761581421,6.299999833106995" mask="url(#mask-2)"></path>
                <path d="M195.700802,199.780279 C195.700802,199.780279 195.768278,222.580578 222.691397,227.717404 C241.584814,231.322195 266.776037,215.100638 250.581679,185.361117" id="Stroke-95" stroke="#398EFF" stroke-width="2.69999993" stroke-linecap="round" stroke-linejoin="round" stroke-dasharray="0.8999999761581421,6.299999833106995" mask="url(#mask-2)"></path>
                <path d="M250.166114,237.150871 C241.687468,237.150871 234.788672,230.240487 234.788672,221.747601 C234.788672,213.254715 241.687468,206.344332 250.166114,206.344332 C258.64476,206.344332 265.542656,213.254715 265.542656,221.747601 C265.542656,230.240487 258.64476,237.150871 250.166114,237.150871" id="Fill-96" fill="#FFFFFF" mask="url(#mask-2)"></path>
                <path d="M250.166114,205.472603 C241.207036,205.472603 233.918675,212.774106 233.918675,221.748232 C233.918675,230.722358 241.207036,238.022058 250.166114,238.022058 C259.125192,238.022058 266.413553,230.722358 266.413553,221.748232 C266.413553,212.774106 259.125192,205.472603 250.166114,205.472603 M250.166114,207.217322 C258.177823,207.217322 264.67266,213.722166 264.67266,221.748232 C264.67266,229.773397 258.177823,236.279142 250.166114,236.279142 C242.154406,236.279142 235.658669,229.773397 235.658669,221.748232 C235.658669,213.722166 242.154406,207.217322 250.166114,207.217322" id="Fill-97" fill="#DDE6F2" mask="url(#mask-2)"></path>
                <path d="M244.9249,224.822758 L244.9249,216.498396 L252.711687,216.498396 L252.711687,210.407201 C251.892073,210.223357 251.040969,210.122422 250.166474,210.122422 C243.757107,210.122422 238.560518,215.32774 238.560518,221.747872 C238.560518,226.278192 241.149816,230.200204 244.9249,232.118854 L244.9249,226.997348 L244.9249,224.822758 Z" id="Fill-98" fill="#00D1FF" mask="url(#mask-2)"></path>
                <path d="M255.406968,211.37698 L255.406968,216.498486 L255.406968,217.772779 L255.406968,226.997438 L247.620181,226.997438 L247.620181,233.088632 C248.439796,233.272477 249.290899,233.37251 250.166294,233.37251 C256.575661,233.37251 261.77135,228.168093 261.77135,221.747962 C261.77135,217.21674 259.182053,213.294728 255.406968,211.37698" id="Fill-99" fill="#00D1FF" mask="url(#mask-2)"></path>
                <polygon id="Fill-100" fill="#00D1FF" mask="url(#mask-2)" points="247.620721 224.297269 252.712047 224.297269 252.712047 219.197392 247.620721 219.197392"></polygon>
                <path d="M269.959218,90.2556611 C261.480572,90.2556611 254.581776,83.3452778 254.581776,74.8523916 C254.581776,66.3595054 261.480572,59.4491222 269.959218,59.4491222 C278.437863,59.4491222 285.33576,66.3595054 285.33576,74.8523916 C285.33576,83.3452778 278.437863,90.2556611 269.959218,90.2556611" id="Fill-101" fill="#FFFFFF" mask="url(#mask-2)"></path>
                <path d="M269.959218,58.5773937 C261.000139,58.5773937 253.711779,65.8788967 253.711779,74.8530225 C253.711779,83.8271482 261.000139,91.1268488 269.959218,91.1268488 C278.918296,91.1268488 286.206656,83.8271482 286.206656,74.8530225 C286.206656,65.8788967 278.918296,58.5773937 269.959218,58.5773937 M269.959218,60.3221123 C277.970926,60.3221123 284.465763,66.8269566 284.465763,74.8530225 C284.465763,82.8781871 277.970926,89.3839326 269.959218,89.3839326 C261.947509,89.3839326 255.451772,82.8781871 255.451772,74.8530225 C255.451772,66.8269566 261.947509,60.3221123 269.959218,60.3221123" id="Fill-102" fill="#DDE6F2" mask="url(#mask-2)"></path>
                <path d="M264.718004,77.9275482 L264.718004,69.6031859 L272.504791,69.6031859 L272.504791,63.5119913 C271.685176,63.328147 270.834073,63.2272129 269.959577,63.2272129 C263.550211,63.2272129 258.353621,68.4325302 258.353621,74.852662 C258.353621,79.3829823 260.942919,83.3049943 264.718004,85.223644 L264.718004,80.102138 L264.718004,77.9275482 Z" id="Fill-103" fill="#00D1FF" mask="url(#mask-2)"></path>
                <path d="M275.200071,64.4817701 L275.200071,69.603276 L275.200071,70.8775695 L275.200071,80.1022281 L267.413285,80.1022281 L267.413285,86.1934228 C268.232899,86.3772671 269.084003,86.4773 269.959397,86.4773 C276.368764,86.4773 281.564454,81.2728838 281.564454,74.8527521 C281.564454,70.3215305 278.975156,66.3995186 275.200071,64.4817701" id="Fill-104" fill="#00D1FF" mask="url(#mask-2)"></path>
                <polygon id="Fill-105" fill="#00D1FF" mask="url(#mask-2)" points="267.413824 77.4020599 272.50515 77.4020599 272.50515 72.3021826 267.413824 72.3021826"></polygon>
                <path d="M161.097149,31.6778168 C152.618503,31.6778168 145.719707,24.7674335 145.719707,16.2745473 C145.719707,7.78166108 152.618503,0.871277844 161.097149,0.871277844 C169.575794,0.871277844 176.473691,7.78166108 176.473691,16.2745473 C176.473691,24.7674335 169.575794,31.6778168 161.097149,31.6778168" id="Fill-106" fill="#FFFFFF" mask="url(#mask-2)"></path>
                <path d="M161.097149,-0.000450598802 C152.13807,-0.000450598802 144.84971,7.3010524 144.84971,16.2751781 C144.84971,25.2493039 152.13807,32.5490045 161.097149,32.5490045 C170.056227,32.5490045 177.344587,25.2493039 177.344587,16.2751781 C177.344587,7.3010524 170.056227,-0.000450598802 161.097149,-0.000450598802 M161.097149,1.74426796 C169.108857,1.74426796 175.603694,8.24911228 175.603694,16.2751781 C175.603694,24.3003428 169.108857,30.8060883 161.097149,30.8060883 C153.08544,30.8060883 146.589703,24.3003428 146.589703,16.2751781 C146.589703,8.24911228 153.08544,1.74426796 161.097149,1.74426796" id="Fill-107" fill="#DDE6F2" mask="url(#mask-2)"></path>
                <path d="M155.855935,19.3497039 L155.855935,11.0253416 L163.642722,11.0253416 L163.642722,4.93414701 C162.823107,4.75030269 161.972004,4.64936856 161.097508,4.64936856 C154.688142,4.64936856 149.491552,9.85468593 149.491552,16.2748177 C149.491552,20.805138 152.08085,24.72715 155.855935,26.6457997 L155.855935,21.5242937 L155.855935,19.3497039 Z" id="Fill-108" fill="#00D1FF" mask="url(#mask-2)"></path>
                <path d="M166.338003,5.90392575 L166.338003,11.0254317 L166.338003,12.2997251 L166.338003,21.5243838 L158.551216,21.5243838 L158.551216,27.6155784 C159.37083,27.7994228 160.221934,27.8994557 161.097329,27.8994557 C167.506695,27.8994557 172.702385,22.6950395 172.702385,16.2749078 C172.702385,11.7436862 170.113087,7.82167425 166.338003,5.90392575" id="Fill-109" fill="#00D1FF" mask="url(#mask-2)"></path>
                <polygon id="Fill-110" fill="#00D1FF" mask="url(#mask-2)" points="158.551755 18.8242156 163.643082 18.8242156 163.643082 13.7243383 158.551755 13.7243383"></polygon>
                <path d="M16.2476188,113.686799 C7.76897304,113.686799 0.870176803,106.776416 0.870176803,98.2835293 C0.870176803,89.7906431 7.76897304,82.8802599 16.2476188,82.8802599 C24.7262646,82.8802599 31.6241611,89.7906431 31.6241611,98.2835293 C31.6241611,106.776416 24.7262646,113.686799 16.2476188,113.686799" id="Fill-111" fill="#FFFFFF" mask="url(#mask-2)"></path>
                <path d="M16.2476188,82.0085314 C7.28854044,82.0085314 0.000179937304,89.3100344 0.000179937304,98.2841602 C0.000179937304,107.258286 7.28854044,114.557987 16.2476188,114.557987 C25.2066972,114.557987 32.4950577,107.258286 32.4950577,98.2841602 C32.4950577,89.3100344 25.2066972,82.0085314 16.2476188,82.0085314 M16.2476188,83.75325 C24.2593273,83.75325 30.7541643,90.2580943 30.7541643,98.2841602 C30.7541643,106.309325 24.2593273,112.81507 16.2476188,112.81507 C8.23591034,112.81507 1.74017367,106.309325 1.74017367,98.2841602 C1.74017367,90.2580943 8.23591034,83.75325 16.2476188,83.75325" id="Fill-112" fill="#DDE6F2" mask="url(#mask-2)"></path>
                <path d="M11.006405,101.358686 L11.006405,93.0343237 L18.7931918,93.0343237 L18.7931918,86.943129 C17.9735774,86.7592847 17.122474,86.6583506 16.2479787,86.6583506 C9.83861191,86.6583506 4.64202257,91.863668 4.64202257,98.2837997 C4.64202257,102.81412 7.23132038,106.736132 11.006405,108.654782 L11.006405,103.533276 L11.006405,101.358686 Z" id="Fill-113" fill="#00D1FF" mask="url(#mask-2)"></path>
                <path d="M21.4884727,87.9129078 L21.4884727,93.0344138 L21.4884727,94.3087072 L21.4884727,103.533366 L13.7016859,103.533366 L13.7016859,109.62456 C14.5213003,109.808405 15.3724038,109.908438 16.2477987,109.908438 C22.6571655,109.908438 27.8528552,104.704022 27.8528552,98.2838898 C27.8528552,93.7526683 25.2635574,89.8306563 21.4884727,87.9129078" id="Fill-114" fill="#00D1FF" mask="url(#mask-2)"></path>
                <polygon id="Fill-115" fill="#00D1FF" mask="url(#mask-2)" points="13.7022257 100.833198 18.7935517 100.833198 18.7935517 95.7333204 13.7022257 95.7333204"></polygon>
                <path d="M27.9435436,245.261649 C19.4648978,245.261649 12.5661016,238.351266 12.5661016,229.85838 C12.5661016,221.365493 19.4648978,214.45511 27.9435436,214.45511 C36.4221893,214.45511 43.3200859,221.365493 43.3200859,229.85838 C43.3200859,238.351266 36.4221893,245.261649 27.9435436,245.261649" id="Fill-116" fill="#FFFFFF" mask="url(#mask-2)"></path>
                <path d="M27.9435436,213.583382 C18.9844652,213.583382 11.6961047,220.884885 11.6961047,229.85901 C11.6961047,238.833136 18.9844652,246.132837 27.9435436,246.132837 C36.9026219,246.132837 44.1909824,238.833136 44.1909824,229.85901 C44.1909824,220.884885 36.9026219,213.583382 27.9435436,213.583382 M27.9435436,215.3281 C35.955252,215.3281 42.450089,221.832945 42.450089,229.85901 C42.450089,237.884175 35.955252,244.389921 27.9435436,244.389921 C19.9318351,244.389921 13.4360984,237.884175 13.4360984,229.85901 C13.4360984,221.832945 19.9318351,215.3281 27.9435436,215.3281" id="Fill-117" fill="#DDE6F2" mask="url(#mask-2)"></path>
                <path d="M22.7023298,232.933536 L22.7023298,224.609174 L30.4891166,224.609174 L30.4891166,218.517979 C29.6695022,218.334135 28.8183987,218.233201 27.9439034,218.233201 C21.5345367,218.233201 16.3379473,223.438518 16.3379473,229.85865 C16.3379473,234.38897 18.9272451,238.310982 22.7023298,240.229632 L22.7023298,235.108126 L22.7023298,232.933536 Z" id="Fill-118" fill="#00D1FF" mask="url(#mask-2)"></path>
                <path d="M33.1843975,219.487758 L33.1843975,224.609264 L33.1843975,225.883557 L33.1843975,235.108216 L25.3976107,235.108216 L25.3976107,241.199411 C26.2172251,241.383255 27.0683285,241.483288 27.9437235,241.483288 C34.3530903,241.483288 39.5487799,236.278872 39.5487799,229.85874 C39.5487799,225.327519 36.9594821,221.405507 33.1843975,219.487758" id="Fill-119" fill="#00D1FF" mask="url(#mask-2)"></path>
                <polygon id="Fill-120" fill="#00D1FF" mask="url(#mask-2)" points="25.3981505 232.408048 30.4894765 232.408048 30.4894765 227.308171 25.3981505 227.308171"></polygon>
                <path d="M139.504672,299.333505 C131.026026,299.333505 124.12723,292.423122 124.12723,283.930236 C124.12723,275.43735 131.026026,268.526966 139.504672,268.526966 C147.983318,268.526966 154.881214,275.43735 154.881214,283.930236 C154.881214,292.423122 147.983318,299.333505 139.504672,299.333505" id="Fill-121" fill="#FFFFFF" mask="url(#mask-2)"></path>
                <path d="M139.504672,267.655238 C130.545594,267.655238 123.257233,274.956741 123.257233,283.930867 C123.257233,292.904993 130.545594,300.204693 139.504672,300.204693 C148.46375,300.204693 155.752111,292.904993 155.752111,283.930867 C155.752111,274.956741 148.46375,267.655238 139.504672,267.655238 M139.504672,269.399957 C147.516381,269.399957 154.011218,275.904801 154.011218,283.930867 C154.011218,291.956031 147.516381,298.461777 139.504672,298.461777 C131.492964,298.461777 124.997227,291.956031 124.997227,283.930867 C124.997227,275.904801 131.492964,269.399957 139.504672,269.399957" id="Fill-122" fill="#DDE6F2" mask="url(#mask-2)"></path>
                <path d="M134.263458,287.005393 L134.263458,278.68103 L142.050245,278.68103 L142.050245,272.589836 C141.230631,272.405991 140.379527,272.305057 139.505032,272.305057 C133.095665,272.305057 127.899076,277.510375 127.899076,283.930506 C127.899076,288.460827 130.488374,292.382839 134.263458,294.301488 L134.263458,289.179982 L134.263458,287.005393 Z" id="Fill-123" fill="#00D1FF" mask="url(#mask-2)"></path>
                <path d="M144.745526,273.559614 L144.745526,278.68112 L144.745526,279.955414 L144.745526,289.180072 L136.958739,289.180072 L136.958739,295.271267 C137.778354,295.455111 138.629457,295.555144 139.504852,295.555144 C145.914219,295.555144 151.109908,290.350728 151.109908,283.930596 C151.109908,279.399375 148.520611,275.477363 144.745526,273.559614" id="Fill-124" fill="#00D1FF" mask="url(#mask-2)"></path>
                <polygon id="Fill-125" fill="#00D1FF" mask="url(#mask-2)" points="136.959279 286.479904 142.050605 286.479904 142.050605 281.380027 136.959279 281.380027"></polygon>
            </g>
        </g>
    </g>
</svg>