<?xml version="1.0" encoding="UTF-8"?>
<svg width="341px" height="304px" viewBox="0 0 341 304" version="1.1" xmlns="http://www.w3.org/2000/svg" xmlns:xlink="http://www.w3.org/1999/xlink">
    <!-- Generator: Sketch 47.1 (45422) - http://www.bohemiancoding.com/sketch -->
    <title>index/props_index/overview/illustration_1</title>
    <desc>Created with Sketch.</desc>
    <defs>
        <path d="M5.1498074,39.5896755 C1.93542206,35.458516 0.0212899818,30.2674961 0.0212899818,24.6298137 C0.0212899818,11.1566224 10.954973,0.233953879 24.4417506,0.233953879 C30.0847695,0.233953879 35.2807307,2.14592142 39.4159316,5.35670977 L39.4159316,39.5896755 L5.1498074,39.5896755 L5.1498074,39.5896755 Z" id="path-1"></path>
        <path d="M0.821197176,38.0749317 C5.19943958,42.226014 11.1165496,44.7728173 17.6289565,44.7728173 C31.1165857,44.7728173 42.0502688,33.8501487 42.0502688,20.3761068 C42.0502688,12.2828921 38.1050812,5.10997939 32.0309833,0.672000616 L3.22759665,0.672000616 C2.38263753,1.2893803 1.5788743,1.95968744 0.821197176,2.67803676 L0.821197176,38.0749317 L0.821197176,38.0749317 Z" id="path-3"></path>
        <path d="M5.93837929,39.5896755 C2.71753391,35.458516 0.799509041,30.2674961 0.799509041,24.6298137 C0.799509041,11.1566224 11.755428,0.233953879 25.2685814,0.233953879 C30.9226767,0.233953879 36.1290759,2.14619039 40.2725588,5.35738727 L40.2725588,39.5896755 L5.93837929,39.5896755 L5.93837929,39.5896755 Z" id="path-5"></path>
        <path d="M0.748654464,38.0753954 C5.13561651,42.2262036 11.0642989,44.7728173 17.5891989,44.7728173 C31.1023522,44.7728173 42.0582712,33.8501487 42.0582712,20.3761068 C42.0582712,12.2828921 38.1050603,5.10997939 32.0190226,0.672000616 L3.15937524,0.672000616 C2.31291161,1.28924746 1.50770548,1.959399 0.748654464,2.67757309 L0.748654464,38.0753954 L0.748654464,38.0753954 Z" id="path-7"></path>
    </defs>
    <g id="Page-1" stroke="none" stroke-width="1" fill="none" fill-rule="evenodd">
        <g id="coinlist-website-WIP" transform="translate(-833.000000, -964.000000)">
            <g id="index/props_index/overview/illustration_1" transform="translate(833.000000, 964.000000)">
                <g id="Group-15" transform="translate(62.690808, 0.000000)">
                    <path d="M210.05389,205.223612 C210.05389,207.099799 208.537157,208.620963 206.666435,208.620963 C204.795713,208.620963 203.278979,207.099799 203.278979,205.223612 C203.278979,203.347425 204.795713,201.826261 206.666435,201.826261 C208.537157,201.826261 210.05389,203.347425 210.05389,205.223612" id="Fill-1" fill="#398EFF"></path>
                    <path d="M199.044661,249.813843 C199.044661,253.3318 196.200892,256.183876 192.693182,256.183876 C189.185472,256.183876 186.341704,253.3318 186.341704,249.813843 C186.341704,246.295886 189.185472,243.44381 192.693182,243.44381 C196.200892,243.44381 199.044661,246.295886 199.044661,249.813843" id="Fill-3" fill="#398EFF"></path>
                    <path d="M16.1220845,231.977751 C16.1220845,236.434226 12.5203728,240.046459 8.0768786,240.046459 C3.63338435,240.046459 0.0316727053,236.434226 0.0316727053,231.977751 C0.0316727053,227.521275 3.63338435,223.909042 8.0768786,223.909042 C12.5203728,223.909042 16.1220845,227.521275 16.1220845,231.977751" id="Fill-5" fill="#398EFF"></path>
                    <path d="M103.420529,165.612452 C82.4064512,165.612452 68.0792098,160.499439 61.9877186,150.827181 C57.6551635,143.948395 55.9978511,135.722558 54.9020094,130.279153 C54.33207,127.452557 53.9560625,125.585712 53.3674922,124.611522 C52.7687595,123.618646 51.8033348,122.543385 50.7803234,121.405272 C49.0950644,119.528236 47.1836929,117.400645 46.5519325,115.271355 C45.6567975,112.257904 45.3256738,102.305365 45.1850944,98.0552786 C45.156301,97.1906528 45.1334357,96.5060866 45.1139578,96.0788697 C45.0656866,95.0197455 47.6316838,93.8654955 49.4244945,93.4714028 L50.4195594,93.253123 L50.3966941,92.232219 C50.3899192,91.9366495 49.6921034,62.6463879 49.3821513,54.7263134 C48.9900533,44.6794972 55.5761129,22.9585336 83.3159829,12.6679575 C106.289703,4.14570248 124.36347,2.11493593 131.516082,1.63336142 C129.973943,3.30315944 128.275134,5.68640116 128.054103,8.24460646 C127.893198,10.1055055 128.505481,11.7880435 129.872319,13.2446578 C132.631401,16.1833664 136.498181,18.8647257 140.237085,21.4569045 C143.446699,23.6830187 146.766405,25.984724 149.327321,28.4104326 C154.983524,33.7663565 157.959403,43.4088879 158.331176,50.1025187 C158.638588,55.6291594 158.33287,91.8848399 158.329483,92.2509045 L158.317627,93.6692985 L159.72088,93.4900882 C159.748826,93.4866909 160.054544,93.451868 160.48221,93.451868 C161.65427,93.451868 162.535855,93.70582 162.818707,94.1194475 C163.378484,96.7940121 160.278963,119.093375 159.26188,122.053317 C159.1484,122.119565 159.016289,122.195156 158.871475,122.278391 C155.809216,124.038219 153.975756,125.347049 153.661569,126.831691 L153.631929,126.97438 C152.652955,131.685656 148.843761,147.577615 140.928126,154.297575 C132.486588,161.464287 123.643636,165.612452 103.420529,165.612452" id="Fill-7" fill="#F0F5F9"></path>
                    <path d="M134.84053,0.243759934 C134.84053,0.243759934 113.245504,0.243759934 82.8879779,11.5059785 C52.5296052,22.768197 47.8354393,46.7730298 48.147932,54.7754901 C48.4612716,62.777101 49.1616279,92.2610116 49.1616279,92.2610116 C49.1616279,92.2610116 43.7560964,93.4356457 43.8797386,96.1356904 C44.0042275,98.8365844 44.2515117,111.867974 45.3676782,115.625444 C46.4838447,119.382065 50.8231747,122.78706 52.3111143,125.252687 C53.799054,127.718315 54.389318,141.081795 60.9431968,151.48873 C67.4970756,161.895666 82.6491623,166.851551 103.42019,166.851551 C123.327417,166.851551 132.649694,162.948844 141.725533,155.243652 C150.802219,147.537611 154.557213,128.5702 154.870552,127.088955 C155.183045,125.606861 159.252225,123.531929 160.191397,122.939091 C161.129722,122.347103 164.885563,95.3772318 163.946391,93.5995679 C163.318865,92.4096457 161.570092,92.2125993 160.481872,92.2125993 C159.943266,92.2125993 159.564718,92.2610116 159.564718,92.2610116 C159.564718,92.2610116 159.878058,55.6638974 159.564718,50.0336374 C159.151449,42.581548 155.809724,32.8438907 150.175539,27.5100497 C144.543048,22.1753593 135.779702,17.7290762 130.772197,12.3952351 C125.764691,7.0605447 134.84053,0.243759934 134.84053,0.243759934 M128.765129,3.09923344 C127.778533,4.57623179 126.982481,6.29868874 126.823271,8.13750497 C126.63442,10.3338924 127.37712,12.3935364 128.973458,14.0939106 C131.821461,17.127745 135.74244,19.8473245 139.534696,22.4760248 C142.707048,24.6758096 145.986104,26.9503361 148.479271,29.311495 C153.648528,34.2062285 156.727724,43.5098742 157.098651,50.1712301 C157.403522,55.6588013 157.097804,91.8745629 157.094416,92.2397781 L157.083407,95.0485381 L159.865355,94.7206937 C159.868742,94.7206937 160.122801,94.6909669 160.481872,94.6909669 C161.030639,94.6909669 161.410034,94.7572152 161.639534,94.8226142 C161.786042,98.9427517 159.261541,117.279104 158.214817,121.228525 C154.794334,123.19644 152.863485,124.634369 152.453603,126.575106 L152.422269,126.724589 C148.627472,144.969214 142.054116,151.718051 140.130041,153.352177 C131.907841,160.332035 123.265596,164.373184 103.42019,164.373184 C82.8515628,164.373184 68.8859322,159.460614 63.0324098,150.165462 C58.8218031,143.479475 57.1915903,135.387834 56.1126858,130.033609 C55.496169,126.975144 55.1243958,125.129533 54.4240395,123.970187 C53.7651794,122.87624 52.760799,121.759361 51.6988318,120.576233 C50.099953,118.796871 48.2885114,116.779694 47.7355093,114.917945 C46.886105,112.056526 46.5473595,101.854281 46.419483,98.0135762 C46.3940771,97.2440762 46.3729055,96.6155662 46.3551214,96.182404 C46.748913,95.7025281 48.3300077,94.9839884 49.6841429,94.6824735 L51.6802008,94.2493113 L51.6319296,92.2024073 C51.6243078,91.9068377 50.9273389,62.6072334 50.6173868,54.6778162 C50.4539421,50.5152119 51.8046898,43.0257517 56.1465604,35.6186772 C61.8874499,25.8249636 71.1724644,18.4934801 83.745004,13.8297666 C103.979967,6.32331954 120.379484,3.88826821 128.765129,3.09923344" id="Fill-9" fill="#DDE6F2"></path>
                    <path d="M47.5275196,89.7120641 L161.819408,89.7120641" id="Stroke-11" stroke="#DDE6F2" stroke-width="3.00389996"></path>
                    <path d="M101.09665,90.8379462 C101.09665,104.288908 90.223766,115.193555 76.8111375,115.193555 C63.3993558,115.193555 52.5264718,104.288908 52.5264718,90.8379462 C52.5264718,77.3869843 63.3993558,66.4814876 76.8111375,66.4814876 C90.223766,66.4814876 101.09665,77.3869843 101.09665,90.8379462" id="Fill-13" fill="#DDE6F2"></path>
                </g>
                <g id="Group-22" transform="translate(114.933148, 65.550000)">
                    <g id="Group-18">
                        <mask id="mask-2" fill="white">
                            <use xlink:href="#path-1"></use>
                        </mask>
                        <g id="Clip-17"></g>
                        <polygon id="Fill-16" fill="#FFFFFF" mask="url(#mask-2)" points="-2.85234659 39.5896755 -14.1922425 28.2612032 28.0760357 -13.9653451 39.4159316 -2.63602216"></polygon>
                    </g>
                    <g id="Group-21" transform="translate(6.812794, 4.253707)">
                        <mask id="mask-4" fill="white">
                            <use xlink:href="#path-3"></use>
                        </mask>
                        <g id="Clip-20"></g>
                        <polygon id="Fill-19" fill="#FFFFFF" mask="url(#mask-4)" points="5.97592756 48.0480865 0.821197176 42.898549 43.0894753 0.672000616 48.2442057 5.82238893"></polygon>
                    </g>
                </g>
                <g id="Group-27" transform="translate(114.933148, 65.550000)" fill="#DDE6F2">
                    <path d="M25.1821239,0.234053793 C11.7036458,0.234053793 0.776691236,11.16934 0.776691236,24.6589469 C0.776691236,38.1477021 11.7036458,49.0829883 25.1821239,49.0829883 C38.6614531,49.0829883 49.5884077,38.1477021 49.5884077,24.6589469 C49.5884077,11.16934 38.6614531,0.234053793 25.1821239,0.234053793 M25.1821239,2.92805724 C37.155901,2.92805724 46.8964568,12.67604 46.8964568,24.6589469 C46.8964568,36.6410021 37.155901,46.3898366 25.1821239,46.3898366 C13.2091979,46.3898366 3.46779105,36.6410021 3.46779105,24.6589469 C3.46779105,12.67604 13.2091979,2.92805724 25.1821239,2.92805724" id="Fill-23"></path>
                    <path d="M105.780819,24.6586914 C105.780819,38.1474466 94.853864,49.0827328 81.3745348,49.0827328 C67.8960567,49.0827328 56.9691021,38.1474466 56.9691021,24.6586914 C56.9691021,11.1699362 67.8960567,0.233798276 81.3745348,0.233798276 C94.853864,0.233798276 105.780819,11.1699362 105.780819,24.6586914" id="Fill-25"></path>
                </g>
                <g id="Group-34" transform="translate(170.025070, 65.550000)">
                    <g id="Group-30">
                        <mask id="mask-6" fill="white">
                            <use xlink:href="#path-5"></use>
                        </mask>
                        <g id="Clip-29"></g>
                        <polygon id="Fill-28" fill="#FFFFFF" mask="url(#mask-6)" points="-2.0783822 39.5896755 -13.4413085 28.2612032 28.9096326 -13.9653451 40.2725588 -2.63602216"></polygon>
                    </g>
                    <g id="Group-33" transform="translate(7.679382, 4.253707)">
                        <mask id="mask-8" fill="white">
                            <use xlink:href="#path-7"></use>
                        </mask>
                        <g id="Clip-32"></g>
                        <polygon id="Fill-31" fill="#FFFFFF" mask="url(#mask-8)" points="5.9134658 48.0480865 0.748654464 42.898549 43.0995955 0.672000616 48.2644068 5.82238893"></polygon>
                    </g>
                </g>
                <g id="Group-126" transform="translate(0.000000, 65.550000)">
                    <path d="M195.525074,0.234021643 C182.091201,0.234021643 171.200407,11.1678057 171.200407,24.6555597 C171.200407,38.142462 182.091201,49.0762461 195.525074,49.0762461 C208.959795,49.0762461 219.850589,38.142462 219.850589,24.6555597 C219.850589,11.1678057 208.959795,0.234021643 195.525074,0.234021643 M195.525074,2.92765504 C207.459226,2.92765504 217.168395,12.6742988 217.168395,24.6555597 C217.168395,36.635969 207.459226,46.3834643 195.525074,46.3834643 C183.59177,46.3834643 173.882601,36.635969 173.882601,24.6555597 C173.882601,12.6742988 183.59177,2.92765504 195.525074,2.92765504" id="Fill-35" fill="#DDE6F2"></path>
                    <path d="M166.659424,237.172504 C110.384245,237.172504 64.6020259,191.208712 64.6020259,134.712242 C64.6020259,78.2149213 110.384245,32.2519806 166.659424,32.2519806 C222.934603,32.2519806 268.716822,78.2149213 268.716822,134.712242 C268.716822,191.208712 222.934603,237.172504 166.659424,237.172504" id="Fill-37" fill="#FFFFFF"></path>
                    <path d="M166.659424,30.9742292 C139.058782,30.9742292 113.110548,41.7649433 93.5938119,61.3587204 C74.0770756,80.951646 63.3296378,107.002308 63.3296378,134.711902 C63.3296378,162.421495 74.0770756,188.472157 93.5938119,208.065935 C113.110548,227.659712 139.058782,238.449574 166.659424,238.449574 C194.260066,238.449574 220.2083,227.659712 239.725036,208.065935 C259.241772,188.472157 269.98921,162.421495 269.98921,134.711902 C269.98921,107.002308 259.241772,80.951646 239.725036,61.3587204 C220.2083,41.7649433 194.260066,30.9742292 166.659424,30.9742292 M166.659424,33.5290506 C222.321312,33.5290506 267.444434,78.8302926 267.444434,134.711902 C267.444434,190.594362 222.321312,235.894753 166.659424,235.894753 C110.997536,235.894753 65.8744139,190.594362 65.8744139,134.711902 C65.8744139,78.8302926 110.997536,33.5290506 166.659424,33.5290506" id="Fill-39" fill="#DDE6F2"></path>
                    <path d="M249.708871,166.349363 C249.071829,166.592922 248.63752,167.177976 248.240535,167.734076 C246.351463,170.376613 244.461543,173.01915 242.572471,175.660835 C241.806493,176.732157 241.036274,177.810291 240.45352,178.992322 C239.744376,180.430687 239.322792,182.011269 239.221849,183.612291 C239.187918,184.141991 239.205732,184.722787 239.54758,185.1273 C240.050598,185.725128 241.00913,185.643374 241.708095,185.297621 C242.86512,184.726193 243.679448,183.626768 244.264747,182.473692 C244.850045,181.320616 245.25212,180.078973 245.847598,178.931006 C246.895197,176.911846 248.505192,175.249509 249.771642,173.360644 C250.63008,172.079827 251.348555,170.621024 251.538565,169.071951 C251.67768,167.933352 251.493607,165.666374 249.708871,166.349363" id="Fill-41" fill="#F0F5F9"></path>
                    <path d="M173.233005,57.2733907 C172.434793,57.2750939 171.615375,57.2904228 170.871452,57.5816724 C170.596617,57.6898266 170.32687,57.8422642 170.154674,58.0841207 C169.840818,58.5226983 169.936671,59.1597005 170.252224,59.5974266 C170.567776,60.0351526 171.058069,60.3102217 171.548363,60.5324912 C172.829234,61.1124357 174.277211,61.4266787 175.650542,61.1252098 C177.023873,60.8237408 178.29202,59.8205476 178.64744,58.4554214 C178.694943,58.2731774 178.724632,58.0739014 178.651681,57.9010251 C178.198711,56.8228905 174.155062,57.2716874 173.233005,57.2733907" id="Fill-43" fill="#F0F5F9"></path>
                    <path d="M190.75277,67.4997447 C190.137783,67.1914629 189.381984,67.2825849 188.766997,67.5908667 C188.152857,67.8991485 187.657474,68.4007451 187.206201,68.9202254 C186.268027,70.0017665 185.45794,71.2246744 185.047382,72.5974651 C184.636825,73.9711074 184.657183,75.5108131 185.310343,76.785669 C185.476601,77.1101313 185.686121,77.4192647 185.971984,77.6457922 C186.279902,77.8885002 186.658226,78.021351 187.034852,78.1312083 C188.899325,78.6753852 190.865589,78.7384042 192.807253,78.7579911 C194.097454,78.7716169 195.45382,78.7503267 196.576915,78.1124729 C196.939121,77.9072356 197.280969,77.6236504 197.437049,77.2361692 C197.667775,76.662186 197.431959,75.9843067 197.016313,75.5278452 C196.600666,75.0713838 196.033181,74.7886502 195.480964,74.5135811 C194.928748,74.2393636 194.362959,73.952372 193.952402,73.4899494 C193.150798,72.5855426 193.134681,71.301319 192.64778,70.2427713 C192.424688,69.7573552 192.109136,69.374132 191.888589,68.8810515 C191.640897,68.324952 191.315166,67.7824783 190.75277,67.4997447" id="Fill-45" fill="#F0F5F9"></path>
                    <path d="M224.931234,51.9641311 C224.166105,52.4452891 223.449326,53.004795 222.813981,53.6494616 C221.739237,54.7386672 220.767981,56.104645 219.286921,56.4776489 C217.026311,57.0482257 215.025269,55.0690907 213.267677,53.5327914 C211.040998,51.5851659 207.944854,50.0599375 205.194799,51.1414786 C203.493192,51.8099902 202.28612,53.3556572 201.405627,54.9634914 C200.524287,56.5713257 199.877913,58.3145656 198.835403,59.8219102 C198.226354,60.7050268 197.484127,61.5029827 196.998075,62.4601891 C196.119279,64.1923581 196.207498,66.3809884 197.222015,68.0365127 C198.237381,69.692037 200.143418,70.7573975 202.079993,70.7505847 C203.271797,70.7463266 204.875005,70.6049598 205.240605,71.7435586 C205.344941,72.0688725 205.297438,72.4282507 205.171896,72.7459002 C204.584053,74.2311031 202.679712,74.5666363 201.375938,75.4855204 C199.337573,76.9230332 198.787901,79.8448973 196.783466,81.3301002 C195.947931,81.9500702 194.914752,82.2702745 194.109754,82.93027 C193.796747,83.1866038 193.508339,83.5238402 193.477801,83.9283536 C193.423513,84.6675486 194.220028,85.1929902 194.398162,85.9125982 C194.677239,87.0375713 193.391279,87.913875 192.263943,88.1599895 C190.360451,88.5755738 188.225384,88.3422334 186.620478,89.4518775 C184.386165,90.9958413 184.420095,94.5947331 186.136971,96.7033123 C187.852998,98.8118916 190.685334,99.6660536 193.387886,99.8942843 C194.902876,100.022877 196.463672,99.9837031 197.888747,99.4557066 C199.31467,98.9268586 200.59554,97.8478723 201.080744,96.402695 C201.574431,94.9336727 201.292809,93.0976077 202.413359,92.0305439 C202.829005,91.6345466 203.384615,91.4173868 203.942769,91.2879425 C206.781043,90.6313534 209.643916,92.0450213 212.216685,93.4161088 C214.550244,94.6594552 216.882956,95.9028016 219.216515,97.1461481 C220.47618,97.8163629 221.789284,98.2557922 223.0727,98.8800202 C223.646971,99.1601989 224.281468,99.4471906 224.903242,99.2990109 C225.836326,99.0758898 226.283359,97.9807231 226.315593,97.0175554 C226.347826,96.0543877 226.117948,95.0733363 226.343585,94.1365684 C226.782135,92.3132775 228.817956,91.1457241 229.055468,89.2849625 C229.17168,88.3788525 228.893451,87.2726148 229.590719,86.6850059 C229.906272,86.4184529 230.34058,86.3537307 230.752834,86.3247761 C234.621742,86.0548166 238.550028,88.2945434 240.301682,91.7682489 C240.495933,92.154027 240.665585,92.6173013 240.475575,93.0056341 C240.285565,93.3914122 239.819023,93.5395918 239.397438,93.6179397 C236.544744,94.1433813 233.252652,93.3164707 230.956416,95.0963297 C230.012304,95.8270086 229.370172,97.1350772 229.839259,98.234502 C230.30156,99.3185979 231.601093,99.7520659 232.769145,99.879807 C233.937197,100.007548 235.185834,99.9734838 236.186779,100.591751 C237.919772,101.663072 238.083486,104.091856 237.985936,106.133158 C237.967274,106.51042 237.944371,106.900456 237.778112,107.240248 C237.497339,107.814231 236.869627,108.129325 236.257185,108.303905 C234.581874,108.780805 232.702981,108.475929 231.262637,107.494026 C230.144632,106.731838 229.243782,105.570246 227.93916,105.218532 C225.100886,104.453789 222.480615,107.926643 219.593142,107.373098 C218.609162,107.184041 217.781262,106.547891 216.9101,106.051404 C213.971732,104.374589 210.432797,104.254513 207.052486,104.213636 C204.49753,104.182978 201.9307,104.174462 199.400344,104.538098 C193.674598,105.364157 188.247438,108.154874 184.236023,112.339671 C180.25769,116.489553 177.908013,122.227682 177.33968,127.958146 C176.76965,133.689462 178.485677,139.747795 182.480127,143.881496 C183.104446,144.527866 183.793232,145.134211 184.610953,145.505511 C185.319249,145.827419 186.097102,145.960269 186.869018,146.053095 C191.318983,146.587904 195.914,145.852967 199.978008,143.956438 C202.538053,142.761633 205.176137,141.066935 207.949943,141.594931 C210.041749,141.99178 211.802734,143.769084 212.188692,145.871702 C212.516968,147.660929 211.921491,149.502955 212.089446,151.314324 C212.427901,154.961757 215.780219,158.003698 215.425647,161.649428 C215.209341,163.873826 213.645152,165.703929 212.818948,167.779296 C210.705088,173.091621 213.624794,179.011143 213.556933,184.731388 C213.526396,187.356893 212.857968,189.930449 212.598401,192.54318 C212.538175,193.160595 212.505093,193.810372 212.766356,194.372432 C213.34911,195.623443 215.048172,195.829532 216.401145,195.577456 C220.404926,194.831449 223.575717,191.760553 226.015309,188.486975 C228.454901,185.212546 230.458488,181.561706 233.437573,178.773544 C236.63466,175.781848 240.898856,173.835074 243.232416,170.124622 C246.63563,164.710956 244.834777,157.367547 247.539025,151.568954 C249.776732,146.770999 254.943476,143.375642 255.688247,138.130593 C255.778162,137.494443 255.752714,136.743325 255.249697,136.345625 C254.925662,136.090143 254.486264,136.052672 254.07401,136.042453 C252.514063,136.003279 250.948177,136.205961 249.449304,136.640281 C248.176068,135.742687 247.574652,134.019886 247.097083,132.53298 C245.129122,126.405666 242.794714,120.396726 240.109127,114.550443 C239.963227,114.232794 239.812237,113.897261 239.841926,113.548102 C239.871615,113.199794 240.154085,112.846377 240.501871,112.873629 C240.675764,112.888106 240.830147,112.991151 240.961627,113.106118 C241.300931,113.403328 241.543533,113.793364 241.772563,114.182549 C245.061262,119.79464 246.257306,126.42866 249.398408,132.125911 C249.814055,132.881287 250.412926,133.708198 251.272212,133.71501 C252.002563,133.72012 252.57853,133.120589 253.058645,132.567044 C254.873918,130.472942 256.69004,128.37884 258.506162,126.284738 C259.534252,125.098449 260.59203,123.861064 261.033125,122.352016 C261.512391,120.713524 261.208714,118.965175 261.063662,117.263664 C261.039911,116.982633 261.039063,116.653913 261.256217,116.475075 C261.419931,116.340521 261.652354,116.33967 261.86357,116.346483 C262.397973,116.361812 262.933224,116.377992 263.467627,116.394173 C264.793456,120.071412 266.119284,123.7478 267.445112,127.424188 C265.233702,96.2417413 248.94968,68.9664677 224.931234,51.9641311" id="Fill-47" fill="#F0F5F9"></path>
                    <path d="M166.659424,33.5290506 C132.815598,33.5290506 102.869521,50.2776083 84.5920905,75.968041 C84.3859637,76.8102804 84.2256428,77.665294 84.1094313,78.5177528 C83.7048119,81.4796424 83.6988741,84.4875188 83.223001,87.4383376 C82.4782299,92.0472354 81.662205,97.4924115 77.8526751,100.169013 C76.0713318,101.420875 75.2188318,103.694666 75.1806602,105.876484 C75.1433368,108.058301 75.8092199,110.186468 76.5344811,112.24395 C77.308093,114.435136 78.1572,116.599069 79.0792572,118.731494 C80.6604114,122.384037 81.7309139,126.082567 81.6681428,130.06383 C81.6062199,134.017842 84.3630607,137.850926 88.1208468,139.036363 C89.2507274,139.392335 90.4425308,139.52774 91.5622323,139.917776 C94.4861801,140.934595 96.5533866,143.525184 99.1702647,145.182412 C101.891479,146.906064 105.469434,147.871787 106.807138,150.80898 C107.733436,152.842618 106.852096,155.060203 106.351623,157.240317 C105.821461,159.548172 104.812033,161.718919 104.208073,164.008039 C103.604113,166.297159 103.441247,168.846019 104.549921,170.936715 C105.47622,172.683361 107.179523,173.90712 108.14569,175.631625 C109.323073,177.733391 109.313742,180.409993 110.769354,182.327812 C112.737314,184.920104 116.546844,185.144077 119.182384,187.047419 C121.308969,188.583718 122.516889,191.127468 123.07674,193.697619 C123.635742,196.266918 123.628956,198.920525 123.821511,201.544327 C124.171842,206.326953 125.328867,211.325035 128.632834,214.789373 C130.049426,216.273724 131.79175,217.401252 133.310133,218.779152 C135.051608,220.358884 136.489406,222.257968 138.281777,223.778938 C140.0733,225.30076 142.381411,226.452133 144.703096,226.109787 C144.251822,223.74828 142.044653,222.171955 140.928344,220.045492 C138.979894,216.336743 140.668777,211.7568 142.928538,208.231146 C145.1883,204.704641 148.091889,201.351864 148.738262,197.209647 C148.888404,196.248182 148.920638,195.230512 149.404145,194.386569 C149.710367,193.85176 150.176061,193.428511 150.662961,193.052101 C152.732712,191.448524 155.428479,190.382312 156.571931,188.021657 C157.365901,186.38061 157.225091,184.432985 157.840078,182.716145 C158.412653,181.115123 159.603608,179.815571 160.3382,178.28353 C161.074489,176.751488 161.234809,174.46833 159.946304,173.363795 C159.53914,173.547742 159.131976,173.733393 158.72566,173.918191 C153.905854,168.21583 144.474066,169.207101 138.842476,164.312914 C136.123807,161.950556 134.628327,158.493883 132.332939,155.71594 C129.772046,152.61609 126.177125,150.393396 122.267501,149.490692 C119.704063,148.899677 117.043076,148.864761 114.45419,148.395525 C111.863608,147.92629 109.222979,146.929909 107.572267,144.873278 C106.433056,143.453649 105.848605,141.632061 104.616934,140.292483 C101.569989,136.977177 96.0384935,137.873067 92.1848542,135.55329 C91.2356527,134.981861 90.3746701,134.175389 90.0116154,133.127061 C89.7469587,132.362318 89.7647721,131.532001 89.8012473,130.722974 C89.9632647,127.096831 90.7640209,122.953762 93.9076677,121.158574 C96.1513119,119.878608 98.9149388,120.209032 101.483466,119.950143 C106.287155,119.467282 110.807526,116.66294 113.387081,112.565006 C115.394061,109.376589 116.362772,105.382552 119.303685,103.034671 C121.841675,101.008697 125.370431,100.63399 127.978827,98.7016937 C128.877133,98.0357369 129.65329,97.1926458 130.634725,96.6578365 C132.4008,95.6963721 134.530777,95.8675451 136.538605,95.7977133 C138.546434,95.7270299 140.801954,95.2220269 141.836829,93.4932644 C142.305916,92.7106374 142.452665,91.7747212 142.484051,90.8617983 C142.562091,88.6680583 142.017508,86.4547313 140.931737,84.5496862 C140.139464,83.1598633 139.076596,81.9463231 138.218158,80.5973774 C136.645486,78.1277167 135.96179,75.1232467 135.368008,72.252479 C134.810702,69.5554392 135.544446,66.6190978 137.304583,64.5054088 C137.760098,63.9578254 138.289411,63.4485644 138.560854,62.7894204 C139.154635,61.3476496 138.330128,59.7066026 137.296949,58.5407524 C136.264618,57.3749022 134.97272,56.3751154 134.361125,54.9401574 C133.198163,52.2107565 134.985444,49.0555521 137.291859,47.1999001 C139.520235,45.4072671 142.422976,44.2831456 145.240043,44.7455683 C148.057959,45.207991 150.637513,47.5269172 150.860605,50.3840592 C151.108297,53.5588506 148.647499,56.272071 147.923934,59.371921 C146.855128,63.9441997 150.381339,69.0470297 155.021314,69.6448579 C155.840732,69.7496056 156.713591,69.7232058 157.436307,69.3220988 C158.143755,68.9295079 158.622173,68.2277837 159.025096,67.5243562 C160.538389,64.880116 161.393434,61.7990013 163.487785,59.5899324 C164.984113,58.0119044 166.980066,57.0265949 168.750382,55.7653647 C170.520698,54.5041346 172.174802,52.7608947 172.396198,50.5927029 C172.70666,47.5405429 170.178001,45.0615146 168.628232,42.4172744 C167.073374,39.7645181 166.471959,36.580359 166.878275,33.5316054 C166.805324,33.5316054 166.732374,33.5290506 166.659424,33.5290506" id="Fill-49" fill="#F0F5F9"></path>
                    <path d="M94.1884413,73.3470497 C94.1884413,76.8744065 91.3399886,79.7341032 87.826501,79.7341032 C84.3130134,79.7341032 81.4645607,76.8744065 81.4645607,73.3470497 C81.4645607,69.8196929 84.3130134,66.9599961 87.826501,66.9599961 C91.3399886,66.9599961 94.1884413,69.8196929 94.1884413,73.3470497" id="Fill-51" fill="#398EFF"></path>
                    <path d="M136.601377,99.3210675 C136.601377,105.905694 131.284491,111.243568 124.725755,111.243568 C118.167018,111.243568 112.850133,105.905694 112.850133,99.3210675 C112.850133,92.7364411 118.167018,87.3985675 124.725755,87.3985675 C131.284491,87.3985675 136.601377,92.7364411 136.601377,99.3210675" id="Fill-53" fill-opacity="0.400000006" fill="#398EFF"></path>
                    <path d="M234.999387,131.682139 C234.999387,138.266765 229.682501,143.604639 223.123765,143.604639 C216.565028,143.604639 211.248143,138.266765 211.248143,131.682139 C211.248143,125.097513 216.565028,119.759639 223.123765,119.759639 C229.682501,119.759639 234.999387,125.097513 234.999387,131.682139" id="Fill-55" fill-opacity="0.3" fill="#398EFF"></path>
                    <path d="M151.870033,199.81071 C151.870033,204.514137 148.072379,208.326782 143.387446,208.326782 C138.703362,208.326782 134.904859,204.514137 134.904859,199.81071 C134.904859,195.108136 138.703362,191.294639 143.387446,191.294639 C148.072379,191.294639 151.870033,195.108136 151.870033,199.81071" id="Fill-57" fill-opacity="0.3" fill="#398EFF"></path>
                    <path d="M129.815307,99.3210675 C129.815307,102.143294 127.536884,104.43071 124.725755,104.43071 C121.915474,104.43071 119.636202,102.143294 119.636202,99.3210675 C119.636202,96.4996931 121.915474,94.2114247 124.725755,94.2114247 C127.536884,94.2114247 129.815307,96.4996931 129.815307,99.3210675" id="Fill-59" fill="#398EFF"></path>
                    <path d="M228.213317,131.682139 C228.213317,134.504365 225.934894,136.791782 223.123765,136.791782 C220.313484,136.791782 218.034212,134.504365 218.034212,131.682139 C218.034212,128.860764 220.313484,126.572496 223.123765,126.572496 C225.934894,126.572496 228.213317,128.860764 228.213317,131.682139" id="Fill-61" fill="#398EFF"></path>
                    <path d="M92.4919239,109.540353 C92.4919239,112.362579 90.213501,114.649996 87.4023716,114.649996 C84.5920905,114.649996 82.3128194,112.362579 82.3128194,109.540353 C82.3128194,106.718979 84.5920905,104.43071 87.4023716,104.43071 C90.213501,104.43071 92.4919239,106.718979 92.4919239,109.540353" id="Fill-63" fill="#398EFF"></path>
                    <path d="M124.725755,150.417496 C124.725755,152.298696 123.206523,153.823925 121.33272,153.823925 C119.458916,153.823925 117.939685,152.298696 117.939685,150.417496 C117.939685,148.536296 119.458916,147.011068 121.33272,147.011068 C123.206523,147.011068 124.725755,148.536296 124.725755,150.417496" id="Fill-65" fill="#398EFF"></path>
                    <path d="M143.387446,181.92696 C143.387446,183.808161 141.868215,185.333389 139.994411,185.333389 C138.120608,185.333389 136.601377,183.808161 136.601377,181.92696 C136.601377,180.04576 138.120608,178.520532 139.994411,178.520532 C141.868215,178.520532 143.387446,180.04576 143.387446,181.92696" id="Fill-67" fill="#398EFF"></path>
                    <path d="M146.780481,199.81071 C146.780481,201.691911 145.26125,203.217139 143.387446,203.217139 C141.513643,203.217139 139.994411,201.691911 139.994411,199.81071 C139.994411,197.92951 141.513643,196.404282 143.387446,196.404282 C145.26125,196.404282 146.780481,197.92951 146.780481,199.81071" id="Fill-69" fill="#398EFF"></path>
                    <path d="M195.131227,109.540353 C195.131227,111.421553 193.611996,112.946782 191.738193,112.946782 C189.864389,112.946782 188.345158,111.421553 188.345158,109.540353 C188.345158,107.659153 189.864389,106.133925 191.738193,106.133925 C193.611996,106.133925 195.131227,107.659153 195.131227,109.540353" id="Fill-71" fill="#398EFF"></path>
                    <path d="M133.208342,60.9987461 C133.208342,62.8799463 131.68911,64.4051747 129.815307,64.4051747 C127.941503,64.4051747 126.422272,62.8799463 126.422272,60.9987461 C126.422272,59.1175459 127.941503,57.5923175 129.815307,57.5923175 C131.68911,57.5923175 133.208342,59.1175459 133.208342,60.9987461" id="Fill-73" fill="#FFBC00"></path>
                    <path d="M259.598889,101.024282 C259.598889,102.905482 258.079658,104.43071 256.205854,104.43071 C254.332051,104.43071 252.812819,102.905482 252.812819,101.024282 C252.812819,99.1430816 254.332051,97.6178532 256.205854,97.6178532 C258.079658,97.6178532 259.598889,99.1430816 259.598889,101.024282" id="Fill-75" fill="#FFBC00"></path>
                    <path d="M100.391672,173.484894 C99.3372868,172.781466 97.9826177,172.357366 96.5041027,172.357366 C93.1399087,172.357366 90.4136052,174.547699 90.4136052,177.248997 C90.4136052,179.951147 93.1399087,180.836818 96.5041027,180.836818 C96.5074958,180.836818 96.5117371,180.835966 96.5159784,180.835966 C96.5091923,180.708225 96.4905306,180.584742 96.4905306,180.454446 C96.4905306,177.641588 98.0156998,175.13105 100.391672,173.484894" id="Fill-77" fill="#FFBC00"></path>
                    <path d="M123.528268,177.249338 C123.528268,174.54804 120.801116,172.357706 117.43777,172.357706 C115.965193,172.357706 114.614765,172.777549 113.561228,173.475867 C115.946532,175.121172 117.47679,177.636819 117.47679,180.453936 C117.47679,180.585083 117.458129,180.708566 117.452191,180.836307 C120.80875,180.833752 123.528268,179.947229 123.528268,177.249338" id="Fill-79" fill="#FFBC00"></path>
                    <path d="M111.37306,167.755707 C111.37306,164.947958 109.780878,162.67076 106.984169,162.67076 C104.186612,162.67076 102.594431,164.947958 102.594431,167.755707 C102.594431,170.563455 104.186612,172.840653 106.984169,172.840653 C109.780878,172.840653 111.37306,170.563455 111.37306,167.755707" id="Fill-81" fill="#FFBC00"></path>
                    <path d="M114.77568,180.454106 C114.77568,176.997432 111.286792,174.195645 106.983576,174.195645 C102.680359,174.195645 99.1923194,176.997432 99.1923194,180.454106 C99.1923194,183.910779 102.680359,185.043417 106.983576,185.043417 C111.286792,185.043417 114.77568,183.910779 114.77568,180.454106" id="Fill-83" fill="#FFBC00"></path>
                    <path d="M113.852859,169.779892 C114.371146,170.696221 115.259272,171.298307 116.469738,171.298307 C118.469932,171.298307 119.608295,169.670034 119.608295,167.662796 C119.608295,165.654707 118.469932,164.027285 116.469738,164.027285 C115.238066,164.027285 114.335519,164.647255 113.822322,165.590836 C113.502529,166.179297 113.33118,166.89124 113.33118,167.662796 C113.33118,168.454791 113.515252,169.182915 113.852859,169.779892" id="Fill-85" fill="#FFBC00"></path>
                    <path d="M100.138637,165.620813 C99.6279851,164.659348 98.7178035,164.026604 97.4717114,164.026604 C95.4723657,164.026604 94.3331542,165.654877 94.3331542,167.662115 C94.3331542,169.670205 95.4723657,171.298477 97.4717114,171.298477 C98.6957488,171.298477 99.5932065,170.683617 100.1081,169.750256 C100.434679,169.158389 100.610269,168.441335 100.610269,167.662115 C100.610269,166.905036 100.447403,166.203312 100.138637,165.620813" id="Fill-87" fill="#FFBC00"></path>
                    <path d="M202.182717,70.4404293 C201.128332,69.7370018 199.773662,69.3129015 198.295148,69.3129015 C194.930953,69.3129015 192.20465,71.5032351 192.20465,74.2045329 C192.20465,76.9066824 194.930953,77.7923538 198.295148,77.7923538 C198.298541,77.7923538 198.302782,77.7915022 198.307023,77.7915022 C198.300237,77.6637611 198.281575,77.5402781 198.281575,77.4099822 C198.281575,74.5971238 199.806745,72.0865859 202.182717,70.4404293" id="Fill-89" fill="#398EFF"></path>
                    <path d="M225.319313,74.2048736 C225.319313,71.5035757 222.592161,69.3132421 219.228815,69.3132421 C217.756238,69.3132421 216.40581,69.7330844 215.352273,70.4314023 C217.737576,72.0767073 219.267835,74.5923548 219.267835,77.4094712 C219.267835,77.5406187 219.249173,77.6641018 219.243236,77.7918428 C222.599795,77.789288 225.319313,76.902765 225.319313,74.2048736" id="Fill-91" fill="#398EFF"></path>
                    <path d="M213.164105,64.7112423 C213.164105,61.9034935 211.571923,59.626296 208.775214,59.626296 C205.977657,59.626296 204.385475,61.9034935 204.385475,64.7112423 C204.385475,67.518991 205.977657,69.7961885 208.775214,69.7961885 C211.571923,69.7961885 213.164105,67.518991 213.164105,64.7112423" id="Fill-93" fill="#398EFF"></path>
                    <path d="M216.566725,77.4096416 C216.566725,73.9529682 213.077837,71.1511807 208.77462,71.1511807 C204.471404,71.1511807 200.983364,73.9529682 200.983364,77.4096416 C200.983364,80.8663149 204.471404,81.9989524 208.77462,81.9989524 C213.077837,81.9989524 216.566725,80.8663149 216.566725,77.4096416" id="Fill-95" fill="#398EFF"></path>
                    <path d="M215.643904,66.7354273 C216.16219,67.6517566 217.050317,68.2538428 218.260782,68.2538428 C220.260976,68.2538428 221.39934,66.62557 221.39934,64.6183319 C221.39934,62.6102423 220.260976,60.9828211 218.260782,60.9828211 C217.029111,60.9828211 216.126563,61.6027911 215.613367,62.5463718 C215.293573,63.1348323 215.122225,63.8467759 215.122225,64.6183319 C215.122225,65.4103266 215.306297,66.1384507 215.643904,66.7354273" id="Fill-97" fill="#398EFF"></path>
                    <path d="M201.929682,62.5763483 C201.41903,61.6148839 200.508848,60.9821398 199.262756,60.9821398 C197.26341,60.9821398 196.124199,62.6104126 196.124199,64.6176507 C196.124199,66.6257403 197.26341,68.2540132 199.262756,68.2540132 C200.486794,68.2540132 201.384251,67.6391528 201.899144,66.7057914 C202.225724,66.1139244 202.401313,65.3968712 202.401313,64.6176507 C202.401313,63.8605719 202.238448,63.1588476 201.929682,62.5763483" id="Fill-99" fill="#398EFF"></path>
                    <path d="M202.182717,155.601144 C201.128332,154.897716 199.773662,154.473616 198.295148,154.473616 C194.930953,154.473616 192.20465,156.663949 192.20465,159.365247 C192.20465,162.067397 194.930953,162.953068 198.295148,162.953068 C198.298541,162.953068 198.302782,162.952216 198.307023,162.952216 C198.300237,162.824475 198.281575,162.700992 198.281575,162.570696 C198.281575,159.757838 199.806745,157.2473 202.182717,155.601144" id="Fill-101" fill="#398EFF"></path>
                    <path d="M225.319313,159.365588 C225.319313,156.66429 222.592161,154.473956 219.228815,154.473956 C217.756238,154.473956 216.40581,154.893799 215.352273,155.592117 C217.737576,157.237422 219.267835,159.753069 219.267835,162.570186 C219.267835,162.701333 219.249173,162.824816 219.243236,162.952557 C222.599795,162.950002 225.319313,162.063479 225.319313,159.365588" id="Fill-103" fill="#398EFF"></path>
                    <path d="M213.164105,149.871957 C213.164105,147.064208 211.571923,144.78701 208.775214,144.78701 C205.977657,144.78701 204.385475,147.064208 204.385475,149.871957 C204.385475,152.679705 205.977657,154.956903 208.775214,154.956903 C211.571923,154.956903 213.164105,152.679705 213.164105,149.871957" id="Fill-105" fill="#398EFF"></path>
                    <path d="M216.566725,162.570356 C216.566725,159.113682 213.077837,156.311895 208.77462,156.311895 C204.471404,156.311895 200.983364,159.113682 200.983364,162.570356 C200.983364,166.027029 204.471404,167.159667 208.77462,167.159667 C213.077837,167.159667 216.566725,166.027029 216.566725,162.570356" id="Fill-107" fill="#398EFF"></path>
                    <path d="M215.643904,151.896142 C216.16219,152.812471 217.050317,153.414557 218.260782,153.414557 C220.260976,153.414557 221.39934,151.786284 221.39934,149.779046 C221.39934,147.770957 220.260976,146.143535 218.260782,146.143535 C217.029111,146.143535 216.126563,146.763505 215.613367,147.707086 C215.293573,148.295547 215.122225,149.00749 215.122225,149.779046 C215.122225,150.571041 215.306297,151.299165 215.643904,151.896142" id="Fill-109" fill="#398EFF"></path>
                    <path d="M201.929682,147.737063 C201.41903,146.775598 200.508848,146.142854 199.262756,146.142854 C197.26341,146.142854 196.124199,147.771127 196.124199,149.778365 C196.124199,151.786455 197.26341,153.414727 199.262756,153.414727 C200.486794,153.414727 201.384251,152.799867 201.899144,151.866506 C202.225724,151.274639 202.401313,150.557585 202.401313,149.778365 C202.401313,149.021286 202.238448,148.319562 201.929682,147.737063" id="Fill-111" fill="#398EFF"></path>
                    <path d="M10.4071164,104.478145 L11.9670642,99.4979463 C13.3590567,103.006568 15.1879025,107.985063 14.2276736,110.06043 C14.0834697,110.371266 13.8824323,110.578207 13.5872383,110.713612 L10.4071164,104.478145 Z M13.163109,95.6793399 L17.1227806,83.0355287 C17.3407831,82.338914 17.2245716,81.6090867 16.8029871,81.0316971 C16.3737682,80.4449397 15.6858303,80.0940776 14.9639622,80.0940776 C14.337099,80.0940776 13.7526488,80.3563726 13.317492,80.832421 L11.8627284,82.4257779 C11.3529249,82.9844322 11.1603701,83.7432142 11.3300219,84.4653771 L11.0051388,91.2135121 L10.9907184,91.1837058 L10.7574473,96.3546644 L10.3706413,104.405758 L2.10520846,88.1996744 C0.673347761,85.3919256 1.03300945,81.9999744 3.0204796,79.5584167 L35.0371562,40.2133151 C44.8854398,35.6708426 55.8186463,33.2710137 66.657696,33.2710137 C71.3553527,33.2710137 76.0784572,33.7138494 80.6963776,34.5884499 L84.8095841,35.3676704 L97.1042458,46.6821229 C94.8470294,48.7813346 91.9196886,49.933559 88.8345716,49.933559 C87.0438975,49.933559 85.3117532,49.547781 83.6864896,48.7855926 L78.2737507,46.2478033 C77.9785567,46.1089913 77.6494323,46.0357531 77.3220045,46.0357531 C76.8800617,46.0357531 76.451691,46.1643458 76.0835468,46.4087571 L57.5414597,58.6923385 C56.7508826,59.2160769 56.3708627,60.1886122 56.5956512,61.112606 L62.6191363,85.9224769 C62.7455269,86.4419572 63.0517483,86.9009735 63.4818154,87.2152165 L80.3901562,99.5694813 C82.5235269,101.127922 83.87141,103.535416 84.0902607,106.175398 C84.3031736,108.754916 83.4150468,111.29526 81.6498204,113.173905 L55.0662408,96.7378876 L46.5412408,79.5405329 C46.15189,78.7544996 45.4045741,78.285264 44.5435915,78.285264 C43.8955219,78.285264 43.2779896,78.5577783 42.8479224,79.0329751 C42.4254896,79.4996558 42.2261488,80.1136646 42.2872234,80.7617376 L43.9447209,98.2000971 C44.0024025,98.8013317 44.2891139,99.3446571 44.7531114,99.7278803 L55.7312756,108.814528 C59.7299672,112.125577 61.1796413,117.567347 59.3821811,122.426617 L34.6053925,108.55564 L30.724609,83.6359117 C30.5498677,82.5117903 29.636293,81.7257569 28.5047159,81.7257569 C27.3018851,81.7257569 26.3569249,82.5986542 26.2593751,83.8011235 L25.3169597,95.4008644 C25.2787881,95.8649903 25.3822756,96.3223033 25.616395,96.7242619 L35.3247159,113.416613 C36.4630791,115.371903 36.7565766,117.650804 36.1534647,119.832622 C35.5681662,121.948865 34.213497,123.705731 32.3278179,124.801749 L13.163109,95.6793399 Z" id="Fill-113" fill="#F0F5F9"></path>
                    <g id="Group-117" transform="translate(0.000000, 31.509464)" fill="#DDE6F2">
                        <path d="M66.6568478,0.520076482 C55.601492,0.520076482 44.61739,2.91053773 34.4730642,7.59778345 C34.3331015,7.66250559 34.2092557,7.7587372 34.111706,7.8779622 L2.06279552,47.2630893 C-0.235137313,50.0878702 -0.65078408,54.0095211 1.00501692,57.2558476 L12.5786587,79.9494747 C12.7559448,80.2969304 13.1088204,80.5030193 13.481206,80.5030193 C13.58639,80.5030193 13.6932706,80.4868388 13.7976065,80.4519229 C18.3027085,78.962462 13.6966637,69.1706831 12.0009945,64.7235906 L12.0052358,64.6452427 C11.8941139,64.4136056 11.8737557,64.1470526 11.9517955,63.8992349 L12.0569796,63.5619984 L12.5752657,52.8062002 C12.4378478,52.4459704 12.5150393,52.0389022 12.7746065,51.755317 L14.2293701,50.1619601 C14.4431313,49.9269165 14.7060915,49.8255752 14.9639622,49.8255752 C15.5857358,49.8255752 16.1727308,50.4191454 15.9428527,51.1540824 L12.0569796,63.5619984 L12.0052358,64.6452427 C12.0247458,64.6869715 12.0476488,64.726997 12.0730965,64.7653193 L31.4108502,94.1500238 C31.6042532,94.4446799 31.9265915,94.6064852 32.2574124,94.6064852 C32.4219746,94.6064852 32.5890816,94.5664597 32.7434647,94.481299 C37.4445144,91.8983745 39.0960741,85.9286084 36.3926736,81.2805367 L34.8293328,78.5928645 L33.9081239,78.0767906 C33.6358328,77.9252045 33.4483677,77.6552451 33.4000169,77.3452601 L33.1429945,75.6939938 L26.6835045,64.5881851 C26.5791687,64.4084959 26.5316662,64.2007038 26.5486313,63.9929117 L27.491895,52.3923192 C27.5419423,51.774904 28.0237532,51.4572545 28.5047159,51.4572545 C28.9593826,51.4581061 29.413201,51.7399881 29.5031164,52.3182293 L33.1429945,75.6939938 L34.8293328,78.5928645 L59.004706,92.1274568 C59.1624821,92.2151724 59.3312856,92.2569011 59.4975443,92.2569011 C59.8979224,92.2569011 60.2821836,92.0167479 60.440808,91.6122345 C62.5673925,86.2087872 60.9828453,80.0440031 56.5176114,76.3480281 L45.5394473,67.2613799 C45.3324721,67.0893552 45.2018403,66.8415376 45.1755443,66.5732813 L43.518895,49.1340702 C43.4535791,48.4476749 43.9964647,48.0167617 44.5435915,48.0176133 C44.8905294,48.0176133 45.2400119,48.1913411 45.4342632,48.583932 L53.988104,65.8391959 C54.0720816,66.0086658 54.2027134,66.1517358 54.3638826,66.2522254 L81.1544373,82.8159843 C81.3189995,82.9173256 81.5022234,82.9667188 81.6854473,82.9667188 C81.9509522,82.9667188 82.2130642,82.8628227 82.4090119,82.6626951 C86.8140194,78.1551384 86.2024249,70.7725561 81.1179622,67.0561426 L64.2087731,54.7010261 C64.0145219,54.5596593 63.877104,54.3535704 63.8202706,54.1193784 L57.7967856,29.3086559 C57.6949945,28.8913684 57.8654945,28.4553456 58.2226114,28.2185988 L76.7638502,15.9350174 C76.9326537,15.8234568 77.126905,15.7672508 77.3220045,15.7672508 C77.467905,15.7672508 77.6146537,15.7987602 77.7512234,15.8626308 L83.1631139,18.4004201 C84.9783876,19.2511756 86.9132657,19.6650567 88.8345716,19.6650567 C92.2309995,19.6650567 95.5824697,18.3697622 98.1340318,15.9035079 C98.5556164,15.4964397 98.5479821,14.8177088 98.1162184,14.4208599 L85.5984647,2.89946684 C85.4593502,2.77172577 85.2863055,2.68486184 85.1013851,2.64994595 L80.9254075,1.85965452 C76.1972134,0.963763804 71.4206687,0.520076482 66.6568478,0.520076482 M66.6568478,3.0025113 L66.6568478,3.0025113 C71.2781612,3.0025113 75.9249224,3.43853416 80.4673478,4.29865737 L84.2336164,5.01230416 L95.2185667,15.1217326 C93.3693627,16.4596074 91.1511662,17.1826218 88.8345716,17.1826218 C87.2262731,17.1826218 85.6705667,16.8360177 84.2098652,16.1513256 L78.7979746,13.6135363 C78.3382184,13.3980797 77.8284149,13.2848159 77.3220045,13.2848159 C76.6374597,13.2848159 75.9732731,13.4849436 75.402395,13.8630572 L56.8611562,26.1466386 C55.6354224,26.9582202 55.0458826,28.4647133 55.3936687,29.8971165 L61.418002,54.707839 C61.6131015,55.5109045 62.0872781,56.2219965 62.7531612,56.7082642 L79.6631985,69.0633806 C81.5047682,70.4097715 82.6694274,72.4885445 82.8577408,74.7682968 C83.0146687,76.6614195 82.484507,78.5298456 81.3860119,80.0440031 L56.0154423,64.3573995 L47.6482184,47.4776943 C47.0544373,46.2794831 45.8643303,45.5351784 44.5435915,45.5343268 C43.5485841,45.5343268 42.5968378,45.9550208 41.9334995,46.6882545 C41.2735542,47.4172302 40.961395,48.3701786 41.0564,49.3699654 L42.7138975,66.8083249 C42.8029647,67.7408347 43.2474522,68.5813709 43.9667756,69.1766443 L54.9440915,78.2632926 C58.1547507,80.9203068 59.5348677,85.1051043 58.6399547,89.0804065 L36.6234,76.7550963 L35.5138776,74.8474963 L31.9461015,51.9350061 C31.6797483,50.2198693 30.2326189,48.9756713 28.5047159,48.9748197 C26.6716289,48.9748197 25.1761488,50.3569781 25.0268552,52.1904883 L24.0844398,63.7910808 C24.02591,64.5098372 24.1862308,65.2183743 24.5484373,65.8400476 L30.7721114,76.5413429 L30.9578801,77.7293349 C31.1241388,78.7998051 31.7603328,79.7178376 32.7035965,80.2449824 L33.0344174,80.4306327 L34.2576065,82.5332508 C35.2254697,84.1964395 35.475706,86.1346974 34.9625095,87.9912009 C34.5697657,89.4099784 33.770706,90.6388476 32.6645766,91.552622 L14.5186264,63.9784343 L18.3018602,51.8992386 C18.6394672,50.8202524 18.4562433,49.6867633 17.7988428,48.7883177 C17.1380493,47.8830593 16.0777259,47.3431404 14.9639622,47.3431404 C13.9859199,47.3431404 13.0782831,47.7485054 12.4064622,48.484294 L10.9516985,50.0767993 C10.2043826,50.8951938 9.89731294,51.9903606 10.0873229,53.0531663 L9.60296716,63.1225692 L9.59278806,63.1549302 C9.4070194,63.7467972 9.3824199,64.3684704 9.5139,64.9620406 L9.50626567,65.1238459 L9.69203433,65.6109652 C9.89476816,66.1423681 10.1382184,66.749564 10.4028751,67.4078563 C11.2307756,69.4713004 12.26141,72.0388959 12.8314398,74.3237579 C12.9408652,74.761484 13.0239945,75.1515201 13.0859174,75.4972726 L3.20624826,56.1240617 C1.99832786,53.7557422 2.30115622,50.8943422 3.97731542,48.8334529 L35.8124647,9.71232398 C45.4325667,5.32228916 56.0900891,3.0025113 66.6568478,3.0025113" id="Fill-115"></path>
                    </g>
                    <path d="M329.78602,113.311014 C329.555294,113.216486 329.363587,113.049571 329.211749,112.789831 C328.152274,110.971649 329.408545,106.104715 330.364532,102.798776 L332.210343,107.192217 L329.78602,113.311014 Z M287.549522,128.507944 C285.463654,124.106838 286.351781,118.887338 289.806739,115.42811 L299.38358,105.83731 C299.800075,105.420874 300.029953,104.865626 300.029953,104.274611 L300.038435,87.6188783 C300.039284,86.9784697 299.785654,86.3968221 299.32505,85.9803862 C298.917037,85.6116403 298.384331,85.4081062 297.827025,85.4081062 C296.915995,85.4081062 296.115239,85.9642056 295.785266,86.8243288 L289.261308,103.854768 L265.622883,121.77088 C263.819485,120.164748 262.773582,117.870519 262.744741,115.443438 C262.7159,112.94312 263.76859,110.560323 265.635607,108.904799 L280.534423,95.6844496 C280.922925,95.3404003 281.1791,94.8660551 281.254595,94.3491296 L284.736697,70.3193308 C284.870721,69.3995951 284.410965,68.4875238 283.591547,68.051501 L264.943428,58.0970651 C264.627027,57.9275953 264.26991,57.8381765 263.911097,57.8381765 C263.519201,57.8381765 263.133244,57.9437758 262.795637,58.1430519 L257.899488,61.0334065 C256.131716,62.0766253 254.114557,62.6284667 252.066012,62.6284667 C249.571284,62.6284667 247.119816,61.8024078 245.131498,60.2976179 L255.700801,48.5403297 L259.506938,47.4366469 C265.996965,45.5562983 272.712629,44.6024983 279.466465,44.6024983 C287.56055,44.6024983 295.538423,45.9599601 303.179537,48.6374129 L336.995371,82.9810258 C339.077846,85.0964179 339.715736,88.2490676 338.620634,91.0125328 L332.329948,106.8916 L329.673201,88.3325251 C329.768206,87.6171751 329.512032,86.8992703 328.966602,86.4053381 L327.445674,85.0282894 C327.036813,84.6569887 326.515983,84.4526029 325.979883,84.4526029 C325.246139,84.4526029 324.536995,84.8375294 324.127286,85.4574994 C323.719274,86.0766178 323.653109,86.8302901 323.94491,87.5260531 L328.813915,99.1121683 L313.318774,128.326551 C311.476356,127.46217 310.067398,125.943755 309.337047,124.026787 C308.576159,122.031471 308.649958,119.864983 309.544871,117.925873 L317.241122,101.250554 C317.432828,100.839228 317.491358,100.383618 317.410774,99.9339692 L315.480985,89.0402106 C315.290127,87.9671856 314.401152,87.2177713 313.319622,87.2177713 C312.136301,87.2177713 311.190493,88.1102556 311.118391,89.2922863 L309.678047,113.201157 L287.549522,128.507944 Z" id="Fill-118" fill="#F0F5F9"></path>
                    <path d="M279.467059,43.3611957 C272.637728,43.3611957 265.803308,44.3201054 259.163987,46.2447375 L255.282355,47.3697106 C255.110158,47.4199554 254.954927,47.5170386 254.834474,47.6507409 L244.016631,59.6848014 C243.644246,60.0995341 243.696838,60.7433491 244.131994,61.0908048 C246.439258,62.9319795 249.246146,63.8695989 252.065758,63.8695989 C254.289892,63.8695989 256.521661,63.2862481 258.526096,62.1033657 L263.422246,59.2130111 C263.573236,59.1244439 263.741191,59.0801604 263.910843,59.0801604 C264.066074,59.0801604 264.221305,59.1167795 264.362964,59.1925725 L283.011932,69.1470084 C283.371594,69.33862 283.571783,69.7363206 283.513253,70.1408339 L280.031999,94.1689295 C279.998069,94.395457 279.886947,94.6023975 279.715599,94.7539836 L264.816783,107.974333 C260.335432,111.949635 260.417713,118.993278 264.990676,122.862129 C265.169658,123.013715 265.390206,123.09036 265.611601,123.09036 C265.815183,123.09036 266.019614,123.024786 266.19181,122.89449 L290.068596,104.799541 C290.211952,104.690536 290.322226,104.543208 290.387542,104.374589 L296.939492,87.2709116 C297.102357,86.8442564 297.465412,86.6492384 297.827619,86.6492384 C298.315367,86.6492384 298.802268,87.0026554 298.802268,87.6183673 L298.793785,104.2741 C298.793785,104.531285 298.691994,104.7774 298.510467,104.958792 L288.933626,114.549592 C285.036726,118.451656 284.089221,124.429086 286.585646,129.352227 C286.756994,129.692018 287.097146,129.881075 287.444932,129.881075 C287.632397,129.881075 287.823255,129.826572 287.990362,129.710754 L309.663372,114.719061 L310.99938,111.823597 L312.353201,89.36842 C312.389676,88.7705918 312.854522,88.4597552 313.319367,88.4597552 C313.744345,88.4597552 314.167626,88.7186438 314.263479,89.2577111 L316.194116,100.152321 C316.228895,100.347339 316.203447,100.548319 316.119469,100.728859 L310.99938,111.823597 L310.904375,113.40929 C310.885713,113.706501 310.732178,113.979015 310.488728,114.147633 L309.663372,114.719061 L308.424066,117.404179 C306.280517,122.046289 308.377412,127.548523 313.0598,129.570238 C313.183646,129.62389 313.311733,129.649438 313.43982,129.649438 C313.78591,129.649438 314.118427,129.461233 314.290624,129.135919 L329.965596,99.5783381 C329.985954,99.5408673 330.00292,99.5016934 330.01734,99.4625195 L329.869743,98.4312232 L325.083867,87.0435325 C324.786977,86.335847 325.354462,85.6937352 325.979629,85.6937352 C326.196783,85.6937352 326.420723,85.7703798 326.617519,85.9492173 L328.137599,87.3262661 C328.408193,87.5723806 328.517619,87.9504941 328.420069,88.3030595 L329.869743,98.4312232 L330.00292,98.7471695 C330.098773,98.9762518 330.103014,99.2325856 330.01734,99.4625195 L330.026671,99.5314997 C328.820447,103.894283 325.339193,113.578759 329.736566,114.581953 C329.808668,114.598133 329.879922,114.605798 329.951176,114.605798 C330.337982,114.605798 330.697644,114.370754 330.845241,113.996047 L339.76977,91.4718897 C341.0464,88.2494082 340.302477,84.5747234 337.873912,82.1093207 L304.013969,47.7197211 C303.910482,47.6149734 303.785788,47.5349223 303.647522,47.4863807 C295.829969,44.7399477 287.651907,43.3611957 279.467059,43.3611957 M279.467059,45.8436306 C287.326176,45.8436306 295.074171,47.1457379 302.502372,49.7150366 L336.115472,83.8542638 C337.852706,85.6187938 338.385412,88.2485566 337.471838,90.5547088 L330.188688,108.936649 C330.205653,108.817424 330.224315,108.693941 330.243825,108.5662 C330.589066,106.39375 331.315176,103.93516 331.898778,101.960283 C332.089636,101.313062 332.266074,100.717788 332.410278,100.196605 L332.548544,99.6941566 L332.527338,99.5408673 C332.59944,98.9481488 332.517158,98.3435077 332.281343,97.7822986 L332.272012,97.7610084 L330.919039,88.3090207 C331.003017,87.2538795 330.599246,86.2132156 329.794248,85.4833882 L328.274168,84.1063395 C327.637126,83.5289498 326.82195,83.2113004 325.979629,83.2113004 C324.820907,83.2113004 323.74277,83.7946513 323.098094,84.7705931 C322.464445,85.7277995 322.356716,86.9379332 322.806293,88.0084034 L327.44542,99.0477868 L312.828226,126.611755 C311.77384,125.865747 310.964601,124.82338 310.491273,123.58344 C309.851686,121.904071 309.914457,120.079928 310.666862,118.448249 L311.622002,116.377992 L311.891748,116.19149 C312.767999,115.585998 313.30834,114.626236 313.371959,113.559173 L313.43982,112.441012 L318.363114,101.772078 C318.660852,101.127411 318.752464,100.417171 318.628619,99.71715 L316.69883,88.8225398 C316.401091,87.1474286 315.011644,85.9773204 313.319367,85.9773204 C311.472708,85.9773204 309.99589,87.3705497 309.884768,89.2185372 L308.559788,111.20533 L307.703047,113.059279 L288.129477,126.598981 C287.01741,123.001793 287.951343,119.039264 290.679343,116.307309 L300.257032,106.716509 C300.907646,106.06503 301.266459,105.198094 301.266459,104.275803 L301.274942,87.6200706 C301.274942,86.6228386 300.877109,85.7133222 300.152696,85.0584363 C299.516502,84.4836014 298.691146,84.1668036 297.827619,84.1668036 C296.400848,84.1668036 295.146273,85.0354429 294.63138,86.3792789 L288.233813,103.079295 L265.741385,120.125064 C264.631862,118.825511 264.001606,117.167432 263.981248,115.42845 C263.9558,113.290065 264.857499,111.251317 266.453922,109.834243 L281.353586,96.6138936 C281.961788,96.0739747 282.361318,95.3322248 282.478377,94.5257529 L285.960479,70.4976573 C286.168303,69.0609961 285.450676,67.6371089 284.173198,66.9558232 L265.524231,57.0005357 C265.028848,56.7365375 264.470693,56.5968739 263.910843,56.5968739 C263.2984,56.5968739 262.696136,56.7612341 262.168519,57.0729223 L257.27237,59.963277 C255.695457,60.8949352 253.894604,61.3871641 252.065758,61.3871641 C250.294594,61.3871641 248.548877,60.921335 247.015226,60.0543989 L256.382547,49.6349856 L259.850228,48.6300891 C266.228285,46.78125 272.828586,45.8436306 279.467059,45.8436306" id="Fill-120" fill="#DDE6F2"></path>
                    <path d="M106.135656,63.8346831 C108.932365,63.8346831 110.524547,61.5583372 110.524547,58.7497368 C110.524547,55.9419881 108.932365,53.6656422 106.135656,53.6656422 C103.338947,53.6656422 101.745917,55.9419881 101.745917,58.7497368 C101.745917,61.5583372 103.338947,63.8346831 106.135656,63.8346831" id="Fill-122" fill="#398EFF"></path>
                    <path d="M106.135656,65.1902713 C101.83244,65.1902713 98.3435517,67.9920588 98.3435517,71.4487322 C98.3435517,74.904554 101.83244,76.0371915 106.135656,76.0371915 C110.438873,76.0371915 113.927761,74.904554 113.927761,71.4487322 C113.927761,67.9920588 110.438873,65.1902713 106.135656,65.1902713" id="Fill-124" fill="#398EFF"></path>
                </g>
            </g>
        </g>
    </g>
</svg>