<?xml version="1.0" encoding="UTF-8"?>
<svg width="40px" height="40px" viewBox="0 0 40 40" version="1.1" xmlns="http://www.w3.org/2000/svg" xmlns:xlink="http://www.w3.org/1999/xlink">
    <title>cspr</title>
    <defs>
        <polygon id="path-1" points="0 0 19 0 19 22 0 22"></polygon>
    </defs>
    <g id="mobile" stroke="none" stroke-width="1" fill="none" fill-rule="evenodd">
        <g id="cspr">
            <rect id="Rectangle" fill="#5A1C92" fill-rule="nonzero" x="0" y="0" width="40" height="40" rx="20"></rect>
            <g id="Group-15" transform="translate(10.000000, 9.000000)">
                <mask id="mask-2" fill="white">
                    <use xlink:href="#path-1"></use>
                </mask>
                <g id="Clip-14"></g>
                <path d="M17.9028615,17.0133768 C17.3759099,17.0133768 16.9361393,17.3882828 16.8303387,17.8879717 L12.6876269,17.6862339 C12.699777,17.6079263 12.7079823,17.5281861 12.7079823,17.4463769 C12.7079823,17.2985155 12.686049,17.1559859 12.6475473,17.0206187 L14.1517143,16.1468992 C14.3529011,16.3943165 14.6582316,16.5522847 15.0002491,16.5522847 C15.6061764,16.5522847 16.0973088,16.056734 16.0973088,15.4456317 C16.0973088,14.8344499 15.6061764,14.3389788 15.0002491,14.3389788 C14.3943219,14.3389788 13.9031106,14.8344499 13.9031106,15.4456317 C13.9031106,15.6254051 13.9465038,15.7945943 14.022008,15.944684 L12.5620232,16.7926988 C12.3180744,16.2696927 11.792543,15.9068034 11.1815664,15.9068034 C10.3385544,15.9068034 9.65515051,16.5960542 9.65515051,17.4463769 C9.65515051,17.6282194 9.68797156,17.8018651 9.74532952,17.9638124 L7.0409848,18.6310988 C7.02062943,18.2448923 6.86062677,17.8963277 6.60918275,17.6371325 L7.09692261,16.9551236 C7.20674692,16.9923675 7.32398753,17.0133768 7.44627753,17.0133768 C8.05220475,17.0133768 8.54333717,16.5179057 8.54333717,15.9068034 C8.54333717,15.2956216 8.05220475,14.8001505 7.44627753,14.8001505 C6.8403503,14.8001505 6.34913899,15.2956216 6.34913899,15.9068034 C6.34913899,16.3074141 6.56089793,16.6571724 6.8770373,16.8514296 L6.42819355,17.4790847 C6.17398815,17.2881699 5.85997899,17.1738917 5.51867154,17.1738917 C5.45082032,17.1738917 5.38454703,17.1798602 5.31906271,17.1885346 L4.85183601,14.5034726 C5.53476649,14.3502793 6.04578089,13.7365508 6.04578089,13.001541 C6.04578089,12.1512183 5.36237704,11.4618879 4.51936501,11.4618879 C4.26437063,11.4618879 4.02452444,11.5257915 3.81323888,11.6372844 L2.63665129,9.32505932 C2.88777972,9.19701354 3.09843411,9.00132394 3.24612887,8.76138731 L4.22089851,9.02121918 C4.21348221,9.0734243 4.20827503,9.12626606 4.20827503,9.18054028 C4.20827503,9.79164255 4.69948634,10.2871933 5.30541356,10.2871933 C5.91134079,10.2871933 6.4025521,9.79164255 6.4025521,9.18054028 C6.4025521,8.56935843 5.91134079,8.07388731 5.30541356,8.07388731 C4.83660893,8.07388731 4.43762795,8.37096307 4.28054447,8.78828568 L3.35910905,8.54269881 C3.43421878,8.36061755 3.47611296,8.16102848 3.47611296,7.95149178 C3.47611296,7.82527636 3.45938685,7.70327874 3.43098401,7.58581722 L6.14156157,6.32867664 C6.42148733,6.67644548 6.84823998,6.89919261 7.3269856,6.89919261 C8.16999763,6.89919261 8.85340149,6.20986225 8.85340149,5.35953959 C8.85340149,5.05920101 8.76685173,4.7798718 8.61939366,4.54295925 L10.3567006,2.83387834 C10.5632524,2.96805186 10.8035719,3.05304433 11.0622745,3.0732579 L11.0622745,3.82665094 C10.5125217,3.88665499 10.0844279,4.35602356 10.0844279,4.92645995 C10.0844279,5.5376418 10.5756392,6.03311292 11.1815664,6.03311292 C11.7874936,6.03311292 12.278626,5.5376418 12.278626,4.92645995 C12.278626,4.35602356 11.850611,3.88665499 11.3007794,3.82665094 L11.3007794,3.0732579 C11.5238995,3.05582967 11.7336071,2.99097118 11.9195668,2.88711801 L13.8214524,5.07790254 C13.6266563,5.33646111 13.5096524,5.65788864 13.5096524,6.00764701 C13.5096524,6.85796967 14.1930563,7.54730003 15.0361472,7.54730003 C15.8791592,7.54730003 16.5624842,6.85796967 16.5624842,6.00764701 C16.5624842,5.82476994 16.5292686,5.65008971 16.4712006,5.48742621 L17.0634787,5.15103745 C17.2647444,5.39216779 17.5658933,5.54567948 17.9028615,5.54567948 C18.5087887,5.54567948 19,5.05028794 19,4.43910609 C19,3.82792424 18.5087887,3.33245312 17.9028615,3.33245312 C17.2969342,3.33245312 16.8057229,3.82792424 16.8057229,4.43910609 C16.8057229,4.62373394 16.8511675,4.7974592 16.9304587,4.9504934 L16.3739209,5.26650943 C16.1142716,4.79069481 15.6126459,4.46799398 15.0361472,4.46799398 C14.6264362,4.46799398 14.2552269,4.63169204 13.9810606,4.89669667 L12.1197279,2.75246701 C12.3036363,2.60755006 12.4530668,2.42117143 12.5555537,2.20701904 L14.18564,2.480698 C14.2953065,2.97529373 14.7322368,3.34510649 15.2555591,3.34510649 C15.8614863,3.34510649 16.3526976,2.84963537 16.3526976,2.23845352 C16.3526976,1.62735126 15.8614863,1.13188014 15.2555591,1.13188014 C14.6516832,1.13188014 14.1620498,1.62408844 14.1587362,2.23240537 L12.6443126,1.97806459 C12.6851811,1.83903664 12.7079823,1.69213017 12.7079823,1.53973261 C12.7079823,0.689409943 12.0245784,0 11.1815664,0 C10.3385544,0 9.65515051,0.689409943 9.65515051,1.53973261 C9.65515051,1.99581115 9.85286582,2.40422069 10.165297,2.68617606 L8.47595932,4.34806546 C8.22072826,4.05329755 7.85661965,3.85800585 7.44627753,3.82593471 L7.44627753,2.66731537 C7.99603025,2.6073909 8.42412414,2.13802234 8.42412414,1.56750637 C8.42412414,0.956324517 7.93291283,0.460932978 7.3269856,0.460932978 C6.72105838,0.460932978 6.22992596,0.956324517 6.22992596,1.56750637 C6.22992596,2.13802234 6.65801986,2.6073909 7.20769368,2.66731537 L7.20769368,3.82593471 C6.42061946,3.88753039 5.80056972,4.54980322 5.80056972,5.35953959 C5.80056972,5.63934628 5.87575834,5.90100851 6.00514905,6.12709804 L3.35729442,7.35527115 C3.26096146,7.12416802 3.11042642,6.92179361 2.92162644,6.76430287 L3.95840894,4.88921606 C4.0474045,4.91269244 4.1403449,4.92645995 4.23659897,4.92645995 C4.84252619,4.92645995 5.33373751,4.43106841 5.33373751,3.81980698 C5.33373751,3.20870471 4.84252619,2.71323359 4.23659897,2.71323359 C3.63067174,2.71323359 3.13946043,3.20870471 3.13946043,3.81980698 C3.13946043,4.24787302 3.38080566,4.61840201 3.73323755,4.8024728 L2.72462119,6.62662779 C2.49724069,6.49102182 2.2329365,6.41183875 1.94969708,6.41183875 C1.10668505,6.41183875 0.423281192,7.10116912 0.423281192,7.95149178 C0.423281192,8.80181445 1.10668505,9.49114481 1.94969708,9.49114481 C2.11222443,9.49114481 2.26859784,9.46496267 2.41558253,9.41745283 L3.61086865,11.7663647 C3.31492685,11.9882365 3.10032763,12.3142001 3.02387666,12.6918118 L2.15964139,12.4341287 C2.1814169,12.3471467 2.19427708,12.2565835 2.19427708,12.1627576 C2.19427708,11.5515757 1.70306576,11.0561046 1.09713854,11.0561046 C0.491290211,11.0561046 0,11.5515757 0,12.1627576 C0,12.7739394 0.491290211,13.2693309 1.09713854,13.2693309 C1.52546912,13.2693309 1.89557389,13.0211179 2.0762475,12.660059 L2.99634168,12.9344542 C2.99539492,12.9568165 2.99294912,12.9788604 2.99294912,13.001541 C2.99294912,13.5446015 3.27240149,14.0209732 3.69339468,14.2950501 L3.10269453,15.0766148 C2.90947633,14.9050382 2.65661217,14.8001505 2.37897442,14.8001505 C1.7730472,14.8001505 1.28191478,15.2956216 1.28191478,15.9068034 C1.28191478,16.5179057 1.7730472,17.0133768 2.37897442,17.0133768 C2.98490165,17.0133768 3.47611296,16.5179057 3.47611296,15.9068034 C3.47611296,15.6638427 3.39753178,15.4399019 3.26593196,15.2573432 L3.90586369,14.4107608 C4.09371691,14.4941617 4.30097874,14.541194 4.51936501,14.541194 C4.55179158,14.541194 4.58350808,14.5382495 4.61546128,14.5363396 L5.08552826,17.2377156 C4.45364399,17.4261633 3.99233456,18.0150625 3.99233456,18.7134651 C3.99233456,19.5637878 4.67565951,20.2531181 5.51867154,20.2531181 C6.01169748,20.2531181 6.44878561,20.0163647 6.7278435,19.6506106 L8.93766324,20.6430649 C8.9192014,20.7236804 8.90847144,20.8071608 8.90847144,20.8934266 C8.90847144,21.5046085 9.39960386,22 10.0055311,22 C10.6114583,22 11.1026696,21.5046085 11.1026696,20.8934266 C11.1026696,20.2822448 10.6114583,19.7867736 10.0055311,19.7867736 C9.56954751,19.7867736 9.19415666,20.0438998 9.01719119,20.4154633 L6.86102126,19.4470425 C6.95356717,19.2752272 7.01415989,19.083437 7.03585651,18.8800281 L9.843556,18.1872757 C10.1032053,18.6632495 10.6049099,18.9861095 11.1815664,18.9861095 C11.5384954,18.9861095 11.8659959,18.8615653 12.1258819,18.6545752 L13.1767869,19.5691197 C13.1138273,19.7086251 13.0778504,19.8631714 13.0778504,20.0264715 C13.0778504,20.6376534 13.5690617,21.1331245 14.1749889,21.1331245 C14.7809161,21.1331245 15.2720485,20.6376534 15.2720485,20.0264715 C15.2720485,19.4152897 14.7809161,18.9198186 14.1749889,18.9198186 C13.8177443,18.9198186 13.5012893,19.0928276 13.3009704,19.3595034 L12.3016639,18.4898426 C12.4489642,18.329089 12.5631278,18.1372989 12.6320047,17.9244198 L16.8061174,18.12759 C16.81022,18.7352703 17.2995378,19.2266828 17.9028615,19.2266828 C18.5087887,19.2266828 19,18.7312117 19,18.1200298 C19,17.508848 18.5087887,17.0133768 17.9028615,17.0133768" id="Fill-13" fill="#FFFFFF" mask="url(#mask-2)"></path>
            </g>
        </g>
    </g>
</svg>