<?xml version="1.0" encoding="UTF-8"?>
<svg width="40px" height="40px" viewBox="0 0 40 40" version="1.1" xmlns="http://www.w3.org/2000/svg" xmlns:xlink="http://www.w3.org/1999/xlink">
    <title>icp</title>
    <defs>
        <linearGradient x1="26.1650409%" y1="22.1530073%" x2="92.1269091%" y2="79.5393513%" id="linearGradient-1">
            <stop stop-color="#F15A24" offset="21%"></stop>
            <stop stop-color="#FBB03B" offset="68%"></stop>
        </linearGradient>
        <linearGradient x1="73.7726996%" y1="77.8082433%" x2="7.82168991%" y2="20.4585463%" id="linearGradient-2">
            <stop stop-color="#ED1E79" offset="21%"></stop>
            <stop stop-color="#522785" offset="89%"></stop>
        </linearGradient>
    </defs>
    <g id="Page-1" stroke="none" stroke-width="1" fill="none" fill-rule="evenodd">
        <g id="icp">
            <rect id="Rectangle" fill="#000000" fill-rule="nonzero" x="0" y="0" width="40" height="40" rx="20"></rect>
            <g id="dfinity_logo" transform="translate(4.000000, 12.000000)">
                <path d="M30,8.50281514 C29.9672274,5.98504291 27.8435288,3.96952877 25.2558599,4.0003488 C24.5637799,4.0003488 23.3397483,4.33572313 21.4779176,5.9228095 C20.5912537,6.69832669 19.7631394,7.53496524 19,8.4262336 C20.0231927,9.48253069 21.1196644,10.5863612 21.6217617,11.0062392 C22.5877413,11.78374 23.6544211,12.434519 24.7944732,12.9419037 C24.945608,12.9777034 25.1003378,12.9971864 25.2558599,13 C27.8667654,12.9920778 30,10.9719096 30,8.50281514 Z" id="Path"></path>
                <path d="M21.5647668,11.0633995 C23.109055,12.3667791 24.1458179,12.8021185 24.7944732,12.9419548 C24.945608,12.977723 25.1003378,12.9971889 25.2558599,13 C27.8803356,12.9841695 30,10.965778 30,8.49885504 C29.9672274,5.98329712 27.8435288,3.96955557 25.2558599,4.00034849 C24.5637799,4.00034849 23.3397483,4.33542787 21.4779176,5.92111844 C20.5911558,6.69679901 19.7630391,7.53358587 19,8.42497927 C19.7904426,9.36164223 20.6474662,10.2432773 21.5647668,11.0633995 L21.5647668,11.0633995 Z" id="Path"></path>
                <path d="M25.2209941,0 C23.4393793,0 21.4926521,0.952966102 19.4340747,2.80932203 C18.562629,3.60766049 17.7490805,4.4711434 17,5.39279661 L17,5.39279661 C17,5.39279661 18.0039892,6.51927966 19.1091763,7.72012712 C19.8492327,6.78434324 20.6576385,5.90867881 21.5272724,5.10084746 C23.3514969,3.44830508 24.5552188,3.09576271 25.2343096,3.09576271 C27.7734128,3.06361809 29.8572535,5.16575555 29.8894109,7.79173729 C29.8894109,10.3669492 27.7935501,12.4739407 25.2343096,12.4904661 C25.0816934,12.4877122 24.9298487,12.4673893 24.7815824,12.4298729 C25.5099657,12.7789035 26.2988072,12.9727935 27.1011437,13 C31.8121702,13 32.7309402,9.82711864 32.7895284,9.59300847 C32.9313258,8.99919985 33.0019842,8.38961167 33,7.7779661 C32.9786086,3.48961864 29.4952719,0 25.2209941,0 Z" id="Path" fill="url(#linearGradient-1)" fill-rule="nonzero"></path>
                <path d="M3,8.49852272 C3.0327689,11.0145042 5.1554948,13.0290081 7.74296991,12.9996839 C8.43487913,12.9996839 9.66132215,12.6619649 11.5199803,11.078907 C12.4075493,10.3015227 13.2363679,9.46296985 14,8.56976033 C12.9770597,7.51438843 11.8808584,6.40888636 11.3761717,5.98937603 C10.4109103,5.21191036 9.34440246,4.56164579 8.20424272,4.05540702 C8.05311542,4.02013879 7.89838042,4.0015524 7.74296991,4 C5.11914159,4.0263843 3,6.04742149 3,8.49852272 Z" id="Path"></path>
                <path d="M11.3995532,5.93479213 C9.86145111,4.63174566 8.82884127,4.19651759 8.18278432,4.05671706 C8.03220086,4.02158956 7.87806291,4.00300981 7.72324591,4.00132439 C6.04954719,3.96177469 4.48534512,4.81046233 3.63657648,6.2186248 C2.78780784,7.62678726 2.78780784,9.37321274 3.63657648,10.7813752 C4.48534512,12.1895377 6.04954719,13.0382253 7.72324591,12.9986756 C8.41255353,12.9986756 9.63168191,12.6610441 11.4860546,11.0783966 C12.3695648,10.300487 13.1952157,9.4622037 13.9567493,8.56990027 C13.9736116,8.55338238 13.9881552,8.53475586 14,8.5145076 C13.1972766,7.59524535 12.3282469,6.73314377 11.3995532,5.93479213 L11.3995532,5.93479213 Z" id="Path"></path>
                <path d="M7.76703184,16 C9.55101912,16 11.4947665,15.0503917 13.5530085,13.1924624 C14.4297643,12.3941041 15.2476969,11.529259 16,10.6051239 L16,10.6051239 C16,10.6051239 14.9961743,9.47935634 13.8938299,8.27927165 C13.1480569,9.21440539 12.3344787,10.089474 11.4601518,10.8968876 C9.63356181,12.5483803 8.43269873,12.9006987 7.7537185,12.9006987 C6.5341133,12.9161224 5.35854226,12.4300366 4.48566386,11.5493937 C3.61278546,10.6687509 3.11411559,9.46570309 3.09937557,8.20495448 C3.09937557,5.63137836 5.19223229,3.52572517 7.7537185,3.51196274 C7.906216,3.51372147 8.0580446,3.53310944 8.20637199,3.56976498 C7.47707269,3.22123759 6.68754702,3.02749347 5.88452586,3 C1.19024291,3 0.268959929,6.15985602 0.21304391,6.39381749 C0.0703499031,6.98619449 -0.00119355176,7.59448959 0,8.20495448 C-0.00529483201,12.490578 3.48013703,16 7.76703184,16 Z" id="Path" fill="url(#linearGradient-2)" fill-rule="nonzero"></path>
                <path d="M26.2218842,13.2584872 C23.7884242,13.1992598 21.2386988,11.1911673 20.7195606,10.6806831 C19.3838614,9.391781 16.2825518,5.88608016 16.052725,5.6040447 C13.7814956,2.9670131 10.7072243,0 7.67080693,0 L7.67080693,0 C3.95031686,0.0310239012 0.819264892,2.6370316 0,6.14555279 C0.0567807351,5.91992442 1.27891846,2.60882806 5.77541191,2.71318118 C8.20887199,2.77240863 10.7748204,4.81152504 11.2912548,5.31918888 C12.626954,6.60809096 15.7309675,10.1137918 15.9607943,10.3958273 C18.2293198,13.0328589 21.2900718,16 24.3427123,16 L24.3427123,16 C27.9354203,16.0146085 31.0836768,13.4948517 32,9.87124129 C31.9459231,10.0827679 30.7048585,13.3769421 26.2218842,13.2584872 Z" id="Path" fill="#29ABE2" fill-rule="nonzero"></path>
            </g>
        </g>
    </g>
</svg>