<?xml version="1.0" encoding="UTF-8"?>
<svg width="40px" height="40px" viewBox="0 0 40 40" version="1.1" xmlns="http://www.w3.org/2000/svg" xmlns:xlink="http://www.w3.org/1999/xlink">
    <title>avax</title>
    <g id="mobile" stroke="none" stroke-width="1" fill="none" fill-rule="evenodd">
        <g id="avax" fill-rule="nonzero">
            <rect id="Rectangle-Copy-7" fill="#E84142" x="0" y="0" width="40" height="40" rx="20"></rect>
            <path d="M25.5709974,21.6745562 C26.099743,20.7751479 26.9529461,20.7751479 27.4816917,21.6745562 L30.7743348,27.3668639 C31.3030804,28.2662722 30.8704704,29 29.8129792,29 L23.1796252,29 C22.1341509,29 21.7015409,28.2662722 22.2182696,27.3668639 L25.5709974,21.6745562 Z M19.1627091,9.71161049 C19.7095063,8.7627965 20.5794109,8.7627965 21.126208,9.71161049 L21.8842677,11.0848939 L23.6737858,14.2434457 C24.1087381,15.1423221 24.1087381,16.2034956 23.6737858,17.102372 L17.6714441,27.5518102 C17.1246469,28.4007491 16.2174607,28.937578 15.2108568,29 L10.2275462,29 C9.1339518,29 8.6865723,28.2384519 9.23336947,27.2771536 L19.1627091,9.71161049 Z" id="Shape" fill="#FFFFFF"></path>
        </g>
    </g>
</svg>