<?xml version="1.0" encoding="UTF-8"?>
<svg width="40px" height="40px" viewBox="0 0 40 40" version="1.1" xmlns="http://www.w3.org/2000/svg" xmlns:xlink="http://www.w3.org/1999/xlink">
    <title>axs</title>
    <g id="mobile" stroke="none" stroke-width="1" fill="none" fill-rule="evenodd">
        <g id="axs">
            <rect id="Rectangle-Copy-7" fill="#0055D5" fill-rule="nonzero" x="0" y="0" width="40" height="40" rx="20"></rect>
            <path d="M9.79115341,15.2463456 C9.6556923,18.2594401 9.65935341,24.1098958 11.0542368,26.8740348 C11.6436757,27.9137903 12.4308146,27.5952737 13.8952591,26.5591792 C15.1693258,25.6182736 19.7786648,21.3713846 21.730037,19.507879 C23.6814093,17.6443734 27.6390705,12.2991511 28.4628205,15.9309734 C28.7886594,17.4576568 29.1913816,18.7536901 28.8838483,22.140218 C28.7886594,23.1836347 28.3420038,23.9744347 26.306426,22.5612458 C24.7687593,21.5727458 23.3079759,20.5110235 23.3079759,20.5110235 C23.3079759,20.5110235 23.0260704,20.0057902 22.3597481,20.8258791 C21.8362092,21.481218 21.5726092,21.6423069 22.4110037,22.140218 C23.2530593,22.6381291 27.5109316,25.5743403 29.1437872,26.0319792 C30.4910761,26.4237181 31.2599095,26.4163959 31.3001817,23.7694125 C31.2928595,21.6679346 31.1720428,15.652729 30.4068706,13.0899511 C29.828415,11.4937066 28.9790372,10.7688066 27.1448205,12.5627511 C25.3106038,14.3566956 19.5260481,19.9655179 16.362848,22.5063291 C14.2650313,24.0806069 13.3680591,25.5011181 12.577259,22.8761013 C12.0207701,20.888118 11.2995312,14.70084 13.5767424,15.8797178 C15.0009146,16.5606845 15.7111702,16.5570234 15.1546813,16.9853734 C14.5981924,17.4100623 12.9982868,18.8781679 12.9982868,18.8781679 C12.9982868,18.8781679 12.5040368,19.277229 12.7346868,20.1412513 C12.9653368,20.7453346 12.9653368,21.0455457 14.2064535,19.8776513 C15.4475702,18.7097568 16.362848,17.827429 16.362848,17.827429 C16.362848,17.827429 16.560548,17.5162346 17.1499869,18.091029 C17.7394258,18.6658235 17.8346147,18.8269124 17.8346147,18.8269124 C17.8346147,18.8269124 17.9920425,19.2552624 18.6217536,18.5120568 C19.2551259,17.7688512 19.6615092,17.3148734 18.4643258,16.6192623 C17.2708036,15.916329 11.8962924,12.9325233 11.8962924,12.9325233 C11.8962924,12.9325233 9.92661453,11.3582455 9.79115341,15.2463456 Z" id="SVGID_3_" fill="#FFFFFF"></path>
        </g>
    </g>
</svg>