<?xml version="1.0" encoding="UTF-8"?>
<svg width="40px" height="40px" viewBox="0 0 40 40" version="1.1" xmlns="http://www.w3.org/2000/svg" xmlns:xlink="http://www.w3.org/1999/xlink">
    <title>bal</title>
    <g id="mobile" stroke="none" stroke-width="1" fill="none" fill-rule="evenodd">
        <g id="bal" fill-rule="nonzero">
            <rect id="Rectangle" fill="#1E1E1E" x="0" y="0" width="40" height="40" rx="20"></rect>
            <g id="Group-Copy" transform="translate(8.000000, 11.000000)" fill="#FFFFFF">
                <path d="M12,18 C5.37202073,18 0,16.075 0,13.4958333 C0,12.15 1.46321244,10.9375 3.80518135,10.0833333 C5.63316062,11.2625 8.70051813,11.8666667 12.1782383,11.8666667 C15.573057,11.8666667 18.5740933,11.1291667 20.4186528,10 C22.6279793,10.8458333 24,12.025 24,13.325 C24,15.9083333 18.6279793,18 12,18 Z" id="SVGID-2"></path>
                <path d="M12,11 C7.03052322,11 3,9.47695391 3,7.59719439 C3,6.55511022 4.2423688,5.62124248 6.18997667,5 C7.57995365,5.70941884 9.662869,6.16232465 12,6.16232465 C14.3371279,6.16232465 16.4200432,5.70941884 17.8100202,5 C19.7617283,5.6252505 21,6.55511022 21,7.59719439 C21.0040971,9.47695391 16.9735739,11 12,11 Z" id="SVGID-3"></path>
                <path d="M12,6 C8.13494402,6 5,4.65428571 5,3 C5,1.34571429 8.13494402,0 12,0 C15.865056,0 19,1.34571429 19,3 C19,4.65428571 15.865056,6 12,6 L12,6 Z" id="SVGID-4" stroke="#1E1E1E"></path>
            </g>
        </g>
    </g>
</svg>