<svg width="40" height="40" viewBox="0 0 40 40" fill="none" xmlns="http://www.w3.org/2000/svg">
<path fill-rule="evenodd" clip-rule="evenodd" d="M20 40C31.0457 40 40 31.0457 40 20C40 8.9543 31.0457 0 20 0C8.9543 0 0 8.9543 0 20C0 31.0457 8.9543 40 20 40Z" fill="#FFC741"/>
<path fill-rule="evenodd" clip-rule="evenodd" d="M14.9728 14.9734C15.8701 11.5364 18.9958 9 22.7139 9C27.1321 9 30.7139 12.5817 30.7139 17C30.7139 20.7179 28.1777 23.8434 24.7411 24.7409C23.8438 28.1779 20.7181 30.7143 17 30.7143C12.5817 30.7143 9 27.1326 9 22.7143C9 18.9964 11.5362 15.8709 14.9728 14.9734ZM22.4957 22.4958C22.3838 19.6319 20.0821 17.3302 17.2181 17.2185C17.33 20.0824 19.6318 22.3841 22.4957 22.4958ZM17.6963 14.7442C18.5575 12.8315 20.4802 11.5 22.7139 11.5C25.7514 11.5 28.2139 13.9624 28.2139 17C28.2139 19.2335 26.8825 21.1561 24.9701 22.0174C24.6368 18.1549 21.5589 15.0772 17.6963 14.7442ZM22.0176 24.9701C21.1564 26.8827 19.2337 28.2143 17 28.2143C13.9624 28.2143 11.5 25.7519 11.5 22.7143C11.5 20.4808 12.8314 18.5582 14.7438 17.6969C15.0771 21.5594 18.155 24.6371 22.0176 24.9701Z" fill="white"/>
</svg>
