<?xml version="1.0" encoding="UTF-8"?>
<svg width="40px" height="40px" viewBox="0 0 40 40" version="1.1" xmlns="http://www.w3.org/2000/svg" xmlns:xlink="http://www.w3.org/1999/xlink">
    <title>cfg</title>
    <g id="mobile" stroke="none" stroke-width="1" fill="none" fill-rule="evenodd">
        <g id="cfg" fill-rule="nonzero">
            <rect id="Rectangle" fill="#3862F6" x="0" y="0" width="40" height="40" rx="20"></rect>
            <g id="Group-5" transform="translate(7.000000, 8.000000)" fill="#FBFBFB">
                <path d="M2.92733481,19.2572031 C2.1844345,17.6778445 1.76947448,15.9158466 1.76947448,14.0575977 C1.76947448,7.26426282 7.31504938,1.75721678 14.1558783,1.75721678 C17.9649654,1.75721678 21.3723256,3.46476442 23.6444951,6.15096908 L25,5.02147413 C22.4032741,1.95149472 18.5091207,0 14.1558783,0 C6.33780381,0 0,6.29380203 0,14.0575977 C0,16.1812951 0.474220371,18.1950265 1.32326109,20 L2.92733481,19.2572031 Z" id="Fill-2"></path>
                <path d="M13.6259933,22.2608778 C9.23428109,22.2608778 5.67410163,18.5623668 5.67410163,14.0000135 C5.67410163,9.43766033 9.23428109,5.73912221 13.6259933,5.73912221 C16.0713717,5.73912221 18.2585473,6.88620685 19.717237,8.69025173 L21,7.5720727 C19.234226,5.38822605 16.5861896,4 13.6259933,4 C8.30969637,4 4,8.47715066 4,14.0000135 C4,19.5228493 8.30969637,24 13.6259933,24 L13.6259933,22.2608778 Z" id="Fill-5"></path>
                <path d="M17.4095839,16.5710376 C16.6478623,17.4445655 15.5057102,17.999977 14.2287231,17.999977 C11.9353802,17.999977 10.076241,16.2091385 10.076241,13.9999862 C10.076241,11.7908615 11.9353802,10 14.2287231,10 C15.5057102,10 16.6478623,10.5554345 17.4095839,11.4289623 L19,10.1434504 C17.8574175,8.8331448 16.1442181,8 14.2287231,8 C10.7886944,8 8,10.6862854 8,13.9999862 C8,17.3136869 10.7886944,20 14.2287231,20 C15.9841607,20 17.569383,19.2999173 18.7015208,18.1744448 L17.4095839,16.5710376 Z" id="Fill-7"></path>
            </g>
        </g>
    </g>
</svg>