<?xml version="1.0" encoding="UTF-8"?>
<svg width="72px" height="72px" viewBox="0 0 72 72" version="1.1" xmlns="http://www.w3.org/2000/svg" xmlns:xlink="http://www.w3.org/1999/xlink">
    <!-- Generator: Sketch 59.1 (86144) - https://sketch.com -->
    <title>celo_logo_black</title>
    <desc>Created with Sketch.</desc>
    <g id="Page-1" stroke="none" stroke-width="1" fill="none" fill-rule="evenodd">
        <g id="celo_logo_black" fill-rule="nonzero">
            <path d="M28.125,64.4210526 C39.516,64.4210526 48.75,55.0898526 48.75,43.5789474 C48.75,32.0680421 39.516,22.7368421 28.125,22.7368421 C16.734,22.7368421 7.5,32.0680421 7.5,43.5789474 C7.5,55.0898526 16.734,64.4210526 28.125,64.4210526 Z M28.125,72 C12.5925,72 0,59.2749474 0,43.5789474 C0,27.8829474 12.5925,15.1578947 28.125,15.1578947 C43.6575,15.1578947 56.25,27.8829474 56.25,43.5789474 C56.25,59.2749474 43.6575,72 28.125,72 Z" id="Shape" fill="#FBCC5C"></path>
            <path d="M43.125,49.2631579 C54.516,49.2631579 63.75,39.9319579 63.75,28.4210526 C63.75,16.9101474 54.516,7.57894737 43.125,7.57894737 C31.734,7.57894737 22.5,16.9101474 22.5,28.4210526 C22.5,39.9319579 31.734,49.2631579 43.125,49.2631579 Z M43.125,56.8421053 C27.5925,56.8421053 15,44.1170526 15,28.4210526 C15,12.7250526 27.5925,0 43.125,0 C58.6575,0 71.25,12.7250526 71.25,28.4210526 C71.25,44.1170526 58.6575,56.8421053 43.125,56.8421053 Z" id="Shape" fill="#35D07F"></path>
            <path d="M44.0475,56.8269474 C45.9967183,54.4402972 47.3937356,51.6437811 48.1365,48.6416842 C51.1072158,47.8912057 53.8745712,46.4797574 56.2365,44.5104 C56.1288112,47.9863379 55.3879304,51.4124331 54.051,54.6169263 C50.8795173,55.9686318 47.4885819,56.7178296 44.04825,56.8269474 L44.0475,56.8269474 Z M23.11425,23.3568 C20.1435342,24.1072785 17.3761788,25.5187268 15.01425,27.4880842 C15.1219388,24.0121463 15.8628196,20.5860511 17.19975,17.3815579 C20.371331,16.0303728 23.7622627,15.2816896 27.2025,15.1730526 C25.2538545,17.5594017 23.8571191,20.3553487 23.11425,23.3568 L23.11425,23.3568 Z" id="Shape" fill="#5EA33B"></path>
        </g>
    </g>
</svg>