<svg width="40" height="40" viewBox="0 0 40 40" fill="none" xmlns="http://www.w3.org/2000/svg">
<path d="M0 20C0 8.95431 8.95431 0 20 0C31.0457 0 40 8.95431 40 20C40 31.0457 31.0457 40 20 40C8.95431 40 0 31.0457 0 20Z" fill="#070A0E"/>
<path fill-rule="evenodd" clip-rule="evenodd" d="M11.9228 26.7047C11.3504 26.339 11 25.6896 11 24.9902V21.0856C11 20.622 11.3618 20.2464 11.806 20.2484C11.9477 20.2484 12.0874 20.2883 12.21 20.3623L20.6509 25.4997C21.1449 25.7995 21.4493 26.351 21.4493 26.9485V30.9929C21.4512 31.5484 21.0204 32 20.4882 32C20.3101 32 20.134 31.948 19.9828 31.8521L11.9228 26.7047ZM24.5048 19.2932C24.9987 19.593 25.3012 20.1465 25.3031 20.7419V28.9507C25.3031 29.1925 25.1787 29.4163 24.9757 29.5342L23.1283 30.6192C23.1053 30.6332 23.0804 30.6432 23.0536 30.6512V26.0932C23.0536 25.5037 22.7569 24.9562 22.2706 24.6525L14.8577 20.0246V14.8791C14.8577 14.4155 15.2195 14.0399 15.6637 14.0419C15.8054 14.0419 15.9451 14.0818 16.0676 14.1558L24.5048 19.2932ZM28.1997 13.2306C28.6956 13.5303 29 14.0838 29 14.6813V26.6707C28.9981 26.9165 28.8679 27.1423 28.6611 27.2602L26.9094 28.2473V19.9007C26.9094 19.3112 26.6126 18.7657 26.1302 18.462L18.5526 13.7181V8.83845C18.5526 8.69058 18.5909 8.54471 18.6599 8.41682C18.8839 8.01718 19.3759 7.8813 19.7588 8.11309L28.1997 13.2306Z" fill="#04D394"/>
</svg>
