<?xml version="1.0" encoding="UTF-8"?>
<svg width="40px" height="40px" viewBox="0 0 40 40" version="1.1" xmlns="http://www.w3.org/2000/svg" xmlns:xlink="http://www.w3.org/1999/xlink">
    <title>cqt</title>
    <g id="mobile" stroke="none" stroke-width="1" fill="none" fill-rule="evenodd">
        <g id="cqt" fill-rule="nonzero">
            <rect id="Rectangle" fill="#012761" x="0" y="0" width="40" height="40" rx="20"></rect>
            <g id="Covalent_Wordmark_Three_Color" transform="translate(9.000000, 9.000000)" fill="#FFFFFF">
                <path d="M11,4.8125 L11,0 C4.92196418,0 0,5.05287639 0,10.9997346 C0,16.9468577 4.9222348,22 11,22 L11,17.1875 C7.75585515,17.1875 4.8125,15.125 4.8125,11 C4.8125,6.875 7.75585515,4.8125 11,4.8125 Z" id="Shape"></path>
                <path d="M17,4 C16.7373629,4 16.4772785,3.94827004 16.2346414,3.8477637 C15.9919831,3.74725735 15.7714979,3.59993666 15.5857806,3.41421934 C15.4000633,3.22850202 15.2527426,3.00801676 15.1522363,2.76535851 C15.05173,2.52272135 15,2.26263693 15,2 C15,1.73735628 15.05173,1.47728452 15.1522363,1.23463259 C15.2527426,0.991982773 15.4000633,0.771503845 15.5857806,0.585786524 C15.7714979,0.400069203 15.9919831,0.25275062 16.2346414,0.152240904 C16.4772785,0.0517316094 16.7373629,0 17,0 C17.530443,0 18.039135,0.210713695 18.4142194,0.585786524 C18.7892827,0.960860407 19,1.46956722 19,2 C19,2.53044287 18.7892827,3.03913491 18.4142194,3.41421934 C18.039135,3.78928268 17.530443,4 17,4 Z" id="Path"></path>
                <path d="M17,22 C16.469557,22 15.960865,21.7892827 15.5857806,21.4142194 C15.2107173,21.039135 15,20.530443 15,20 C15,19.4695781 15.2107173,18.960865 15.5857806,18.5857806 C15.960865,18.2107173 16.469557,18 17,18 C17.530443,18 18.039135,18.2107173 18.4142194,18.5857806 C18.7892827,18.960865 19,19.4695781 19,20 C19,20.530443 18.7892827,21.039135 18.4142194,21.4142194 C18.039135,21.7892827 17.530443,22 17,22 Z" id="Path"></path>
                <path d="M11,17 L11,5 C14.3155098,5 17.0734874,7.66666667 16.9985061,10.9995389 C17.0734874,14.3333333 14.3157863,17 11,17 Z" id="Path"></path>
            </g>
        </g>
    </g>
</svg>