<?xml version="1.0" encoding="UTF-8"?>
<svg width="40px" height="40px" viewBox="0 0 40 40" version="1.1" xmlns="http://www.w3.org/2000/svg" xmlns:xlink="http://www.w3.org/1999/xlink">
    <title>cusd</title>
    <g id="Page-1" stroke="none" stroke-width="1" fill="none" fill-rule="evenodd">
        <g id="cusd" transform="translate(-0.000000, 0.000000)" fill-rule="nonzero">
            <rect id="Rectangle" fill="#45CD85" x="0" y="0" width="40" height="40" rx="20"></rect>
            <path d="M19.7528604,31 C23.5652174,31 26.7940503,28.5491991 28,25.1647597 L25.6270023,25.1647597 C24.576659,27.3432494 22.3203661,28.8215103 19.7528604,28.8215103 C16.1350114,28.8215103 13.1784897,25.8649886 13.1784897,22.2471396 C13.1784897,19.6796339 14.6567506,17.423341 16.8352403,16.3729977 L16.8352403,14 C13.4508009,15.2059497 11,18.4347826 11,22.2471396 C11,27.0709382 14.9290618,31 19.7528604,31 Z M23.6538462,23 L25.6538462,23 L25.6538462,22.5172414 L25.5,21.4712644 C27.6538462,21.2298851 29,19.9827586 29,18.1724138 C29,13.908046 22.0769231,15.637931 22.0769231,13.4655172 C22.0769231,12.7011494 22.9230769,12.2183908 24.3846154,12.2183908 C25.5384615,12.2183908 26.7692308,12.5402299 27.9230769,13.0632184 L27.9230769,10.9712644 C27.1153846,10.7298851 26.2307692,10.5689655 25.3076923,10.5287356 L25.4615385,9.48275862 L25.4615385,9 L23.4615385,9 L23.4615385,9.48275862 L23.6153846,10.5287356 C21.3461538,10.7701149 20,11.8965517 20,13.545977 C20,17.9712644 26.9230769,15.9597701 26.9230769,18.3333333 C26.9230769,19.137931 26,19.6609195 24.6538462,19.6609195 C23.2692308,19.6609195 21.8461538,19.2183908 20.1153846,18.3735632 L20.1153846,20.545977 C21.2692308,21.1091954 22.5,21.3908046 23.8076923,21.4712644 L23.6538462,22.5172414 L23.6538462,23 Z" id="Shape" fill="#FFFFFF"></path>
        </g>
    </g>
</svg>