<svg width="40" height="40" viewBox="0 0 40 40" fill="none" xmlns="http://www.w3.org/2000/svg">
<rect width="40" height="40" rx="20" fill="#EDA93C"/>
<path fill-rule="evenodd" clip-rule="evenodd" d="M11 17H12.4004V11H20.4004C24.319 11 27.6528 13.5044 28.8883 17H31V19.5H29.3867C29.3958 19.6655 29.4004 19.8322 29.4004 20C29.4004 20.338 29.3818 20.6717 29.3455 21H31V23.5H28.6945C27.329 26.7319 24.1295 29 20.4004 29H12.4004V23.5H11V21H12.4004V19.5H11V17ZM14.9004 13.5V17H26.1682C25.0842 14.9201 22.9081 13.5 20.4004 13.5H14.9004ZM14.9004 23.5V26.5H20.4004C22.7016 26.5 24.7235 25.3042 25.8786 23.5H14.9004ZM26.8239 21H14.9004V19.5H26.8814C26.894 19.665 26.9004 19.8318 26.9004 20C26.9004 20.3401 26.8743 20.674 26.8239 21Z" fill="white"/>
</svg>
