<?xml version="1.0" encoding="UTF-8"?>
<svg width="40px" height="40px" viewBox="0 0 40 40" version="1.1" xmlns="http://www.w3.org/2000/svg" xmlns:xlink="http://www.w3.org/1999/xlink">
    <title>efi</title>
    <g id="mobile" stroke="none" stroke-width="1" fill="none" fill-rule="evenodd">
        <g id="efi" fill-rule="nonzero">
            <rect id="Rectangle" fill="#5378DF" x="0" y="0" width="40" height="40" rx="20"></rect>
            <g id="Group" transform="translate(9.000000, 13.000000)" fill="#FFFFFF">
                <path d="M19.0194314,0.0828231905 C19.7254145,0.0737680546 20.4288899,0.166597798 21.1070316,0.358300324 C21.2041288,0.377544125 21.2951972,0.418876379 21.3728269,0.478934102 C21.6701603,0.655541416 21.882968,0.940570778 21.9640521,1.27080641 C22.0451362,1.60104205 21.9877944,1.94918677 21.8047441,2.23802665 C21.5574069,2.59812748 21.1882468,2.63773857 20.7987829,2.63773857 L17.5704781,2.63773857 C17.7363525,3.03435445 17.855254,3.44815013 17.9248717,3.8710839 C18.006087,4.33201296 18.0485404,4.81274757 18.1094518,5.29348218 L18.1094518,6.11631257 L20.6603479,6.11631257 C20.852603,6.10912595 21.0450884,6.12240813 21.2343918,6.15592366 C21.6847671,6.23694634 21.9505624,6.4764134 21.972712,6.89593086 L21.972712,8.09506662 C21.9524082,8.51458408 21.6847671,8.75585164 21.2343918,8.83687432 C21.1081944,8.85925604 20.9805767,8.87262 20.8525555,8.87689605 L18.0762274,8.87648542 L18.0762274,9.6939143 C18.0134702,10.1728484 17.9728626,10.653583 17.8916473,11.1127116 C17.8177187,11.5415693 17.6938642,11.9607976 17.5224873,12.3622614 L20.7969371,12.3622614 C21.186401,12.3622614 21.5555611,12.4018725 21.8028983,12.7637739 C21.9861254,13.0531702 22.0435638,13.4018636 21.9625019,13.7326844 C21.8814401,14.0635052 21.6685624,14.3491733 21.3709811,14.5264674 C21.2937437,14.5871688 21.2035552,14.6302336 21.1070316,14.6525027 C20.4259997,14.8457848 19.7194232,14.9398268 19.0102024,14.9315808 C16.0772256,14.992798 13.0759541,15 11.0363447,15 C8.63680424,15 5.41588257,14.9657904 2.98311767,14.9171768 C2.2763216,14.9254259 1.57217925,14.8313767 0.893671645,14.6380987 C0.796829462,14.6181041 0.705930546,14.5768487 0.627876391,14.5174649 C0.330154527,14.3411936 0.117016919,14.0561495 0.0358971642,13.7257687 C-0.0452225903,13.395388 0.0124064903,13.0470843 0.195959102,12.7583723 C0.441450553,12.3982715 0.810610628,12.3586604 1.20007451,12.3586604 L4.43207097,12.3586604 C4.26619651,11.9620445 4.14729505,11.5482489 4.0776773,11.1253151 C3.99461628,10.664386 3.95400867,10.1836514 3.89309726,9.70291682 L3.89309726,8.87288441 L1.34220114,8.87288441 C1.14994506,8.88012851 0.957453306,8.86684589 0.76815722,8.83327332 C0.317781927,8.75405113 0.0519866726,8.51458408 0.029837068,8.09326611 L0.029837068,6.89593086 C0.0501408722,6.47461289 0.315936127,6.23514584 0.76815722,6.15412315 C0.962316905,6.1196824 1.15979915,6.10639716 1.35696754,6.11451206 L3.94108807,6.11451206 L3.94108807,5.28988117 C4.00199948,4.80914656 4.04260709,4.33021246 4.12566811,3.8692834 C4.19784684,3.4406214 4.32176137,3.02179421 4.49482819,2.62153403 L1.20561191,2.62153403 C0.81614803,2.62153403 0.445142153,2.58012243 0.199650703,2.22002161 C0.0157606884,1.93097171 -0.04224935,1.58228098 0.0384955835,1.25133932 C0.119240517,0.920397654 0.332060801,0.634582198 0.629722191,0.457328052 C0.708245878,0.397586764 0.799830789,0.356306722 0.897363246,0.336694274 C1.57832923,0.147084299 2.28428345,0.0566826535 2.99234668,0.0684191574 C5.56031645,0.0148541592 8.1791611,0.00264449046 10.1601267,0.000429026377 L10.9680501,0 C13.3675906,0 16.5885123,0.0324090745 19.0194314,0.0828231905 Z M14.5581319,8.87648542 L7.59023542,8.87648542 C7.11771052,8.87648542 7.11771052,8.87648542 7.15831813,9.33741448 C7.1723112,9.76163751 7.22731378,10.1836258 7.32259437,10.5977674 C7.48352084,11.3226631 8.05858048,11.8920249 8.79923467,12.0597767 C9.46260131,12.229748 10.1439577,12.3240054 10.8296151,12.3406554 C11.6190229,12.3400022 12.4052599,12.2432271 13.17009,12.0525747 C13.9097252,11.8853896 14.4845401,11.3176719 14.6467303,10.5941664 C14.7421195,10.1800434 14.7971233,9.75804501 14.8110065,9.33381347 C14.8423851,8.94490457 14.8442309,8.89088945 14.5581319,8.87648542 Z M11.172934,2.64674109 C10.3871383,2.64861834 9.60464402,2.74599549 8.84353388,2.93662225 C8.10389867,3.10380737 7.52908377,3.67152508 7.36689357,4.39503061 C7.27320475,4.80944297 7.21822101,5.23128681 7.20261734,5.65538351 C7.16939293,6.0442924 7.16570133,6.10370904 7.45180039,6.11271156 L14.4215426,6.11271156 C14.8940675,6.11271156 14.8940675,6.11271156 14.8534599,5.6517825 C14.8348325,5.22681566 14.7767599,4.80437001 14.6799547,4.3896291 C14.5171902,3.66534166 13.9431032,3.09624286 13.2033144,2.92581923 C12.5399435,2.75611942 11.8585479,2.6624608 11.172934,2.64674109 Z" id="Combined-Shape"></path>
            </g>
        </g>
    </g>
</svg>