<?xml version="1.0" encoding="UTF-8"?>
<svg width="32px" height="32px" viewBox="0 0 32 32" version="1.1" xmlns="http://www.w3.org/2000/svg" xmlns:xlink="http://www.w3.org/1999/xlink">
    <title>fil</title>
    <defs>
        <filter x="-13.3%" y="-13.3%" width="126.7%" height="126.7%" filterUnits="objectBoundingBox" id="filter-1">
            <feOffset dx="0" dy="1" in="SourceAlpha" result="shadowOffsetOuter1"></feOffset>
            <feGaussianBlur stdDeviation="0.5" in="shadowOffsetOuter1" result="shadowBlurOuter1"></feGaussianBlur>
            <feColorMatrix values="0 0 0 0 0   0 0 0 0 0   0 0 0 0 0  0 0 0 0.246585446 0" type="matrix" in="shadowBlurOuter1" result="shadowMatrixOuter1"></feColorMatrix>
            <feMerge>
                <feMergeNode in="shadowMatrixOuter1"></feMergeNode>
                <feMergeNode in="SourceGraphic"></feMergeNode>
            </feMerge>
        </filter>
        <linearGradient x1="50%" y1="0%" x2="50%" y2="100%" id="linearGradient-2">
            <stop stop-color="#FFFFFF" stop-opacity="0.5" offset="0%"></stop>
            <stop stop-color="#000000" stop-opacity="0.5" offset="100%"></stop>
        </linearGradient>
    </defs>
    <g id="fil" stroke="none" stroke-width="1" fill="none" fill-rule="evenodd">
        <g id="dai" filter="url(#filter-1)" transform="translate(1.000000, 0.000000)">
            <g id="Group">
                <g id="b-link" fill-rule="nonzero">
                    <circle id="b" cx="15" cy="15" r="15"></circle>
                </g>
                <g id="b-link" fill="#000" fill-rule="nonzero">
                    <circle id="b" cx="15" cy="15" r="15"></circle>
                </g>
                <g id="b-link" style="mix-blend-mode: soft-light;" fill="url(#linearGradient-2)" fill-rule="nonzero">
                    <circle id="b" cx="15" cy="15" r="15"></circle>
                </g>
                <circle id="Oval" stroke-opacity="0.097" stroke="#000000" cx="15" cy="15" r="14.5"></circle>
            </g>
        </g>
        <path d="M15.1045096,12.2721267 C15.4457474,10.7757996 15.8567004,9.43073275 16.2933379,8.55284924 C16.4538664,8.13353302 17.1051535,7.12928024 17.8197347,6.46584156 C19.0094803,5.36011043 20.3441603,5.07960894 21.7338785,5.99004211 L21.6118768,6.19204147 L21.7338785,5.99004211 C22.4429559,6.45435345 22.7273207,6.93206759 22.6025671,7.38201879 C22.5108365,7.71708883 22.1595084,7.98514486 21.9714607,7.95738192 C21.696269,7.98610221 21.4192426,7.92866163 21.1550586,7.72570492 C20.9326452,7.54692735 20.7610853,7.30830712 20.6587961,7.03546063 C20.4643273,6.55678915 20.2093163,6.39404084 19.896515,6.43233456 C19.6699405,6.45914016 19.4066737,6.61040035 19.3231989,6.71187871 L19.1076321,6.96078788 C18.9400728,7.14701407 18.791299,7.35072219 18.6636561,7.56870067 C18.2270185,8.32787365 17.8243213,9.71889299 17.2656821,12.6014527 L20.9679282,13.1672424 L20.7642863,14.715266 L17.0070018,14.1408602 L16.8464733,15.1594731 L16.8051945,15.4141263 C16.7831792,15.5462397 16.7593293,15.6898411 16.7318101,15.843016 L20.5257868,16.4231658 L20.3083853,17.9692747 L16.42543,17.3757221 C15.9768674,19.3650808 15.3861225,21.4970836 14.9687484,22.3385881 C14.8073026,22.7588616 14.1569328,23.7611997 13.4423516,24.4255957 C12.252606,25.5303695 10.917926,25.8118284 9.52820778,24.9013952 C8.81913041,24.4370838 8.53476562,23.9584124 8.65951921,23.5084612 C8.75124979,23.1733911 9.1025779,22.9062924 9.29062559,22.9340554 C9.56581732,22.9053351 9.84284367,22.9627757 10.1070277,23.164775 C10.3106696,23.3217793 10.4794539,23.5496269 10.6032902,23.8559767 C10.797759,24.3336908 11.05277,24.4973965 11.3655713,24.4591027 C11.5921458,24.4313398 11.8554126,24.2800796 11.9388874,24.1786012 C12.7708837,23.2116848 13.4304266,21.3486954 14.2642575,17.0463961 L10.5620114,16.4796491 L10.7656533,14.9316255 L14.5229378,15.5060313 L14.6843836,14.4883757 C14.7200594,14.2597525 14.7582831,14.0315703 14.7990468,13.8038755 L11.019747,13.2265976 L11.2362311,11.6804887 L15.1045096,12.2721267 Z" id="Path" fill="#FFFFFF" fill-rule="nonzero"></path>
    </g>
</svg>
