<?xml version="1.0" encoding="UTF-8"?>
<svg width="40px" height="40px" viewBox="0 0 40 40" version="1.1" xmlns="http://www.w3.org/2000/svg" xmlns:xlink="http://www.w3.org/1999/xlink">
    <title>enj</title>
    <g id="mobile" stroke="none" stroke-width="1" fill="none" fill-rule="evenodd">
        <g id="enj" fill-rule="nonzero">
            <rect id="Rectangle-Copy-7" fill="#7866D5" x="0" y="0" width="40" height="40" rx="20"></rect>
            <g id="Group" transform="translate(10.000000, 12.000000)" fill="#FFFFFF">
                <path d="M16.1623355,0.0209132102 C16.6795303,0.0836528407 17.2182748,0.125479261 17.7354695,0.209132102 C18.7483092,0.397350993 19.0931057,0.899268038 18.9207074,1.90310213 C18.8776079,2.27953991 18.575911,2.57232485 18.1880149,2.63506448 C17.9509673,2.6768909 17.6923699,2.69780411 17.4553224,2.6768909 C14.0935566,2.6768909 10.7533406,2.69780411 7.39157478,2.69780411 C6.89592982,2.69780411 6.37873509,2.73963053 5.88309013,2.82328337 C4.22375702,3.0742419 3.57726359,3.74346462 3.44796491,5.37469502 C3.38331557,6.12757058 3.38331557,6.12757058 4.18065745,6.12757058 L17.5415215,6.12757058 C17.6708202,6.12757058 17.8001189,6.12757058 17.9294175,6.12757058 C18.1449153,6.12757058 18.3388634,6.19031021 18.5328114,6.29487626 C19.1362053,6.67131405 18.9853568,7.27779714 18.963807,7.82154061 C18.9422572,8.26071802 18.6621101,8.51167654 18.1880149,8.59532938 C17.9940669,8.6371558 17.8001189,8.6371558 17.584621,8.6371558 C13.0160675,8.6371558 8.44751403,8.6371558 3.87896052,8.6371558 C3.38331557,8.6371558 3.38331557,8.6371558 3.42641513,9.11815964 C3.44796491,9.55733705 3.49106447,9.99651446 3.59881338,10.4356919 C3.81431118,11.2303939 4.30995614,11.7323109 5.15039759,11.9623562 C6.05548837,12.2133147 7.00367873,12.2551412 7.93031929,12.2760544 C11.1843362,12.2760544 14.4599028,12.2760544 17.7354695,12.2760544 C18.1449153,12.2760544 18.5328114,12.3178808 18.7914088,12.6943186 C19.2008546,13.3217149 18.9853568,14.1373301 18.3388634,14.5346811 C18.2526642,14.5974207 18.1664651,14.6392471 18.0587162,14.6601603 C17.3475735,14.8902056 16.6148809,14.9320321 15.8606386,14.9529453 C12.77902,15.0156849 9.71895109,15.0156849 6.65888223,14.9529453 C5.71069188,14.9320321 4.76250153,14.827466 3.83586096,14.6392471 C1.65933311,14.2000697 0.560294298,13.1125828 0.193948026,10.9794353 C0.107748903,10.4984315 0.0646493421,9.99651446 0,9.49459742 L0,5.60474033 C0.0430995614,5.22830254 0.0861991228,4.83095155 0.129298684,4.45451377 C0.409445833,2.0494946 1.53003443,0.857441617 3.96515965,0.313698153 C4.82715088,0.125479261 5.73224166,0.0836528407 6.59423289,0 L16.1623355,0.0209132102 Z" id="Path"></path>
            </g>
        </g>
    </g>
</svg>