<?xml version="1.0" encoding="UTF-8"?>
<svg width="40px" height="40px" viewBox="0 0 40 40" version="1.1" xmlns="http://www.w3.org/2000/svg" xmlns:xlink="http://www.w3.org/1999/xlink">
    <title>fil</title>
    <g id="Page-1" stroke="none" stroke-width="1" fill="none" fill-rule="evenodd">
        <g id="fil" fill-rule="nonzero">
            <path d="M20,40 C31.0457,40 40,31.0457 40,20 C40,8.9543 31.0457,0 20,0 C8.9543,0 0,8.9543 0,20 C0,31.0457 8.9543,40 20,40 Z" id="Path" fill="#0290FF"></path>
            <path d="M19.9151,16.135 C20.3801,14.1813 20.9401,12.425 21.5351,11.2788 C21.7538,10.7313 22.6413,9.42002 23.6151,8.55377 C25.2363,7.11002 27.0551,6.74378 28.9488,7.93252 L28.7826,8.19627 L28.9488,7.93252 C29.9151,8.53877 30.3026,9.16253 30.1326,9.75003 C30.0076,10.1875 29.5288,10.5375 29.2726,10.5013 C28.8976,10.5388 28.5201,10.4638 28.1601,10.1988 C27.857,9.96535 27.6232,9.65378 27.4838,9.29752 C27.2188,8.67252 26.8713,8.46002 26.4451,8.51002 C26.1363,8.54502 25.7776,8.74252 25.6638,8.87502 L25.3701,9.20002 C25.1417,9.44318 24.939,9.70916 24.7651,9.99377 C24.1701,10.985 23.6213,12.8013 22.8601,16.565 L27.9051,17.3038 L27.6276,19.325 L22.5076,18.575 L22.2888,19.905 L22.2326,20.2375 C22.2026,20.41 22.1701,20.5975 22.1326,20.7975 L27.3026,21.555 L27.0063,23.5738 L21.7151,22.7988 C21.1038,25.3963 20.2988,28.18 19.7301,29.2788 C19.5101,29.8275 18.6238,31.1363 17.6501,32.0038 C16.0288,33.4463 14.2101,33.8138 12.3163,32.625 C11.3501,32.0188 10.9626,31.3938 11.1326,30.8063 C11.2576,30.3688 11.7363,30.02 11.9926,30.0563 C12.3676,30.0188 12.7451,30.0938 13.1051,30.3575 C13.3826,30.5625 13.6126,30.86 13.7813,31.26 C14.0463,31.8838 14.3938,32.0975 14.8201,32.0475 C15.1288,32.0113 15.4876,31.8138 15.6013,31.6813 C16.7351,30.4188 17.6338,27.9863 18.7701,22.3688 L13.7251,21.6288 L14.0026,19.6075 L19.1226,20.3575 L19.3426,19.0288 C19.3912,18.7303 19.4433,18.4323 19.4988,18.135 L14.3488,17.3813 L14.6438,15.3625 L19.9151,16.135 Z" id="Path" fill="#FFFFFF"></path>
        </g>
    </g>
</svg>