<?xml version="1.0" encoding="UTF-8"?>
<svg width="40px" height="40px" viewBox="0 0 40 40" version="1.1" xmlns="http://www.w3.org/2000/svg" xmlns:xlink="http://www.w3.org/1999/xlink">
    <title>flow</title>
    <g id="Page-1" stroke="none" stroke-width="1" fill="none" fill-rule="evenodd">
        <g id="flow">
            <circle id="Oval" fill="#00EF8B" fill-rule="nonzero" cx="20" cy="20" r="20"></circle>
            <g id="Group" transform="translate(8.650000, 8.350000)" fill-rule="nonzero">
                <rect id="Rectangle" fill="#FFFFFF" x="14.35" y="8.65" width="5" height="5"></rect>
                <path d="M9.26138588,15.65 C9.26138588,16.7056293 8.40562928,17.5613859 7.35,17.5613859 C6.29437072,17.5613859 5.43861412,16.7056293 5.43861412,15.65 C5.43861412,14.5943707 6.29437072,13.7386141 7.35,13.7386141 L9.26138588,13.7386141 L9.26138588,8.65 L7.35,8.65 C3.48400675,8.65 0.35,11.7840067 0.35,15.65 C0.35,19.5159933 3.48400675,22.65 7.35,22.65 C11.2159933,22.65 14.35,19.5159933 14.35,15.65 L14.35,13.7386141 L9.26138588,13.7386141 L9.26138588,15.65 Z" id="Path" fill="#FFFFFF"></path>
                <path d="M16.5001842,5.98333333 L22.35,5.98333333 L22.35,0.65 L16.5001842,0.65 C12.5529298,0.654163928 9.35406098,3.93412563 9.35,7.98144476 L9.35,8.65 L14.5477897,8.65 L14.5477897,7.98144476 C14.5498215,6.87730757 15.4233435,5.98333137 16.5001842,5.98333333 Z" id="Path" fill="#FFFFFF"></path>
                <polygon id="Path" fill="#16FF99" points="9.35 13.65 14.35 13.65 14.35 13.65 14.35 8.65 14.35 8.65 9.35 8.65"></polygon>
            </g>
            <g id="Path-2" transform="translate(17.298500, 16.763000)"></g>
        </g>
    </g>
</svg>