<?xml version="1.0" encoding="UTF-8"?>
<svg width="40px" height="40px" viewBox="0 0 40 40" version="1.1" xmlns="http://www.w3.org/2000/svg" xmlns:xlink="http://www.w3.org/1999/xlink">
    <title>hmt</title>
    <g id="mobile" stroke="none" stroke-width="1" fill="none" fill-rule="evenodd">
        <g id="hmt" fill-rule="nonzero">
            <rect id="Rectangle" fill="#680744" x="0" y="0" width="40" height="40" rx="20"></rect>
            <path d="M24.7529445,10.4959837 C24.320644,10.3482656 23.8907722,10.1961097 23.4633291,10.0395158 C22.9308466,9.84424905 22.420222,10.3977163 22.4408656,11.1477183 C22.4888315,12.545017 22.5367974,13.9429497 22.5847634,15.3402484 C22.6011568,15.80369 22.3856137,16.2265567 22.0431735,16.3990001 C21.3716506,16.7381811 20.6898059,17.0678523 20.0000681,17.3873798 C19.3103303,17.0678523 18.6290928,16.7381811 17.9569627,16.3990001 C17.6133081,16.2265567 17.4014081,15.803056 17.41598,15.3402484 C17.4639459,13.9429497 17.5113047,12.545017 17.5592706,11.1477183 C17.5835571,10.3977163 17.0723254,9.84361507 16.5368071,10.0401498 C16.1099712,10.1961097 15.6813137,10.3482656 15.2471917,10.4959837 C14.8944297,10.6164404 14.6309207,11.0240916 14.5932766,11.5084546 C14.4694152,13.1599806 14.3443395,14.8108725 14.219871,16.4623984 C14.1846555,16.9239381 14.386841,17.3569486 14.7268526,17.5452415 C15.4797354,17.9592325 15.4159832,19.3178582 14.5859906,19.6215361 C14.2150137,19.7565745 13.9405757,20.149644 13.9071818,20.6118177 C13.7165324,23.1344364 13.5264902,25.6564211 13.336448,28.1790398 C13.3018397,28.6627689 13.5580627,29.1160668 13.9842915,29.2923141 C14.5046307,29.5104043 15.0286129,29.7227886 15.556238,29.930735 C16.2210821,30.1919361 16.9278205,29.6828477 16.9508927,28.9328457 C17.0286096,26.6619183 17.1069337,24.3909909 17.1840435,22.1200635 C17.2016512,21.6566218 17.4590886,21.2521406 17.8312799,21.1006187 C18.5623048,20.8020126 19.2854366,20.4932629 20.0000681,20.1731014 C20.7146996,20.4932629 21.4372242,20.8020126 22.1688563,21.1006187 C22.5398333,21.2527746 22.7990921,21.6566218 22.8166999,22.1200635 C22.8938096,24.3909909 22.9715265,26.6619183 23.0492435,28.9328457 C23.0741372,29.6828477 23.7778398,30.1919361 24.4445053,29.930735 C24.9715233,29.7227886 25.4961126,29.5104043 26.0158447,29.2923141 C26.4390377,29.1160668 26.7007251,28.6627689 26.663081,28.1790398 C26.4730388,25.6570551 26.2836038,23.1344364 26.0929544,20.6118177 C26.0559175,20.149644 25.7887655,19.7565745 25.4135384,19.6215361 C24.5871888,19.3178582 24.5185793,17.9592325 25.2732836,17.5452415 C25.6169382,17.3569486 25.813052,16.9239381 25.779658,16.4623984 C25.6557967,14.8108725 25.530721,13.1599806 25.4068596,11.5084546 C25.3686083,11.0240916 25.1050993,10.6158065 24.7529445,10.4959837" id="Fill-1" fill="#FFFFFF"></path>
        </g>
    </g>
</svg>