<?xml version="1.0" encoding="UTF-8"?>
<svg width="40px" height="40px" viewBox="0 0 40 40" version="1.1" xmlns="http://www.w3.org/2000/svg" xmlns:xlink="http://www.w3.org/1999/xlink">
    <title>matic</title>
    <g id="mobile" stroke="none" stroke-width="1" fill="none" fill-rule="evenodd">
        <g id="matic" fill-rule="nonzero">
            <rect id="Rectangle-Copy-7" fill="#8247E5" x="0" y="0" width="40" height="40" rx="20"></rect>
            <g id="polygon-matic-logo" transform="translate(9.000000, 10.000000)" fill="#FFFFFF">
                <path d="M17.4151436,6.11275964 C16.9947781,5.87537092 16.4543081,5.87537092 15.9738903,6.11275964 L12.6109661,8.07121662 L10.3289817,9.31750742 L7.02610966,11.2759644 C6.60574413,11.5133531 6.06527415,11.5133531 5.5848564,11.2759644 L3.00261097,9.73293769 C2.58224543,9.49554896 2.28198433,9.02077151 2.28198433,8.48664688 L2.28198433,5.51928783 C2.28198433,5.04451039 2.52219321,4.56973294 3.00261097,4.27299703 L5.5848564,2.78931751 C6.00522193,2.55192878 6.54569191,2.55192878 7.02610966,2.78931751 L9.60835509,4.33234421 C10.0287206,4.56973294 10.3289817,5.04451039 10.3289817,5.57863501 L10.3289817,7.53709199 L12.6109661,6.23145401 L12.6109661,4.21364985 C12.6109661,3.7388724 12.3707572,3.26409496 11.8903394,2.96735905 L7.08616188,0.178041543 C6.66579634,-0.059347181 6.12532637,-0.059347181 5.64490862,0.178041543 L0.720626632,3.02670623 C0.240208877,3.26409496 0,3.7388724 0,4.21364985 L0,9.79228487 C0,10.2670623 0.240208877,10.7418398 0.720626632,11.0385757 L5.5848564,13.8278932 C6.00522193,14.0652819 6.54569191,14.0652819 7.02610966,13.8278932 L10.3289817,11.9287834 L12.6109661,10.6231454 L15.9138381,8.72403561 C16.3342037,8.48664688 16.8746736,8.48664688 17.3550914,8.72403561 L19.9373368,10.2077151 C20.3577023,10.4451039 20.6579634,10.9198813 20.6579634,11.4540059 L20.6579634,14.421365 C20.6579634,14.8961424 20.4177546,15.3709199 19.9373368,15.6676558 L17.4151436,17.1513353 C16.9947781,17.388724 16.4543081,17.388724 15.9738903,17.1513353 L13.3916449,15.6676558 C12.9712794,15.4302671 12.6710183,14.9554896 12.6710183,14.421365 L12.6710183,12.5222552 L10.3890339,13.8278932 L10.3890339,15.7863501 C10.3890339,16.2611276 10.6292428,16.735905 11.1096606,17.0326409 L15.9738903,19.8219585 C16.3942559,20.0593472 16.9347258,20.0593472 17.4151436,19.8219585 L22.2793734,17.0326409 C22.6997389,16.7952522 23,16.3204748 23,15.7863501 L23,10.148368 C23,9.6735905 22.7597911,9.19881306 22.2793734,8.90207715 L17.4151436,6.11275964 Z" id="Path"></path>
            </g>
        </g>
    </g>
</svg>