<?xml version="1.0" encoding="UTF-8"?>
<svg width="40px" height="40px" viewBox="0 0 40 40" version="1.1" xmlns="http://www.w3.org/2000/svg" xmlns:xlink="http://www.w3.org/1999/xlink">
    <title>mina</title>
    <g id="mobile" stroke="none" stroke-width="1" fill="none" fill-rule="evenodd">
        <g id="mina" fill-rule="nonzero">
            <rect id="Rectangle" fill="#F5507C" x="0" y="0" width="40" height="40" rx="20"></rect>
            <g id="Mina_Wordmark_Primary_Outlined_RGB_Mina_Logo_Black" transform="translate(9.000000, 10.000000)" fill="#FFFFFF">
                <path d="M10.9992009,19.9977277 C10.2287332,20.020022 9.57461804,19.4392183 9.50802761,18.6736809 L9.34021068,17.3623806 C7.74195423,16.9082851 6.80697421,15.7292302 6.56403923,13.8570822 L5.12560843,2.80901872 C4.81704608,2.75951654 4.50471906,2.73712408 4.19222666,2.74209939 C3.72969317,2.73832534 3.26882715,2.79783298 2.82252089,2.91895763 L2.82252089,19.6742843 L0,19.6742843 L0,6.2059716 C0,4.37843645 0.82310207,3.08784928 2.32226662,2.55090129 L2.32226662,1.68254326 C2.32226662,0.678753248 2.93439884,0.00477995245 3.84380676,0.00477995245 C4.75321467,0.00477995245 5.32379223,0.568814342 5.47083182,1.59809744 L5.58270977,2.40272277 C7.22411914,2.86000488 8.18307301,4.17449181 8.46756266,6.30794392 L9.79731202,16.957678 C10.5917624,17.1106496 11.4082376,17.1106496 12.202688,16.957678 L13.5324373,6.30953724 C13.810534,4.17449181 14.7806756,2.86000488 16.4172902,2.39794281 L16.5291682,1.59331748 C16.6762078,0.568814342 17.2547766,0 18.1561932,0 C19.0576099,0 19.6777334,0.673973296 19.6777334,1.67776331 L19.6777334,2.54612134 C21.1768979,3.08306933 22,4.37365649 22,6.20119165 L22,19.6695043 L19.1742826,19.6695043 L19.1742826,2.91736431 C18.7279763,2.79623966 18.2671103,2.73673202 17.8045768,2.74050607 C17.4920844,2.73553076 17.1797574,2.75792323 16.8711951,2.80742541 L15.4327643,13.8570822 C15.194624,15.6957705 14.2372684,16.9035052 12.6565928,17.3623806 L12.4983654,18.6752742 C12.4469976,19.4513578 11.7781543,20.0413626 10.9992009,19.9977277 Z M9.86284054,17.489846 L10.0082819,18.6195081 C10.0400349,19.1350133 10.4817506,19.5291982 10.9992009,19.5037993 C11.2491313,19.5216807 11.4956774,19.4379334 11.6826589,19.271641 C11.8696404,19.1053485 11.9811283,18.8706772 11.9917181,18.6211014 L12.1371595,17.489846 C11.3840911,17.6130646 10.6159089,17.6130646 9.86284054,17.489846 L9.86284054,17.489846 Z M19.6777334,19.1803559 L21.4965492,19.1803559 L21.4965492,6.2059716 C21.4965492,4.65726701 20.8700327,3.58815097 19.6777334,3.0894426 L19.6777334,19.1803559 Z M0.498656012,19.1803559 L2.32226662,19.1803559 L2.32226662,3.0894426 C1.13156556,3.58815097 0.511442063,4.65726701 0.511442063,6.2059716 L0.498656012,19.1803559 Z M5.65463131,2.94604403 L7.0642935,13.7917561 C7.26567381,15.3611739 8.00886306,16.3761171 9.27148565,16.8190594 L7.96890665,6.3700833 C7.72916818,4.52820829 6.96999637,3.40332615 5.65463131,2.94604403 Z M16.3453687,2.94604403 C15.0300036,3.40332615 14.2676353,4.52820829 14.0310934,6.37167662 L12.7285143,16.8126861 C13.9927352,16.3697438 14.7343262,15.3548006 14.9357065,13.7853829 L16.3453687,2.94604403 Z M2.8257174,2.39156954 L2.8257174,2.39156954 C3.27404437,2.28288712 3.73404042,2.22937784 4.19542317,2.23223779 C4.48394872,2.22920077 4.77233522,2.24623753 5.05848166,2.28322395 L4.97217581,1.65705018 C4.86189611,0.889071156 4.48151108,0.50030169 3.84380676,0.50030169 C3.20610243,0.50030169 2.8257174,0.951210538 2.8257174,1.67616999 L2.8257174,2.39156954 Z M17.8045768,2.23223779 C18.2659596,2.22937784 18.7259556,2.28288712 19.1742826,2.39156954 L19.1742826,1.68254326 C19.1742826,0.957583808 18.784308,0.50667496 18.1561932,0.50667496 C17.5280785,0.50667496 17.1381039,0.895444426 17.0278242,1.66342345 L16.9415183,2.28959722 C17.2276648,2.2526108 17.5160513,2.23557404 17.8045768,2.23861106 L17.8045768,2.23223779 Z" id="Shape"></path>
            </g>
        </g>
    </g>
</svg>