<svg width="40" height="40" viewBox="0 0 40 40" fill="none" xmlns="http://www.w3.org/2000/svg">
<path d="M0 20C0 8.95431 8.95431 0 20 0C31.0457 0 40 8.95431 40 20C40 31.0457 31.0457 40 20 40C8.95431 40 0 31.0457 0 20Z" fill="#231F20"/>
<path d="M32.9987 25.0021C32.9995 21.6531 32.9995 18.3042 32.9987 14.9554C33.0123 14.613 32.8403 14.2722 32.5655 14.0703C28.5749 11.1545 24.5841 8.2382 20.5934 5.32146C20.4727 5.22708 20.3331 5.15965 20.1842 5.1237C20.0353 5.08775 19.8804 5.08412 19.7299 5.11304C19.544 5.14952 19.3764 5.24256 19.227 5.35451C15.2647 8.2506 11.3023 11.1465 7.33956 14.0423C7.19144 14.1453 7.07058 14.2827 6.9874 14.4428C6.90423 14.6029 6.86124 14.7808 6.86214 14.9612C6.85976 18.3092 6.85976 21.6571 6.86214 25.0049C6.85693 25.3675 7.0451 25.7195 7.34328 25.9237C11.3056 28.8183 15.2671 31.7136 19.2278 34.6095C19.6068 34.9337 20.2014 34.9593 20.5926 34.6433C24.5706 31.7386 28.5471 28.8326 32.5221 25.9252C32.8214 25.7235 33.0151 25.3653 32.9984 25.0022" fill="white"/>
<path d="M18.5507 7.50968C18.6558 7.39058 18.7624 7.20494 18.9471 7.22965C19.5755 7.23338 20.2054 7.21983 20.8336 7.23635C20.9424 7.30394 21.0258 7.40532 21.1188 7.49241C21.1164 8.14088 21.1164 8.7895 21.1188 9.43827C20.9318 9.4405 20.7443 9.44884 20.5573 9.43604C20.546 9.39019 20.5235 9.30012 20.5126 9.25442C20.5126 8.77015 20.5546 8.28528 20.5141 7.80176C20.0523 7.80245 19.5908 7.80245 19.1296 7.80176C19.1274 7.96462 19.1267 8.12838 19.1252 8.29124C18.9307 8.29124 18.7356 8.29124 18.5404 8.28975C18.5418 8.03057 18.5132 7.76707 18.5507 7.50968Z" fill="#050708"/>
<path d="M16.984 8.30095C17.1964 8.29276 17.4088 8.29276 17.622 8.29797C17.625 9.19505 17.6287 10.0914 17.6198 10.9877C17.417 10.9922 17.2144 10.9922 17.0124 10.9907C16.945 10.0975 16.9989 9.19729 16.984 8.30095Z" fill="#050708"/>
<path d="M22.3875 9.26482C22.9532 9.25738 23.518 9.25961 24.0834 9.26333C24.0864 9.47056 24.0864 9.67704 24.0834 9.88412C23.5177 9.89007 22.952 9.89231 22.3863 9.88263C22.3842 9.67689 22.3842 9.46982 22.3863 9.26482" fill="#050708"/>
<path d="M18.957 9.5703C19.1852 9.56509 19.4135 9.56583 19.6418 9.56583C19.8602 9.9907 20.1343 10.3871 20.3117 10.8323C20.1023 10.8421 19.8921 10.8421 19.6826 10.8428C19.4337 10.4226 19.1934 9.9974 18.957 9.5703Z" fill="#050708"/>
<path d="M21.2874 10.3174C21.4848 10.3129 21.6822 10.3137 21.8805 10.3166C22.4179 11.1503 22.9403 11.9938 23.4817 12.8255C23.4817 13.0786 23.4817 13.3317 23.4772 13.5847C23.4186 13.5742 23.3031 13.5539 23.2453 13.5443C22.7859 12.8595 22.3632 12.1502 21.909 11.4625C21.9016 12.2366 21.9113 13.0107 21.9038 13.7848C21.6981 13.7886 21.4919 13.7886 21.2853 13.7848C21.2828 12.6295 21.279 11.4733 21.2874 10.3174Z" fill="#050708"/>
<path d="M23.7406 10.7864C23.9508 10.782 24.1618 10.782 24.372 10.7879C24.3734 10.9861 24.3734 11.1851 24.372 11.3834C24.1618 11.3886 23.9508 11.3886 23.7414 11.3849C23.7399 11.1858 23.7399 10.9863 23.7414 10.7864" fill="#050708"/>
<path d="M13.3486 10.9823C13.5145 10.9794 13.6804 10.9801 13.8463 10.9816C14.2892 10.9518 14.7313 10.9606 15.1743 10.9861C15.1758 11.1783 15.1743 11.3712 15.1729 11.5634C14.5178 11.9567 13.8884 12.3929 13.224 12.7692C13.0281 12.6948 12.8786 12.538 12.7188 12.4073C13.1534 12.1423 13.5791 11.8631 14.0182 11.6055C13.796 11.5942 13.5731 11.5957 13.3508 11.5935C13.347 11.3892 13.3462 11.1855 13.3486 10.9823Z" fill="#050708"/>
<path d="M18.5885 11.2106C18.792 11.2046 18.9961 11.2053 19.1989 11.2106C19.2041 11.4148 19.2041 11.6182 19.1989 11.8224C18.9954 11.8284 18.792 11.8286 18.5885 11.8231C18.5838 11.6189 18.5838 11.4147 18.5885 11.2106Z" fill="#050708"/>
<path d="M15.6018 11.8082C15.9277 12.3021 16.2437 12.8029 16.5739 13.2939C16.9035 12.7969 17.2218 12.2924 17.5543 11.7977C17.5543 12.1252 17.5761 12.4562 17.5476 12.7834C17.2459 13.3006 16.8968 13.7893 16.5717 14.2923C16.2519 13.7976 15.9132 13.3134 15.61 12.809C15.5756 12.477 15.6003 12.1415 15.6018 11.8082Z" fill="#050708"/>
<path d="M24.624 11.8915C25.602 11.887 26.5802 11.8873 27.5585 11.8922C27.5585 12.0904 27.5585 12.2894 27.5576 12.4877C26.5801 12.49 25.6022 12.4902 24.624 12.4884C24.6231 12.2894 24.6225 12.0899 24.624 11.8915Z" fill="#050708"/>
<path d="M19.4462 12.6662C19.6429 12.6625 19.8403 12.6625 20.0378 12.6647C20.0477 13.5325 20.0378 14.4011 20.0431 15.2699C19.9515 15.357 19.8607 15.4456 19.7714 15.5342C19.0934 15.5416 18.4156 15.5342 17.7384 15.5379C17.6491 15.4523 17.5575 15.3704 17.4772 15.2781C17.4426 15.0124 17.4681 14.7413 17.4673 14.4742C17.6559 14.4727 17.8451 14.4727 18.0348 14.4742C18.04 14.6274 18.0393 14.7805 18.037 14.9336C18.5033 14.9862 18.9731 14.9485 19.4416 14.9598C19.444 14.1954 19.4366 13.4298 19.4462 12.6662Z" fill="#050708"/>
<path d="M28.9031 15.2313C28.8969 14.5763 28.8969 13.9209 28.9031 13.2652C29.108 13.2608 29.3129 13.26 29.5186 13.2652C29.5253 13.9203 29.5253 14.5759 29.5186 15.2321C29.3135 15.2355 29.1086 15.2348 28.9036 15.2321" fill="#050708"/>
<path d="M25.9818 13.7601C26.3689 13.7564 26.758 13.6963 27.143 13.7586C27.3952 14.5807 27.6115 15.4154 27.8622 16.2389C27.664 16.2404 27.465 16.2404 27.2667 16.2404C27.0775 15.6016 26.9161 14.9552 26.7209 14.3178C26.6121 14.3193 26.5033 14.3208 26.3943 14.3215C26.2322 14.9649 26.037 15.5985 25.8696 16.2395C25.6698 16.2402 25.4701 16.24 25.2705 16.2388C25.5163 15.4154 25.7469 14.5863 25.9818 13.7601Z" fill="#050708"/>
<path d="M9.43358 14.0739C10.3255 14.0687 11.2181 14.0665 12.1098 14.0739C12.115 14.2789 12.115 14.483 12.1105 14.688C11.2173 14.6962 10.3253 14.694 9.43269 14.6888C9.42986 14.4838 9.42986 14.2776 9.43358 14.0732" fill="#050708"/>
<path d="M12.5311 14.0747C12.7338 14.0732 12.9365 14.0724 13.14 14.0747C13.1444 14.2804 13.1444 14.4867 13.14 14.6925C12.9365 14.6947 12.7338 14.6939 12.5311 14.6925C12.5287 14.4867 12.5287 14.2817 12.5311 14.0761" fill="#050708"/>
<path d="M14.7725 14.1C14.9714 14.0985 15.1712 14.0992 15.37 14.1014C15.376 14.5778 15.373 15.0555 15.373 15.5324C15.171 15.5339 14.9691 15.5346 14.768 15.5324C14.7659 15.056 14.7597 14.5771 14.7725 14.0992" fill="#050708"/>
<path d="M30.3625 14.528C30.5914 14.5235 30.8211 14.5242 31.0501 14.5235C31.2768 14.9439 31.5524 15.3423 31.7212 15.7914C31.5128 15.7989 31.303 15.7996 31.0943 15.8005C30.8475 15.3779 30.6124 14.9482 30.3623 14.528" fill="#050708"/>
<path d="M21.3356 15.0379C21.534 15.0364 21.7325 15.0364 21.931 15.0379C21.9355 15.6909 21.9324 16.344 21.9324 16.9973C21.7327 16.9988 21.5337 16.9995 21.3342 16.9995C21.3342 16.3458 21.3332 15.6912 21.3356 15.0371" fill="#050708"/>
<path d="M23.4295 15.832C23.4271 15.6278 23.4271 15.4231 23.4295 15.218C23.6299 15.215 23.8315 15.215 24.0323 15.2202C24.0323 15.4244 24.0338 15.6285 24.0308 15.8328C23.8307 15.8335 23.6289 15.8328 23.4288 15.8328" fill="#050708"/>
<path d="M12.0996 16.7373C12.5808 16.386 13.0944 16.0805 13.5883 15.7487C13.9149 15.7524 14.2406 15.7487 14.5673 15.7531C14.0822 16.1 13.5666 16.3995 13.0786 16.7418C13.5801 17.0571 14.0718 17.3874 14.5702 17.7057C14.2347 17.7116 13.8991 17.7079 13.5636 17.7087C13.0793 17.38 12.5763 17.077 12.0996 16.7373Z" fill="#050708"/>
<path d="M28.903 16.1676C29.1086 16.1631 29.3143 16.1624 29.5208 16.1676C29.5259 16.3733 29.5253 16.5782 29.5193 16.7839C29.3143 16.7884 29.1087 16.7876 28.9037 16.7839C28.8993 16.5788 28.8993 16.3739 28.9037 16.1691" fill="#050708"/>
<path d="M7.78491 16.2517C8.8121 16.2457 9.84108 16.2435 10.8696 16.2532C10.8718 16.4476 10.8719 16.6428 10.8726 16.8379C10.4132 17.139 9.95378 17.4415 9.48156 17.7207C9.28193 17.6479 9.13098 17.4826 8.96052 17.3612C9.21494 17.2006 9.47323 17.0452 9.71975 16.8732C9.07485 16.8703 8.4301 16.877 7.78446 16.8695C7.78148 16.6638 7.78148 16.4578 7.78446 16.2517" fill="#050708"/>
<path d="M16.5803 16.8478C17.4699 16.8515 18.3594 16.8433 19.2483 16.8515C19.2699 17.0538 19.2672 17.258 19.2401 17.4596C18.3534 17.4634 17.4677 17.4604 16.5819 17.4611C16.5803 17.256 16.5798 17.0515 16.5803 16.8478Z" fill="#050708"/>
<path d="M19.8286 16.8515C20.0425 16.847 20.2557 16.847 20.4697 16.8545C20.4704 17.0542 20.4701 17.2533 20.4688 17.452C20.2557 17.458 20.0417 17.458 19.8287 17.4543C19.8266 17.2531 19.8266 17.0523 19.8287 16.8515" fill="#050708"/>
<path d="M22.6265 17.7118C22.5986 17.5009 22.8149 17.3928 22.926 17.2479C23.1873 17.2479 23.4484 17.2464 23.7098 17.2517C23.7157 17.4483 23.7157 17.645 23.7126 17.8425C23.5477 17.8455 23.3815 17.8455 23.2166 17.8477V19.2486C23.9845 19.2538 24.7525 19.2456 25.5205 19.2531C25.5227 19.4519 25.5227 19.651 25.5175 19.8485C24.6527 19.8545 23.7871 19.8493 22.9223 19.8515C22.812 19.7074 22.6003 19.5984 22.6272 19.3891C22.6233 18.8303 22.6233 18.2712 22.6272 17.7118" fill="#050708"/>
<path d="M25.539 17.5256C25.7507 17.5182 25.9639 17.5182 26.1763 17.5256C26.1786 17.7283 26.1786 17.931 26.1763 18.1337C25.9639 18.1412 25.7522 18.1412 25.5398 18.1337C25.5375 17.9302 25.5375 17.7276 25.5398 17.5241" fill="#050708"/>
<path d="M27.5622 17.5256C28.457 17.5135 29.3511 17.5218 30.246 17.5211C30.2475 17.7276 30.2475 17.9348 30.2451 18.1411C29.351 18.1411 28.457 18.1486 27.5628 18.1374C27.5598 17.9332 27.5598 17.7292 27.5628 17.5256" fill="#050708"/>
<path d="M15.166 18.2396C15.6675 18.2388 16.1681 18.2396 16.6695 18.2388C16.674 18.4472 16.674 18.6557 16.6695 18.8641C16.1687 18.8649 15.6682 18.8649 15.168 18.8641C15.1593 18.6557 15.1589 18.4475 15.1667 18.2396" fill="#050708"/>
<path d="M18.4732 18.2396C19.26 18.2388 20.0468 18.2396 20.8334 18.2381C21.1192 18.1934 21.4055 18.4903 21.3693 18.7725C21.3677 19.3504 21.3674 19.929 21.3684 20.5082C21.2678 20.617 21.1666 20.7243 21.0652 20.8324C20.8047 20.8324 20.5451 20.8324 20.2845 20.8294C20.2823 20.6309 20.2821 20.4327 20.2838 20.2348C20.4466 20.2326 20.6098 20.2311 20.7725 20.2289C20.7725 19.7739 20.7725 19.3183 20.774 18.8633C20.0097 18.795 19.2396 18.852 18.4731 18.8318C18.4712 18.6333 18.4712 18.4359 18.4731 18.2396" fill="#050708"/>
<path d="M12.9278 18.4227C13.3121 18.4204 13.6958 18.4182 14.0802 18.4242C14.3128 19.2552 14.5628 20.0817 14.7828 20.9165C14.5893 20.9165 14.3958 20.9165 14.2033 20.918C14.0059 20.2768 13.8534 19.6238 13.6499 18.9857C13.5404 18.9924 13.4308 19.0006 13.3211 19.0089C13.1755 19.6516 12.9675 20.2776 12.8084 20.9173C12.6095 20.9173 12.4104 20.9173 12.2129 20.915C12.4496 20.0842 12.6853 19.2522 12.9275 18.4227" fill="#050708"/>
<path d="M29.6968 19.1734C30.3667 19.1667 31.0375 19.1599 31.7065 19.1756C31.8754 19.2799 32.066 19.449 32.0292 19.6711C32.0292 20.1475 32.0263 20.6252 32.0292 21.102C32.0233 21.331 32.0337 21.5599 32.027 21.7889C32.0376 21.9759 31.9865 22.1597 31.9972 22.3474C31.8065 22.3474 31.6158 22.3474 31.4251 22.3452C31.4274 21.4849 31.4251 20.6238 31.4266 19.7635C30.9587 19.7507 30.4913 19.7606 30.0235 19.7568C30.0226 19.9167 30.0226 20.0766 30.0198 20.2372C29.823 20.2402 29.6262 20.2412 29.4295 20.2402C29.4258 19.9767 29.4267 19.7125 29.4273 19.449C29.518 19.3582 29.6073 19.2665 29.6966 19.1734" fill="#050708"/>
<path d="M10.6329 19.1974H11.2551C11.2566 19.8512 11.2551 20.5043 11.2551 21.1575H10.6299C10.6329 20.5045 10.6306 19.8506 10.6321 19.1974" fill="#050708"/>
<path d="M8.68115 19.744C8.88539 19.7411 9.08949 19.747 9.293 19.7606C9.29528 19.9542 9.29528 20.1481 9.293 20.3423C9.08726 20.3446 8.88167 20.3453 8.67594 20.3423C8.6737 20.1426 8.67445 19.9437 8.68115 19.7448" fill="#050708"/>
<path d="M15.9925 23.3272C15.9871 22.171 15.9869 21.0148 15.9918 19.8585C16.1945 19.8555 16.3971 19.8555 16.5999 19.86C17.0763 20.628 17.5675 21.3877 18.054 22.1504C18.2642 22.4213 18.1381 22.7847 18.1719 23.1C18.1014 23.1 18.0308 23.1015 17.961 23.103C17.5233 22.4078 17.0661 21.7246 16.6472 21.0188C16.5714 21.7861 16.6337 22.56 16.609 23.3303C16.4028 23.3324 16.1973 23.3324 15.9925 23.3272Z" fill="#050708"/>
<path d="M18.6958 20.3032C18.9021 20.2987 19.1086 20.2982 19.3151 20.3017C19.3181 20.807 19.3173 21.3122 19.3151 21.8174C19.1079 21.8211 18.9014 21.8211 18.6943 21.8159C18.6909 21.3115 18.69 20.807 18.6943 20.3032" fill="#050708"/>
<path d="M22.4383 20.9789C22.6403 20.9774 22.8429 20.9767 23.0457 20.9789C23.0495 21.1846 23.0495 21.3903 23.0457 21.5959C22.8429 21.5967 22.6405 21.5967 22.4383 21.5959C22.4359 21.391 22.4359 21.1856 22.4383 20.9796" fill="#050708"/>
<path d="M24.4078 21.0058C25.0369 20.9976 25.6661 21.0021 26.2959 21.0036C26.3214 21.1874 26.3372 21.3744 26.3191 21.5607C26.2596 21.6815 26.1171 21.6335 26.0105 21.6448C25.4746 21.629 24.937 21.6756 24.4048 21.615C24.4011 21.4112 24.4011 21.2086 24.4078 21.0058Z" fill="#050708"/>
<path d="M26.9458 21.0929C27.1486 21.0899 27.3534 21.0764 27.5562 21.1078C27.5757 21.8179 27.5643 22.5304 27.5606 23.2414C27.3557 23.2452 27.151 23.2452 26.9465 23.2414C26.9397 22.5255 26.9397 21.8096 26.9465 21.0937" fill="#050708"/>
<path d="M21.3361 21.5136C21.5342 21.5136 21.7333 21.5121 21.9316 21.5136C21.9338 21.7179 21.9344 21.9227 21.9316 22.1285C21.7331 22.1314 21.5346 22.1314 21.3361 22.1285C21.3346 21.9236 21.3346 21.7179 21.3361 21.5129" fill="#050708"/>
<path d="M11.7908 21.9503C12.4979 21.8737 13.2119 21.9345 13.922 21.912C14.105 21.9097 14.2879 21.9179 14.47 21.9367C14.4729 22.1432 14.4722 22.3504 14.47 22.5568C13.5767 22.5553 12.6855 22.5612 11.7937 22.5538C11.7884 22.3527 11.7884 22.1518 11.79 21.9503" fill="#050708"/>
<path d="M7.78529 22.4069C7.88221 22.3123 7.97972 22.2169 8.07738 22.1224C8.33566 22.1209 8.5938 22.1201 8.85149 22.1254C8.85447 22.3205 8.85447 22.5164 8.85298 22.7116C8.69235 22.7153 8.53247 22.7161 8.37184 22.7176C8.37556 23.1831 8.3696 23.6484 8.37556 24.1139C9.13598 24.1162 9.89655 24.1087 10.657 24.1177C10.6607 24.3099 10.6607 24.5013 10.6592 24.6935C10.4707 24.6942 10.2815 24.695 10.0935 24.695C9.41868 24.6883 8.74297 24.7063 8.06889 24.6868C7.95634 24.6229 7.84291 24.5178 7.79184 24.3986C7.77413 23.7351 7.78976 23.0707 7.78604 22.4069" fill="#050708"/>
<path d="M23.561 22.7939C23.6624 22.6987 23.7645 22.6032 23.8689 22.5102C24.5264 22.5154 25.1841 22.5102 25.8417 22.5124C25.9408 22.607 26.0398 22.7024 26.1394 22.7962C26.1402 23.447 26.1402 24.0976 26.1394 24.748C25.939 24.7495 25.7385 24.748 25.5389 24.7428C25.5389 24.1955 25.5344 23.649 25.5411 23.1018C25.0796 23.1011 24.6201 23.1018 24.1598 23.1011C24.1605 23.2676 24.1598 23.4344 24.156 23.601C23.9586 23.6039 23.7612 23.6039 23.5644 23.6032C23.558 23.3334 23.5595 23.064 23.5603 22.7939" fill="#050708"/>
<path d="M27.7834 23.9428C28.5129 23.4676 29.2496 23.0049 29.9852 22.5404C30.1609 22.6576 30.3336 22.7807 30.5048 22.9038C29.9754 23.2412 29.4464 23.5778 28.9178 23.9136C29.6948 23.9218 30.4719 23.9136 31.2496 23.918C31.251 24.1245 31.251 24.3317 31.2496 24.5381C30.0947 24.5418 28.9401 24.5418 27.7857 24.5381C27.7827 24.339 27.7827 24.1402 27.7842 23.9426" fill="#050708"/>
<path d="M19.5283 24.0605C20.2603 23.5732 21.0155 23.1213 21.7474 22.6342C21.9214 22.7543 22.0935 22.8767 22.2706 22.9914C21.7645 23.3472 21.2272 23.6573 20.7114 24.0003C21.4839 24.0139 22.2563 23.9988 23.0288 24.0085C23.034 24.2209 23.034 24.4341 23.0288 24.6466C21.8727 24.6533 20.7164 24.6488 19.5602 24.6488C19.5304 24.4539 19.5304 24.2565 19.5291 24.0597" fill="#050708"/>
<path d="M11.9289 23.535C12.2501 24.0263 12.5723 24.5175 12.8898 25.0101C13.2306 24.5236 13.5355 24.0127 13.8732 23.5237C13.8799 23.8548 13.8747 24.1866 13.8777 24.5177C13.5414 25.0101 13.2336 25.5221 12.8883 26.0079C12.5686 25.5199 12.2585 25.0253 11.9252 24.5463C11.9219 24.2092 11.9185 23.8714 11.9289 23.535Z" fill="#050708"/>
<path d="M15.4508 24.7955C15.4433 24.5853 15.4426 24.3751 15.4545 24.1656C15.6565 24.1634 15.8598 24.1641 16.0619 24.1805C16.0663 24.3853 16.0663 24.5903 16.0619 24.7953C15.8588 24.7969 15.6553 24.7977 15.4515 24.7953" fill="#050708"/>
<path d="M18.3122 25.0988C18.5172 25.0966 18.7228 25.0958 18.9278 25.0988C18.933 25.8622 18.9278 26.6258 18.9308 27.3892C18.7852 27.3951 18.6394 27.402 18.4939 27.4154C18.4473 27.4063 18.3542 27.3899 18.3076 27.3816C18.3122 26.6212 18.3039 25.86 18.3122 25.0996" fill="#050708"/>
<path d="M22.5532 25.5778C22.9403 25.5703 23.3263 25.5755 23.713 25.5733C23.9502 26.4043 24.1877 27.2353 24.4255 28.0664C24.2259 28.0664 24.0261 28.0664 23.8272 28.0619C23.6575 27.4269 23.4736 26.7955 23.301 26.1612C23.1929 26.1545 23.0848 26.1499 22.9767 26.1447C22.7981 26.7857 22.6199 27.4266 22.4423 28.0673C22.2427 28.0673 22.0436 28.0673 21.8447 28.0643C22.0878 27.2371 22.3296 26.4098 22.5532 25.5782" fill="#050708"/>
<path d="M13.7888 26.9545C14.5252 26.4815 15.2602 26.0056 16.0069 25.5484C16.1789 25.6693 16.3523 25.7866 16.5226 25.9103C15.9882 26.2429 15.4641 26.5927 14.9243 26.9162C15.7066 26.9311 16.4895 26.914 17.2726 26.9253C17.2763 27.131 17.2771 27.3366 17.2711 27.5423C16.1113 27.5461 14.9514 27.5514 13.7916 27.5401C13.7858 27.3448 13.7865 27.1496 13.7888 26.9545Z" fill="#050708"/>
<path d="M19.8721 25.6993C20.0877 25.7017 20.3032 25.6887 20.517 25.6603C20.77 26.0772 21.0687 26.4906 21.1986 26.965C20.9966 26.9665 20.7948 26.9665 20.5936 26.968C20.356 26.5431 20.1155 26.1202 19.8721 25.6993Z" fill="#050708"/>
<path d="M28.3977 25.9538C28.6087 25.9471 28.8203 25.9471 29.0319 25.9515C29.0328 26.1534 29.0328 26.3556 29.0319 26.5582C28.8203 26.5634 28.6092 26.5634 28.3983 26.5545C28.3946 26.3539 28.3946 26.1543 28.3983 25.9538" fill="#050708"/>
<path d="M26.8424 27.5693C27.0977 27.1587 27.3708 26.76 27.6276 26.3502C27.6351 26.6542 27.6397 26.9591 27.6321 27.2638C27.6395 27.378 27.5563 27.4666 27.503 27.5589C27.2202 27.977 26.9489 28.4034 26.6713 28.8243C26.3372 28.3258 26.0138 27.8221 25.6834 27.3207C25.6819 26.9874 25.6789 26.654 25.6871 26.3215C26.0114 26.8072 26.3177 27.3056 26.6496 27.7868C26.7432 27.7472 26.7853 27.6467 26.8431 27.5693" fill="#050708"/>
<path d="M11.1319 26.9786C11.6732 26.9606 12.2152 26.9695 12.7572 26.9734C12.7602 27.1737 12.773 27.3753 12.7474 27.5754C12.2099 27.6016 11.6702 27.5889 11.1326 27.5791C11.1304 27.3787 11.1304 27.179 11.1319 26.9786Z" fill="#050708"/>
<path d="M17.7308 28.2872C18.5986 28.2744 19.4657 28.2872 20.3335 28.2805C20.4327 28.3797 20.532 28.4795 20.6312 28.58C20.6275 29.2429 20.629 29.9066 20.6297 30.5708C20.5427 30.6616 20.4566 30.7535 20.3714 30.8464C20.0937 30.8523 19.8159 30.8531 19.5378 30.8449C19.5415 30.6571 19.5175 30.4657 19.5625 30.2818C19.7194 30.2653 19.8771 30.2713 20.0355 30.2698C20.0369 29.8052 20.0355 29.3411 20.0355 28.8773C19.2667 28.8728 18.4972 28.8871 17.7293 28.8698C17.7269 28.6754 17.7269 28.4812 17.7293 28.2872" fill="#050708"/>
<path d="M13.5624 28.5078C13.7651 28.5048 13.968 28.5053 14.1713 28.5093C14.1742 28.7118 14.1745 28.915 14.172 29.1189C13.9678 29.1219 13.7643 29.1221 13.5617 29.1196C13.5589 28.9154 13.5589 28.7114 13.5617 28.5078" fill="#050708"/>
<path d="M24.299 28.8358C24.5287 28.6422 24.7374 28.9648 24.934 29.0591C24.934 29.0771 24.934 29.1138 24.934 29.1319C24.4206 29.4629 23.8951 29.776 23.3928 30.1244L23.6841 30.1221C23.8387 30.1221 23.9938 30.1239 24.1497 30.1273C24.1511 30.3301 24.1511 30.5335 24.1482 30.7362C23.5161 30.7453 22.884 30.7429 22.2519 30.7377C22.2391 30.5463 22.237 30.3541 22.2354 30.1634C22.9102 29.7019 23.6143 29.285 24.2982 28.8358" fill="#050708"/>
<path d="M14.7025 29.3987C15.523 29.3958 16.3444 29.3913 17.1648 29.401C17.1663 29.6028 17.1663 29.8051 17.1648 30.0076C16.3435 30.0197 15.5229 30.0143 14.7017 30.0106C14.698 29.8065 14.6988 29.6022 14.7017 29.3987" fill="#050708"/>
<path d="M16.8887 30.9573C17.1199 30.955 17.3511 30.9543 17.5824 30.9588C17.7963 31.3844 18.0808 31.7764 18.2453 32.2259C18.0381 32.2373 17.8316 32.2373 17.6245 32.2387C17.3715 31.8161 17.1349 31.3833 16.8887 30.9573Z" fill="#050708"/>
<path d="M20.9872 31.6044C21.1893 31.6029 21.3911 31.6059 21.5922 31.6193C21.596 31.8213 21.5945 32.0239 21.569 32.2252C21.3761 32.226 21.1837 32.226 20.9917 32.2252C20.9843 32.0168 20.9843 31.8109 20.9871 31.6044" fill="#050708"/>
<path d="M19.5802 33.6134C19.5802 33.1419 19.5697 32.6697 19.5877 32.1982C19.7912 32.1982 19.9953 32.2096 20.198 32.228C20.2003 32.6897 20.2003 33.1516 20.198 33.6138C19.992 33.617 19.7861 33.617 19.5802 33.6138" fill="#050708"/>
</svg>
