<?xml version="1.0" encoding="UTF-8"?>
<svg width="40px" height="40px" viewBox="0 0 40 40" version="1.1" xmlns="http://www.w3.org/2000/svg" xmlns:xlink="http://www.w3.org/1999/xlink">
    <title>nu</title>
    <g id="mobile" stroke="none" stroke-width="1" fill="none" fill-rule="evenodd">
        <g id="nu" fill-rule="nonzero">
            <rect id="Rectangle" fill="#1E65F3" x="0" y="0" width="40" height="40" rx="20"></rect>
            <path d="M26.0748081,12.3965441 L24.0760367,13.3747819 C24.0304806,13.3980733 24.0133971,13.4504789 24.0361751,13.4912388 L27.077041,20.1176357 C28.2102476,22.5806989 27.9027443,24.4498319 26.1830037,25.2941443 C24.7935444,25.9754171 23.5920037,25.4979439 22.6581048,23.8384332 L19.0591774,15.9950619 C17.6013841,12.8157889 15.6083072,11.9714765 13.2507819,13.1302225 C11.7132655,13.8813694 10.8249226,15.2264465 10.8420062,16.9325398 C10.8420062,16.9500084 10.8363116,16.9732998 10.8249226,16.9849454 C10.8021446,17.0140597 10.7565886,17.0257054 10.7224215,17.0082368 C10.705338,17.002414 10.6882545,16.9849454 10.68256,16.9674769 L9.89671826,15.2555607 C9.88532925,15.2322693 9.86824573,15.2206236 9.84546771,15.2089779 C9.82268969,15.2031551 9.79991167,15.2031551 9.78282815,15.2148008 L7.77836225,16.1988615 C7.73850071,16.2221528 7.71572269,16.2745584 7.73850071,16.3153183 L13.2621709,28.3394919 C13.27356,28.3627833 13.2906435,28.374429 13.3134215,28.3860747 C13.3361995,28.3918975 13.3589775,28.3918975 13.3817556,28.3802518 L15.3805269,27.402014 C15.426083,27.3787226 15.4431665,27.326317 15.4203885,27.2855571 C15.4203885,27.2855571 15.4203885,27.2855571 15.4203885,27.2855571 L12.4649402,20.8454913 C11.257705,18.2252113 11.4911798,16.326964 13.3361995,15.4244232 C14.7541314,14.7315047 15.8531709,15.1973322 16.8440148,16.9732998 C16.8440148,16.9732998 16.8440148,16.9791226 16.8497093,16.9791226 L20.4144697,24.7409741 C21.7868455,27.7339161 23.9279795,28.7645596 26.1830037,27.6582191 C27.9255223,26.802261 28.6487245,25.5154124 28.608863,23.8267876 C28.608863,23.7860276 28.6373355,23.7510906 28.6715025,23.7394449 C28.7113641,23.7277992 28.7512256,23.7510906 28.7683091,23.7860276 L29.5655399,25.5212353 C29.5826234,25.5561723 29.6110959,25.5736409 29.645263,25.5736409 C29.656652,25.5736409 29.668041,25.567818 29.67943,25.567818 L31.6782014,24.5837573 C31.7123684,24.5721116 31.7294519,24.5371746 31.7294519,24.5022375 C31.7294519,24.4905918 31.7237574,24.4789461 31.7180629,24.4673004 L26.1943927,12.4431269 C26.1659202,12.3965441 26.1146696,12.3790756 26.0748081,12.3965441 Z" id="Path" fill="#FFFFFF"></path>
        </g>
    </g>
</svg>