<?xml version="1.0" encoding="UTF-8"?>
<svg width="40px" height="40px" viewBox="0 0 40 40" version="1.1" xmlns="http://www.w3.org/2000/svg" xmlns:xlink="http://www.w3.org/1999/xlink">
    <title>ocean</title>
    <g id="Page-1" stroke="none" stroke-width="1" fill="none" fill-rule="evenodd">
        <g id="ocean">
            <rect id="Rectangle" fill="#141414" fill-rule="nonzero" x="0" y="0" width="40" height="40" rx="20"></rect>
            <g id="logo-white-(1)" transform="translate(8.000000, 7.000000)" fill="#FFFFFF">
                <path d="M3.06976744,12.0327252 C3.06976744,12.7666872 2.49235006,13.362069 1.77906977,13.362069 C1.0664127,13.362069 0.488372093,12.7666872 0.488372093,12.0327252 C0.488372093,11.2987632 1.0664127,10.704023 1.77906977,10.704023 C2.49235006,10.704023 3.06976744,11.2987632 3.06976744,12.0327252 M23.5813953,12.0327252 C23.5813953,12.7666872 23.0033547,13.362069 22.2910093,13.362069 C21.5780406,13.362069 21,12.7666872 21,12.0327252 C21,11.2987632 21.5780406,10.704023 22.2910093,10.704023 C23.0033547,10.704023 23.5813953,11.2987632 23.5813953,12.0327252 M13.3255814,17.2771385 C13.3255814,18.0110119 12.7476106,18.6063218 12.0350395,18.6063218 C11.3221569,18.6063218 10.744186,18.0110119 10.744186,17.2771385 C10.744186,16.543265 11.3221569,15.9482759 12.0350395,15.9482759 C12.7476106,15.9482759 13.3255814,16.543265 13.3255814,17.2771385 M8.16279072,14.6910919 C8.16279072,15.4247332 7.58513146,16.020115 6.87193722,16.020115 C6.15905461,16.020115 5.58139535,15.4247332 5.58139535,14.6910919 C5.58139535,13.9568091 6.15905461,13.362069 6.87193722,13.362069 C7.58513146,13.362069 8.16279072,13.9568091 8.16279072,14.6910919 M18.4186047,14.6910919 C18.4186047,15.4247332 17.8406338,16.020115 17.1280628,16.020115 C16.4148685,16.020115 15.8372093,15.4247332 15.8372093,14.6910919 C15.8372093,13.9568091 16.4148685,13.362069 17.1280628,13.362069 C17.8406338,13.362069 18.4186047,13.9568091 18.4186047,14.6910919 M2.65116279,16.0563579 C2.65116279,16.5514318 2.26105311,16.954023 1.77954091,16.954023 C1.29740052,16.954023 0.906976741,16.5514318 0.906976741,16.0563579 C0.906976741,15.5599904 1.29740052,15.158046 1.77954091,15.158046 C2.26105311,15.158046 2.65116279,15.5599904 2.65116279,16.0563579 M23.1627907,16.0563579 C23.1627907,16.5514318 22.7721232,16.954023 22.2906977,16.954023 C21.8089582,16.954023 21.4186047,16.5514318 21.4186047,16.0563579 C21.4186047,15.5599904 21.8089582,15.158046 22.2906977,15.158046 C22.7721232,15.158046 23.1627907,15.5599904 23.1627907,16.0563579 M12.9069768,21.3714797 C12.9069768,21.8675238 12.5161359,22.2701149 12.0351976,22.2701149 C11.5539455,22.2701149 11.1627907,21.8675238 11.1627907,21.3714797 C11.1627907,20.875759 11.5539455,20.474138 12.0351976,20.474138 C12.5161359,20.474138 12.9069768,20.875759 12.9069768,21.3714797 M7.74418604,18.714404 C7.74418604,19.2103032 7.35383257,19.612069 6.87240704,19.612069 C6.39066753,19.612069 6,19.2103032 6,18.714404 C6,18.2181812 6.39066753,17.8160919 6.87240704,17.8160919 C7.35383257,17.8160919 7.74418604,18.2181812 7.74418604,18.714404 M18,18.714404 C18,19.2103032 17.6090888,19.612069 17.128378,19.612069 C16.6464112,19.612069 16.255814,19.2103032 16.255814,18.714404 C16.255814,18.2181812 16.6464112,17.8160919 17.128378,17.8160919 C17.6090888,17.8160919 18,18.2181812 18,18.714404 M2.23255814,19.2164578 C2.23255814,19.4748291 2.02965219,19.6839081 1.7792303,19.6839081 C1.52848734,19.6839081 1.3255814,19.4748291 1.3255814,19.2164578 C1.3255814,18.9587481 1.52848734,18.75 1.7792303,18.75 C2.02965219,18.75 2.23255814,18.9587481 2.23255814,19.2164578 M22.744186,19.2164578 C22.744186,19.4748291 22.5408151,19.6839081 22.2908583,19.6839081 C22.0399377,19.6839081 21.8372093,19.4748291 21.8372093,19.2164578 C21.8372093,18.9587481 22.0399377,18.75 22.2908583,18.75 C22.5408151,18.75 22.744186,18.9587481 22.744186,19.2164578 M12.4883721,24.5327153 C12.4883721,24.7906644 12.2850011,25 12.0350444,25 C11.784445,25 11.5813953,24.7906644 11.5813953,24.5327153 C11.5813953,24.2747662 11.784445,24.066092 12.0350444,24.066092 C12.2850011,24.066092 12.4883721,24.2747662 12.4883721,24.5327153 M7.32558137,21.875 C7.32558137,22.1326184 7.12235439,22.341954 6.87193252,22.341954 C6.62183165,22.341954 6.41860465,22.1326184 6.41860465,21.875 C6.41860465,21.6167202 6.62183165,21.408046 6.87193252,21.408046 C7.12235439,21.408046 7.32558137,21.6167202 7.32558137,21.875 M17.5813953,21.875 C17.5813953,22.1326184 17.3780243,22.341954 17.1280676,22.341954 C16.8768258,22.341954 16.6744186,22.1326184 16.6744186,21.875 C16.6744186,21.6167202 16.8768258,21.408046 17.1280676,21.408046 C17.3780243,21.408046 17.5813953,21.6167202 17.5813953,21.875 M13.744186,1.79600921 C13.744186,2.78811194 12.9631559,3.59195403 12.000469,3.59195403 C11.0368441,3.59195403 10.255814,2.78811194 10.255814,1.79600921 C10.255814,0.804164008 11.0368441,0 12.000469,0 C12.9631559,0 13.744186,0.804164008 13.744186,1.79600921 M13.744186,7.11206897 C13.744186,8.1040405 12.9631559,8.908046 12.000469,8.908046 C11.0368441,8.908046 10.255814,8.1040405 10.255814,7.11206897 C10.255814,6.12041929 11.0368441,5.31609195 12.000469,5.31609195 C12.9631559,5.31609195 13.744186,6.12041929 13.744186,7.11206897 M13.744186,12.3566437 C13.744186,13.3481493 12.9631559,14.1522988 12.000469,14.1522988 C11.0368441,14.1522988 10.255814,13.3481493 10.255814,12.3566437 C10.255814,11.3644944 11.0368441,10.5603448 12.000469,10.5603448 C12.9631559,10.5603448 13.744186,11.3644944 13.744186,12.3566437 M24,7.11206897 C24,8.1040405 23.2191098,8.908046 22.2559703,8.908046 C21.2925181,8.908046 20.5116279,8.1040405 20.5116279,7.11206897 C20.5116279,6.12041929 21.2925181,5.31609195 22.2559703,5.31609195 C23.2191098,5.31609195 24,6.12041929 24,7.11206897 M3.48837209,7.11206897 C3.48837209,8.1040405 2.7076546,8.908046 1.74434238,8.908046 C0.781030161,8.908046 0,8.1040405 0,7.11206897 C0,6.12041929 0.781030161,5.31609195 1.74434238,5.31609195 C2.7076546,5.31609195 3.48837209,6.12041929 3.48837209,7.11206897 M8.6511628,4.45402299 C8.6511628,5.44585041 7.8703753,6.25 6.90697676,6.25 C5.94357818,6.25 5.1627907,5.44585041 5.1627907,4.45402299 C5.1627907,3.46155174 5.94357818,2.65804598 6.90697676,2.65804598 C7.8703753,2.65804598 8.6511628,3.46155174 8.6511628,4.45402299 M8.6511628,9.69811487 C8.6511628,10.6900312 7.8703753,11.4942529 6.90697676,11.4942529 C5.94357818,11.4942529 5.1627907,10.6900312 5.1627907,9.69811487 C5.1627907,8.70652053 5.94357818,7.90229887 6.90697676,7.90229887 C7.8703753,7.90229887 8.6511628,8.70652053 8.6511628,9.69811487 M18.9069768,4.45402299 C18.9069768,5.44585041 18.1259466,6.25 17.1626344,6.25 C16.1993221,6.25 15.4186047,5.44585041 15.4186047,4.45402299 C15.4186047,3.46155174 16.1993221,2.65804598 17.1626344,2.65804598 C18.1259466,2.65804598 18.9069768,3.46155174 18.9069768,4.45402299 M18.9069768,9.69811487 C18.9069768,10.6900312 18.1259466,11.4942529 17.1626344,11.4942529 C16.1993221,11.4942529 15.4186047,10.6900312 15.4186047,9.69811487 C15.4186047,8.70652053 16.1993221,7.90229887 17.1626344,7.90229887 C18.1259466,7.90229887 18.9069768,8.70652053 18.9069768,9.69811487" id="Shape"></path>
            </g>
        </g>
    </g>
</svg>