<svg width="40" height="40" viewBox="0 0 40 40" fill="none" xmlns="http://www.w3.org/2000/svg">
<rect width="40" height="40" rx="20" fill="#F8F8F8"/>
<path fill-rule="evenodd" clip-rule="evenodd" d="M14.639 10.5002C15.1797 9.88391 15.6725 9.35796 16.1433 8.91756C8.18605 8.65934 10.5023 14.4559 7.90938 20.3466C4.92344 27.1309 8.26071 29.7163 13.2336 30.5218C12.5443 29.702 11.9815 28.7642 11.5532 27.7519C8.3291 23.6615 9.62675 16.2095 14.639 10.5002Z" fill="#B3D234"/>
<path fill-rule="evenodd" clip-rule="evenodd" d="M33.786 17.7269C33.0456 19.8283 31.6867 22.1863 29.7657 24.5072C28.2684 26.3155 26.6037 27.7397 24.8856 28.771C22.8994 30.0676 20.4353 30.8328 17.6805 30.8328C16.1384 30.8328 14.6222 30.7465 13.2334 30.5215C14.054 31.4966 15.0514 32.3061 16.2115 32.8708C23.4056 36.3766 23.8599 29.8641 31.4713 26.5595C35.7455 24.7036 35.7612 21.0758 33.786 17.7269Z" fill="#0095D9"/>
<path fill-rule="evenodd" clip-rule="evenodd" d="M24.8837 10.9496C25.9447 11.1444 26.9516 11.4961 27.8531 12.0094C30.2692 13.3869 32.47 15.4946 33.7865 17.7267C35.0826 14.0482 34.4789 11.1563 31.6431 10.6328C28.5267 10.0585 26.0901 9.87393 23.7487 8.22638C20.8649 6.19704 18.3372 6.86636 16.1436 8.91788C16.2984 8.92263 16.4564 8.92976 16.6191 8.93926C19.6624 9.11986 22.5666 9.71709 24.8837 10.9496Z" fill="#EEE809"/>
<path fill-rule="evenodd" clip-rule="evenodd" d="M14.6394 10.5001C9.62715 16.2095 8.32949 23.6615 11.5536 27.7519C10.1058 24.3277 10.2064 20.0567 12.2468 16.6468C14.9632 12.1065 20.4116 10.1271 24.8838 10.95C22.5668 9.71676 19.6626 9.12032 16.62 8.93893C16.4565 8.92942 16.2986 8.92309 16.1437 8.91754C15.6729 9.35794 15.1801 9.88389 14.6394 10.5001Z" fill="#51B849"/>
<path fill-rule="evenodd" clip-rule="evenodd" d="M27.8532 12.0097C26.9517 11.4957 25.9449 11.1448 24.8838 10.9499C27.935 12.5729 29.9652 15.3001 29.9424 19.6439C29.9219 23.4127 27.99 26.7434 24.8861 28.7712C26.6043 27.7399 28.2698 26.3157 29.7663 24.5073C31.688 22.1865 33.0462 19.8285 33.7866 17.727C32.4701 15.4949 30.2693 13.3864 27.8532 12.0097Z" fill="#00845D"/>
<path fill-rule="evenodd" clip-rule="evenodd" d="M24.381 26.7059C20.936 28.9365 16.3428 27.9416 14.1208 24.4833C11.8988 21.0251 12.9976 16.5719 16.3341 14.1814C20.0652 11.5089 24.8502 12.5632 26.5943 16.404C28.2952 20.149 27.8252 24.4754 24.381 26.7059ZM24.8832 10.9497C20.411 10.1275 14.9626 12.1061 12.2462 16.6464C10.2058 20.0563 10.1044 24.3281 11.553 27.7515C11.9814 28.7638 12.5433 29.7024 13.2334 30.5222C14.6223 30.7472 16.1384 30.8327 17.6797 30.8327C20.4354 30.8327 22.8994 30.0676 24.8848 28.7709C27.9894 26.744 29.9214 23.4124 29.941 19.6437C29.9646 15.2998 27.9336 12.5727 24.8832 10.9497Z" fill="#005121"/>
</svg>
