<?xml version="1.0" encoding="UTF-8"?>
<svg width="40px" height="40px" viewBox="0 0 40 40" version="1.1" xmlns="http://www.w3.org/2000/svg" xmlns:xlink="http://www.w3.org/1999/xlink">
    <title>bico</title>
    <g id="mobile" stroke="none" stroke-width="1" fill="none" fill-rule="evenodd">
        <g id="bico" fill-rule="nonzero">
            <rect id="Rectangle-Copy-7" fill="#000000" x="0" y="0" width="40" height="40" rx="20"></rect>
            <g id="6100df65c0cae4323fd168cd_dropdown4_icon1" transform="translate(13.000000, 10.000000)">
                <path d="M9.999906,0.672001 C9.263906,0.248001 8.407906,0 7.495906,0 L2.503906,0 C3.887906,0 4.999906,1.120001 4.999906,2.496001 L4.999906,7.496001 L4.999906,9.999961 L7.495906,9.999961 C8.407906,9.999961 9.263906,9.751961 9.991906,9.327961 C10.543906,9.008001 11.023906,8.592001 11.415906,8.096001 C12.087906,7.240001 12.495906,6.168001 12.495906,5 C12.495906,3.152001 11.495906,1.536001 9.999906,0.672001 Z" id="Path" fill="#D85111"></path>
                <path d="M11.424006,8.096001 C11.032006,8.592001 10.552006,9.008001 10,9.327961 C9.263996,9.751961 8.407996,9.999961 7.503996,9.999961 L5,9.999961 L5,7.504001 L5,2.496001 C5,1.120001 3.879996,0 2.503996,0 C1.119996,0 0,1.120001 0,2.496001 L0,7.496001 L0,9.999961 L0,17.495961 L0,19.999961 L2.495996,19.999961 L8.743996,19.999961 C9.175996,19.999961 9.592006,19.959961 9.992006,19.871961 C12.848006,19.295961 14.9920386,16.767961 14.9920386,13.743961 C15,11.255961 13.536006,9.103961 11.424006,8.096001 Z" id="Path" fill="#FFFFFF"></path>
            </g>
        </g>
    </g>
</svg>