<?xml version="1.0" encoding="UTF-8"?>
<svg width="40px" height="40px" viewBox="0 0 40 40" version="1.1" xmlns="http://www.w3.org/2000/svg" xmlns:xlink="http://www.w3.org/1999/xlink">
    <title>skl</title>
    <g id="mobile" stroke="none" stroke-width="1" fill="none" fill-rule="evenodd">
        <g id="skl" fill-rule="nonzero">
            <rect id="Rectangle" fill="#1792B8" x="0" y="0" width="40" height="40" rx="20"></rect>
            <g id="skale-labs-vector-logo" transform="translate(8.500000, 10.000000)" fill="#FFFFFF">
                <polygon id="Path" points="0.5 10 0.5 20 18.5 20 18.5 17.6963351 2.67914626 17.6963351 2.67914626 2.26439791 18.5 2.26439791 18.5 0 0.5 0"></polygon>
                <path d="M18.2931022,4.00564756 C16.6619388,4.20895988 15.4968221,5.04762319 15.0566669,6.33103218 C14.9531009,6.64870768 14.9401552,6.75036383 14.9142637,7.20781655 C14.8754265,8.28791323 15.1084498,8.94867825 15.7427912,9.57132222 C16.3641868,10.1812592 17.1797685,10.5243487 18.8238776,10.8420242 C19.8854284,11.0453365 20.3644208,11.2105278 20.7398473,11.4900822 C21.1929483,11.8331717 21.3482972,12.5193508 21.0893823,13.0530456 C20.9599249,13.3198931 20.6492271,13.6121545 20.3644208,13.7392247 C19.6912423,14.0314862 18.5261256,13.9806581 17.8400013,13.6375685 C17.5422492,13.4850843 17.2186057,13.1674088 17.050311,12.8624403 C16.9079079,12.5828859 16.7784505,12.1254332 16.7784505,11.8585858 L16.7784505,11.6552735 L14.5,11.6552735 L14.5,11.8077577 C14.5,12.621007 14.7718606,13.5613264 15.19907,14.1839704 C15.4191476,14.5143529 15.8722486,14.9718056 16.1829464,15.1751179 C17.1150397,15.7977619 18.3966681,16.0900234 19.7300795,15.9756602 C21.0246536,15.874004 21.9438013,15.4927934 22.6169798,14.8066144 C23.057135,14.3491617 23.3289956,13.8281738 23.4455073,13.1928229 C23.5361274,12.7099561 23.510236,11.6298594 23.3937243,11.2359418 C23.0959722,10.2447943 22.3321735,9.59673626 20.9728707,9.15199057 C20.7269016,9.07574845 20.3126379,8.96138527 20.053723,8.9105572 C19.1475211,8.73265892 18.4355054,8.55476064 18.1636448,8.44039746 C17.503412,8.17355005 17.2315514,7.83046052 17.2315514,7.29676568 C17.2315514,6.69953576 17.5940322,6.31832516 18.3189937,6.14042689 C18.7332574,6.03877073 19.4970562,6.05147775 19.8465912,6.17854794 C20.506824,6.4072743 20.9469792,6.91555509 21.0505451,7.53819906 L21.0893823,7.79233946 L23.3289956,7.79233946 L23.3031041,7.42383588 C23.2513211,6.6614147 23.0830265,6.17854794 22.6946543,5.60673206 C22.1638789,4.84431087 21.3224057,4.32332306 20.2220177,4.0945967 C19.9631028,4.04376862 19.704188,4.01835458 19.1604669,4.00564756 C18.7462032,3.99294054 18.3578309,4.00564756 18.2931022,4.00564756 L18.2931022,4.00564756 Z" id="Shape"></path>
            </g>
        </g>
    </g>
</svg>