<?xml version="1.0" encoding="UTF-8"?>
<svg width="40px" height="40px" viewBox="0 0 40 40" version="1.1" xmlns="http://www.w3.org/2000/svg" xmlns:xlink="http://www.w3.org/1999/xlink">
    <title>sushi copy</title>
    <defs>
        <linearGradient x1="35.5353448%" y1="7.97628809%" x2="51.4344828%" y2="54.0384686%" id="linearGradient-1">
            <stop stop-color="#03B8FF" offset="0%"></stop>
            <stop stop-color="#FA52A0" offset="100%"></stop>
        </linearGradient>
        <linearGradient x1="36.5085128%" y1="14.7255042%" x2="55.5162467%" y2="64.1478026%" id="linearGradient-2">
            <stop stop-color="#03B8FF" offset="0%"></stop>
            <stop stop-color="#FA52A0" offset="100%"></stop>
        </linearGradient>
        <linearGradient x1="28.7245071%" y1="-6.93183969%" x2="47.7931559%" y2="44.8579434%" id="linearGradient-3">
            <stop stop-color="#03B8FF" offset="0%"></stop>
            <stop stop-color="#FA52A0" offset="100%"></stop>
        </linearGradient>
    </defs>
    <g id="mobile" stroke="none" stroke-width="1" fill="none" fill-rule="evenodd">
        <g id="sushi-copy">
            <rect id="Rectangle-Copy-7" fill="#000000" fill-rule="nonzero" x="0" y="0" width="40" height="40" rx="20"></rect>
            <g id="Group-7" transform="translate(9.000000, 10.000000)">
                <path d="M16.1630507,19.7150121 C17.1782263,18.8871901 21.2389289,13.4910168 21.821092,11.8441624 C22.4032551,10.197308 21.821092,6.88377048 16.1630507,2.81865294 C10.5050094,-1.24646459 6.05228051,0.116216446 4.99611874,0.675105174 C3.93995698,1.2339939 0,6.74580014 0,8.09484347 C0,9.44388679 1.64613311,13.7876702 5.6729025,16.6826521 C9.69967189,19.577634 15.1478751,20.5428342 16.1630507,19.7150121 Z" id="Path-2" fill="#FFFFFF"></path>
                <g id="sushiswap-sushi-logo" transform="translate(1.000000, 1.000000)">
                    <polygon id="Path" fill="url(#linearGradient-1)" fill-rule="nonzero" points="4.10057471 1 19.3333333 11.4205128 15.566092 17 0.333333333 6.4974359"></polygon>
                    <path d="M19.6676086,11.3095467 C18.3484502,13.1723221 13.8962903,12.44341 9.69147267,9.52776146 C5.40420763,6.6931032 3.0956803,2.88656211 4.33239137,1.02378668 C5.65154985,-0.838988748 10.1037097,-0.110076624 14.3085273,2.80557187 C18.5957924,5.5592399 20.9043197,9.44677122 19.6676086,11.3095467 Z" id="Path" fill="url(#linearGradient-2)" fill-rule="nonzero"></path>
                    <path d="M15.6660454,16.955403 C14.3426594,18.8560427 9.87623145,18.1123141 5.65793843,15.1373999 C1.43964541,12.1624857 -0.958991792,8.36120643 0.364394253,6.37793029 C1.6877803,4.47729065 6.1542082,5.22101921 10.3725012,8.19593342 C14.5907942,11.1708476 16.9067198,15.0547634 15.6660454,16.955403 Z" id="Path" fill="url(#linearGradient-3)" fill-rule="nonzero"></path>
                    <path d="M19.3584906,11.4713716 C19.3584906,11.4713716 19.3584906,11.4713716 19.3584906,11.4713716 L15.5781971,16.9941442 L15.5781971,16.9941442 C14.2633124,18.8621408 9.82557652,18.0499684 5.63438155,15.2073648 C4.81257862,14.6388441 4.07295597,14.0703234 3.33333333,13.4205854 C3.90859539,13.3393682 4.64821803,13.0144992 5.38784067,12.2023268 C6.70272537,10.8216336 7.36016771,10.4967646 7.93542977,10.5779819 C8.51069182,10.5779819 9.16813417,11.1465026 10.236478,12.5271957 C11.3048218,13.9078889 12.7840671,14.3139751 13.6880503,13.5830199 C13.7702306,13.5018027 13.8524109,13.5018027 13.9345912,13.4205854 C14.6742138,12.8520647 14.9207547,12.608413 16.3178197,10.0094612 C16.6465409,9.3597232 17.797065,8.30389902 19.3584906,8.79120249 C19.769392,9.84702667 19.769392,10.7404164 19.3584906,11.4713716 Z" id="Path" fill="#0E0F23" fill-rule="nonzero"></path>
                    <path d="M19.0720446,11.159462 C17.9236121,12.7954378 13.904098,11.9774499 10.0486458,9.2780898 C6.11116269,6.57872971 3.81429753,3.14318049 4.96273011,1.50720468 C6.11116269,-0.12877114 10.1306767,0.689216768 13.9861289,3.38857686 C17.8415812,6.08793696 20.1384463,9.52348617 19.0720446,11.159462 Z M15.4626851,8.70549827 C14.8884688,9.52348617 12.9197273,9.11449222 10.9509857,7.80571157 C9.06427503,6.49693091 7.91584245,4.77915631 8.49005874,3.9611684 C9.06427503,3.14318049 11.0330166,3.55217445 13.0017582,4.8609551 C14.8884688,6.16973575 16.0369014,7.88751036 15.4626851,8.70549827 Z" id="Shape" fill="#FFFFFF"></path>
                    <path d="M4.08619288,2.7972686 C4.08619288,2.70491909 4.01952621,2.61256957 3.95285955,2.70491909 C3.88619288,2.7972686 3.81952621,2.7972686 3.81952621,2.88961812 C3.88619288,3.16666667 3.95285955,3.3513657 3.95285955,3.53606473 C3.95285955,3.62841424 4.01952621,3.72076376 4.08619288,3.62841424 C4.15285955,3.62841424 4.21952621,3.53606473 4.15285955,3.44371521 C4.15285955,3.25901618 4.15285955,3.07431715 4.08619288,2.7972686 Z" id="Path" fill="#FFFFFF" fill-rule="nonzero"></path>
                    <path d="M4.23723229,4.44668403 C4.23723229,4.36653299 4.15815486,4.28638194 4.07907743,4.36653299 C4,4.44668403 4,4.44668403 4,4.52683508 C4.86985173,6.53061132 6.68863262,8.69468966 9.06095552,10.2977106 C9.14003295,10.3778617 9.21911038,10.2977106 9.29818781,10.2977106 C9.37726524,10.2175596 9.29818781,10.1374085 9.29818781,10.0572575 C6.84678748,8.45423651 5.10708402,6.37030922 4.23723229,4.44668403 Z" id="Path" fill="#FFFFFF" fill-rule="nonzero"></path>
                    <path d="M14.1538462,12.1333333 C14.0769231,12.1333333 14,12.1333333 14,12.2 C14,12.2666667 14,12.3333333 14.0769231,12.3333333 C14.3076923,12.4 14.6153846,12.4666667 14.8461538,12.5333333 C14.9230769,12.5333333 15,12.5333333 15,12.4666667 C15,12.4 15,12.3333333 14.9230769,12.3333333 C14.6923077,12.2666667 14.3846154,12.2 14.1538462,12.1333333 Z" id="Path" fill="#FFFFFF" fill-rule="nonzero"></path>
                    <path d="M15.8333333,12.4861929 C15.75,12.4861929 15.6666667,12.5528595 15.6666667,12.6195262 C15.6666667,12.6861929 15.75,12.7528595 15.8333333,12.7528595 C16.5,12.8195262 17.25,12.8861929 17.8333333,12.8195262 C17.9166667,12.8195262 18,12.7528595 18,12.6861929 C18,12.6195262 17.9166667,12.5528595 17.8333333,12.5528595 C17.1666667,12.6195262 16.5,12.5528595 15.8333333,12.4861929 Z" id="Path" fill="#FFFFFF" fill-rule="nonzero"></path>
                </g>
            </g>
        </g>
    </g>
</svg>