<?xml version="1.0" encoding="UTF-8"?>
<svg width="40px" height="40px" viewBox="0 0 40 40" version="1.1" xmlns="http://www.w3.org/2000/svg" xmlns:xlink="http://www.w3.org/1999/xlink">
    <title>t</title>
    <g id="mobile" stroke="none" stroke-width="1" fill="none" fill-rule="evenodd">
        <g id="t" transform="translate(0.000000, 0.000000)" fill-rule="nonzero">
            <rect id="Rectangle-Copy-7" fill="#7D00F3" x="0" y="0" width="40" height="40" rx="20"></rect>
            <path d="M34,13 L25,13 L25,16 L34,16 L34,13 Z M19,16 L16,16 L16,19 L19,19 L19,16 Z M16,31 L19,31 L19,22 L16,22 L16,31 Z M22,16 L22,19 L25,19 L25,16 L22,16 Z M22,31 L25,31 L25,22 L22,22 L22,31 Z M22,13 L19,13 L19,16 L22,16 L22,13 Z M7,13 L7,16 L16,16 L16,13 L7,13 Z M34,22 L34,19 L25,19 L25,22 L34,22 Z M19,19 L19,22 L22,22 L22,19 L19,19 Z M7,19 L7,22 L16,22 L16,19 L7,19 Z" id="Shape" fill="#FCF9FF"></path>
        </g>
    </g>
</svg>