<?xml version="1.0" encoding="UTF-8"?>
<svg width="40px" height="40px" viewBox="0 0 40 40" version="1.1" xmlns="http://www.w3.org/2000/svg" xmlns:xlink="http://www.w3.org/1999/xlink">
    <title>uni</title>
    <g id="mobile" stroke="none" stroke-width="1" fill="none" fill-rule="evenodd">
        <g id="uni">
            <rect id="Rectangle" fill="#F80077" fill-rule="nonzero" x="0" y="0" width="40" height="40" rx="20"></rect>
            <g id="uniswap-uni-logo" transform="translate(7.000000, 5.000000)" fill="#FFFFFF">
                <path d="M9.27138634,6.08950003 C8.95733308,6.04480794 8.94237817,6.02991058 9.09192733,6.01501322 C9.37607075,5.97032113 10.0340871,6.02991058 10.4976895,6.13419212 C11.5744435,6.3874473 12.5465131,7.04293129 13.5784024,8.19002827 L13.8475909,8.5028729 L14.2364187,8.44328345 C15.8964145,8.17513091 17.601275,8.383694 19.0219921,9.03917799 C19.41082,9.21794635 20.0239715,9.57548307 20.0987461,9.66486725 C20.128656,9.69466198 20.1735207,9.8883277 20.2034306,10.0819934 C20.308115,10.7821695 20.2632502,11.3035772 20.0389265,11.705806 C19.9192871,11.9292665 19.9192871,11.9888559 19.9940617,12.1825217 C20.0538814,12.3314953 20.2333404,12.4357768 20.3978445,12.4357768 C20.7567625,12.4357768 21.1306354,11.869677 21.3100944,11.0801168 L21.384869,10.7672721 L21.5194632,10.9162458 C22.282164,11.7653955 22.8803607,12.9422872 22.9700902,13.7765395 L23,14 L22.8654057,13.8063343 C22.641082,13.4636949 22.4317132,13.2402345 22.1475697,13.0465687 C21.6391026,12.7039294 21.1007256,12.5996478 19.6800085,12.525161 C18.3938856,12.4506742 17.6610947,12.3463927 16.9432587,12.1080348 C15.7169555,11.705806 15.088849,11.1843983 13.6382221,9.26263844 C12.9951606,8.41348872 12.5913779,7.95167046 12.1875951,7.56433901 C11.305255,6.7151893 10.4229149,6.26826839 9.27138634,6.08950003 Z" id="Path" fill-rule="nonzero"></path>
                <path d="M20.8819627,8.42388491 C20.9098316,7.89856815 20.9795039,7.55296501 21.1327829,7.23501013 C21.1885207,7.110593 21.2442586,7 21.258193,7 C21.2721275,7 21.2442586,7.09676888 21.2024552,7.20736188 C21.0909796,7.51149264 21.0770451,7.94004053 21.1467174,8.42388491 C21.2442586,9.04597055 21.2860619,9.12891531 21.9549158,9.80629745 C22.2614738,10.1242523 22.6237697,10.525152 22.7631143,10.6910415 L23,10.9951722 L22.7631143,10.7739862 C22.4704907,10.4975037 21.8016368,9.97218695 21.6483578,9.90306633 C21.5508166,9.84776983 21.5368821,9.84776983 21.4672099,9.91689045 C21.411472,9.97218695 21.3975376,10.0551317 21.3975376,10.4560313 C21.3836031,11.078117 21.2999964,11.4651925 21.0909796,11.8660921 C20.9795039,12.073454 20.9655695,12.0319816 21.0631106,11.7969715 C21.1327829,11.6172579 21.1467174,11.5343131 21.1467174,10.9398757 C21.1467174,9.73717682 21.0073728,9.44687019 20.157371,8.9630258 C19.9483542,8.83860867 19.5860583,8.65889504 19.3770415,8.56212617 C19.1540902,8.46535729 18.9868767,8.38241254 19.0008112,8.38241254 C19.0286801,8.35476429 19.850813,8.58977442 20.1713055,8.72801567 C20.6590114,8.92155343 20.7426182,8.93537755 20.798356,8.92155343 C20.8401594,8.88008105 20.8680283,8.76948805 20.8819627,8.42388491 Z" id="Path" fill-rule="nonzero"></path>
                <path d="M9.90382394,10.6840229 C9.30913059,9.7786274 8.92682773,8.37370344 9.01178392,7.32781559 L9.04010265,7 L9.1816963,7.03122053 C9.43656488,7.07805133 9.87550521,7.26537453 10.0878957,7.40586692 C10.6542703,7.78051332 10.9091389,8.2956521 11.1498481,9.57569394 C11.2206449,9.95034033 11.3197605,10.3874278 11.3622386,10.5279202 C11.4330354,10.7620742 11.7020634,11.3084335 11.9286132,11.6518594 C12.0843662,11.9016236 11.9852507,12.0265058 11.6312665,11.9952852 C11.0932106,11.9328442 10.371083,11.3864848 9.90382394,10.6840229 Z" id="Path" fill-rule="nonzero"></path>
                <path d="M20.0371955,16.4081633 C17.0544914,15.2207792 16,14.1966605 16,12.4601113 C16,12.2077922 16.0150642,12 16.0150642,12 C16.0301283,12 16.1355775,12.0890538 16.2711549,12.1929499 C16.8737214,12.6679035 17.5516087,12.8756957 19.434629,13.1428571 C20.5343128,13.3061224 21.1670076,13.4248609 21.7394458,13.6178108 C23.5622094,14.2115028 24.6920216,15.4285714 24.9631765,17.0760668 C25.0384973,17.5510204 24.9933048,18.4564007 24.8727915,18.9313544 C24.7673424,19.3024119 24.4660591,19.9851577 24.3907383,20 C24.3756742,20 24.3455458,19.9257885 24.3455458,19.8070501 C24.3154175,19.1836735 23.9990701,18.5899814 23.4718244,18.1298701 C22.8391296,17.5955473 22.0256649,17.1948052 20.0371955,16.4081633 Z" id="Path" fill-rule="nonzero"></path>
                <path d="M18.4957345,16.815997 C18.465173,16.601261 18.3887691,16.329262 18.3429268,16.2147361 L18.2665229,16 L18.4040499,16.1574731 C18.6026999,16.3722092 18.7555076,16.6298924 18.8930346,16.9877859 C19,17.2597849 19,17.3456793 19,17.7894671 C19,18.2189392 18.9847192,18.3191494 18.8930346,18.5625169 C18.7402269,18.9490418 18.5568576,19.2210408 18.2512421,19.5216713 C17.7011343,20.0513536 16.982938,20.3376683 15.9591263,20.4665099 C15.775757,20.4808257 15.2562107,20.5237729 14.7977876,20.5524044 C13.6517296,20.6096673 12.887691,20.7241932 12.2000562,20.953245 C12.1083716,20.9818765 12.016687,21.0105079 12.0014062,20.9961922 C11.9708447,20.9675607 12.4445486,20.7098775 12.8265679,20.5380886 C13.361395,20.2947211 13.9115028,20.1658795 15.1186838,19.9654591 C15.7146339,19.8795647 16.3258648,19.7650388 16.4786725,19.7077759 C17.991469,19.263988 18.7402269,18.1616763 18.4957345,16.815997 Z" id="Path" fill-rule="nonzero"></path>
                <path d="M19.3697137,19.4847512 C18.9905202,18.6613162 18.903014,17.8812199 19.1071951,17.1444623 C19.1363638,17.0722311 19.1655326,17 19.1947013,17 C19.22387,17 19.3113762,17.0433387 19.3988824,17.1011236 C19.5738948,17.2166934 19.9385039,17.4189406 20.8719033,17.9245586 C22.053237,18.5601926 22.7241178,19.0513644 23.1908175,19.6147673 C23.5991797,20.105939 23.847114,20.6693419 23.9637889,21.3627608 C24.0367107,21.752809 23.9929576,22.6918138 23.890867,23.081862 C23.570011,24.3097913 22.8407927,25.2921348 21.776134,25.8555377 C21.615706,25.9422151 21.4844467,26 21.4698623,26 C21.455278,26 21.5136154,25.8555377 21.6011216,25.682183 C21.9511464,24.9454254 21.9948995,24.2375602 21.7323809,23.4430177 C21.5719529,22.9518459 21.2365125,22.3595506 20.5656317,21.3627608 C19.7634915,20.2070626 19.5738948,19.9036918 19.3697137,19.4847512 Z" id="Path" fill-rule="nonzero"></path>
                <path d="M8.32303341,23.804397 C9.46134163,22.8980298 10.8611531,22.2548015 12.1532867,22.0501379 C12.7070583,21.9624249 13.6300109,21.9916626 14.1376348,22.123232 C14.9529096,22.3278956 15.6912717,22.7664604 16.0758353,23.3073569 C16.4450163,23.8336346 16.6142243,24.2868182 16.7834323,25.2955172 C16.8449625,25.6902255 16.9218752,26.0995526 16.9372577,26.1872656 C17.0603181,26.7135433 17.3064388,27.1228705 17.6140897,27.3421528 C18.0909485,27.6783858 18.9216058,27.6930047 19.7368806,27.4006281 C19.8753235,27.3567717 19.9983839,27.3129152 19.9983839,27.327534 C20.029149,27.3567717 19.6138203,27.6199105 19.3369345,27.75148 C18.9523709,27.9415247 18.6447201,28 18.2293914,28 C17.4910293,28 16.860345,27.6345294 16.3527211,26.9035881 C16.2450433,26.7573998 16.0296877,26.3334539 15.8450972,25.9387456 C15.3067081,24.7546207 15.0298224,24.4037689 14.3991381,24.0090606 C13.8453665,23.6728276 13.1377695,23.5997334 12.5993805,23.8482535 C11.8917835,24.1698676 11.707193,25.0323784 12.1994344,25.5586561 C12.3994074,25.7779385 12.7685885,25.9533644 13.0762393,25.9972209 C13.6453934,26.070315 14.1376348,25.646369 14.1376348,25.1054725 C14.1376348,24.7546207 13.9991919,24.5499571 13.6300109,24.38915 C13.1377695,24.1844865 12.5993805,24.4183877 12.614763,24.8715713 C12.614763,25.061616 12.7070583,25.1785666 12.9070314,25.2662796 C13.0300917,25.3247549 13.0300917,25.3247549 12.9377964,25.3101361 C12.4917027,25.2224231 12.3840249,24.6961454 12.7378234,24.3599124 C13.1685346,23.9505853 14.0761047,24.1260112 14.3837555,24.6961454 C14.5068159,24.9300466 14.5221984,25.397849 14.4145206,25.6902255 C14.1530174,26.3334539 13.4146553,26.6696869 12.6609107,26.4796421 C12.1532867,26.3480727 11.9379311,26.2165033 11.3226294,25.6171314 C10.2458513,24.5645759 9.83052267,24.3599124 8.29226833,24.14063 L8,24.0967735 L8.32303341,23.804397 Z" id="Path" fill-rule="nonzero"></path>
                <path d="M0.524462125,0.609568813 C4.11387437,4.62138216 9.64434216,10.8588305 9.92163581,11.1990549 C10.1527138,11.4825753 10.0602826,11.7519197 9.67515256,11.9503839 C9.45947972,12.0637921 9.01272884,12.1772002 8.79705601,12.1772002 C8.55057276,12.1772002 8.25787391,12.0637921 8.05760627,11.8795038 C7.91895945,11.7519197 7.31815654,10.9438866 5.9624987,9.001772 C4.93035011,7.51329002 4.05225356,6.27997637 4.03684835,6.26580035 C3.97522754,6.23744832 3.97522754,6.23744832 5.85466228,9.32782044 C7.04086289,11.269935 7.42599296,11.96456 7.42599296,12.0496161 C7.42599296,12.2339043 7.36437215,12.3331364 7.1178889,12.5883048 C6.70194843,13.0135854 6.517086,13.49557 6.37843917,14.5020673 C6.22438715,15.6219728 5.80844667,16.4158299 4.62224606,17.7625517 C3.92901193,18.5564087 3.82117551,18.6981689 3.65171828,19.0242174 C3.43604545,19.4211459 3.37442463,19.6479622 3.34361423,20.1582989 C3.31280382,20.6969876 3.37442463,21.037212 3.54388187,21.5475487 C3.69793389,22.0011813 3.86739112,22.2988777 4.2833316,22.8800945 C4.63765126,23.3904312 4.8533241,23.7731837 4.8533241,23.9149439 C4.8533241,24.028352 4.88413451,24.028352 5.4387218,23.9149439 C6.76356924,23.6314235 7.85733864,23.1494389 8.45814154,22.5540461 C8.82786641,22.1854696 8.92029763,21.9870053 8.92029763,21.4766686 C8.92029763,21.1506202 8.90489242,21.0797401 8.81246121,20.8812758 C8.65840918,20.5694034 8.36571033,20.3142351 7.73409702,19.9173066 C6.90221607,19.3927939 6.5478964,18.9675133 6.45546519,18.4004725 C6.37843917,17.9184879 6.47087039,17.5924395 6.93302647,16.6993503 C7.41058776,15.777909 7.53382938,15.3951565 7.61085539,14.4595393 C7.657071,13.8641465 7.73409702,13.6231542 7.91895945,13.4388659 C8.11922708,13.2404017 8.28868431,13.1695216 8.7662456,13.1128175 C9.55191094,13.0135854 10.0602826,12.8292971 10.4608179,12.4748966 C10.8151376,12.1772002 10.9691896,11.8795038 10.9845948,11.4400473 L11,11.1139988 L10.7997324,10.9155346 C10.0756878,10.1500295 0.046900839,0 0.000685230766,0 C-0.014719972,0 0.231763272,0.269344359 0.524462125,0.609568813 Z M5.25385937,20.7678677 C5.4233166,20.4985233 5.33088539,20.1582989 5.05359174,19.9881867 C4.79170329,19.8322504 4.39116802,19.9031305 4.39116802,20.1157708 C4.39116802,20.1724749 4.42197842,20.229179 4.51440964,20.257531 C4.65305646,20.3284111 4.66846167,20.3992912 4.56062525,20.5552274 C4.45278883,20.7111636 4.45278883,20.8529238 4.59143565,20.9521559 C4.80710849,21.1080921 5.09980734,21.023036 5.25385937,20.7678677 Z" id="Shape"></path>
                <path d="M10.6843303,13.0366361 C10.3912483,13.1415487 10.110378,13.531224 10.0248958,13.9208993 C9.97604875,14.1606994 10.0004723,14.5953372 10.0859545,14.7302248 C10.2202838,14.94005 10.3424013,15 10.6843303,15 C11.3559766,15 11.9299288,14.6402998 11.9909876,14.2056619 C12.0520463,13.8459617 11.7955996,13.3513739 11.4414588,13.1265612 C11.2582825,13.0066611 10.8797183,12.9616986 10.6843303,13.0366361 Z M11.4658823,13.7860117 C11.5635763,13.6061615 11.5269411,13.4113239 11.3437648,13.2764363 C11.0140475,13.0216486 10.5133658,13.2314738 10.5133658,13.621149 C10.5133658,13.8159867 10.7698125,14.0258118 11.0140475,14.0258118 C11.1728003,14.0258118 11.3926118,13.9059117 11.4658823,13.7860117 Z" id="Shape"></path>
            </g>
        </g>
    </g>
</svg>