<svg width="40" height="40" viewBox="0 0 40 40" fill="none" xmlns="http://www.w3.org/2000/svg">
<path d="M20 40C31.0457 40 40 31.0457 40 20C40 8.9543 31.0457 0 20 0C8.9543 0 0 8.9543 0 20C0 31.0457 8.9543 40 20 40Z" fill="#2775CA"/>
<path d="M16.25 33.9063C16.25 34.375 15.875 34.6406 15.4375 34.5C9.375 32.5625 5 26.9063 5 20.2031C5 13.5156 9.375 7.84376 15.4375 5.90626C15.8906 5.76563 16.25 6.03126 16.25 6.50001V7.67188C16.25 7.98438 16.0156 8.34376 15.7188 8.45313C10.9219 10.2188 7.5 14.8281 7.5 20.2031C7.5 25.5938 10.9219 30.1875 15.7188 31.9375C16.0156 32.0469 16.25 32.4063 16.25 32.7188V33.9063Z" fill="white"/>
<path d="M21.2499 29.5781C21.2499 29.9219 20.9687 30.2031 20.6249 30.2031H19.3749C19.0312 30.2031 18.7499 29.9219 18.7499 29.5781V27.6094C16.0156 27.2344 14.6874 25.7187 14.3281 23.625C14.2656 23.2656 14.5468 22.9531 14.9062 22.9531H16.3281C16.6249 22.9531 16.8749 23.1719 16.9374 23.4531C17.2031 24.6875 17.9218 25.6406 20.1093 25.6406C21.7187 25.6406 22.8749 24.7344 22.8749 23.3906C22.8749 22.0469 22.2031 21.5312 19.8281 21.1406C16.3281 20.6719 14.6718 19.6094 14.6718 16.875C14.6718 14.7656 16.2812 13.1094 18.7499 12.7656V10.8281C18.7499 10.4844 19.0312 10.2031 19.3749 10.2031H20.6249C20.9687 10.2031 21.2499 10.4844 21.2499 10.8281V12.8125C23.2656 13.1719 24.5468 14.3125 24.9687 16.2188C25.0468 16.5781 24.7656 16.9062 24.3906 16.9062H23.0781C22.7968 16.9062 22.5624 16.7188 22.4843 16.4531C22.1249 15.25 21.2656 14.7187 19.7656 14.7187C18.1093 14.7187 17.2499 15.5156 17.2499 16.6406C17.2499 17.8281 17.7343 18.4219 20.2812 18.7812C23.7187 19.25 25.4999 20.2344 25.4999 23.1562C25.4999 25.375 23.8437 27.1719 21.2656 27.5781V29.5781H21.2499Z" fill="white"/>
<path d="M24.5625 34.5C24.1094 34.6406 23.75 34.375 23.75 33.9063V32.7344C23.75 32.3906 23.9531 32.0625 24.2812 31.9531C29.0625 30.2031 32.5 25.5938 32.5 20.2188C32.5 14.8281 29.0781 10.2344 24.2812 8.48438C23.9844 8.37501 23.75 8.01563 23.75 7.70313V6.53126C23.75 6.06251 24.125 5.79688 24.5625 5.93751C30.625 7.84376 35 13.5156 35 20.2031C35 26.9063 30.625 32.5625 24.5625 34.5Z" fill="white"/>
</svg>
