<?xml version="1.0" encoding="UTF-8"?>
<svg width="40px" height="40px" viewBox="0 0 40 40" version="1.1" xmlns="http://www.w3.org/2000/svg" xmlns:xlink="http://www.w3.org/1999/xlink">
    <title>ust</title>
    <g id="mobile" stroke="none" stroke-width="1" fill="none" fill-rule="evenodd">
        <g id="ust" fill-rule="nonzero">
            <rect id="Rectangle" fill="#2643AC" x="0" y="0" width="40" height="40" rx="20"></rect>
            <g id="Group-2" transform="translate(6.500000, 7.000000)">
                <path d="M11.6295628,20.5121521 C12.4247458,23.102779 15.2836179,25.0807127 16.726307,24.9974663 C16.7755326,24.9941365 22.1979231,24.1050653 25.1666062,19.7429557 C27.4764234,16.3498338 26.6888136,13.0732568 23.5497342,13 C22.4175451,13.0765867 10.111142,15.5773075 11.6295628,20.5121521" id="Path" fill="#8496C2"></path>
                <path d="M23.5330292,3.09574826 C23.5292596,3.09574826 23.5292596,3.09574826 23.5330292,3.09574826 L23.5330292,3.09218584 C21.1355403,1.1613509 18.0293598,0 14.6366868,0 C12.653858,0 10.7690397,0.402554147 9.06516393,1.11860179 C8.75982336,1.23972428 8.46956134,1.37509647 8.19437787,1.52115594 C8.0021264,1.61734144 7.80987494,1.71352694 7.62139311,1.82039973 L7.66662875,1.83464943 C7.10118325,2.20157932 6.61490013,2.63263287 6.21908829,3.13137252 C2.27981803,8.04752051 15.4848551,11.6241963 22.5453844,11.6348836 C25.7948112,13.8400253 26.7070633,5.43269977 23.5330292,3.09574826 Z" id="Path" fill="#8496C2"></path>
                <path d="M9.17102032,4.02820902 C7.60090935,6.50105071 2.36829421,8.24537887 1.50652853,7.97175876 C1.50326426,7.96833851 1.50326426,7.96491826 1.5,7.96149801 C1.5359069,7.88625248 1.57181381,7.8144272 1.60772071,7.73918168 C1.90476873,7.13721745 2.24751645,6.56261523 2.62617107,6.01879527 C3.00482569,5.47497532 3.42591574,4.96535787 3.87964843,4.48994294 C4.33338112,4.01452801 4.81975645,3.57673585 5.33877442,3.17656645 C5.66193655,2.93030835 5.99489148,2.69773126 6.3376392,2.48225543 C7.06883432,2.03762276 7.81961504,2.01026075 8.0676991,2 C10.4016478,2.04788352 9.18407737,4.00768751 9.17102032,4.02820902" id="Path" fill="#E7E7E7"></path>
                <path d="M8.45248852,20.7393343 C8.57092984,21.544185 8.44910448,24.7281322 8.29343875,24.9975977 C8.15807724,25.0046889 7.87720212,25.0259624 7.058265,24.5437611 C6.62849222,24.288478 6.21563962,24.0048302 5.81632318,23.6999087 C5.27826119,23.2886193 4.77403958,22.8312372 4.30365834,22.338399 C3.8332771,21.8455609 3.40012028,21.3172668 3.00418787,20.7535166 C2.60825547,20.1897665 2.25631555,19.594106 1.94836812,18.9700808 C1.64042069,18.3460555 1.37646576,17.6936654 1.15988735,17.0164562 C0.946692972,16.3392469 0.780875126,15.6407641 0.669201883,14.9210076 C0.55752864,14.2012512 0.5,13.4637668 0.5,12.7121 C0.5,11.9604332 0.55752864,11.2229487 0.669201883,10.5031923 C0.780875126,9.78343588 0.946692972,9.08495304 1.15988735,8.40774379 C1.20387984,8.26946546 1.24787232,8.13473273 1.29524885,8 L1.29524885,8 C2.23262729,9.30478013 3.31551934,10.4854643 4.23597759,11.8044268 C5.11244334,13.0595686 6.32054479,15.1053787 6.5641955,15.5414873 C8.09378053,18.2609611 8.33743124,19.9380291 8.45248852,20.7393343" id="Path" fill="#E7E7E7"></path>
                <path d="M27.5,12.7103114 C27.5,14.4364392 27.1440452,16.0828463 26.4995797,17.5975408 C24.8059842,19.2820752 13.3854553,15.1365955 13.2730486,15.0915359 C11.7105943,14.4572359 6.95578754,12.5300731 6.52864177,9.50415019 C5.91040448,5.14723713 15.4612339,2.11438197 19.6540068,2 C20.1560904,2.00693224 21.6885695,2.02079672 22.5803299,2.69322404 C25.5965785,5.12990652 27.5,8.71387479 27.5,12.7103114" id="Path" fill="#E7E7E7"></path>
                <path d="M20.7547955,24.7491037 C19.54402,25.3151148 18.2092493,24.9024744 18.5557062,23.7229802 C19.2194446,21.4552838 25.032626,19.1291605 26.3163399,19.0013516 C26.4731572,18.9867448 26.5424485,19.0926437 26.4731572,19.216801 C25.1310927,21.5611827 23.1508182,23.492924 20.7547955,24.7491037" id="Path" fill="#FCFCFC"></path>
            </g>
            <g id="United-states_flag_icon_round" transform="translate(18.000000, 18.000000)">
                <circle id="Oval" fill="#F0F0F0" cx="9" cy="9" r="9"></circle>
                <g id="Group" transform="translate(0.000000, 3.000000)" fill="#D80027">
                    <path d="M8.45964286,6.59737418 L18,6.59737418 C18,5.83897155 17.89,5.10426696 17.6850357,4.40537199 L8.45964286,4.40537199 L8.45964286,6.59737418 Z" id="Path"></path>
                    <path d="M8.45964286,2.21340263 L16.6580714,2.21340263 C16.0983929,1.37405908 15.3827857,0.632166302 14.5484286,0.0214004376 L8.45964286,0.0214004376 L8.45964286,2.21340263 Z" id="Path"></path>
                    <path d="M8.85714286,15 C11.0088929,15 12.9866429,14.3164989 14.5484286,13.1733479 L3.16585714,13.1733479 C4.72764286,14.3164989 6.70539286,15 8.85714286,15 Z" id="Path"></path>
                    <path d="M1.05621429,10.9813457 L16.6580714,10.9813457 C17.1073929,10.3075274 17.4558571,9.57098468 17.6850357,8.78934354 L0.02925,8.78934354 C0.258428571,9.57098468 0.606892857,10.3075274 1.05621429,10.9813457 Z" id="Path"></path>
                </g>
                <path d="M4.16896875,1.40547656 L4.98912891,1.40547656 L4.22623828,1.95971484 L4.51764844,2.85651563 L3.75479297,2.30227734 L2.9919375,2.85651562 L3.24365625,2.08177734 C2.57196094,2.64128906 1.98323437,3.2968125 1.49807813,4.02721875 L1.76087109,4.02721875 L1.27525781,4.38001172 C1.19960156,4.50622266 1.12703906,4.6344375 1.0575,4.76455078 L1.28939063,5.47825781 L0.856757813,5.16392578 C0.749214844,5.39177344 0.650847656,5.62475391 0.562429688,5.86258594 L0.817910156,6.64896094 L1.76087109,6.64896094 L0.997980469,7.20319922 L1.28939063,8.1 L0.526535156,7.54576172 L0.0695742188,7.87777734 C0.0238359375,8.24544141 0,8.61992578 0,9 L9,9 C9,4.02946875 9,3.44348438 9,0 C7.22207812,0 5.56470703,0.515742188 4.16896875,1.40547656 Z M4.51764844,8.1 L3.75479297,7.54576172 L2.9919375,8.1 L3.28334766,7.20319922 L2.52045703,6.64896094 L3.46341797,6.64896094 L3.75479297,5.75216016 L4.04616797,6.64896094 L4.98912891,6.64896094 L4.22623828,7.20319922 L4.51764844,8.1 Z M4.22623828,4.58145703 L4.51764844,5.47825781 L3.75479297,4.92401953 L2.9919375,5.47825781 L3.28334766,4.58145703 L2.52045703,4.02721875 L3.46341797,4.02721875 L3.75479297,3.13041797 L4.04616797,4.02721875 L4.98912891,4.02721875 L4.22623828,4.58145703 Z M7.74590625,8.1 L6.98305078,7.54576172 L6.22019531,8.1 L6.51160547,7.20319922 L5.74871484,6.64896094 L6.69167578,6.64896094 L6.98305078,5.75216016 L7.27442578,6.64896094 L8.21738672,6.64896094 L7.45449609,7.20319922 L7.74590625,8.1 Z M7.45449609,4.58145703 L7.74590625,5.47825781 L6.98305078,4.92401953 L6.22019531,5.47825781 L6.51160547,4.58145703 L5.74871484,4.02721875 L6.69167578,4.02721875 L6.98305078,3.13041797 L7.27442578,4.02721875 L8.21738672,4.02721875 L7.45449609,4.58145703 Z M7.45449609,1.95971484 L7.74590625,2.85651563 L6.98305078,2.30227734 L6.22019531,2.85651563 L6.51160547,1.95971484 L5.74871484,1.40547656 L6.69167578,1.40547656 L6.98305078,0.508675781 L7.27442578,1.40547656 L8.21738672,1.40547656 L7.45449609,1.95971484 Z" id="Shape" fill="#0052B4"></path>
            </g>
        </g>
    </g>
</svg>