<svg width="40" height="40" viewBox="0 0 40 40" fill="none" xmlns="http://www.w3.org/2000/svg">
<g clip-path="url(#clip0)">
<path d="M19.9963 40C16.041 39.9993 12.1747 38.8258 8.88632 36.6278C5.5979 34.4299 3.03502 31.3063 1.52172 27.652C0.00841892 23.9976 -0.387339 19.9766 0.384482 16.0973C1.1563 12.218 3.06104 8.65467 5.85787 5.85784C8.6547 3.06101 12.218 1.15627 16.0973 0.384451C19.9766 -0.38737 23.9976 0.0083884 27.652 1.52169C31.3064 3.03499 34.43 5.59787 36.6279 8.88629C38.8258 12.1747 39.9993 16.041 40 19.9963C40.0005 22.6234 39.4834 25.2248 38.4783 27.652C37.4732 30.0791 35.9998 32.2845 34.1421 34.1421C32.2845 35.9997 30.0792 37.4732 27.652 38.4783C25.2248 39.4834 22.6234 40.0005 19.9963 40Z" fill="white"/>
<path d="M32.6159 8.39465L31.5176 9.49294C34.1383 12.3589 35.5916 16.1018 35.5916 19.9853C35.5916 23.8689 34.1383 27.6118 31.5176 30.4777L32.6159 31.576C35.5304 28.4147 37.1485 24.2724 37.1485 19.9725C37.1485 15.6727 35.5304 11.5304 32.6159 8.36902V8.39465Z" fill="#5A5564"/>
<path d="M9.51846 8.48984C12.3844 5.86912 16.1273 4.4158 20.0109 4.4158C23.8944 4.4158 27.6373 5.86912 30.5033 8.48984L31.6016 7.39154C28.4402 4.47703 24.2979 2.85892 19.998 2.85892C15.6982 2.85892 11.5559 4.47703 8.39453 7.39154L9.51846 8.48984Z" fill="#5A5564"/>
<path d="M8.4903 30.4887C5.87269 27.6234 4.42128 23.8828 4.42128 20.0018C4.42128 16.1209 5.87269 12.3802 8.4903 9.51492L7.392 8.41663C4.47749 11.578 2.85938 15.7203 2.85938 20.0201C2.85938 24.32 4.47749 28.4623 7.392 31.6237L8.4903 30.4887Z" fill="#5A5564"/>
<path d="M30.4884 31.5028C27.6224 34.1236 23.8795 35.5769 19.996 35.5769C16.1124 35.5769 12.3695 34.1236 9.50357 31.5028L8.40527 32.6011C11.5666 35.5157 15.709 37.1338 20.0088 37.1338C24.3086 37.1338 28.451 35.5157 31.6123 32.6011L30.4884 31.5028Z" fill="#5A5564"/>
<path d="M26.9342 16.3353C26.7145 14.0436 24.7376 13.2748 22.2371 13.0404V9.88467H20.3041V12.9819C19.7953 12.9819 19.2754 12.9819 18.7592 12.9819V9.88467H16.8408V13.0624H12.9199V15.1309C12.9199 15.1309 14.3477 15.1052 14.3257 15.1309C14.5832 15.1026 14.8416 15.1753 15.0464 15.3337C15.2513 15.4922 15.3867 15.7239 15.424 15.9802V24.6787C15.4185 24.7691 15.395 24.8575 15.3547 24.9386C15.3145 25.0197 15.2584 25.092 15.1897 25.151C15.1224 25.2112 15.0436 25.2571 14.958 25.2861C14.8724 25.315 14.7819 25.3264 14.6918 25.3194C14.7175 25.3414 13.286 25.3194 13.286 25.3194L12.9199 27.6295H16.8042V30.8585H18.7372V27.6771H20.2822V30.8439H22.2188V27.6515C25.4844 27.4538 27.7616 26.6484 28.0471 23.5914C28.2778 21.1312 27.1209 20.0329 25.2721 19.59C26.396 19.0372 27.0916 18.0121 26.9342 16.3353ZM24.2251 23.2107C24.2251 25.6123 20.1101 25.3377 18.7995 25.3377V21.0763C20.1101 21.08 24.2251 20.7029 24.2251 23.2107ZM23.3281 17.2067C23.3281 19.4033 19.8941 19.136 18.8031 19.136V15.2627C19.8941 15.2627 23.3281 14.9185 23.3281 17.2067Z" fill="#F09242"/>
<path d="M19.9963 40C16.041 39.9993 12.1747 38.8258 8.88632 36.6278C5.5979 34.4299 3.03502 31.3063 1.52172 27.652C0.00841897 23.9976 -0.387339 19.9766 0.384482 16.0973C1.1563 12.218 3.06104 8.65467 5.85787 5.85784C8.6547 3.06101 12.218 1.15627 16.0973 0.384451C19.9766 -0.38737 23.9976 0.00838846 27.652 1.52169C31.3064 3.03499 34.43 5.59787 36.6279 8.88629C38.8258 12.1747 39.9993 16.041 40 19.9963C40.0005 22.6234 39.4834 25.2248 38.4783 27.652C37.4732 30.0791 35.9998 32.2845 34.1421 34.1421C32.2845 35.9997 30.0792 37.4732 27.652 38.4783C25.2248 39.4834 22.6234 40.0005 19.9963 40ZM19.9963 1.55956C16.3523 1.56246 12.7909 2.6456 9.76226 4.67209C6.73364 6.69858 4.37377 9.57744 2.98092 12.9448C1.58807 16.3122 1.22476 20.0169 1.93693 23.5907C2.64909 27.1645 4.40475 30.4469 6.982 33.0232C9.55925 35.5994 12.8424 37.3537 16.4165 38.0645C19.9906 38.7752 23.6951 38.4105 27.0619 37.0163C30.4287 35.6221 33.3067 33.2611 35.332 30.2316C37.3572 27.2022 38.439 23.6404 38.4404 19.9963C38.4414 17.5743 37.9649 15.1758 37.0383 12.938C36.1116 10.7003 34.753 8.66712 33.04 6.95482C31.327 5.24253 29.2933 3.88467 27.0552 2.95891C24.817 2.03315 22.4184 1.55764 19.9963 1.55956Z" fill="#282138"/>
</g>
<defs>
<clipPath id="clip0">
<rect width="40" height="40" fill="white"/>
</clipPath>
</defs>
</svg>
