<svg width="16px" height="22px" viewBox="0 0 16 22" version="1.1" xmlns="http://www.w3.org/2000/svg" xmlns:xlink="http://www.w3.org/1999/xlink">
    <g id="Page-1" stroke="none" stroke-width="1" fill="none" fill-rule="evenodd">
        <g id="Artboard" transform="translate(-1089.000000, -98.000000)" fill="#00ABFB">
            <g id="Group" transform="translate(1070.000000, 83.000000)">
                <path d="M26.9970856,15.3999 C26.7111496,15.410836 26.3798856,15.529588 26.1720856,15.7249 L19.3720856,22.1249 C18.9830216,22.55926 18.8220856,23.39054 19.2720856,23.8749 C19.7158456,24.35302 20.5767656,24.33738 21.0220856,23.8624 L25.7972856,19.3624 L25.7972856,35.8 C25.7972856,36.46248 26.3348056,37 26.9972856,37 C27.6597656,37 28.1972856,36.46248 28.1972856,35.8 L28.1972856,19.3624 L32.9724856,23.8624 C33.3834056,24.27176 34.2740456,24.34832 34.7224856,23.8749 C35.1709256,23.40302 35.0271736,22.54054 34.6224856,22.1249 L27.8224856,15.7249 C27.5896736,15.506148 27.3162456,15.3999 26.9974856,15.3999 L26.9970856,15.3999 Z" id="Page-1"></path>
            </g>
        </g>
    </g>
</svg>
