<?xml version="1.0" encoding="UTF-8"?>
<svg width="300px" height="300px" viewBox="0 0 300 300" version="1.1" xmlns="http://www.w3.org/2000/svg" xmlns:xlink="http://www.w3.org/1999/xlink">
    <!-- Generator: Sketch 59.1 (86144) - https://sketch.com -->
    <title>btc_solid_100</title>
    <desc>Created with Sketch.</desc>
    <g id="Page-1" stroke="none" stroke-width="1" fill="none" fill-rule="evenodd">
        <g id="Bitcoin" transform="translate(-608.000000, -551.000000)">
            <g id="btc_solid_100" transform="translate(608.000000, 551.000000)">
                <g id="b-link" fill="#F7931A" fill-rule="nonzero">
                    <circle id="b" cx="150" cy="150" r="150"></circle>
                </g>
                <g id="Group" transform="translate(70.707071, 49.494949)" fill="#FFFFFF">
                    <g id="e-link">
                        <path d="M150.98027,80.2040304 C154.122345,59.242977 138.141792,47.9724107 116.307373,40.4520328 L123.392051,12.0506056 L106.100632,7.75038947 L99.1960729,35.401779 C94.6530728,34.2617217 89.9899934,33.2016684 85.3369206,32.1416152 L92.2915133,4.31021659 L75.0000944,0 L67.9154158,28.3914267 C64.1529312,27.5313835 60.4504862,26.6913413 56.8681205,25.791296 L56.8881337,25.7012915 L33.0323799,19.7509925 L28.4293401,38.2119202 C28.4293401,38.2119202 41.2678184,41.1520679 40.99764,41.332077 C48.0022656,43.0821649 49.2630983,47.7123976 49.0529595,51.3925825 L40.9876333,83.7442083 C41.4679505,83.8642143 42.0883602,84.0442233 42.7888228,84.3142369 L40.9576135,83.8642143 L29.6501463,129.186492 C28.789578,131.306598 26.6181441,134.496759 21.7149061,133.286698 C21.895025,133.53671 9.14660625,130.156541 9.14660625,130.156541 L0.560936467,149.937535 L23.0758048,155.547816 C27.258567,156.597869 31.3612763,157.697925 35.3939394,158.727976 L28.2392146,187.44942 L45.5206268,191.749636 L52.6053054,163.348208 C57.3284244,164.618272 61.911451,165.798332 66.3944114,166.918388 L59.3297461,195.199809 L76.6211649,199.500025 L83.7758897,170.838585 C113.275371,176.418865 135.450014,174.168752 144.78618,147.507412 C152.311149,126.046334 144.415935,113.655711 128.895686,105.585306 C140.203153,102.985175 148.70877,95.5548017 150.98027,80.2040304 L150.98027,80.2040304 Z M111.454168,135.586813 C106.120646,157.057892 69.9467573,145.447309 58.2190126,142.537163 L67.7252903,104.485251 C79.453035,107.415398 117.047862,113.205689 111.454168,135.586813 Z M116.807703,79.8940148 C111.934485,99.4249962 81.8346078,89.4944972 72.0781648,87.0643751 L80.6838478,52.5626413 C90.4402908,54.9927635 121.89106,59.5229911 116.807703,79.8940148 Z" id="e"></path>
                    </g>
                </g>
            </g>
        </g>
    </g>
</svg>