<?xml version="1.0" encoding="UTF-8"?>
<svg width="260px" height="260px" viewBox="0 0 260 260" version="1.1" xmlns="http://www.w3.org/2000/svg" xmlns:xlink="http://www.w3.org/1999/xlink">
    <title>seed</title>
    <defs>
        <linearGradient x1="50%" y1="0%" x2="50%" y2="100%" id="linearGradient-1">
            <stop stop-color="#59026B" offset="0%"></stop>
            <stop stop-color="#68199E" offset="100%"></stop>
        </linearGradient>
    </defs>
    <g id="Page-1" stroke="none" stroke-width="1" fill="none" fill-rule="evenodd">
        <g id="seed">
            <circle id="Oval" fill="#D5C4F6" cx="130" cy="130" r="130"></circle>
            <path d="M128.472727,8 C185.490909,71.9784946 214,121.64806 214,157.008696 C214,210.049649 169.983017,246 128.472727,246 C86.9624379,246 46,210.049649 46,157.008696 C46,121.64806 73.4909091,71.9784946 128.472727,8 Z M161.431174,119 L106.003492,119 C98.8331239,119 93,124.864348 93,132.071174 L93,132.071174 L93,191.928826 C93,199.135652 98.8331239,205 106.003492,205 L106.003492,205 L161.431174,205 C168.856275,205 168.856275,195.02216 161.431174,195.02216 L161.431174,195.02216 L106.003492,195.02216 C104.30664,195.02216 102.927364,193.634306 102.927364,191.928826 L102.927364,191.928826 L102.927364,132.071174 C102.927364,130.365694 104.30664,128.97784 106.003492,128.97784 L106.003492,128.97784 L161.431174,128.97784 C168.411147,128.97784 168.411147,119 161.431174,119 L161.431174,119 Z" id="Combined-Shape" fill="url(#linearGradient-1)"></path>
        </g>
    </g>
</svg>
