<?xml version="1.0" encoding="UTF-8"?>
<svg width="175px" height="176px" viewBox="0 0 175 176" version="1.1" xmlns="http://www.w3.org/2000/svg" xmlns:xlink="http://www.w3.org/1999/xlink">
    <!-- Generator: Sketch 59.1 (86144) - https://sketch.com -->
    <title>logo-wbtc copy</title>
    <desc>Created with Sketch.</desc>
    <defs>
        <polygon id="path-1" points="0 0.186666667 174.993498 0.186666667 174.993498 175.396397 0 175.396397"></polygon>
    </defs>
    <g id="Page-1" stroke="none" stroke-width="1" fill="none" fill-rule="evenodd">
        <g id="Wrapped-Bitcoin" transform="translate(-622.000000, -455.000000)">
            <g id="logo-wbtc-copy" transform="translate(622.000000, 455.000000)">
                <g id="Group-21">
                    <path d="M142.689022,36.9571368 L137.884144,41.7679479 C161.647469,67.7880199 161.647469,107.666434 137.884144,133.686506 L142.689022,138.497317 C169.136672,109.788002 169.136672,65.5558035 142.689022,36.8448847 L142.689022,36.9571368 Z" id="Fill-6" fill="#5A5564" fill-rule="nonzero"></path>
                    <path d="M41.6262603,37.3745548 C67.6142439,13.5802847 107.44348,13.5802847 133.431463,37.3745548 L138.236342,32.5637441 C109.560829,6.08343785 65.3847804,6.08343785 36.7092683,32.5637441 L41.6262603,37.3745548 Z" id="Fill-8" fill="#5A5564" fill-rule="nonzero"></path>
                    <path d="M37.1420276,133.734775 C13.4075317,107.721117 13.4075317,67.877982 37.1420276,41.8643242 L32.3371495,37.0535134 C5.88949919,65.7644325 5.88949919,109.995027 32.3371495,138.705946 L37.1420276,133.734775 Z" id="Fill-10" fill="#5A5564" fill-rule="nonzero"></path>
                    <path d="M133.383415,138.176115 C107.395431,161.970385 67.566195,161.970385 41.5782114,138.176115 L36.7733333,142.986926 C65.4488454,169.467233 109.624894,169.467233 138.300407,142.986926 L133.383415,138.176115 Z" id="Fill-12" fill="#5A5564" fill-rule="nonzero"></path>
                    <path d="M102.05561,75.54 C102.05561,85.1616215 87.0323579,83.9909908 82.2595122,83.9909908 L82.2595122,67.0409008 C87.0323579,67.0409008 102.05561,65.5335134 102.05561,75.54 M105.979594,101.855135 C105.979594,112.374775 87.977317,111.172072 82.2434959,111.172072 L82.2434959,92.5061261 C87.977317,92.5221621 105.979594,90.8704505 105.979594,101.855135 M117.831626,71.7394594 C116.87065,61.7009008 108.22187,58.3333333 97.2827643,57.3070272 L97.2827643,43.467928 L88.8261789,43.467928 L88.8261789,57.0344145 C86.5999187,57.0344145 84.3256096,57.0344145 82.067317,57.1145946 L82.067317,43.467928 L73.6587804,43.467928 L73.6587804,57.3872073 L68.2773171,57.3872073 L56.5213821,57.3872073 L56.5213821,66.4475675 C56.5213821,66.4475675 62.7677234,66.3353153 62.6716259,66.4475675 C65.0132033,66.1893874 67.1369594,67.8346847 67.476504,70.167928 L67.476504,108.285585 C67.374,109.938901 65.9533578,111.194523 64.3020812,111.093495 C64.2924717,111.093495 64.2828618,111.093495 64.273252,111.091892 C64.3853659,111.188108 58.1230081,111.091892 58.1230081,111.091892 L56.4413007,121.210631 L67.4604879,121.210631 L73.514634,121.210631 L73.514634,135.354415 L81.9712195,135.354415 L81.9712195,121.419099 L88.7300814,121.419099 L88.7300814,135.29027 L97.2026829,135.29027 L97.2026829,121.306847 C111.489187,120.440901 121.451301,116.912973 122.700569,103.522883 C123.709594,92.7466667 118.648455,87.9358559 110.560244,85.9954954 C115.477236,83.4938739 118.568374,79.083964 117.831626,71.7394594" id="Fill-14" fill="#F09242" fill-rule="nonzero"></path>
                    <g id="Group-18">
                        <g id="Fill-16-Clipped">
                            <mask id="mask-2" fill="white">
                                <use xlink:href="#path-1"></use>
                            </mask>
                            <g id="path-1"></g>
                            <path d="M87.4806527,7.01801801 C42.9522463,7.04527927 6.87562032,43.2081441 6.90283255,87.7915314 C6.93007562,132.374919 43.0483438,168.49609 87.5767505,168.468844 C132.074726,168.443171 168.136937,132.326811 168.154555,87.7754954 C168.101702,43.1985226 132.002653,7.08376575 87.4806527,7.06612613 L87.4806527,7.01801801 Z M87.4806527,175.396397 C39.1579942,175.388379 -0.00976991871,136.159423 -0.000161930529,87.7754954 C0.0094495935,39.3915675 39.1900267,0.177045043 87.5126852,0.186664894 C135.824133,0.196288285 174.98549,39.4043965 174.993498,87.7754954 C174.940645,136.144991 135.790498,175.343477 87.4806527,175.396397 Z" id="Fill-16" fill="#282138" fill-rule="nonzero" mask="url(#mask-2)"></path>
                        </g>
                    </g>
                </g>
            </g>
        </g>
    </g>
</svg>