<?xml version="1.0" encoding="UTF-8"?>
<svg width="20px" height="21px" viewBox="0 0 20 21" version="1.1" xmlns="http://www.w3.org/2000/svg" xmlns:xlink="http://www.w3.org/1999/xlink">
    <title>algo</title>
    <g id="Page-1" stroke="none" stroke-width="1" fill="none" fill-rule="evenodd">
        <g id="algo" fill="#FFFFFF" fill-rule="nonzero">
            <polygon id="Path" points="3.46902655 20.0707965 6.37168142 15.0442478 9.27433628 10.0353982 12.159292 5.00884956 12.6371681 4.21238938 12.8495575 5.00884956 13.7345133 8.31858407 12.7433628 10.0353982 9.84070796 15.0442478 6.95575221 20.0707965 10.4247788 20.0707965 13.3274336 15.0442478 14.8318584 12.4424779 15.539823 15.0442478 16.8849558 20.0707965 20 20.0707965 18.6548673 15.0442478 17.3097345 10.0353982 16.9557522 8.74336283 19.1150442 5.00884956 15.9646018 5.00884956 15.8584071 4.63716814 14.7610619 0.530973451 14.619469 0 11.5929204 0 11.5221239 0.10619469 8.69026549 5.00884956 5.78761062 10.0353982 2.90265487 15.0442478 0 20.0707965"></polygon>
        </g>
    </g>
</svg>