<?xml version="1.0" encoding="UTF-8"?>
<svg width="18px" height="25px" viewBox="0 0 18 25" version="1.1" xmlns="http://www.w3.org/2000/svg" xmlns:xlink="http://www.w3.org/1999/xlink">
    <!-- Generator: Sketch 47.1 (45422) - http://www.bohemiancoding.com/sketch -->
    <title>btc</title>
    <desc>Created with Sketch.</desc>
    <defs></defs>
    <g id="UIs" stroke="none" stroke-width="1" fill="none" fill-rule="evenodd">
        <g id="08e-Funding-Crypto-Error" transform="translate(-403.000000, -464.000000)" fill="#FFFFFF">
            <g id="Group-4" transform="translate(389.000000, 454.000000)">
                <g id="btc" transform="translate(14.000000, 10.000000)">
                    <g id="BitcoinSign">
                        <path d="M14.6696058,11.571525 C16.0016984,10.8905978 16.8351589,9.69138196 16.6404679,7.69355047 C16.3782821,4.96330763 14.0289059,4.04779343 11.0631392,3.78706935 L11.0625672,0 L8.76466997,0 L8.76402648,3.68747577 C8.15943335,3.68747577 7.54311443,3.6993954 6.92958396,3.71174587 L6.92908346,0.000502635245 L4.63325973,0.00028722014 L4.63283073,3.7864231 C4.13527118,3.79661942 3.64664896,3.8063131 3.16953803,3.8063131 L3.16953803,3.79511151 L0,3.79381902 L0.00042899229,6.25543923 C0.00042899229,6.25543923 1.69737949,6.22341419 1.6694235,6.25450577 C2.59983627,6.25515201 2.90363431,6.79728003 2.99100574,7.26523344 L2.99172073,11.5794954 L2.99172073,17.6396249 C2.95075197,17.9333075 2.77836856,18.4025534 2.12780176,18.403415 C2.15740223,18.4295521 0.4562333,18.4031278 0.4562333,18.4031278 L0.00042899229,21.1557738 L2.99029076,21.1557738 C3.54740874,21.1564201 4.0948029,21.1651085 4.63182975,21.1694168 L4.63383172,24.9993538 L6.92908346,25 L6.92843998,21.2102021 C7.55991663,21.223127 8.16944317,21.2287278 8.76481297,21.2279379 L8.76416948,25 L11.0619952,25 L11.0632822,21.1764537 C14.9257857,20.9538581 17.6298671,19.977525 17.9660541,16.3378714 C18.2370342,13.4075797 16.8625429,12.0995792 14.6696058,11.571525 Z M6.98449497,6.42159608 C8.28048068,6.42159608 12.3563364,6.00749645 12.3569084,8.72395272 C12.3563364,11.3282495 8.28176765,11.0240116 6.98449497,11.0240116 L6.98449497,6.42159608 L6.98449497,6.42159608 Z M6.98349399,18.4220844 L6.98449497,13.3474789 C8.54159398,13.3470481 13.4254567,12.8979076 13.4261002,15.8836328 C13.4267437,18.7469303 8.54159398,18.4209355 6.98349399,18.4220844 Z" id="Shape" fill-rule="nonzero"></path>
                    </g>
                </g>
            </g>
        </g>
    </g>
</svg>