<svg id="Layer_1" data-name="Layer 1" xmlns="http://www.w3.org/2000/svg" xmlns:xlink="http://www.w3.org/1999/xlink" viewBox="0 0 17.63 17.43"><defs><style>.cls-1{fill:url(#radial-gradient);}.cls-2{fill:#fff;}</style><radialGradient id="radial-gradient" cx="-480.81" cy="521.68" r="0.21" gradientTransform="matrix(0, 42, 42.46, 0, -22142.32, 20202.23)" gradientUnits="userSpaceOnUse"><stop offset="0" stop-color="#ffdb87"/><stop offset="1" stop-color="#ffbd21"/></radialGradient></defs><title>dai</title><path class="cls-1" d="M9,.15l8.81,8.72L9,17.58.15,8.86Z" transform="translate(-0.15 -0.15)"/><path class="cls-2" d="M3.51,7.95a.21.21,0,0,0,.15.35H7a.42.42,0,0,0,.31-.14L8.89,6.4l1.78,1.78a.42.42,0,0,0,.29.12H14.3a.21.21,0,0,0,.15-.35L9.2,2.28a.42.42,0,0,0-.61,0Z" transform="translate(-0.15 -0.15)"/></svg>