<?xml version="1.0" encoding="UTF-8"?>
<svg width="27px" height="20px" viewBox="0 0 27 20" version="1.1" xmlns="http://www.w3.org/2000/svg" xmlns:xlink="http://www.w3.org/1999/xlink">
    <title>sol</title>
    <g id="Page-1" stroke="none" stroke-width="1" fill="none" fill-rule="evenodd">
        <g id="sol" transform="translate(0.979842, 0.000000)" fill="#FFFFFF" fill-rule="nonzero">
            <path d="M4.14630467,15.2646776 C4.30029889,15.1106833 4.51204095,15.0208534 4.73661587,15.0208534 L25.1023522,15.0208534 C25.4745049,15.0208534 25.6605812,15.4700032 25.3975077,15.7330767 L21.3744086,19.7561758 C21.2204144,19.91017 21.0086723,20 20.7840974,20 L0.418361133,20 C0.0462084224,20 -0.139867933,19.5508502 0.123205535,19.2877767 L4.14630467,15.2646776 Z" id="Path"></path>
            <path d="M4.14630467,0.24382419 C4.30671532,0.0898299647 4.51845738,0 4.73661587,0 L25.1023522,0 C25.4745049,0 25.6605812,0.449149824 25.3975077,0.712223292 L21.3744086,4.73532243 C21.2204144,4.88931665 21.0086723,4.97914662 20.7840974,4.97914662 L0.418361133,4.97914662 C0.0462084224,4.97914662 -0.139867933,4.52999679 0.123205535,4.26692332 L4.14630467,0.24382419 Z" id="Path"></path>
            <path d="M21.3744086,7.70612769 C21.2204144,7.55213346 21.0086723,7.4623035 20.7840974,7.4623035 L0.418361133,7.4623035 C0.0462084224,7.4623035 -0.139867933,7.91145332 0.123205535,8.17452679 L4.14630467,12.1976259 C4.30029889,12.3516201 4.51204095,12.4414501 4.73661587,12.4414501 L25.1023522,12.4414501 C25.4745049,12.4414501 25.6605812,11.9923003 25.3975077,11.7292268 L21.3744086,7.70612769 Z" id="Path"></path>
        </g>
    </g>
</svg>