<?xml version="1.0" encoding="UTF-8"?>
<svg width="13px" height="22px" viewBox="0 0 13 22" version="1.1" xmlns="http://www.w3.org/2000/svg" xmlns:xlink="http://www.w3.org/1999/xlink">
    <!-- Generator: Sketch 47.1 (45422) - http://www.bohemiancoding.com/sketch -->
    <title>usd</title>
    <desc>Created with Sketch.</desc>
    <defs></defs>
    <g id="UIs" stroke="none" stroke-width="1" fill="none" fill-rule="evenodd">
        <g id="08e-Funding-Crypto-Error" transform="translate(-214.000000, -466.000000)" fill="#FFFFFF">
            <path d="M221.38623,487.672363 L219.750488,487.672363 L219.750488,486.036621 C218.1066,485.91455 216.784185,485.414067 215.783203,484.535156 C214.782222,483.656246 214.277669,482.537279 214.269531,481.178223 L216.356934,481.178223 C216.422038,481.992029 216.751625,482.65934 217.345703,483.180176 C217.939782,483.701012 218.741369,484.02246 219.750488,484.144531 L219.750488,477.796875 L218.773926,477.52832 C217.471836,477.186522 216.4668,476.625004 215.758789,475.84375 C215.050778,475.062496 214.696777,474.106288 214.696777,472.975098 C214.696777,471.640456 215.150467,470.545903 216.057861,469.691406 C216.965255,468.83691 218.196119,468.332358 219.750488,468.177734 L219.750488,466.46875 L221.38623,466.46875 L221.38623,468.165527 C222.916186,468.295736 224.145015,468.79622 225.072754,469.666992 C226.000493,470.537765 226.4847,471.632318 226.525391,472.950684 L224.450195,472.950684 C224.425781,472.193844 224.13485,471.548912 223.577393,471.015869 C223.019935,470.482826 222.289555,470.163412 221.38623,470.057617 L221.38623,476.026855 L222.423828,476.283203 C223.913093,476.681968 225.019853,477.261796 225.744141,478.022705 C226.468428,478.783614 226.830566,479.782546 226.830566,481.019531 C226.830566,482.468106 226.352462,483.629797 225.39624,484.504639 C224.440018,485.37948 223.103361,485.886067 221.38623,486.024414 L221.38623,487.672363 Z M224.71875,481.19043 C224.71875,480.384762 224.452232,479.733726 223.919189,479.237305 C223.386146,478.740883 222.541835,478.370607 221.38623,478.126465 L221.38623,484.181152 C222.452317,484.124186 223.274248,483.833255 223.852051,483.30835 C224.429853,482.783445 224.71875,482.077478 224.71875,481.19043 Z M216.796387,472.853027 C216.796387,473.577315 217.048663,474.177488 217.553223,474.653564 C218.057782,475.129641 218.790197,475.4694 219.750488,475.672852 L219.750488,470.057617 C218.895992,470.106446 218.190026,470.391273 217.632568,470.912109 C217.075111,471.432945 216.796387,472.079911 216.796387,472.853027 Z" id="usd"></path>
        </g>
    </g>
</svg>