<?xml version="1.0" encoding="UTF-8"?>
<svg width="25px" height="25px" viewBox="0 0 25 25" version="1.1" xmlns="http://www.w3.org/2000/svg" xmlns:xlink="http://www.w3.org/1999/xlink">
    <title>USD-Coin-icon</title>
    <g id="Page-1" stroke="none" stroke-width="1" fill="none" fill-rule="evenodd">
        <g id="USD-Coin-icon" fill="#FFFFFF" fill-rule="nonzero">
            <path d="M12.5,0 C19.4035594,0 25,5.59644063 25,12.5 C25,19.4035594 19.4035594,25 12.5,25 C5.59644063,25 0,19.4035594 0,12.5 C0,5.59644063 5.59644063,0 12.5,0 Z M10.15625,4.0625 C10.15625,3.76953125 9.93164062,3.60351563 9.6484375,3.69140625 C5.859375,4.90234375 3.125,8.44726563 3.125,12.6269531 C3.125,16.8164062 5.859375,20.3515625 9.6484375,21.5625 C9.921875,21.6503906 10.15625,21.484375 10.15625,21.1914062 L10.15625,21.1914062 L10.15625,20.4492188 C10.15625,20.2539062 10.0097656,20.0292969 9.82421875,19.9609375 C6.82617188,18.8671875 4.6875,15.9960938 4.6875,12.6269531 C4.6875,9.26757813 6.82617188,6.38671875 9.82421875,5.28320313 C10.0097656,5.21484375 10.15625,4.99023438 10.15625,4.79492188 L10.15625,4.79492188 Z M15.3515625,3.7109375 C15.078125,3.62304688 14.84375,3.7890625 14.84375,4.08203125 L14.84375,4.08203125 L14.84375,4.81445312 C14.84375,5.00976562 14.9902344,5.234375 15.1757812,5.30273438 C18.1738281,6.39648437 20.3125,9.26757812 20.3125,12.6367188 C20.3125,15.9960938 18.1640625,18.8769531 15.1757812,19.9707031 C14.9707031,20.0390625 14.84375,20.2441406 14.84375,20.4589844 L14.84375,20.4589844 L14.84375,21.1914062 C14.84375,21.484375 15.0683594,21.6503906 15.3515625,21.5625 C19.140625,20.3515625 21.875,16.8164062 21.875,12.6269531 C21.875,8.44726562 19.140625,4.90234375 15.3515625,3.7109375 Z M12.890625,6.37695313 L12.109375,6.37695313 C11.8945312,6.37695313 11.71875,6.55273438 11.71875,6.76757813 L11.71875,6.76757813 L11.71875,7.97851563 C10.1757812,8.19335938 9.16992188,9.22851562 9.16992188,10.546875 C9.16992188,12.2558594 10.2050781,12.9199219 12.3925781,13.2128906 C13.8769531,13.4570312 14.296875,13.7792969 14.296875,14.6191406 C14.296875,15.4589844 13.5742188,16.0253906 12.5683594,16.0253906 C11.2011719,16.0253906 10.7519531,15.4296875 10.5859375,14.6582031 C10.546875,14.4824219 10.390625,14.3457031 10.2050781,14.3457031 L10.2050781,14.3457031 L9.31640625,14.3457031 C9.09179688,14.3457031 8.91601562,14.5410156 8.95507812,14.765625 C9.1796875,16.0742188 10.0097656,17.0214844 11.71875,17.2558594 L11.71875,17.2558594 L11.71875,18.4863281 C11.71875,18.7011719 11.8945312,18.8769531 12.109375,18.8769531 L12.109375,18.8769531 L12.890625,18.8769531 C13.1054687,18.8769531 13.28125,18.7011719 13.28125,18.4863281 L13.28125,18.4863281 L13.2910156,18.4863281 L13.2910156,17.2363281 C14.9023438,16.9824219 15.9375,15.859375 15.9375,14.4726563 C15.9375,12.6464844 14.8242188,12.03125 12.6757812,11.7382813 C11.0839844,11.5136719 10.78125,11.1425781 10.78125,10.4003906 C10.78125,9.69726563 11.3183594,9.19921875 12.3535156,9.19921875 C13.2910156,9.19921875 13.828125,9.53125 14.0527344,10.2832031 C14.1015625,10.4492188 14.2480469,10.5664063 14.4238281,10.5664063 L14.4238281,10.5664063 L15.2441406,10.5664063 C15.4785156,10.5664063 15.6542969,10.3613281 15.6054688,10.1367188 C15.3417969,8.9453125 14.5410156,8.23242188 13.28125,8.0078125 L13.28125,8.0078125 L13.28125,6.76757813 C13.28125,6.55273438 13.1054687,6.37695313 12.890625,6.37695313 L12.890625,6.37695313 Z" id="Combined-Shape"></path>
        </g>
    </g>
</svg>