<?xml version="1.0" encoding="UTF-8"?>
<svg width="1214px" height="1119px" viewBox="0 0 1214 1119" version="1.1" xmlns="http://www.w3.org/2000/svg" xmlns:xlink="http://www.w3.org/1999/xlink">
    <title>usdt</title>
    <g id="Page-1" stroke="none" stroke-width="1" fill="none" fill-rule="evenodd">
        <g id="usdt" fill="#FFFFFF" fill-rule="nonzero">
            <path d="M730.42,375.76 L730.42,227 L1070.6,227 L1070.6,0.34 L144.28,0.34 L144.28,227 L484.5,227 L484.5,375.64 C208,388.34 0.1,443.1 0.1,508.7 C0.1,574.3 208.1,629.06 484.5,641.84 L484.5,1118.34 L730.5,1118.34 L730.5,641.8 C1006.5,629.06 1213.98,574.34 1213.98,508.8 C1213.98,443.26 1006.5,388.54 730.5,375.8 M730.5,601.44 L730.5,601.32 C723.56,601.76 687.9,603.9 608.5,603.9 C545.02,603.9 500.36,602.1 484.62,601.28 L484.62,601.48 C240.34,590.66 58,548.12 58,497.22 C58,446.32 240.36,403.84 484.62,393 L484.62,559.1 C500.62,560.2 546.38,562.9 609.54,562.9 C685.4,562.9 723.54,559.74 730.54,559.1 L730.54,393 C974.34,403.86 1156.26,446.44 1156.26,497.16 C1156.26,547.88 974.26,590.48 730.54,601.34" id="Shape"></path>
        </g>
    </g>
</svg>