<?xml version="1.0" encoding="UTF-8"?>
<svg width="1115px" height="302px" viewBox="0 0 1115 302" version="1.1" xmlns="http://www.w3.org/2000/svg" xmlns:xlink="http://www.w3.org/1999/xlink">
    <!-- Generator: Sketch 57.1 (83088) - https://sketch.com -->
    <title>logo_foundation_white</title>
    <desc>Created with Sketch.</desc>
    <g id="Page-1" stroke="none" stroke-width="1" fill="none" fill-rule="evenodd">
        <g id="logo_foundation_white" fill="#FFFFFF" fill-rule="nonzero">
            <polygon id="Path" points="292.6 59.7 292.6 239.8 255.8 239.8 255.8 59.7"></polygon>
            <path d="M442.5,118.4 L442.5,240.2 C442.5,278 413.1,301.2 377.1,301.2 C342.3,301.2 316.5,279.6 313.9,249.2 L350.5,249.4 C352,262.3 363.4,267.9 378.3,267.9 C392.5,267.9 405.7,260.3 405.7,240.5 L405.7,225 C396.3,231.1 384.4,234.6 370.9,234.6 C337.4,234.6 310.5,207.5 310.5,176.2 C310.5,139.9 337.4,115.6 370.9,115.6 C384.3,115.6 396.3,119.2 405.7,125.2 L405.7,118.6 L442.5,118.4 Z M405.7,190.1 L405.7,160.4 C398.2,149.5 387.9,145.9 377.5,145.9 C359.4,145.9 346.9,158 346.9,176.3 C346.9,189.8 359.4,204.5 377.5,204.5 C387.9,204.6 398.2,200.9 405.7,190.1 Z" id="Shape"></path>
            <path d="M588.9,177.6 C588.9,215.1 561.2,241.8 523.9,241.8 C486.4,241.8 458.7,215.1 458.7,177.6 C458.7,140.4 486.4,113.1 523.9,113.1 C561.2,113.2 588.9,140.4 588.9,177.6 Z M553.4,177.6 C553.4,159.9 541.8,145.7 523.9,145.7 C505.8,145.7 494.1,160 494.1,177.6 C494.1,195.7 505.7,209.3 523.9,209.3 C541.8,209.3 553.4,195.8 553.4,177.6 Z" id="Shape"></path>
            <path d="M819.9,118.6 L819.9,239.6 L783.8,239.8 L783.8,233 C774.4,239.1 762.5,242.9 749,242.9 C715.5,242.9 688.6,214.5 688.6,179.5 C688.6,144.2 715.5,115.8 749,115.8 C762.4,115.8 774.4,119.6 783.8,125.7 L783.8,118.9 L819.9,118.6 Z M783.9,197.9 L783.9,160.8 C776.3,150 765.7,147 755.2,147 C736.8,147 724,161.7 724,179.4 C724,196.8 736.8,211.6 755.2,211.6 C765.7,211.6 776.3,208.7 783.9,197.9 Z" id="Shape"></path>
            <path d="M968,174.1 L968,239.8 L932.6,239.8 L932.6,178.3 C932.6,158.5 922.7,148.1 905.2,148.1 C896.1,148.1 885.9,153.4 877.3,163.6 L877.3,239.8 L841.1,239.8 L841.1,118.8 L877.3,118.8 L877.3,127.9 C887.2,120 898.6,115.7 912.3,115.7 C944.5,115.8 968,138.6 968,174.1 Z" id="Path"></path>
            <g id="lINT7W_10_">
                <polygon id="Path" points="239.1 239.7 201.7 239.7 177.3 149.2 125 239.7 83.2 239.7 164 99.6 151 50.9 42 239.8 0.1 239.8 138.3 0.4 175 0.4 191 59.9 228.8 59.9 203 104.8"></polygon>
            </g>
            <path d="M1114.2,59.7 L1114.2,239.8 L1077.4,239.8 L1077.4,233 C1068,239.1 1056.1,242.9 1042.6,242.9 C1009.1,242.9 982.2,214.5 982.2,179.2 C982.2,144.2 1009.1,115.8 1042.6,115.8 C1056,115.8 1068,119.6 1077.4,125.7 L1077.4,59.7 L1114.2,59.7 Z M1077.4,198 L1077.4,160.6 C1069.7,149.7 1059.1,146.7 1048.4,146.7 C1029.8,146.7 1017,161.6 1017,179.1 C1017,196.9 1029.9,211.8 1048.4,211.8 C1059.1,211.9 1069.8,208.9 1077.4,198 Z" id="Shape"></path>
            <path d="M679.1,149.3 C671.1,150.3 652.3,151.2 641.3,166.3 L641.3,239.8 L605.1,239.8 L605.1,119 L641.3,119 L641.3,128.1 C649.6,121 662,116.9 679.1,118.5" id="Path"></path>
        </g>
    </g>
</svg>