<?xml version="1.0" encoding="UTF-8"?>
<svg width="500px" height="56px" viewBox="0 0 500 56" version="1.1" xmlns="http://www.w3.org/2000/svg" xmlns:xlink="http://www.w3.org/1999/xlink">
    <!-- Generator: Sketch 46.2 (44496) - http://www.bohemiancoding.com/sketch -->
    <title>blockstack_logo</title>
    <desc>Created with Sketch.</desc>
    <defs></defs>
    <g id="Page-1" stroke="none" stroke-width="1" fill="none" fill-rule="evenodd">
        <g id="blockstack_logo" fill-rule="nonzero">
            <path d="M109.40445,14.9089834 L117.866512,14.9089834 C119.328016,14.9089834 120.679886,15.0332093 121.922163,15.2816649 C123.164442,15.5301205 124.238631,15.9247205 125.144763,16.4654766 C126.050895,17.0062329 126.759713,17.7296662 127.271238,18.6357982 C127.782765,19.5419303 128.038524,20.6526562 128.038524,21.9680091 C128.038524,23.3418223 127.62931,24.613311 126.810868,25.7825137 C125.992426,26.9517163 124.735552,27.7555311 123.040208,28.1939821 L123.040208,28.3693616 C125.144772,28.7201224 126.745096,29.4581706 127.841223,30.5835281 C128.93735,31.7088857 129.485406,33.2361337 129.485406,35.165318 C129.485406,36.5975914 129.215031,37.8398505 128.674275,38.8921329 C128.133519,39.9444153 127.373548,40.8213041 126.394341,41.5228258 C125.415134,42.2243473 124.260564,42.7431732 122.930596,43.079319 C121.600628,43.4154648 120.146454,43.5835351 118.56803,43.5835351 L109.40445,43.5835351 L109.40445,14.9089834 Z M117.384219,26.790946 C119.401093,26.790946 120.84796,26.4255757 121.724862,25.694824 C122.601764,24.9640723 123.040208,23.9264205 123.040208,22.5818374 C123.040208,21.2664845 122.579841,20.3165215 121.659094,19.7319202 C120.738347,19.1473189 119.357247,18.8550226 117.515753,18.8550226 L114.490456,18.8550226 L114.490456,26.790946 L117.384219,26.790946 Z M118.041892,39.6374959 C120.146456,39.6374959 121.754086,39.2428959 122.864828,38.4536841 C123.975571,37.6644723 124.530935,36.4514427 124.530935,34.8145591 C124.530935,31.8915524 122.367942,30.4300711 118.041892,30.4300711 L114.490456,30.4300711 L114.490456,39.6374959 L118.041892,39.6374959 Z M151.510149,14.9089834 L156.55231,14.9089834 L156.55231,39.2867368 L170.012689,39.2867368 L170.012689,43.5835351 L151.510149,43.5835351 L151.510149,14.9089834 Z M200.324114,44.1096737 C198.658,44.1096737 197.130753,43.7662255 195.742324,43.079319 C194.353896,42.3924125 193.170096,41.3986051 192.190889,40.0978671 C191.211682,38.7971292 190.444404,37.2260367 189.889033,35.3845425 C189.333661,33.5430483 189.055981,31.4531299 189.055981,29.1147246 C189.055981,26.8055494 189.333661,24.7375531 189.889033,22.9106741 C190.444404,21.0837949 191.211682,19.5419321 192.190889,18.2850392 C193.170096,17.0281464 194.353896,16.0635686 195.742324,15.3912771 C197.130753,14.7189856 198.658,14.3828448 200.324114,14.3828448 C201.990228,14.3828448 203.517476,14.7189856 204.905904,15.3912771 C206.294333,16.0635686 207.478132,17.0281464 208.45734,18.2850392 C209.436547,19.5419321 210.203824,21.0837949 210.759196,22.9106741 C211.314567,24.7375531 211.592248,26.8055494 211.592248,29.1147246 C211.592248,31.4531299 211.314567,33.5430483 210.759196,35.3845425 C210.203824,37.2260367 209.436547,38.7971292 208.45734,40.0978671 C207.478132,41.3986051 206.294333,42.3924125 204.905904,43.079319 C203.517476,43.7662255 201.990228,44.1096737 200.324114,44.1096737 Z M200.324114,39.6813408 C201.230247,39.6813408 202.055983,39.432889 202.80135,38.9359778 C203.546717,38.4390667 204.182461,37.7302482 204.708603,36.8095011 C205.234743,35.888754 205.643959,34.7780282 205.936259,33.4772902 C206.228559,32.1765523 206.374708,30.7223782 206.374708,29.1147246 C206.374708,25.8994173 205.826653,23.3783619 204.730524,21.5514828 C203.634397,19.7246036 202.165609,18.8111777 200.324114,18.8111777 C198.48262,18.8111777 197.013832,19.7246036 195.917703,21.5514828 C194.821576,23.3783619 194.273521,25.8994173 194.273521,29.1147246 C194.273521,30.7223782 194.412362,32.1765523 194.690047,33.4772902 C194.967732,34.7780282 195.36964,35.888754 195.895781,36.8095011 C196.421923,37.7302482 197.057667,38.4390667 197.803034,38.9359778 C198.548401,39.432889 199.388752,39.6813408 200.324114,39.6813408 Z M230.72323,29.333949 C230.72323,26.9955437 231.05937,24.8983179 231.731662,23.0422087 C232.403954,21.1860995 233.331994,19.615007 234.515812,18.328884 C235.69963,17.0427611 237.102651,16.0635686 238.72492,15.3912771 C240.347189,14.7189856 242.108275,14.3828448 244.008229,14.3828448 C245.762033,14.3828448 247.325817,14.7482151 248.699631,15.4789668 C250.073444,16.2097185 251.228015,17.042763 252.163377,17.9781251 L249.313459,21.1349564 C248.611937,20.4334349 247.830045,19.8707645 246.967758,19.4469285 C246.105471,19.0230925 245.118971,18.8111777 244.008229,18.8111777 C242.809795,18.8111777 241.713685,19.0523222 240.719863,19.5346183 C239.72604,20.0169144 238.878381,20.7038107 238.17686,21.5953276 C237.475338,22.4868447 236.927282,23.5756483 236.532677,24.8617712 C236.13807,26.1478942 235.940771,27.5947608 235.940771,29.2024144 C235.940771,30.8392981 236.13807,32.3080869 236.532677,33.6088248 C236.927282,34.9095628 237.482645,36.0056738 238.198782,36.8971909 C238.914919,37.7887079 239.777192,38.4756041 240.78563,38.9579002 C241.794068,39.4401964 242.9121,39.6813408 244.139763,39.6813408 C245.308966,39.6813408 246.353925,39.432889 247.274672,38.9359778 C248.195419,38.4390667 249.065001,37.7375556 249.883443,36.8314235 L252.689515,39.94441 C251.520312,41.2889931 250.204979,42.3193375 248.743476,43.0354741 C247.281972,43.7516108 245.645114,44.1096737 243.832849,44.1096737 C241.991355,44.1096737 240.274114,43.7881478 238.681076,43.1450863 C237.088038,42.5020248 235.69963,41.552062 234.515812,40.2951691 C233.331994,39.0382763 232.403954,37.4891059 231.731662,35.6476117 C231.05937,33.8061176 230.72323,31.7015844 230.72323,29.333949 Z M272.653548,14.9089834 L277.7834,14.9089834 L277.7834,27.9309128 L277.914935,27.9309128 L288.130792,14.9089834 L293.786781,14.9089834 L284.97396,26.0894278 L294.751369,43.5835351 L289.095379,43.5835351 L281.948663,30.079312 L277.7834,35.209163 L277.7834,43.5835351 L272.653548,43.5835351 L272.653548,14.9089834 Z M315.460765,36.4368196 C316.542278,37.4014119 317.762615,38.1833044 319.121814,38.7825207 C320.481011,39.381737 321.862111,39.6813408 323.265155,39.6813408 C325.018959,39.6813408 326.348907,39.3452 327.255039,38.6729085 C328.161171,38.0006169 328.61423,37.1091133 328.61423,35.9983708 C328.61423,35.4137695 328.497311,34.9168659 328.263471,34.5076449 C328.029631,34.098424 327.700797,33.740361 327.276961,33.4334453 C326.853125,33.1265297 326.341607,32.8415408 325.74239,32.5784701 C325.143174,32.3153995 324.492815,32.0523329 323.791293,31.7892623 L319.889098,30.079312 C319.129117,29.7870113 318.383762,29.4216409 317.65301,28.98319 C316.922258,28.544739 316.264592,28.0186057 315.67999,27.4047743 C315.095389,26.7909429 314.627714,26.0748169 314.276954,25.2563752 C313.926194,24.4379333 313.750816,23.5025852 313.750816,22.4503028 C313.750816,21.3103303 313.999268,20.2507562 314.496178,19.271549 C314.99309,18.2923418 315.679985,17.4373752 316.556887,16.7066235 C317.433789,15.9758718 318.478749,15.4058941 319.691797,14.9966731 C320.904844,14.5874522 322.2421,14.3828448 323.703603,14.3828448 C325.457407,14.3828448 327.130804,14.7116782 328.723841,15.3693546 C330.31688,16.0270311 331.712596,16.9112274 332.911028,18.0219699 L330.280335,21.266491 C329.315743,20.5065093 328.307321,19.9073019 327.255039,19.468851 C326.202757,19.0304 325.018956,18.8111777 323.703603,18.8111777 C322.212869,18.8111777 321.036378,19.1107815 320.174091,19.7099978 C319.311804,20.3092142 318.880666,21.1349511 318.880666,22.1872335 C318.880666,22.7426048 319.0122,23.2175862 319.27527,23.6121921 C319.538341,24.0067981 319.896404,24.3575535 320.34947,24.6644692 C320.802536,24.971385 321.328669,25.241759 321.927885,25.4755995 C322.527102,25.7094401 323.148231,25.9578919 323.791293,26.2209625 L327.561953,27.8432231 C328.468085,28.1939839 329.30113,28.6031987 330.061111,29.0708798 C330.821092,29.5385608 331.478759,30.079309 332.034131,30.6931403 C332.589501,31.3069717 333.020639,32.0157902 333.327554,32.8196169 C333.63447,33.6234438 333.787926,34.5514845 333.787926,35.6037669 C333.787926,36.7729695 333.546781,37.8690806 333.064485,38.8921329 C332.582189,39.9151852 331.887985,40.8139962 330.981854,41.5885931 C330.075722,42.3631898 328.964995,42.977012 327.649643,43.4300781 C326.334289,43.8831441 324.843579,44.1096737 323.177465,44.1096737 C321.16059,44.1096737 319.231435,43.7443033 317.389941,43.0135517 C315.548447,42.2828 313.911587,41.2451482 312.479314,39.9005651 L315.460765,36.4368196 Z M361.468659,19.2057817 L352.436614,19.2057817 L352.436614,14.9089834 L375.586711,14.9089834 L375.586711,19.2057817 L366.554665,19.2057817 L366.554665,43.5835351 L361.468659,43.5835351 L361.468659,19.2057817 Z M408.484984,31.8331071 L407.476552,28.3255168 C407.067331,26.8055533 406.643501,25.2417683 406.20505,23.6341145 C405.766599,22.0264609 405.34277,20.4334462 404.933548,18.8550226 L404.758169,18.8550226 C404.348948,20.4626763 403.932426,22.0629984 403.50859,23.656037 C403.084754,25.2490757 402.653617,26.8055533 402.215166,28.3255168 L401.206734,31.8331071 L408.484984,31.8331071 Z M409.62495,35.8229913 L400.066766,35.8229913 L397.830678,43.5835351 L392.656982,43.5835351 L401.952097,14.9089834 L407.915,14.9089834 L417.210115,43.5835351 L411.817195,43.5835351 L409.62495,35.8229913 Z M435.332665,29.333949 C435.332665,26.9955437 435.668805,24.8983179 436.341097,23.0422087 C437.013387,21.1860995 437.941429,19.615007 439.125246,18.328884 C440.309064,17.0427611 441.712086,16.0635686 443.334355,15.3912771 C444.956623,14.7189856 446.717708,14.3828448 448.617663,14.3828448 C450.371467,14.3828448 451.935252,14.7482151 453.309065,15.4789668 C454.682878,16.2097185 455.837448,17.042763 456.772811,17.9781251 L453.922893,21.1349564 C453.221372,20.4334349 452.439479,19.8707645 451.577192,19.4469285 C450.714906,19.0230925 449.728406,18.8111777 448.617663,18.8111777 C447.41923,18.8111777 446.323119,19.0523222 445.329297,19.5346183 C444.335475,20.0169144 443.487816,20.7038107 442.786294,21.5953276 C442.084772,22.4868447 441.536717,23.5756483 441.142111,24.8617712 C440.747505,26.1478942 440.550205,27.5947608 440.550205,29.2024144 C440.550205,30.8392981 440.747505,32.3080869 441.142111,33.6088248 C441.536717,34.9095628 442.09208,36.0056738 442.808217,36.8971909 C443.524352,37.7887079 444.386627,38.4756041 445.395064,38.9579002 C446.403501,39.4401964 447.521535,39.6813408 448.749197,39.6813408 C449.918401,39.6813408 450.96336,39.432889 451.884107,38.9359778 C452.804854,38.4390667 453.674435,37.7375556 454.492877,36.8314235 L457.298949,39.94441 C456.129747,41.2889931 454.814413,42.3193375 453.35291,43.0354741 C451.891407,43.7516108 450.254547,44.1096737 448.442283,44.1096737 C446.600789,44.1096737 444.883548,43.7881478 443.29051,43.1450863 C441.697471,42.5020248 440.309064,41.552062 439.125246,40.2951691 C437.941429,39.0382763 437.013387,37.4891059 436.341097,35.6476117 C435.668805,33.8061176 435.332665,31.7015844 435.332665,29.333949 Z M477.262983,14.9089834 L482.392834,14.9089834 L482.392834,27.9309128 L482.524369,27.9309128 L492.740226,14.9089834 L498.396215,14.9089834 L489.583395,26.0894278 L499.360803,43.5835351 L493.704814,43.5835351 L486.558098,30.079312 L482.392834,35.209163 L482.392834,43.5835351 L477.262983,43.5835351 L477.262983,14.9089834 Z" id="BLOCKSTACK" fill="#FFFFFF"></path>
            <g id="bsk-bug-rev">
                <g id="stereocopy" transform="translate(0.000000, 0.993357)">
                    <path d="M14.408593,17.4071599 C19.1886126,17.4071599 23.063584,13.5448217 23.063584,8.78038593 C23.063584,4.01595019 19.1886126,0.153611896 14.408593,0.153611896 C9.62857347,0.153611896 5.753602,4.01595019 5.753602,8.78038593 C5.753602,13.5448217 9.62857347,17.4071599 14.408593,17.4071599 Z M49.0285571,17.4071599 C53.8085768,17.4071599 57.6835482,13.5448217 57.6835482,8.78038593 C57.6835482,4.01595019 53.8085768,0.153611896 49.0285571,0.153611896 C44.2485377,0.153611896 40.3735661,4.01595019 40.3735661,8.78038593 C40.3735661,13.5448217 44.2485377,17.4071599 49.0285571,17.4071599 Z M49.0285571,51.9142562 C53.8085768,51.9142562 57.6835482,48.0519178 57.6835482,43.2874821 C57.6835482,38.5230464 53.8085768,34.6607081 49.0285571,34.6607081 C44.2485377,34.6607081 40.3735661,38.5230464 40.3735661,43.2874821 C40.3735661,48.0519178 44.2485377,51.9142562 49.0285571,51.9142562 Z M14.408593,51.9142562 C19.1886126,51.9142562 23.063584,48.0519178 23.063584,43.2874821 C23.063584,38.5230464 19.1886126,34.6607081 14.408593,34.6607081 C9.62857347,34.6607081 5.753602,38.5230464 5.753602,43.2874821 C5.753602,48.0519178 9.62857347,51.9142562 14.408593,51.9142562 Z" id="4dots-electric-blue" fill="#2C96FF"></path>
                    <path d="M8.65499103,19.7010976 C13.4350105,19.7010976 17.3099821,15.8387593 17.3099821,11.0743236 C17.3099821,6.30988783 13.4350105,2.44754954 8.65499103,2.44754954 C3.87497148,2.44754954 0,6.30988783 0,11.0743236 C0,15.8387593 3.87497148,19.7010976 8.65499103,19.7010976 Z M43.2749552,19.7010976 C48.0549747,19.7010976 51.9299462,15.8387593 51.9299462,11.0743236 C51.9299462,6.30988783 48.0549747,2.44754954 43.2749552,2.44754954 C38.4949356,2.44754954 34.6199642,6.30988783 34.6199642,11.0743236 C34.6199642,15.8387593 38.4949356,19.7010976 43.2749552,19.7010976 Z M43.2749552,54.2081938 C48.0549747,54.2081938 51.9299462,50.3458554 51.9299462,45.5814197 C51.9299462,40.816984 48.0549747,36.9546456 43.2749552,36.9546456 C38.4949356,36.9546456 34.6199642,40.816984 34.6199642,45.5814197 C34.6199642,50.3458554 38.4949356,54.2081938 43.2749552,54.2081938 Z M8.65499103,54.2081938 C13.4350105,54.2081938 17.3099821,50.3458554 17.3099821,45.5814197 C17.3099821,40.816984 13.4350105,36.9546456 8.65499103,36.9546456 C3.87497148,36.9546456 0,40.816984 0,45.5814197 C0,50.3458554 3.87497148,54.2081938 8.65499103,54.2081938 Z" id="4dots-magenta" fill="#E91E63"></path>
                </g>
                <path d="M11.531792,17.2535481 C16.3118116,17.2535481 20.1867831,13.3912098 20.1867831,8.62677404 C20.1867831,3.86233829 16.3118116,0 11.531792,0 C6.75177247,0 2.87680099,3.86233829 2.87680099,8.62677404 C2.87680099,13.3912098 6.75177247,17.2535481 11.531792,17.2535481 Z M46.1517562,17.2535481 C50.9317758,17.2535481 54.8067472,13.3912098 54.8067472,8.62677404 C54.8067472,3.86233829 50.9317758,0 46.1517562,0 C41.3717366,0 37.4967651,3.86233829 37.4967651,8.62677404 C37.4967651,13.3912098 41.3717366,17.2535481 46.1517562,17.2535481 Z M46.1517562,51.7606442 C50.9317758,51.7606442 54.8067472,47.8983059 54.8067472,43.1338702 C54.8067472,38.3694345 50.9317758,34.5070961 46.1517562,34.5070961 C41.3717366,34.5070961 37.4967651,38.3694345 37.4967651,43.1338702 C37.4967651,47.8983059 41.3717366,51.7606442 46.1517562,51.7606442 Z M11.531792,51.7606442 C16.3118116,51.7606442 20.1867831,47.8983059 20.1867831,43.1338702 C20.1867831,38.3694345 16.3118116,34.5070961 11.531792,34.5070961 C6.75177247,34.5070961 2.87680099,38.3694345 2.87680099,43.1338702 C2.87680099,47.8983059 6.75177247,51.7606442 11.531792,51.7606442 Z" id="4dots-rev" fill="#FFFFFF"></path>
            </g>
        </g>
    </g>
</svg>