<?xml version="1.0" encoding="UTF-8"?>
<svg width="40px" height="40px" viewBox="0 0 40 40" version="1.1" xmlns="http://www.w3.org/2000/svg" xmlns:xlink="http://www.w3.org/1999/xlink">
    <title>btrst</title>
    <g id="mobile" stroke="none" stroke-width="1" fill="none" fill-rule="evenodd">
        <g id="btrst" fill-rule="nonzero">
            <rect id="Rectangle-Copy-7" fill="#000000" x="0" y="0" width="40" height="40" rx="20"></rect>
            <g id="Group" transform="translate(9.000000, 9.000000)" fill="#FFFFFF">
                <path d="M11.5461847,16.4083333 C12.4698795,16.4083333 13.3935743,16.1333333 14.3172691,15.675 C16.9036145,14.2083333 17.8273092,10.8166667 16.3493976,8.25 C14.8714859,5.68333333 11.4538153,4.76666667 8.86746988,6.23333333 C7.57429719,6.96666667 6.74297189,8.15833333 6.2811245,9.53333333 C5.91164659,10.9083333 6.09638554,12.375 6.83534137,13.6583333 C7.75903614,15.4916667 9.6064257,16.4083333 11.5461847,16.4083333 Z M7.9437751,10.0833333 C8.22088353,9.16666667 8.7751004,8.34166667 9.69879518,7.88333333 C10.253012,7.51666667 10.8995984,7.425 11.5461847,7.425 C12.8393574,7.425 14.0401606,8.06666667 14.7791165,9.25833333 C15.7951807,11 15.1485944,13.2916667 13.3935743,14.3 C11.6385542,15.3083333 9.32931727,14.6666667 8.31325301,12.925 C7.85140562,12.0083333 7.66666667,11 7.9437751,10.0833333 Z" id="Shape"></path>
                <g id="Path">
                    <path d="M17.6425703,7.425 C18.3815261,8.61666667 19.4899598,9.53333333 20.875502,9.9 C21.3373494,9.99166667 21.7991968,10.0833333 22.2610442,10.0833333 C22.5381526,10.0833333 22.7228916,10.0833333 23,9.99166667 C22.9076305,9.44166667 22.815261,8.89166667 22.7228916,8.25 C22.2610442,8.34166667 21.7991968,8.25 21.3373494,8.15833333 C20.4136546,7.88333333 19.6746988,7.33333333 19.1204819,6.50833333 C18.6586345,5.68333333 18.4738956,4.76666667 18.751004,3.85 C18.8433735,3.39166667 19.1204819,3.025 19.3975904,2.65833333 C18.935743,2.29166667 18.5662651,1.925 18.0120482,1.55833333 C17.5502008,2.10833333 17.2730924,2.75 17.0883534,3.39166667 C16.7188755,4.85833333 16.9036145,6.23333333 17.6425703,7.425 Z"></path>
                    <path d="M20.875502,12.1 C19.4899598,12.4666667 18.3815261,13.2916667 17.6425703,14.575 C16.9036145,15.7666667 16.7188755,17.2333333 17.0883534,18.6083333 C17.2730924,19.3416667 17.6425703,19.8916667 18.0120482,20.4416667 C18.4738956,20.075 18.935743,19.7083333 19.3975904,19.3416667 C19.1204819,18.975 18.935743,18.6083333 18.751004,18.15 C18.4738956,17.2333333 18.6586345,16.3166667 19.1204819,15.4916667 C19.5823293,14.6666667 20.4136546,14.1166667 21.3373494,13.8416667 C21.7991968,13.75 22.2610442,13.6583333 22.7228916,13.75 C22.815261,13.2 22.9076305,12.65 23,12.0083333 C22.2610442,11.825 21.6144578,11.9166667 20.875502,12.1 Z"></path>
                    <path d="M11.4538153,19.8 C12.9317269,19.8 14.2248996,20.7166667 14.7791165,22 C15.3333333,21.8166667 15.8875502,21.6333333 16.4417671,21.3583333 C15.6104418,19.4333333 13.7630522,18.0583333 11.5461847,18.0583333 C9.32931727,18.0583333 7.38955823,19.4333333 6.65060241,21.3583333 C7.20481928,21.6333333 7.75903614,21.8166667 8.31325301,22 C8.7751004,20.7166667 9.97590361,19.8 11.4538153,19.8 Z"></path>
                    <path d="M11.4538153,3.94166667 C13.6706827,3.94166667 15.6104418,2.56666667 16.3493976,0.641666667 C15.7951807,0.366666667 15.3333333,0.183333333 14.686747,0 C14.1325301,1.28333333 12.8393574,2.2 11.3614458,2.2 C9.88353414,2.2 8.59036145,1.28333333 8.03614458,0 C7.48192771,0.183333333 6.92771084,0.366666667 6.37349398,0.641666667 C7.38955823,2.56666667 9.23694779,3.94166667 11.4538153,3.94166667 Z"></path>
                    <path d="M5.35742972,14.575 C4.6184739,13.3833333 3.51004016,12.4666667 2.12449799,12.1 C1.38554217,11.9166667 0.738955823,11.9166667 0,12.0083333 C0.0923694779,12.5583333 0.184738956,13.1083333 0.277108434,13.75 C0.46184739,13.75 0.554216867,13.75 0.738955823,13.75 C1.01606426,13.75 1.38554217,13.75 1.6626506,13.8416667 C2.58634538,14.1166667 3.3253012,14.6666667 3.87951807,15.4916667 C4.6184739,16.775 4.43373494,18.3333333 3.60240964,19.4333333 C4.06425703,19.8 4.43373494,20.1666667 4.98795181,20.5333333 C6.18875502,18.7916667 6.46586345,16.4083333 5.35742972,14.575 Z"></path>
                    <path d="M2.12449799,9.9 C3.51004016,9.53333333 4.6184739,8.70833333 5.35742972,7.425 C6.09638554,6.23333333 6.2811245,4.76666667 5.91164659,3.39166667 C5.72690763,2.65833333 5.35742972,2.10833333 4.98795181,1.55833333 C4.43373494,1.925 3.97188755,2.29166667 3.60240964,2.65833333 C3.87951807,3.025 4.06425703,3.39166667 4.24899598,3.85 C4.52610442,4.76666667 4.34136546,5.68333333 3.87951807,6.50833333 C3.41767068,7.33333333 2.58634538,7.88333333 1.6626506,8.15833333 C1.20080321,8.25 0.738955823,8.34166667 0.277108434,8.25 C0.184738956,8.8 0.0923694779,9.35 0,9.99166667 C0.277108434,9.99166667 0.46184739,10.0833333 0.738955823,10.0833333 C1.20080321,10.0833333 1.6626506,10.0833333 2.12449799,9.9 Z"></path>
                </g>
            </g>
        </g>
    </g>
</svg>