<?xml version="1.0" encoding="UTF-8"?>
<svg width="40px" height="40px" viewBox="0 0 40 40" version="1.1" xmlns="http://www.w3.org/2000/svg" xmlns:xlink="http://www.w3.org/1999/xlink">
    <title>cspr</title>
    <defs>
        <polygon id="path-1" points="0 0 22 0 22 26 0 26"></polygon>
    </defs>
    <g id="mobile" stroke="none" stroke-width="1" fill="none" fill-rule="evenodd">
        <g id="cspr">
            <rect id="Rectangle" fill="#FF0012" fill-rule="nonzero" x="0" y="0" width="40" height="40" rx="20"></rect>
            <g id="Group-15" transform="translate(8.000000, 7.000000)">
                <mask id="mask-2" fill="white">
                    <use xlink:href="#path-1"></use>
                </mask>
                <g id="Clip-14"></g>
                <path d="M20.7296291,20.1067181 C20.1194746,20.1067181 19.6102665,20.5497887 19.4877606,21.1403302 L14.6909364,20.9019128 C14.705005,20.8093674 14.7145058,20.7151291 14.7145058,20.6184454 C14.7145058,20.4437001 14.6891093,20.2752561 14.6445285,20.1152767 L16.3861956,19.0826991 C16.6191487,19.3751013 16.9726893,19.561791 17.3687095,19.561791 C18.0703095,19.561791 18.6389891,18.9761402 18.6389891,18.2539284 C18.6389891,17.5316226 18.0703095,16.9460658 17.3687095,16.9460658 C16.6671096,16.9460658 16.0983386,17.5316226 16.0983386,18.2539284 C16.0983386,18.4663879 16.1485834,18.6663387 16.2360093,18.8437174 L14.5455006,19.8459168 C14.2630335,19.2278186 13.6545235,18.7989495 12.9470769,18.7989495 C11.9709577,18.7989495 11.179648,19.6135186 11.179648,20.6184454 C11.179648,20.8333502 11.2176513,21.0385678 11.2840658,21.2299601 L8.15271924,22.0185713 C8.12914987,21.5621455 7.94388363,21.1502055 7.65273793,20.8438838 L8.21748934,20.0378733 C8.34465433,20.0818888 8.48040661,20.1067181 8.62200556,20.1067181 C9.3236055,20.1067181 9.89228514,19.5211613 9.89228514,18.7989495 C9.89228514,18.0766437 9.3236055,17.4910869 8.62200556,17.4910869 C7.92040561,17.4910869 7.35163462,18.0766437 7.35163462,18.7989495 C7.35163462,19.2723984 7.59682918,19.6857492 7.9628853,19.9153258 L7.44317148,20.6571001 C7.14882838,20.4314736 6.78523883,20.2964174 6.39004074,20.2964174 C6.31147616,20.2964174 6.23473866,20.3034712 6.15891471,20.3137227 L5.61791538,17.1404676 C6.40867698,16.9594209 7.00037787,16.2341055 7.00037787,15.3654575 C7.00037787,14.3605307 6.20906815,13.5458676 5.23294895,13.5458676 C4.93769231,13.5458676 4.65997567,13.6213899 4.41532923,13.7531543 L3.05296465,11.0205247 C3.34374494,10.8691978 3.58766054,10.6379283 3.75867553,10.3543668 L4.88735617,10.6614408 C4.87876888,10.7231378 4.8727395,10.7855872 4.8727395,10.8497294 C4.8727395,11.5719412 5.4415105,12.157592 6.14311044,12.157592 C6.84471039,12.157592 7.41348138,11.5719412 7.41348138,10.8497294 C7.41348138,10.1274236 6.84471039,9.54186682 6.14311044,9.54186682 C5.60028403,9.54186682 5.13830604,9.89295636 4.95641991,10.3861558 L3.88949469,10.0959168 C3.97646385,9.88072983 4.02497291,9.64485183 4.02497291,9.39721756 C4.02497291,9.24805388 4.00560582,9.10387487 3.97271833,8.96505672 L7.11128182,7.47934512 C7.43540638,7.89034466 7.92954103,8.15359127 8.48387807,8.15359127 C9.45999726,8.15359127 10.251307,7.33892812 10.251307,6.33400133 C10.251307,5.97905574 10.1510915,5.6489394 9.98035055,5.36895185 L11.9919691,3.34912895 C12.2311343,3.50769765 12.5093991,3.6081433 12.8089494,3.63203206 L12.8089494,4.52240566 C12.1723936,4.59331954 11.6767059,5.14802784 11.6767059,5.82217994 C11.6767059,6.54448576 12.2454769,7.13004254 12.9470769,7.13004254 C13.6486768,7.13004254 14.2173565,6.54448576 14.2173565,5.82217994 C14.2173565,5.14802784 13.7217601,4.59331954 13.085113,4.52240566 L13.085113,3.63203206 C13.3434626,3.61143506 13.5862819,3.53478412 13.8016037,3.41204856 L16.003787,6.00115754 C15.7782336,6.30672676 15.6427554,6.68659567 15.6427554,7.09994646 C15.6427554,8.10487325 16.4340651,8.9195364 17.4102757,8.9195364 C18.3863949,8.9195364 19.1776132,8.10487325 19.1776132,7.09994646 C19.1776132,6.88381902 19.1391531,6.67737875 19.0719165,6.48514006 L19.7577122,6.08758971 C19.9907566,6.37256193 20.3394554,6.55398484 20.7296291,6.55398484 C21.431229,6.55398484 22,5.96852211 22,5.24621629 C22,4.52391046 21.431229,3.93835369 20.7296291,3.93835369 C20.0280291,3.93835369 19.4592581,4.52391046 19.4592581,5.24621629 C19.4592581,5.46441284 19.5118781,5.66972451 19.603689,5.85058311 L18.9592768,6.2240566 C18.6586303,5.66173023 18.0778005,5.28035652 17.4102757,5.28035652 C16.9358735,5.28035652 16.5060522,5.47381786 16.1885965,5.78700515 L14.0333692,3.25291556 C14.2463157,3.08165008 14.4193405,2.86138442 14.5380096,2.60829523 L16.4254778,2.931734 C16.5524601,3.51625622 17.0583795,3.95330767 17.6643316,3.95330767 C18.3659315,3.95330767 18.9347025,3.3677509 18.9347025,2.64544507 C18.9347025,1.9232333 18.3659315,1.33767653 17.6643316,1.33767653 C16.9651069,1.33767653 16.398163,1.91937724 16.3943261,2.63829726 L14.640783,2.3377127 C14.6881044,2.17340693 14.7145058,1.9997902 14.7145058,1.81968399 C14.7145058,0.814757206 13.9231961,0 12.9470769,0 C11.9709577,0 11.179648,0.814757206 11.179648,1.81968399 C11.179648,2.3586859 11.4085815,2.84135172 11.7703439,3.17457171 L9.81426869,5.13862282 C9.51873798,4.79026074 9.09713854,4.55946145 8.62200556,4.52155921 L8.62200556,3.1522818 C9.25856134,3.08146197 9.75424901,2.52675368 9.75424901,1.85250752 C9.75424901,1.1302017 9.18547801,0.544738974 8.48387807,0.544738974 C7.78227812,0.544738974 7.21359848,1.1302017 7.21359848,1.85250752 C7.21359848,2.52675368 7.70928615,3.08146197 8.34575058,3.1522818 L8.34575058,4.52155921 C7.43440148,4.59435409 6.71644915,5.37704017 6.71644915,6.33400133 C6.71644915,6.66468197 6.80350966,6.97391915 6.95333048,7.24111587 L3.88739354,8.69259318 C3.77585011,8.41947129 3.60154638,8.18030154 3.38293587,7.99417612 L4.58342088,5.77816443 C4.68646837,5.80590925 4.79408357,5.82217994 4.90553565,5.82217994 C5.60713559,5.82217994 6.17590659,5.23671721 6.17590659,4.51431734 C6.17590659,3.79210557 5.60713559,3.20654879 4.90553565,3.20654879 C4.2039357,3.20654879 3.63516471,3.79210557 3.63516471,4.51431734 C3.63516471,5.02021357 3.91461708,5.45811147 4.32269611,5.67564967 L3.15482454,7.83146921 C2.89154185,7.67120761 2.58550542,7.57762762 2.25754398,7.57762762 C1.28142479,7.57762762 0.490115065,8.39229077 0.490115065,9.39721756 C0.490115065,10.4021443 1.28142479,11.2168075 2.25754398,11.2168075 C2.44573355,11.2168075 2.6267975,11.185865 2.7969903,11.129717 L4.18100581,13.9057038 C3.83833636,14.1679158 3.58985304,14.5531456 3.50133086,14.999414 L2.5006374,14.6948793 C2.52585115,14.5920824 2.54074188,14.4850532 2.54074188,14.374168 C2.54074188,13.6518622 1.97197088,13.0663054 1.27037094,13.0663054 C0.56886235,13.0663054 0,13.6518622 0,14.374168 C0,15.0964738 0.56886235,15.6819366 1.27037094,15.6819366 C1.76633267,15.6819366 2.19487503,15.3885939 2.40407606,14.9618879 L3.46944826,15.2861732 C3.46835201,15.3126013 3.46552003,15.3386532 3.46552003,15.3654575 C3.46552003,16.0072563 3.78909647,16.5702411 4.27656226,16.8941501 L3.59259367,17.8178175 C3.36886733,17.6150451 3.07607725,17.4910869 2.75460197,17.4910869 C2.05300202,17.4910869 1.48432238,18.0766437 1.48432238,18.7989495 C1.48432238,19.5211613 2.05300202,20.1067181 2.75460197,20.1067181 C3.45620191,20.1067181 4.02497291,19.5211613 4.02497291,18.7989495 C4.02497291,18.5118142 3.93398416,18.2471568 3.78160542,18.0314055 L4.52257901,17.0308991 C4.74009326,17.1294638 4.98008064,17.1850475 5.23294895,17.1850475 C5.27049551,17.1850475 5.30721989,17.1815676 5.34421832,17.1793104 L5.8885064,20.3718457 C5.15685094,20.5945567 4.62270317,21.2905284 4.62270317,22.1159133 C4.62270317,23.1208401 5.41392154,23.9355032 6.39004074,23.9355032 C6.96091288,23.9355032 7.46701492,23.6557038 7.79013458,23.2234489 L10.3488732,24.3963494 C10.3274964,24.4916223 10.3150722,24.590281 10.3150722,24.6922315 C10.3150722,25.4145373 10.8837518,26 11.5853518,26 C12.2869517,26 12.8557227,25.4145373 12.8557227,24.6922315 C12.8557227,23.9699256 12.2869517,23.3843689 11.5853518,23.3843689 C11.0805287,23.3843689 10.6458656,23.6882452 10.4409582,24.1273657 L7.9443404,22.9828684 C8.05149883,22.7798139 8.12165883,22.5531529 8.14678122,22.3127604 L11.3978017,21.4940531 C11.6984482,22.0565676 12.2793693,22.4381294 12.9470769,22.4381294 C13.3603631,22.4381294 13.7395742,22.2909408 14.0404948,22.0463161 L15.2573322,23.1271415 C15.1844316,23.2920115 15.1427741,23.4746571 15.1427741,23.6676482 C15.1427741,24.389954 15.7115451,24.9755108 16.413145,24.9755108 C17.114745,24.9755108 17.6834246,24.389954 17.6834246,23.6676482 C17.6834246,22.9453423 17.114745,22.3597856 16.413145,22.3597856 C15.9994934,22.3597856 15.6330719,22.5642508 15.4011237,22.8794131 L14.2440319,21.8516321 C14.4145901,21.6616507 14.5467796,21.4349896 14.6265317,21.1834052 L19.4597149,21.4235155 C19.4644653,22.1416831 20.0310438,22.7224433 20.7296291,22.7224433 C21.431229,22.7224433 22,22.1368865 22,21.4145807 C22,20.6922749 21.431229,20.1067181 20.7296291,20.1067181" id="Fill-13" fill="#FFFFFF" mask="url(#mask-2)"></path>
            </g>
        </g>
    </g>
</svg>