<?xml version="1.0" encoding="UTF-8"?>
<svg width="100px" height="100px" viewBox="0 0 100 100" version="1.1" xmlns="http://www.w3.org/2000/svg" xmlns:xlink="http://www.w3.org/1999/xlink">
    <title>wcfg copy</title>
    <g id="mobile" stroke="none" stroke-width="1" fill="none" fill-rule="evenodd">
        <g id="wcfg-copy" fill-rule="nonzero">
            <rect id="Rectangle" fill="#000000" x="0" y="0" width="100" height="100" rx="50"></rect>
            <g id="Group-5" transform="translate(16.000000, 17.000000)" fill="#FFFFFF">
                <path d="M7.61107052,49.6713572 C5.6795297,45.5976148 4.60063365,41.052779 4.60063365,36.2596765 C4.60063365,18.7371858 19.0191284,4.53250361 36.8052837,4.53250361 C46.7089101,4.53250361 55.5680466,8.93689235 61.4756873,15.8655949 L65,12.952215 C58.2485127,5.03361734 48.1237139,0 36.8052837,0 C16.4782899,0 0,16.2340132 0,36.2596765 C0,41.7374676 1.23297297,46.931616 3.44047884,51.5873016 L7.61107052,49.6713572 Z" id="Fill-2"></path>
                <path d="M37.0362077,59.849127 C25.194085,59.849127 15.5941658,49.9553509 15.5941658,37.7507364 C15.5941658,25.5461222 25.194085,15.6522737 37.0362077,15.6522737 C43.6300987,15.6522737 49.5277533,18.7208054 53.4610672,23.5467518 L56.92,20.5555446 C52.1586422,14.7136019 45.01829,11 37.0362077,11 C22.7009695,11 11.08,22.9766915 11.08,37.7507364 C11.08,52.524709 22.7009695,64.5014006 37.0362077,64.5014006 L37.0362077,59.849127 Z" id="Fill-5"></path>
                <path d="M45.8721515,44.427594 C43.9526129,46.6114138 41.0743897,47.9999424 37.8563821,47.9999424 C32.0771582,47.9999424 27.3921273,43.5228462 27.3921273,37.9999654 C27.3921273,32.4771537 32.0771582,27.9999885 37.8563821,27.9999885 C41.0743897,27.9999885 43.9526129,29.3885861 45.8721515,31.5724059 L49.88,28.3586261 C47.000692,25.082862 42.6834296,23 37.8563821,23 C29.18751,23 22.16,29.7157134 22.16,37.9999654 C22.16,46.2842173 29.18751,53 37.8563821,53 C42.280085,53 46.2748452,51.2497933 49.1278324,48.4361121 L45.8721515,44.427594 Z" id="Fill-7"></path>
            </g>
        </g>
    </g>
</svg>