<?xml version="1.0" encoding="UTF-8"?>
<svg width="110px" height="110px" viewBox="0 0 110 110" version="1.1" xmlns="http://www.w3.org/2000/svg" xmlns:xlink="http://www.w3.org/1999/xlink">
    <title>_cqt copy</title>
    <g id="mobile" stroke="none" stroke-width="1" fill="none" fill-rule="evenodd">
        <g id="_cqt-copy" fill-rule="nonzero">
            <rect id="Rectangle" fill="#010427" x="0" y="0" width="110" height="110" rx="55"></rect>
            <g id="Covalent_Wordmark_Three_Color" transform="translate(24.820096, 22.545455)">
                <path d="M32.1799043,14.6732955 L32.1799043,0.454545455 C13.9457968,0.454545455 -0.820095694,15.3834984 -0.820095694,32.9537614 C-0.820095694,50.5248067 13.9466087,65.4545455 32.1799043,65.4545455 L32.1799043,51.2357955 C22.4474697,51.2357955 13.6174043,45.1420455 13.6174043,32.9545455 C13.6174043,20.7670455 22.4474697,14.6732955 32.1799043,14.6732955 Z" id="Shape" fill="#FFFFFF"></path>
                <path d="M52.1942584,16 C51.1326514,16 50.081363,15.7930801 49.1005981,15.3910548 C48.119748,14.9890294 47.2285235,14.3997466 46.4778347,13.6568774 C45.7271458,12.9140081 45.1316601,12.0320671 44.7254029,11.061434 C44.3191458,10.0908854 44.1100478,9.05054772 44.1100478,8 C44.1100478,6.94942511 44.3191458,5.90913807 44.7254029,4.93853036 C45.1316601,3.96793109 45.7271458,3.08601538 46.4778347,2.34314609 C47.2285235,1.60027681 48.119748,1.01100248 49.1005981,0.608963615 C50.081363,0.206926438 51.1326514,0 52.1942584,0 C54.338365,0 56.3945515,0.842854781 57.9106821,2.34314609 C59.4267274,3.84344163 60.2784689,5.87826887 60.2784689,8 C60.2784689,10.1217715 59.4267274,12.1565396 57.9106821,13.6568774 C56.3945515,15.1571307 54.338365,16 52.1942584,16 Z" id="Path" fill="#00DCD7"></path>
                <path d="M52.1942584,65.9090909 C50.0501518,65.9090909 47.9939652,65.0662217 46.4778347,63.5659685 C44.9617894,62.065631 44.1100478,60.0308631 44.1100478,57.9090909 C44.1100478,55.7874031 44.9617894,53.7525508 46.4778347,52.2522133 C47.9939652,50.7519601 50.0501518,49.9090909 52.1942584,49.9090909 C54.338365,49.9090909 56.3945515,50.7519601 57.9106821,52.2522133 C59.4267274,53.7525508 60.2784689,55.7874031 60.2784689,57.9090909 C60.2784689,60.0308631 59.4267274,62.065631 57.9106821,63.5659685 C56.3945515,65.0662217 54.338365,65.9090909 52.1942584,65.9090909 Z" id="Path" fill="#FF318B"></path>
                <path d="M32.8421053,50.6818182 L32.8421053,15.2272727 C42.7410435,15.2272727 50.9753883,23.1060606 50.7515206,32.9531833 C50.9753883,42.8030303 42.7418692,50.6818182 32.8421053,50.6818182 Z" id="Path" fill="#FFFFFF"></path>
            </g>
        </g>
    </g>
</svg>