<?xml version="1.0" encoding="UTF-8"?>
<svg width="100px" height="100px" viewBox="0 0 100 100" version="1.1" xmlns="http://www.w3.org/2000/svg" xmlns:xlink="http://www.w3.org/1999/xlink">
    <title>efinity_icon</title>
    <g id="mobile" stroke="none" stroke-width="1" fill="none" fill-rule="evenodd">
        <g id="efinity_icon" fill-rule="nonzero">
            <rect id="Rectangle" fill="#5378DF" x="0" y="0" width="100" height="100" rx="50"></rect>
            <g id="Group" transform="translate(20.000000, 30.000000)" fill="#FFFFFF">
                <path d="M52.7356961,0.231904933 C54.6931947,0.206550553 56.6437402,0.466473834 58.5240422,1.00324091 C58.7932663,1.05712355 59.045774,1.17285386 59.2610199,1.34101548 C60.0854443,1.83551596 60.6755022,2.63359818 60.9003263,3.55825796 C61.1251505,4.48291773 60.9661571,5.45772296 60.4586088,6.26647461 C59.77281,7.27475693 58.7492298,7.38566799 57.6693527,7.38566799 L48.7181437,7.38566799 C49.1780684,8.49619245 49.5077497,9.65482037 49.7007807,10.8390349 C49.9259684,12.1296363 50.0436801,13.4756932 50.2125708,14.8217501 L50.2125708,17.1256752 L57.2855101,17.1256752 C57.8185811,17.1055527 58.3522905,17.1427428 58.8771773,17.2365862 C60.1259452,17.4634498 60.8629229,18.1339575 60.9243377,19.3086064 L60.9243377,22.6661865 C60.8680408,23.8408354 60.1259452,24.5163846 58.8771773,24.7432481 C58.3523109,24.8372513 57.8185838,24.8744426 57.2855101,24.8541592 L50.1204486,24.8541592 L50.1204486,27.14296 C49.94644,28.4839755 49.8338462,29.8300324 49.6086585,31.1155924 C49.4036746,32.316394 49.0602599,33.4902334 48.5850783,34.614332 L57.6642348,34.614332 C58.7441119,34.614332 59.7676921,34.7252431 60.4534909,35.7385668 C60.9615294,36.5488767 61.1207906,37.525218 60.8960281,38.4515164 C60.6712657,39.3778147 60.081014,40.1776854 59.255902,40.6741088 C59.041744,40.8440726 58.7916758,40.9646541 58.5240422,41.0270076 C56.6357265,41.5681974 54.6765826,41.831515 52.7101066,41.8084264 L51.9226102,41.8245465 L51.9226102,41.8245465 L50.3463712,41.8540595 C43.7800403,41.9696747 37.2702938,41.9951771 32.3149567,41.9993146 L31.1562873,41.9999326 C30.9684055,41.999979 30.7832024,42 30.600774,42 C23.9475027,42 15.0167653,41.9042132 8.27137173,41.7680951 C6.31161899,41.7911925 4.35922428,41.5278548 2.47790774,40.9866763 C2.20939078,40.9306915 1.95735288,40.8151765 1.74092999,40.6489017 C0.91542846,40.1553422 0.324456002,39.3572185 0.0995330463,38.4321524 C-0.125389909,37.5070863 0.0343998139,36.531836 0.543341147,35.7234426 C1.22402199,34.7151602 2.2476022,34.6042492 3.32747932,34.6042492 L12.2889241,34.6042492 C11.8289994,33.4937247 11.4993181,32.3350968 11.3062871,31.1508822 C11.0759815,29.8602809 10.9633877,28.514224 10.794497,27.1681671 L10.794497,24.8440763 L3.7215577,24.8440763 C3.18848403,24.8643598 2.6547569,24.8271685 2.12989047,24.7331653 C0.881122616,24.5113432 0.144144865,23.8408354 0.0827300522,22.6611451 L0.0827300522,19.3086064 C0.139026964,18.1289161 0.876004715,17.4584084 2.12989047,17.2315448 C2.66824233,17.1351107 3.21580673,17.0979121 3.76250091,17.1206338 L10.9275624,17.1206338 L10.9275624,14.8116673 C11.0964531,13.4656104 11.2090469,12.1245949 11.4393525,10.8339935 C11.6394844,9.63373993 11.9830656,8.4610238 12.4629327,7.34029528 L3.34283302,7.34029528 C2.2629559,7.34029528 1.23425779,7.22434282 0.553576949,6.2160605 C0.0437000904,5.4067208 -0.117145925,4.43038675 0.106737754,3.50375009 C0.330621434,2.57711343 0.920714038,1.77683015 1.74604789,1.28051855 C1.96377266,1.11324294 2.21771264,0.997658822 2.48814355,0.942743968 C4.37627651,0.411836038 6.33369502,0.15871143 8.29696124,0.191573641 L9.0849371,0.175453511 L9.0849371,0.175453511 L10.6620433,0.145940497 C17.2317414,0.0303252982 23.7418486,0.00482294084 28.6972244,0.000685365277 L30.4114117,0 C37.064683,0 45.9954204,0.0907454087 52.7356961,0.231904933 Z M40.3657292,24.8541592 L20.7660155,24.8547466 C19.7361363,24.8617959 19.7441312,24.9534362 19.8480639,26.1447605 C19.8868629,27.332585 20.03937,28.5141524 20.3035571,29.6737486 C20.7497623,31.7034568 22.3442459,33.2976698 24.3978779,33.7673749 C26.2372127,34.2432944 28.1264281,34.5072152 30.0275691,34.5538351 C32.2163817,34.5520061 34.3964025,34.2810358 36.5170676,33.7472092 C38.5678743,33.2790909 40.1616793,31.6894813 40.6113885,29.6636658 C40.8758767,28.5041216 41.0283874,27.322526 41.0668817,26.1346777 C41.153886,25.0457328 41.1590039,24.8944905 40.3657292,24.8541592 Z M30.9794987,7.41087505 C28.8007015,7.41613136 26.6310584,7.68878738 24.5207076,8.22254231 C22.4699009,8.69066063 20.8760959,10.2802702 20.4263867,12.3060857 C20.1666132,13.4664403 20.0141583,14.6476031 19.9708935,15.8350738 C19.8787713,16.9240187 19.8685355,17.0903853 20.6618102,17.1155924 L40.2666418,17.1150049 C41.296521,17.1079557 41.2885262,17.0163153 41.1845934,15.824991 C41.1329447,14.6350838 40.9719252,13.452236 40.7035107,12.2909615 C40.2522092,10.2629566 38.6604225,8.66948 36.6091899,8.19229384 C34.7698434,7.71713438 32.8805191,7.45489023 30.9794987,7.41087505 Z" id="Combined-Shape"></path>
            </g>
        </g>
    </g>
</svg>