<?xml version="1.0" encoding="UTF-8"?>
<svg width="180px" height="50px" viewBox="0 0 180 50" version="1.1" xmlns="http://www.w3.org/2000/svg" xmlns:xlink="http://www.w3.org/1999/xlink">
    <!-- Generator: Sketch 46.2 (44496) - http://www.bohemiancoding.com/sketch -->
    <title>filecoin_logo</title>
    <desc>Created with Sketch.</desc>
    <defs>
        <polygon id="path-1" points="0 49.6183206 0 0.322137405 49.2961832 0.322137405 49.2961832 49.6183206"></polygon>
    </defs>
    <g id="Page-1" stroke="none" stroke-width="1" fill="none" fill-rule="evenodd">
        <g id="filecoin_logo">
            <g id="Group" transform="translate(0.000000, 0.059542)">
                <g id="Clipped">
                    <mask id="mask-2" fill="white">
                        <use xlink:href="#path-1"></use>
                    </mask>
                    <g id="a"></g>
                    <path d="M49.0293893,28.5664122 C47.0431298,42.0320611 34.5171756,51.3374046 21.0519084,49.351145 C7.58625954,47.3648855 -1.71908397,34.8389313 0.267175573,21.3740458 C2.25343511,7.90839695 14.778626,-1.39694656 28.2442748,0.588549618 C41.7099237,2.57480916 51.0152672,15.1007634 49.0293893,28.5660305" id="Shape" fill="#42C1CA" fill-rule="nonzero" mask="url(#mask-2)"></path>
                </g>
            </g>
            <path d="M35.7030534,10.2458015 C30.720229,7.09427481 27.1568702,14.0324427 27.0732824,14.2431298 C26.1847328,15.9759542 25.4534351,18.628626 25,20.6064885 L18.4927481,19.6461832 L18.2377863,21.3965649 L24.6438931,22.3416031 C24.4664122,23.2568702 24.3759542,23.8454198 24.3759542,23.8454198 L24.0603053,25.7740458 L24.0782443,25.7767176 L24.0587786,25.8912214 L17.7,24.9534351 L17.4610687,26.7057252 L23.7442748,27.6335878 C22.0927481,35.9694656 20.8709924,38.4828244 19.640458,39.8625954 C19.3900763,40.1580153 17.6259542,41.3385496 16.7381679,39.2267176 C16.1179389,37.751145 14.9412214,37.9541985 14.9412214,37.9541985 C14.6091603,37.9225191 13.0652672,38.9198473 15.4843511,40.4503817 C20.4667939,43.6015267 24.0305344,36.6633588 24.1141221,36.4530534 C25.0022901,34.7206107 26.1866412,30.0381679 26.640458,28.0603053 L33.1721374,29.0236641 L33.4270992,27.2736641 L26.9961832,26.3244275 C27.1736641,25.409542 27.2645038,24.8209924 27.2645038,24.8209924 L27.579771,22.8919847 L27.5618321,22.889313 L27.5816794,22.7748092 L33.9400763,23.7129771 L34.1790076,21.9603053 L27.8961832,21.0335878 C29.5477099,12.6977099 30.3164122,12.2129771 31.5465649,10.8332061 C31.7969466,10.5381679 33.5614504,9.35725191 34.448855,11.4694656 C35.069084,12.9446565 36.2461832,12.7416031 36.2461832,12.7416031 C36.5782443,12.7732824 38.1217557,11.7759542 35.7030534,10.2458015" id="Shape" fill="#FEFEFE" fill-rule="nonzero"></path>
            <path d="M75.978626,22.4183206 L64.9496183,22.4183206 L64.9496183,13.4045802 L76.3450382,13.4045802 L76.6015267,10.6564885 L61.7984733,10.6564885 L61.7984733,37.4045802 L64.9496183,37.4045802 L64.9496183,24.9832061 L75.978626,24.9832061 L75.978626,22.4183206 L75.978626,22.4183206 Z M83.3435115,10.6564885 L80.3389313,10.6564885 L80.3389313,14.1740458 L83.3435115,14.1740458 L83.3435115,10.6564885 Z M83.3435115,17.7648855 L80.3389313,17.7648855 L80.3389313,37.4045802 L83.3435115,37.4045802 L83.3435115,17.7648855 Z M91.3679389,10.4 L88.3633588,10.729771 L88.3633588,29.0137405 C88.3633588,35.5358779 88.4732824,37.7709924 93.3099237,37.7709924 C93.6030534,37.7709924 94.2992366,37.7343511 95.3251908,37.551145 L95.1419847,35.2061069 C94.2259542,35.2793893 93.9694656,35.3160305 93.529771,35.3160305 C91.4778626,35.3160305 91.3679389,33.9969466 91.3679389,29.7099237 L91.3679389,10.4 L91.3679389,10.4 Z M106.024427,37.8442748 C100.418321,37.8442748 97.010687,33.8503817 97.010687,27.5480916 C97.010687,21.6854962 100.528244,17.4351145 105.658015,17.2885496 C110.531298,17.2885496 113.572519,20.989313 113.572519,26.778626 C113.572519,27.0717557 113.535878,27.8045802 113.535878,28.1343511 L100.08855,28.1343511 C100.08855,32.5679389 102.690076,35.2793893 106.134351,35.2793893 C108.919084,35.2793893 110.970992,34.2534351 112.363359,33.3007634 L113.279389,35.4992366 C111.667176,36.8916031 109.175573,37.8442748 106.024427,37.8442748 L106.024427,37.8442748 Z M100.198473,26.0458015 L110.677863,26.0458015 C110.677863,21.8687023 108.589313,19.7435115 105.658015,19.7435115 C102.690076,19.7435115 100.528244,22.1984733 100.198473,26.0458015 L100.198473,26.0458015 Z M131.160305,36.048855 C129.877863,37.2580153 127.789313,37.8442748 125.847328,37.8442748 C119.728244,37.8442748 116.393893,33.0442748 116.393893,27.5847328 C116.430534,22.1618321 119.948092,17.2885496 125.810687,17.2885496 C128.082443,17.2885496 130.061069,17.9480916 131.160305,19.010687 L130.39084,21.1358779 C128.88855,20.1465649 127.276336,19.7801527 125.774046,19.7801527 C122.183206,19.7801527 119.435115,23.1145038 119.435115,27.6580153 C119.435115,32.1648855 122.073282,35.389313 125.993893,35.389313 C127.752672,35.389313 129.328244,34.6931298 130.427481,33.9236641 L131.160305,36.048855 L131.160305,36.048855 Z M148.638168,27.621374 C148.638168,23.4442748 147.099237,19.7801527 142.665649,19.7801527 C138.451908,19.7801527 136.509924,23.6641221 136.509924,27.6580153 C136.509924,31.6152672 138.451908,35.389313 142.738931,35.389313 C146.989313,35.389313 148.638168,31.6152672 148.638168,27.621374 Z M151.752672,27.5847328 C151.752672,33.0076336 148.564885,37.8442748 142.665649,37.8442748 C136.729771,37.8442748 133.432061,33.2641221 133.432061,27.621374 C133.432061,22.0152672 136.803053,17.2885496 142.738931,17.2885496 C148.748092,17.2885496 151.752672,21.9419847 151.752672,27.5847328 Z M158.970992,10.6564885 L155.966412,10.6564885 L155.966412,14.1740458 L158.970992,14.1740458 L158.970992,10.6564885 L158.970992,10.6564885 Z M158.970992,17.7648855 L155.966412,17.7648855 L155.966412,37.4045802 L158.970992,37.4045802 L158.970992,17.7648855 Z M173.261069,17.2885496 C170.549618,17.2885496 167.801527,18.5709924 166.262595,20.659542 L166.006107,17.7648855 L163.40458,17.7648855 L163.477863,22.5282443 L163.477863,37.4045802 L166.482443,37.4045802 L166.482443,23.9938931 C166.958779,22.2351145 169.303817,19.8534351 172.601527,19.8534351 C176.229008,19.8534351 176.448855,22.4549618 176.448855,27.5480916 L176.448855,37.4045802 L179.453435,37.4045802 L179.453435,25.6427481 C179.453435,20.1465649 177.584733,17.2885496 173.261069,17.2885496 Z" id="Shape" fill="#000000" fill-rule="nonzero"></path>
        </g>
    </g>
</svg>