<?xml version="1.0" encoding="UTF-8"?>
<svg width="100px" height="100px" viewBox="0 0 100 100" version="1.1" xmlns="http://www.w3.org/2000/svg" xmlns:xlink="http://www.w3.org/1999/xlink">
    <title>human_icon</title>
    <g id="mobile" stroke="none" stroke-width="1" fill="none" fill-rule="evenodd">
        <g id="human_icon" fill-rule="nonzero">
            <rect id="Rectangle" fill="#680744" x="0" y="0" width="100" height="100" rx="50"></rect>
            <path d="M63.675162,23.3887542 C62.4768251,22.9751437 61.2852206,22.549107 60.1003482,22.1106443 C58.6243068,21.5638973 57.2088555,23.1136056 57.2660794,25.2136111 C57.399041,29.1260475 57.5320025,33.0402591 57.6649641,36.9526955 C57.7104066,38.2503321 57.1129213,39.4343589 56.1636768,39.9172004 C54.3022154,40.866907 52.4121419,41.7899864 50.5001888,42.6846633 C48.5882356,41.7899864 46.6998452,40.866907 44.8367006,39.9172004 C43.8840901,39.4343589 43.2967031,38.2485569 43.3370965,36.9526955 C43.470058,33.0402591 43.6013365,29.1260475 43.734298,25.2136111 C43.8016203,23.1136056 42.384486,21.5621222 40.9000294,22.1124195 C39.71684,22.549107 38.5286015,22.9751437 37.3252155,23.3887542 C36.3473591,23.7260332 35.6169122,24.8674564 35.5125627,26.223673 C35.169219,30.8479456 34.8225091,35.470443 34.4774824,40.0947156 C34.379865,41.3870268 34.9403232,42.599456 35.8828353,43.1266763 C37.9698265,44.285851 37.7931054,48.0900031 35.492366,48.9403012 C34.4640179,49.3184087 33.703276,50.4190033 33.6107078,51.7130896 C33.0822278,58.7764219 32.5554308,65.8379791 32.0286339,72.9013114 C31.9326996,74.2557528 32.6429498,75.524987 33.8244561,76.0184794 C35.2668363,76.6291319 36.7193148,77.223808 38.1818917,77.8060581 C40.0248395,78.537421 41.9839183,77.1119734 42.0478745,75.0119679 C42.2633059,68.6533711 42.4804203,62.2947744 42.6941686,55.9361777 C42.7429772,54.6385411 43.4565936,53.5059938 44.4883077,53.0817323 C46.5147088,52.2456354 48.5192303,51.3811361 50.5001888,50.484684 C52.4811474,51.3811361 54.4839856,52.2456354 56.5120698,53.0817323 C57.5404178,53.5077689 58.2590834,54.6385411 58.307892,55.9361777 C58.5216403,62.2947744 58.7370716,68.6533711 58.952503,75.0119679 C59.0215083,77.1119734 60.9721719,78.537421 62.8201688,77.8060581 C64.2810626,77.223808 65.7352242,76.6291319 67.1759214,76.0184794 C68.3490124,75.524987 69.0744101,74.2557528 68.9700606,72.9013114 C68.4432636,65.8397542 67.9181497,58.7764219 67.3896697,51.7130896 C67.2870032,50.4190033 66.5464579,49.3184087 65.5063285,48.9403012 C63.2156873,48.0900031 63.0255019,44.285851 65.1175422,43.1266763 C66.0701527,42.599456 66.6137802,41.3870268 66.521212,40.0947156 C66.1778683,35.470443 65.8311586,30.8479456 65.4878149,26.223673 C65.3817822,24.8674564 64.6513353,23.7242581 63.675162,23.3887542" id="Fill-1" fill="#FFFFFF"></path>
        </g>
    </g>
</svg>