<?xml version="1.0" encoding="UTF-8"?>
<svg width="40px" height="40px" viewBox="0 0 40 40" version="1.1" xmlns="http://www.w3.org/2000/svg" xmlns:xlink="http://www.w3.org/1999/xlink">
    <title>imx</title>
    <g id="mobile" stroke="none" stroke-width="1" fill="none" fill-rule="evenodd">
        <g id="imx" fill-rule="nonzero">
            <rect id="Rectangle-Copy-7" fill="#252B3D" x="0" y="0" width="40" height="40" rx="20"></rect>
            <g id="5f8d36771ffcf8c91b03e7f4_dark" transform="translate(8.000000, 11.000000)" fill="#17B5CB">
                <path d="M20.6547431,0 L23,0 L13.4782344,10.733792 C13.2317498,10.9999735 13.2247001,11.424435 13.4641509,11.6978089 L18.9574859,18 L16.5065951,18 L11.4288104,12.1582482 L11.1752761,11.8417042 C10.9358252,11.5683144 10.9428589,11.1438529 11.1893596,10.8776713 L20.6547431,0 Z" id="Path"></path>
                <path d="M16.1792652,11.6936912 C16.0217113,11.5135109 15.9644249,11.2684671 16.0217113,11.0450391 C16.0646761,10.9225172 16.157791,10.7855846 16.2437205,10.6918998 L16.8882904,10 L24,18 L21.7368612,18 C21.7368612,18 17.568656,13.2720498 16.1792652,11.6936912 Z" id="Path"></path>
                <path d="M2.43235317,18 L0,18 L7.45826696,9.43883038 C7.6965938,9.16544059 7.6965938,8.75537973 7.45826696,8.48918232 L0.0560772156,0 L2.39730181,0 L9.84153541,8.56113787 C10.0307935,8.81293464 10.0658449,9.17984123 9.86256943,9.41723736 C7.91388662,11.6546547 2.43235317,18 2.43235317,18 Z" id="Path"></path>
                <path d="M7.28827116,0 L5,0 L12.0145171,8 C12.0145171,8 12.035908,7.98547149 12.8200396,7.07719877 C13.0338997,6.83014988 13.0766651,6.52498692 12.8414305,6.29246654 C11.3658176,4.80290891 7.28827116,0 7.28827116,0 Z" id="Path"></path>
                <path d="M13.9400385,5 L18.0700049,0 L15.8994483,0 L13.9622693,2.14063214 L13.1991938,3.04687451 C12.9398913,3.33594929 12.9324924,3.78906185 13.1843789,4.09375763 C13.377006,4.32031391 13.9400385,5 13.9400385,5 Z" id="Path"></path>
                <path d="M9.73908676,12.5790335 L5,18 L7.39292628,18 L10.0377386,14.8593933 L10.5125063,14.369988 C10.7717913,14.0809296 10.7643924,13.5058607 10.5125063,13.2011813 C10.3198796,12.9746071 9.73908676,12.5790335 9.73908676,12.5790335 Z" id="Path"></path>
            </g>
        </g>
    </g>
</svg>