<?xml version="1.0" encoding="UTF-8"?>
<svg width="62px" height="62px" viewBox="0 0 62 62" version="1.1" xmlns="http://www.w3.org/2000/svg" xmlns:xlink="http://www.w3.org/1999/xlink">
    <title>mina copy 2</title>
    <defs>
        <linearGradient x1="50%" y1="0%" x2="50%" y2="100%" id="linearGradient-1">
            <stop stop-color="#FF5A2F" offset="0%"></stop>
            <stop stop-color="#9F59E3" offset="100%"></stop>
        </linearGradient>
    </defs>
    <g id="mobile" stroke="none" stroke-width="1" fill="none" fill-rule="evenodd">
        <g id="mina-copy-2" fill-rule="nonzero">
            <rect id="Rectangle" fill="url(#linearGradient-1)" x="0" y="0" width="62" height="62" rx="31"></rect>
            <g id="Mina_Wordmark_Primary_Outlined_RGB_Mina_Logo_Black" transform="translate(14.000000, 15.000000)" fill="#FFFFFF">
                <path d="M16.998765,30.996478 C15.8080422,31.0310341 14.797137,30.1307883 14.6942245,28.9442054 L14.434871,26.91169 C11.9648384,26.207842 10.5198692,24.3803068 10.1444243,21.4784773 L7.92139484,4.35397902 C7.44452575,4.27725064 6.96183855,4.24254233 6.47889575,4.25025405 C5.76407126,4.24440428 5.05182378,4.33664111 4.36207773,4.52438433 L4.36207773,30.4951407 L0,30.4951407 L0,9.61925598 C0,6.78657649 1.27206684,4.78616639 3.5889575,3.953897 L3.5889575,2.60794206 C3.5889575,1.05206753 4.53498002,0.0074089263 5.94042862,0.0074089263 C7.34587722,0.0074089263 8.2276789,0.88166223 8.4549219,2.47705103 L8.62782419,3.72422029 C11.1645478,4.43300757 12.6465674,6.4704623 13.0862332,9.77731307 L15.1413004,26.2844009 C16.3690874,26.5215069 17.6309126,26.5215069 18.8586996,26.2844009 L20.9137668,9.77978272 C21.3435525,6.4704623 22.8428623,4.43300757 25.3721758,3.71681136 L25.5450781,2.4696421 C25.7723211,0.88166223 26.6664729,0 28.0595714,0 C29.4526698,0 30.4110425,1.04465861 30.4110425,2.60053313 L30.4110425,3.94648808 C32.7279332,4.77875746 34,6.77916756 34,9.61184705 L34,30.4877317 L29.6329822,30.4877317 L29.6329822,4.52191469 C28.9432362,4.33417147 28.2309887,4.24193463 27.5161642,4.24778441 C27.0332214,4.24007268 26.5505342,4.274781 26.0736651,4.35150938 L23.8506357,21.4784773 C23.4826008,24.3284443 22.0030512,26.200433 19.5601889,26.91169 L19.3156556,28.9466751 C19.2362691,30.1496046 18.2026021,31.064112 16.998765,30.996478 Z M15.2425717,27.1092613 L15.4673447,28.8602376 C15.5164175,29.6592706 16.1990691,30.2702572 16.998765,30.2308889 C17.3850211,30.2586051 17.766047,30.1287968 18.0550183,29.8710435 C18.3439896,29.6132902 18.5162893,29.2495496 18.5326553,28.8627072 L18.7574283,27.1092613 C17.5935953,27.3002501 16.4064047,27.3002501 15.2425717,27.1092613 L15.2425717,27.1092613 Z M30.4110425,29.7295516 L33.2219397,29.7295516 L33.2219397,9.61925598 C33.2219397,7.21876386 32.2536869,5.56163401 30.4110425,4.78863603 L30.4110425,29.7295516 Z M0.7706502,29.7295516 L3.5889575,29.7295516 L3.5889575,4.78863603 C1.74878315,5.56163401 0.790410461,7.21876386 0.790410461,9.61925598 L0.7706502,29.7295516 Z M8.73897566,4.56636824 L10.9175445,21.377222 C11.2287686,23.8098195 12.3773338,25.3829815 14.3286596,26.069542 L12.315583,9.87362912 C11.9450781,7.01872285 10.7718126,5.27515553 8.73897566,4.56636824 Z M25.2610243,4.56636824 C23.2281874,5.27515553 22.0499818,7.01872285 21.684417,9.87609876 L19.6713404,26.0596634 C21.6251362,25.3731029 22.7712314,23.7999409 23.0824555,21.3673434 L25.2610243,4.56636824 Z M4.3670178,3.70693279 L4.3670178,3.70693279 C5.05988675,3.53847504 5.77078973,3.45553565 6.48383582,3.45996858 C6.92973893,3.4552612 7.37542716,3.48166818 7.81765347,3.53899713 L7.6842717,2.56842778 C7.51383945,1.37806029 6.92597167,0.775467619 5.94042862,0.775467619 C4.95488558,0.775467619 4.3670178,1.47437633 4.3670178,2.59806349 L4.3670178,3.70693279 Z M27.5161642,3.45996858 C28.2292103,3.45553565 28.9401133,3.53847504 29.6329822,3.70693279 L29.6329822,2.60794206 C29.6329822,1.4842549 29.0302942,0.785346188 28.0595714,0.785346188 C27.0888485,0.785346188 26.4861606,1.38793886 26.3157283,2.57830635 L26.1823465,3.5488757 C26.6245728,3.49154674 27.0702611,3.46513977 27.5161642,3.46984715 L27.5161642,3.45996858 Z" id="Shape"></path>
            </g>
        </g>
    </g>
</svg>