<?xml version="1.0" encoding="UTF-8"?>
<svg width="1091px" height="202px" viewBox="0 0 1091 202" version="1.1" xmlns="http://www.w3.org/2000/svg" xmlns:xlink="http://www.w3.org/1999/xlink">
    <!-- Generator: Sketch 57.1 (83088) - https://sketch.com -->
    <title>nervos_logo_simple</title>
    <desc>Created with Sketch.</desc>
    <g id="Page-1" stroke="none" stroke-width="1" fill="none" fill-rule="evenodd">
        <g id="nervos_logo_simple" fill-rule="nonzero">
            <g id="Group" transform="translate(341.000000, 49.000000)">
                <polygon id="Path" fill="#FFFFFF" points="94.8 2 94.8 101.7 71.6 101.7 27.6 48.6 27.6 101.7 8.52651283e-14 101.7 8.52651283e-14 2 23.2 2 67.2 55.1 67.2 2 94.8 2"></polygon>
                <polygon id="Path" fill="#FFFFFF" points="220.5 79.9 220.5 101.7 140.4 101.7 140.4 2 218.6 2 218.6 23.8 168.3 23.8 168.3 40.6 212.6 40.6 212.6 61.7 168.3 61.7 168.3 79.9 220.5 79.9"></polygon>
                <path d="M305.4,75.2 L290,75.2 L290,101.7 L261.8,101.7 L261.8,2 L307.4,2 C316.4,2 324.3,3.5 330.9,6.5 C337.5,9.5 342.7,13.8 346.3,19.3 C349.9,24.9 351.7,31.4 351.7,38.9 C351.7,46.1 350,52.4 346.6,57.8 C343.2,63.2 338.4,67.4 332.1,70.4 L353.6,101.7 L323.4,101.7 L305.4,75.2 Z M318.8,28.1 C315.9,25.5 311.5,24.3 305.7,24.3 L290,24.3 L290,53.5 L305.7,53.5 C311.5,53.5 315.9,52.2 318.8,49.7 C321.7,47.2 323.2,43.6 323.2,38.9 C323.2,34.2 321.8,30.6 318.8,28.1 Z" id="Shape" fill="#FFFFFF"></path>
                <polygon id="Path" fill="#FFFFFF" points="494.1 2 451.4 101.7 423.6 101.7 381 2 411.5 2 438.6 67 466.2 2"></polygon>
                <path d="M546.1,97 C537.7,92.5 531.1,86.4 526.3,78.5 C521.5,70.6 519.1,61.7 519.1,51.9 C519.1,42 521.5,33.1 526.3,25.3 C531.1,17.4 537.7,11.2 546.1,6.8 C554.5,2.3 564,0.1 574.5,0.1 C585,0.1 594.5,2.3 602.9,6.8 C611.3,11.3 617.9,17.4 622.7,25.3 C627.5,33.2 629.9,42.1 629.9,51.9 C629.9,61.8 627.5,70.7 622.7,78.5 C617.9,86.4 611.3,92.6 602.9,97 C594.5,101.5 585,103.7 574.5,103.7 C564,103.7 554.6,101.5 546.1,97 Z M588.3,76.8 C592.4,74.4 595.6,71.1 598,66.8 C600.4,62.5 601.6,57.5 601.6,51.9 C601.6,46.3 600.4,41.3 598,37 C595.6,32.7 592.4,29.3 588.3,27 C584.2,24.6 579.7,23.4 574.6,23.4 C569.6,23.4 565,24.6 560.9,27 C556.8,29.4 553.6,32.7 551.2,37 C548.8,41.3 547.6,46.3 547.6,51.9 C547.6,57.5 548.8,62.5 551.2,66.8 C553.6,71.1 556.8,74.5 560.9,76.8 C565,79.2 569.5,80.4 574.6,80.4 C579.6,80.3 584.2,79.2 588.3,76.8 Z" id="Shape" fill="#3CC68A"></path>
                <path d="M682,100.7 C674.4,98.7 668.2,96 663.5,92.7 L672.8,71.9 C677.3,74.8 682.4,77.2 688.3,79 C694.2,80.8 700,81.7 705.7,81.7 C716.5,81.7 721.9,79 721.9,73.6 C721.9,70.7 720.4,68.6 717.3,67.3 C714.2,65.9 709.2,64.5 702.4,63 C694.9,61.4 688.6,59.7 683.6,57.8 C678.6,55.9 674.2,53 670.6,48.9 C667,44.8 665.2,39.3 665.2,32.4 C665.2,26.3 666.9,20.8 670.2,15.9 C673.5,11 678.5,7.1 685.1,4.3 C691.7,1.4 699.8,1.13686838e-13 709.4,1.13686838e-13 C716,1.13686838e-13 722.4,0.7 728.8,2.2 C735.2,3.7 740.8,5.8 745.6,8.7 L736.9,29.6 C727.4,24.5 718.2,21.9 709.3,21.9 C703.7,21.9 699.6,22.7 697,24.4 C694.4,26.1 693.2,28.2 693.2,30.9 C693.2,33.6 694.7,35.6 697.8,36.9 C700.8,38.2 705.7,39.6 712.5,41 C720.1,42.6 726.4,44.3 731.4,46.2 C736.4,48.1 740.7,51 744.4,55 C748.1,59 749.9,64.5 749.9,71.5 C749.9,77.5 748.2,82.9 744.9,87.7 C741.6,92.5 736.6,96.4 729.9,99.3 C723.2,102.2 715.2,103.6 705.7,103.6 C697.4,103.7 689.6,102.7 682,100.7 Z" id="Path" fill="#FFFFFF"></path>
            </g>
            <g id="Group">
                <polygon id="Path" fill="#FFFFFF" points="0 0 0 40.3333333 0 80.6666667 0 121 40 121 40 80.6666667 40 40.3333333 40 0"></polygon>
                <polygon id="Path" fill="#FFFFFF" points="200 81 200 121.333333 200 161.666667 200 202 240 202 240 161.666667 240 121.333333 240 81"></polygon>
                <polygon id="Path" fill="#FFFFFF" points="119 0 119 40.2532939 119 78.7467061 159 119 159 80.5065878 159 40.2532939"></polygon>
                <polygon id="Path" fill="#FFFFFF" points="81 83 81 121.493412 81 161.746706 121 202 121 161.746706 121 123.253294"></polygon>
                <polygon id="Path" fill="#D8D8D8" points="119 0 159.333333 0 240 81 199.666667 81"></polygon>
                <polygon id="Path" fill="#D8D8D8" points="0 121 40.3333333 121 121 202 80.6666667 202"></polygon>
                <polygon id="Path" fill="#3CC68A" points="158.818803 40.4 158.818803 80.8 158.818803 118.919873 40 0 40 40.4 40 42.872814 40 80.8 40 121.2 80.1811973 161.6 80.1811973 121.2 80.1811973 83.1122417 199 202 199 161.6 199 159.127186 199 121.2 199 80.8"></polygon>
            </g>
        </g>
    </g>
</svg>