<?xml version="1.0" encoding="UTF-8"?>
<svg width="750px" height="630px" viewBox="0 0 750 630" version="1.1" xmlns="http://www.w3.org/2000/svg" xmlns:xlink="http://www.w3.org/1999/xlink">
    <!-- Generator: Sketch 59.1 (86144) - https://sketch.com -->
    <title>Group</title>
    <desc>Created with Sketch.</desc>
    <g id="Page-1" stroke="none" stroke-width="1" fill="none" fill-rule="evenodd">
        <g id="Group" fill-rule="nonzero">
            <polygon id="Path" fill="#FFFFFF" points="0 0.8 0 126.6 0 252.4 0 378.2 125.8 378.2 125.8 252.4 125.8 126.6 125.8 0.8"></polygon>
            <polygon id="Path" fill="#FFFFFF" points="623.6 252.4 623.6 378.2 623.6 504 623.6 629.8 749.4 629.8 749.4 504 749.4 378.2 749.4 252.4"></polygon>
            <polygon id="Path" fill="#FFFFFF" points="372 0.8 372 126.6 372 246.9 497.8 372.7 497.8 252.4 497.8 126.6"></polygon>
            <polygon id="Path" fill="#FFFFFF" points="251.6 257.9 251.6 378.2 251.6 504 377.4 629.8 377.4 504 377.4 383.7"></polygon>
            <polygon id="Path" fill="#D8D8D8" points="372 0.8 497.8 0.8 749.4 252.4 623.6 252.4"></polygon>
            <polygon id="Path" fill="#D8D8D8" points="0 378.2 125.8 378.2 377.4 629.8 251.6 629.8"></polygon>
            <polygon id="Path" fill="#3CC68A" points="497.8 126.6 497.8 252.4 497.8 371.1 125.8 0.8 125.8 126.6 125.8 134.3 125.8 252.4 125.8 378.2 251.6 504 251.6 378.2 251.6 259.6 623.6 629.8 623.6 504 623.6 496.3 623.6 378.2 623.6 252.4"></polygon>
        </g>
    </g>
</svg>