<?xml version="1.0" encoding="UTF-8"?>
<svg width="368px" height="373px" viewBox="0 0 368 373" version="1.1" xmlns="http://www.w3.org/2000/svg" xmlns:xlink="http://www.w3.org/1999/xlink">
    <!-- Generator: Sketch 59.1 (86144) - https://sketch.com -->
    <title>Shape</title>
    <desc>Created with Sketch.</desc>
    <g id="Page-1" stroke="none" stroke-width="1" fill="none" fill-rule="evenodd">
        <path d="M47.0697674,179.409443 C47.0697674,190.352909 38.2160343,199.230126 27.2790698,199.230126 C16.3516614,199.230126 7.48837209,190.352909 7.48837209,179.409443 C7.48837209,168.465977 16.3516614,159.598326 27.2790698,159.598326 C38.2160343,159.598326 47.0697674,168.465977 47.0697674,179.409443 M361.581395,179.409443 C361.581395,190.352909 352.718106,199.230126 341.795476,199.230126 C330.863289,199.230126 322,190.352909 322,179.409443 C322,168.465977 330.863289,159.598326 341.795476,159.598326 C352.718106,159.598326 361.581395,168.465977 361.581395,179.409443 M204.325581,257.604303 C204.325581,268.546448 195.463362,277.422594 184.537272,277.422594 C173.606406,277.422594 164.744186,268.546448 164.744186,257.604303 C164.744186,246.662158 173.606406,237.790795 184.537272,237.790795 C195.463362,237.790795 204.325581,246.662158 204.325581,257.604303 M125.162791,219.046025 C125.162791,229.984708 116.305349,238.861925 105.369704,238.861925 C94.4388373,238.861925 85.5813953,229.984708 85.5813953,219.046025 C85.5813953,208.097776 94.4388373,199.230126 105.369704,199.230126 C116.305349,199.230126 125.162791,208.097776 125.162791,219.046025 M282.418605,219.046025 C282.418605,229.984708 273.556385,238.861925 262.630296,238.861925 C251.694651,238.861925 242.837209,229.984708 242.837209,219.046025 C242.837209,208.097776 251.694651,199.230126 262.630296,199.230126 C273.556385,199.230126 282.418605,208.097776 282.418605,219.046025 M40.6511628,239.402311 C40.6511628,246.783926 34.669481,252.786611 27.286294,252.786611 C19.8934747,252.786611 13.9069767,246.783926 13.9069767,239.402311 C13.9069767,232.00141 19.8934747,226.008368 27.286294,226.008368 C34.669481,226.008368 40.6511628,232.00141 40.6511628,239.402311 M355.162791,239.402311 C355.162791,246.783926 349.172555,252.786611 341.790698,252.786611 C334.404025,252.786611 328.418605,246.783926 328.418605,239.402311 C328.418605,232.00141 334.404025,226.008368 341.790698,226.008368 C349.172555,226.008368 355.162791,232.00141 355.162791,239.402311 M197.906977,318.651445 C197.906977,326.047524 191.914084,332.050209 184.539697,332.050209 C177.160497,332.050209 171.162791,326.047524 171.162791,318.651445 C171.162791,311.260187 177.160497,305.271967 184.539697,305.271967 C191.914084,305.271967 197.906977,311.260187 197.906977,318.651445 M118.744186,279.034112 C118.744186,286.428032 112.758766,292.41841 105.376908,292.41841 C97.9902354,292.41841 92,286.428032 92,279.034112 C92,271.635368 97.9902354,265.640167 105.376908,265.640167 C112.758766,265.640167 118.744186,271.635368 118.744186,279.034112 M276,279.034112 C276,286.428032 270.006029,292.41841 262.635129,292.41841 C255.244971,292.41841 249.255814,286.428032 249.255814,279.034112 C249.255814,271.635368 255.244971,265.640167 262.635129,265.640167 C270.006029,265.640167 276,271.635368 276,279.034112 M34.2325581,286.519798 C34.2325581,290.372146 31.1213336,293.48954 27.2815312,293.48954 C23.4368059,293.48954 20.3255814,290.372146 20.3255814,286.519798 C20.3255814,282.677314 23.4368059,279.564854 27.2815312,279.564854 C31.1213336,279.564854 34.2325581,282.677314 34.2325581,286.519798 M348.744186,286.519798 C348.744186,290.372146 345.625831,293.48954 341.793161,293.48954 C337.945712,293.48954 334.837209,290.372146 334.837209,286.519798 C334.837209,282.677314 337.945712,279.564854 341.793161,279.564854 C345.625831,279.564854 348.744186,282.677314 348.744186,286.519798 M191.488372,365.785864 C191.488372,369.631918 188.370017,372.753138 184.537347,372.753138 C180.694824,372.753138 177.581395,369.631918 177.581395,365.785864 C177.581395,361.939811 180.694824,358.828452 184.537347,358.828452 C188.370017,358.828452 191.488372,361.939811 191.488372,365.785864 M112.325581,326.158996 C112.325581,330.000119 109.209434,333.121339 105.369632,333.121339 C101.534752,333.121339 98.4186047,330.000119 98.4186047,326.158996 C98.4186047,322.308011 101.534752,319.196653 105.369632,319.196653 C109.209434,319.196653 112.325581,322.308011 112.325581,326.158996 M269.581395,326.158996 C269.581395,330.000119 266.46304,333.121339 262.63037,333.121339 C258.777995,333.121339 255.674419,330.000119 255.674419,326.158996 C255.674419,322.308011 258.777995,319.196653 262.63037,319.196653 C266.46304,319.196653 269.581395,322.308011 269.581395,326.158996 M210.744186,26.7787227 C210.744186,41.571099 198.76839,53.5564854 184.007191,53.5564854 C169.23161,53.5564854 157.255814,41.571099 157.255814,26.7787227 C157.255814,11.9901863 169.23161,0 184.007191,0 C198.76839,0 210.744186,11.9901863 210.744186,26.7787227 M210.744186,106.041841 C210.744186,120.832261 198.76839,132.820084 184.007191,132.820084 C169.23161,132.820084 157.255814,120.832261 157.255814,106.041841 C157.255814,91.2562199 169.23161,79.2635983 184.007191,79.2635983 C198.76839,79.2635983 210.744186,91.2562199 210.744186,106.041841 M210.744186,184.239109 C210.744186,199.022581 198.76839,211.012552 184.007191,211.012552 C169.23161,211.012552 157.255814,199.022581 157.255814,184.239109 C157.255814,169.446038 169.23161,157.456067 184.007191,157.456067 C198.76839,157.456067 210.744186,169.446038 210.744186,184.239109 M368,106.041841 C368,120.832261 356.026351,132.820084 341.258211,132.820084 C326.485277,132.820084 314.511628,120.832261 314.511628,106.041841 C314.511628,91.2562199 326.485277,79.2635983 341.258211,79.2635983 C356.026351,79.2635983 368,91.2562199 368,106.041841 M53.4883721,106.041841 C53.4883721,120.832261 41.5173705,132.820084 26.7465831,132.820084 C11.9757958,132.820084 0,120.832261 0,106.041841 C0,91.2562199 11.9757958,79.2635983 26.7465831,79.2635983 C41.5173705,79.2635983 53.4883721,91.2562199 53.4883721,106.041841 M132.651163,66.4100418 C132.651163,81.1983132 120.679088,93.1882845 105.906977,93.1882845 C91.1348654,93.1882845 79.1627907,81.1983132 79.1627907,66.4100418 C79.1627907,51.6121709 91.1348654,39.6317992 105.906977,39.6317992 C120.679088,39.6317992 132.651163,51.6121709 132.651163,66.4100418 M132.651163,144.60011 C132.651163,159.389707 120.679088,171.380753 105.906977,171.380753 C91.1348654,171.380753 79.1627907,159.389707 79.1627907,144.60011 C79.1627907,129.815314 91.1348654,117.824268 105.906977,117.824268 C120.679088,117.824268 132.651163,129.815314 132.651163,144.60011 M289.906977,66.4100418 C289.906977,81.1983132 277.931181,93.1882845 263.160394,93.1882845 C248.389606,93.1882845 236.418605,81.1983132 236.418605,66.4100418 C236.418605,51.6121709 248.389606,39.6317992 263.160394,39.6317992 C277.931181,39.6317992 289.906977,51.6121709 289.906977,66.4100418 M289.906977,144.60011 C289.906977,159.389707 277.931181,171.380753 263.160394,171.380753 C248.389606,171.380753 236.418605,159.389707 236.418605,144.60011 C236.418605,129.815314 248.389606,117.824268 263.160394,117.824268 C277.931181,117.824268 289.906977,129.815314 289.906977,144.60011" id="Shape" fill="#FFFFFF"></path>
    </g>
</svg>