<?xml version="1.0" encoding="UTF-8"?>
<svg width="198px" height="175px" viewBox="0 0 198 175" version="1.1" xmlns="http://www.w3.org/2000/svg" xmlns:xlink="http://www.w3.org/1999/xlink">
    <!-- Generator: Sketch 59.1 (86144) - https://sketch.com -->
    <title>Logo-full-primary</title>
    <desc>Created with Sketch.</desc>
    <g id="Page-1" stroke="none" stroke-width="1" fill="none" fill-rule="evenodd">
        <g id="Logo-full-primary" fill="#5F45BA" fill-rule="nonzero">
            <circle id="Oval" cx="43.27" cy="11.19" r="11.19"></circle>
            <circle id="Oval" cx="7.92" cy="7.9" r="7.9"></circle>
            <path d="M121,173.78 C168.684265,167.795995 202.489005,124.289265 196.505,76.605 C190.520995,28.9207347 147.014265,-4.88400526 99.33,1.1 L99.33,1.1 C92.0134093,1.7845411 84.8441764,3.58190757 78.07,6.43 C70.19,10.28 65.07,16.72 65.07,25.35 C65.07,36.5613804 74.1586196,45.65 85.37,45.65 C87.25,45.65 93.74,43.65 95.27,43.06 C118.320654,35.0140414 143.689605,45.9897555 153.607185,68.2992092 C163.524764,90.6086628 154.676317,116.795586 133.259733,128.517363 C111.84315,140.239139 85.0162838,133.578115 71.57,113.2 L71.57,113.2 C62.2,100.94 64.36,81.33 64.35,81.09 C64.0078342,71.0341973 56.3580778,62.7429872 46.3622797,61.5939586 C36.3664817,60.44493 27.0349437,66.7841205 24.42,76.5 C23.9911854,78.922804 23.7836636,81.3795947 23.8,83.84 C22.7292058,109.31072 32.8954738,133.967179 51.6071522,151.281256 C70.3188307,168.595334 95.6887888,176.820853 121,173.78" id="Path"></path>
            <circle id="Oval" cx="28.77" cy="40.54" r="14.5"></circle>
        </g>
    </g>
</svg>