<?xml version="1.0" encoding="UTF-8"?>
<svg width="195px" height="175px" viewBox="0 0 195 175" version="1.1" xmlns="http://www.w3.org/2000/svg" xmlns:xlink="http://www.w3.org/1999/xlink">
    <!-- Generator: Sketch 59.1 (86144) - https://sketch.com -->
    <title>orchid_logo</title>
    <desc>Created with Sketch.</desc>
    <g id="Page-1" stroke="none" stroke-width="1" fill="none" fill-rule="evenodd">
        <g id="orchid_logo" fill="#FFFFFF" fill-rule="nonzero">
            <circle id="Oval" cx="42.26" cy="12.92" r="10.93"></circle>
            <circle id="Oval" cx="7.72" cy="9.71" r="7.72"></circle>
            <path d="M173.29,29.94 C158.101455,12.6108351 136.611404,2.07826113 113.61,0.69 C107.998022,0.340541827 102.365445,0.531419884 96.79,1.26 L96.79,1.26 C94.87,1.42 93,1.68 91.22,1.99 L89.58,2.21 L89.74,2.27 C84.8599407,3.22776475 80.091464,4.68545089 75.51,6.62 L75.46,6.62 C66.64,10.93 61.78,18.07 61.78,26.72 C61.7965364,38.6629664 71.4770273,48.3389838 83.42,48.35 C85.9,48.35 93.61,45.75 93.68,45.72 C113.917931,38.681954 136.284977,47.2236336 146.68,65.96 L146.68,65.96 C158.072364,86.569781 151.218154,112.49565 131.128707,124.782356 C111.03926,137.069062 84.8373274,131.360329 71.68,111.83 L71.68,111.83 L71.43,111.5 L69.68,108.85 C63.68,98.58 64.45,84.43 64.68,81.49 L64.68,81.21 L64.68,81.11 C64.3139956,70.3991558 56.1667188,61.5679365 45.5200191,60.3415889 C34.8733195,59.1152412 24.9315827,65.8628647 22.14,76.21 C21.6734514,78.7058751 21.4490762,81.24098 21.47,83.78 C19.55,130.57 56.01,171.02 102.74,173.96 C104.5,174.07 106.27,174.13 108.06,174.13 C111.354723,174.123955 114.646529,173.933658 117.92,173.56 L117.92,173.56 L118.38,173.56 L125.26,172.75 L124.77,172.54 C155.309685,166.592989 180.330442,144.755093 190.352573,115.300107 C200.374705,85.8451213 193.865071,53.2789318 173.29,29.94 L173.29,29.94 Z" id="Path"></path>
            <circle id="Oval" cx="28.09" cy="41.59" r="14.17"></circle>
        </g>
    </g>
</svg>