<?xml version="1.0" encoding="UTF-8"?>
<svg width="200px" height="56px" viewBox="0 0 200 56" version="1.1" xmlns="http://www.w3.org/2000/svg" xmlns:xlink="http://www.w3.org/1999/xlink">
    <!-- Generator: Sketch 47.1 (45422) - http://www.bohemiancoding.com/sketch -->
    <title>index/props_index/header/logo</title>
    <desc>Created with Sketch.</desc>
    <defs>
        <polygon id="path-1" points="31.1263091 0.112 0.000126182965 0.112 0.000126182965 48.2828854 31.1263091 48.2828854 31.1263091 0.112"></polygon>
        <polygon id="path-3" points="0 55.8881888 199.608202 55.8881888 199.608202 0.629402247 0 0.629402247"></polygon>
    </defs>
    <g id="Page-1" stroke="none" stroke-width="1" fill="none" fill-rule="evenodd">
        <g id="coinlist-website-WIP" transform="translate(-620.000000, -144.000000)">
            <g id="Hero">
                <g id="index/props_index/header/logo" transform="translate(620.000000, 144.000000)">
                    <path d="M72.6474448,25.1153708 L74.5856151,25.1153708 C76.7332492,25.1153708 77.8064353,24.1835056 77.8064353,22.3204045 C77.8064353,20.4566742 76.7332492,19.5241798 74.5856151,19.5241798 L72.6474448,19.5241798 L72.6474448,25.1153708 Z M72.6474448,37.2491236 L66.8026498,37.2491236 L66.8026498,14.8252135 L76.1061199,14.8252135 C78.631041,14.8252135 80.564795,15.4802247 81.9067508,16.7883596 C83.2487066,18.0971236 83.9193691,19.9407191 83.9193691,22.3204045 C83.9193691,24.6988315 83.2487066,26.5430562 81.9067508,27.8518202 C80.564795,29.1599551 78.631041,29.8143371 76.1061199,29.8143371 L72.6474448,29.8143371 L72.6474448,37.2491236 Z" id="Fill-1" fill="#FFFFFF"></path>
                    <path d="M100.005363,24.8480809 L101.108833,24.8480809 C102.261514,24.8480809 103.146688,24.6102382 103.762461,24.1339236 C104.378864,23.657609 104.687382,22.9742831 104.687382,22.0820584 C104.687382,21.1898337 104.378864,20.5058787 103.762461,20.0301933 C103.146688,19.5538787 102.261514,19.316036 101.108833,19.316036 L100.005363,19.316036 L100.005363,24.8480809 Z M112.857729,37.2492494 L105.582019,37.2492494 L100.005363,28.6246202 L100.005363,37.2492494 L94.1605678,37.2492494 L94.1605678,14.8253393 L103.255836,14.8253393 C104.508202,14.8253393 105.600946,15.0090697 106.535962,15.3752719 C107.470347,15.7427326 108.240694,16.2429573 108.847003,16.8778337 C109.453312,17.5127101 109.910095,18.2457438 110.218612,19.0781933 C110.526498,19.9106427 110.681073,20.8028674 110.681073,21.7548674 C110.681073,23.460036 110.268454,24.8430472 109.443218,25.9039011 C108.617981,26.9641258 107.400946,27.6833169 105.790221,28.0595865 L112.857729,37.2492494 Z" id="Fill-3" fill="#FFFFFF"></path>
                    <path d="M127.047823,26.0377348 C127.047823,26.9293303 127.216278,27.7529708 127.554448,28.5055101 C127.892618,29.2593079 128.349401,29.9136899 128.926688,30.4686562 C129.502713,31.0236225 130.173375,31.4546337 130.939306,31.7623191 C131.703975,32.0700045 132.5147,32.2229034 133.36959,32.2229034 C134.223849,32.2229034 135.033943,32.0700045 135.799874,31.7623191 C136.564543,31.4546337 137.240883,31.0236225 137.827634,30.4686562 C138.413754,29.9136899 138.875584,29.2593079 139.213754,28.5055101 C139.551924,27.7529708 139.721009,26.9293303 139.721009,26.0377348 C139.721009,25.1455101 139.551924,24.3224989 139.213754,23.5687011 C138.875584,22.8161618 138.413754,22.1617798 137.827634,21.6061843 C137.240883,21.051218 136.564543,20.6202067 135.799874,20.3118921 C135.033943,20.0054652 134.223849,19.8513079 133.36959,19.8513079 C132.5147,19.8513079 131.703975,20.0054652 130.939306,20.3118921 C130.173375,20.6202067 129.502713,21.051218 128.926688,21.6061843 C128.349401,22.1617798 127.892618,22.8161618 127.554448,23.5687011 C127.216278,24.3224989 127.047823,25.1455101 127.047823,26.0377348 M120.93489,26.0377348 C120.93489,24.3722067 121.242776,22.8211955 121.858549,21.3834427 C122.474953,19.9456899 123.329842,18.6916674 124.423849,17.6213753 C125.516593,16.5504539 126.824479,15.7129708 128.344984,15.1082966 C129.865489,14.5036225 131.539937,14.2009708 133.36959,14.2009708 C135.178423,14.2009708 136.847823,14.5036225 138.379054,15.1082966 C139.909653,15.7129708 141.227003,16.5504539 142.330473,17.6213753 C143.433943,18.6916674 144.293249,19.9456899 144.910284,21.3834427 C145.525426,22.8211955 145.833943,24.3722067 145.833943,26.0377348 C145.833943,27.7026337 145.525426,29.2542742 144.910284,30.6913978 C144.293249,32.1297798 143.433943,33.383173 142.330473,34.4534652 C141.227003,35.5243865 139.909653,36.3618697 138.379054,36.9665438 C136.847823,37.571218 135.178423,37.8738697 133.36959,37.8738697 C131.539937,37.8738697 129.865489,37.571218 128.344984,36.9665438 C126.824479,36.3618697 125.516593,35.5243865 124.423849,34.4534652 C123.329842,33.383173 122.474953,32.1297798 121.858549,30.6913978 C121.242776,29.2542742 120.93489,27.7026337 120.93489,26.0377348" id="Fill-5" fill="#FFFFFF"></path>
                    <path d="M162.528202,25.1153708 L164.466372,25.1153708 C166.614006,25.1153708 167.687192,24.1835056 167.687192,22.3204045 C167.687192,20.4566742 166.614006,19.5241798 164.466372,19.5241798 L162.528202,19.5241798 L162.528202,25.1153708 Z M162.528202,37.2491236 L156.683407,37.2491236 L156.683407,14.8252135 L165.986877,14.8252135 C168.511798,14.8252135 170.445552,15.4802247 171.787508,16.7883596 C173.129464,18.0971236 173.800126,19.9407191 173.800126,22.3204045 C173.800126,24.6988315 173.129464,26.5430562 171.787508,27.8518202 C170.445552,29.1599551 168.511798,29.8143371 165.986877,29.8143371 L162.528202,29.8143371 L162.528202,37.2491236 Z" id="Fill-7" fill="#FFFFFF"></path>
                    <path d="M196.357918,20.5652764 C195.721325,20.0499506 195.085363,19.668018 194.449401,19.4207371 C193.812808,19.1721978 193.196404,19.0488719 192.60082,19.0488719 C191.844984,19.0488719 191.22858,19.2269393 190.751609,19.5837034 C190.274637,19.9410966 190.035521,20.4067146 190.035521,20.9818157 C190.035521,21.3782202 190.155394,21.7054112 190.39388,21.9633888 C190.632366,22.2207371 190.9453,22.4434787 191.333312,22.6322427 C191.720694,22.8210067 192.157918,22.9846022 192.644984,23.1224 C193.13205,23.2620854 193.614069,23.4099506 194.091672,23.5685124 C196.000189,24.2033888 197.396404,25.0515685 198.280946,26.111164 C199.165489,27.1726472 199.60776,28.5550292 199.60776,30.2601978 C199.60776,31.4104 199.4147,32.4511191 199.026688,33.3829843 C198.638675,34.3154787 198.072744,35.1126921 197.327003,35.7771416 C196.581262,36.4409618 195.666435,36.9569169 194.583155,37.3231191 C193.499874,37.6899506 192.272114,37.8736809 190.901136,37.8736809 C188.057603,37.8736809 185.423533,37.031164 182.998297,35.3455011 L185.503659,30.6465348 C186.378107,31.4198382 187.243091,31.9955685 188.09735,32.3718382 C188.95224,32.7487371 189.797666,32.9368719 190.632366,32.9368719 C191.58694,32.9368719 192.296719,32.7185348 192.764858,32.2824899 C193.231735,31.8470742 193.465174,31.3512539 193.465174,30.7956584 C193.465174,30.4590292 193.405237,30.1664449 193.286625,29.9179056 C193.166751,29.6706247 192.968013,29.4422202 192.69041,29.2339506 C192.411546,29.0256809 192.04877,28.8331416 191.601451,28.6544449 C191.154132,28.4757483 190.612808,28.2781753 189.976215,28.059209 C189.220379,27.8213663 188.480315,27.5589843 187.754763,27.2714337 C187.029211,26.9838831 186.383155,26.6025798 185.816593,26.1268944 C185.250032,25.6505798 184.792618,25.0515685 184.444984,24.3273438 C184.096719,23.6037483 183.923218,22.6869843 183.923218,21.5764225 C183.923218,20.4664899 184.106814,19.4603775 184.474637,18.5580854 C184.842461,17.6557933 185.358549,16.8824899 186.025426,16.2381753 C186.691041,15.5944899 187.506183,15.093636 188.470852,14.7362427 C189.434259,14.3794787 190.513123,14.200782 191.706183,14.200782 C192.819117,14.200782 193.981893,14.3549393 195.194511,14.6619955 C196.407129,14.9690517 197.569905,15.4201978 198.684101,16.0154337 L196.357918,20.5652764 Z" id="Fill-9" fill="#FFFFFF"></path>
                    <g id="Group-13" transform="translate(0.000000, 0.517402)">
                        <mask id="mask-2" fill="white">
                            <use xlink:href="#path-1"></use>
                        </mask>
                        <g id="Clip-12"></g>
                        <path d="M13.9988644,32.304009 L13.9988644,14.0725483 L31.1263091,14.0725483 L31.1263091,0.733851685 C29.3237855,0.331155056 27.4512303,0.111559551 25.5269401,0.111559551 C11.4291483,0.111559551 0.000126182965,11.5097618 0.000126182965,25.5701663 C0.000126182965,35.4916045 5.69476341,44.081627 13.9988644,48.2828854 L13.9988644,37.0671551 L13.9988644,32.304009 Z" id="Fill-11" fill="#00D1FF" mask="url(#mask-2)"></path>
                    </g>
                    <path d="M37.0556467,3.37560449 L37.0556467,14.5900764 L37.0556467,17.3825258 L37.0556467,37.5846831 L19.9282019,37.5846831 L19.9282019,50.924009 C21.7307256,51.3267056 23.6026498,51.5463011 25.527571,51.5463011 C39.6253628,51.5463011 51.0537539,40.1474697 51.0537539,26.0876944 C51.0537539,16.165627 45.3597476,7.57623371 37.0556467,3.37560449" id="Fill-14" fill="#00D1FF"></path>
                    <mask id="mask-4" fill="white">
                        <use xlink:href="#path-3"></use>
                    </mask>
                    <g id="Clip-17"></g>
                    <polygon id="Fill-16" fill="#00D1FF" mask="url(#mask-4)" points="19.9280757 31.6716494 31.1268139 31.6716494 31.1268139 20.5031101 19.9280757 20.5031101"></polygon>
                    <path d="M118.250789,52.215218 C118.444479,52.3580494 118.717035,52.4285213 119.070347,52.4285213 C119.540379,52.4285213 119.939748,52.2548584 120.269085,51.9081618 C120.599054,51.560836 120.843849,51.1323416 121.004101,50.6233079 C121.164353,50.1142742 121.244479,49.6209708 121.244479,49.144027 C121.244479,48.6349933 121.163091,48.2385888 121.000946,47.9554427 C120.839432,47.6722966 120.616088,47.5313528 120.332177,47.5313528 C120.029968,47.5313528 119.735962,47.6332854 119.449527,47.838409 C119.163722,48.0429034 118.934069,48.2731955 118.759306,48.5299146 L118.250789,52.215218 Z M117.606625,44.7634427 L117.72082,44.3060045 L119.059621,44.0933303 L119.338486,44.2399371 L118.884858,47.6785888 C119.081073,47.4124315 119.321451,47.1903191 119.605363,47.0122517 C119.889905,46.8348135 120.199054,46.7467236 120.534069,46.7467236 C120.942271,46.7467236 121.285489,46.8448809 121.564353,47.0411955 C121.842587,47.2381393 122.050158,47.5105888 122.186435,47.8598022 C122.323344,48.2083865 122.391483,48.6117124 122.391483,49.0697798 C122.391483,49.6562067 122.248896,50.2627685 121.963091,50.8913528 C121.677287,51.5193079 121.269085,52.0428135 120.739117,52.4631281 C120.209148,52.8834427 119.59653,53.0936 118.900631,53.0936 C118.69306,53.0936 118.468454,53.0696899 118.226183,53.0224989 C117.983912,52.9753079 117.773817,52.9186787 117.595268,52.8538697 L117.049527,53.0936 L118.125237,44.9975101 L117.606625,44.7634427 Z" id="Fill-18" fill="#FFFFFF" mask="url(#mask-4)"></path>
                    <path d="M123.765741,47.6067326 C123.731041,47.5595416 123.684353,47.5356315 123.626309,47.5356315 C123.57142,47.5356315 123.513375,47.5501034 123.451546,47.5796764 C123.389085,47.6092494 123.300757,47.6803506 123.183407,47.793609 L123.025047,47.4324404 C123.065426,47.3701483 123.146814,47.2839461 123.26858,47.1744629 C123.390347,47.0649798 123.535457,46.965564 123.70265,46.8781034 C123.870473,46.7900135 124.041451,46.7465978 124.216215,46.7465978 C124.471104,46.7465978 124.650284,46.8082607 124.754385,46.9328449 C124.857855,47.0574292 124.924732,47.245564 124.953754,47.4972494 L125.177729,49.3943281 L125.429464,51.516036 L125.538612,53.0072719 L126.384669,51.3065079 C126.479937,51.0762157 126.587192,50.8364854 126.707066,50.5873169 C126.87489,50.2255191 127.00612,49.9266427 127.100757,49.6906876 C127.195394,49.4547326 127.27489,49.1954966 127.337981,48.913609 C127.402334,48.6323506 127.433249,48.3378787 127.433249,48.0308225 C127.433249,47.9389573 127.402965,47.8238112 127.341136,47.6847551 C127.308328,47.5966652 127.284353,47.5280809 127.269842,47.4790022 C127.255331,47.4299236 127.248391,47.3758112 127.248391,47.3172944 C127.248391,47.1228674 127.297603,46.980036 127.396025,46.8862831 C127.493817,46.7931596 127.625047,46.7465978 127.789085,46.7465978 C128.262271,46.7465978 128.498864,47.0958112 128.498864,47.793609 C128.498864,48.129609 128.447129,48.4769348 128.343659,48.8343281 C128.239558,49.1929798 128.115899,49.5270921 127.97205,49.8379236 C127.827571,50.1481258 127.639558,50.5262831 127.406751,50.9723955 L127.221262,51.333564 C126.350599,53.0878112 125.645237,54.2952719 125.106435,54.9565753 C124.932303,55.2044854 124.675521,55.4221933 124.339243,55.6090697 C124.002334,55.7953169 123.600442,55.8884404 123.134826,55.8884404 C123.017476,55.8884404 122.859117,55.8720809 122.656593,55.8393618 C122.4547,55.8060135 122.296972,55.772036 122.184038,55.7355416 L122.44082,54.8640809 C122.455331,54.8710022 122.504543,54.8949124 122.588454,54.9345528 C122.672366,54.9748225 122.784038,55.0106876 122.924101,55.0408899 C123.064795,55.0717213 123.21306,55.0874517 123.369527,55.0874517 C123.548076,55.0874517 123.75123,55.0333393 123.978991,54.9257438 C124.20612,54.8181483 124.438297,54.6388225 124.67489,54.3883955 C124.911483,54.1385978 125.122839,53.8139236 125.308328,53.4156315 L124.784038,53.4156315 L123.844606,47.8426876 C123.82694,47.7332045 123.800442,47.6545528 123.765741,47.6067326" id="Fill-19" fill="#FFFFFF" mask="url(#mask-4)"></path>
                    <path d="M148.093565,51.1116404 C149.485994,51.1116404 150.438675,50.0337978 150.438675,48.6998652 C150.438675,47.3659326 149.485994,46.2698427 148.093565,46.2698427 C146.701136,46.2698427 145.747823,47.3659326 145.747823,48.6998652 C145.747823,50.0337978 146.701136,51.1116404 148.093565,51.1116404 M148.093565,44.0764045 C150.78694,44.0764045 152.820379,46.1421124 152.820379,48.6998652 C152.820379,51.257618 150.78694,53.3044494 148.093565,53.3044494 C145.399558,53.3044494 143.36612,51.257618 143.36612,48.6998652 C143.36612,46.1421124 145.399558,44.0764045 148.093565,44.0764045" id="Fill-20" fill="#FFFFFF" mask="url(#mask-4)"></path>
                    <path d="M162.672366,44.2596944 L162.672366,53.1221663 L160.382145,53.1221663 L160.382145,52.4092674 C159.686246,53.0303011 158.843344,53.3046382 157.981514,53.3046382 C156.754385,53.3046382 155.655331,52.7383461 154.958801,51.8788404 C154.390978,51.184818 154.061009,50.2718292 154.061009,48.9555146 L154.061009,44.2596944 L156.442713,44.2596944 L156.442713,49.0467506 C156.442713,49.8515146 156.608013,50.2529528 156.882461,50.5637843 C157.249022,50.9652225 157.762587,51.1118292 158.22,51.1118292 C159.228202,51.1118292 159.960694,50.4354247 160.290662,50.0151101 L160.290662,44.2596944 L162.672366,44.2596944 Z" id="Fill-21" fill="#FFFFFF" mask="url(#mask-4)"></path>
                    <path d="M164.607003,53.1221663 L164.607003,44.2596944 L166.897224,44.2596944 L166.897224,44.9725933 C167.574826,44.4239191 168.417729,44.0765933 169.407003,44.0765933 C170.635394,44.0765933 171.752114,44.6252674 172.485237,45.502391 C173.071987,46.1964135 173.401325,47.0917843 173.401325,48.6081888 L173.401325,53.1221663 L171.019621,53.1221663 L171.019621,48.4257169 C171.019621,47.5492225 170.81836,47.0917843 170.488391,46.7633348 C170.176719,46.4518742 169.700379,46.2694022 169.150852,46.2694022 C168.14265,46.2694022 167.318675,46.9093124 166.988707,47.3661213 L166.988707,53.1221663 L164.607003,53.1221663 Z" id="Fill-22" fill="#FFFFFF" mask="url(#mask-4)"></path>
                    <path d="M179.275773,51.1116404 C180.668202,51.1116404 181.621514,50.0337978 181.621514,48.6998652 C181.621514,47.3659326 180.668202,46.2698427 179.275773,46.2698427 C177.883344,46.2698427 176.930662,47.3659326 176.930662,48.6998652 C176.930662,50.0337978 177.883344,51.1116404 179.275773,51.1116404 M179.275773,44.0764045 C181.969779,44.0764045 184.003218,46.1421124 184.003218,48.6998652 C184.003218,51.257618 181.969779,53.3044494 179.275773,53.3044494 C176.582397,53.3044494 174.548959,51.257618 174.548959,48.6998652 C174.548959,46.1421124 176.582397,44.0764045 179.275773,44.0764045" id="Fill-23" fill="#FFFFFF" mask="url(#mask-4)"></path>
                    <polygon id="Fill-24" fill="#FFFFFF" mask="url(#mask-4)" points="189.273691 53.1221663 187.62511 53.1221663 183.88694 44.2596944 186.287571 44.2596944 188.449085 49.4312 190.684416 44.2596944 192.333628 44.2596944 194.550662 49.4312 196.730473 44.2596944 199.131104 44.2596944 195.393565 53.1221663 193.744353 53.1221663 191.509022 47.9695371"></polygon>
                    <polygon id="Fill-25" fill="#FFFFFF" mask="url(#mask-4)" points="136.142524 54.6958292 138.626435 54.6958292 143.446625 44.2596944 140.936845 44.2596944 138.536845 49.5765483 135.934953 44.2596944 133.314763 44.2596944 137.290789 52.2267955"></polygon>
                </g>
            </g>
        </g>
    </g>
</svg>