<?xml version="1.0" encoding="UTF-8"?>
<svg width="106px" height="109px" viewBox="0 0 106 109" version="1.1" xmlns="http://www.w3.org/2000/svg" xmlns:xlink="http://www.w3.org/1999/xlink">
    <!-- Generator: Sketch 59.1 (86144) - https://sketch.com -->
    <title>Source</title>
    <desc>Created with Sketch.</desc>
    <g id="Page-1" stroke="none" stroke-width="1" fill="none" fill-rule="evenodd">
        <g id="Source">
            <path d="M106,38 C105.73497,36.6159029 105.40028,35.2771451 105,34 L106,38 Z" id="_Path_"></path>
            <path d="M80.8277284,27.2081579 C76.0539693,24.7585911 70.8303271,23.1652079 65.5167083,22.4296722 C60.5538317,21.7423957 55.3918401,22.0793775 50.3906401,22.1051712 L33.3858936,22.1883766 L25.4354602,22.2324754 L25.4354602,55.187635 L44.4305227,55.187635 L44.4305227,78.0100419 C44.4305227,78.0100419 51.9527341,75.8134196 52.3717918,65.5026074 C52.5384152,61.3498263 52.5734061,57.4857679 52.5525782,54.3530849 L52.5525782,46.6532579 L34.8355168,46.6532579 L34.8355168,30.8791798 L60.5929882,30.8791798 C73.6412631,30.8791798 86.2021648,37.2976437 91.9781634,49.4048602 C96.2670485,58.3910426 94.8607474,66.9961442 94.2917287,70.2012159 C93.0020639,77.4692069 89.6371052,83.5298876 84.9674857,88.4148762 C74.1211384,99.7632596 56.2207913,104.760575 40.8689485,103.757118 C37.8734408,103.547486 34.8909699,103.181437 31.9337711,102.660471 C29.2242489,102.070012 26.5700513,101.249967 24,100.20924 C24.0833117,100.273309 24.1666234,100.332384 24.249935,100.393124 C24.8570772,100.848584 25.4908098,101.267569 26.147775,101.647862 C27.1408502,102.213658 28.1764144,102.699578 29.1961493,103.212955 C30.1775609,103.70664 31.1734132,104.170372 32.1837061,104.604149 C36.2901445,106.367306 40.5997137,107.614928 45.0137045,108.318438 C47.2823854,108.67971 49.5716043,108.897863 51.8677562,108.9716 C52.4626016,108.991015 53.0577246,109 53.6531254,109 L53.7672624,109 C55.5452705,109.003584 57.3222492,108.914154 59.0908786,108.731969 L59.3133208,108.709503 C59.4799442,108.69203 59.6465675,108.671229 59.8131909,108.652092 C62.9695766,108.281797 66.0843106,107.617135 69.1166059,106.666811 C74.1850417,105.098814 78.9722314,102.73748 83.2995859,99.6709016 C92.6638185,93.0460883 97.4025867,84.971005 98.6614262,82.7202991 C98.6614262,82.7202991 100.82753,78.7355929 102.101365,72.4768834 C103.655128,64.8219873 103.865907,53.7723113 97.1243257,42.4397369 C93.2511658,35.9156021 87.5709756,30.6695022 80.8277284,27.2081579 Z" id="_Path_2" fill="#68CDFF" fill-rule="nonzero"></path>
            <path d="M38.8693126,93.998878 C42.3379622,94.0258433 45.7929998,93.566623 49.1315641,92.634889 C58.428263,90.0458049 64.0753584,84.555749 65.5182249,83.0844706 C68.7765855,79.7754291 71.3462808,75.8650071 73.0812992,71.5753973 C75.034253,66.7057901 75.5838364,61.1674955 75.6779547,55.9643764 C75.6829967,55.6840933 75.6998035,54.0015629 75.7224928,52.1069488 C75.7224928,49.6509369 75.7224928,47.3903746 75.7174507,46.1586259 L67.634205,46.1586259 L67.634205,54.7675592 C67.634205,64.1283498 64.5619162,74.4697155 56.7795128,80.3839387 C47.0802903,87.7553014 31.6188455,86.8936595 21.3456696,79.7102612 C8.36491319,70.6355755 5.9279226,52.1585143 10.3464386,37.9979793 C14.5599113,24.4845074 25.8179675,14.720342 39.2113317,10.4545494 C51.1853589,6.64037033 64.5820844,6.97305058 76.2989671,11.5357603 C88.8427459,16.4186747 98.9402904,25.952459 106,37.2145173 L104.188224,33.1816009 C104.913442,34.4692558 105.519824,35.8190303 106,37.2145173 C104.867743,33.9148511 103.433198,30.7244897 101.714258,27.683228 C100.680399,25.8453565 99.5488321,24.0630166 98.32432,22.34371 C98.2033108,22.1532505 97.4604488,21.0437619 96.0133806,19.3346171 C95.3276619,18.5104018 94.9108525,18.0754223 94.9108525,18.0754223 C94.6161727,17.7493957 94.3021651,17.4106163 93.9688296,17.0590842 C91.5007102,14.4579988 88.7875691,12.0958095 85.866256,10.0045994 C58.3551533,-9.60606984 18.460777,0.755256649 4.21530645,31.1181517 C4.13127229,31.2844918 4.04723813,31.4508319 3.96824602,31.617172 C3.10540473,33.4418667 2.37525359,35.3251861 1.78335791,37.2527755 C0.139649773,42.7602971 -0.197327202,48.2387092 0.0942713272,53.1199602 C0.346373802,57.2784634 0.64805643,63.5686153 3.96404432,70.7021116 C5.06825316,73.0774486 11.095183,85.4232128 24.9305668,91.1195304 C31.5322903,93.8342013 37.3508154,93.9839074 38.8693126,93.998878 Z" id="_Path_3" fill="#68CDFF" fill-rule="nonzero"></path>
        </g>
    </g>
</svg>