<?xml version="1.0" encoding="UTF-8"?>
<svg width="58px" height="56px" viewBox="0 0 58 56" version="1.1" xmlns="http://www.w3.org/2000/svg" xmlns:xlink="http://www.w3.org/1999/xlink">
    <!-- Generator: Sketch 47.1 (45422) - http://www.bohemiancoding.com/sketch -->
    <title>blockstack_mark</title>
    <desc>Created with Sketch.</desc>
    <defs></defs>
    <g id="Page-1" stroke="none" stroke-width="1" fill="none" fill-rule="evenodd">
        <g id="blockstack_mark" fill-rule="nonzero">
            <g id="bsk-bug-rev">
                <g id="stereocopy" transform="translate(0.000000, 0.993357)">
                    <path d="M14.408593,17.4071599 C19.1886126,17.4071599 23.063584,13.5448217 23.063584,8.78038593 C23.063584,4.01595019 19.1886126,0.153611896 14.408593,0.153611896 C9.62857347,0.153611896 5.753602,4.01595019 5.753602,8.78038593 C5.753602,13.5448217 9.62857347,17.4071599 14.408593,17.4071599 Z M49.0285571,17.4071599 C53.8085768,17.4071599 57.6835482,13.5448217 57.6835482,8.78038593 C57.6835482,4.01595019 53.8085768,0.153611896 49.0285571,0.153611896 C44.2485377,0.153611896 40.3735661,4.01595019 40.3735661,8.78038593 C40.3735661,13.5448217 44.2485377,17.4071599 49.0285571,17.4071599 Z M49.0285571,51.9142562 C53.8085768,51.9142562 57.6835482,48.0519178 57.6835482,43.2874821 C57.6835482,38.5230464 53.8085768,34.6607081 49.0285571,34.6607081 C44.2485377,34.6607081 40.3735661,38.5230464 40.3735661,43.2874821 C40.3735661,48.0519178 44.2485377,51.9142562 49.0285571,51.9142562 Z M14.408593,51.9142562 C19.1886126,51.9142562 23.063584,48.0519178 23.063584,43.2874821 C23.063584,38.5230464 19.1886126,34.6607081 14.408593,34.6607081 C9.62857347,34.6607081 5.753602,38.5230464 5.753602,43.2874821 C5.753602,48.0519178 9.62857347,51.9142562 14.408593,51.9142562 Z" id="4dots-electric-blue" fill="#2C96FF"></path>
                    <path d="M8.65499103,19.7010976 C13.4350105,19.7010976 17.3099821,15.8387593 17.3099821,11.0743236 C17.3099821,6.30988783 13.4350105,2.44754954 8.65499103,2.44754954 C3.87497148,2.44754954 0,6.30988783 0,11.0743236 C0,15.8387593 3.87497148,19.7010976 8.65499103,19.7010976 Z M43.2749552,19.7010976 C48.0549747,19.7010976 51.9299462,15.8387593 51.9299462,11.0743236 C51.9299462,6.30988783 48.0549747,2.44754954 43.2749552,2.44754954 C38.4949356,2.44754954 34.6199642,6.30988783 34.6199642,11.0743236 C34.6199642,15.8387593 38.4949356,19.7010976 43.2749552,19.7010976 Z M43.2749552,54.2081938 C48.0549747,54.2081938 51.9299462,50.3458554 51.9299462,45.5814197 C51.9299462,40.816984 48.0549747,36.9546456 43.2749552,36.9546456 C38.4949356,36.9546456 34.6199642,40.816984 34.6199642,45.5814197 C34.6199642,50.3458554 38.4949356,54.2081938 43.2749552,54.2081938 Z M8.65499103,54.2081938 C13.4350105,54.2081938 17.3099821,50.3458554 17.3099821,45.5814197 C17.3099821,40.816984 13.4350105,36.9546456 8.65499103,36.9546456 C3.87497148,36.9546456 0,40.816984 0,45.5814197 C0,50.3458554 3.87497148,54.2081938 8.65499103,54.2081938 Z" id="4dots-magenta" fill="#E91E63"></path>
                </g>
                <path d="M11.531792,17.2535481 C16.3118116,17.2535481 20.1867831,13.3912098 20.1867831,8.62677404 C20.1867831,3.86233829 16.3118116,0 11.531792,0 C6.75177247,0 2.87680099,3.86233829 2.87680099,8.62677404 C2.87680099,13.3912098 6.75177247,17.2535481 11.531792,17.2535481 Z M46.1517562,17.2535481 C50.9317758,17.2535481 54.8067472,13.3912098 54.8067472,8.62677404 C54.8067472,3.86233829 50.9317758,0 46.1517562,0 C41.3717366,0 37.4967651,3.86233829 37.4967651,8.62677404 C37.4967651,13.3912098 41.3717366,17.2535481 46.1517562,17.2535481 Z M46.1517562,51.7606442 C50.9317758,51.7606442 54.8067472,47.8983059 54.8067472,43.1338702 C54.8067472,38.3694345 50.9317758,34.5070961 46.1517562,34.5070961 C41.3717366,34.5070961 37.4967651,38.3694345 37.4967651,43.1338702 C37.4967651,47.8983059 41.3717366,51.7606442 46.1517562,51.7606442 Z M11.531792,51.7606442 C16.3118116,51.7606442 20.1867831,47.8983059 20.1867831,43.1338702 C20.1867831,38.3694345 16.3118116,34.5070961 11.531792,34.5070961 C6.75177247,34.5070961 2.87680099,38.3694345 2.87680099,43.1338702 C2.87680099,47.8983059 6.75177247,51.7606442 11.531792,51.7606442 Z" id="4dots-rev" fill="#FFFFFF"></path>
            </g>
        </g>
    </g>
</svg>