<?xml version="1.0" encoding="UTF-8"?>
<svg width="28px" height="28px" viewBox="0 0 28 28" version="1.1" xmlns="http://www.w3.org/2000/svg" xmlns:xlink="http://www.w3.org/1999/xlink">
    <title>icon-karma</title>
    <g id="Page-1" stroke="none" stroke-width="1" fill="none" fill-rule="evenodd">
        <g id="icon-karma" fill="#000000" fill-rule="nonzero">
            <path d="M14,0 C6.28052174,0 0,6.27991304 0,14 C0,21.720087 6.28052174,28 14,28 C21.7194783,28 28,21.720087 28,14 C28,6.27991304 21.7194783,0 14,0 Z M14,1.2173913 C17.3563478,1.2173913 20.0869565,3.948 20.0869565,7.30434783 C20.0869565,10.6606957 17.3563478,13.3913043 14,13.3913043 C9.97226087,13.3913043 6.69565217,16.667913 6.69565217,20.6956522 C6.69565217,22.5588696 7.402766,24.2557323 8.55502748,25.5473844 C4.2259837,23.4979062 1.2173913,19.0990435 1.2173913,14 C1.2173913,6.95191304 6.95130435,1.2173913 14,1.2173913 Z M14,4.86956522 C12.6572174,4.86956522 11.5652174,5.96156522 11.5652174,7.30434783 C11.5652174,8.64713043 12.6572174,9.73913043 14,9.73913043 C15.3427826,9.73913043 16.4347826,8.64713043 16.4347826,7.30434783 C16.4347826,5.96156522 15.3427826,4.86956522 14,4.86956522 Z M14,18.2608696 C15.3446087,18.2608696 16.4347826,19.3510435 16.4347826,20.6956522 C16.4347826,22.0402609 15.3446087,23.1304348 14,23.1304348 C12.6553913,23.1304348 11.5652174,22.0402609 11.5652174,20.6956522 C11.5652174,19.3510435 12.6553913,18.2608696 14,18.2608696 Z" id="Shape"></path>
        </g>
    </g>
</svg>