<?xml version="1.0" encoding="UTF-8"?>
<svg width="28px" height="28px" viewBox="0 0 28 28" version="1.1" xmlns="http://www.w3.org/2000/svg" xmlns:xlink="http://www.w3.org/1999/xlink">
    <title>icons8-guru copy</title>
    <g id="Page-1" stroke="none" stroke-width="1" fill="none" fill-rule="evenodd">
        <g id="02" transform="translate(-336.000000, -128.000000)" fill="#2A2A30" fill-rule="nonzero">
            <g id="icons8-guru-copy" transform="translate(336.000000, 128.000000)">
                <path d="M13.3,0 C11.3660515,0 9.8,1.56605145 9.8,3.5 C9.8,5.43394918 11.3660515,7 13.3,7 C15.2339492,7 16.8,5.43394918 16.8,3.5 C16.8,1.56605145 15.2339492,0 13.3,0 Z M14,8.4 C11.3814736,8.4 8.59602927,9.48095734 8.59602927,9.48095734 L8.59602927,9.50135276 C7.70145287,9.67471384 6.98161893,10.3120711 6.7182016,11.1533819 L6.69733685,11.1533819 L4.50653791,16.7417274 C4.50653791,16.7417274 1.32466325,19.4594176 0.563099805,20.0661811 C-0.198463638,20.6729452 -0.148909685,21.7360564 0.479640797,22.289282 C1.10819128,22.8399584 1.9662547,22.6742457 2.83735776,22.0037461 C3.46590824,21.5219044 6.14963745,19.4670654 6.53041884,19.1075963 C6.91120089,18.7481271 7.19548297,18.3045264 7.38587366,17.9450572 C7.51888662,17.6952136 8.74729905,15.4644643 9.32629558,14.4166493 L9.32629558,19.8622268 C9.32629558,20.7545269 7.06768653,22.019043 5.77928777,22.7991675 C4.16487743,23.780697 2.89995201,24.4435482 2.89995201,25.7972945 C2.89995201,27.3396981 4.57174009,28 6.02966479,28 L8.01181622,28 C7.77708809,27.671124 7.63625068,27.2657648 7.63625068,26.7558793 C7.63625068,24.1478146 10.77118,23.6226328 12.6437911,23.3090531 C15.3848981,22.8501561 17.359225,22.5365763 17.3800898,22.5340271 C17.4166035,22.5289285 17.4687653,22.5365763 17.5052783,22.5340271 C17.5183186,22.5314778 17.5131028,22.5340271 17.5261431,22.5340271 C17.5313596,22.5340271 17.541792,22.5340271 17.5470078,22.5340271 C17.5626567,22.5340271 17.5730891,22.5340271 17.5887373,22.5340271 C17.5939538,22.5340271 17.6043862,22.5314778 17.6096021,22.5340271 C17.9408302,22.5722686 18.1938151,22.8501561 18.1938151,23.1866805 C18.1938151,23.5257543 17.9277899,23.7857962 17.5887373,23.8189386 C17.5887373,23.8214879 17.5887373,23.839334 17.5887373,23.839334 C17.5887373,23.839334 15.637883,24.1299691 12.8733034,24.5939646 C10.6903289,24.9610822 8.9715948,25.3944852 8.9715948,26.7558793 C8.9715948,27.671124 9.89746833,27.9362645 10.807693,28 L12.2890903,28 C12.2969148,28 12.3021307,28 12.3099551,28 L20.4054788,28 C21.4591488,28 25.100048,27.9566599 25.100048,25.9808533 C25.100048,24.7494795 24.0698507,24.099376 22.82579,23.2886576 C20.4654651,21.7513526 18.6737044,20.655099 18.6737044,19.821436 L18.6737044,14.4370447 C19.2527016,15.4848597 20.4811134,17.6926637 20.6141263,17.9450572 C20.804517,18.3045264 21.0887998,18.7481271 21.4695812,19.1075963 C21.8503632,19.4670654 24.5366997,21.5219044 25.1626422,22.0037461 C26.0363539,22.6742457 26.8918087,22.8399584 27.5203592,22.289282 C28.1489097,21.7360564 28.1984636,20.6729452 27.4369002,20.0661811 C26.6753368,19.4594176 23.4934621,16.7417274 23.4934621,16.7417274 L21.3026631,11.1533819 L21.2817984,11.1533819 C21.0183811,10.3069719 20.2855068,9.64921989 19.383106,9.48095734 C18.9266894,9.31014552 16.3759738,8.4 14,8.4 Z" id="Shape"></path>
            </g>
        </g>
    </g>
</svg>