<svg id="svg" version="1.1" xmlns="http://www.w3.org/2000/svg" xmlns:xlink="http://www.w3.org/1999/xlink" width="400" height="400" viewBox="0, 0, 400,400"><g id="svgg"><path id="path0" d="M126.600 171.872 C 121.396 172.605,118.800 176.347,118.800 183.116 C 118.800 188.015,118.990 187.715,115.088 188.979 C 96.167 195.109,87.019 220.098,97.422 237.235 C 100.415 242.165,106.482 246.863,115.315 251.091 C 119.201 252.951,118.842 250.443,118.711 274.800 L 118.600 295.400 117.487 295.528 C 115.464 295.760,109.856 293.459,104.907 290.366 C 94.997 284.173,84.394 296.685,92.599 304.889 C 96.473 308.764,110.205 314.800,115.146 314.800 C 115.770 314.800,116.847 314.998,117.540 315.239 L 118.800 315.678 118.800 320.055 C 118.800 324.981,119.310 326.507,121.712 328.772 C 126.297 333.097,134.030 331.662,136.664 325.997 C 137.606 323.970,137.727 323.305,137.961 318.838 L 138.200 314.275 141.200 313.230 C 144.500 312.080,148.924 310.009,149.133 309.515 C 149.207 309.342,149.430 309.200,149.629 309.200 C 149.971 309.200,151.046 308.411,152.216 307.300 C 152.506 307.025,152.859 306.800,153.002 306.800 C 153.278 306.800,158.169 301.891,159.243 300.536 C 161.604 297.555,165.200 291.186,165.200 289.984 C 165.200 289.767,165.362 289.277,165.561 288.895 C 165.760 288.513,166.132 287.390,166.388 286.400 C 166.644 285.410,167.053 283.970,167.295 283.200 C 167.868 281.381,167.880 269.815,167.311 268.000 C 167.070 267.230,166.661 265.880,166.403 265.000 C 165.518 261.983,163.288 257.356,161.600 255.035 C 160.632 253.704,155.029 248.009,154.683 248.004 C 154.509 248.002,154.011 247.669,153.577 247.264 C 153.142 246.859,152.295 246.274,151.693 245.965 C 151.092 245.655,150.510 245.311,150.400 245.201 C 149.940 244.739,146.680 243.200,146.162 243.200 C 145.853 243.200,145.600 243.020,145.600 242.800 C 145.600 242.580,145.150 242.400,144.600 242.400 C 144.050 242.400,143.600 242.220,143.600 242.000 C 143.600 241.780,143.238 241.600,142.795 241.600 C 142.352 241.600,141.677 241.432,141.295 241.226 C 140.913 241.021,140.015 240.617,139.300 240.329 L 138.000 239.805 138.000 223.302 C 138.000 209.052,138.080 206.800,138.588 206.800 C 139.333 206.800,141.992 208.283,142.792 209.145 C 145.764 212.347,151.334 213.693,154.639 212.008 C 156.253 211.185,159.200 208.241,159.200 207.453 C 159.200 207.094,159.380 206.800,159.600 206.800 C 159.835 206.800,160.000 205.400,160.000 203.400 C 160.000 201.400,159.835 200.000,159.600 200.000 C 159.380 200.000,159.200 199.640,159.200 199.200 C 159.200 198.760,159.020 198.400,158.800 198.400 C 158.580 198.400,158.400 198.215,158.400 197.989 C 158.400 197.566,154.998 194.000,154.594 194.000 C 154.469 194.000,154.011 193.669,153.577 193.264 C 153.142 192.859,152.295 192.274,151.693 191.965 C 151.092 191.655,150.510 191.301,150.400 191.178 C 149.680 190.376,143.635 188.111,140.400 187.432 L 138.200 186.970 137.950 183.385 C 137.813 181.413,137.572 179.440,137.414 179.000 C 135.576 173.869,131.500 171.183,126.600 171.872 M224.600 189.205 C 210.080 189.326,197.750 189.582,197.200 189.775 C 194.080 190.870,190.690 194.441,189.750 197.623 C 189.216 199.431,189.281 386.657,189.817 390.194 C 190.383 393.934,193.181 397.362,196.670 398.591 C 197.732 398.965,198.913 399.435,199.295 399.635 C 199.697 399.846,214.145 400.000,233.595 400.000 L 267.200 400.000 267.200 373.800 L 267.200 347.600 306.400 347.600 L 345.600 347.600 345.600 368.654 C 345.600 383.706,345.465 390.176,345.125 391.354 C 344.183 394.621,341.402 397.793,338.200 399.253 C 336.633 399.967,337.191 399.983,364.871 399.991 C 386.945 399.998,393.261 399.890,393.681 399.500 C 393.977 399.225,394.483 398.941,394.806 398.868 C 395.128 398.795,395.484 398.615,395.596 398.468 C 395.708 398.321,396.160 398.005,396.600 397.767 C 397.040 397.529,397.578 396.944,397.795 396.467 C 398.012 395.990,398.327 395.600,398.495 395.600 C 398.663 395.600,398.800 395.345,398.800 395.033 C 398.800 394.722,399.025 394.392,399.300 394.300 C 399.691 394.170,399.824 389.047,399.909 370.870 L 400.019 347.606 372.709 347.503 L 345.400 347.400 345.297 321.102 L 345.194 294.804 306.297 294.702 L 267.400 294.600 267.400 268.400 L 267.400 242.200 306.400 242.200 L 345.400 242.200 345.503 268.300 L 345.606 294.400 372.803 294.400 L 400.000 294.400 400.000 272.050 C 400.000 250.329,399.884 246.977,399.151 247.430 C 398.958 247.550,398.800 247.187,398.800 246.624 C 398.800 246.061,398.603 245.645,398.363 245.700 C 398.122 245.755,397.717 245.449,397.463 245.020 C 396.676 243.692,395.442 242.810,395.107 243.336 C 394.918 243.634,394.810 243.541,394.806 243.076 C 394.803 242.678,394.620 242.464,394.400 242.600 C 394.180 242.736,394.000 242.657,394.000 242.424 C 394.000 242.191,393.561 242.000,393.024 242.000 C 392.487 242.000,391.936 241.820,391.800 241.600 C 391.640 241.341,383.463 241.200,368.576 241.200 L 345.600 241.200 345.600 218.624 C 345.600 204.004,345.459 195.960,345.200 195.800 C 344.980 195.664,344.800 195.243,344.800 194.865 C 344.800 194.486,344.440 193.917,344.000 193.600 C 343.560 193.283,343.200 192.870,343.200 192.683 C 343.200 192.201,342.139 191.200,341.629 191.200 C 341.393 191.200,341.200 191.020,341.200 190.800 C 341.200 190.580,340.930 190.400,340.600 190.400 C 340.270 190.400,340.000 190.220,340.000 190.000 C 340.000 189.780,339.651 189.600,339.224 189.600 C 338.797 189.600,338.336 189.420,338.200 189.200 C 337.941 188.782,275.241 188.785,224.600 189.205 M118.707 219.905 C 118.828 231.827,118.912 231.571,115.732 228.965 C 112.635 226.428,111.257 220.476,112.851 216.519 C 114.500 212.422,116.856 209.125,118.000 209.312 C 118.512 209.396,118.616 210.943,118.707 219.905 M140.813 261.700 C 143.396 263.077,147.200 266.951,147.200 268.205 C 147.200 268.532,147.380 268.800,147.600 268.800 C 147.820 268.800,148.000 269.239,148.000 269.776 C 148.000 270.313,148.180 270.864,148.400 271.000 C 149.397 271.616,148.763 280.496,147.551 282.895 C 147.358 283.277,147.200 283.862,147.200 284.195 C 147.200 284.528,147.064 284.800,146.898 284.800 C 146.731 284.800,146.340 285.385,146.028 286.100 C 145.232 287.926,139.896 293.200,138.845 293.200 L 138.000 293.200 138.000 277.000 C 138.000 258.974,137.795 260.091,140.813 261.700 " stroke="none" fill="#fbd279" fill-rule="evenodd"></path><path id="path1" d="M117.400 0.447 C 116.300 0.631,114.635 0.895,113.700 1.033 C 112.765 1.171,112.000 1.445,112.000 1.642 C 112.000 1.839,111.561 2.000,111.024 2.000 C 110.487 2.000,109.936 2.180,109.800 2.400 C 109.664 2.620,109.113 2.800,108.576 2.800 C 108.039 2.800,107.600 2.980,107.600 3.200 C 107.600 3.420,107.240 3.600,106.800 3.600 C 106.360 3.600,106.000 3.780,106.000 4.000 C 106.000 4.220,105.640 4.400,105.200 4.400 C 104.760 4.400,104.400 4.580,104.400 4.800 C 104.400 5.020,104.040 5.200,103.600 5.200 C 103.160 5.200,102.800 5.380,102.800 5.600 C 102.800 5.820,102.429 6.000,101.976 6.000 C 101.523 6.000,101.264 6.180,101.400 6.400 C 101.536 6.620,101.367 6.800,101.024 6.800 C 100.681 6.800,100.400 6.980,100.400 7.200 C 100.400 7.420,100.029 7.600,99.576 7.600 C 99.123 7.600,98.864 7.780,99.000 8.000 C 99.136 8.220,98.992 8.400,98.680 8.400 C 98.172 8.400,94.335 11.956,92.162 14.442 C 91.701 14.969,90.919 15.670,90.425 16.000 C 89.930 16.330,89.155 16.915,88.701 17.300 C 88.248 17.685,87.738 18.000,87.567 18.000 C 87.397 18.000,87.012 18.225,86.713 18.500 C 85.863 19.282,84.470 20.000,83.805 20.000 C 83.472 20.000,83.200 20.180,83.200 20.400 C 83.200 20.620,82.761 20.800,82.224 20.800 C 81.687 20.800,81.136 20.980,81.000 21.200 C 80.864 21.420,80.324 21.600,79.800 21.600 C 79.276 21.600,78.736 21.780,78.600 22.000 C 78.464 22.220,77.114 22.400,75.600 22.400 C 74.086 22.400,72.736 22.580,72.600 22.800 C 72.447 23.047,69.004 23.200,63.600 23.200 C 58.196 23.200,54.753 23.353,54.600 23.600 C 54.464 23.820,54.043 24.000,53.665 24.000 C 53.286 24.000,52.717 24.360,52.400 24.800 C 52.083 25.240,51.503 25.600,51.112 25.600 C 50.720 25.600,50.400 25.788,50.400 26.017 C 50.400 26.247,49.936 26.922,49.369 27.517 C 48.394 28.541,47.666 29.854,47.326 31.200 C 46.980 32.568,47.177 39.337,47.574 39.734 C 47.808 39.968,48.000 40.484,48.000 40.880 C 48.000 41.276,48.180 41.600,48.400 41.600 C 48.620 41.600,48.800 42.140,48.800 42.800 C 48.800 43.460,48.980 44.000,49.200 44.000 C 49.420 44.000,49.600 44.360,49.600 44.800 C 49.600 45.240,49.780 45.600,50.000 45.600 C 50.220 45.600,50.400 46.140,50.400 46.800 C 50.400 47.460,50.580 48.000,50.800 48.000 C 51.020 48.000,51.200 48.349,51.200 48.776 C 51.200 49.203,51.380 49.664,51.600 49.800 C 51.820 49.936,52.000 50.487,52.000 51.024 C 52.000 51.561,52.180 52.000,52.400 52.000 C 52.620 52.000,52.800 52.272,52.800 52.605 C 52.800 53.193,52.967 53.618,53.938 55.495 C 54.192 55.987,54.400 56.752,54.400 57.195 C 54.400 57.638,54.580 58.000,54.800 58.000 C 55.020 58.000,55.200 58.360,55.200 58.800 C 55.200 59.240,55.380 59.600,55.600 59.600 C 55.820 59.600,56.000 60.140,56.000 60.800 C 56.000 61.460,56.180 62.000,56.400 62.000 C 56.620 62.000,56.800 62.360,56.800 62.800 C 56.800 63.240,56.980 63.600,57.200 63.600 C 57.420 63.600,57.600 64.140,57.600 64.800 C 57.600 65.460,57.758 66.000,57.950 66.000 C 58.143 66.000,58.435 66.585,58.601 67.300 C 58.767 68.015,58.952 68.817,59.013 69.083 C 59.074 69.348,59.411 70.141,59.762 70.844 C 60.113 71.547,60.400 72.455,60.400 72.861 C 60.400 73.268,60.580 73.600,60.800 73.600 C 61.020 73.600,61.200 73.872,61.200 74.205 C 61.200 74.538,61.408 75.213,61.662 75.705 C 62.656 77.626,62.800 78.016,62.800 78.771 C 62.800 79.201,62.980 79.664,63.200 79.800 C 63.420 79.936,63.600 80.397,63.600 80.824 C 63.600 81.251,63.780 81.600,64.000 81.600 C 64.220 81.600,64.400 81.960,64.400 82.400 C 64.400 82.840,64.580 83.200,64.800 83.200 C 65.020 83.200,65.200 83.740,65.200 84.400 C 65.200 85.060,65.380 85.600,65.600 85.600 C 65.820 85.600,66.000 85.870,66.000 86.200 C 66.000 86.530,66.180 86.800,66.400 86.800 C 66.620 86.800,66.800 87.160,66.800 87.600 C 66.800 88.040,66.980 88.400,67.200 88.400 C 67.420 88.400,67.600 88.636,67.600 88.925 C 67.600 89.213,67.960 89.836,68.400 90.308 C 68.840 90.780,69.200 91.356,69.200 91.587 C 69.200 91.818,69.740 92.572,70.400 93.263 C 71.060 93.954,71.600 94.676,71.600 94.869 C 71.600 95.061,72.365 96.025,73.300 97.011 C 77.638 101.585,80.885 104.800,81.167 104.800 C 81.337 104.800,81.999 105.250,82.638 105.800 C 83.277 106.349,84.025 106.799,84.300 106.800 C 84.575 106.800,84.800 106.958,84.800 107.151 C 84.800 107.345,85.340 107.727,86.000 108.000 C 87.714 108.710,87.505 109.065,84.900 109.869 C 83.635 110.259,82.510 110.698,82.400 110.845 C 82.290 110.992,81.390 111.348,80.400 111.637 C 79.410 111.926,78.060 112.486,77.400 112.880 C 76.740 113.274,75.885 113.598,75.500 113.599 C 75.115 113.599,74.800 113.780,74.800 114.000 C 74.800 114.220,74.440 114.400,74.000 114.400 C 73.560 114.400,73.200 114.580,73.200 114.800 C 73.200 115.020,72.840 115.200,72.400 115.200 C 71.960 115.200,71.600 115.380,71.600 115.600 C 71.600 115.820,71.240 116.000,70.800 116.000 C 70.360 116.000,69.999 116.135,69.997 116.300 C 69.993 116.659,68.056 117.600,67.320 117.600 C 67.034 117.600,66.800 117.780,66.800 118.000 C 66.800 118.220,66.455 118.400,66.033 118.400 C 65.612 118.400,65.207 118.542,65.133 118.714 C 64.929 119.196,62.536 120.800,62.022 120.800 C 61.771 120.800,61.211 121.131,60.777 121.536 C 60.342 121.941,59.495 122.525,58.893 122.833 C 58.292 123.142,57.509 123.711,57.153 124.097 C 56.797 124.484,56.289 124.800,56.025 124.800 C 55.760 124.800,55.292 125.025,54.985 125.300 C 53.691 126.461,53.214 126.800,52.876 126.800 C 52.680 126.800,51.954 127.340,51.263 128.000 C 50.572 128.660,49.918 129.200,49.808 129.200 C 49.606 129.200,48.342 130.191,47.384 131.100 C 47.094 131.375,46.679 131.600,46.462 131.600 C 46.245 131.600,46.007 131.735,45.933 131.900 C 45.860 132.065,45.201 132.695,44.469 133.300 C 43.737 133.905,43.263 134.400,43.415 134.400 C 43.567 134.400,42.636 135.390,41.346 136.600 C 40.056 137.810,38.855 138.800,38.677 138.800 C 38.499 138.800,38.481 139.008,38.638 139.262 C 38.802 139.527,38.749 139.616,38.513 139.470 C 37.944 139.118,36.400 140.538,36.400 141.414 C 36.400 141.809,36.298 142.031,36.172 141.906 C 35.924 141.658,30.171 147.355,29.200 148.811 C 28.870 149.306,28.232 150.091,27.781 150.556 C 27.331 151.020,26.611 152.031,26.181 152.800 C 25.752 153.570,25.085 154.491,24.700 154.847 C 24.315 155.203,24.000 155.671,24.000 155.888 C 24.000 156.104,23.460 156.846,22.800 157.537 C 22.140 158.228,21.600 158.974,21.600 159.196 C 21.600 159.418,21.420 159.600,21.200 159.600 C 20.980 159.600,20.800 159.870,20.800 160.200 C 20.800 160.530,20.664 160.800,20.498 160.800 C 20.331 160.800,19.971 161.306,19.697 161.925 C 19.424 162.544,18.840 163.436,18.400 163.908 C 17.960 164.380,17.600 165.044,17.600 165.383 C 17.600 165.722,17.454 166.000,17.275 166.000 C 17.096 166.000,16.705 166.622,16.407 167.382 C 16.109 168.142,15.715 168.671,15.532 168.558 C 15.350 168.445,15.200 168.723,15.200 169.176 C 15.200 169.629,15.020 170.000,14.800 170.000 C 14.580 170.000,14.400 170.360,14.400 170.800 C 14.400 171.240,14.220 171.600,14.000 171.600 C 13.780 171.600,13.600 171.872,13.600 172.205 C 13.600 172.783,12.849 174.377,12.377 174.800 C 11.835 175.286,9.086 181.562,9.020 182.467 C 9.009 182.613,8.865 182.868,8.700 183.033 C 8.535 183.198,8.400 183.666,8.400 184.072 C 8.400 184.478,8.220 185.168,8.000 185.605 C 7.780 186.042,7.420 186.758,7.200 187.195 C 6.980 187.632,6.800 188.352,6.800 188.795 C 6.800 189.238,6.620 189.600,6.400 189.600 C 6.180 189.600,6.000 190.140,6.000 190.800 C 6.000 191.460,5.820 192.000,5.600 192.000 C 5.380 192.000,5.200 192.540,5.200 193.200 C 5.200 193.860,5.020 194.400,4.800 194.400 C 4.580 194.400,4.400 195.030,4.400 195.800 C 4.400 196.570,4.220 197.200,4.000 197.200 C 3.780 197.200,3.600 197.819,3.600 198.576 C 3.600 199.333,3.420 200.064,3.200 200.200 C 2.980 200.336,2.800 201.157,2.800 202.024 C 2.800 202.891,2.620 203.600,2.400 203.600 C 2.180 203.600,2.000 204.399,2.000 205.376 C 2.000 206.353,1.820 207.264,1.600 207.400 C 1.380 207.536,1.200 208.411,1.200 209.344 C 1.200 210.277,0.975 211.265,0.700 211.540 C -0.035 212.275,-0.035 368.455,0.700 368.700 C 0.975 368.792,1.200 369.482,1.200 370.233 C 1.200 370.985,1.380 371.600,1.600 371.600 C 1.820 371.600,2.000 372.050,2.000 372.600 C 2.000 373.150,2.180 373.600,2.400 373.600 C 2.620 373.600,2.800 373.960,2.800 374.400 C 2.800 374.840,2.980 375.200,3.200 375.200 C 3.420 375.200,3.600 375.560,3.600 376.000 C 3.600 376.440,3.780 376.800,4.000 376.800 C 4.220 376.800,4.400 377.160,4.400 377.600 C 4.400 378.040,4.580 378.400,4.800 378.400 C 5.020 378.400,5.200 378.720,5.200 379.112 C 5.200 379.503,5.560 380.083,6.000 380.400 C 6.440 380.717,6.800 381.257,6.800 381.600 C 6.800 381.943,7.160 382.483,7.600 382.800 C 8.040 383.117,8.400 383.607,8.400 383.888 C 8.400 384.170,8.580 384.400,8.800 384.400 C 9.020 384.400,9.200 384.637,9.200 384.926 C 9.200 385.654,14.860 391.200,15.602 391.200 C 15.801 391.200,16.414 391.650,16.964 392.200 C 17.514 392.750,18.202 393.200,18.494 393.200 C 18.785 393.200,19.283 393.560,19.600 394.000 C 19.917 394.440,20.497 394.800,20.888 394.800 C 21.280 394.800,21.600 394.980,21.600 395.200 C 21.600 395.420,21.960 395.600,22.400 395.600 C 22.840 395.600,23.200 395.780,23.200 396.000 C 23.200 396.220,23.560 396.400,24.000 396.400 C 24.440 396.400,24.800 396.580,24.800 396.800 C 24.800 397.020,25.160 397.200,25.600 397.200 C 26.040 397.200,26.400 397.380,26.400 397.600 C 26.400 397.820,26.850 398.000,27.400 398.000 C 27.950 398.000,28.400 398.180,28.400 398.400 C 28.400 398.620,28.904 398.800,29.520 398.800 C 30.136 398.800,30.865 399.025,31.140 399.300 C 31.533 399.693,42.009 399.824,80.215 399.912 L 128.791 400.024 128.896 366.012 L 129.000 332.000 127.800 331.983 C 122.034 331.904,118.427 327.481,118.025 320.000 L 117.800 315.800 114.800 315.300 C 113.150 315.024,111.121 314.685,110.290 314.546 C 109.460 314.406,108.684 314.136,108.567 313.946 C 108.449 313.756,108.001 313.600,107.571 313.600 C 107.141 313.600,106.477 313.426,106.095 313.212 C 105.713 312.999,104.050 312.184,102.400 311.402 C 92.272 306.598,89.493 303.808,89.434 298.385 C 89.383 293.819,91.291 290.773,95.418 288.834 C 97.873 287.680,102.700 287.884,104.000 289.198 C 104.110 289.309,104.605 289.625,105.100 289.900 C 105.595 290.175,106.405 290.625,106.900 290.900 C 107.395 291.175,107.890 291.492,108.000 291.605 C 108.508 292.127,112.623 293.914,115.228 294.745 C 118.269 295.714,118.019 297.644,117.904 274.107 L 117.800 253.013 113.544 250.807 C 103.446 245.572,98.400 240.993,95.242 234.200 C 94.731 233.100,94.152 231.887,93.956 231.505 C 93.760 231.123,93.600 230.304,93.600 229.685 C 93.600 229.066,93.390 228.350,93.133 228.093 C 92.483 227.443,92.483 214.557,93.133 213.907 C 93.390 213.650,93.600 212.857,93.600 212.144 C 93.600 211.431,93.780 210.736,94.000 210.600 C 94.220 210.464,94.400 210.020,94.400 209.614 C 94.400 208.800,95.644 206.085,97.686 202.445 C 98.541 200.920,101.180 197.548,102.573 196.200 C 104.336 194.494,107.532 192.000,107.956 192.000 C 108.200 192.000,108.401 191.865,108.403 191.700 C 108.405 191.535,108.810 191.199,109.303 190.952 C 109.796 190.706,110.772 190.205,111.471 189.838 C 112.169 189.471,113.879 188.764,115.271 188.267 L 117.800 187.363 118.025 183.181 C 118.418 175.898,121.352 171.975,126.900 171.315 L 128.800 171.089 128.800 137.087 L 128.800 103.085 123.700 103.336 C 120.895 103.474,117.429 103.701,115.998 103.841 L 113.395 104.094 103.912 85.147 C 93.861 65.064,93.171 63.326,93.980 60.115 C 95.530 53.956,99.497 50.669,105.400 50.652 C 112.289 50.632,113.334 51.775,121.823 68.600 C 125.486 75.860,128.554 81.875,128.642 81.967 C 128.729 82.058,128.800 63.653,128.800 41.067 L 128.800 0.000 124.100 0.056 C 121.515 0.087,118.500 0.263,117.400 0.447 M209.600 30.600 C 209.600 30.930,209.780 31.200,210.000 31.200 C 210.220 31.200,210.400 30.930,210.400 30.600 C 210.400 30.270,210.220 30.000,210.000 30.000 C 209.780 30.000,209.600 30.270,209.600 30.600 M116.295 211.300 C 112.537 215.885,111.646 223.270,114.400 227.016 C 114.995 227.826,117.304 229.600,117.762 229.600 C 117.893 229.600,118.000 225.190,118.000 219.800 C 118.000 209.435,117.965 209.263,116.295 211.300 " stroke="none" fill="#6b63d3" fill-rule="evenodd"></path><path id="path2" d="M128.702 40.960 L 128.600 82.040 122.001 68.920 C 113.432 51.885,112.294 50.632,105.400 50.652 C 99.497 50.669,95.530 53.956,93.980 60.115 C 93.171 63.326,93.861 65.064,103.912 85.147 L 113.395 104.094 115.998 103.841 C 117.429 103.701,120.894 103.474,123.698 103.336 L 128.795 103.085 128.898 137.025 L 129.000 170.965 130.647 171.442 C 133.981 172.407,137.600 175.804,137.600 177.968 C 137.600 178.400,137.780 178.864,138.000 179.000 C 138.220 179.136,138.400 180.829,138.400 182.763 L 138.400 186.279 141.830 187.185 C 143.716 187.683,145.741 188.321,146.330 188.602 C 146.918 188.883,148.120 189.436,149.000 189.831 C 160.466 194.979,164.184 204.948,156.959 211.170 C 153.071 214.519,146.792 214.074,143.200 210.196 C 142.650 209.602,141.345 208.701,140.300 208.194 L 138.400 207.272 138.400 223.338 L 138.400 239.405 139.500 239.853 C 140.105 240.099,141.680 240.702,143.000 241.191 C 165.518 249.544,174.615 271.071,164.766 292.697 C 162.408 297.874,156.480 305.212,152.400 308.004 C 151.630 308.530,150.902 309.101,150.782 309.272 C 150.662 309.442,148.862 310.445,146.782 311.500 C 143.556 313.136,141.918 313.788,138.900 314.635 C 138.537 314.736,138.400 316.034,138.400 319.364 C 138.400 321.992,138.229 324.058,138.000 324.200 C 137.780 324.336,137.600 324.806,137.600 325.245 C 137.600 327.295,134.110 330.596,130.800 331.678 L 129.000 332.267 128.898 366.133 L 128.795 400.000 163.276 400.000 L 197.757 400.000 195.779 398.993 C 192.464 397.306,190.236 394.689,189.275 391.354 C 188.340 388.112,188.618 199.488,189.561 196.907 C 190.859 193.354,193.354 190.860,196.906 189.561 C 198.874 188.842,200.428 188.800,225.094 188.800 C 250.933 188.800,251.200 188.792,251.200 188.000 C 251.200 187.560,251.020 187.200,250.800 187.200 C 250.580 187.200,250.400 186.840,250.400 186.400 C 250.400 185.960,250.253 185.600,250.072 185.600 C 249.892 185.600,249.500 184.700,249.200 183.600 C 248.900 182.500,248.508 181.600,248.328 181.600 C 248.147 181.600,248.021 181.465,248.047 181.300 C 248.204 180.309,247.940 179.190,247.600 179.400 C 247.373 179.540,247.200 179.204,247.200 178.624 C 247.200 178.061,247.020 177.600,246.800 177.600 C 246.580 177.600,246.400 177.330,246.400 177.000 C 246.400 176.670,246.265 176.399,246.100 176.397 C 245.735 176.393,244.800 174.451,244.800 173.697 C 244.800 173.398,244.620 173.264,244.400 173.400 C 244.180 173.536,244.000 173.287,244.000 172.847 C 244.000 172.407,243.820 171.936,243.600 171.800 C 243.380 171.664,243.200 171.203,243.200 170.776 C 243.200 170.349,243.020 170.000,242.800 170.000 C 242.580 170.000,242.400 169.730,242.400 169.400 C 242.400 169.070,242.220 168.800,242.000 168.800 C 241.780 168.800,241.600 168.363,241.600 167.829 C 241.600 167.294,241.330 166.587,241.000 166.257 C 240.670 165.927,240.400 165.562,240.400 165.446 C 240.400 165.330,239.938 164.555,239.374 163.724 C 238.810 162.893,238.070 161.626,237.730 160.910 C 237.390 160.193,236.952 159.706,236.756 159.827 C 236.560 159.948,236.400 159.756,236.400 159.400 C 236.400 159.013,236.215 158.867,235.938 159.038 C 235.662 159.209,235.585 159.149,235.746 158.888 C 235.894 158.648,235.562 157.998,235.008 157.444 C 234.453 156.890,234.000 156.148,234.000 155.795 C 234.000 155.442,233.820 155.264,233.600 155.400 C 233.380 155.536,233.200 155.406,233.200 155.112 C 233.200 154.817,232.840 154.317,232.400 154.000 C 231.960 153.683,231.600 153.175,231.600 152.872 C 231.600 152.569,231.060 151.817,230.400 151.200 C 229.740 150.583,229.200 149.971,229.200 149.840 C 229.200 149.588,228.700 148.984,226.647 146.752 C 225.961 146.007,224.500 144.319,223.400 143.001 C 220.521 139.553,220.401 139.436,220.394 140.071 C 220.391 140.362,220.166 140.168,219.894 139.639 C 219.622 139.111,219.054 138.481,218.630 138.239 C 218.207 137.998,216.713 136.670,215.311 135.288 C 213.877 133.876,212.568 132.896,212.319 133.050 C 212.059 133.211,211.989 133.142,212.149 132.882 C 212.300 132.637,212.015 132.224,211.511 131.957 C 211.010 131.692,210.309 131.143,209.953 130.737 C 209.597 130.332,209.092 130.000,208.829 130.000 C 208.567 130.000,208.464 129.820,208.600 129.600 C 208.736 129.380,208.606 129.200,208.312 129.200 C 208.017 129.200,207.517 128.840,207.200 128.400 C 206.883 127.960,206.393 127.600,206.112 127.600 C 205.830 127.600,205.600 127.409,205.600 127.176 C 205.600 126.943,205.420 126.864,205.200 127.000 C 204.980 127.136,204.800 127.057,204.800 126.824 C 204.800 126.591,204.549 126.400,204.243 126.400 C 203.936 126.400,203.575 126.111,203.439 125.758 C 203.294 125.381,202.940 125.214,202.576 125.354 C 202.223 125.489,202.063 125.422,202.203 125.195 C 202.337 124.978,202.167 124.800,201.824 124.800 C 201.481 124.800,201.200 124.620,201.200 124.400 C 201.200 124.180,200.829 124.000,200.376 124.000 C 199.923 124.000,199.664 123.820,199.800 123.600 C 199.936 123.380,199.767 123.200,199.424 123.200 C 199.081 123.200,198.800 123.020,198.800 122.800 C 198.800 122.580,198.519 122.400,198.176 122.400 C 197.807 122.400,197.669 122.212,197.838 121.938 C 198.007 121.664,197.949 121.585,197.694 121.742 C 197.458 121.888,196.993 121.736,196.661 121.404 C 196.329 121.072,195.789 120.800,195.462 120.800 C 195.135 120.800,194.807 120.634,194.733 120.430 C 194.660 120.227,194.330 120.002,194.000 119.930 C 193.670 119.859,193.310 119.710,193.200 119.600 C 192.597 118.997,190.373 117.600,190.016 117.600 C 189.787 117.600,189.600 117.459,189.600 117.287 C 189.600 117.115,188.791 116.736,187.803 116.444 C 186.815 116.152,186.082 115.790,186.175 115.640 C 186.268 115.489,185.968 115.338,185.508 115.303 C 185.048 115.268,184.566 115.086,184.436 114.897 C 184.306 114.709,183.570 114.305,182.800 114.000 C 182.030 113.695,181.310 113.345,181.200 113.223 C 180.672 112.635,179.106 112.000,178.182 112.000 C 177.598 112.000,177.260 111.827,177.400 111.600 C 177.544 111.368,177.149 111.200,176.457 111.200 C 175.802 111.200,175.207 111.025,175.133 110.812 C 175.060 110.598,174.640 110.368,174.200 110.300 C 173.760 110.232,173.220 110.068,173.000 109.935 C 172.780 109.803,172.000 109.565,171.267 109.408 L 169.934 109.122 170.867 108.464 C 171.380 108.102,171.918 107.844,172.062 107.890 C 172.206 107.937,172.543 107.710,172.811 107.387 C 173.079 107.064,173.544 106.800,173.846 106.800 C 174.147 106.800,174.618 106.440,174.893 106.000 C 175.168 105.560,175.621 105.200,175.900 105.200 C 176.499 105.200,186.145 95.583,186.319 94.813 C 186.385 94.523,186.970 93.789,187.619 93.182 C 188.269 92.575,188.800 91.978,188.800 91.853 C 188.800 91.729,189.321 90.806,189.958 89.802 C 190.594 88.798,191.227 87.384,191.363 86.659 C 191.499 85.933,191.968 84.956,192.405 84.487 C 192.842 84.017,193.200 83.176,193.200 82.617 C 193.200 82.058,193.380 81.600,193.600 81.600 C 193.820 81.600,194.000 81.049,194.000 80.376 C 194.000 79.663,194.167 79.256,194.400 79.400 C 194.626 79.540,194.800 79.212,194.800 78.647 C 194.800 78.097,194.980 77.536,195.200 77.400 C 195.420 77.264,195.600 76.793,195.600 76.353 C 195.600 75.913,195.780 75.664,196.000 75.800 C 196.227 75.940,196.400 75.604,196.400 75.024 C 196.400 74.461,196.580 74.000,196.800 74.000 C 197.020 74.000,197.200 73.698,197.200 73.328 C 197.200 72.354,198.106 70.000,198.480 70.000 C 198.656 70.000,198.800 69.460,198.800 68.800 C 198.800 68.140,198.980 67.600,199.200 67.600 C 199.420 67.600,199.600 67.240,199.600 66.800 C 199.600 66.360,199.741 66.000,199.913 66.000 C 200.085 66.000,200.266 65.505,200.316 64.900 C 200.366 64.295,200.585 63.740,200.803 63.667 C 201.022 63.593,201.200 63.188,201.200 62.767 C 201.200 62.345,201.380 62.000,201.600 62.000 C 201.820 62.000,202.000 61.460,202.000 60.800 C 202.000 60.140,202.180 59.600,202.400 59.600 C 202.620 59.600,202.800 59.276,202.800 58.880 C 202.800 58.484,203.025 57.918,203.300 57.621 C 203.613 57.284,203.627 57.179,203.337 57.342 C 202.988 57.537,202.987 57.364,203.331 56.635 C 203.582 56.103,203.925 55.754,204.093 55.858 C 204.262 55.962,204.400 55.584,204.400 55.018 C 204.400 54.117,205.005 52.595,205.600 52.000 C 205.710 51.890,205.862 51.350,205.938 50.800 C 206.014 50.250,206.239 49.740,206.438 49.667 C 206.637 49.593,206.800 49.199,206.800 48.790 C 206.800 48.382,206.980 47.936,207.200 47.800 C 207.420 47.664,207.600 47.113,207.600 46.576 C 207.600 46.039,207.757 45.600,207.948 45.600 C 208.140 45.600,208.416 44.700,208.562 43.600 C 208.708 42.500,209.001 41.600,209.214 41.600 C 209.426 41.600,209.600 41.139,209.600 40.576 C 209.600 39.996,209.773 39.660,210.000 39.800 C 210.257 39.959,210.400 38.471,210.400 35.624 C 210.400 32.941,210.243 31.200,210.000 31.200 C 209.780 31.200,209.600 30.540,209.600 29.733 C 209.600 28.927,209.485 28.382,209.344 28.523 C 209.203 28.663,208.782 28.208,208.408 27.510 C 208.033 26.812,207.391 26.052,206.980 25.821 C 206.570 25.589,206.000 25.187,205.715 24.926 C 205.429 24.666,204.836 24.338,204.398 24.199 C 203.959 24.060,203.597 23.733,203.594 23.473 C 203.590 23.193,203.429 23.245,203.200 23.600 C 202.942 24.000,202.810 24.033,202.806 23.700 C 202.801 23.316,200.815 23.200,194.224 23.200 C 188.937 23.200,185.552 23.047,185.400 22.800 C 185.264 22.580,183.813 22.400,182.176 22.400 C 180.539 22.400,179.200 22.259,179.200 22.087 C 179.200 21.915,178.713 21.734,178.118 21.685 C 177.522 21.636,176.856 21.416,176.638 21.198 C 176.419 20.979,175.916 20.800,175.520 20.800 C 175.124 20.800,174.800 20.620,174.800 20.400 C 174.800 20.180,174.665 20.021,174.500 20.047 C 173.589 20.191,172.858 19.877,171.600 18.800 C 170.830 18.141,169.985 17.601,169.723 17.601 C 169.460 17.600,169.002 17.252,168.704 16.827 C 168.406 16.402,167.913 15.997,167.608 15.927 C 166.846 15.752,162.879 11.872,163.083 11.500 C 163.173 11.335,163.102 11.200,162.924 11.200 C 162.746 11.199,162.122 10.794,161.537 10.300 C 160.953 9.805,160.073 9.130,159.582 8.800 C 159.091 8.470,158.134 7.705,157.455 7.100 C 156.777 6.495,155.992 6.000,155.711 6.000 C 155.430 6.000,155.200 5.809,155.200 5.576 C 155.200 5.343,155.035 5.255,154.832 5.380 C 154.630 5.505,154.193 5.336,153.861 5.004 C 153.529 4.672,153.100 4.400,152.908 4.400 C 152.306 4.400,150.406 3.414,150.403 3.100 C 150.401 2.935,149.871 2.800,149.224 2.800 C 148.577 2.800,147.936 2.620,147.800 2.400 C 147.664 2.180,147.113 2.000,146.576 2.000 C 146.039 2.000,145.600 1.820,145.600 1.600 C 145.600 1.380,144.895 1.200,144.033 1.200 C 143.172 1.200,142.403 1.008,142.325 0.774 C 142.236 0.508,139.670 0.260,135.493 0.114 L 128.804 -0.120 128.702 40.960 M138.400 277.000 C 138.400 288.335,138.526 292.800,138.845 292.800 C 139.090 292.800,140.579 291.495,142.154 289.900 C 149.821 282.135,150.580 271.218,143.898 264.826 C 142.286 263.285,139.234 261.200,138.589 261.200 C 138.485 261.200,138.400 268.310,138.400 277.000 " stroke="none" fill="#423a81" fill-rule="evenodd"></path><path id="path3" d="M160.093 203.200 C 160.093 203.970,160.175 204.285,160.276 203.900 C 160.376 203.515,160.376 202.885,160.276 202.500 C 160.175 202.115,160.093 202.430,160.093 203.200 M150.800 212.800 L 149.000 213.080 150.600 213.134 C 151.480 213.163,152.470 213.013,152.800 212.800 C 153.130 212.587,153.220 212.437,153.000 212.466 C 152.780 212.496,151.790 212.646,150.800 212.800 M189.389 268.000 C 189.389 282.410,189.439 288.305,189.500 281.100 C 189.561 273.895,189.561 262.105,189.500 254.900 C 189.439 247.695,189.389 253.590,189.389 268.000 M267.385 242.498 C 267.279 242.774,267.239 254.610,267.296 268.800 L 267.400 294.600 306.297 294.702 L 345.194 294.804 345.297 321.102 L 345.400 347.400 372.700 347.503 L 400.000 347.606 400.000 321.003 L 400.000 294.400 372.803 294.400 L 345.606 294.400 345.503 268.300 L 345.400 242.200 306.488 242.098 C 275.570 242.017,267.537 242.099,267.385 242.498 M167.714 271.000 C 167.717 272.100,167.795 272.503,167.887 271.895 C 167.979 271.286,167.977 270.386,167.882 269.895 C 167.787 269.403,167.711 269.900,167.714 271.000 M168.093 275.600 C 168.093 276.370,168.175 276.685,168.276 276.300 C 168.376 275.915,168.376 275.285,168.276 274.900 C 168.175 274.515,168.093 274.830,168.093 275.600 M167.720 280.000 C 167.720 281.210,167.795 281.705,167.887 281.100 C 167.978 280.495,167.978 279.505,167.887 278.900 C 167.795 278.295,167.720 278.790,167.720 280.000 M166.249 286.615 C 166.112 286.973,166.015 287.566,166.034 287.933 C 166.053 288.300,166.227 288.069,166.421 287.420 C 166.798 286.158,166.665 285.533,166.249 286.615 M134.834 328.553 L 133.869 329.800 135.013 328.712 C 135.643 328.114,136.077 327.553,135.979 327.465 C 135.880 327.377,135.365 327.867,134.834 328.553 M189.293 368.800 C 189.248 380.570,189.344 390.408,189.506 390.663 C 189.772 391.081,189.756 363.984,189.484 352.200 C 189.423 349.560,189.337 357.030,189.293 368.800 M267.200 373.800 L 267.200 400.000 301.900 399.991 C 340.326 399.981,337.883 400.142,341.112 397.416 C 345.543 393.676,345.600 393.310,345.600 368.654 L 345.600 347.600 306.400 347.600 L 267.200 347.600 267.200 373.800 M192.596 396.396 C 193.226 397.054,193.811 397.523,193.895 397.438 C 194.080 397.253,192.072 395.200,191.707 395.200 C 191.566 395.200,191.966 395.738,192.596 396.396 M198.200 399.600 C 198.336 399.820,198.717 400.000,199.047 400.000 C 199.377 400.000,199.536 399.820,199.400 399.600 C 199.264 399.380,198.883 399.200,198.553 399.200 C 198.223 399.200,198.064 399.380,198.200 399.600 " stroke="none" fill="#fb946c" fill-rule="evenodd"></path><path id="path4" d="M127.063 171.255 C 121.213 172.129,118.422 175.812,118.025 183.181 L 117.800 187.363 115.271 188.267 C 113.879 188.764,112.169 189.471,111.471 189.838 C 110.772 190.205,109.796 190.706,109.303 190.952 C 108.810 191.199,108.405 191.535,108.403 191.700 C 108.401 191.865,108.200 192.000,107.956 192.000 C 107.532 192.000,104.336 194.494,102.573 196.200 C 101.180 197.548,98.541 200.920,97.686 202.445 C 95.644 206.085,94.400 208.800,94.400 209.614 C 94.400 210.020,94.220 210.464,94.000 210.600 C 93.780 210.736,93.600 211.431,93.600 212.144 C 93.600 212.857,93.390 213.650,93.133 213.907 C 92.815 214.225,92.667 216.484,92.667 221.000 C 92.667 225.516,92.815 227.775,93.133 228.093 C 93.390 228.350,93.600 229.066,93.600 229.685 C 93.600 230.304,93.760 231.123,93.956 231.505 C 94.152 231.887,94.731 233.100,95.242 234.200 C 98.400 240.993,103.446 245.572,113.544 250.807 L 117.800 253.013 117.904 274.107 C 118.019 297.644,118.269 295.714,115.228 294.745 C 112.623 293.914,108.508 292.127,108.000 291.605 C 107.890 291.492,107.395 291.175,106.900 290.900 C 106.405 290.625,105.595 290.175,105.100 289.900 C 104.605 289.625,104.110 289.309,104.000 289.198 C 102.700 287.884,97.873 287.680,95.418 288.834 C 91.291 290.773,89.383 293.819,89.434 298.385 C 89.493 303.808,92.272 306.598,102.400 311.402 C 104.050 312.184,105.713 312.999,106.095 313.212 C 106.477 313.426,107.141 313.600,107.571 313.600 C 108.001 313.600,108.449 313.756,108.567 313.946 C 108.684 314.136,109.460 314.406,110.290 314.546 C 111.121 314.685,113.150 315.024,114.800 315.300 L 117.800 315.800 118.025 320.000 C 118.443 327.793,122.090 331.995,128.400 331.955 C 131.812 331.933,131.951 331.299,128.553 331.253 C 121.800 331.160,118.800 327.715,118.800 320.055 L 118.800 315.678 117.540 315.239 C 116.847 314.998,115.770 314.800,115.146 314.800 C 110.205 314.800,96.473 308.764,92.599 304.889 C 84.394 296.685,94.997 284.173,104.907 290.366 C 109.856 293.459,115.464 295.760,117.487 295.528 L 118.600 295.400 118.711 274.800 C 118.842 250.443,119.201 252.951,115.315 251.091 C 106.482 246.863,100.415 242.165,97.422 237.235 C 87.019 220.098,96.167 195.109,115.088 188.979 C 118.990 187.715,118.800 188.014,118.800 183.119 C 118.800 177.173,119.867 175.013,123.936 172.721 C 125.633 171.765,131.253 171.493,132.087 172.327 C 132.347 172.587,132.740 172.800,132.960 172.800 C 133.838 172.800,132.498 171.992,130.787 171.490 C 129.635 171.151,128.312 171.068,127.063 171.255 M133.600 173.095 C 133.600 173.267,133.968 173.637,134.418 173.919 C 134.868 174.200,135.768 175.268,136.418 176.293 C 137.068 177.318,137.600 177.938,137.600 177.670 C 137.600 176.889,135.607 174.096,134.560 173.411 C 134.032 173.065,133.600 172.922,133.600 173.095 M137.922 182.338 C 138.067 186.461,138.161 186.814,139.087 186.754 C 139.755 186.710,139.756 186.696,139.100 186.524 C 138.500 186.367,138.400 185.836,138.400 182.794 C 138.400 180.843,138.265 179.164,138.100 179.062 C 137.935 178.960,137.855 180.434,137.922 182.338 M140.400 187.200 C 140.730 187.413,141.450 187.573,142.000 187.554 L 143.000 187.520 142.000 187.200 C 140.458 186.706,139.636 186.706,140.400 187.200 M143.400 187.873 C 143.620 188.073,144.520 188.476,145.400 188.769 C 158.826 193.239,164.777 205.112,156.515 210.944 C 151.866 214.225,147.541 213.791,143.142 209.601 C 141.804 208.327,138.839 206.728,138.362 207.023 C 138.156 207.151,138.000 214.196,138.000 223.405 L 138.000 239.562 139.500 240.222 C 141.305 241.016,141.896 241.254,145.000 242.437 C 146.320 242.940,147.985 243.677,148.700 244.076 C 149.415 244.474,150.675 245.179,151.500 245.642 C 152.325 246.106,153.765 247.108,154.700 247.869 C 155.635 248.631,156.400 249.139,156.400 248.998 C 156.400 247.783,148.740 243.320,143.000 241.191 C 141.680 240.702,140.105 240.099,139.500 239.853 L 138.400 239.405 138.400 223.338 L 138.400 207.272 140.300 208.194 C 141.345 208.701,142.650 209.602,143.200 210.196 C 146.792 214.074,153.071 214.519,156.959 211.170 C 164.121 205.002,160.456 194.966,149.200 189.922 C 145.833 188.414,144.941 188.047,144.000 187.787 C 143.391 187.618,143.157 187.652,143.400 187.873 M196.722 189.591 C 193.337 190.879,190.826 193.445,189.561 196.907 C 188.618 199.488,188.340 388.112,189.275 391.354 C 189.793 393.150,191.692 396.193,192.985 397.296 C 194.152 398.293,197.981 400.152,198.270 399.863 C 198.405 399.729,198.174 399.508,197.757 399.373 C 193.749 398.073,191.399 395.827,189.977 391.938 C 188.995 389.251,188.740 200.977,189.715 197.720 C 190.698 194.433,194.043 190.882,197.200 189.775 C 197.750 189.582,210.080 189.326,224.600 189.205 L 251.000 188.986 224.800 188.931 C 200.527 188.880,198.462 188.929,196.722 189.591 M116.143 210.646 C 114.971 211.980,113.931 213.836,112.851 216.519 C 111.257 220.476,112.635 226.428,115.732 228.965 C 118.912 231.571,118.828 231.827,118.707 219.905 C 118.588 208.212,118.514 207.945,116.143 210.646 M118.000 219.800 C 118.000 225.190,117.893 229.600,117.762 229.600 C 117.304 229.600,114.995 227.826,114.400 227.016 C 111.646 223.270,112.537 215.885,116.295 211.300 C 117.965 209.263,118.000 209.435,118.000 219.800 M156.800 249.264 C 156.800 249.392,157.691 250.416,158.779 251.540 C 162.048 254.913,165.685 260.991,166.596 264.600 C 166.762 265.260,166.977 265.588,167.073 265.329 C 167.365 264.541,164.901 259.115,162.822 255.967 C 161.132 253.407,156.800 248.585,156.800 249.264 M138.267 261.067 C 137.805 261.529,137.952 292.723,138.418 293.011 C 139.599 293.741,144.636 288.564,146.530 284.673 C 147.884 281.892,148.953 278.276,148.030 279.600 C 147.800 279.930,147.609 280.517,147.606 280.905 C 147.603 281.293,147.440 281.923,147.244 282.305 C 147.048 282.687,146.467 283.900,145.952 285.000 C 145.029 286.976,139.722 292.800,138.845 292.800 C 138.526 292.800,138.400 288.335,138.400 277.000 C 138.400 268.310,138.485 261.200,138.589 261.200 C 140.935 261.200,147.583 268.232,147.606 270.738 C 147.609 271.102,147.800 271.670,148.030 272.000 C 148.739 273.017,147.998 269.989,147.107 268.230 C 145.518 265.092,139.289 260.044,138.267 261.067 M167.234 267.000 C 167.272 268.366,167.938 269.642,167.966 268.400 C 167.978 267.850,167.813 267.130,167.600 266.800 C 167.280 266.305,167.216 266.340,167.234 267.000 M168.122 275.600 C 168.128 278.386,168.263 280.157,168.427 279.600 C 168.822 278.254,168.823 272.399,168.427 271.400 C 168.247 270.944,168.116 272.752,168.122 275.600 M148.534 275.600 C 148.534 277.250,148.605 277.925,148.691 277.100 C 148.778 276.275,148.778 274.925,148.691 274.100 C 148.605 273.275,148.534 273.950,148.534 275.600 M167.422 283.129 C 167.258 283.859,167.222 284.556,167.342 284.676 C 167.643 284.977,168.120 282.956,167.899 282.317 C 167.801 282.033,167.586 282.398,167.422 283.129 M166.629 286.629 C 166.481 287.215,166.438 287.772,166.532 287.866 C 166.627 287.960,166.824 287.558,166.971 286.971 C 167.119 286.385,167.162 285.828,167.068 285.734 C 166.973 285.640,166.776 286.042,166.629 286.629 M165.465 290.071 C 165.104 290.990,164.892 291.825,164.993 291.926 C 165.171 292.105,165.590 291.173,166.174 289.300 C 166.650 287.772,166.158 288.307,165.465 290.071 M163.363 294.568 C 162.241 296.784,159.921 300.090,157.884 302.377 C 157.288 303.046,156.803 303.730,156.808 303.897 C 156.821 304.421,159.582 301.120,161.573 298.200 C 163.736 295.029,164.948 292.814,164.672 292.539 C 164.569 292.436,163.980 293.349,163.363 294.568 M154.191 306.008 C 150.921 308.838,146.882 311.281,142.800 312.897 C 142.250 313.115,141.487 313.452,141.105 313.647 C 140.723 313.841,140.070 314.000,139.654 314.000 C 139.238 314.000,138.712 314.225,138.485 314.500 C 138.014 315.070,137.641 324.424,138.100 324.139 C 138.265 324.037,138.400 321.888,138.400 319.364 C 138.400 316.034,138.537 314.736,138.900 314.635 C 141.918 313.788,143.556 313.136,146.782 311.500 C 148.862 310.445,150.662 309.442,150.782 309.272 C 150.902 309.101,151.630 308.521,152.400 307.984 C 154.011 306.858,156.692 304.400,156.308 304.400 C 156.165 304.400,155.213 305.123,154.191 306.008 M136.472 326.839 C 135.961 327.728,134.749 329.016,133.778 329.701 C 132.807 330.385,132.091 331.024,132.188 331.121 C 132.840 331.773,137.863 326.572,137.527 325.592 C 137.457 325.389,136.982 325.950,136.472 326.839 " stroke="none" fill="#9f93a7" fill-rule="evenodd"></path></g></svg>