<svg width="21" height="20" viewBox="0 0 21 20" fill="none" xmlns="http://www.w3.org/2000/svg">
<path fill-rule="evenodd" clip-rule="evenodd" d="M10.5 12.0005C11.0796 12.0005 11.55 12.4485 11.55 13.0005C11.55 13.5525 11.0796 14.0005 10.5 14.0005C9.92041 14.0005 9.45001 13.5525 9.45001 13.0005C9.45001 12.4485 9.92041 12.0005 10.5 12.0005ZM10.5 16.0004C12.2367 16.0004 13.65 14.6544 13.65 13.0004C13.65 11.3464 12.2367 10.0004 10.5 10.0004C8.76329 10.0004 7.34999 11.3464 7.34999 13.0004C7.34999 14.6544 8.76329 16.0004 10.5 16.0004ZM15.75 17.0005C15.75 17.5525 15.2796 18.0005 14.7 18.0005H6.30004C5.72044 18.0005 5.25004 17.5525 5.25004 17.0005V9.00045C5.25004 8.44845 5.72044 8.00045 6.30004 8.00045H14.7C15.2796 8.00045 15.75 8.44845 15.75 9.00045V17.0005ZM8.40003 4.00047C8.40003 2.89747 9.34188 2.00047 10.5 2.00047C11.6582 2.00047 12.6 3.00047 12.6 4.00047V6.00047H8.40003V4.00047ZM14.7 6.00046V4.00046C14.7 1.75346 12.326 -0.494541 9.62222 0.0954593C7.62932 0.530459 6.30002 2.34146 6.30002 4.28846V6.00046H5.25002C4.08977 6.00046 3.15002 6.89546 3.15002 8.00046V18.0005C3.15002 19.1055 4.08977 20.0005 5.25002 20.0005H15.75C16.9103 20.0005 17.85 19.1055 17.85 18.0005V8.00046C17.85 6.89546 16.9103 6.00046 15.75 6.00046H14.7Z" fill="white" fill-opacity="0.01"/>
<mask id="mask0" mask-type="alpha" maskUnits="userSpaceOnUse" x="3" y="0" width="15" height="21">
<path fill-rule="evenodd" clip-rule="evenodd" d="M10.5 12.0005C11.0796 12.0005 11.55 12.4485 11.55 13.0005C11.55 13.5525 11.0796 14.0005 10.5 14.0005C9.92041 14.0005 9.45001 13.5525 9.45001 13.0005C9.45001 12.4485 9.92041 12.0005 10.5 12.0005ZM10.5 16.0004C12.2367 16.0004 13.65 14.6544 13.65 13.0004C13.65 11.3464 12.2367 10.0004 10.5 10.0004C8.76329 10.0004 7.34999 11.3464 7.34999 13.0004C7.34999 14.6544 8.76329 16.0004 10.5 16.0004ZM15.75 17.0005C15.75 17.5525 15.2796 18.0005 14.7 18.0005H6.30004C5.72044 18.0005 5.25004 17.5525 5.25004 17.0005V9.00045C5.25004 8.44845 5.72044 8.00045 6.30004 8.00045H14.7C15.2796 8.00045 15.75 8.44845 15.75 9.00045V17.0005ZM8.40003 4.00047C8.40003 2.89747 9.34188 2.00047 10.5 2.00047C11.6582 2.00047 12.6 3.00047 12.6 4.00047V6.00047H8.40003V4.00047ZM14.7 6.00046V4.00046C14.7 1.75346 12.326 -0.494541 9.62222 0.0954593C7.62932 0.530459 6.30002 2.34146 6.30002 4.28846V6.00046H5.25002C4.08977 6.00046 3.15002 6.89546 3.15002 8.00046V18.0005C3.15002 19.1055 4.08977 20.0005 5.25002 20.0005H15.75C16.9103 20.0005 17.85 19.1055 17.85 18.0005V8.00046C17.85 6.89546 16.9103 6.00046 15.75 6.00046H14.7Z" fill="white"/>
</mask>
<g mask="url(#mask0)">
<rect opacity="0.5" width="21" height="20" fill="#9EA0A5"/>
</g>
</svg>
