<?xml version="1.0" standalone="no"?>
<!DOCTYPE svg PUBLIC "-//W3C//DTD SVG 20010904//EN"
 "http://www.w3.org/TR/2001/REC-SVG-20010904/DTD/svg10.dtd">
<svg version="1.0" xmlns="http://www.w3.org/2000/svg"
 width="400.000000pt" height="400.000000pt" viewBox="0 0 400.000000 400.000000"
 preserveAspectRatio="xMidYMid meet">
<metadata>
Created by potrace 1.16, written by Peter Selinger 2001-2019
</metadata>
<g transform="translate(0.000000,400.000000) scale(0.100000,-0.100000)"
fill="#000000" stroke="none">
<path d="M0 2000 l0 -2000 2000 0 2000 0 0 2000 0 2000 -2000 0 -2000 0 0
-2000z m1083 481 c19 -2 4 -31 -20 -37 -82 -18 -110 -27 -125 -41 -17 -15 -18
-47 -18 -395 0 -365 1 -379 20 -398 18 -18 33 -20 170 -20 111 0 158 4 178 14
38 20 86 73 111 124 21 42 34 51 46 32 3 -5 -3 -44 -14 -87 -11 -43 -21 -91
-23 -108 l-3 -30 -374 0 c-264 0 -375 3 -378 11 -2 6 23 21 56 33 33 12 67 32
76 44 13 18 15 76 15 392 0 413 1 407 -67 420 -64 12 -96 39 -56 47 14 2 382
2 406 -1z m2052 -307 l0 -49 102 -3 c107 -3 116 -7 105 -54 -4 -16 -17 -18
-96 -18 -50 0 -97 -4 -104 -9 -10 -6 -13 -50 -10 -199 l3 -192 27 -26 c21 -22
35 -26 74 -26 27 1 61 7 76 13 55 23 46 -16 -11 -54 -102 -68 -212 -52 -257
35 -11 20 -14 75 -14 227 0 212 -4 231 -50 231 -10 0 -22 5 -26 11 -7 12 155
170 171 165 6 -1 10 -25 10 -52z m-1170 -69 c59 -28 103 -72 137 -138 18 -34
23 -58 23 -127 0 -76 -3 -92 -33 -152 -56 -114 -149 -170 -281 -171 -125 -1
-213 51 -269 158 -21 41 -26 64 -26 130 -1 68 3 89 27 137 45 91 132 165 222
189 53 14 143 3 200 -26z m720 0 c101 -49 165 -150 165 -259 0 -131 -63 -239
-172 -295 -58 -30 -76 -34 -145 -34 -127 -1 -215 50 -271 158 -22 42 -26 63
-26 130 0 66 4 89 27 136 44 90 133 167 222 190 53 14 143 3 200 -26z"/>
<path d="M1719 2067 c-19 -12 -45 -43 -59 -67 -21 -39 -24 -57 -24 -145 0
-108 15 -158 69 -229 72 -95 223 -86 277 17 20 36 23 57 22 152 0 121 -14 168
-70 234 -53 64 -151 81 -215 38z"/>
<path d="M2439 2067 c-55 -36 -82 -102 -83 -205 -1 -103 13 -153 57 -218 57
-82 144 -106 227 -64 57 29 82 83 88 190 8 141 -42 259 -128 302 -50 25 -119
23 -161 -5z"/>
</g>
</svg>
