<?xml version="1.0" encoding="UTF-8"?>
<svg width="29px" height="29px" viewBox="0 0 29 29" version="1.1" xmlns="http://www.w3.org/2000/svg" xmlns:xlink="http://www.w3.org/1999/xlink">
    <title>star disabled</title>
    <g id="Page-1" stroke="none" stroke-width="1" fill="none" fill-rule="evenodd">
        <g id="01" transform="translate(-597.000000, -671.000000)">
            <g id="Group" transform="translate(597.000000, 671.000000)">
                <circle id="Oval-Copy" fill="#E3E0E0" cx="14.5" cy="14.5" r="14.5"></circle>
                <g id="icons8-star-copy" transform="translate(5.000000, 5.000000)" fill="#85868B" fill-rule="nonzero">
                    <path d="M3.89176317,18 C3.81572298,18 3.73968278,17.9621849 3.66364258,17.9243697 C3.54958228,17.8487395 3.47354209,17.6596639 3.51156219,17.5084034 L5.18444654,11.3067227 L0.165793477,7.2605042 C0.0137130807,7.18487395 -0.0243070182,6.99579832 0.0137130807,6.84453782 C0.0517331797,6.69327731 0.203813576,6.57983193 0.355893971,6.57983193 L6.81931079,6.2394958 L9.13853683,0.226890756 C9.21457703,0.113445378 9.36665743,0 9.51873782,0 C9.67081822,0 9.82289861,0.113445378 9.86091871,0.226890756 L12.1801447,6.2394958 L18.6435616,6.57983193 C18.795642,6.57983193 18.9477224,6.69327731 18.9857425,6.84453782 C19.0237626,6.99579832 18.9857425,7.14705882 18.8716822,7.2605042 L13.8530291,11.3067227 L15.5259135,17.5084034 C15.5639336,17.6596639 15.5259135,17.8109244 15.3738331,17.9243697 C15.2597728,18 15.0696723,18.0378151 14.955612,17.9243697 L9.51873782,14.4453782 L4.08186367,17.9243697 C4.00582347,18 3.96780337,18 3.89176317,18 Z" id="Path"></path>
                </g>
            </g>
        </g>
    </g>
</svg>