<svg xmlns="http://www.w3.org/2000/svg" width="135" height="25" viewBox="0 0 135 25">
  <g fill="#DDD">
    <path d="M0,0.208333333 L9.84375,0.208333333 C11.71875,0.208333333 13.125,0.677083333 14.1666667,1.45833333 C15.3125,2.39583333 15.9375,3.75 15.9375,5.41666667 C15.9375,7.34375 15.15625,8.54166667 13.59375,9.27083333 L13.59375,9.375 C15.6770833,10.0520833 16.875,11.9270833 16.875,14.1666667 C16.875,16.3020833 16.0416667,17.96875 14.6875,19.0104167 C13.5416667,19.84375 12.0833333,20.2083333 10.1041667,20.2083333 L0,20.2083333 L0,0.208333333 Z M8.85416667,8.02083333 C9.89583333,8.02083333 10.6770833,7.44791667 10.6770833,6.25 C10.6770833,5.10416667 9.89583333,4.53125 8.80208333,4.53125 L5.41666667,4.53125 L5.41666667,7.96875 L8.85416667,7.96875 L8.85416667,8.02083333 Z M9.32291667,15.78125 C10.5208333,15.78125 11.40625,15.0520833 11.40625,13.75 C11.40625,12.34375 10.46875,11.71875 9.32291667,11.71875 L5.46875,11.71875 L5.46875,15.8333333 L9.32291667,15.8333333 L9.32291667,15.78125 Z"/>
    <polygon points="17.76 .208 22.917 .208 22.917 20.26 17.76 20.26"/>
    <path d="M23.9583333 13.125C23.9583333 8.59375 26.875 5.57291667 31.40625 5.57291667 35.9375 5.57291667 38.8020833 8.64583333 38.8020833 13.125 38.8020833 17.65625 35.9375 20.6770833 31.40625 20.6770833 26.875 20.6770833 23.9583333 17.65625 23.9583333 13.125zM33.6458333 13.125C33.6458333 10.625 32.8645833 9.0625 31.3020833 9.0625 29.7395833 9.0625 29.0104167 10.625 29.0104167 13.125 29.0104167 15.625 29.7395833 17.2395833 31.3020833 17.2395833 32.8645833 17.1875 33.6458333 15.625 33.6458333 13.125zM39.375 13.125C39.375 8.59375 42.2916667 5.57291667 46.8229167 5.57291667 51.3541667 5.57291667 54.1666667 8.59375 54.1666667 13.125 54.1666667 17.65625 51.3020833 20.6770833 46.7708333 20.6770833 42.2916667 20.6770833 39.375 17.65625 39.375 13.125zM49.0625 13.125C49.0625 10.625 48.28125 9.0625 46.71875 9.0625 45.15625 9.0625 44.4270833 10.625 44.4270833 13.125 44.4270833 15.625 45.15625 17.2395833 46.71875 17.2395833 48.28125 17.1875 49.0625 15.625 49.0625 13.125zM55.2083333 5.9375L60 5.9375 60 8.07291667 60.1041667 8.07291667C61.0416667 6.40625 62.34375 5.52083333 64.4270833 5.52083333 66.25 5.52083333 67.6041667 6.40625 68.28125 7.96875L68.3854167 7.96875C69.53125 6.09375 71.0416667 5.52083333 72.8125 5.52083333 76.1458333 5.52083333 77.5520833 7.96875 77.5520833 11.25L77.5520833 20.2083333 72.5520833 20.2083333 72.5520833 12.1354167C72.5520833 10.6770833 72.0833333 9.73958333 70.8333333 9.73958333 69.5833333 9.73958333 68.9583333 10.8854167 68.9583333 12.4479167L68.9583333 20.2083333 63.9583333 20.2083333 63.9583333 12.1354167C63.9583333 10.6770833 63.4895833 9.73958333 62.2395833 9.73958333 60.9895833 9.73958333 60.3645833 10.8854167 60.3645833 12.4479167L60.3645833 20.2083333 55.2083333 20.2083333C55.2083333 20.2083333 55.2083333 5.9375 55.2083333 5.9375zM83.8541667 18.3333333L83.8020833 18.3333333 83.8020833 20.2083333 79.0104167 20.2083333 79.0104167.208333333 84.0104167.208333333 84.0104167 7.39583333 84.1145833 7.39583333C85.0520833 6.14583333 86.3541667 5.46875 88.1770833 5.46875 91.7708333 5.46875 93.8541667 8.69791667 93.8541667 13.0208333 93.8541667 17.8645833 91.6145833 20.6770833 87.8645833 20.6770833 86.3020833 20.6770833 84.6875 19.9479167 83.8541667 18.3333333zM88.6979167 12.96875C88.6979167 10.6770833 87.8645833 9.16666667 86.3541667 9.16666667 84.7916667 9.16666667 83.8541667 10.6770833 83.8541667 12.96875 83.8541667 15.2604167 84.84375 16.7708333 86.3541667 16.7708333 87.8645833 16.7708333 88.6979167 15.3125 88.6979167 12.96875zM94.4270833 13.0729167C94.4270833 8.59375 97.3958333 5.52083333 101.666667 5.52083333 103.802083 5.52083333 105.416667 6.19791667 106.666667 7.39583333 108.333333 9.01041667 109.0625 11.5104167 109.010417 14.4270833L99.4270833 14.4270833C99.6354167 16.1979167 100.46875 17.1354167 101.979167 17.1354167 102.864583 17.1354167 103.645833 16.71875 103.958333 15.78125L108.802083 15.78125C107.96875 19.0625 105.416667 20.6770833 101.822917 20.6770833 97.3958333 20.625 94.4270833 17.6041667 94.4270833 13.0729167zM99.4270833 11.5625L104.010417 11.5625C103.90625 9.84375 102.96875 8.95833333 101.770833 8.95833333 100.364583 8.90625 99.5833333 9.89583333 99.4270833 11.5625zM114.6875 8.38541667L114.791667 8.38541667C115.833333 6.40625 117.1875 5.625 118.90625 5.625 119.322917 5.625 119.583333 5.67708333 119.739583 5.78125L119.739583 10.15625 119.635417 10.15625C116.666667 9.63541667 114.947917 11.0416667 114.947917 14.2708333L114.947917 20.2604167 109.895833 20.2604167 109.895833 5.9375 114.6875 5.9375 114.6875 8.38541667zM120.260417 20.2604167L125.104167 20.2604167C125.3125 20.8854167 125.9375 21.4583333 127.135417 21.4583333 128.75 21.4583333 129.322917 20.46875 129.322917 18.9583333L129.322917 17.9166667 129.21875 17.9166667C128.4375 18.8541667 127.34375 19.53125 125.78125 19.53125 122.708333 19.53125 120 17.2395833 120 12.7604167 120 8.64583333 122.1875 5.46875 125.520833 5.46875 127.447917 5.46875 128.59375 6.25 129.375 7.44791667L129.479167 7.44791667 129.479167 5.88541667 134.270833 5.88541667 134.270833 18.28125C134.270833 20.5729167 133.489583 22.34375 132.291667 23.3854167 131.041667 24.4791667 129.270833 24.9479167 127.239583 24.9479167 123.385417 25 120.729167 23.4375 120.260417 20.2604167zM129.53125 12.5520833C129.53125 10.78125 128.697917 9.32291667 127.239583 9.32291667 125.833333 9.32291667 124.947917 10.5729167 124.947917 12.5520833 124.947917 14.4791667 125.833333 15.8333333 127.239583 15.8333333 128.645833 15.8333333 129.53125 14.4270833 129.53125 12.5520833z"/>
  </g>
</svg>
