<svg xmlns="http://www.w3.org/2000/svg" width="128" height="25" viewBox="0 0 128 25">
  <g fill="#DDD">
    <path d="M11.1613876,12.5188537 C11.1613876,13.1975867 11.6892911,13.7254902 12.3680241,13.7254902 C13.0467572,13.7254902 13.5746606,13.1975867 13.5746606,12.5188537 C13.5746606,11.8401207 13.0467572,11.3122172 12.3680241,11.3122172 C11.6892911,11.3122172 11.1613876,11.8401207 11.1613876,12.5188537 M21.3423831,11.3122172 C20.6636501,11.3122172 20.1357466,11.8401207 20.1357466,12.5188537 C20.1357466,13.1975867 20.6636501,13.7254902 21.3423831,13.7254902 C22.0211161,13.7254902 22.5490196,13.1975867 22.5490196,12.5188537 C22.5490196,11.8401207 22.0211161,11.3122172 21.3423831,11.3122172 M21.3423831,20.4374057 C20.6636501,20.4374057 20.1357466,20.9653092 20.1357466,21.6440422 C20.1357466,22.3227753 20.6636501,22.8506787 21.3423831,22.8506787 C22.0211161,22.8506787 22.5490196,22.3227753 22.5490196,21.6440422 C22.5490196,20.9653092 22.0211161,20.4374057 21.3423831,20.4374057"/>
    <path d="M23.9064857 1.28205128C22.6998492-.226244344 20.5128205-.301659125 19.2307692.904977376L19.0799397 1.05580694 18.7782805 1.28205128C17.571644 2.26244344 15.7616893 2.18702866 14.6304676 1.05580694L14.6304676.980392157C14.2533937.60331825 13.7254902.301659125 13.1975867.150829563 13.1221719.150829563 12.9713424.0754147813 12.8959276.0754147813L11.6892911.0754147813C11.6138763.0754147813 11.5384615.0754147813 11.4630468.150829563L11.3122172.150829563C11.2368024.150829563 11.1613876.226244344 11.0859729.226244344 11.0859729.226244344 11.0105581.226244344 11.0105581.301659125 10.9351433.301659125 10.8597285.377073906 10.7843137.377073906 10.7843137.377073906 10.7088989.377073906 10.7088989.452488688 10.6334842.527903469 10.5580694.527903469 10.4826546.60331825 10.4826546.60331825 10.4072398.60331825 10.4072398.678733032 10.331825.754147813 10.2564103.754147813 10.1809955.829562594L10.1055807.904977376 9.95475113 1.05580694 9.65309201 1.28205128C8.44645551 2.26244344 6.63650075 2.18702866 5.58069382 1.05580694 5.58069382 1.05580694 5.50527903 1.05580694 5.50527903.980392157L5.35444947.829562594C4.90196078.452488688 4.37405732.150829563 3.77073906.0754147813L2.413273.0754147813C2.413273.150829563 2.33785822.150829563 2.26244344.226244344L2.18702866.226244344C1.80995475.377073906 1.43288084.527903469 1.13122172.829562594L1.05580694.904977376.829562594 1.13122172C.527903469 1.43288084.377073906 1.80995475.226244344 2.11161388.226244344 2.18702866.150829563 2.26244344.150829563 2.33785822.150829563 2.413273.0754147813 2.48868778.0754147813 2.63951735 0 3.16742081 0 3.69532428.150829563 4.22322775.150829563 4.29864253.226244344 4.37405732.226244344 4.4494721L.226244344 4.52488688C.226244344 4.60030166.301659125 4.67571644.301659125 4.75113122.377073906 4.826546.377073906 4.90196078.452488688 5.05279035.60331825 5.12820513.754147813 5.27903469.829562594 5.35444947L.980392157 5.50527903 1.13122172 5.6561086C2.26244344 6.78733032 2.26244344 8.74811463 1.05580694 9.95475113.904977376 10.1055807.678733032 10.331825.60331825 10.4826546.527903469 10.5580694.527903469 10.6334842.452488688 10.7843137L.452488688 10.8597285C.377073906 10.9351433.377073906 11.0105581.301659125 11.0859729L.301659125 11.1613876C.301659125 11.2368024.226244344 11.3122172.226244344 11.387632L.226244344 11.4630468C.226244344 11.5384615.226244344 11.6138763.150829563 11.6892911L.150829563 12.8205128C.150829563 12.8959276.150829563 12.9713424.226244344 13.0467572L.226244344 13.1221719C.377073906 13.6500754.678733032 14.1779789 1.13122172 14.6304676 2.33785822 15.8371041 2.33785822 17.7978884 1.13122172 19.0045249L1.05580694 19.0799397.904977376 19.2307692.904977376 19.306184C.829562594 19.3815988.754147813 19.4570136.754147813 19.5324284.754147813 19.5324284.754147813 19.6078431.678733032 19.6078431.60331825 19.6832579.60331825 19.7586727.527903469 19.8340875L.452488688 19.9095023C.452488688 19.984917.377073906 19.984917.377073906 20.0603318.377073906 20.1357466.301659125 20.1357466.301659125 20.2111614.301659125 20.2865762.301659125 20.2865762.226244344 20.361991.0754147813 20.6636501 0 21.040724 0 21.3423831L0 21.9457014C.0754147813 22.1719457.0754147813 22.39819.226244344 22.5490196.226244344 22.6244344.301659125 22.6998492.301659125 22.6998492.301659125 22.6998492.301659125 22.775264.377073906 22.775264.377073906 22.8506787.452488688 22.9260935.452488688 23.0015083.452488688 23.0015083.452488688 23.0769231.527903469 23.0769231.60331825 23.2277526.678733032 23.3031674.754147813 23.3785822.754147813 23.3785822.754147813 23.453997.829562594 23.453997.829562594 23.453997.829562594 23.5294118.904977376 23.5294118.904977376 23.6048265.980392157 23.6048265.980392157 23.6048265L1.05580694 23.6802413C1.13122172 23.7556561 1.2066365 23.7556561 1.2066365 23.8310709L1.28205128 23.9064857C1.28205128 23.9064857 1.35746606 23.9064857 1.35746606 23.9819005 1.43288084 24.0573152 1.50829563 24.13273 1.58371041 24.13273 1.58371041 24.13273 1.65912519 24.13273 1.65912519 24.2081448 1.73453997 24.2835596 1.80995475 24.2835596 1.88536953 24.3589744L1.96078431 24.3589744C2.0361991 24.4343891 2.11161388 24.4343891 2.26244344 24.4343891 2.33785822 24.4343891 2.48868778 24.5098039 2.56410256 24.5098039L2.63951735 24.5098039C2.71493213 24.5098039 2.79034691 24.5098039 2.86576169 24.5852187L3.54449472 24.5852187C3.77073906 24.5852187 3.92156863 24.5098039 4.14781297 24.5098039L4.22322775 24.5098039C4.29864253 24.5098039 4.37405732 24.4343891 4.4494721 24.4343891L4.52488688 24.4343891C4.60030166 24.4343891 4.67571644 24.3589744 4.75113122 24.3589744L4.826546 24.3589744C4.97737557 24.2835596 5.20361991 24.13273 5.35444947 24.0573152L5.58069382 23.8310709 5.6561086 23.7556561C6.8627451 22.4736048 8.82352941 22.4736048 10.0301659 23.7556561 11.387632 25.188537 13.6500754 25.1131222 14.9321267 23.5294118 15.8371041 22.39819 15.8371041 20.7390649 14.9321267 19.5324284 13.7254902 18.0241327 11.5384615 17.9487179 10.2564103 19.1553544L10.1055807 19.306184 9.80392157 19.5324284C8.59728507 20.5128205 6.78733032 20.4374057 5.6561086 19.306184L5.50527903 19.1553544 5.27903469 18.8536953C4.29864253 17.6470588 4.37405732 15.8371041 5.50527903 14.7058824 6.18401207 14.1025641 6.48567119 13.2730015 6.48567119 12.4434389L6.48567119 12.2171946C6.48567119 11.4630468 6.18401207 10.7088989 5.58069382 10.1809955 5.58069382 10.1055807 5.50527903 10.1055807 5.50527903 10.0301659L5.27903469 9.72850679C4.29864253 8.52187029 4.37405732 6.71191554 5.50527903 5.58069382L5.58069382 5.50527903 5.6561086 5.42986425C6.8627451 4.14781297 8.82352941 4.14781297 10.0301659 5.42986425L10.1055807 5.50527903 10.1809955 5.58069382 10.331825 5.73152338C10.4072398 5.73152338 10.4072398 5.80693816 10.4826546 5.80693816 10.5580694 5.80693816 10.5580694 5.88235294 10.6334842 5.88235294 10.7088989 5.88235294 10.7088989 5.95776772 10.7843137 5.95776772 10.8597285 5.95776772 10.8597285 6.0331825 10.9351433 6.0331825 11.0105581 6.0331825 11.0105581 6.10859729 11.0859729 6.10859729 11.1613876 6.10859729 11.1613876 6.18401207 11.2368024 6.18401207 11.3122172 6.18401207 11.3122172 6.18401207 11.387632 6.25942685 11.4630468 6.25942685 11.4630468 6.25942685 11.5384615 6.33484163L12.8205128 6.33484163C12.8959276 6.33484163 12.9713424 6.33484163 13.0467572 6.25942685L13.1975867 6.25942685C13.2730015 6.25942685 13.3484163 6.18401207 13.4238311 6.18401207L13.4992459 6.18401207C13.5746606 6.18401207 13.6500754 6.10859729 13.800905 6.0331825 14.1025641 5.88235294 14.4042232 5.6561086 14.6304676 5.42986425L14.7058824 5.35444947C15.9125189 4.07239819 17.8733032 4.07239819 19.0799397 5.35444947 20.361991 6.8627451 22.6998492 6.78733032 23.9064857 5.20361991 24.811463 4.07239819 24.811463 2.413273 23.9064857 1.28205128M41.1010558 10.6334842C40.6485671 10.1809955 40.2714932 9.87933635 39.7435897 9.65309201 39.2911011 9.42684766 38.7631976 9.2760181 38.0844646 9.2760181 37.4811463 9.2760181 36.8778281 9.42684766 36.4253394 9.65309201 35.9728507 9.87933635 35.5957768 10.1809955 35.2941176 10.6334842 34.9924585 11.0105581 34.7662142 11.4630468 34.6153846 11.9909502 34.4645551 12.5188537 34.3891403 13.0467572 34.3891403 13.5746606 34.3891403 14.1025641 34.4645551 14.6304676 34.6907994 15.158371 34.841629 15.6862745 35.1432881 16.0633484 35.4449472 16.4404223 35.7466063 16.8174962 36.199095 17.1191554 36.6515837 17.3453997 37.1040724 17.571644 37.6319759 17.6470588 38.2352941 17.6470588 38.9140271 17.6470588 39.4419306 17.4962293 39.8944193 17.2699849 40.346908 17.0437406 40.7993967 16.7420814 41.1764706 16.2895928L42.760181 17.9487179C42.1568627 18.627451 41.4781297 19.0799397 40.7239819 19.3815988 39.9698341 19.6832579 39.1402715 19.8340875 38.2352941 19.8340875 37.3303167 19.8340875 36.4253394 19.6832579 35.6711916 19.3815988 34.9170437 19.0799397 34.2383107 18.627451 33.7104072 18.0995475 33.1825038 17.571644 32.7300151 16.892911 32.428356 16.1387632 32.1266968 15.3846154 31.9758673 14.479638 31.9758673 13.5746606 31.9758673 12.6696833 32.1266968 11.7647059 32.428356 11.0105581 32.7300151 10.2564103 33.1825038 9.57767722 33.7104072 8.97435897 34.2383107 8.44645551 34.9170437 7.99396682 35.6711916 7.69230769 36.4253394 7.39064857 37.3303167 7.239819 38.2352941 7.239819 39.1402715 7.239819 39.9698341 7.39064857 40.7239819 7.69230769 41.5535445 7.99396682 42.2322775 8.52187029 42.8355958 9.12518854L41.1010558 10.6334842M46.2292609 13.4238311C46.2292609 14.0271493 46.3046757 14.6304676 46.5309201 15.0829563 46.6817496 15.6108597 46.9834087 16.0633484 47.2850679 16.4404223 47.586727 16.8174962 48.0392157 17.1191554 48.4917044 17.2699849 48.9441931 17.4962293 49.5475113 17.571644 50.1508296 17.571644 50.7541478 17.571644 51.2820513 17.4962293 51.8099548 17.2699849 52.2624434 17.0437406 52.7149321 16.7420814 53.0165913 16.4404223 53.3182504 16.0633484 53.6199095 15.6108597 53.7707391 15.0829563 53.9215686 14.5550528 54.0723982 14.0271493 54.0723982 13.4238311 54.0723982 12.8205128 53.9969834 12.2171946 53.7707391 11.7647059 53.6199095 11.2368024 53.3182504 10.7843137 53.0165913 10.4072398 52.7149321 10.0301659 52.2624434 9.72850679 51.8099548 9.57767722 51.3574661 9.35143288 50.7541478 9.2760181 50.1508296 9.2760181 49.5475113 9.2760181 49.0196078 9.35143288 48.4917044 9.57767722 48.0392157 9.80392157 47.586727 10.1055807 47.2850679 10.4072398 46.9834087 10.7843137 46.6817496 11.2368024 46.5309201 11.7647059 46.3800905 12.2926094 46.2292609 12.8205128 46.2292609 13.4238311L46.2292609 13.4238311zM43.8159879 13.4238311C43.8159879 12.5188537 43.9668175 11.6892911 44.2684766 10.9351433 44.5701357 10.1809955 45.0226244 9.50226244 45.6259427 8.89894419 46.2292609 8.29562594 46.8325792 7.84313725 47.6621418 7.54147813 48.4162896 7.239819 49.2458522 7.01357466 50.1508296 7.01357466 51.0558069 7.01357466 51.8853695 7.16440422 52.6395173 7.54147813 53.3936652 7.84313725 54.0723982 8.29562594 54.6757164 8.89894419 55.2790347 9.50226244 55.6561086 10.1809955 56.0331825 10.9351433 56.3348416 11.6892911 56.4856712 12.5188537 56.4856712 13.4238311 56.4856712 14.3288084 56.3348416 15.158371 56.0331825 15.9125189 55.7315234 16.6666667 55.2790347 17.3453997 54.6757164 17.9487179 54.0723982 18.5520362 53.4690799 18.9291101 52.6395173 19.306184 51.8853695 19.6078431 51.0558069 19.8340875 50.1508296 19.8340875 49.2458522 19.8340875 48.4162896 19.6832579 47.6621418 19.306184 46.907994 19.0045249 46.2292609 18.5520362 45.6259427 17.9487179 45.0226244 17.3453997 44.6455505 16.7420814 44.2684766 15.9125189 44.0422323 15.158371 43.8159879 14.3288084 43.8159879 13.4238311zM58.8235294 19.5324284L61.0859729 19.5324284 61.0859729 7.46606335 58.8235294 7.46606335 58.8235294 19.5324284zM58.2956259 3.09200603C58.2956259 2.63951735 58.4464555 2.26244344 58.7481146 1.88536953 59.0497738 1.58371041 59.4268477 1.35746606 59.8793363 1.35746606 60.331825 1.35746606 60.7088989 1.50829563 61.0105581 1.88536953 61.3122172 2.18702866 61.4630468 2.63951735 61.4630468 3.09200603 61.4630468 3.54449472 61.3122172 3.92156863 61.0105581 4.29864253 60.7088989 4.60030166 60.331825 4.826546 59.8793363 4.826546 59.4268477 4.826546 59.0497738 4.67571644 58.7481146 4.29864253 58.4464555 3.99698341 58.2956259 3.54449472 58.2956259 3.09200603zM64.2533937 7.46606335L66.5158371 7.46606335 66.5158371 9.35143288 66.5912519 9.35143288C66.892911 8.67269985 67.3453997 8.14479638 68.0995475 7.76772247 68.7782805 7.39064857 69.6078431 7.16440422 70.5882353 7.16440422 71.1915535 7.16440422 71.719457 7.239819 72.2473605 7.46606335 72.775264 7.61689291 73.2277526 7.91855204 73.6048265 8.29562594 73.9819005 8.67269985 74.2835596 9.12518854 74.5852187 9.72850679 74.811463 10.331825 74.9622926 11.0105581 74.9622926 11.8401207L74.9622926 19.6078431 72.6998492 19.6078431 72.6998492 12.4434389C72.6998492 11.9155354 72.6244344 11.387632 72.4736048 11.0105581 72.3227753 10.6334842 72.0965309 10.2564103 71.8702866 10.0301659 71.6440422 9.80392157 71.3423831 9.57767722 70.9653092 9.50226244 70.6636501 9.42684766 70.2865762 9.35143288 69.9095023 9.35143288 69.4570136 9.35143288 69.0045249 9.42684766 68.627451 9.57767722 68.2503771 9.72850679 67.8733032 9.95475113 67.571644 10.331825 67.2699849 10.6334842 67.0437406 11.0859729 66.892911 11.6138763 66.7420814 12.1417798 66.6666667 12.745098 66.6666667 13.4238311L66.6666667 19.6832579 64.4042232 19.6832579 64.4042232 7.46606335M83.3333333 17.6470588C83.9366516 17.6470588 84.4645551 17.571644 84.9924585 17.3453997 85.520362 17.1191554 85.8974359 16.8174962 86.2745098 16.4404223 86.5761689 16.0633484 86.8778281 15.6108597 87.0286576 15.0829563 87.1794872 14.5550528 87.3303167 14.0271493 87.3303167 13.3484163 87.3303167 12.745098 87.254902 12.1417798 87.0286576 11.6138763 86.8778281 11.0859729 86.5761689 10.6334842 86.2745098 10.2564103 85.8974359 9.87933635 85.520362 9.57767722 84.9924585 9.35143288 84.4645551 9.12518854 83.9366516 9.04977376 83.3333333 9.04977376 82.7300151 9.04977376 82.2021116 9.12518854 81.6742081 9.35143288 81.1463047 9.57767722 80.7692308 9.87933635 80.3921569 10.2564103 80.0904977 10.6334842 79.7888386 11.0859729 79.638009 11.6138763 79.4871795 12.1417798 79.3363499 12.6696833 79.3363499 13.3484163 79.3363499 13.9517345 79.4117647 14.5550528 79.638009 15.0829563 79.7888386 15.6108597 80.0904977 16.0633484 80.3921569 16.4404223 80.693816 16.8174962 81.1463047 17.1191554 81.6742081 17.3453997 82.1266968 17.4962293 82.7300151 17.6470588 83.3333333 17.6470588zM89.5927602 19.4570136L87.3303167 19.4570136 87.3303167 17.7224736 87.254902 17.7224736C86.8024133 18.4012066 86.199095 18.8536953 85.4449472 19.2307692 84.6907994 19.6078431 83.8612368 19.7586727 83.0316742 19.7586727 82.1266968 19.7586727 81.2217195 19.6078431 80.4675716 19.306184 79.7134238 19.0045249 79.0346908 18.5520362 78.5067873 17.9487179 77.9788839 17.3453997 77.5263952 16.6666667 77.3001508 15.9125189 76.9984917 15.158371 76.8476621 14.3288084 76.8476621 13.4238311 76.8476621 12.5188537 76.9984917 11.6892911 77.3001508 10.8597285 77.60181 10.1055807 77.9788839 9.42684766 78.5067873 8.82352941 79.0346908 8.22021116 79.7134238 7.76772247 80.4675716 7.46606335 81.2217195 7.16440422 82.0512821 7.01357466 83.0316742 7.01357466 83.8612368 7.01357466 84.6907994 7.16440422 85.4449472 7.54147813 86.199095 7.91855204 86.8024133 8.44645551 87.1794872 9.04977376L87.254902 9.04977376 87.254902 0 89.5173454 0 89.5173454 19.4570136 89.5927602 19.4570136zM101.131222 12.4434389C101.131222 11.9155354 101.055807 11.4630468 100.904977 11.0105581 100.754148 10.5580694 100.527903 10.1809955 100.226244 9.87933635 99.9245852 9.57767722 99.5475113 9.35143288 99.1704374 9.12518854 98.7179487 8.97435897 98.26546 8.82352941 97.6621418 8.82352941 97.1342383 8.82352941 96.6063348 8.89894419 96.1538462 9.12518854 95.7013575 9.35143288 95.3242836 9.57767722 94.9472097 9.95475113 94.6455505 10.2564103 94.3438914 10.6334842 94.1930618 11.0859729 94.0422323 11.5384615 93.8914027 11.9155354 93.8914027 12.2926094L101.131222 12.2926094 101.131222 12.4434389zM93.8914027 14.3288084C93.8914027 14.8567119 94.0422323 15.3092006 94.2684766 15.7616893 94.494721 16.214178 94.7963801 16.5912519 95.173454 16.892911 95.5505279 17.1945701 96.0030166 17.4208145 96.4555053 17.571644 96.9834087 17.7224736 97.4358974 17.7978884 97.9638009 17.7978884 98.6425339 17.7978884 99.321267 17.6470588 99.8491704 17.2699849 100.377074 16.9683258 100.829563 16.5158371 101.282051 15.9879336L103.016591 17.3453997C101.73454 19.0045249 99.9245852 19.8340875 97.6621418 19.8340875 96.6817496 19.8340875 95.852187 19.6832579 95.0980392 19.3815988 94.3438914 19.0799397 93.6651584 18.627451 93.1372549 18.0241327 92.6093514 17.4208145 92.1568627 16.8174962 91.9306184 15.9879336 91.6289593 15.2337858 91.4781297 14.4042232 91.4781297 13.4992459 91.4781297 12.5942685 91.6289593 11.7647059 91.9306184 11.0105581 92.2322775 10.2564103 92.6847662 9.57767722 93.2126697 8.97435897 93.7405732 8.37104072 94.4193062 7.99396682 95.173454 7.61689291 95.9276018 7.31523379 96.7571644 7.16440422 97.6621418 7.16440422 98.7179487 7.16440422 99.6229261 7.31523379 100.377074 7.69230769 101.131222 8.0693816 101.73454 8.52187029 102.187029 9.12518854 102.639517 9.72850679 103.016591 10.4072398 103.242836 11.1613876 103.46908 11.9155354 103.544495 12.6696833 103.544495 13.4992459L103.544495 14.3288084 93.8914027 14.3288084 93.8914027 14.3288084zM112.443439 10.4826546C112.14178 10.1809955 111.840121 9.87933635 111.463047 9.65309201 111.085973 9.42684766 110.558069 9.2760181 110.030166 9.2760181 109.502262 9.2760181 109.049774 9.42684766 108.597285 9.65309201 108.220211 9.87933635 107.993967 10.1809955 107.993967 10.6334842 107.993967 11.0105581 108.144796 11.3122172 108.371041 11.4630468 108.597285 11.6892911 108.898944 11.8401207 109.200603 11.9909502 109.502262 12.1417798 109.879336 12.2171946 110.180995 12.2926094 110.558069 12.3680241 110.859729 12.4434389 111.085973 12.4434389 111.538462 12.5942685 112.066365 12.6696833 112.443439 12.8959276 112.895928 13.0467572 113.273002 13.2730015 113.574661 13.5746606 113.87632 13.8763198 114.102564 14.1779789 114.328808 14.5550528 114.479638 14.9321267 114.630468 15.3846154 114.630468 15.9879336 114.630468 16.6666667 114.479638 17.2699849 114.177979 17.7224736 113.87632 18.1749623 113.499246 18.627451 113.046757 18.9291101 112.594268 19.2307692 112.066365 19.4570136 111.463047 19.6078431 110.859729 19.7586727 110.25641 19.8340875 109.728507 19.8340875 108.748115 19.8340875 107.843137 19.6832579 107.088989 19.3815988 106.334842 19.0799397 105.656109 18.5520362 105.05279 17.7224736L106.78733 16.2895928C107.164404 16.6666667 107.541478 16.9683258 107.993967 17.2699849 108.446456 17.571644 108.974359 17.7224736 109.653092 17.7224736 109.954751 17.7224736 110.25641 17.7224736 110.558069 17.6470588 110.859729 17.571644 111.085973 17.4962293 111.312217 17.3453997 111.538462 17.1945701 111.689291 17.0437406 111.840121 16.892911 111.99095 16.6666667 112.066365 16.4404223 112.066365 16.214178 112.066365 15.9125189 111.99095 15.6108597 111.764706 15.3846154 111.538462 15.158371 111.312217 15.0075415 111.010558 14.8567119 110.708899 14.7058824 110.40724 14.6304676 110.105581 14.5550528L109.200603 14.3288084C108.748115 14.1779789 108.220211 14.1025641 107.843137 13.9517345 107.390649 13.800905 107.013575 13.5746606 106.711916 13.3484163 106.410256 13.1221719 106.108597 12.745098 105.882353 12.3680241 105.656109 11.9909502 105.580694 11.4630468 105.580694 10.9351433 105.580694 10.331825 105.731523 9.72850679 105.957768 9.2760181 106.184012 8.82352941 106.561086 8.44645551 107.013575 8.14479638 107.466063 7.84313725 107.918552 7.61689291 108.446456 7.46606335 108.974359 7.31523379 109.577677 7.239819 110.105581 7.239819 110.935143 7.239819 111.689291 7.39064857 112.443439 7.69230769 113.197587 7.99396682 113.800905 8.52187029 114.253394 9.20060332L112.443439 10.4826546M116.817496.301659125L119.07994.301659125 119.07994 12.5188537 124.208145 7.39064857 127.300151 7.39064857 121.794872 12.8205128 127.828054 19.306184 124.585219 19.306184 119.07994 13.1221719 119.07994 19.306184 116.817496 19.306184 116.817496.301659125"/>
  </g>
</svg>
