<svg xmlns="http://www.w3.org/2000/svg" xmlns:xlink="http://www.w3.org/1999/xlink" width="114" height="25" viewBox="0 0 114 25">
  <defs>
    <path id="coinbase-a" d="M11.3591823,21.379925 C11.7811831,22.3075516 12.3257304,23.1453565 12.9757313,23.8796904 C11.542535,24.6544559 10.0404998,25 8.40312167,25 C3.53371979,25 0,21.7761257 0,16.6307223 C0,11.4487336 3.71403687,8.22485929 8.40312167,8.22485929 C10.0717435,8.22485929 11.3876706,8.58888368 12.7134986,9.30084428 C12.0952552,10.0635553 11.5852675,10.9288931 11.1977796,11.8815666 C10.3978648,11.5597092 9.57464564,11.413227 8.72676772,11.413227 C5.84169439,11.413227 3.60554773,13.261257 3.60554773,16.6307223 C3.60554773,19.8190901 5.76991315,21.8482645 8.87173126,21.8482645 C9.76042687,21.8482645 10.5808906,21.6866792 11.3591823,21.379925 Z M21.1522073,8.22485929 C25.9481467,8.22485929 29.4103654,11.6310038 29.4103654,16.6307223 C29.4103654,21.5949812 25.9481467,25 21.1522073,25 C16.3926956,25 12.9307571,21.5949812 12.9307571,16.6307223 C12.9307571,11.6310038 16.3926956,8.22485929 21.1522073,8.22485929 Z M21.1522073,11.3044559 C18.4838787,11.3044559 16.5363048,13.3702627 16.5363048,16.6307223 C16.5363048,19.8559568 18.4838787,21.9204034 21.1522073,21.9204034 C23.8936714,21.9204034 25.8048644,19.8559568 25.8048644,16.6307223 C25.8048644,13.3702627 23.8936714,11.3044559 21.1522073,11.3044559 Z M31.6828464,24.6378049 L31.6828464,8.58681989 L35.2519197,8.58681989 L35.2519197,24.6378049 L31.6828464,24.6378049 Z M31.2131159,3.65919325 C31.2131159,2.42767355 32.2599451,1.44939024 33.4493093,1.44939024 C34.6397009,1.44939024 35.685456,2.42767355 35.685456,3.65919325 C35.685456,4.92767355 34.6397009,5.94282364 33.4493093,5.94282364 C32.2599451,5.94282364 31.2131159,4.92767355 31.2131159,3.65919325 Z M38.3664408,9.60206379 C40.6025875,8.73255159 43.3440983,8.22485929 45.6871463,8.22485929 C49.7626112,8.22485929 52.3591585,9.78292683 52.3591585,14.3118668 L52.3591585,24.6378987 L48.8254388,24.6378987 L48.8254388,14.6384146 C48.8254388,12.3195591 47.3829021,11.4853189 45.3988537,11.4853189 C44.136354,11.4853189 42.8754887,11.6665103 41.9369152,11.9564259 L41.9369152,24.6378987 L38.3664408,24.6378987 L38.3664408,9.60206379 Z M55.3487513,0 L58.9178247,0 L58.9178247,9.02232645 C59.675007,8.62363977 61.1539713,8.225 62.5598001,8.225 C67.1759828,8.225 70.6379213,11.1955441 70.6379213,16.3409475 C70.6379213,21.521576 67.2124572,24.9998124 61.2989349,24.9998124 C58.991007,24.9998124 56.9716051,24.5290338 55.3487513,23.9494371 L55.3487513,0 Z M58.9178247,21.595075 C59.6032257,21.8114916 60.5053249,21.9202627 61.4058361,21.9202627 C64.6877378,21.9202627 67.0324203,20.1090994 67.0324203,16.4130863 C67.0324203,13.296576 64.8327014,11.4488274 62.1279451,11.4488274 C60.7218361,11.4488274 59.6396534,11.8120075 58.9178247,12.2106942 L58.9178247,21.595075 Z M80.9506014,13.8765009 C80.9506014,12.137242 79.6516272,11.3412758 77.8854445,11.3412758 C76.0461262,11.3412758 74.6035895,11.8842402 73.269542,12.6449812 L73.269542,9.52847092 C74.6753707,8.73250469 76.4782614,8.22476548 78.4625899,8.22476548 C81.9596018,8.22476548 84.4478468,9.67415572 84.4478468,13.6953565 L84.4478468,24.3113039 C82.9335289,24.7099906 80.7705645,24.9643996 78.9676272,24.9643996 C74.8203343,24.9643996 71.7905776,23.6962008 71.7905776,20.0723265 C71.7905776,16.8118199 74.5671151,15.2181989 79.1830176,15.2181989 L80.9506014,15.2181989 L80.9506014,13.8765009 Z M80.9506014,17.6091932 L79.4362368,17.6091932 C76.946871,17.6091932 75.3242974,18.3330206 75.3242974,19.9635553 C75.3242974,21.630394 76.8397362,22.2824109 79.0029807,22.2824109 C79.5447726,22.2824109 80.3019549,22.210272 80.9506014,22.1012195 L80.9506014,17.6091932 Z M87.0443474,20.2900563 C88.5233118,21.4128518 90.2894945,22.101454 91.912068,22.101454 C93.4996149,22.101454 94.5453232,21.5582083 94.5453232,20.2900563 C94.5453232,18.9849906 93.6078238,18.5141651 91.5519943,17.9712008 C88.234739,17.2104597 86.8275559,15.870122 86.8275559,13.0802064 C86.8275559,9.81833959 89.2804941,8.225 92.5256411,8.225 C94.3285785,8.225 95.7711151,8.62368668 97.1051159,9.4565666 L97.1051159,12.7536585 C95.6992872,11.7398687 94.3285785,11.1234053 92.634177,11.1234053 C91.0833847,11.1234053 90.2544211,11.8841463 90.2544211,12.9348499 C90.2544211,13.9852251 90.9384211,14.5295497 92.7777862,15.0358818 C96.4211159,15.8332552 98.0072618,17.2104597 98.0072618,20.1091463 C98.0072618,23.4783771 95.4471889,24.9998593 91.9852503,24.9998593 C90.1094576,24.9998593 88.234739,24.4935272 87.0443474,23.6961538 L87.0443474,20.2900563 Z M102.893476,17.4281895 L102.893476,17.5003283 C103.110221,20.3621013 105.561805,21.9202158 108.049816,21.9202158 C110.249489,21.9202158 111.836755,21.4128049 113.422855,20.3621013 L113.422855,23.515197 C111.980318,24.5289869 109.852707,24.9998124 107.797952,24.9998124 C102.821695,24.9998124 99.4315379,21.8114447 99.4315379,16.7395872 C99.4315379,11.6310976 102.748513,8.2249531 107.149025,8.2249531 C111.800281,8.2249531 114,11.2324109 114,15.615666 L114,17.4281895 L102.893476,17.4281895 Z M110.646317,15.109334 C110.574489,12.6082552 109.348744,11.2324109 107.040769,11.2324109 C104.98466,11.2324109 103.470622,12.6817542 103.001732,15.109334 L110.646317,15.109334 Z"/>
  </defs>
  <use fill="#DDD" fill-rule="evenodd" xlink:href="#coinbase-a"/>
</svg>
