<svg xmlns="http://www.w3.org/2000/svg" width="95" height="25" viewBox="0 0 95 25">
  <g fill="#DDD">
    <path d="M29.71116 7.82646966C31.8174898 9.06625711 33.0934064 11.269189 33.4483655 14.2789377 33.5567469 15.1979202 33.4864269 17.1389203 33.315723 17.9401621 32.6170591 21.219518 30.5822498 23.5103356 27.6011014 24.3737643 27.2798591 24.4668051 26.7817065 24.5756599 26.4940955 24.6156623 25.8854855 24.7003123 24.0280543 24.6985693 23.4390434 24.6127935 21.7945221 24.3733146 20.3561663 23.6772184 19.2577717 22.5892574 18.3415712 21.6817611 17.7475422 20.6837435 17.3096517 19.3162558 16.625996 17.1812673 16.6257559 14.4363384 17.3090413 12.3448934 17.9712268 10.3180327 19.4621889 8.5537427 21.2869573 7.63773344 23.8139943 6.36919466 27.3707113 6.44887942 29.71116 7.82646966zM26.5078714 8.50688283C25.8626419 7.92395688 24.85916 7.73313922 24.1350698 8.05568103 23.0786912 8.52623907 22.4002374 9.91923922 22.0790615 12.2770719 21.850352 13.9560859 21.8740556 17.3826848 22.125039 18.923573 22.5209589 21.3542859 23.3109382 22.8903832 24.4249854 23.3957683 24.8739057 23.5994198 25.6955245 23.5880726 26.1600003 23.3718049 27.4412544 22.7752333 28.1281486 21.0586035 28.3520774 17.8935424 28.6641367 13.4828367 27.9408611 9.80150323 26.5078714 8.50688283zM53.632203.00000776891211C53.6955964.00108172345 53.7045759.886727178 53.6720983 3.93503503 53.6490478 6.09853896 53.6460867 7.86867833 53.6655196 7.86867833 53.6849504 7.86867833 53.9380458 7.75908635 54.2279533 7.62514104 55.101823 7.22138848 55.9072664 7.04619756 57.077113 7.00542399 57.8559886 6.9782771 58.2167716 6.99527722 58.6163796 7.07795563 61.2290554 7.61851285 63.1624968 9.75701033 63.8381692 12.8535542 64.0144304 13.6613414 64.0800056 15.6688933 63.962977 16.6744567 63.863232 17.5315135 63.5786593 18.6862882 63.2825251 19.4356805 62.1650923 22.2634391 59.7675875 24.108265 56.5870888 24.587669 55.8544728 24.6980979 53.5538801 24.7119796 52.5669872 24.6119267 51.894164 24.5437146 49.8380831 24.2015466 49.1198669 24.0382652L48.6229813 23.9253025 48.6617284 21.2718395C48.7550168 14.8833603 48.7667505 11.3958985 48.7063684 8.00432121 48.647218 4.68189422 48.6299683 4.33060765 48.5018461 3.83914705 48.3395033 3.21642415 48.1051877 2.78204479 47.8233686 2.58137132 47.7138871 2.50341397 47.4164379 2.3929342 47.1623713 2.33586178 46.3178764 2.14615843 46.3637494 2.1765777 46.3412036 1.7913214 46.3282164 1.56940151 46.3522618 1.4227953 46.409025 1.37781002 46.4851227 1.31750319 53.4115886-.00369514402 53.632203.00000776891211zM56.3661998 9.06157878C55.7552521 8.77204906 54.893464 8.73617694 54.0929683 8.96695499L54.0929683 8.96695499 53.5503968 9.12337497 53.4889281 11.2597503C53.4114313 13.953192 53.5373506 23.1597564 53.6536013 23.2998301 53.6957713 23.3506419 53.8423999 23.4040486 53.9794426 23.4185115 54.59162 23.4831175 55.2790493 23.4605343 55.5998087 23.3652791 56.0969697 23.217638 56.7328066 22.7658576 57.1156783 22.2882096 57.9054698 21.3029139 58.4728043 19.7777549 58.7845957 17.8016762 58.9339161 16.8553087 58.9540645 14.1957608 58.817715 13.4300364 58.3991251 11.0792829 57.5931134 9.64301606 56.3661998 9.06157878zM76.7993571 7.40254361C78.8964977 8.45350871 80.1305088 10.5519726 80.443559 13.59959 80.4857032 14.0099097 80.5101325 14.4982241 80.4978501 14.684733L80.4755097 15.0238402 75.4567231 15.0412154 70.4379366 15.0585899 70.457069 15.6516084C70.5013836 17.0252577 70.7967052 18.240251 71.3430341 19.2965909 71.5913555 19.7767274 71.7889804 20.0384944 72.2691155 20.5232529 73.3537566 21.6183352 74.4327686 22.0423345 76.1349375 22.0423345 77.3691182 22.0423345 78.2566567 21.7960429 79.1848541 21.1959846 79.444834 21.0279102 79.7082593 20.8903948 79.7702413 20.8903948 79.9119271 20.8903948 80.2381346 21.3103431 80.2381346 21.4927414 80.2381346 21.7916054 79.2650665 22.7553521 78.3159665 23.396498 77.5386447 23.9216014 76.3058883 24.3970616 75.2369274 24.5840467 74.4882737 24.7150031 72.8064987 24.7119864 72.0656512 24.5783565 68.7009888 23.9714651 66.2947099 21.585435 65.5084492 18.0763198 65.4073206 17.6249803 65.3625992 17.1199717 65.3372408 16.142894 65.2971176 14.5971023 65.422845 13.6376778 65.8217503 12.4455682 66.5876985 10.1565668 67.9604398 8.53456008 69.9544715 7.5624096 72.0591742 6.53630465 74.9367158 6.46909835 76.7993571 7.40254361zM73.2817913 7.86905611C73.2046308 7.86884856 72.9771916 7.91747315 72.7763724 7.97711125 72.4845706 8.06376603 72.3213109 8.1761448 71.9635121 8.53663813 71.2983397 9.2068245 70.8149424 10.2951741 70.5130353 11.8023218 70.3877759 12.4276063 70.2611804 13.6348049 70.3122092 13.7173694 70.3491787 13.7771879 73.3898309 13.7372594 74.8056577 13.6583634L74.8056577 13.6583634 75.5110278 13.6190575 75.4699687 12.5580914C75.3867992 10.408811 74.9670727 8.95678584 74.233516 8.28061355 73.9602092 8.02869081 73.5929968 7.86989776 73.2817913 7.86905611zM85.6299391 24.644127C84.421612 24.5146097 82.4986029 24.0935973 81.858321 23.8183901L81.5455896 23.6839734 81.5029435 22.1345859C81.4794908 21.2824223 81.4524368 20.1430378 81.4428265 19.6026196L81.4253489 18.6200415 81.6127803 18.5302093C81.7158621 18.4808014 81.9239179 18.4346476 82.0751122 18.4276443L82.3500197 18.4149122 82.5842342 18.9913721C83.4979857 21.2403466 84.5696323 22.452956 85.9693515 22.8217629 86.5033097 22.9624537 87.5044423 22.9636907 87.8997328 22.8241502 89.0070127 22.4332694 89.6142045 21.5948723 89.6194878 20.4495581 89.6257274 19.0931531 88.8801663 18.4414263 86.0634876 17.3411727 84.318442 16.6595218 83.7097107 16.3086659 82.9849029 15.5667644 82.2030235 14.7664429 81.8277471 13.8554389 81.7572942 12.5866592 81.6721579 11.0534619 82.1520285 9.76095618 83.2153263 8.6595299 84.2853723 7.55111529 85.6745113 6.95037536 87.5668448 6.77769133 89.2332515 6.62562413 91.7911507 6.97905434 93.1313294 7.54654752L93.3758325 7.65007966 93.4194349 9.03103269C93.4434166 9.79055617 93.4682189 10.8087167 93.4745534 11.2936115L93.4860695 12.1752373 93.1577188 12.2971511C92.6385728 12.4899071 92.6044789 12.4657498 92.3156885 11.7005924 91.5062057 9.5558221 90.5657054 8.54098006 89.1002469 8.23098114 88.2071335 8.04205503 87.4610976 8.24516328 86.9188516 8.82486907 86.4958154 9.27712888 86.3307652 9.67875321 86.2907709 10.3531777 86.2474465 11.0839056 86.3780367 11.4788773 86.8245052 11.9673789 87.3747881 12.5694807 88.2763385 13.0892208 90.0722434 13.8396914 92.2719097 14.7588863 93.3214804 15.539254 93.8920554 16.6797787 94.2626182 17.4204858 94.3675312 18.0121037 94.3302565 19.1508616 94.3022802 20.0053623 94.2749346 20.1810117 94.0805312 20.7547546 93.4467127 22.625316 92.0158702 23.8567967 89.8054745 24.4341498 89.0567733 24.6297102 88.9499003 24.6398291 87.461118 24.6561293 86.6031768 24.6655226 85.7791463 24.660124 85.6299391 24.6441297L85.6299391 24.644127z"/>
    <path d="M.0901469012 24.23655C.0337584607 24.2137965.0053701016 24.0447726.0053701016 23.7317896.0053701016 23.1698442-.0304467398 23.1950046 1.05660242 22.9933185 1.89034128 22.8386307 2.18862655 22.6804454 2.55679754 22.1977405 3.27063739 21.2618338 3.42492845 19.4597883 3.42652768 12.0396969 3.42802992 5.07135138 3.29378756 3.60546014 2.5555151 2.52847195 2.22796583 2.05064482 1.67597242 1.79118644.751405938 1.68047133L.0392808215 1.59519536.0196404107 1.03924539 0 .483295413.22310473.443539163C.345812297.421673531 4.65707649.412434217 9.8036922.423006901L19.1611756.442230888 19.20505.713516647C19.2291809.862723814 19.2687865 2.39317768 19.2930625 4.11452515L19.3372007 7.24424702 18.8547312 7.39079287C18.1284816 7.61138482 18.1328758 7.6140719 17.8061718 6.74962478 17.0036881 4.62628132 16.0834936 3.40277644 14.8243547 2.78495229 13.9559317 2.35884171 13.5544003 2.30732048 11.1019146 2.30732048L8.96756033 2.30732048 8.93076787 2.66338304C8.86177177 3.33108783 8.75282815 7.62625806 8.75358301 9.64899113L8.75433582 11.666679 9.38168414 11.6630844C9.72672572 11.661104 10.407105 11.6357151 10.8936383 11.6066577 11.6250295 11.5629759 11.8423436 11.5241508 12.148335 11.3824963 12.900154 11.0344509 13.4116321 10.2684355 13.7249847 9.02122706L13.8867572 8.37733913 14.4403327 8.35764107 14.9939083 8.33794301 14.9939083 12.4127148 14.9939083 16.4874866 14.4401205 16.4677885 13.8863326 16.4480905 13.7291415 15.8037868C13.4337947 14.5932032 12.8654029 13.7265368 12.1630441 13.4158502 11.8386792 13.2723685 11.0360688 13.19082 9.4834163 13.1435912L8.75433582 13.1214136 8.75433582 14.6522343C8.75433582 16.3204159 8.84604262 18.5771628 8.96360295 19.8019359 9.12748803 21.5093393 9.56380166 22.4528319 10.3473787 22.7942375 10.4970043 22.8594302 10.9704014 22.9653225 11.399372 23.0295535 11.8283426 23.0937852 12.2327279 23.1739182 12.298006 23.2076275 12.4635548 23.2931164 12.4733245 24.1774015 12.3094143 24.2402998 12.1811389 24.2895239.212327089 24.2858507.0901469012 24.2365493L.0901469012 24.23655zM33.5227697 24.2237405C33.4609098 24.1843261 33.4406969 24.0279109 33.4549483 23.6989131L33.4752506 23.2302344 33.7126256 23.1796864C33.8431819 23.1518851 34.1236059 23.0967028 34.3357907 23.0570592 34.9924691 22.9343675 35.3698588 22.5779176 35.5822104 21.8797997 35.7552114 21.3110464 35.8314746 19.4915118 35.8354557 15.8376975 35.8403253 11.368951 35.7472315 10.3136426 35.2953841 9.71541748 35.0504937 9.39119369 34.8739627 9.29898977 34.2797472 9.18494124 33.9864812 9.12865419 33.6778672 9.06830396 33.5939381 9.05082976 33.458026 9.02253263 33.4413399 8.97825201 33.4413399 8.6458788 33.4413399 8.32268455 33.4617799 8.26429368 33.5939381 8.20994836 33.7969243 8.1264778 40.5156586 6.7835353 40.7302755 6.7835353L40.897709 6.7835353 40.864876 7.78390153C40.8468171 8.33410296 40.8179469 9.13524372 40.8007196 9.56421433L40.7693969 10.3441609 41.0127993 9.90521917C41.7919896 8.50006203 42.6658214 7.62780032 43.8277905 7.09528536 44.4656525 6.80296207 44.8912409 6.71571406 45.6793043 6.71571406 46.6138993 6.71571406 47.5481993 7.02066143 47.5481993 7.32570531 47.5481993 7.53081701 45.901587 11.8816526 45.8107714 11.9165013 45.7664691 11.9335021 45.4449446 11.8105214 45.0962725 11.6432127 44.3691182 11.2942891 43.6869159 11.1236707 43.024685 11.1251098 42.2000136 11.1269003 41.2788044 11.4306624 40.9150876 11.8207313 40.7595099 11.9875802 40.7587775 11.9976123 40.720124 14.4894358 40.6818449 16.9571141 40.7640831 19.9671598 40.9028573 21.1777827 41.0210803 22.209127 41.2951128 22.7168885 41.8610861 22.953308 42.049901 23.0321802 43.2445153 23.1958557 43.6343638 23.1962667 43.6639095 23.1962979 43.6791693 23.432851 43.6682745 23.7219399L43.6484666 24.247556 38.62968 24.2637226C35.8693474 24.272614 33.5712376 24.2546223 33.5227697 24.2237405L33.5227697 24.2237405z"/>
  </g>
</svg>
