<svg xmlns="http://www.w3.org/2000/svg" width="107" height="25" viewBox="0 0 107 25">
  <g fill="#DDD">
    <path d="M19.5226544.0000500343625C17.4866545.00857755182 15.4612853 1.07979804 14.4504134 3.21314228L13.9834158 4.19785863 13.9834158 12.334482 13.9834158 20.4711053 14.4504134 21.4558217C15.1751729 22.9853323 16.2969777 23.9508802 17.9783258 24.48394 19.1832972 24.8659693 21.1040661 24.6646544 22.3292636 24.030878 23.1239962 23.6197729 24.2486447 22.3958088 24.6827464 21.4696909L25.0803879 20.6190439 25.0803879 12.334482 25.0803879 4.04992002 24.6457565 3.17153454C23.6023497 1.04674116 21.5586543-.0083732537 19.5226544.0000500343625zM19.6151292 4.031402C19.6887625 4.03187151 19.7624101 4.03916488 19.8324449 4.0545431 20.0672272 4.10610266 20.4587876 4.37826976 20.7063314 4.66016677L21.1594578 5.17332881 21.1594578 12.2974973 21.1594578 19.4216658 20.8265486 19.9070894C20.6434486 20.1753184 20.2995638 20.4624628 20.0636318 20.5450746 19.8276983 20.627685 19.561371 20.6941967 19.4717933 20.6930288 19.1152283 20.6882348 18.5617779 20.2938808 18.2418789 19.8192508L17.904346 19.319958 17.904346 12.3529743C17.9048786 5.70273155 17.9153734 5.36181887 18.1910177 4.90981317 18.517024 4.37521778 19.0996961 4.02796297 19.6151292 4.031402zM66.171027 24.4065726C64.4559219 23.7705372 63.3292655 22.6748669 62.680032 21.0115887 62.4515661 20.4262755 62.4286042 19.4377838 62.4326065 10.3600075L62.4370157.353616243 64.4354443.312456764 66.4338713.271297285 66.4360463 9.85449688C66.4377331 17.2601526 66.48056 19.5217345 66.6245306 19.807543 66.7269971 20.0109586 67.0462733 20.3042824 67.334034 20.4593753 67.9805984 20.8078491 68.522465 20.7007711 69.1160968 20.1072237L69.5410176 19.6823647 69.5410176 9.97683027 69.5410176.271297285 71.5408991.312456764 73.5407791.353616243 73.5403353 10.3656011C73.5398914 20.1493463 73.5328633 20.3963712 73.2315435 21.2016099 72.7962729 22.3648097 71.6858552 23.5325054 70.4516795 24.1248679 69.1649072 24.7424746 67.3914971 24.8591804 66.1710151 24.4065726L66.171027 24.4065726z"/>
    <polygon points="0 12.337 0 .28 4.957 .28 9.913 .28 9.913 2.351 9.913 4.422 7.028 4.422 4.143 4.422 4.143 7.24 4.143 10.059 5.955 10.034 7.768 10.009 7.809 12.023 7.85 14.038 5.997 14.038 4.143 14.038 4.143 19.216 4.143 24.394 2.071 24.394 0 24.394 0 12.337"/>
    <path d="M30.6276428 12.3366434L30.6276428.27964694 33.7037086.27964694C37.0532632.27964694 37.9700788.418349739 39.135906 1.10147253 40.015344 1.61678412 40.9345017 2.6528322 41.4021104 3.65587371 41.7804091 4.46734211 41.7954166 4.60250918 41.8435967 7.63220455 41.8836908 10.1535074 41.8468223 10.9505563 41.6556022 11.6968695 41.3795199 12.7743715 40.8763299 13.69273 40.1811978 14.3877633L39.6896671 14.8792257 40.9865776 19.3200394C41.6998776 21.7624881 42.3286824 23.9032307 42.3839216 24.0772464 42.4833579 24.3905005 42.4631718 24.3936398 40.3491823 24.3936398L38.2140109 24.3936398 37.5925923 21.9896374C36.9733325 19.5939818 35.3922357 13.592148 35.2581266 13.1280202 35.2073084 12.9521508 35.3106582 12.856797 35.6275078 12.7872141 36.2144873 12.6583107 37.2749689 11.7330346 37.5270181 11.12988 37.6733073 10.7798114 37.7297051 9.89941104 37.7297051 7.96582534L37.7297051 5.2867992 37.2972072 4.85436282C36.8952927 4.45250535 36.7854385 4.42192792 35.743631 4.42192792L34.6225527 4.42192792 34.6225527 14.4077838 34.6225527 24.3936398 32.6250978 24.3936398 30.6276428 24.3936398 30.6276428 12.3366434 30.6276428 12.3366434zM50.0088168 24.2826858C50.0079291 24.2216612 49.9913265 19.7446691 49.9718269 14.3338145L49.9363743 4.49589722 48.1238689 4.45435902 46.3113635 4.41282082 46.3113635 2.34623388 46.3113635.27964694 51.9338293.27964694 57.5562952.27964694 57.5562952 2.35078743 57.5562952 4.42192792 55.7807796 4.42192792 54.0052641 4.42192792 54.0052641 14.4077838 54.0052641 24.3936398 52.0078091 24.3936398C50.9092089 24.3936398 50.0096632 24.3437105 50.0088168 24.2826858zM78.8624756 12.3366434L78.8624756.27964694 80.9033494.27964694 82.9442172.27964694 83.1018267.834416714C83.1885133 1.13954009 83.8623525 3.28649911 84.5992477 5.60543677 85.3361443 7.92437442 86.1497092 10.5040539 86.4071693 11.3380578 86.6646309 12.1720617 86.9380529 12.8544285 87.0147744 12.8544285 87.1000776 12.8544285 87.150588 10.426176 87.144791 6.60402236L87.1353068.353616243 89.1392157.312456764 91.1431247.271297285 91.1431247 12.3324685 91.1431247 24.3936398 88.8804403 24.3936398 86.6177558 24.3936398 86.1941385 23.0252077C85.9611495 22.27257 85.5507317 20.9672633 85.2820991 20.1245266 85.0134666 19.2817914 84.4132565 17.3678356 83.9482978 15.8712917 83.4833406 14.3747492 83.047675 13.1503057 82.9801521 13.1503057 82.9126307 13.1503057 82.8573856 15.6800559 82.8573856 18.7719727L82.8573856 24.3936398 80.8599306 24.3936398 78.8624756 24.3936398 78.8624756 12.3366434 78.8624756 12.3366434z"/>
    <polygon points="96.47 12.337 96.47 .28 101.426 .28 106.383 .28 106.383 2.351 106.383 4.422 103.421 4.422 100.458 4.422 100.498 7.196 100.539 9.97 102.425 9.97 104.312 9.97 104.312 12.004 104.312 14.038 102.388 14.038 100.465 14.038 100.465 17.145 100.465 20.251 103.424 20.251 106.383 20.251 106.383 22.322 106.383 24.394 101.426 24.394 96.47 24.394 96.47 12.337"/>
  </g>
</svg>
