<?xml version="1.0" encoding="UTF-8"?>
<svg width="389px" height="216px" viewBox="0 0 389 216" version="1.1" xmlns="http://www.w3.org/2000/svg" xmlns:xlink="http://www.w3.org/1999/xlink">
    <!-- Generator: Sketch 47.1 (45422) - http://www.bohemiancoding.com/sketch -->
    <title>index/props_index/how_it_works/illustration_2</title>
    <desc>Created with Sketch.</desc>
    <defs>
        <polygon id="path-1" points="0 215.582 388.5 215.582 388.5 0 0 0"></polygon>
    </defs>
    <g id="Page-1" stroke="none" stroke-width="1" fill="none" fill-rule="evenodd">
        <g id="coinlist-website-WIP" transform="translate(-228.000000, -2639.000000)">
            <g id="index/props_index/how_it_works/illustration_2" transform="translate(228.000000, 2639.000000)">
                <path d="M122.957,153.6191 C111.43,153.6191 102.052,144.2411 102.052,132.7141 C102.052,121.1871 111.43,111.8091 122.957,111.8091 C134.484,111.8091 143.862,121.1871 143.862,132.7141 C143.862,144.2411 134.484,153.6191 122.957,153.6191 Z" id="Fill-1" fill="#FFFFFF"></path>
                <path d="M122.957,110.3095 C110.603,110.3095 100.552,120.3605 100.552,132.7135 C100.552,145.0685 110.603,155.1195 122.957,155.1195 C135.311,155.1195 145.362,145.0685 145.362,132.7135 C145.362,120.3605 135.311,110.3095 122.957,110.3095 M122.957,113.3095 C133.674,113.3095 142.362,121.9975 142.362,132.7135 C142.362,143.4305 133.674,152.1195 122.957,152.1195 C112.24,152.1195 103.552,143.4305 103.552,132.7135 C103.552,121.9975 112.24,113.3095 122.957,113.3095" id="Fill-3" fill="#DDE6F2"></path>
                <path d="M138.5,132.7138 C138.5,141.2978 131.541,148.2568 122.957,148.2568 C114.373,148.2568 107.414,141.2978 107.414,132.7138 C107.414,124.1298 114.373,117.1708 122.957,117.1708 C131.541,117.1708 138.5,124.1298 138.5,132.7138" id="Fill-5" fill="#FFBC00"></path>
                <path d="M113.6592,132.7783 L113.6592,132.7163 C113.6592,127.7793 117.4342,123.7133 122.7252,123.7133 C125.3392,123.7133 127.1782,124.4243 128.6282,125.6483 C128.9512,125.9093 129.4032,126.4893 129.4032,127.3273 C129.4032,128.5543 128.4022,129.5203 127.1782,129.5203 C126.5322,129.5203 126.0482,129.2633 125.7562,129.0383 C124.8872,128.3593 123.9832,127.9393 122.6932,127.9393 C120.2402,127.9393 118.4982,130.1013 118.4982,132.6493 L118.4982,132.7163 C118.4982,135.3603 120.2082,137.4913 122.8852,137.4913 C124.1782,137.4913 125.1762,137.0393 126.1112,136.2963 C126.3712,136.1013 126.8542,135.8433 127.4352,135.8433 C128.5962,135.8433 129.5002,136.7793 129.5002,137.9403 C129.5002,138.5873 129.2082,139.1043 128.7902,139.4903 C127.3382,140.8143 125.4992,141.7163 122.6592,141.7163 C117.4662,141.7163 113.6592,137.7153 113.6592,132.7783" id="Fill-7" fill="#FFFFFF"></path>
                <path d="M74.957,145.582 C63.43,145.582 54.052,136.204 54.052,124.678 C54.052,113.15 63.43,103.772 74.957,103.772 C86.484,103.772 95.862,113.15 95.862,124.678 C95.862,136.204 86.484,145.582 74.957,145.582" id="Fill-9" fill="#FFFFFF"></path>
                <path d="M74.957,102.2724 C62.603,102.2724 52.552,112.3234 52.552,124.6774 C52.552,137.0314 62.603,147.0824 74.957,147.0824 C87.311,147.0824 97.362,137.0314 97.362,124.6774 C97.362,112.3234 87.311,102.2724 74.957,102.2724 M74.957,105.2724 C85.674,105.2724 94.362,113.9604 94.362,124.6774 C94.362,135.3944 85.674,144.0824 74.957,144.0824 C64.24,144.0824 55.552,135.3944 55.552,124.6774 C55.552,113.9604 64.24,105.2724 74.957,105.2724" id="Fill-11" fill="#DDE6F2"></path>
                <path d="M90.5,124.6777 C90.5,133.2617 83.541,140.2207 74.957,140.2207 C66.373,140.2207 59.414,133.2617 59.414,124.6777 C59.414,116.0927 66.373,109.1337 74.957,109.1337 C83.541,109.1337 90.5,116.0927 90.5,124.6777" id="Fill-13" fill="#22E5FF"></path>
                <path d="M26.957,136.6191 C15.43,136.6191 6.052,127.2411 6.052,115.7141 C6.052,104.1871 15.43,94.8091 26.957,94.8091 C38.484,94.8091 47.862,104.1871 47.862,115.7141 C47.862,127.2411 38.484,136.6191 26.957,136.6191" id="Fill-15" fill="#FFFFFF"></path>
                <path d="M26.957,93.3095 C14.603,93.3095 4.552,103.3605 4.552,115.7135 C4.552,128.0685 14.603,138.1195 26.957,138.1195 C39.311,138.1195 49.362,128.0685 49.362,115.7135 C49.362,103.3605 39.311,93.3095 26.957,93.3095 M26.957,96.3095 C37.674,96.3095 46.362,104.9975 46.362,115.7135 C46.362,126.4305 37.674,135.1195 26.957,135.1195 C16.24,135.1195 7.552,126.4305 7.552,115.7135 C7.552,104.9975 16.24,96.3095 26.957,96.3095" id="Fill-17" fill="#DDE6F2"></path>
                <path d="M42.5,115.7138 C42.5,124.2978 35.541,131.2568 26.957,131.2568 C18.373,131.2568 11.414,124.2978 11.414,115.7138 C11.414,107.1298 18.373,100.1708 26.957,100.1708 C35.541,100.1708 42.5,107.1298 42.5,115.7138" id="Fill-19" fill="#FFBC00"></path>
                <path d="M17.6592,115.7783 L17.6592,115.7163 C17.6592,110.7793 21.4342,106.7133 26.7252,106.7133 C29.3392,106.7133 31.1782,107.4243 32.6282,108.6483 C32.9512,108.9093 33.4032,109.4893 33.4032,110.3273 C33.4032,111.5543 32.4022,112.5203 31.1782,112.5203 C30.5322,112.5203 30.0482,112.2633 29.7562,112.0383 C28.8872,111.3593 27.9832,110.9393 26.6932,110.9393 C24.2402,110.9393 22.4982,113.1013 22.4982,115.6493 L22.4982,115.7163 C22.4982,118.3603 24.2082,120.4913 26.8852,120.4913 C28.1782,120.4913 29.1762,120.0393 30.1112,119.2963 C30.3712,119.1013 30.8542,118.8433 31.4352,118.8433 C32.5962,118.8433 33.5002,119.7793 33.5002,120.9403 C33.5002,121.5873 33.2082,122.1043 32.7902,122.4903 C31.3382,123.8143 29.4992,124.7163 26.6592,124.7163 C21.4662,124.7163 17.6592,120.7153 17.6592,115.7783" id="Fill-21" fill="#FFFFFF"></path>
                <mask id="mask-2" fill="white">
                    <use xlink:href="#path-1"></use>
                </mask>
                <g id="Clip-24"></g>
                <polygon id="Fill-23" fill="#FFFFFF" mask="url(#mask-2)" points="98.5 214.082 104.5 214.082 104.5 157.082 98.5 157.082"></polygon>
                <polygon id="Stroke-25" stroke="#DDE6F2" stroke-width="3" stroke-linejoin="round" mask="url(#mask-2)" points="98.5 214.082 104.5 214.082 104.5 157.082 98.5 157.082"></polygon>
                <polygon id="Fill-26" fill="#FFFFFF" mask="url(#mask-2)" points="58 214.082 64 214.082 64 147.082 58 147.082"></polygon>
                <polygon id="Stroke-27" stroke="#DDE6F2" stroke-width="3" stroke-linejoin="round" mask="url(#mask-2)" points="58 214.082 64 214.082 64 147.082 58 147.082"></polygon>
                <polygon id="Fill-28" fill="#FFFFFF" mask="url(#mask-2)" points="18 214 24 214 24 137 18 137"></polygon>
                <polygon id="Stroke-29" stroke="#DDE6F2" stroke-width="3" stroke-linejoin="round" mask="url(#mask-2)" points="17.5 214.082 23.5 214.082 23.5 137.082 17.5 137.082"></polygon>
                <polygon id="Fill-30" fill="#FFFFFF" mask="url(#mask-2)" points="1.5 138.082 123.5 161.082 123.5 154.082 1.5 131.082"></polygon>
                <polygon id="Stroke-31" stroke="#DDE6F2" stroke-width="3" stroke-linejoin="round" mask="url(#mask-2)" points="1.5 138.082 123.5 161.082 123.5 154.082 1.5 131.082"></polygon>
                <path d="M2.5,214.082 L387,214.082" id="Stroke-32" stroke="#DDE6F2" stroke-width="3" stroke-linecap="round" stroke-linejoin="round" mask="url(#mask-2)"></path>
                <path d="M211.3491,77.082 L168.5991,77.082 C165.2191,77.082 162.4791,79.822 162.4791,83.202 L162.4791,87.985 L217.4691,87.985 L217.4691,83.202 C217.4691,79.822 214.7291,77.082 211.3491,77.082" id="Fill-33" fill="#FFFFFF" mask="url(#mask-2)"></path>
                <path d="M211.3491,77.082 L168.5991,77.082 C165.2191,77.082 162.4791,79.822 162.4791,83.202 L162.4791,87.985 L217.4691,87.985 L217.4691,83.202 C217.4691,79.822 214.7291,77.082 211.3491,77.082 Z" id="Stroke-34" stroke="#398EFF" stroke-width="3" stroke-linejoin="round" mask="url(#mask-2)"></path>
                <path d="M355.0952,171.582 C343.5682,171.582 334.1902,162.204 334.1902,150.678 C334.1902,139.15 343.5682,129.772 355.0952,129.772 C366.6222,129.772 376.0002,139.15 376.0002,150.678 C376.0002,162.204 366.6222,171.582 355.0952,171.582" id="Fill-35" fill="#FFFFFF" mask="url(#mask-2)"></path>
                <path d="M355.0952,128.2724 C342.7412,128.2724 332.6902,138.3234 332.6902,150.6774 C332.6902,163.0314 342.7412,173.0824 355.0952,173.0824 C367.4492,173.0824 377.5002,163.0314 377.5002,150.6774 C377.5002,138.3234 367.4492,128.2724 355.0952,128.2724 M355.0952,131.2724 C365.8122,131.2724 374.5002,139.9604 374.5002,150.6774 C374.5002,161.3944 365.8122,170.0824 355.0952,170.0824 C344.3782,170.0824 335.6902,161.3944 335.6902,150.6774 C335.6902,139.9604 344.3782,131.2724 355.0952,131.2724" id="Fill-36" fill="#DDE6F2" mask="url(#mask-2)"></path>
                <path d="M348.0845,154.7832 L348.0845,143.6672 L358.5005,143.6672 L358.5005,135.5332 C357.4045,135.2872 356.2655,135.1532 355.0955,135.1532 C346.5215,135.1532 339.5715,142.1032 339.5715,150.6782 C339.5715,156.7272 343.0345,161.9652 348.0845,164.5262 L348.0845,157.6882 L348.0845,154.7832 Z" id="Fill-37" fill="#00D1FF" mask="url(#mask-2)"></path>
                <path d="M362.106,136.8281 L362.106,143.6671 L362.106,145.3691 L362.106,157.6881 L351.69,157.6881 L351.69,165.8221 C352.786,166.0671 353.925,166.2011 355.095,166.2011 C363.669,166.2011 370.619,159.2511 370.619,150.6781 C370.619,144.6271 367.156,139.3901 362.106,136.8281" id="Fill-38" fill="#00D1FF" mask="url(#mask-2)"></path>
                <polygon id="Fill-39" fill="#00D1FF" mask="url(#mask-2)" points="351.69 154.082 358.501 154.082 358.501 147.272 351.69 147.272"></polygon>
                <path d="M306.957,171.582 C295.43,171.582 286.052,162.204 286.052,150.678 C286.052,139.15 295.43,129.772 306.957,129.772 C318.484,129.772 327.862,139.15 327.862,150.678 C327.862,162.204 318.484,171.582 306.957,171.582" id="Fill-40" fill="#FFFFFF" mask="url(#mask-2)"></path>
                <path d="M306.957,128.2724 C294.603,128.2724 284.552,138.3234 284.552,150.6774 C284.552,163.0314 294.603,173.0824 306.957,173.0824 C319.311,173.0824 329.362,163.0314 329.362,150.6774 C329.362,138.3234 319.311,128.2724 306.957,128.2724 M306.957,131.2724 C317.674,131.2724 326.362,139.9604 326.362,150.6774 C326.362,161.3944 317.674,170.0824 306.957,170.0824 C296.24,170.0824 287.552,161.3944 287.552,150.6774 C287.552,139.9604 296.24,131.2724 306.957,131.2724" id="Fill-41" fill="#DDE6F2" mask="url(#mask-2)"></path>
                <path d="M299.9463,154.7832 L299.9463,143.6672 L310.3623,143.6672 L310.3623,135.5332 C309.2653,135.2872 308.1273,135.1532 306.9573,135.1532 C298.3833,135.1532 291.4333,142.1032 291.4333,150.6782 C291.4333,156.7272 294.8963,161.9652 299.9463,164.5262 L299.9463,157.6882 L299.9463,154.7832 Z" id="Fill-42" fill="#00D1FF" mask="url(#mask-2)"></path>
                <path d="M313.9678,136.8281 L313.9678,143.6671 L313.9678,145.3691 L313.9678,157.6881 L303.5518,157.6881 L303.5518,165.8221 C304.6478,166.0671 305.7868,166.2011 306.9568,166.2011 C315.5298,166.2011 322.4808,159.2511 322.4808,150.6781 C322.4808,144.6271 319.0178,139.3901 313.9678,136.8281" id="Fill-43" fill="#00D1FF" mask="url(#mask-2)"></path>
                <polygon id="Fill-44" fill="#00D1FF" mask="url(#mask-2)" points="303.552 154.082 310.363 154.082 310.363 147.272 303.552 147.272"></polygon>
                <path d="M258.8184,171.582 C247.2914,171.582 237.9134,162.204 237.9134,150.678 C237.9134,139.15 247.2914,129.772 258.8184,129.772 C270.3454,129.772 279.7234,139.15 279.7234,150.678 C279.7234,162.204 270.3454,171.582 258.8184,171.582" id="Fill-45" fill="#FFFFFF" mask="url(#mask-2)"></path>
                <path d="M258.8184,128.2724 C246.4644,128.2724 236.4134,138.3234 236.4134,150.6774 C236.4134,163.0314 246.4644,173.0824 258.8184,173.0824 C271.1724,173.0824 281.2234,163.0314 281.2234,150.6774 C281.2234,138.3234 271.1724,128.2724 258.8184,128.2724 M258.8184,131.2724 C269.5354,131.2724 278.2234,139.9604 278.2234,150.6774 C278.2234,161.3944 269.5354,170.0824 258.8184,170.0824 C248.1014,170.0824 239.4134,161.3944 239.4134,150.6774 C239.4134,139.9604 248.1014,131.2724 258.8184,131.2724" id="Fill-46" fill="#DDE6F2" mask="url(#mask-2)"></path>
                <path d="M251.8076,154.7832 L251.8076,143.6672 L262.2236,143.6672 L262.2236,135.5332 C261.1276,135.2872 259.9886,135.1532 258.8186,135.1532 C250.2456,135.1532 243.2946,142.1032 243.2946,150.6782 C243.2946,156.7272 246.7576,161.9652 251.8076,164.5262 L251.8076,157.6882 L251.8076,154.7832 Z" id="Fill-47" fill="#00D1FF" mask="url(#mask-2)"></path>
                <path d="M265.8291,136.8281 L265.8291,143.6671 L265.8291,145.3691 L265.8291,157.6881 L255.4131,157.6881 L255.4131,165.8221 C256.5101,166.0671 257.6481,166.2011 258.8181,166.2011 C267.3921,166.2011 274.3421,159.2511 274.3421,150.6781 C274.3421,144.6271 270.8791,139.3901 265.8291,136.8281" id="Fill-48" fill="#00D1FF" mask="url(#mask-2)"></path>
                <polygon id="Fill-49" fill="#00D1FF" mask="url(#mask-2)" points="255.413 154.082 262.224 154.082 262.224 147.272 255.413 147.272"></polygon>
                <path d="M365.5,171.832 L144.5,171.832 L144.5,213.832 L365.5,213.832 C377.098,213.832 386.5,204.43 386.5,192.832 C386.5,181.234 377.098,171.832 365.5,171.832 Z" id="Stroke-51" stroke="#DDE6F2" stroke-width="3" stroke-linejoin="round" mask="url(#mask-2)"></path>
                <path d="M381,192.832 C381,201.669 373.836,208.832 365,208.832 C356.164,208.832 349,201.669 349,192.832 C349,183.995 356.164,176.832 365,176.832 C373.836,176.832 381,183.995 381,192.832" id="Fill-52" fill="#FFFFFF" mask="url(#mask-2)"></path>
                <path d="M381,192.832 C381,201.669 373.836,208.832 365,208.832 C356.164,208.832 349,201.669 349,192.832 C349,183.995 356.164,176.832 365,176.832 C373.836,176.832 381,183.995 381,192.832 Z" id="Stroke-53" stroke="#DDE6F2" stroke-width="3" stroke-linejoin="round" mask="url(#mask-2)"></path>
                <path d="M371,192.832 C371,196.145 368.313,198.832 365,198.832 C361.687,198.832 359,196.145 359,192.832 C359,189.519 361.687,186.832 365,186.832 C368.313,186.832 371,189.519 371,192.832" id="Fill-54" fill="#F6F9FC" mask="url(#mask-2)"></path>
                <path d="M371,192.832 C371,196.145 368.313,198.832 365,198.832 C361.687,198.832 359,196.145 359,192.832 C359,189.519 361.687,186.832 365,186.832 C368.313,186.832 371,189.519 371,192.832 Z" id="Stroke-55" stroke="#DDE6F2" stroke-width="3" stroke-linejoin="round" mask="url(#mask-2)"></path>
                <path d="M345,192.582 C345,201.419 337.836,208.582 329,208.582 C320.164,208.582 313,201.419 313,192.582 C313,183.745 320.164,176.582 329,176.582 C337.836,176.582 345,183.745 345,192.582" id="Fill-56" fill="#FFFFFF" mask="url(#mask-2)"></path>
                <path d="M345,192.582 C345,201.419 337.836,208.582 329,208.582 C320.164,208.582 313,201.419 313,192.582 C313,183.745 320.164,176.582 329,176.582 C337.836,176.582 345,183.745 345,192.582 Z" id="Stroke-57" stroke="#DDE6F2" stroke-width="3" stroke-linejoin="round" mask="url(#mask-2)"></path>
                <path d="M309,192.332 C309,201.169 301.836,208.332 293,208.332 C284.164,208.332 277,201.169 277,192.332 C277,183.495 284.164,176.332 293,176.332 C301.836,176.332 309,183.495 309,192.332" id="Fill-58" fill="#FFFFFF" mask="url(#mask-2)"></path>
                <path d="M309,192.332 C309,201.169 301.836,208.332 293,208.332 C284.164,208.332 277,201.169 277,192.332 C277,183.495 284.164,176.332 293,176.332 C301.836,176.332 309,183.495 309,192.332 Z" id="Stroke-59" stroke="#DDE6F2" stroke-width="3" stroke-linejoin="round" mask="url(#mask-2)"></path>
                <path d="M273,192.082 C273,200.919 265.836,208.082 257,208.082 C248.164,208.082 241,200.919 241,192.082 C241,183.245 248.164,176.082 257,176.082 C265.836,176.082 273,183.245 273,192.082" id="Fill-60" fill="#FFFFFF" mask="url(#mask-2)"></path>
                <path d="M273,192.082 C273,200.919 265.836,208.082 257,208.082 C248.164,208.082 241,200.919 241,192.082 C241,183.245 248.164,176.082 257,176.082 C265.836,176.082 273,183.245 273,192.082 Z" id="Stroke-61" stroke="#DDE6F2" stroke-width="3" stroke-linejoin="round" mask="url(#mask-2)"></path>
                <path d="M263,192.082 C263,195.395 260.313,198.082 257,198.082 C253.687,198.082 251,195.395 251,192.082 C251,188.769 253.687,186.082 257,186.082 C260.313,186.082 263,188.769 263,192.082" id="Fill-62" fill="#F6F9FC" mask="url(#mask-2)"></path>
                <path d="M263,192.082 C263,195.395 260.313,198.082 257,198.082 C253.687,198.082 251,195.395 251,192.082 C251,188.769 253.687,186.082 257,186.082 C260.313,186.082 263,188.769 263,192.082 Z" id="Stroke-63" stroke="#DDE6F2" stroke-width="3" stroke-linejoin="round" mask="url(#mask-2)"></path>
                <path d="M234.0605,98.414 L144.9395,98.414 C132.3725,98.414 122.1855,108.602 122.1855,121.169 L122.1855,191.328 C122.1855,203.894 132.3725,214.082 144.9395,214.082 L234.0605,214.082 C246.6275,214.082 256.8145,203.894 256.8145,191.328 L256.8145,121.169 C256.8145,108.602 246.6275,98.414 234.0605,98.414" id="Fill-64" fill="#FFFFFF" mask="url(#mask-2)"></path>
                <path d="M234.0605,98.414 L144.9395,98.414 C132.3725,98.414 122.1855,108.602 122.1855,121.169 L122.1855,191.328 C122.1855,203.894 132.3725,214.082 144.9395,214.082 L234.0605,214.082 C246.6275,214.082 256.8145,203.894 256.8145,191.328 L256.8145,121.169 C256.8145,108.602 246.6275,98.414 234.0605,98.414 Z" id="Stroke-65" stroke="#398EFF" stroke-width="3" stroke-linejoin="round" mask="url(#mask-2)"></path>
                <path d="M229.9712,87.9853 L149.0292,87.9853 C145.7232,87.9853 143.0432,90.6653 143.0432,93.9703 L143.0432,98.4143 L235.9562,98.4143 L235.9562,93.9703 C235.9562,90.6653 233.2772,87.9853 229.9712,87.9853" id="Fill-66" fill="#FFFFFF" mask="url(#mask-2)"></path>
                <path d="M229.9712,87.9853 L149.0292,87.9853 C145.7232,87.9853 143.0432,90.6653 143.0432,93.9703 L143.0432,98.4143 L235.9562,98.4143 L235.9562,93.9703 C235.9562,90.6653 233.2772,87.9853 229.9712,87.9853 Z" id="Stroke-67" stroke="#398EFF" stroke-width="3" stroke-linejoin="round" mask="url(#mask-2)"></path>
                <path d="M215.7368,75.2841 C196.9668,78.7991 178.1968,78.7991 159.4278,75.2841 C153.5098,74.0751 146.8198,67.8391 145.3178,61.9021 C141.7318,46.6071 141.7318,31.3121 145.3178,16.0171 C146.8198,10.0821 153.5098,3.8461 159.4278,2.6371 C178.1968,-0.8779 196.9668,-0.8779 215.7368,2.6371 C221.6548,3.8461 228.3448,10.0811 229.8468,16.0171 C233.4318,31.3121 233.4318,46.6071 229.8468,61.9021 C228.3448,67.8391 221.6538,74.0751 215.7368,75.2841" id="Fill-68" fill="#398EFF" mask="url(#mask-2)"></path>
                <path d="M227.9136,55.7461 L245.6326,69.0351 C250.0346,72.3361 256.3156,69.1951 256.3156,63.6931 L256.3156,14.2261 C256.3156,8.7251 250.0346,5.5841 245.6326,8.8861 L227.9136,22.1751" id="Fill-69" fill="#398EFF" mask="url(#mask-2)"></path>
                <path d="M184.2588,20.1416 L206.2148,33.4266 C210.3738,35.9436 210.3738,41.9766 206.2148,44.4936 L184.2588,57.7786 C179.9488,60.3866 174.4438,57.2836 174.4438,52.2456 L174.4438,25.6746 C174.4438,20.6376 179.9488,17.5346 184.2588,20.1416" id="Fill-70" fill="#FFFFFF" mask="url(#mask-2)"></path>
                <path d="M160.5,185.082 L160.5,185.082 C163.261,185.082 165.5,182.844 165.5,180.082 L165.5,131.082 C165.5,128.32 163.261,126.082 160.5,126.082 C157.739,126.082 155.5,128.32 155.5,131.082 L155.5,180.082 C155.5,182.844 157.739,185.082 160.5,185.082" id="Fill-71" fill="#398EFF" mask="url(#mask-2)"></path>
                <path d="M160.6753,152.582 L160.6753,152.582 C159.1053,152.582 157.7393,151.508 157.3693,149.982 L150.0003,119.582 L157.0003,119.582 L163.9813,148.379 C164.5003,150.52 162.8783,152.582 160.6753,152.582" id="Fill-72" fill="#FFFFFF" mask="url(#mask-2)"></path>
                <path d="M160.6753,152.582 L160.6753,152.582 C159.1053,152.582 157.7393,151.508 157.3693,149.982 L150.0003,119.582 L157.0003,119.582 L163.9813,148.379 C164.5003,150.52 162.8783,152.582 160.6753,152.582 Z" id="Stroke-73" stroke="#398EFF" stroke-width="3" stroke-linejoin="round" mask="url(#mask-2)"></path>
                <path d="M161.25,121.332 C161.25,126.44 157.108,130.582 152,130.582 C146.892,130.582 142.75,126.44 142.75,121.332 C142.75,116.224 146.892,112.082 152,112.082 C157.108,112.082 161.25,116.224 161.25,121.332" id="Fill-74" fill="#FFFFFF" mask="url(#mask-2)"></path>
                <path d="M161.25,121.332 C161.25,126.44 157.108,130.582 152,130.582 C146.892,130.582 142.75,126.44 142.75,121.332 C142.75,116.224 146.892,112.082 152,112.082 C157.108,112.082 161.25,116.224 161.25,121.332 Z" id="Stroke-75" stroke="#398EFF" stroke-width="3" stroke-linejoin="round" mask="url(#mask-2)"></path>
                <path d="M224.5,185.082 L224.5,185.082 C227.261,185.082 229.5,182.844 229.5,180.082 L229.5,131.082 C229.5,128.32 227.261,126.082 224.5,126.082 C221.739,126.082 219.5,128.32 219.5,131.082 L219.5,180.082 C219.5,182.844 221.739,185.082 224.5,185.082" id="Fill-76" fill="#398EFF" mask="url(#mask-2)"></path>
                <path d="M224.6753,152.582 L224.6753,152.582 C223.1053,152.582 221.7393,151.508 221.3693,149.982 L214.0003,119.582 L221.0003,119.582 L227.9813,148.379 C228.5003,150.52 226.8783,152.582 224.6753,152.582" id="Fill-77" fill="#FFFFFF" mask="url(#mask-2)"></path>
                <path d="M224.6753,152.582 L224.6753,152.582 C223.1053,152.582 221.7393,151.508 221.3693,149.982 L214.0003,119.582 L221.0003,119.582 L227.9813,148.379 C228.5003,150.52 226.8783,152.582 224.6753,152.582 Z" id="Stroke-78" stroke="#398EFF" stroke-width="3" stroke-linejoin="round" mask="url(#mask-2)"></path>
                <path d="M225.25,121.332 C225.25,126.44 221.108,130.582 216,130.582 C210.892,130.582 206.75,126.44 206.75,121.332 C206.75,116.224 210.892,112.082 216,112.082 C221.108,112.082 225.25,116.224 225.25,121.332" id="Fill-79" fill="#FFFFFF" mask="url(#mask-2)"></path>
                <path d="M225.25,121.332 C225.25,126.44 221.108,130.582 216,130.582 C210.892,130.582 206.75,126.44 206.75,121.332 C206.75,116.224 210.892,112.082 216,112.082 C221.108,112.082 225.25,116.224 225.25,121.332 Z" id="Stroke-80" stroke="#398EFF" stroke-width="3" stroke-linejoin="round" mask="url(#mask-2)"></path>
                <path d="M192.5,126.082 L192.5,126.082 C195.261,126.082 197.5,128.32 197.5,131.082 L197.5,180.082 C197.5,182.844 195.261,185.082 192.5,185.082 C189.739,185.082 187.5,182.844 187.5,180.082 L187.5,131.082 C187.5,128.32 189.739,126.082 192.5,126.082" id="Fill-81" fill="#398EFF" mask="url(#mask-2)"></path>
                <path d="M192.6753,158.582 L192.6753,158.582 C191.1053,158.582 189.7393,159.656 189.3693,161.182 L182.0003,191.582 L189.0003,191.582 L195.9813,162.785 C196.5003,160.644 194.8783,158.582 192.6753,158.582" id="Fill-82" fill="#FFFFFF" mask="url(#mask-2)"></path>
                <path d="M192.6753,158.582 L192.6753,158.582 C191.1053,158.582 189.7393,159.656 189.3693,161.182 L182.0003,191.582 L189.0003,191.582 L195.9813,162.785 C196.5003,160.644 194.8783,158.582 192.6753,158.582 Z" id="Stroke-83" stroke="#398EFF" stroke-width="3" stroke-linejoin="round" mask="url(#mask-2)"></path>
                <path d="M193.25,189.832 C193.25,184.724 189.108,180.582 184,180.582 C178.892,180.582 174.75,184.724 174.75,189.832 C174.75,194.94 178.892,199.082 184,199.082 C189.108,199.082 193.25,194.94 193.25,189.832" id="Fill-84" fill="#FFFFFF" mask="url(#mask-2)"></path>
                <path d="M193.25,189.832 C193.25,184.724 189.108,180.582 184,180.582 C178.892,180.582 174.75,184.724 174.75,189.832 C174.75,194.94 178.892,199.082 184,199.082 C189.108,199.082 193.25,194.94 193.25,189.832 Z" id="Stroke-85" stroke="#398EFF" stroke-width="3" stroke-linejoin="round" mask="url(#mask-2)"></path>
                <path d="M335,192.582 C335,195.895 332.313,198.582 329,198.582 C325.687,198.582 323,195.895 323,192.582 C323,189.269 325.687,186.582 329,186.582 C332.313,186.582 335,189.269 335,192.582" id="Fill-86" fill="#F6F9FC" mask="url(#mask-2)"></path>
                <path d="M335,192.582 C335,195.895 332.313,198.582 329,198.582 C325.687,198.582 323,195.895 323,192.582 C323,189.269 325.687,186.582 329,186.582 C332.313,186.582 335,189.269 335,192.582 Z" id="Stroke-87" stroke="#DDE6F2" stroke-width="3" stroke-linejoin="round" mask="url(#mask-2)"></path>
                <path d="M299,192.332 C299,195.645 296.313,198.332 293,198.332 C289.687,198.332 287,195.645 287,192.332 C287,189.019 289.687,186.332 293,186.332 C296.313,186.332 299,189.019 299,192.332" id="Fill-88" fill="#F6F9FC" mask="url(#mask-2)"></path>
                <path d="M299,192.332 C299,195.645 296.313,198.332 293,198.332 C289.687,198.332 287,195.645 287,192.332 C287,189.019 289.687,186.332 293,186.332 C296.313,186.332 299,189.019 299,192.332 Z" id="Stroke-89" stroke="#DDE6F2" stroke-width="3" stroke-linejoin="round" mask="url(#mask-2)"></path>
                <path d="M79.1528,121.7724 C78.0118,120.9324 76.2868,120.3034 74.9808,120.3034 L74.7478,120.3034 C73.6978,120.3034 73.3488,120.7004 73.3488,121.1194 L73.3488,121.1664 C73.3488,121.7244 73.9308,122.0044 75.5868,122.3544 C79.2928,123.3574 81.4608,124.5694 81.4608,127.5764 L81.4608,127.6684 C81.4608,130.4654 79.4338,132.2844 76.4248,132.6804 L76.4248,135.0824 L73.8388,135.0824 L73.8388,132.7044 C71.7178,132.4714 69.5728,131.7024 67.9418,130.4904 L70.0628,126.9944 C71.9268,128.2754 73.7228,128.8344 75.1668,128.8344 L75.4008,128.8344 C76.4958,128.8344 76.9148,128.4854 76.9148,127.9964 L76.9148,127.9494 C76.9148,127.3894 76.3098,127.1324 74.5388,126.7594 C70.9018,125.7574 68.7348,124.5224 68.7348,121.5854 L68.7348,121.4924 C68.7348,118.7644 70.5758,116.8064 73.8858,116.4574 L73.8858,114.9424 L76.4958,114.9424 L76.4958,116.4804 C78.3368,116.7134 79.9238,117.3664 81.2048,118.2524 L79.1528,121.7724 Z" id="Fill-90" fill="#FFFFFF" mask="url(#mask-2)"></path>
            </g>
        </g>
    </g>
</svg>