<?xml version="1.0" encoding="UTF-8"?>
<svg width="338px" height="275px" viewBox="0 0 338 275" version="1.1" xmlns="http://www.w3.org/2000/svg" xmlns:xlink="http://www.w3.org/1999/xlink">
    <!-- Generator: Sketch 47.1 (45422) - http://www.bohemiancoding.com/sketch -->
    <title>index/props_index/how_it_works/illustration_1</title>
    <desc>Created with Sketch.</desc>
    <defs>
        <polygon id="path-1" points="315.482325 -1.42108547e-14 315.482325 15.2777778 0.0505949333 15.2777778 0.0505949333 -1.43966175e-15 315.482325 -1.43966175e-15"></polygon>
    </defs>
    <g id="Page-1" stroke="none" stroke-width="1" fill="none" fill-rule="evenodd">
        <g id="coinlist-website-WIP" transform="translate(-830.000000, -2237.000000)">
            <g id="index/props_index/how_it_works/illustration_1" transform="translate(831.000000, 2237.000000)">
                <path d="M275.491928,259.722222 L98.4545949,259.722222 C94.2533283,259.722222 90.8159283,256.284722 90.8159283,252.083333 C90.8159283,247.881944 94.2533283,244.444444 98.4545949,244.444444 L275.491928,244.444444 C279.693195,244.444444 283.130595,247.881944 283.130595,252.083333 C283.130595,256.284722 279.693195,259.722222 275.491928,259.722222" id="Fill-1" fill="#DDE6F2"></path>
                <g id="Group-5" transform="translate(20.669333, 234.558824)">
                    <mask id="mask-2" fill="white">
                        <use xlink:href="#path-1"></use>
                    </mask>
                    <g id="Clip-4"></g>
                    <path d="M307.843928,15.2777778 L7.6892616,15.2777778 C3.48799493,15.2777778 0.0505949333,11.8402778 0.0505949333,7.63888889 C0.0505949333,3.4375 3.48799493,0 7.6892616,0 L307.843928,0 C312.045195,0 315.482595,3.4375 315.482595,7.63888889 C315.482595,11.8402778 312.045195,15.2777778 307.843928,15.2777778" id="Fill-3" fill="#DDE6F2" mask="url(#mask-2)"></path>
                </g>
                <path d="M186.525636,275 L116.427838,275 C112.226572,275 108.789172,271.5625 108.789172,267.361111 L108.789172,258.374183 C108.789172,254.172794 112.226572,250.735294 116.427838,250.735294 L186.525636,250.735294 C190.726902,250.735294 194.164302,254.172794 194.164302,258.374183 L194.164302,267.361111 C194.164302,271.5625 190.726902,275 186.525636,275" id="Fill-6" fill="#DDE6F2"></path>
                <path d="M82.8780056,198.459322 L49.3478536,231.990449 C45.8592296,235.479175 40.2012243,235.479175 36.7117016,231.990449 L2.98564027,198.262508 C-0.3960424,194.881626 -0.3960424,189.3996 2.98564027,186.018717 L36.7117016,152.291675 C40.2012243,148.802051 45.8592296,148.802051 49.3478536,152.291675 L82.8780056,185.821904 C86.3675283,189.311528 86.3675283,194.969698 82.8780056,198.459322" id="Fill-8" fill="#FFFFFF"></path>
                <path d="M82.8780056,198.459322 L49.3478536,231.990449 C45.8592296,235.479175 40.2012243,235.479175 36.7117016,231.990449 L2.98564027,198.262508 C-0.3960424,194.881626 -0.3960424,189.3996 2.98564027,186.018717 L36.7117016,152.291675 C40.2012243,148.802051 45.8592296,148.802051 49.3478536,152.291675 L82.8780056,185.821904 C86.3675283,189.311528 86.3675283,194.969698 82.8780056,198.459322 Z" id="Stroke-10" stroke="#DDE6F2" stroke-width="2.69999993" stroke-linejoin="round"></path>
                <path d="M32.3253096,187.8321 L46.0272803,184.461103 C48.6226296,183.822132 50.9681496,186.167721 50.3300963,188.764044 L46.9582989,202.465515 C46.2968803,205.155302 42.9493469,206.089044 40.9911523,204.130792 L30.6600803,193.800319 C28.7018856,191.841168 29.6356003,188.494436 32.3253096,187.8321" id="Fill-12" fill="#DDE6F2"></path>
                <path d="M116.165518,233.997141 L68.7464723,233.997141 C63.8118936,233.997141 59.8119283,229.997059 59.8119283,225.062337 L59.8119283,177.363317 C59.8119283,172.582271 63.6878776,168.707108 68.4687843,168.707108 L116.165518,168.707108 C121.100096,168.707108 125.10096,172.70719 125.10096,177.641912 L125.10096,225.062337 C125.10096,229.997059 121.100096,233.997141 116.165518,233.997141" id="Fill-14" fill="#FFFFFF"></path>
                <path d="M116.165518,233.997141 L68.7464723,233.997141 C63.8118936,233.997141 59.8119283,229.997059 59.8119283,225.062337 L59.8119283,177.363317 C59.8119283,172.582271 63.6878776,168.707108 68.4687843,168.707108 L116.165518,168.707108 C121.100096,168.707108 125.10096,172.70719 125.10096,177.641912 L125.10096,225.062337 C125.10096,229.997059 121.100096,233.997141 116.165518,233.997141 Z" id="Stroke-16" stroke="#DDE6F2" stroke-width="2.69999993" stroke-linejoin="round"></path>
                <path d="M125.10123,112.711356 L125.10123,160.131781 C125.10123,165.066503 121.100366,169.067484 116.165787,169.067484 L68.4681552,169.067484 C63.6872485,169.067484 59.8121979,165.191422 59.8121979,160.409477 L59.8121979,112.711356 C59.8121979,107.776634 63.8121632,103.776552 68.7467419,103.776552 L116.165787,103.776552 C121.100366,103.776552 125.10123,107.776634 125.10123,112.711356" id="Fill-18" fill="#FFFFFF"></path>
                <path d="M125.10123,112.711356 L125.10123,160.131781 C125.10123,165.066503 121.100366,169.067484 116.165787,169.067484 L68.4681552,169.067484 C63.6872485,169.067484 59.8121979,165.191422 59.8121979,160.409477 L59.8121979,112.711356 C59.8121979,107.776634 63.8121632,103.776552 68.7467419,103.776552 L116.165787,103.776552 C121.100366,103.776552 125.10123,107.776634 125.10123,112.711356 Z" id="Stroke-20" stroke="#DDE6F2" stroke-width="2.69999993" stroke-linejoin="round"></path>
                <path d="M81.8415733,140.94469 L89.145936,128.87165 C90.5298827,126.584477 93.8468613,126.584477 95.2299093,128.87165 L102.535171,140.94469 C103.969443,143.314542 102.262875,146.34134 99.493184,146.34134 L84.88356,146.34134 C82.1138693,146.34134 80.4073013,143.314542 81.8415733,140.94469" id="Fill-22" fill="#DDE6F2"></path>
                <path d="M87.9339043,190.736136 L100.006592,198.041609 C102.293699,199.424698 102.293699,202.741773 100.006592,204.12576 L87.9339043,211.430335 C85.5632216,212.864649 82.5365123,211.15893 82.5365123,208.389158 L82.5365123,193.779109 C82.5365123,191.009338 85.5632216,189.301822 87.9339043,190.736136" id="Fill-24" fill="#DDE6F2"></path>
                <path d="M314.949865,233.997141 L267.53082,233.997141 C262.596241,233.997141 258.596276,229.997059 258.596276,225.062337 L258.596276,177.363317 C258.596276,172.582271 262.471327,168.707108 267.253132,168.707108 L314.949865,168.707108 C319.884444,168.707108 323.884409,172.70719 323.884409,177.641912 L323.884409,225.062337 C323.884409,229.997059 319.884444,233.997141 314.949865,233.997141" id="Fill-26" fill="#FFFFFF"></path>
                <path d="M314.949865,233.997141 L267.53082,233.997141 C262.596241,233.997141 258.596276,229.997059 258.596276,225.062337 L258.596276,177.363317 C258.596276,172.582271 262.471327,168.707108 267.253132,168.707108 L314.949865,168.707108 C319.884444,168.707108 323.884409,172.70719 323.884409,177.641912 L323.884409,225.062337 C323.884409,229.997059 319.884444,233.997141 314.949865,233.997141 Z" id="Stroke-28" stroke="#DDE6F2" stroke-width="2.69999993" stroke-linejoin="round"></path>
                <path d="M314.949865,169.067484 L267.53082,169.067484 C262.596241,169.067484 258.596276,165.066503 258.596276,160.131781 L258.596276,112.432761 C258.596276,107.651716 262.471327,103.776552 267.253132,103.776552 L314.949865,103.776552 C319.884444,103.776552 323.884409,107.776634 323.884409,112.711356 L323.884409,160.131781 C323.884409,165.066503 319.884444,169.067484 314.949865,169.067484" id="Fill-30" fill="#FFFFFF"></path>
                <path d="M314.949865,169.067484 L267.53082,169.067484 C262.596241,169.067484 258.596276,165.066503 258.596276,160.131781 L258.596276,112.432761 C258.596276,107.651716 262.471327,103.776552 267.253132,103.776552 L314.949865,103.776552 C319.884444,103.776552 323.884409,107.776634 323.884409,112.711356 L323.884409,160.131781 C323.884409,165.066503 319.884444,169.067484 314.949865,169.067484 Z" id="Stroke-32" stroke="#DDE6F2" stroke-width="2.69999993" stroke-linejoin="round"></path>
                <path d="M157.678795,184.938578 L110.25975,184.938578 C105.325171,184.938578 101.325206,180.938497 101.325206,176.003775 L101.325206,128.304755 C101.325206,123.523709 105.201155,119.648546 109.982062,119.648546 L157.678795,119.648546 C162.613374,119.648546 166.613339,123.648627 166.613339,128.58335 L166.613339,176.003775 C166.613339,180.938497 162.613374,184.938578 157.678795,184.938578" id="Fill-34" fill="#398EFF"></path>
                <path d="M157.678795,184.938578 L110.25975,184.938578 C105.325171,184.938578 101.325206,180.938497 101.325206,176.003775 L101.325206,128.304755 C101.325206,123.523709 105.201155,119.648546 109.982062,119.648546 L157.678795,119.648546 C162.613374,119.648546 166.613339,123.648627 166.613339,128.58335 L166.613339,176.003775 C166.613339,180.938497 162.613374,184.938578 157.678795,184.938578 Z" id="Stroke-36" stroke="#398EFF" stroke-width="2.69999993" stroke-linejoin="round"></path>
                <path d="M157.678795,250.590515 L110.25975,250.590515 C105.325171,250.590515 101.325206,246.590433 101.325206,241.655711 L101.325206,193.956691 C101.325206,189.175645 105.201155,185.299583 109.982062,185.299583 L157.678795,185.299583 C162.613374,185.299583 166.613339,189.300564 166.613339,194.235286 L166.613339,241.655711 C166.613339,246.590433 162.613374,250.590515 157.678795,250.590515" id="Fill-38" fill="#398EFF"></path>
                <path d="M157.678795,250.590515 L110.25975,250.590515 C105.325171,250.590515 101.325206,246.590433 101.325206,241.655711 L101.325206,193.956691 C101.325206,189.175645 105.201155,185.299583 109.982062,185.299583 L157.678795,185.299583 C162.613374,185.299583 166.613339,189.300564 166.613339,194.235286 L166.613339,241.655711 C166.613339,246.590433 162.613374,250.590515 157.678795,250.590515 Z" id="Stroke-40" stroke="#398EFF" stroke-width="2.69999993" stroke-linejoin="round"></path>
                <path d="M261.203667,250.590515 L148.49559,250.590515 C143.561011,250.590515 139.561046,246.590433 139.561046,241.655711 L139.561046,193.956691 C139.561046,189.175645 143.436097,185.299583 148.217003,185.299583 L261.203667,185.299583 C266.138246,185.299583 270.138211,189.300564 270.138211,194.235286 L270.138211,241.655711 C270.138211,246.590433 266.138246,250.590515 261.203667,250.590515" id="Fill-42" fill="#FFFFFF"></path>
                <path d="M261.203667,250.590515 L148.49559,250.590515 C143.561011,250.590515 139.561046,246.590433 139.561046,241.655711 L139.561046,193.956691 C139.561046,189.175645 143.436097,185.299583 148.217003,185.299583 L261.203667,185.299583 C266.138246,185.299583 270.138211,189.300564 270.138211,194.235286 L270.138211,241.655711 C270.138211,246.590433 266.138246,250.590515 261.203667,250.590515 Z" id="Stroke-44" stroke="#398EFF" stroke-width="2.69999993" stroke-linejoin="round"></path>
                <path d="M195.914276,184.938578 L148.495231,184.938578 C143.560652,184.938578 139.560687,180.938497 139.560687,176.003775 L139.560687,128.304755 C139.560687,123.523709 143.435737,119.648546 148.217543,119.648546 L195.914276,119.648546 C200.848855,119.648546 204.849719,123.648627 204.849719,128.58335 L204.849719,176.003775 C204.849719,180.938497 200.848855,184.938578 195.914276,184.938578" id="Fill-46" fill="#FFFFFF"></path>
                <path d="M195.914276,184.938578 L148.495231,184.938578 C143.560652,184.938578 139.560687,180.938497 139.560687,176.003775 L139.560687,128.304755 C139.560687,123.523709 143.435737,119.648546 148.217543,119.648546 L195.914276,119.648546 C200.848855,119.648546 204.849719,123.648627 204.849719,128.58335 L204.849719,176.003775 C204.849719,180.938497 200.848855,184.938578 195.914276,184.938578 Z" id="Stroke-48" stroke="#398EFF" stroke-width="2.69999993" stroke-linejoin="round"></path>
                <path d="M147.57931,118.56607 L100.160264,118.56607 C95.2256856,118.56607 91.2248216,114.56509 91.2248216,109.630368 L91.2248216,61.9322467 C91.2248216,57.151201 95.1016696,53.2751389 99.8825763,53.2751389 L147.57931,53.2751389 C152.513888,53.2751389 156.513854,57.2752206 156.513854,62.2099428 L156.513854,109.630368 C156.513854,114.56509 152.513888,118.56607 147.57931,118.56607" id="Fill-50" fill="#398EFF"></path>
                <path d="M147.57931,118.56607 L100.160264,118.56607 C95.2256856,118.56607 91.2248216,114.56509 91.2248216,109.630368 L91.2248216,61.9322467 C91.2248216,57.151201 95.1016696,53.2751389 99.8825763,53.2751389 L147.57931,53.2751389 C152.513888,53.2751389 156.513854,57.2752206 156.513854,62.2099428 L156.513854,109.630368 C156.513854,114.56509 152.513888,118.56607 147.57931,118.56607 Z" id="Stroke-52" stroke="#398EFF" stroke-width="2.69999993" stroke-linejoin="round"></path>
                <path d="M163.449943,118.56607 L116.030897,118.56607 C111.096319,118.56607 107.096353,114.56509 107.096353,109.630368 L107.096353,61.9322467 C107.096353,57.151201 110.972303,53.2751389 115.754108,53.2751389 L163.449943,53.2751389 C168.384521,53.2751389 172.385385,57.2752206 172.385385,62.2099428 L172.385385,109.630368 C172.385385,114.56509 168.384521,118.56607 163.449943,118.56607" id="Fill-54" fill="#FFFFFF"></path>
                <path d="M163.449943,118.56607 L116.030897,118.56607 C111.096319,118.56607 107.096353,114.56509 107.096353,109.630368 L107.096353,61.9322467 C107.096353,57.151201 110.972303,53.2751389 115.754108,53.2751389 L163.449943,53.2751389 C168.384521,53.2751389 172.385385,57.2752206 172.385385,62.2099428 L172.385385,109.630368 C172.385385,114.56509 168.384521,118.56607 163.449943,118.56607 Z" id="Stroke-56" stroke="#398EFF" stroke-width="2.69999993" stroke-linejoin="round"></path>
                <path d="M177.157215,266.462418 L129.73817,266.462418 C124.803591,266.462418 120.803626,262.462337 120.803626,257.527614 L120.803626,209.828595 C120.803626,205.047549 124.678677,201.171487 129.460482,201.171487 L177.157215,201.171487 C182.091794,201.171487 186.092658,205.172467 186.092658,210.10719 L186.092658,257.527614 C186.092658,262.462337 182.091794,266.462418 177.157215,266.462418" id="Fill-58" fill="#FFFFFF"></path>
                <path d="M177.157215,266.462418 L129.73817,266.462418 C124.803591,266.462418 120.803626,262.462337 120.803626,257.527614 L120.803626,209.828595 C120.803626,205.047549 124.678677,201.171487 129.460482,201.171487 L177.157215,201.171487 C182.091794,201.171487 186.092658,205.172467 186.092658,210.10719 L186.092658,257.527614 C186.092658,262.462337 182.091794,266.462418 177.157215,266.462418 Z" id="Stroke-60" stroke="#398EFF" stroke-width="2.69999993" stroke-linejoin="round"></path>
                <polygon id="Stroke-62" stroke="#FFBC00" stroke-width="12.5999997" stroke-linejoin="round" points="301.52073 131.597925 301.52073 89.6622222 258.957181 72.3021732 216.391834 89.6622222 216.391834 131.597925 258.957181 148.957974"></polygon>
                <path d="M282.485532,173.395948 L235.066487,173.395948 C230.131908,173.395948 226.131943,169.395866 226.131943,164.461144 L226.131943,116.762124 C226.131943,111.981078 230.006993,108.105016 234.788799,108.105016 L282.485532,108.105016 C287.420111,108.105016 291.420076,112.105997 291.420076,117.040719 L291.420076,164.461144 C291.420076,169.395866 287.420111,173.395948 282.485532,173.395948" id="Fill-64" fill="#FFFFFF"></path>
                <path d="M282.485532,173.395948 L235.066487,173.395948 C230.131908,173.395948 226.131943,169.395866 226.131943,164.461144 L226.131943,116.762124 C226.131943,111.981078 230.006993,108.105016 234.788799,108.105016 L282.485532,108.105016 C287.420111,108.105016 291.420076,112.105997 291.420076,117.040719 L291.420076,164.461144 C291.420076,169.395866 287.420111,173.395948 282.485532,173.395948 Z" id="Stroke-66" stroke="#398EFF" stroke-width="2.69999993" stroke-linejoin="round"></path>
                <path d="M257.099996,130.105106 L270.048884,137.940809 C272.502244,139.424551 272.502244,142.982475 270.048884,144.466217 L257.099996,152.30192 C254.557668,153.840482 251.311684,152.009845 251.311684,149.038766 L251.311684,133.36826 C251.311684,130.397181 254.557668,128.566544 257.099996,130.105106" id="Fill-68" fill="#398EFF"></path>
                <path d="M258.957001,65.5396895 L258.957001,134.077598" id="Stroke-70" stroke="#FFBC00" stroke-width="12.5999997" stroke-linejoin="round"></path>
                <path d="M258.957001,80.6902124 L258.957001,102.333431" id="Stroke-72" stroke="#FF8022" stroke-width="12.5999997" stroke-linejoin="round"></path>
                <path d="M258.957001,0 L258.957001,59.7684641" id="Stroke-74" stroke="#398EFF" stroke-width="12.5999997" stroke-linejoin="round"></path>
                <path d="M264.676295,74.1966176 L253.237167,74.1966176 C249.62273,74.1966176 246.692178,71.2668791 246.692178,67.6523366 L246.692178,58.3760294 C246.692178,54.7623856 249.62273,51.8317484 253.237167,51.8317484 L264.676295,51.8317484 C268.290733,51.8317484 271.220386,54.7623856 271.220386,58.3760294 L271.220386,67.6523366 C271.220386,71.2668791 268.290733,74.1966176 264.676295,74.1966176" id="Fill-76" fill="#FFBC00"></path>
                <path d="M172.011001,143.121234 L184.083689,150.425809 C186.370795,151.809796 186.370795,155.126871 184.083689,156.509959 L172.011001,163.815433 C169.641217,165.249747 166.613609,163.543129 166.613609,160.773358 L166.613609,146.163309 C166.613609,143.393538 169.641217,141.68692 172.011001,143.121234" id="Fill-78" fill="#398EFF"></path>
                <path d="M148.925602,223.922884 L160.99829,231.227459 C163.285397,232.611446 163.285397,235.928521 160.99829,237.312508 L148.925602,244.617083 C146.554919,246.051397 143.52821,244.345678 143.52821,241.575008 L143.52821,226.965858 C143.52821,224.195188 146.554919,222.48857 148.925602,223.922884" id="Fill-80" fill="#FFBC00"></path>
                <path d="M137.382498,75.3050654 L149.455186,82.6096405 C151.742293,83.9936275 151.742293,87.3107026 149.455186,88.6946895 L137.382498,95.9992647 C135.012714,97.4335784 131.986005,95.7269608 131.986005,92.9571895 L131.986005,78.3471405 C131.986005,75.5773693 135.012714,73.8707516 137.382498,75.3050654" id="Fill-82" fill="#22E5FF"></path>
                <path d="M288.160163,190.736136 L300.233749,198.041609 C302.519957,199.424698 302.519957,202.741773 300.233749,204.12576 L288.160163,211.430335 C285.790379,212.864649 282.763669,211.15893 282.763669,208.389158 L282.763669,193.779109 C282.763669,191.009338 285.790379,189.301822 288.160163,190.736136" id="Fill-84" fill="#DDE6F2"></path>
                <path d="M205.196694,207.32951 L217.269382,214.634085 C219.556489,216.018072 219.556489,219.335147 217.269382,220.719134 L205.196694,228.023709 C202.826011,229.458023 199.799302,227.752304 199.799302,224.982533 L199.799302,210.372484 C199.799302,207.602712 202.826011,205.895196 205.196694,207.32951" id="Fill-86" fill="#22E5FF"></path>
                <path d="M106.093262,60.2124183 C106.093262,60.2124183 106.991928,55.7189542 110.586595,54.8202614 L96.9376456,54.8202614 C96.9376456,54.8202614 93.5119283,55.7189542 93.1938003,60.2124183 L106.093262,60.2124183 Z" id="Fill-88" fill="#22E5FF"></path>
                <path d="M135.749262,126.715686 C135.749262,126.715686 136.647928,122.222222 140.242595,121.323529 L107.721646,121.323529 C107.721646,121.323529 104.295928,122.222222 103.9778,126.715686 L135.749262,126.715686 Z" id="Fill-90" fill="#22E5FF"></path>
                <path d="M135.749262,192.320261 C135.749262,192.320261 136.647928,187.826797 140.242595,186.928105 L107.721646,186.928105 C107.721646,186.928105 104.295928,187.826797 103.9778,192.320261 L135.749262,192.320261 Z" id="Fill-92" fill="#22E5FF"></path>
            </g>
        </g>
    </g>
</svg>