<svg xmlns="http://www.w3.org/2000/svg" width="386" height="60" viewBox="0 0 386 60">
  <g fill="none" fill-rule="evenodd">
    <path fill="#FFF" d="M193.196481 12.4926686C193.196481 11.812434 193.747214 11.2609971 194.428152 11.2609971L199.145455 11.2609971C199.826393 11.2609971 200.377126 11.812434 200.377126 12.4926686L200.377126 41.5917889C200.377126 42.2720235 200.929619 42.8234604 201.608798 42.8234604L229.476246 42.8234604C230.554839 42.8234604 231.11261 44.111085 230.375367 44.8975953L226.808798 48.7017009C226.57654 48.9499707 226.251026 49.0909091 225.909677 49.0909091L200.377126 49.0909091 194.428152 49.0909091C193.747214 49.0909091 193.196481 48.5394721 193.196481 47.8592375L193.196481 12.4926686zM119.141525 33.8368328L103.547683 33.8368328C103.546628 33.8368328 103.545748 33.8359531 103.545748 33.8348974 103.545748 33.8338416 103.544868 33.8329619 103.543812 33.8329619 103.442815 33.8356012 103.341642 33.8368328 103.240117 33.8368328 96.9943109 33.8368328 91.9309091 28.7831085 91.9309091 22.548915 91.9309091 16.3147918 96.9943109 11.2609971 103.240117 11.2609971 103.341642 11.2609971 103.442815 11.2623343 103.543812 11.2649912 103.544868 11.2650088 103.545748 11.2641114 103.545748 11.2629853 103.545748 11.2618944 103.546628 11.2609971 103.547683 11.2609971L127.288856 11.2609971C128.410557 11.2609971 128.94827 12.638393 128.123402 13.3984927L122.849912 18.2570674C122.622581 18.4666276 122.324692 18.5829326 122.015367 18.5829326L103.232727 18.5829326C101.042287 18.5829326 99.2665689 20.358651 99.2665689 22.548915 99.2665689 24.7393548 101.042287 26.5150733 103.232727 26.5150733L120.032023 26.5150733C120.042581 26.5150733 120.051026 26.5235191 120.051026 26.5340762 120.051026 26.5439296 120.058768 26.5521994 120.068622 26.5529032 125.877361 27.0272727 130.443343 31.8828739 130.443343 37.8029912 130.443343 44.0371848 125.379941 49.0909091 119.134135 49.0909091 118.831848 49.0909091 118.532375 49.0791202 118.23607 49.0558944 118.225865 49.0550147 118.217243 49.0631085 118.217243 49.0733138 118.217243 49.0829912 118.209326 49.0909091 118.199648 49.0909091L94.6539589 49.0909091C93.509912 49.0909091 92.9838123 47.6670968 93.8531965 46.9233431L99.5322581 42.0647507C99.7553666 41.8738416 100.039355 41.7689736 100.332845 41.7689736L108.542639 41.7689736 119.141525 41.7689736C121.331965 41.7689736 123.107683 39.9932551 123.107683 37.8029912 123.107683 35.6125513 121.331965 33.8368328 119.141525 33.8368328zM148.990909 11.2609971C148.98915 11.2609971 148.987566 11.2624927 148.987566 11.2643226 148.987566 11.2660997 148.986158 11.2675777 148.984399 11.2676481 145.347449 11.4245806 142.427155 14.3395073 142.269853 17.9695601 142.269853 17.9713196 142.26827 17.9727273 142.26651 17.9727273 142.264751 17.9727273 142.263167 17.9743109 142.263167 17.9760704L142.263167 41.7658065C142.263167 41.767566 142.264575 41.7689736 142.266334 41.7689736 142.26827 41.7689736 142.269677 41.7705572 142.269677 41.7723167 142.265279 41.872434 142.263167 41.9729032 142.263167 42.0740762 142.263167 45.8459824 145.245044 48.9228739 148.984399 49.0842229 148.986158 49.0843988 148.987566 49.0858065 148.987566 49.087566 148.987566 49.0895015 148.98915 49.0909091 148.990909 49.0909091L174.65912 49.0909091C174.661056 49.0909091 174.662463 49.0895015 174.662463 49.087566 174.662463 49.0858065 174.663871 49.0843988 174.665806 49.0842229 178.405865 48.9228739 181.38651 45.8459824 181.38651 42.0740762 181.38651 41.9729032 181.384751 41.872434 181.381232 41.7723167 181.381232 41.7705572 181.381232 41.7689736 181.382991 41.7689736 181.384751 41.7689736 181.38651 41.767566 181.38651 41.7658065L181.38651 17.9760704C181.38651 17.9743109 181.384751 17.9727273 181.382991 17.9727273 181.381232 17.9727273 181.379472 17.9713196 181.379472 17.9695601 181.222874 14.3395073 178.302053 11.4245806 174.665806 11.2676481 174.663871 11.2675777 174.662463 11.2660997 174.662463 11.2643226 174.662463 11.2624927 174.661056 11.2609971 174.65912 11.2609971L148.990909 11.2609971zM153.803754 17.9727273C153.802698 17.9727273 153.801642 17.973607 153.801642 17.9748387 153.801642 17.9758944 153.800762 17.9769501 153.799707 17.9769501 151.526569 18.0756598 149.701408 19.9092669 149.60305 22.19261 149.60305 22.1938416 149.60217 22.1947214 149.601114 22.1947214 149.599883 22.1947214 149.599003 22.1956012 149.599003 22.1968328L149.599003 37.1612903C149.599003 37.162346 149.599883 37.1632258 149.600938 37.1632258 149.601994 37.1632258 149.60305 37.1642815 149.602874 37.1653372 149.600235 37.2283284 149.599003 37.2914956 149.599003 37.3551906 149.599003 39.7279179 151.462698 41.6632258 153.799707 41.7647507 153.800762 41.7649267 153.801642 41.7658065 153.801642 41.7668622 153.801642 41.7680938 153.802698 41.7689736 153.803754 41.7689736L169.846452 41.7689736C169.847507 41.7689736 169.848563 41.7680938 169.848563 41.7668622 169.848563 41.7658065 169.849443 41.7649267 169.850499 41.7647507 172.187507 41.6632258 174.051202 39.7279179 174.051202 37.3551906 174.051202 37.2914956 174.049971 37.2283284 174.047331 37.1653372 174.047155 37.1642815 174.048035 37.1632258 174.049267 37.1632258 174.050323 37.1632258 174.051202 37.162346 174.051202 37.1612903L174.051202 22.1968328C174.051202 22.1956012 174.050323 22.1947214 174.049091 22.1947214 174.048035 22.1947214 174.047155 22.1938416 174.047155 22.19261 173.948798 19.9092669 172.123636 18.0756598 169.850499 17.9769501 169.849443 17.9769501 169.848563 17.9758944 169.848563 17.9748387 169.848563 17.973607 169.847507 17.9727273 169.846452 17.9727273L153.803754 17.9727273zM251.382405 21.633783L251.382405 27.7240469C251.382405 28.4042815 251.934897 28.9557185 252.614076 28.9557185L274.602933 28.9557185C275.283871 28.9557185 275.834604 28.4042815 275.834604 27.7240469L275.834604 21.633783C275.834604 19.2747801 273.918475 17.3625924 271.555425 17.3625924L255.661584 17.3625924C253.298534 17.3625924 251.382405 19.2747801 251.382405 21.633783zM277.066276 49.0909091C276.387097 49.0909091 275.834604 48.5394721 275.834604 47.8592375L275.834604 35.6787097C275.834604 34.9984751 275.283871 34.4470381 274.602933 34.4470381L252.614076 34.4470381C251.934897 34.4470381 251.382405 34.9984751 251.382405 35.6787097L251.382405 47.8592375C251.382405 48.5394721 250.831672 49.0909091 250.150733 49.0909091L245.278592 49.0909091C244.597654 49.0909091 244.046921 48.5394721 244.046921 47.8592375L244.046921 18.5860997C244.046921 18.5843402 244.04868 18.5829326 244.05044 18.5829326 244.052199 18.5829326 244.053959 18.581349 244.053959 18.5795894 244.04868 18.4794721 244.046921 18.3790029 244.046921 18.2778299 244.046921 14.4025513 247.194721 11.2609971 251.076246 11.2609971 251.178299 11.2609971 251.278592 11.2631437 251.378886 11.2673666 251.380645 11.267437 251.382405 11.2659941 251.382405 11.2641818 251.382405 11.2624223 251.384164 11.2609971 251.385924 11.2609971L276.443402 11.2609971C276.445161 11.2609971 276.446921 11.2624927 276.446921 11.2643226 276.446921 11.2660997 276.446921 11.2675777 276.44868 11.2676481 280.189443 11.4289971 283.170088 14.5058358 283.170088 18.2778299 283.170088 18.3790029 283.168328 18.4794721 283.164809 18.5795894 283.164809 18.581349 283.164809 18.5829326 283.166569 18.5829326 283.168328 18.5829326 283.170088 18.5843402 283.170088 18.5860997L283.170088 47.8592375C283.170088 48.5394721 282.619355 49.0909091 281.938416 49.0909091L277.066276 49.0909091zM353.435191 21.633783L353.435191 27.7240469C353.435191 28.4042815 353.987683 28.9557185 354.666862 28.9557185L376.655718 28.9557185C377.336657 28.9557185 377.88739 28.4042815 377.88739 27.7240469L377.88739 21.633783C377.88739 19.2747801 375.971261 17.3625924 373.608211 17.3625924L357.71437 17.3625924C355.35132 17.3625924 353.435191 19.2747801 353.435191 21.633783zM379.119062 49.0909091C378.439883 49.0909091 377.88739 48.5394721 377.88739 47.8592375L377.88739 35.6787097C377.88739 34.9984751 377.336657 34.4470381 376.655718 34.4470381L354.666862 34.4470381C353.987683 34.4470381 353.435191 34.9984751 353.435191 35.6787097L353.435191 47.8592375C353.435191 48.5394721 352.884457 49.0909091 352.203519 49.0909091L347.331378 49.0909091C346.65044 49.0909091 346.099707 48.5394721 346.099707 47.8592375L346.099707 18.5860997C346.099707 18.5843402 346.101466 18.5829326 346.103226 18.5829326 346.104985 18.5829326 346.106745 18.581349 346.106745 18.5795894 346.101466 18.4794721 346.099707 18.3790029 346.099707 18.2778299 346.099707 14.4025513 349.247507 11.2609971 353.129032 11.2609971 353.231085 11.2609971 353.331378 11.2631437 353.431672 11.2673666 353.433431 11.267437 353.435191 11.2659941 353.435191 11.2641818 353.435191 11.2624223 353.43695 11.2609971 353.43871 11.2609971L378.496188 11.2609971C378.497947 11.2609971 378.499707 11.2624927 378.499707 11.2643226 378.499707 11.2660997 378.499707 11.2675777 378.501466 11.2676481 382.242229 11.4289971 385.222874 14.5058358 385.222874 18.2778299 385.222874 18.3790029 385.221114 18.4794721 385.217595 18.5795894 385.217595 18.581349 385.217595 18.5829326 385.219355 18.5829326 385.221114 18.5829326 385.222874 18.5843402 385.222874 18.5860997L385.222874 47.8592375C385.222874 48.5394721 384.672141 49.0909091 383.991202 49.0909091L379.119062 49.0909091zM302.778299 11.6934545C302.544282 11.4190557 302.201173 11.2609971 301.840469 11.2609971L296.304985 11.2609971C295.624047 11.2609971 295.073314 11.812434 295.073314 12.4926686L295.073314 47.8592375C295.073314 48.5394721 295.624047 49.0909091 296.304985 49.0909091L301.177126 49.0909091C301.858065 49.0909091 302.408798 48.5394721 302.408798 47.8592375L302.408798 24.3066862C302.408798 23.1687977 303.819941 22.6395308 304.567742 23.4965982L326.85044 49.0147214C326.857478 49.0229912 326.860997 49.0337243 326.860997 49.0449853 326.860997 49.0703226 326.882111 49.0909091 326.906745 49.0909091L326.917302 49.0909091 332.964809 49.0909091C333.645748 49.0909091 334.196481 48.5394721 334.196481 47.8592375L334.196481 12.4926686C334.196481 11.812434 333.645748 11.2609971 332.964809 11.2609971L328.092669 11.2609971C327.41349 11.2609971 326.860997 11.812434 326.860997 12.4926686L326.860997 36.5915543C326.860997 37.7364809 325.435777 38.2618768 324.693255 37.3907331L302.778299 11.6934545z"/>
    <path fill="#00FFAD" fill-rule="nonzero" d="M63.2364809 14.1001232C62.7934311 14.5432258 62.1923754 14.7921642 61.5656305 14.7921642L2.36753666 14.7921642C.275259238 14.7921642-.784652199 12.2734487.678091496 10.7774604L10.3883578.846510264C10.8329032.391865103 11.4419296.135579941 12.0777889.135579941L71.4965982.135579941C73.6017009.135579941 74.6558358 2.68068035 73.1674487 4.16917302L63.2364809 14.1001232zM63.2364809 59.2187683C62.7934311 59.6618182 62.1923754 59.9107918 61.5656305 59.9107918L2.36753666 59.9107918C.275259238 59.9107918-.784652199 57.3920235.678091496 55.8960704L10.3883578 45.9651026C10.8329032 45.5104399 11.4419296 45.2542522 12.0777889 45.2542522L71.4965982 45.2542522C73.6017009 45.2542522 74.6558358 47.7992375 73.1674487 49.2878006L63.2364809 59.2187683zM63.2364809 23.3780059C62.7934311 22.934956 62.1923754 22.6859824 61.5656305 22.6859824L2.36751906 22.6859824C.27524868 22.6859824-.784652199 25.2047507.678091496 26.7007038L10.3883578 36.6316716C10.8329032 37.0863343 11.441912 37.342522 12.0777889 37.342522L71.4965982 37.3426979C73.6017009 37.3426979 74.6558358 34.7975367 73.1674487 33.3089736L63.2364809 23.3780059z"/>
  </g>
</svg>
