<?xml version="1.0" encoding="UTF-8"?>
<svg width="118px" height="118px" viewBox="0 0 118 118" version="1.1" xmlns="http://www.w3.org/2000/svg" xmlns:xlink="http://www.w3.org/1999/xlink">
    <!-- Generator: Sketch 59.1 (86144) - https://sketch.com -->
    <title>Desktop</title>
    <desc>Created with Sketch.</desc>
    <g id="Desktop" stroke="none" stroke-width="1" fill="none" fill-rule="evenodd">
        <path d="M85.3527591,43.0170577 C84.9088947,43.4618266 84.306734,43.7117012 83.6788368,43.7117012 L24.371909,43.7117012 C22.275785,43.7117012 21.2139249,41.1835139 22.6793578,39.6818999 L32.4074762,29.7136038 C32.8528389,29.2572489 33.4629849,29 34.1000132,29 L93.6280624,29 C95.7370352,29 96.7931081,31.5546714 95.3019847,33.0487616 L85.3527591,43.0170577 Z M85.3527591,88.3053741 C84.9088947,88.7500901 84.306734,89 83.6788368,89 L24.371909,89 C22.275785,89 21.2139249,86.4717597 22.6793578,84.970181 L32.4074762,75.0018672 C32.8528389,74.5454947 33.4629849,74.2883436 34.1000132,74.2883436 L93.6280624,74.2883436 C95.7370352,74.2883436 96.7931081,76.8428995 95.3019847,78.3370604 L85.3527591,88.3053741 Z M85.3527591,52.3298304 C84.9088947,51.8851144 84.306734,51.6352046 83.6788368,51.6352046 L24.3718914,51.6352046 C22.2757744,51.6352046 21.2139249,54.1634448 22.6793578,55.6650235 L32.4074762,65.6333373 C32.8528389,66.0897098 33.4629673,66.3468609 34.1000132,66.3468609 L93.6280624,66.3470375 C95.7370352,66.3470375 96.7931081,63.7923051 95.3019847,62.2981441 L85.3527591,52.3298304 Z" id="Shape" fill="#00FFAD" fill-rule="nonzero"></path>
    </g>
</svg>