<?xml version="1.0" encoding="UTF-8"?>
<svg width="100px" height="100px" viewBox="0 0 100 100" version="1.1" xmlns="http://www.w3.org/2000/svg" xmlns:xlink="http://www.w3.org/1999/xlink">
    <title>Twitter Card Copy</title>
    <g id="Twitter-Card-Copy" stroke="none" stroke-width="1" fill="none" fill-rule="evenodd">
        <g id="CoinGecko-Logo-Copy-3" transform="translate(-0.000000, -0.000490)" fill="#000000" fill-rule="nonzero">
            <path d="M49.7729322,0.000490469997 C77.3774836,-0.120473959 99.8590913,22.1489901 100,49.7534889 C100.09901,69.9777559 88.0050463,88.2702798 69.3576853,96.1000883 C50.7103243,103.929897 29.1824841,99.7547747 14.8139716,85.5218482 C0.445459175,71.2889216 -3.93360038,49.8016098 3.71902817,31.0808186 C11.2951304,12.5472354 29.1861692,0.339121473 49.1668266,0.00691645692 L49.7729322,0.000490469997 Z M50.1887093,24.8286031 C46.0030357,23.8435895 41.8688554,23.4944242 37.9001895,24.4610607 C20.6871496,29.1992475 17.7779746,37.5549885 17.0650705,47.6282321 C17.0465651,47.5452288 17.0283987,47.4617751 17.0105753,47.3778687 C16.0603579,58.6651278 15.5742001,66.9737537 11.3055876,76.5002444 C17.2031241,85.9061847 28.7846774,93.8150207 41.4639381,96.2371797 C41.4875998,96.2417551 41.5112729,96.2463118 41.5351572,96.2505701 C41.6327291,96.2690446 41.7303654,96.287194 41.8274944,96.305839 C43.2003837,96.558926 44.6112677,96.7489511 46.058857,96.8643041 L46.058857,96.8643041 L46.0982269,96.8689215 C46.2465083,96.880743 46.3951676,96.8917948 46.5449853,96.9011093 L46.5449853,96.9011093 L46.7802925,96.9176622 C46.8945471,96.9248835 47.0090208,96.9316451 47.1238644,96.9374521 C47.2845345,96.946406 47.44527,96.954418 47.6056015,96.9615958 C47.6808695,96.9648528 47.7562299,96.9679088 47.8321261,96.9707822 C48.0199949,96.97799 48.2079353,96.9838975 48.3954242,96.9882569 C48.4652814,96.9899508 48.535216,96.9914705 48.605954,96.9930783 C48.7533178,96.9959118 48.9007135,96.9979364 49.0473075,96.998956 C49.138576,96.9997393 49.2299739,97.0002237 49.3223253,97.0004549 C49.4552505,97.0006326 49.5881929,97.000145 49.7207018,96.9992952 C49.8041273,96.9986636 49.8876585,96.9977811 49.9709647,96.9960249 C49.9942821,96.9956746 50.0175998,96.9953036 50.0411038,96.99564 C52.7063978,96.955007 55.4785161,96.657594 58.346727,96.0472962 C58.346727,96.0472962 58.3320009,96.011935 58.3052041,95.9427967 L58.3052041,95.9427967 C56.3525241,82.241083 68.3922948,68.8225605 75.1469413,61.9665686 C76.7074355,60.392339 79.1180208,58.2160206 81.3487079,55.9093945 C90.0572785,47.7079442 91.7376368,37.9513328 73.8241564,33.0762548 C70.727868,32.1807879 67.5282282,30.9451164 64.2860318,29.6674716 L64.2860318,29.6674716 L63.3615876,29.3027907 L63.2676489,29.0509833 C62.4625243,27.0137318 60.9717387,25.6984291 59.1468285,24.9582612 C58.813962,24.8184607 58.4624453,24.7008997 58.0955235,24.6044339 C56.2161407,24.0893504 54.0833635,24.0897926 52.0170084,24.4721964 C51.3996802,24.5667512 50.7867841,24.6871635 50.1887093,24.8286031 Z M85.184,51.366 L84.7950857,51.638609 C77.5261472,56.6678271 69.2406602,60.4479058 57.5752845,60.4479058 C54.0682359,60.4479058 52.3245955,58.1138885 50.5932017,57.108938 L50.5932017,57.108938 L50.6736492,57.0162152 L51.0274814,57.2370904 C53.5210153,58.7370959 56.3597407,59.2765288 59.1850488,59.3572125 C62.1851948,59.4492429 65.1861538,59.2026775 68.1308538,58.6222055 C71.1053987,57.9997723 74.0152746,57.1016207 76.8226422,55.93943 C79.6315513,54.781794 82.4110092,53.4404062 84.80392,51.529388 L84.80392,51.529388 L84.8595876,51.5927907 L85.184,51.366 Z M75.8616464,45.2986538 C76.9609745,45.2945429 77.8566352,46.17867 77.8648632,47.2760579 C77.8709831,48.3742731 76.9841413,49.2695339 75.8840073,49.2757182 C74.7838733,49.2818388 73.8870391,48.3965532 73.8808323,47.2983381 C73.8746896,46.200123 74.7615126,45.3048437 75.8616464,45.2986538 Z M43.266508,29.1915432 C48.2876934,29.1915432 52.3593095,33.2527444 52.3670653,38.2688277 L52.3670653,38.2688277 L52.3634282,38.5318975 C52.2259589,43.4255672 48.2098012,47.3514733 43.2738803,47.3534704 C38.249818,47.3555016 34.1753606,43.2914635 34.173324,38.2761862 C34.1713247,33.3488962 38.1008517,29.3365809 43.0029804,29.1953871 L43.0029804,29.1953871 Z" id="Combined-Shape"></path>
        </g>
    </g>
</svg>