<?xml version="1.0" encoding="UTF-8"?>
<svg width="295px" height="30px" viewBox="0 0 295 30" version="1.1" xmlns="http://www.w3.org/2000/svg" xmlns:xlink="http://www.w3.org/1999/xlink">
    <!-- Generator: Sketch 46.2 (44496) - http://www.bohemiancoding.com/sketch -->
    <title>comply_api_logo_white</title>
    <desc>Created with Sketch.</desc>
    <defs></defs>
    <g id="Page-1" stroke="none" stroke-width="1" fill="none" fill-rule="evenodd">
        <g id="comply_api_logo_white">
            <g id="Group_1_copy" fill="#FFFFFF">
                <g id="COMPLY_API">
                    <path d="M95.425,14.15 C94.425,15.875 93.02,18.275 92.295,19.625 L89.165,14.235 L80.745,0.235 L76.31,0.235 L76.31,29.585 L80.16,29.585 L80.16,10.235 C80.16,8.51 80.09,6.735 80.02,5.77 L80.125,5.77 C80.47,6.485 81.225,7.96 81.88,9.01 L91.71,25.265 L92.71,25.265 L102.505,9.055 C103.161935,7.99480632 103.757902,6.8980273 104.29,5.77 L104.395,5.77 C104.325,6.825 104.255,9.35 104.255,10.27 L104.255,29.555 L108.105,29.555 L108.105,0.205 L103.81,0.205 L95.425,14.15 Z M59.925,0 L51.66,0 L47.865,3.79 L59.805,3.79 C61.04,3.79 61.305,4.045 61.305,5.22 L61.305,24.295 C61.305,25.515 61.03,25.725 59.805,25.725 L41.73,25.725 C40.495,25.725 40.185,25.515 40.185,24.295 L40.185,11.475 L36.335,15.325 L36.335,23.285 C36.335,28.505 37.605,29.785 41.63,29.785 L59.915,29.785 C63.915,29.785 65.175,28.52 65.175,23.285 L65.175,6.485 C65.175,1.265 63.935,0.025 59.915,0.025 L59.925,0 Z M0,6.695 L0,23.075 C0,28.34 1.27,29.575 5.295,29.575 L24.99,29.575 L24.99,25.525 L5.365,25.525 C4.13,25.525 3.865,25.315 3.865,24.095 L3.865,5.43 C3.865,4.25 4.14,4 5.365,4 L24.995,4 L24.995,0.21 L5.295,0.21 C1.205,0.21 0,1.525 0,6.695 Z M139.595,0.195 L119.45,0.195 L119.45,29.545 L123.3,29.545 L123.3,17.855 L139.695,17.855 C143.695,17.855 144.645,16.38 144.645,12.255 L144.645,5.645 C144.645,1.525 143.58,0.21 139.595,0.21 L139.595,0.195 Z M140.795,12.525 C140.795,13.705 140.52,13.955 139.35,13.955 L123.3,13.955 L123.3,3.955 L139.3,3.955 C140.535,3.955 140.8,4.21 140.8,5.43 L140.795,12.525 Z M205.04,0.185 L197.82,9.24 C197.065,10.21 196.1,11.515 195.21,12.525 C194.42,11.47 193.595,10.335 192.735,9.24 L185.55,0.185 L180.325,0.185 L193.25,16.23 L193.25,29.535 L197.1,29.535 L197.1,16.295 L210.16,0.21 L205.04,0.185 Z M159.185,0.185 L155.335,0.185 L155.335,29.535 L178.295,29.535 L178.295,25.525 L159.185,25.525 L159.185,0.185 Z" id="Shape"></path>
                </g>
                <g id="Shape_4_copy_12" transform="translate(12.000000, 0.000000)">
                    <polygon id="Shape" points="27.76 2.84 25 0.085 9.225 15.82 3.02 9.64 0.26 12.395 8.305 20.41 8.305 20.41 9.225 21.33"></polygon>
                </g>
            </g>
            <g id="Layer_2" transform="translate(211.000000, 0.000000)" fill-rule="nonzero" fill="#B4B4B4">
                <path d="M32.425,29.67 L18.16,0.32 L14.415,0.32 L0.185,29.67 L4.445,29.67 L7.64,22.975 L24.825,22.975 L28.02,29.67 L32.425,29.67 Z M16.2,4.955 L16.235,4.955 L23.11,19.23 L9.325,19.23 L16.2,4.955 Z" id="Shape"></path>
                <rect id="Rectangle-path" x="79.38" y="0.32" width="3.85" height="29.35"></rect>
                <path d="M60.99,17.965 C64.99,17.965 65.94,16.49 65.94,12.365 L65.94,5.755 C65.94,1.63 64.875,0.325 60.885,0.325 L40.745,0.325 L40.745,29.675 L44.595,29.675 L44.595,17.965 L60.99,17.965 Z M62.09,12.66 C62.09,13.84 61.815,14.09 60.645,14.09 L44.595,14.09 L44.595,4.09 L60.595,4.09 C61.83,4.09 62.095,4.345 62.095,5.565 L62.09,12.66 Z" id="Shape"></path>
            </g>
        </g>
    </g>
</svg>