<?xml version="1.0" encoding="UTF-8"?>
<svg width="45px" height="45px" viewBox="0 0 45 45" version="1.1" xmlns="http://www.w3.org/2000/svg" xmlns:xlink="http://www.w3.org/1999/xlink">
    <!-- Generator: Sketch 47 (45396) - http://www.bohemiancoding.com/sketch -->
    <title>Page 1</title>
    <desc>Created with Sketch.</desc>
    <defs></defs>
    <g id="Page-1" stroke="none" stroke-width="1" fill="none" fill-rule="evenodd" fill-opacity="0.3">
        <g id="Coinlist-Option2-Copy-5" transform="translate(-608.000000, -2089.000000)" fill="#FFFFFF">
            <path d="M630.0266,2089.0002 C617.8838,2089.0002 608,2098.8816 608,2111.0268 C608,2115.88308 609.58436,2120.376 612.25628,2124.0204 C612.29144,2124.10009 612.340658,2124.1704 612.40628,2124.229 C616.43048,2129.58214 622.83128,2133.0532 630.02648,2133.0532 C642.17168,2133.0532 652.05308,2123.1718 652.05308,2111.0266 C652.05308,2098.8814 642.17168,2089 630.02648,2089 L630.0266,2089.0002 Z M650.4386,2115.159 C647.67062,2116.7457 644.66126,2117.84262 641.549,2118.4473 C641.506814,2118.34184 641.452904,2118.24574 641.399,2118.1473 C645.24512,2114.79576 648.2684,2110.4577 650.078,2105.4093 C650.579564,2107.1976 650.8538,2109.07962 650.8538,2111.02728 C650.8538,2112.44058 650.710832,2113.8234 650.438954,2115.1593 L650.4386,2115.159 Z M633.7934,2101.5348 C634.217618,2102.60826 635.25824,2103.3723 636.4817,2103.3723 C636.676232,2103.3723 636.866078,2103.35121 637.051232,2103.31371 C638.213732,2106.24807 638.851232,2109.40971 638.851232,2112.66051 C638.851232,2114.01051 638.7317,2115.34413 638.520764,2116.65663 C637.259804,2116.80897 636.247304,2117.76291 636.022304,2119.00035 C629.942504,2118.99801 624.190904,2117.11365 619.421504,2113.77381 C619.623068,2113.38006 619.747286,2112.93945 619.747286,2112.46833 C619.747286,2111.65035 619.4051,2110.91445 618.858986,2110.38945 C622.592606,2105.85429 627.842786,2102.65485 633.793586,2101.53465 L633.7934,2101.5348 Z M636.48404,2098.78092 C637.4192,2098.78092 638.17856,2099.54262 638.17856,2100.47544 C638.17856,2101.4106 637.41686,2102.16996 636.48404,2102.16996 C635.54888,2102.16996 634.78952,2101.40826 634.78952,2100.47544 C634.787174,2099.54262 635.54654,2098.78092 636.48404,2098.78092 Z M639.30356,2101.1106 C642.8051,2101.22076 646.29956,2102.05278 649.46156,2103.5598 C649.433438,2103.60199 649.402964,2103.64418 649.388906,2103.6934 C647.729546,2109.10042 644.642786,2113.7272 640.623506,2117.2306 C640.35632,2117.02435 640.051634,2116.86732 639.721166,2116.76654 C639.934448,2115.41654 640.05632,2114.04782 640.05632,2112.66026 C640.05632,2109.24074 639.37898,2105.91986 638.15084,2102.83766 C638.722718,2102.42984 639.14456,2101.81814 639.30398,2101.11032 L639.30356,2101.1106 Z M618.54716,2112.4686 C618.54716,2113.40376 617.78546,2114.16312 616.85264,2114.16312 C615.91748,2114.16312 615.15812,2113.40142 615.15812,2112.4686 C615.15812,2111.53344 615.91982,2110.77408 616.85264,2110.77408 C617.7878,2110.77408 618.54716,2111.53578 618.54716,2112.4686 Z M615.76046,2115.14514 C616.09796,2115.28343 616.46594,2115.36311 616.85498,2115.36311 C617.54168,2115.36311 618.16748,2115.11233 618.66668,2114.70923 C623.6495,2118.22019 629.66828,2120.20061 636.02948,2120.20061 C636.041198,2120.20061 636.05057,2120.19827 636.062294,2120.19827 C636.083384,2120.28264 636.111512,2120.36467 636.13964,2120.4467 C631.76852,2122.98968 626.70344,2124.41936 621.34604,2124.41936 C618.61322,2124.41936 615.89918,2124.03264 613.26944,2123.28266 C613.642094,2120.37878 614.50694,2117.64362 615.76082,2115.14546 L615.76046,2115.14514 Z M637.17086,2119.5186 C637.17086,2118.58344 637.93256,2117.82408 638.86538,2117.82408 C639.80054,2117.82408 640.5599,2118.58578 640.5599,2119.5186 C640.5599,2120.45376 639.7982,2121.21312 638.86538,2121.21312 C637.93256,2121.21312 637.17086,2120.45376 637.17086,2119.5186 Z M648.75806,2101.9356 C645.7721,2100.69576 642.54926,2100.0114 639.32006,2099.9106 C639.05756,2098.58406 637.88336,2097.58092 636.48176,2097.58092 C636.123164,2097.58092 635.78564,2097.65358 635.46926,2097.77311 C633.4958,2094.83875 630.95288,2092.28173 627.92006,2090.30611 C628.61144,2090.2358 629.31458,2090.20064 630.02708,2090.20064 C638.25128,2090.20064 645.37628,2094.99596 648.75848,2101.93604 L648.75806,2101.9356 Z M626.06366,2090.5848 C629.4785,2092.5465 632.31686,2095.24884 634.45406,2098.4154 C633.94781,2098.91228 633.6314,2099.59668 633.59858,2100.3537 C627.29858,2101.53258 621.74378,2104.9287 617.82278,2109.7521 C617.518094,2109.64195 617.19464,2109.57164 616.85246,2109.57164 C616.2173,2109.57164 615.63608,2109.78257 615.15794,2110.12945 C613.35326,2108.25211 611.78528,2106.11695 610.51496,2103.74965 C613.02278,2097.04645 618.89156,2091.97225 626.06336,2090.58505 L626.06366,2090.5848 Z M610.00886,2105.2986 C611.24402,2107.40094 612.70652,2109.31578 614.35886,2111.0244 C614.110424,2111.45097 613.958078,2111.93844 613.958078,2112.46578 C613.958078,2113.23924 614.26745,2113.93764 614.761958,2114.45796 C613.590098,2116.75482 612.734618,2119.24626 612.268238,2121.88536 C610.322918,2118.72366 609.200258,2115.00396 609.200258,2111.02656 C609.200258,2109.03906 609.48854,2107.11954 610.008878,2105.29842 L610.00886,2105.2986 Z M614.45024,2124.8292 C616.7096,2125.35186 619.01822,2125.62138 621.34064,2125.62138 C626.92346,2125.62138 632.19704,2124.13308 636.74864,2121.48234 C636.863486,2121.60422 636.987704,2121.71438 637.121294,2121.8175 C635.665814,2125.59564 633.333794,2129.0223 630.230894,2131.7547 L630.31058,2131.8461 C630.214484,2131.84845 630.120734,2131.85313 630.024644,2131.85313 C623.835044,2131.85313 618.268244,2129.13201 614.450444,2124.82893 L614.45024,2124.8292 Z M631.98164,2131.7574 C634.73318,2129.07612 636.8426,2125.85352 638.21384,2122.3332 C638.424776,2122.38242 638.642744,2122.41524 638.86772,2122.41524 C640.42868,2122.41524 641.6966,2121.17072 641.75288,2119.62152 C644.63804,2119.06839 647.43884,2118.11216 650.04968,2116.74338 C647.72936,2124.85058 640.61348,2130.95138 631.981874,2131.75718 L631.98164,2131.7574 Z" id="Page-1"></path>
        </g>
    </g>
</svg>