<?xml version="1.0" encoding="UTF-8"?>
<svg width="76px" height="76px" viewBox="0 0 76 76" version="1.1" xmlns="http://www.w3.org/2000/svg" xmlns:xlink="http://www.w3.org/1999/xlink">
    <!-- Generator: Sketch 47.1 (45422) - http://www.bohemiancoding.com/sketch -->
    <title>app-icon-beacon</title>
    <desc>Created with Sketch.</desc>
    <defs>
        <path d="M75.9999691,52.0321065 C75.9999691,52.0321065 76.0183766,59.9532674 75.1559707,63.3865348 C74.2935648,66.8198022 72.7099266,69.2135086 70.9550542,70.9680276 C69.1923882,72.7303387 66.8573829,74.3327973 63.2981308,75.1676818 C59.7389529,76.0025662 52.0161187,75.9878722 52.0161187,75.9878722 L23.9596104,75.9999688 C23.9596104,75.9999688 16.0371144,76.0184476 12.6033747,75.1561789 C9.1695607,74.2938361 6.77547322,72.7104499 5.02067501,70.9558568 C3.25800908,69.1934714 1.65536958,66.8588377 0.820352245,63.3002263 C-0.0146650919,59.7416149 3.12132583e-05,52.02001 3.12132583e-05,52.02001 L3.12132583e-05,23.9678931 C3.12132583e-05,23.9678931 -0.0184505038,16.0467323 0.844029625,12.6134648 C1.70643553,9.18019742 3.29007374,6.7865652 5.04494618,5.03204629 C6.80761211,3.26966092 9.14261748,1.66720229 12.7017954,0.832317862 C16.2610475,-0.00256656916 23.9838074,0.0121273968 23.9838074,0.0121273968 L52.0403899,3.08490672e-05 C52.0403899,3.08490672e-05 59.962886,-0.0183737144 63.3966257,0.843894926 C66.8304397,1.70616357 69.2244529,3.28954972 70.9792511,5.04414284 C72.7419171,6.80652822 74.3446308,9.14116193 75.1796481,12.6997733 C76.0146655,16.2584589 75.9999691,23.9799896 75.9999691,23.9799896 L75.9999691,52.0321065 Z" id="path-1"></path>
        <linearGradient x1="0%" y1="0%" x2="101.999998%" y2="100.999999%" id="linearGradient-3">
            <stop stop-color="#3023AE" offset="2.41948342%"></stop>
            <stop stop-color="#C86DD7" offset="100%"></stop>
        </linearGradient>
    </defs>
    <g id="Symbols" stroke="none" stroke-width="1" fill="none" fill-rule="evenodd">
        <g id="about" transform="translate(-825.000000, -303.000000)">
            <g id="section-about">
                <g id="apps" transform="translate(540.000000, 283.000000)">
                    <g id="app-icon-beacon" transform="translate(285.000000, 20.000000)">
                        <mask id="mask-2" fill="white">
                            <use xlink:href="#path-1"></use>
                        </mask>
                        <use id="Fill-1" fill="#2C96FF" xlink:href="#path-1"></use>
                        <rect id="Rectangle" fill="url(#linearGradient-3)" mask="url(#mask-2)" x="0" y="0" width="76" height="76"></rect>
                        <g id="Group" mask="url(#mask-2)" fill-rule="nonzero" fill="#FFFFFF" opacity="0.56">
                            <g transform="translate(31.146970, 43.110077)" id="Shape">
                                <polygon points="4.6015625 1.10035924 4.6015625 4.17828369 6.6796875 4.17828369 6.6796875 1.10035924"></polygon>
                                <polygon points="0.699859619 -1.37962343 -1.46945628 0.78969247 6.88338275e-15 2.25914875 2.1693159 0.0898328509"></polygon>
                                <polygon points="9.12841795 0.0898328509 11.2977339 2.25914875 12.7671901 0.78969247 10.5978742 -1.37962343"></polygon>
                            </g>
                        </g>
                        <path d="M7.59317185,40.671875 L7.59317185,35.0487656 L9.66179685,35.0487656 C10.0503092,35.0487656 10.3809257,35.0847861 10.6536562,35.1568281 C10.9263868,35.2288702 11.1489418,35.3304993 11.3213281,35.4617187 C11.4937144,35.5929382 11.6191428,35.7524574 11.6976172,35.9402812 C11.7760915,36.1281051 11.8153281,36.3377957 11.8153281,36.5693594 C11.8153281,36.6954329 11.7973179,36.817002 11.7612968,36.9340703 C11.7252758,37.0511386 11.6686722,37.1611297 11.5914843,37.2640469 C11.5142965,37.3669641 11.4152402,37.4602314 11.2943125,37.5438516 C11.1733848,37.6274718 11.0280164,37.7001559 10.8582031,37.7619063 C11.2287049,37.8519588 11.5027178,37.9979703 11.68025,38.1999453 C11.8577821,38.4019203 11.9465468,38.661139 11.9465468,38.9776094 C11.9465468,39.2168918 11.9002348,39.4394469 11.8076093,39.6452812 C11.7149839,39.8511156 11.5792639,40.0305748 11.4004453,40.1836641 C11.2216267,40.3367534 11.0010013,40.4563928 10.7385625,40.5425859 C10.4761237,40.6287791 10.1763819,40.671875 9.8393281,40.671875 L7.59317185,40.671875 Z M8.8976406,38.2867813 L8.8976406,39.6877344 L9.81617185,39.6877344 C9.98855813,39.6877344 10.1294239,39.6658648 10.2387734,39.622125 C10.3481229,39.5783852 10.4336715,39.5217816 10.4954218,39.4523125 C10.5571722,39.3828434 10.5996249,39.3043702 10.6227812,39.2168906 C10.6459376,39.129411 10.6575156,39.0406463 10.6575156,38.9505937 C10.6575156,38.8476766 10.6440079,38.7550525 10.6169922,38.6727187 C10.5899764,38.590385 10.5436644,38.5209169 10.4780547,38.4643125 C10.412445,38.4077081 10.3256099,38.3639689 10.2175468,38.3330938 C10.1094838,38.3022186 9.97312059,38.2867813 9.8084531,38.2867813 L8.8976406,38.2867813 Z M8.8976406,37.4145625 L9.5768906,37.4145625 C9.72097465,37.4145625 9.85090564,37.4042709 9.96668747,37.3836875 C10.0824693,37.3631041 10.1808824,37.3270836 10.2619297,37.275625 C10.3429769,37.2241664 10.4047263,37.1534119 10.4471797,37.0633594 C10.489633,36.9733068 10.5108593,36.8600996 10.5108593,36.7237344 C10.5108593,36.589942 10.4941356,36.4786645 10.4606875,36.3898984 C10.4272394,36.3011324 10.3757816,36.2297346 10.3063125,36.1757031 C10.2368434,36.1216716 10.1487219,36.0830782 10.0419453,36.0599219 C9.93516871,36.0367655 9.80845383,36.0251875 9.66179685,36.0251875 L8.8976406,36.0251875 L8.8976406,37.4145625 Z M17.8977031,35.0487656 L17.8977031,36.0522031 L15.5897969,36.0522031 L15.5897969,37.3643906 L17.3573906,37.3643906 L17.3573906,38.3292344 L15.5897969,38.3292344 L15.5897969,39.6684375 L17.8977031,39.6684375 L17.8977031,40.671875 L14.2776094,40.671875 L14.2776094,35.0487656 L17.8977031,35.0487656 Z M25.4929531,40.671875 L24.4817969,40.671875 C24.368588,40.671875 24.2753207,40.6455029 24.2019922,40.5927578 C24.1286637,40.5400128 24.0778491,40.4724744 24.0495469,40.3901406 L23.7176406,39.4098594 L21.5795469,39.4098594 L21.2476406,40.3901406 C21.2219113,40.4621827 21.17174,40.5271481 21.097125,40.5850391 C21.02251,40.64293 20.9311724,40.671875 20.8231094,40.671875 L19.8042344,40.671875 L21.9809219,35.0487656 L23.3162656,35.0487656 L25.4929531,40.671875 Z M21.8805781,38.5222031 L23.4166094,38.5222031 L22.8994531,36.9823125 C22.866005,36.8845412 22.8267684,36.7694043 22.7817422,36.6368984 C22.7367159,36.5043926 22.6923335,36.3609539 22.6485937,36.2065781 C22.6074269,36.3635268 22.5649742,36.5088952 22.5212344,36.6426875 C22.4774946,36.7764798 22.4363283,36.8922599 22.3977344,36.9900313 L21.8805781,38.5222031 Z M31.1160625,39.2168906 C31.1469377,39.2168906 31.1778124,39.2226796 31.2086875,39.2342578 C31.2395627,39.245836 31.2691509,39.2657759 31.2974531,39.2940781 L31.8146094,39.83825 C31.5881916,40.1341369 31.3045304,40.3573352 30.9636172,40.5078516 C30.622704,40.6583679 30.2194034,40.733625 29.7537031,40.733625 C29.3265968,40.733625 28.9438793,40.6609408 28.6055391,40.5155703 C28.2671988,40.3701998 27.9803215,40.1695143 27.7448984,39.9135078 C27.5094754,39.6575013 27.3287298,39.3539002 27.2026563,39.0026953 C27.0765827,38.6514904 27.0135469,38.2700593 27.0135469,37.8583906 C27.0135469,37.4390031 27.0855878,37.0537127 27.2296719,36.7025078 C27.3737559,36.3513029 27.5750847,36.048345 27.8336641,35.793625 C28.0922435,35.538905 28.4016336,35.3407924 28.7618438,35.1992812 C29.1220539,35.0577701 29.5195655,34.9870156 29.9543906,34.9870156 C30.1653709,34.9870156 30.3641267,35.0056691 30.5506641,35.0429766 C30.7372015,35.080284 30.9115148,35.1317419 31.0736094,35.1973516 C31.2357039,35.2629613 31.3849316,35.3414344 31.5212969,35.4327734 C31.6576621,35.5241124 31.778588,35.6250984 31.8840781,35.7357344 L31.4441094,36.3262187 C31.4158072,36.3622398 31.3823596,36.3950441 31.3437656,36.4246328 C31.3051717,36.4542215 31.251141,36.4690156 31.1816719,36.4690156 C31.1353591,36.4690156 31.09162,36.4587241 31.0504531,36.4381406 C31.0092863,36.4175572 30.9655471,36.3924715 30.9192344,36.3628828 C30.8729216,36.3332941 30.8221071,36.301133 30.7667891,36.2663984 C30.7114711,36.2316639 30.6458624,36.1995028 30.5699609,36.1699141 C30.4940595,36.1403254 30.4052948,36.1152397 30.3036641,36.0946562 C30.2020334,36.0740728 30.0830371,36.0637812 29.9466719,36.0637812 C29.7099624,36.0637812 29.4938395,36.1055907 29.2982969,36.1892109 C29.1027542,36.2728311 28.9348731,36.3924706 28.7946484,36.5481328 C28.6544238,36.703795 28.5450759,36.8922593 28.4666016,37.1135312 C28.3881272,37.3348032 28.3488906,37.5830872 28.3488906,37.8583906 C28.3488906,38.1465587 28.3881272,38.4025614 28.4666016,38.6264063 C28.5450759,38.8502511 28.6518509,39.0387154 28.7869297,39.1918047 C28.9220085,39.344894 29.0795981,39.4613173 29.2597031,39.5410781 C29.4398082,39.6208389 29.632775,39.6607187 29.8386094,39.6607187 C29.9569641,39.6607187 30.0650256,39.6549297 30.1627969,39.6433516 C30.2605682,39.6317734 30.3512626,39.6118335 30.4348828,39.5835312 C30.518503,39.555229 30.5982626,39.5185653 30.6741641,39.4735391 C30.7500655,39.4285128 30.826609,39.3725524 30.9037969,39.3056562 C30.934672,39.279927 30.9681196,39.2587006 31.0041406,39.2419766 C31.0401616,39.2252525 31.0774686,39.2168906 31.1160625,39.2168906 Z M39.5796719,37.8583906 C39.5796719,38.2649135 39.5095606,38.6431285 39.369336,38.9930469 C39.2291113,39.3429653 39.0316419,39.6472096 38.7769219,39.9057891 C38.5222019,40.1643685 38.2153846,40.3669836 37.856461,40.5136406 C37.4975373,40.6602976 37.0993824,40.733625 36.6619844,40.733625 C36.2245864,40.733625 35.8257883,40.6602976 35.4655781,40.5136406 C35.105368,40.3669836 34.7972643,40.1643685 34.5412578,39.9057891 C34.2852513,39.6472096 34.0871387,39.3429653 33.9469141,38.9930469 C33.8066894,38.6431285 33.7365781,38.2649135 33.7365781,37.8583906 C33.7365781,37.4518678 33.8066894,37.0736528 33.9469141,36.7237344 C34.0871387,36.373816 34.2852513,36.0702148 34.5412578,35.8129219 C34.7972643,35.5556289 35.105368,35.353657 35.4655781,35.207 C35.8257883,35.060343 36.2245864,34.9870156 36.6619844,34.9870156 C37.0993824,34.9870156 37.4975373,35.0609862 37.856461,35.2089297 C38.2153846,35.3568731 38.5222019,35.5594883 38.7769219,35.8167812 C39.0316419,36.0740742 39.2291113,36.3776753 39.369336,36.7275937 C39.5095606,37.0775122 39.5796719,37.4544407 39.5796719,37.8583906 Z M38.2443281,37.8583906 C38.2443281,37.5805142 38.2083077,37.3303006 38.1362656,37.1077422 C38.0642236,36.8851838 37.9606648,36.6967195 37.825586,36.5423438 C37.6905072,36.387968 37.5251989,36.269615 37.3296563,36.1872812 C37.1341136,36.1049475 36.9115586,36.0637812 36.6619844,36.0637812 C36.4098373,36.0637812 36.1853526,36.1049475 35.9885235,36.1872812 C35.7916943,36.269615 35.6257429,36.387968 35.4906641,36.5423438 C35.3555853,36.6967195 35.2520264,36.8851838 35.1799844,37.1077422 C35.1079424,37.3303006 35.0719219,37.5805142 35.0719219,37.8583906 C35.0719219,38.1388399 35.1079424,38.39034 35.1799844,38.6128984 C35.2520264,38.8354568 35.3555853,39.0239211 35.4906641,39.1782969 C35.6257429,39.3326726 35.7916943,39.4503824 35.9885235,39.5314297 C36.1853526,39.612477 36.4098373,39.653 36.6619844,39.653 C36.9115586,39.653 37.1341136,39.612477 37.3296563,39.5314297 C37.5251989,39.4503824 37.6905072,39.3326726 37.825586,39.1782969 C37.9606648,39.0239211 38.0642236,38.8354568 38.1362656,38.6128984 C38.2083077,38.39034 38.2443281,38.1388399 38.2443281,37.8583906 Z M42.5127969,35.0487656 C42.5694014,35.0487656 42.6169998,35.0513385 42.6555938,35.0564844 C42.6941877,35.0616302 42.7289217,35.0712786 42.7597969,35.0854297 C42.7906721,35.0995808 42.8202603,35.1195207 42.8485625,35.14525 C42.8768648,35.1709793 42.9090259,35.2057133 42.9450469,35.2494531 L45.6157344,38.6264063 C45.6054427,38.5183432 45.597724,38.4134979 45.5925782,38.3118672 C45.5874323,38.2102365 45.5848594,38.1143963 45.5848594,38.0243437 L45.5848594,35.0487656 L46.7349532,35.0487656 L46.7349532,40.671875 L46.0557032,40.671875 C45.9553589,40.671875 45.8704535,40.6564377 45.8009844,40.6255625 C45.7315153,40.5946873 45.6646201,40.5380837 45.6002969,40.45575 L42.9489063,37.1058125 C42.9566251,37.2035838 42.9630573,37.299424 42.9682032,37.3933359 C42.973349,37.4872479 42.9759219,37.5753694 42.9759219,37.6577031 L42.9759219,40.671875 L41.8258282,40.671875 L41.8258282,35.0487656 L42.5127969,35.0487656 Z" id="beacon-(Lato)" fill="#FFFFFF" mask="url(#mask-2)"></path>
                    </g>
                </g>
            </g>
        </g>
    </g>
</svg>