<?xml version="1.0" encoding="UTF-8"?>
<svg width="96px" height="96px" viewBox="0 0 96 96" version="1.1" xmlns="http://www.w3.org/2000/svg" xmlns:xlink="http://www.w3.org/1999/xlink">
    <title>app-icon-blockstack</title>
    <g id="Page-1" stroke="none" stroke-width="1" fill="none" fill-rule="evenodd">
        <g id="app-icon-blockstack">
            <path d="M96,65.7247662 C96,65.7247662 96.0232126,75.730443 94.9338578,80.0672019 C93.8445029,84.4039607 91.8441178,87.4275899 89.6274369,89.6438243 C87.4009115,91.8699015 84.451431,93.8940598 79.9555336,94.9486507 C75.4597299,96.0032415 65.704571,95.9846807 65.704571,95.9846807 L30.2647711,96 C30.2647711,96 20.2574077,96.0233022 15.9200522,94.9341207 C11.582603,93.8448456 8.55849249,91.8447788 6.34190527,89.6284507 C4.11537989,87.4022797 2.09099316,84.4532687 1.03623441,79.9581806 C-0.0185243266,75.4630925 0,65.7094863 0,65.7094863 L0,30.2752334 C0,30.2752334 -0.0233058995,20.2695565 1.06614268,15.9327977 C2.15549751,11.5960388 4.15588262,8.57250341 6.3725636,6.356269 C8.59908898,4.130098 11.5485694,2.10593974 16.0443731,1.05134888 C20.5402705,-0.0032419821 30.2953357,0.015318817 30.2953357,0.015318817 L65.7352294,0 C65.7352294,0 75.7425928,-0.0232089024 80.0799482,1.06597254 C84.4173975,2.15515398 87.4414142,4.1552207 89.6580014,6.37154885 C91.8845268,8.59771985 93.9090073,11.5467309 94.963766,16.0418189 C96.0185248,20.5370008 96,30.2905132 96,30.2905132 L96,65.7247662 Z" id="path-1" fill="#000000"></path>
            <g id="Nexus-White" transform="translate(24.000000, 24.000000)" fill="#FFFFFF" fill-rule="nonzero">
                <path d="M43.5589267,48 L33.3746592,32.5700171 L47.9999036,32.5700171 L47.9999036,26.7485169 L0,26.7485169 L0,32.5767647 L14.6204728,32.5767647 L4.44107325,48 L12.0354618,48 L24.0000241,29.8721076 L35.9645382,48 L43.5589267,48 Z M48,21.0985039 L48,15.2183954 L33.6718008,15.2183954 L43.7160527,0 L36.1217124,0 L23.9998795,18.3657476 L11.8782876,0 L4.28394731,0 L14.3410681,15.2320353 L0,15.2320353 L0,21.0985039 L48,21.0985039 Z" id="logoMark"></path>
            </g>
        </g>
    </g>
</svg>