<?xml version="1.0" encoding="UTF-8"?>
<svg width="76px" height="76px" viewBox="0 0 76 76" version="1.1" xmlns="http://www.w3.org/2000/svg" xmlns:xlink="http://www.w3.org/1999/xlink">
    <!-- Generator: Sketch 47.1 (45422) - http://www.bohemiancoding.com/sketch -->
    <title>app-icon-guild</title>
    <desc>Created with Sketch.</desc>
    <defs>
        <path d="M75.9999691,52.0321065 C75.9999691,52.0321065 76.0183766,59.9532674 75.1559707,63.3865348 C74.2935648,66.8198022 72.7099266,69.2135086 70.9550542,70.9680276 C69.1923882,72.7303387 66.8573829,74.3327973 63.2981308,75.1676818 C59.7389529,76.0025662 52.0161187,75.9878722 52.0161187,75.9878722 L23.9596104,75.9999688 C23.9596104,75.9999688 16.0371144,76.0184476 12.6033747,75.1561789 C9.1695607,74.2938361 6.77547322,72.7104499 5.02067501,70.9558568 C3.25800908,69.1934714 1.65536958,66.8588377 0.820352245,63.3002263 C-0.0146650919,59.7416149 3.12132583e-05,52.02001 3.12132583e-05,52.02001 L3.12132583e-05,23.9678931 C3.12132583e-05,23.9678931 -0.0184505038,16.0467323 0.844029625,12.6134648 C1.70643553,9.18019742 3.29007374,6.7865652 5.04494618,5.03204629 C6.80761211,3.26966092 9.14261748,1.66720229 12.7017954,0.832317862 C16.2610475,-0.00256656916 23.9838074,0.0121273968 23.9838074,0.0121273968 L52.0403899,3.08490672e-05 C52.0403899,3.08490672e-05 59.962886,-0.0183737144 63.3966257,0.843894926 C66.8304397,1.70616357 69.2244529,3.28954972 70.9792511,5.04414284 C72.7419171,6.80652822 74.3446308,9.14116193 75.1796481,12.6997733 C76.0146655,16.2584589 75.9999691,23.9799896 75.9999691,23.9799896 L75.9999691,52.0321065 Z" id="path-1"></path>
    </defs>
    <g id="Symbols" stroke="none" stroke-width="1" fill="none" fill-rule="evenodd">
        <g id="about" transform="translate(-540.000000, -282.000000)">
            <g id="section-about">
                <g id="Group-3" transform="translate(540.000000, 282.000000)">
                    <g id="app-icon-guild">
                        <mask id="mask-2" fill="white">
                            <use xlink:href="#path-1"></use>
                        </mask>
                        <use id="Fill-1" fill="#00CF98" xlink:href="#path-1"></use>
                        <rect id="Rectangle" fill="#00CF98" mask="url(#mask-2)" x="0" y="0" width="76" height="76"></rect>
                        <path d="M32.7291223,28.9126079 C32.7291223,32.1084352 33.3681408,35.1132914 37.1398193,35.1132914 C40.9107633,35.1132914 41.7422219,32.1084352 41.7422219,28.9126079 C41.7422219,25.4604387 41.1024688,22.2007096 36.9473792,22.2007096 C33.1117989,22.2007096 32.7291223,25.9716536 32.7291223,28.9126079 L32.7291223,28.9126079 Z M28.9567093,52.8199813 C27.8711123,53.395098 26.7833117,54.5453314 26.7833117,55.8880049 C26.7833117,59.0206648 34.0703268,59.4679778 36.1159206,59.4679778 C37.9705434,59.4679778 41.67832,59.2762722 43.3397683,58.6365192 C44.3629325,58.253108 45.2575584,57.6779913 45.2575584,56.4638561 C45.2575584,54.3543604 42.4451423,54.4175277 40.9753996,54.1626548 L28.9567093,52.8199813 Z M44.554638,44.3180966 C47.1753486,44.5098021 50.1155685,44.8932133 52.288966,46.555396 C54.3345599,48.089775 55.2299204,50.32634 55.2299204,52.8838832 C55.2299204,57.1028746 52.4814061,60.938455 48.7097276,62.6638051 C45.1943911,64.2620859 40.0800392,64.7733008 36.180557,64.7733008 C30.6827939,64.7733008 19.6880023,63.814773 19.6880023,56.2721505 C19.6880023,53.395098 21.4779887,51.5419442 23.9708956,50.51878 C22.0531054,49.1122047 20.8397047,47.2583164 20.8397047,44.8932133 C20.8397047,41.1861711 23.2672407,37.8618057 26.9111154,37.1588853 C24.1633357,35.3049969 22.5650548,31.9167296 22.5650548,28.5930986 C22.5650548,20.6663306 29.340855,16.3195354 36.6925063,16.3195354 C38.5456601,16.3195354 40.3995484,16.5751428 42.2534367,16.8946521 C44.4268343,13.6988248 47.3031523,11.205918 51.3943401,11.205918 C53.9511488,11.205918 56.3801538,12.9320026 56.3801538,15.616615 C56.3801538,17.7261107 54.3984618,19.1319515 52.3536024,19.1319515 C51.1379981,19.1319515 50.1794703,18.3012274 48.9646006,18.3012274 C48.0707091,18.3012274 47.4948579,18.492933 46.9829085,19.1958534 C49.9877647,21.369251 51.9055549,24.5019109 51.9055549,28.3367567 C51.9055549,36.4552303 45.1297547,40.5464181 37.6502997,40.5464181 C35.9881169,40.5464181 34.0064249,40.3547125 32.3457112,39.9713014 C32.0254674,39.9073995 31.7059581,39.8434977 31.3864488,39.8434977 C30.5557247,39.8434977 30.1076772,40.5464181 30.1076772,41.3132404 C30.1076772,43.5505398 34.5822761,43.4227361 35.9881169,43.5505398 L44.554638,44.3180966 Z" id="Fill-1" fill="#FEFEFE" mask="url(#mask-2)"></path>
                    </g>
                </g>
            </g>
        </g>
    </g>
</svg>