<?xml version="1.0" encoding="UTF-8"?>
<svg width="538px" height="100px" viewBox="0 0 538 100" version="1.1" xmlns="http://www.w3.org/2000/svg" xmlns:xlink="http://www.w3.org/1999/xlink">
    <title>Stacks Logo Black</title>
    <defs>
        <polygon id="path-1" points="0 0 99.529 0 99.529 99.59 0 99.59"></polygon>
        <polygon id="path-3" points="0 0 120.232 0 120.232 89.7321438 0 89.7321438"></polygon>
    </defs>
    <g id="Stacks-Logo-Black" stroke="none" stroke-width="1" fill="none" fill-rule="evenodd">
        <g id="Group-3" transform="translate(0.060000, 0.410000)">
            <mask id="mask-2" fill="white">
                <use xlink:href="#path-1"></use>
            </mask>
            <g id="Clip-2"></g>
            <path d="M99.529,43.775 L99.529,31.575 L69.801,31.575 L90.641,0 L74.884,0 L49.734,38.105 L24.585,0 L8.828,0 L29.694,31.604 L-0.06,31.604 L-0.06,43.775 L99.529,43.775 Z M90.315,99.59 L69.185,67.576 L99.529,67.576 L99.529,55.498 L-0.06,55.498 L-0.06,67.59 L30.274,67.59 L9.154,99.59 L24.911,99.59 L49.734,61.979 L74.558,99.59 L90.315,99.59 L90.315,99.59 Z" id="Fill-1" fill="#1A1919" mask="url(#mask-2)"></path>
        </g>
        <path d="M160.651,65.09 C160.91,70.022 163.241,74.616 167.069,77.736 C170.923,80.913 175.943,82.502 182.129,82.502 C187.551,82.502 191.936,81.337 195.284,79.007 C198.536,76.861 200.437,73.179 200.304,69.284 C200.435,66.652 199.441,64.088 197.571,62.23 C195.444,60.327 192.896,58.956 190.136,58.227 C185.784,57.022 181.372,56.046 176.918,55.304 C171.859,54.48 166.898,53.139 162.113,51.3 C158.135,49.748 154.662,47.132 152.072,43.738 C149.487,40.35 148.195,35.902 148.196,30.393 C148.122,25.559 149.518,20.817 152.199,16.794 C154.984,12.715 158.86,9.5 163.383,7.516 C174.113,3.024 186.213,3.116 196.873,7.771 C201.61,9.927 205.689,13.305 208.692,17.557 C211.588,21.755 213.22,26.695 213.395,31.791 L199.033,31.791 C198.646,27.441 196.486,23.442 193.06,20.734 C189.584,17.938 185.179,16.54 179.842,16.54 C174.673,16.54 170.543,17.663 167.451,19.908 C164.396,22.072 162.649,25.638 162.811,29.377 C162.687,31.952 163.683,34.455 165.544,36.24 C167.637,38.081 170.145,39.389 172.852,40.053 C175.901,40.9 180.265,41.832 185.942,42.849 C191.028,43.679 196.012,45.042 200.812,46.915 C204.796,48.488 208.301,51.072 210.979,54.414 C213.604,57.719 214.918,62.082 214.919,67.505 C214.989,72.524 213.526,77.446 210.726,81.612 C207.802,85.872 203.754,89.237 199.032,91.335 C193.682,93.739 187.867,94.932 182.002,94.83 C175.61,94.965 169.269,93.662 163.447,91.017 C158.375,88.703 154.042,85.03 150.928,80.405 C147.892,75.781 146.279,70.368 146.289944,64.836 L160.651,65.09" id="Fill-4" fill="#1A1919"></path>
        <path d="M230.551,41.069 L219.24,41.069 L219.24,28.995 L230.551,28.995 L230.551,10.821 L244.404,10.821 L244.404,28.995 L260.038,28.995 L260.038,41.069 L244.404,41.069 L244.404,75.004 C244.404,77.546 244.913,79.347 245.929,80.405 C246.946,81.466 248.683,81.995 251.14,81.994 L261.561,81.994 L261.561,94.067 L248.344,94.067 C242.158,94.067 237.646,92.627 234.808,89.746 C231.969,86.867 230.55,82.419 230.551,76.401 L230.551,41.069" id="Fill-5" fill="#1A1919"></path>
        <path d="M313.892,77.291 C317.364,73.309 319.102,68.141 319.103,61.786 C319.103,55.347 317.365,50.095 313.892,46.026 C307.013,38.43 295.277,37.848 287.681,44.727 C287.248,45.119 286.833,45.532 286.439,45.963 C282.964,49.988 281.227,55.178 281.228998,61.532 C281.228998,67.972 282.966,73.204 286.439,77.228 C293.427,84.825 305.25,85.319 312.847,78.331 C313.209,77.999 313.558,77.651 313.892,77.291 Z M332.702,28.995 L332.702,94.067 L320.628,94.067 L319.104,84.154 C316.813,87.377 313.813,90.029 310.334,91.907 C306.497,93.924 302.211,94.93 297.879,94.83 C292.322,94.926 286.84,93.545 281.992,90.827 C277.296,88.123 273.496,84.101 271.062,79.261 C268.329,73.758 266.977,67.673 267.122,61.531 C266.995,55.465 268.37,49.462 271.125,44.056 C273.617,39.202 277.428,35.149 282.119,32.363 C286.898,29.577 292.348,28.15 297.879,28.233 C302.23,28.127 306.545,29.064 310.461,30.965 C313.935,32.714 316.908,35.316 319.104,38.527 L320.756,28.995 L332.702,28.995 L332.702,28.995 Z" id="Fill-6" fill="#1A1919"></path>
        <path d="M396.375,88.412 C391.121,92.691 384.385,94.831 376.168,94.83 C370.229,94.954 364.358,93.53 359.137,90.699 C354.266,87.992 350.307,83.901 347.762,78.943 C345.012,73.513 343.637,67.49 343.759,61.404 C343.626,55.35 345.024,49.362 347.825,43.993 C350.449,39.082 354.446,35.041 359.328,32.363 C364.617,29.528 370.549,28.106 376.549,28.233 C384.683,28.233 391.334,30.372 396.503,34.651 C401.67,38.932 404.89,44.757 406.162,52.127 L392.055,52.127 C391.255,48.612 389.282,45.474 386.462,43.23 C383.513,40.977 379.877,39.81 376.168,39.926 C371.054,39.748 366.146,41.955 362.887,45.899 C359.538,49.883 357.864,55.052 357.866,61.405 C357.866,67.846 359.539,73.077 362.887,77.101 C368.964,83.981 379.267,85.135 386.716,79.77 C389.544,77.473 391.478,74.258 392.181,70.683 L406.161,70.683 C404.891,78.225 401.628,84.135 396.375,88.412" id="Fill-7" fill="#1A1919"></path>
        <g id="Group-11" transform="translate(417.218000, 5.102000)">
            <mask id="mask-4" fill="white">
                <use xlink:href="#path-3"></use>
            </mask>
            <g id="Clip-9"></g>
            <polyline id="Fill-8" fill="#1A1919" mask="url(#mask-4)" points="0 0 13.725 0 13.725 55.667 43.465 23.893 59.352 23.893 35.077 50.075 60.878 88.965 44.609 88.965 25.291 60.116 13.725 72.316 13.725 88.965 0 88.965 0 0"></polyline>
            <path d="M76.637,67.487 C76.872,70.843 78.627,73.91 81.403,75.811 C84.327,77.972 88.118,79.052 92.778,79.052 C96.298,79.206 99.792,78.393 102.882,76.701 C105.465,75.134 106.757,73.037 106.758,70.41 C106.897,68.58 106.251,66.777 104.978,65.454 C103.622,64.268 101.979,63.457 100.213,63.102 C98.22,62.637 95.149,62.15 90.998,61.64 C86.245,61.147 81.546,60.233 76.955,58.908 C73.545,57.936 70.467,56.045 68.058,53.443 C65.812,50.945 64.689,47.577 64.69,43.339 C64.635,39.53 65.816,35.807 68.058,32.727 C70.436,29.53 73.645,27.047 77.337,25.546 C81.585,23.791 86.148,22.927 90.745,23.004 C98.963,23.004 105.635,24.826 110.762,28.469 C115.818,31.985 118.907,37.691 119.087,43.848 L105.742,43.848 C105.4,40.878 103.774,38.207 101.294,36.539 C98.382,34.547 94.906,33.545 91.381,33.68 C88.011,33.528 84.665,34.32 81.721,35.968 C79.435,37.201 78.017,39.597 78.036,42.195 C77.915,43.867 78.6,45.497 79.879,46.58 C81.242,47.616 82.832,48.313 84.517,48.614 C86.38,48.995 89.387,49.44 93.541,49.948 C98.323,50.381 103.05,51.297 107.648,52.68 C111.186,53.732 114.357,55.758 116.799,58.527 C119.087,61.196 120.23,64.818 120.23,69.393 C120.292,73.273 119.038,77.058 116.672,80.132 C114.122,83.356 110.737,85.818 106.886,87.249 C102.426,88.957 97.68,89.799 92.905,89.728 C84.178,89.728 77.124,87.758 71.744,83.818 C66.364,79.878 63.589,74.434 63.42,67.487 L76.637,67.487" id="Fill-10" fill="#1A1919" mask="url(#mask-4)"></path>
        </g>
    </g>
</svg>