<?xml version="1.0" encoding="UTF-8"?>
<svg width="500px" height="491px" viewBox="0 0 500 491" version="1.1" xmlns="http://www.w3.org/2000/svg" xmlns:xlink="http://www.w3.org/1999/xlink">
    <!-- Generator: Sketch 52.5 (67469) - http://www.bohemiancoding.com/sketch -->
    <title>icons8-game-controller</title>
    <desc>Created with Sketch.</desc>
    <g id="Page-1" stroke="none" stroke-width="1" fill="none" fill-rule="evenodd">
        <g id="icons8-game-controller" fill="#00AE99" fill-rule="nonzero">
            <path d="M439.0625,0.6875 C438.63281,0.76563 438.20313,0.88281 437.8125,1 C433.16406,2.05469 429.88281,6.23438 430,11 C430,29.98438 421.21094,40.41406 405,50.6875 C388.78906,60.96094 365.35156,69.28125 341.25,79.4375 C317.14844,89.59375 292.1875,101.82031 272.8125,122.25 C255.19531,140.84375 242.96875,166.39063 240.9375,200.6875 C222.89063,199.32031 212.30469,193.73438 199.6875,187.25 C185.07813,179.75 167.73438,171 140,171 C122.89063,171 106.52344,181 90.9375,195.6875 C75.35156,210.375 60.27344,230.33594 46.875,253.5 C20.07813,299.82813 0,358.38281 0,411 C0,432.67969 5.39063,452.01563 15.625,466.625 C25.85938,481.23438 41.67969,491 60,491 C108.32031,491 143.39844,466.58594 172.5,443.8125 C201.60156,421.03906 225,401 250,401 C275,401 298.39844,421.03906 327.5,443.8125 C356.60156,466.58594 391.67969,491 440,491 C458.32031,491 474.14063,481.23438 484.375,466.625 C494.60938,452.01563 500,432.67969 500,411 C500,358.38281 479.92188,299.82813 453.125,253.5 C439.72656,230.33594 424.64844,210.375 409.0625,195.6875 C393.47656,181 377.10938,171 360,171 C332.26563,171 314.92188,179.75 300.3125,187.25 C288.20313,193.46094 277.96875,198.73438 261.25,200.375 C263.20313,170.96094 273.00781,151.27344 287.5,136 C303.67188,118.92969 325.78125,107.40625 349.0625,97.5625 C372.34375,87.71875 396.28906,79.78906 415.625,67.5625 C434.96094,55.33594 450,37.01563 450,11 C450.11719,8.10938 448.94531,5.33594 446.875,3.38281 C444.76563,1.39063 441.91406,0.41406 439.0625,0.6875 Z M140,191 C163.86719,191 175.70313,197.25 190.3125,204.75 C204.92188,212.25 222.26563,221 250,221 C250.97656,221 251.875,221.03906 252.8125,221 C252.92969,221 253.00781,221 253.125,221 C279.02344,220.375 295.66406,211.97656 309.6875,204.75 C324.29688,197.25 336.13281,191 360,191 C368.67188,191 381.67969,197.25 395.3125,210.0625 C408.94531,222.875 422.96875,241.66406 435.625,263.5 C460.9375,307.17188 480,363.61719 480,411 C480,429.32031 475.39063,444.98438 468.125,455.375 C460.85938,465.76563 451.67969,471 440,471 C398.32031,471 368.39844,450.41406 340,428.1875 C311.60156,405.96094 285,381 250,381 C215,381 188.39844,405.96094 160,428.1875 C131.60156,450.41406 101.67969,471 60,471 C48.32031,471 39.14063,465.76563 31.875,455.375 C24.60938,444.98438 20,429.32031 20,411 C20,363.61719 39.0625,307.17188 64.375,263.5 C77.03125,241.66406 91.05469,222.875 104.6875,210.0625 C118.32031,197.25 131.32813,191 140,191 Z M370,261 C358.94531,261 350,269.94531 350,281 C350,292.05469 358.94531,301 370,301 C381.05469,301 390,292.05469 390,281 C390,269.94531 381.05469,261 370,261 Z M120,271 L120,301 L90,301 L90,331 L120,331 L120,361 L150,361 L150,331 L180,331 L180,301 L150,301 L150,271 L120,271 Z M330,301 C318.94531,301 310,309.94531 310,321 C310,332.05469 318.94531,341 330,341 C341.05469,341 350,332.05469 350,321 C350,309.94531 341.05469,301 330,301 Z M410,301 C398.94531,301 390,309.94531 390,321 C390,332.05469 398.94531,341 410,341 C421.05469,341 430,332.05469 430,321 C430,309.94531 421.05469,301 410,301 Z M370,341 C358.94531,341 350,349.94531 350,361 C350,372.05469 358.94531,381 370,381 C381.05469,381 390,372.05469 390,361 C390,349.94531 381.05469,341 370,341 Z" id="Shape"></path>
        </g>
    </g>
</svg>