<?xml version="1.0" encoding="UTF-8"?>
<svg width="500px" height="500px" viewBox="0 0 500 500" version="1.1" xmlns="http://www.w3.org/2000/svg" xmlns:xlink="http://www.w3.org/1999/xlink">
    <!-- Generator: Sketch 52.5 (67469) - http://www.bohemiancoding.com/sketch -->
    <title>icons8-coins</title>
    <desc>Created with Sketch.</desc>
    <g id="Page-1" stroke="none" stroke-width="1" fill="none" fill-rule="evenodd">
        <g id="icons8-coins" transform="translate(-1.000000, 0.000000)" fill="#00AE99" fill-rule="nonzero">
            <path d="M351,0 C311.39063,0 275.33594,5.70313 248.5,15.3125 C235.0625,20.11719 224.125,25.66406 215.6875,32.8125 C207.25,39.96094 201,49.29688 201,60 C201,61.99219 201.23438,64.0625 201.625,65.9375 C201.15625,67.22656 200.92188,68.63281 201,70 L201,130 C201,131.99219 201.23438,134.0625 201.625,135.9375 C201.15625,137.22656 200.92188,138.63281 201,140 L201,173.125 C185.33594,171.05469 168.57813,170 151,170 C111.39063,170 75.33594,175.70313 48.5,185.3125 C35.0625,190.11719 24.125,195.66406 15.6875,202.8125 C7.25,209.96094 1,219.29688 1,230 C1,231.99219 1.234375,234.0625 1.625,235.9375 C1.15625,237.22656 0.921875,238.63281 1,240 L1,300 C1,301.99219 1.234375,304.0625 1.625,305.9375 C1.15625,307.22656 0.921875,308.63281 1,310 L1,370 C1,371.99219 1.234375,374.0625 1.625,375.9375 C1.15625,377.22656 0.921875,378.63281 1,380 L1,440 C1,450.70313 7.25,460.03906 15.6875,467.1875 C24.125,474.33594 35.0625,479.88281 48.5,484.6875 C75.33594,494.25781 111.35156,500 151,500 C190.64844,500 226.66406,494.25781 253.5,484.6875 C266.9375,479.88281 277.875,474.33594 286.3125,467.1875 C294.75,460.03906 301,450.70313 301,440 L301,396.875 C316.66406,398.94531 333.38281,400 351,400 C390.64844,400 426.66406,394.25781 453.5,384.6875 C466.9375,379.88281 477.875,374.33594 486.3125,367.1875 C494.75,360.03906 501,350.70313 501,340 L501,280 C501.07813,278.63281 500.84375,277.22656 500.375,275.9375 C500.76563,274.0625 501,271.99219 501,270 L501,210 C501.07813,208.63281 500.84375,207.22656 500.375,205.9375 C500.76563,204.0625 501,201.99219 501,200 L501,140 C501.07813,138.63281 500.84375,137.22656 500.375,135.9375 C500.76563,134.0625 501,131.99219 501,130 L501,70 C500.96094,68.59375 500.64844,67.22656 500.0625,65.9375 C500.49219,64.02344 501,62.03125 501,60 C501,49.29688 494.75,39.96094 486.3125,32.8125 C477.875,25.66406 466.9375,20.11719 453.5,15.3125 C426.66406,5.70313 390.60938,0 351,0 Z M351,20 C388.69531,20 422.79688,25.54688 446.625,34.0625 C458.53906,38.32031 467.79688,43.32031 473.5,48.125 C479.20313,52.92969 481,56.875 481,60 C481,63.125 479.20313,67.07031 473.5,71.875 C467.79688,76.67969 458.53906,81.67969 446.625,85.9375 C422.79688,94.45313 388.69531,100 351,100 C313.30469,100 279.20313,94.45313 255.375,85.9375 C243.46094,81.67969 234.20313,76.67969 228.5,71.875 C222.79688,67.07031 221,63.125 221,60 C221,56.875 222.79688,52.92969 228.5,48.125 C234.20313,43.32031 243.46094,38.32031 255.375,34.0625 C279.20313,25.54688 313.30469,20 351,20 Z M221,90.9375 C228.61719,96.25 237.64063,100.82031 248.5,104.6875 C275.33594,114.29688 311.39063,120 351,120 C390.60938,120 426.66406,114.29688 453.5,104.6875 C464.35938,100.82031 473.38281,96.25 481,90.9375 L481,130 C481,133.125 479.20313,137.07031 473.5,141.875 C467.79688,146.67969 458.53906,151.67969 446.625,155.9375 C422.79688,164.45313 388.69531,170 351,170 C313.30469,170 279.20313,164.45313 255.375,155.9375 C243.46094,151.67969 234.20313,146.67969 228.5,141.875 C222.79688,137.07031 221,133.125 221,130 L221,90.9375 Z M221,160.9375 C228.61719,166.25 237.64063,170.82031 248.5,174.6875 C275.33594,184.29688 311.35156,190 351,190 C390.64844,190 426.66406,184.29688 453.5,174.6875 C464.35938,170.82031 473.38281,166.25 481,160.9375 L481,200 C481,203.125 479.20313,207.07031 473.5,211.875 C467.79688,216.67969 458.53906,221.67969 446.625,225.9375 C422.79688,234.45313 388.69531,240 351,240 C332.99219,240 315.72656,238.78906 300.0625,236.5625 C300.0625,236.36719 300.0625,236.13281 300.0625,235.9375 C300.49219,234.02344 301,232.03125 301,230 C301,219.29688 294.75,209.96094 286.3125,202.8125 C277.875,195.66406 266.9375,190.11719 253.5,185.3125 C243.77344,181.83594 232.83594,178.94531 221,176.5625 L221,160.9375 Z M151,190 C188.69531,190 222.79688,195.54688 246.625,204.0625 C258.53906,208.32031 267.79688,213.32031 273.5,218.125 C279.20313,222.92969 281,226.875 281,230 C281,233.125 279.20313,237.07031 273.5,241.875 C267.79688,246.67969 258.53906,251.67969 246.625,255.9375 C222.79688,264.45313 188.69531,270 151,270 C113.30469,270 79.20313,264.45313 55.375,255.9375 C43.46094,251.67969 34.20313,246.67969 28.5,241.875 C22.79688,237.07031 21,233.125 21,230 C21,226.875 22.79688,222.92969 28.5,218.125 C34.20313,213.32031 43.46094,208.32031 55.375,204.0625 C79.20313,195.54688 113.30469,190 151,190 Z M481,230.9375 L481,270 C481,273.125 479.20313,277.07031 473.5,281.875 C467.79688,286.67969 458.53906,291.67969 446.625,295.9375 C422.79688,304.45313 388.69531,310 351,310 C333.03125,310 315.96094,308.51563 300.375,306.25 C300.25781,306.25 300.17969,306.25 300.0625,306.25 C300.10156,306.13281 300.02344,306.05469 300.0625,305.9375 C300.49219,304.02344 301,302.03125 301,300 L301,256.875 C316.58594,258.90625 333.46094,260 351,260 C390.64844,260 426.66406,254.29688 453.5,244.6875 C464.35938,240.82031 473.38281,236.25 481,230.9375 Z M21,260.9375 C28.61719,266.25 37.64063,270.82031 48.5,274.6875 C75.33594,284.29688 111.39063,290 151,290 C190.60938,290 226.66406,284.29688 253.5,274.6875 C264.35938,270.82031 273.38281,266.25 281,260.9375 L281,300 C281,303.125 279.20313,307.07031 273.5,311.875 C267.79688,316.67969 258.53906,321.67969 246.625,325.9375 C222.79688,334.45313 188.69531,340 151,340 C113.30469,340 79.20313,334.45313 55.375,325.9375 C43.46094,321.67969 34.20313,316.67969 28.5,311.875 C22.79688,307.07031 21,303.125 21,300 L21,260.9375 Z M481,300.9375 L481,340 C481,343.125 479.20313,347.07031 473.5,351.875 C467.79688,356.67969 458.53906,361.67969 446.625,365.9375 C422.79688,374.45313 388.69531,380 351,380 C332.875,380 315.76563,378.51563 300.0625,376.25 C300.0625,376.13281 300.0625,376.05469 300.0625,375.9375 C300.49219,374.02344 301,372.03125 301,370 L301,326.875 C316.625,328.94531 333.5,330 351,330 C390.64844,330 426.66406,324.25781 453.5,314.6875 C464.35938,310.82031 473.38281,306.25 481,300.9375 Z M21,330.9375 C28.61719,336.25 37.64063,340.82031 48.5,344.6875 C75.33594,354.25781 111.35156,360 151,360 C190.64844,360 226.66406,354.25781 253.5,344.6875 C264.35938,340.82031 273.38281,336.25 281,330.9375 L281,370 C281,373.125 279.20313,377.07031 273.5,381.875 C267.79688,386.67969 258.53906,391.67969 246.625,395.9375 C222.79688,404.45313 188.69531,410 151,410 C113.30469,410 79.20313,404.45313 55.375,395.9375 C43.46094,391.67969 34.20313,386.67969 28.5,381.875 C22.79688,377.07031 21,373.125 21,370 L21,330.9375 Z M21,400.9375 C28.61719,406.25 37.64063,410.82031 48.5,414.6875 C75.33594,424.25781 111.35156,430 151,430 C190.64844,430 226.66406,424.25781 253.5,414.6875 C264.35938,410.82031 273.38281,406.25 281,400.9375 L281,440 C281,443.125 279.20313,447.07031 273.5,451.875 C267.79688,456.67969 258.53906,461.67969 246.625,465.9375 C222.79688,474.45313 188.69531,480 151,480 C113.30469,480 79.20313,474.45313 55.375,465.9375 C43.46094,461.67969 34.20313,456.67969 28.5,451.875 C22.79688,447.07031 21,443.125 21,440 L21,400.9375 Z" id="Shape"></path>
        </g>
    </g>
</svg>