<?xml version="1.0" encoding="UTF-8"?>
<svg width="400px" height="480px" viewBox="0 0 400 480" version="1.1" xmlns="http://www.w3.org/2000/svg" xmlns:xlink="http://www.w3.org/1999/xlink">
    <!-- Generator: Sketch 52.5 (67469) - http://www.bohemiancoding.com/sketch -->
    <title>Untitled 18</title>
    <desc>Created with Sketch.</desc>
    <g id="Page-1" stroke="none" stroke-width="1" fill="none" fill-rule="evenodd">
        <g id="icons8-id-verified" fill="#00AE99" fill-rule="nonzero">
            <path d="M150,0 C128.00781,0 110,18.00781 110,40 L30,40 C13.55469,40 0,53.55469 0,70 L0,390 C0,406.44531 13.55469,420 30,420 L208.4375,420 C223.94531,455.19531 259.14063,480 300,480 C355.11719,480 400,435.11719 400,380 C400,324.88281 355.11719,280 300,280 L300,70 C300,53.55469 286.44531,40 270,40 L190,40 C190,18.00781 171.99219,0 150,0 Z M150,20 C161.17188,20 170,28.82813 170,40 L170,70 L130,70 L130,40 C130,28.82813 138.82813,20 150,20 Z M150,30 C144.49219,30 140,34.49219 140,40 C140,45.50781 144.49219,50 150,50 C155.50781,50 160,45.50781 160,40 C160,34.49219 155.50781,30 150,30 Z M30,60 L110,60 L110,80 C110,85.50781 114.49219,90 120,90 L180,90 C185.50781,90 190,85.50781 190,80 L190,60 L270,60 C275.66406,60 280,64.33594 280,70 L280,282.1875 C263.75,285.50781 248.90625,292.61719 236.5625,302.8125 C234.17969,297.07031 230.89844,292.03125 226.875,288.125 C220.42969,281.875 212.92969,277.85156 205.9375,274.6875 C198.94531,271.52344 192.38281,268.98438 187.8125,266.5625 C183.71094,264.41406 182.5,262.96875 181.875,261.875 C181.60156,257.77344 181.52344,253.98438 181.5625,250 C181.79688,249.6875 182.26563,249.375 182.5,249.0625 C183.98438,247.03125 185.03906,244.96094 186.25,242.5 C188.00781,238.90625 189.33594,234.33594 190.3125,230 C191.44531,229.14063 192.85156,228.98438 193.75,227.8125 C196.71875,224.02344 198.32031,219.25781 199.0625,213.125 C199.6875,207.85156 198.39844,203.51563 196.25,200 C198.39844,192.42188 200.89844,182.89063 200,171.25 C199.45313,164.21875 197.77344,156.75781 193.125,150.3125 C188.86719,144.41406 181.79688,140.15625 173.4375,138.4375 C167.10938,132.65625 158.86719,130 149.6875,130 L149.375,130 C127.30469,130.39063 111.21094,140.39063 104.6875,155.3125 C98.78906,168.82813 100.15625,184.375 103.75,200.3125 C101.67969,203.78906 100.3125,207.92969 100.9375,213.125 C101.67969,219.25781 103.28125,224.02344 106.25,227.8125 C107.14844,228.98438 108.55469,229.14063 109.6875,230 C110.70313,234.375 111.95313,238.90625 113.75,242.5 C115,244.96094 116.32813,247.07031 117.8125,249.0625 C118.04688,249.375 118.51563,249.6875 118.75,250 C118.78906,253.98438 118.71094,257.77344 118.4375,261.875 C117.61719,263.55469 115.74219,265.46875 111.25,267.8125 C106.32813,270.35156 99.53125,272.57813 92.1875,275.9375 C84.84375,279.29688 76.95313,283.55469 70.625,290.625 C64.29688,297.69531 60,307.89063 60,320 L60,330 L213.75,330 C205.15625,344.76563 200,361.75781 200,380 C200,386.875 200.85938,393.51563 202.1875,400 L30,400 C24.33594,400 20,395.66406 20,390 L20,70 C20,64.33594 24.33594,60 30,60 Z M149.6875,150 C157.73438,150 161.21094,152.73438 161.25,152.8125 L163.75,156.875 L168.4375,157.8125 C173.35938,158.47656 175.23438,159.88281 176.875,162.1875 C178.51563,164.49219 179.64844,168.16406 180,172.8125 C180.74219,182.14844 178.00781,194.41406 176.25,199.6875 L173.75,207.1875 L179.375,210.625 C179.02344,213.59375 178.63281,214.29688 178.4375,214.6875 L172.5,215 L171.5625,223.4375 C171.25,226.36719 170,230.58594 168.4375,233.75 C167.65625,235.35156 166.79688,236.71875 166.25,237.5 L161.5625,240 L161.5625,245.9375 C161.5625,252.22656 161.17188,257.85156 161.875,265.625 L161.875,266.875 L162.5,268.125 C165.54688,276.32813 172.42188,281.05469 178.75,284.375 C185.07813,287.69531 191.67969,290.03906 197.8125,292.8125 C203.94531,295.58594 209.41406,298.86719 213.125,302.5 C215.15625,304.45313 215.39063,307.5 216.5625,310 L83.4375,310 C84.29688,308.28125 84.375,305.46875 85.625,304.0625 C89.02344,300.27344 94.02344,297.22656 100.3125,294.375 C106.60156,291.52344 113.86719,288.82813 120.625,285.3125 C127.38281,281.79688 134.57031,276.79688 137.8125,268.125 L138.4375,265.625 C139.14063,257.85156 138.75,252.22656 138.75,245.9375 L138.75,240 L134.6875,237.8125 C134.6875,237.77344 134.33594,237.57813 134.0625,237.1875 C133.47656,236.40625 132.34375,235.03906 131.5625,233.4375 C129.96094,230.27344 128.75,226.25 128.4375,223.4375 L127.5,215 L121.5625,214.6875 C121.36719,214.29688 120.97656,213.59375 120.625,210.625 L125.625,207.5 L123.75,200.3125 C119.72656,184.88281 119.60938,171.13281 123.125,163.125 C126.64063,155.11719 132.5,150.3125 149.6875,150 Z M300,300 C344.29688,300 380,335.70313 380,380 C380,424.29688 344.29688,460 300,460 C255.70313,460 220,424.29688 220,380 C220,335.70313 255.70313,300 300,300 Z M334.0625,331.875 L290.625,399.0625 L264.375,375 L250.9375,390 L285.9375,421.5625 L294.6875,429.6875 L301.25,419.6875 L350.9375,342.5 L334.0625,331.875 Z" id="Shape"></path>
        </g>
    </g>
</svg>