<svg xmlns="http://www.w3.org/2000/svg" width="280" height="105" viewBox="0 0 280 105">
  <g fill="none" transform="translate(20 16)">
    <path fill="#FFF" d="M183.075,62.925 L189.525,60.9 L189.525,7.5 L183.075,9.525 L183.075,62.925 Z M108.675,30.525 C112.725,30.525 116.475,32.325 118.875,35.325 L121.5,29.25 C118.05,25.95 113.475,24.375 108.675,24.375 C97.575,24.375 89.925,33.15 90,42.825 C90.075,53.325 98.325,61.875 108.675,61.875 C113.925,61.875 117.9,60.3 120.9,58.125 L120.9,50.7 C117.75,53.85 113.175,55.725 109.2,55.725 C103.2,55.725 96.45,50.85 96.45,42.825 C96.45,35.4 102.3,30.525 108.675,30.525 Z M151.575,24.375 C140.475,24.375 134.025,33.15 134.025,42.825 C134.025,53.325 142.35,61.875 152.7,61.875 C157.95,61.875 161.925,60.3 164.925,58.125 L164.925,50.7 C161.775,53.85 157.2,55.725 153.225,55.725 C147.9,55.725 142.05,52.425 140.85,45.45 L169.125,45.45 L169.125,42.975 C169.125,32.625 162.3,24.375 151.575,24.375 Z M221.25,24.375 C210.9,24.375 202.5,32.775 202.5,43.125 C202.5,53.475 210.9,61.875 221.25,61.875 C231.6,61.875 240,53.475 240,43.125 C240,32.775 231.6,24.375 221.25,24.375 Z M151.65,30.525 C156.675,30.525 162,33.675 162.45,39.75 L140.85,39.75 C141.3,33.675 146.625,30.525 151.65,30.525 Z M221.25,55.7250176 C214.291212,55.7250176 208.65,50.0837878 208.65,43.125 C208.65,36.1662122 214.291212,30.525 221.25,30.525 C228.208788,30.525 233.850018,36.1662122 233.850018,43.125 C233.855586,46.4684372 232.529884,49.6765433 230.165714,52.0407138 C227.801543,54.4048842 224.593437,55.7305864 221.25,55.7250176 L221.25,55.7250176 Z"/>
    <path fill="#35D07F" d="M43.125,48.75 C54.516,48.75 63.75,39.516 63.75,28.125 C63.75,16.734 54.516,7.5 43.125,7.5 C31.734,7.5 22.5,16.734 22.5,28.125 C22.5,39.516 31.734,48.75 43.125,48.75 Z M43.125,56.25 C27.5925,56.25 15,43.6575 15,28.125 C15,12.5925 27.5925,0 43.125,0 C58.6575,0 71.25,12.5925 71.25,28.125 C71.25,43.6575 58.6575,56.25 43.125,56.25 Z"/>
    <path fill="#FBCC5C" d="M28.125,63.75 C39.516,63.75 48.75,54.516 48.75,43.125 C48.75,31.734 39.516,22.5 28.125,22.5 C16.734,22.5 7.5,31.734 7.5,43.125 C7.5,54.516 16.734,63.75 28.125,63.75 Z M28.125,71.25 C12.5925,71.25 0,58.6575 0,43.125 C0,27.5925 12.5925,15 28.125,15 C43.6575,15 56.25,27.5925 56.25,43.125 C56.25,58.6575 43.6575,71.25 28.125,71.25 Z"/>
    <path fill="#ECFF8F" d="M44.0475,56.235 C45.9967183,53.8732108 47.3937356,51.1058251 48.1365,48.135 C51.1072158,47.392339 53.8745712,45.9955933 56.2365,44.04675 C56.1288112,47.4864802 55.3879304,50.8768869 54.051,54.048 C50.8795173,55.3856252 47.4885819,56.1270189 44.04825,56.235 L44.0475,56.235 Z M23.11425,23.1135 C20.1435342,23.856161 17.3761788,25.2529067 15.01425,27.20175 C15.1219388,23.7620198 15.8628196,20.3716131 17.19975,17.2005 C20.371331,15.8633897 23.7622627,15.1225053 27.2025,15.015 C25.2538545,17.3764913 23.8571191,20.1433138 23.11425,23.1135 L23.11425,23.1135 Z"/>
  </g>
</svg>
