<svg xmlns="http://www.w3.org/2000/svg" width="280" height="105" viewBox="0 0 280 105">
  <g fill="none" transform="translate(20 16)">
    <path fill="#2E3338" d="M183.075,63.5873684 L189.525,61.5410526 L189.525,7.57894737 L183.075,9.62526316 L183.075,63.5873684 Z M108.675,30.8463158 C112.725,30.8463158 116.475,32.6652632 118.875,35.6968421 L121.5,29.5578947 C118.05,26.2231579 113.475,24.6315789 108.675,24.6315789 C97.575,24.6315789 89.925,33.4989474 90,43.2757895 C90.075,53.8863158 98.325,62.5263158 108.675,62.5263158 C113.925,62.5263158 117.9,60.9347368 120.9,58.7368421 L120.9,51.2336842 C117.75,54.4168421 113.175,56.3115789 109.2,56.3115789 C103.2,56.3115789 96.45,51.3852632 96.45,43.2757895 C96.45,35.7726316 102.3,30.8463158 108.675,30.8463158 Z M151.575,24.6315789 C140.475,24.6315789 134.025,33.4989474 134.025,43.2757895 C134.025,53.8863158 142.35,62.5263158 152.7,62.5263158 C157.95,62.5263158 161.925,60.9347368 164.925,58.7368421 L164.925,51.2336842 C161.775,54.4168421 157.2,56.3115789 153.225,56.3115789 C147.9,56.3115789 142.05,52.9768421 140.85,45.9284211 L169.125,45.9284211 L169.125,43.4273684 C169.125,32.9684211 162.3,24.6315789 151.575,24.6315789 Z M221.25,24.6315789 C210.9,24.6315789 202.5,33.12 202.5,43.5789474 C202.5,54.0378947 210.9,62.5263158 221.25,62.5263158 C231.6,62.5263158 240,54.0378947 240,43.5789474 C240,33.12 231.6,24.6315789 221.25,24.6315789 Z M151.65,30.8463158 C156.675,30.8463158 162,34.0294737 162.45,40.1684211 L140.85,40.1684211 C141.3,34.0294737 146.625,30.8463158 151.65,30.8463158 Z M221.25,56.3115967 C214.291212,56.3115967 208.65,50.6109856 208.65,43.5789474 C208.65,36.5469091 214.291212,30.8463158 221.25,30.8463158 C228.208788,30.8463158 233.850018,36.5469091 233.850018,43.5789474 C233.855586,46.9575787 232.529884,50.1994543 230.165714,52.5885107 C227.801543,54.9775672 224.593437,56.3172241 221.25,56.3115967 L221.25,56.3115967 Z"/>
    <path fill="#FBCC5C" d="M28.125,64.4210526 C39.516,64.4210526 48.75,55.0898526 48.75,43.5789474 C48.75,32.0680421 39.516,22.7368421 28.125,22.7368421 C16.734,22.7368421 7.5,32.0680421 7.5,43.5789474 C7.5,55.0898526 16.734,64.4210526 28.125,64.4210526 Z M28.125,72 C12.5925,72 0,59.2749474 0,43.5789474 C0,27.8829474 12.5925,15.1578947 28.125,15.1578947 C43.6575,15.1578947 56.25,27.8829474 56.25,43.5789474 C56.25,59.2749474 43.6575,72 28.125,72 Z"/>
    <path fill="#35D07F" d="M43.125,49.2631579 C54.516,49.2631579 63.75,39.9319579 63.75,28.4210526 C63.75,16.9101474 54.516,7.57894737 43.125,7.57894737 C31.734,7.57894737 22.5,16.9101474 22.5,28.4210526 C22.5,39.9319579 31.734,49.2631579 43.125,49.2631579 Z M43.125,56.8421053 C27.5925,56.8421053 15,44.1170526 15,28.4210526 C15,12.7250526 27.5925,0 43.125,0 C58.6575,0 71.25,12.7250526 71.25,28.4210526 C71.25,44.1170526 58.6575,56.8421053 43.125,56.8421053 Z"/>
    <path fill="#5EA33B" d="M44.0475,56.8269474 C45.9967183,54.4402972 47.3937356,51.6437811 48.1365,48.6416842 C51.1072158,47.8912057 53.8745712,46.4797574 56.2365,44.5104 C56.1288112,47.9863379 55.3879304,51.4124331 54.051,54.6169263 C50.8795173,55.9686318 47.4885819,56.7178296 44.04825,56.8269474 L44.0475,56.8269474 Z M23.11425,23.3568 C20.1435342,24.1072785 17.3761788,25.5187268 15.01425,27.4880842 C15.1219388,24.0121463 15.8628196,20.5860511 17.19975,17.3815579 C20.371331,16.0303728 23.7622627,15.2816896 27.2025,15.1730526 C25.2538545,17.5594017 23.8571191,20.3553487 23.11425,23.3568 L23.11425,23.3568 Z"/>
  </g>
</svg>
